<?xml version="1.0" encoding="utf-8"?>
<!-- Generator: Adobe Illustrator 21.1.0, SVG Export Plug-In . SVG Version: 6.00 Build 0)  -->
<svg version="1.1" id="Facebook" xmlns="http://www.w3.org/2000/svg" xmlns:xlink="http://www.w3.org/1999/xlink" x="0px" y="0px"
	 viewBox="0 0 20 20" style="enable-background:new 0 0 20 20;" xml:space="preserve">
<style type="text/css">
	.st0{fill:none;stroke:#000000;stroke-width:0.5;stroke-linejoin:round;stroke-miterlimit:10;}
</style>
<path class="st0" d="M17,1H3C1.9,1,1,1.9,1,3v14c0,1.1,0.9,2,2,2h7v-7H8V9.5h2v-2c0-2.2,1.2-3.7,3.8-3.7l1.8,0v2.6h-1.2
	c-1,0-1.4,0.7-1.4,1.4v1.7h2.6L15,12h-2v7h4c1.1,0,2-0.9,2-2V3C19,1.9,18.1,1,17,1z"/>
</svg>
