<?xml version="1.0" encoding="utf-8"?>
<!-- Generator: Adobe Illustrator 21.1.0, SVG Export Plug-In . SVG Version: 6.00 Build 0)  -->
<svg version="1.1" id="レイヤー_1" xmlns="http://www.w3.org/2000/svg" xmlns:xlink="http://www.w3.org/1999/xlink" x="0px"
	 y="0px" viewBox="0 0 654.9 216.5" style="enable-background:new 0 0 654.9 216.5;" xml:space="preserve">
<style type="text/css">
	.st0{fill:#E8E8E8;}
	.st1{fill:#EFEFEF;}
	.st2{fill:#F7F8F8;}
	.st3{fill:#BB9361;}
	.st4{fill:#FFFFFF;}
</style>
<g>
	<rect x="40.6" y="47.4" class="st0" width="104.9" height="104.9"/>
	<rect x="40.6" y="46" class="st1" width="104.9" height="104.9"/>
	<rect x="40.6" y="44.6" class="st2" width="104.9" height="104.9"/>
	<rect x="40.6" y="33.3" class="st3" width="104.9" height="14.2"/>
	<g>
		<path d="M83.5,51v13.2h-2V54.2l-2.5,1.4l-0.3-1.9L83.5,51z"/>
		<path d="M90.5,51v13.2h-2V54.2L86,55.7l-0.3-1.9L90.5,51z"/>
		<path d="M101.1,62.7h0.8c1.8,0,2,0,2-1v-1.6h-7.3c-0.3,1.8-0.8,3.7-1.6,5l-2.1-1.4c1.3-1.9,1.8-4.5,1.8-8.2v-5.2h11.5v11
			c0,3.1-0.2,3.5-4,3.5L101.1,62.7z M103.9,56.2h-7.1v0.6c0,0.4,0,0.9-0.1,1.3h7.2V56.2z M103.9,52.4h-7.1v1.8h7.1V52.4z"/>
		<path d="M113.3,117h-6.9v12.8H98V117H69.2l37.2-48.6v41h6.9V117z M98,109.5V91.9l-13.3,17.6H98z"/>
		<path d="M81.9,147c-0.6-0.2-1.1-0.4-1.6-0.7l0.3-1.9c0.5,0.3,1,0.6,1.5,0.8c0.5,0.2,0.9,0.3,1.4,0.3s0.8-0.1,1.1-0.3
			c0.3-0.2,0.4-0.5,0.4-0.9c0-0.3-0.1-0.6-0.3-0.8s-0.6-0.4-1.2-0.6l-0.4-0.1c-0.8-0.3-1.4-0.7-1.8-1.2s-0.6-1.2-0.6-1.9
			c0-0.6,0.1-1.1,0.4-1.5c0.3-0.5,0.7-0.8,1.2-1.1s1.1-0.4,1.8-0.4c0.5,0,0.9,0.1,1.4,0.2c0.5,0.1,1,0.3,1.5,0.6l-0.3,1.9
			c-0.4-0.3-0.9-0.5-1.3-0.6c-0.5-0.1-0.8-0.2-1.2-0.2c-0.4,0-0.7,0.1-1,0.3c-0.2,0.2-0.3,0.5-0.3,0.8c0,0.3,0.1,0.5,0.3,0.7
			c0.2,0.2,0.6,0.4,1.1,0.6l0.5,0.2c0.9,0.3,1.6,0.7,2,1.2c0.5,0.5,0.7,1.2,0.7,2c0,0.6-0.1,1.2-0.4,1.7c-0.3,0.5-0.7,0.9-1.3,1.1
			s-1.2,0.4-1.9,0.4C83.1,147.2,82.5,147.1,81.9,147z"/>
		<path d="M95.5,147l-0.1-0.7c-0.4,0.3-0.7,0.5-1.2,0.7c-0.4,0.2-0.9,0.2-1.4,0.2c-0.7,0-1.4-0.2-1.9-0.5c-0.6-0.3-1.1-0.8-1.4-1.3
			c-0.3-0.6-0.5-1.2-0.5-1.9s0.2-1.3,0.5-1.9c0.3-0.6,0.8-1,1.4-1.3c0.6-0.3,1.3-0.5,2-0.5c0.9,0,1.7,0.3,2.4,0.9v-0.5
			c0-0.6-0.2-1.1-0.5-1.4c-0.3-0.3-0.9-0.5-1.7-0.5c-0.8,0-1.6,0.2-2.5,0.5l0.3-1.9c0.8-0.2,1.7-0.4,2.5-0.4c1.3,0,2.4,0.3,3.1,0.9
			c0.7,0.6,1,1.5,1,2.6v5.1l0.1,1.9H95.5z M94.3,145.2c0.3-0.2,0.6-0.4,0.8-0.7c0.2-0.3,0.3-0.6,0.3-1c0-0.4-0.1-0.7-0.3-1
			c-0.2-0.3-0.4-0.5-0.8-0.7c-0.3-0.2-0.7-0.3-1.1-0.3s-0.7,0.1-1.1,0.3s-0.6,0.4-0.8,0.7c-0.2,0.3-0.3,0.6-0.3,1
			c0,0.4,0.1,0.7,0.3,1c0.2,0.3,0.4,0.5,0.8,0.7c0.3,0.2,0.7,0.3,1.1,0.3C93.7,145.5,94,145.4,94.3,145.2z"/>
		<path d="M103.2,138.7v4.9c0,0.5,0.1,0.8,0.4,1.1c0.3,0.3,0.6,0.4,1,0.4c0.2,0,0.5,0,0.7-0.1s0.5-0.1,0.7-0.2v2
			c-0.2,0.1-0.5,0.2-0.8,0.2c-0.3,0.1-0.7,0.1-1,0.1c-1,0-1.9-0.3-2.4-0.9c-0.6-0.6-0.9-1.4-0.9-2.5v-5.1h-1.6l0.3-2h1.2v-2.1
			l2.3-1.3v3.4h2.8v2H103.2z"/>
	</g>
</g>
<g>
	<rect x="148.3" y="47.4" class="st0" width="104.9" height="104.9"/>
	<rect x="148.3" y="46" class="st1" width="104.9" height="104.9"/>
	<rect x="148.3" y="44.6" class="st2" width="104.9" height="104.9"/>
	<rect x="148.3" y="33.3" class="st3" width="104.9" height="14.2"/>
	<g>
		<path d="M191.2,51v13.2h-2V54.2l-2.5,1.4l-0.3-1.9L191.2,51z"/>
		<path d="M198.2,51v13.2h-2V54.2l-2.5,1.4l-0.3-1.9L198.2,51z"/>
		<path d="M208.8,62.7h0.8c1.8,0,2,0,2-1v-1.6h-7.3c-0.3,1.8-0.8,3.7-1.6,5l-2.1-1.4c1.3-1.9,1.8-4.5,1.8-8.2v-5.2h11.5v11
			c0,3.1-0.2,3.5-4,3.5L208.8,62.7z M211.6,56.2h-7.1v0.6c0,0.4,0,0.9-0.1,1.3h7.2V56.2z M211.6,52.4h-7.1v1.8h7.1V52.4z"/>
		<path d="M209.4,95.2c2.9,1.7,5.2,4,6.9,6.8c1.7,2.9,2.5,6.1,2.5,9.6c0,3.5-0.9,6.7-2.6,9.6s-4.2,5.2-7.3,6.9
			c-3.1,1.7-6.7,2.6-10.6,2.6c-3,0-5.8-0.5-8.4-1.4c-2.7-0.9-5.1-2.1-7.2-3.7l2.2-8.1c1.8,1.5,3.9,2.7,6.2,3.7s4.6,1.5,7,1.5
			c2.3,0,4.4-0.5,6.2-1.5c1.8-1,3.2-2.4,4.2-4.1c1-1.7,1.5-3.7,1.5-5.8c0-2-0.5-3.9-1.5-5.6c-1-1.7-2.4-3.1-4.3-4.1s-4-1.5-6.4-1.5
			c-2.1,0-4.3,0.4-6.5,1.2c-2.2,0.8-4.4,1.8-6.6,3.2l1.7-32.6h30.3l-1.4,8h-20.9l-1,13.9c2-0.8,4.2-1.2,6.5-1.2
			C203.3,92.6,206.5,93.5,209.4,95.2z"/>
		<path d="M186.6,147c-0.6-0.2-1.1-0.4-1.6-0.7l0.3-1.9c0.5,0.3,1,0.6,1.5,0.8c0.5,0.2,0.9,0.3,1.4,0.3s0.8-0.1,1.1-0.3
			c0.3-0.2,0.4-0.5,0.4-0.9c0-0.3-0.1-0.6-0.3-0.8s-0.6-0.4-1.2-0.6l-0.4-0.1c-0.8-0.3-1.4-0.7-1.8-1.2s-0.6-1.2-0.6-1.9
			c0-0.6,0.1-1.1,0.4-1.5c0.3-0.5,0.7-0.8,1.2-1.1s1.1-0.4,1.8-0.4c0.5,0,0.9,0.1,1.4,0.2c0.5,0.1,1,0.3,1.5,0.6l-0.3,1.9
			c-0.4-0.3-0.9-0.5-1.3-0.6c-0.5-0.1-0.8-0.2-1.2-0.2c-0.4,0-0.7,0.1-1,0.3c-0.2,0.2-0.3,0.5-0.3,0.8c0,0.3,0.1,0.5,0.3,0.7
			c0.2,0.2,0.6,0.4,1.1,0.6l0.5,0.2c0.9,0.3,1.6,0.7,2,1.2c0.5,0.5,0.7,1.2,0.7,2c0,0.6-0.1,1.2-0.4,1.7c-0.3,0.5-0.7,0.9-1.3,1.1
			s-1.2,0.4-1.9,0.4C187.7,147.2,187.1,147.1,186.6,147z"/>
		<path d="M203.5,136.5V147h-2.2v-1.2c-0.4,0.4-0.8,0.8-1.4,1c-0.5,0.2-1.1,0.4-1.8,0.4c-0.8,0-1.5-0.2-2.1-0.5
			c-0.6-0.3-1.1-0.8-1.4-1.5c-0.3-0.6-0.5-1.4-0.5-2.3v-6.1l2.3-0.3v6.2c0,0.8,0.2,1.4,0.6,1.8c0.4,0.4,0.9,0.7,1.6,0.7
			c0.5,0,0.9-0.1,1.3-0.3c0.4-0.2,0.7-0.5,0.9-0.9c0.2-0.4,0.3-0.9,0.3-1.4v-5.7L203.5,136.5z"/>
		<path d="M214.2,136.9c0.6,0.3,1.1,0.8,1.4,1.5s0.5,1.4,0.5,2.3v6.3h-2.3v-6c0-0.8-0.2-1.4-0.6-1.9s-1-0.7-1.6-0.7
			c-0.5,0-0.9,0.1-1.3,0.3c-0.4,0.2-0.7,0.5-0.9,0.9c-0.2,0.4-0.3,0.9-0.3,1.4v5.8h-2.3v-10.1l2.2-0.3v1.3c0.4-0.4,0.8-0.8,1.4-1
			c0.5-0.2,1.1-0.4,1.8-0.4C212.9,136.4,213.6,136.6,214.2,136.9z"/>
	</g>
</g>
<g>
	<rect x="275.8" y="47.4" class="st0" width="104.9" height="104.9"/>
	<rect x="275.8" y="46" class="st1" width="104.9" height="104.9"/>
	<rect x="275.8" y="44.6" class="st2" width="104.9" height="104.9"/>
	<rect x="275.8" y="33.3" class="st3" width="104.9" height="14.2"/>
	<g>
		<path d="M317,51v13.2h-2V54.2l-2.5,1.4l-0.3-1.9L317,51z"/>
		<path d="M323.1,62.5h4.5l-0.3,1.8h-8l4.4-5.3c0.7-0.9,1.2-1.6,1.5-2.2c0.3-0.6,0.5-1.1,0.5-1.6c0-0.4-0.1-0.8-0.3-1.1
			c-0.2-0.3-0.5-0.6-0.8-0.8c-0.3-0.2-0.7-0.3-1.1-0.3c-0.4,0-0.8,0.1-1.1,0.3c-0.3,0.2-0.6,0.5-0.8,0.8c-0.2,0.3-0.3,0.7-0.3,1.1
			c0,0.3,0,0.5,0.1,0.7s0.2,0.5,0.3,0.7l-1.9,0.3c-0.3-0.6-0.4-1.2-0.4-1.8c0-0.7,0.2-1.4,0.5-2c0.4-0.6,0.9-1.1,1.5-1.4
			s1.3-0.5,2.1-0.5s1.5,0.2,2.1,0.5c0.6,0.3,1.1,0.8,1.5,1.4c0.4,0.6,0.6,1.3,0.6,2.1c0,0.5-0.1,0.9-0.2,1.4c-0.2,0.5-0.4,1-0.8,1.5
			c-0.4,0.6-0.9,1.2-1.5,1.9L323.1,62.5z"/>
		<path d="M338,62.7h0.8c1.8,0,2,0,2-1v-1.6h-7.3c-0.3,1.8-0.8,3.7-1.6,5l-2.1-1.4c1.3-1.9,1.8-4.5,1.8-8.2v-5.2h11.5v11
			c0,3.1-0.2,3.5-4,3.5L338,62.7z M340.7,56.2h-7.1v0.6c0,0.4,0,0.9-0.1,1.3h7.2V56.2z M340.7,52.4h-7.1v1.8h7.1V52.4z"/>
		<path d="M314.4,70.2v59.6h-8.9V84.5L294.4,91l-1.5-8.5L314.4,70.2z"/>
		<path d="M362.6,117h-6.9v12.8h-8.4V117h-28.8l37.2-48.6v41h6.9V117z M347.4,109.5V91.9l-13.3,17.6H347.4z"/>
		<path d="M317.1,147c-0.6-0.2-1.1-0.4-1.6-0.7l0.3-1.9c0.5,0.3,1,0.6,1.5,0.8s0.9,0.3,1.4,0.3s0.8-0.1,1.1-0.3
			c0.3-0.2,0.4-0.5,0.4-0.9c0-0.3-0.1-0.6-0.3-0.8c-0.2-0.2-0.6-0.4-1.2-0.6l-0.4-0.1c-0.8-0.3-1.4-0.7-1.8-1.2
			c-0.4-0.5-0.6-1.2-0.6-1.9c0-0.6,0.1-1.1,0.4-1.5c0.3-0.5,0.7-0.8,1.2-1.1s1.1-0.4,1.8-0.4c0.5,0,0.9,0.1,1.4,0.2
			c0.5,0.1,1,0.3,1.5,0.6l-0.3,1.9c-0.4-0.3-0.9-0.5-1.3-0.6c-0.5-0.1-0.8-0.2-1.2-0.2c-0.4,0-0.7,0.1-1,0.3
			c-0.2,0.2-0.3,0.5-0.3,0.8c0,0.3,0.1,0.5,0.3,0.7c0.2,0.2,0.6,0.4,1.1,0.6l0.5,0.2c0.9,0.3,1.6,0.7,2,1.2c0.5,0.5,0.7,1.2,0.7,2
			c0,0.6-0.1,1.2-0.4,1.7s-0.7,0.9-1.3,1.1c-0.5,0.3-1.2,0.4-1.9,0.4C318.2,147.2,317.7,147.1,317.1,147z"/>
		<path d="M330.6,147l-0.1-0.7c-0.4,0.3-0.7,0.5-1.2,0.7c-0.4,0.2-0.9,0.2-1.4,0.2c-0.7,0-1.4-0.2-1.9-0.5c-0.6-0.3-1.1-0.8-1.4-1.3
			c-0.3-0.6-0.5-1.2-0.5-1.9s0.2-1.3,0.5-1.9c0.3-0.6,0.8-1,1.4-1.3c0.6-0.3,1.3-0.5,2-0.5c0.9,0,1.7,0.3,2.4,0.9v-0.5
			c0-0.6-0.2-1.1-0.5-1.4c-0.3-0.3-0.9-0.5-1.7-0.5c-0.8,0-1.6,0.2-2.5,0.5l0.3-1.9c0.8-0.2,1.7-0.4,2.5-0.4c1.3,0,2.4,0.3,3.1,0.9
			c0.7,0.6,1,1.5,1,2.6v5.1l0.1,1.9H330.6z M329.5,145.2c0.3-0.2,0.6-0.4,0.8-0.7c0.2-0.3,0.3-0.6,0.3-1c0-0.4-0.1-0.7-0.3-1
			c-0.2-0.3-0.4-0.5-0.8-0.7c-0.3-0.2-0.7-0.3-1.1-0.3c-0.4,0-0.7,0.1-1.1,0.3c-0.3,0.2-0.6,0.4-0.8,0.7c-0.2,0.3-0.3,0.6-0.3,1
			c0,0.4,0.1,0.7,0.3,1c0.2,0.3,0.4,0.5,0.8,0.7c0.3,0.2,0.7,0.3,1.1,0.3C328.8,145.5,329.2,145.4,329.5,145.2z"/>
		<path d="M338.3,138.7v4.9c0,0.5,0.1,0.8,0.4,1.1c0.3,0.3,0.6,0.4,1,0.4c0.2,0,0.5,0,0.7-0.1s0.5-0.1,0.7-0.2v2
			c-0.2,0.1-0.5,0.2-0.8,0.2c-0.3,0.1-0.7,0.1-1,0.1c-1,0-1.9-0.3-2.4-0.9c-0.6-0.6-0.9-1.4-0.9-2.5v-5.1h-1.6l0.3-2h1.2v-2.1
			l2.3-1.3v3.4h2.8v2H338.3z"/>
	</g>
</g>
<g>
	<rect x="403.5" y="47.4" class="st0" width="104.9" height="104.9"/>
	<rect x="403.5" y="46" class="st1" width="104.9" height="104.9"/>
	<rect x="403.5" y="44.6" class="st2" width="104.9" height="104.9"/>
	<rect x="403.5" y="33.3" class="st3" width="104.9" height="14.2"/>
	<g>
		<path d="M450.1,56.9c0.5,0.4,0.9,0.8,1.2,1.4c0.3,0.6,0.5,1.2,0.5,1.9c0,0.8-0.2,1.5-0.6,2.2c-0.4,0.7-0.9,1.2-1.6,1.5
			c-0.7,0.4-1.5,0.6-2.3,0.6c-0.7,0-1.4-0.1-2-0.4c-0.6-0.3-1.2-0.7-1.7-1.3l0.9-1.6c0.4,0.5,0.8,0.8,1.3,1.1c0.5,0.3,1,0.4,1.6,0.4
			c0.5,0,0.9-0.1,1.3-0.3c0.4-0.2,0.7-0.5,0.9-0.9c0.2-0.4,0.3-0.8,0.3-1.3c0-0.5-0.1-0.9-0.3-1.3c-0.2-0.4-0.6-0.7-1-0.9
			c-0.4-0.2-0.9-0.3-1.5-0.3c-0.5,0-1,0.1-1.6,0.2l2.9-4.7h-4.5l0.3-1.8h7.5l-3.3,4.9C449,56.3,449.6,56.5,450.1,56.9z"/>
		<path d="M462,62.7h0.8c1.8,0,2,0,2-1v-1.6h-7.3c-0.3,1.8-0.8,3.7-1.6,5l-2.1-1.4c1.3-1.9,1.8-4.5,1.8-8.2v-5.2h11.5v11
			c0,3.1-0.2,3.5-4,3.5L462,62.7z M464.7,56.2h-7.1v0.6c0,0.4,0,0.9-0.1,1.3h7.2V56.2z M464.7,52.4h-7.1v1.8h7.1V52.4z"/>
		<path d="M476.1,117h-6.9v12.8h-8.4V117h-28.8l37.2-48.6v41h6.9V117z M460.9,109.5V91.9l-13.3,17.6H460.9z"/>
		<path d="M444.8,147c-0.6-0.2-1.1-0.4-1.6-0.7l0.3-1.9c0.5,0.3,1,0.6,1.5,0.8c0.5,0.2,0.9,0.3,1.4,0.3s0.8-0.1,1.1-0.3
			c0.3-0.2,0.4-0.5,0.4-0.9c0-0.3-0.1-0.6-0.3-0.8c-0.2-0.2-0.6-0.4-1.2-0.6l-0.4-0.1c-0.8-0.3-1.4-0.7-1.8-1.2
			c-0.4-0.5-0.6-1.2-0.6-1.9c0-0.6,0.1-1.1,0.4-1.5c0.3-0.5,0.7-0.8,1.2-1.1s1.1-0.4,1.8-0.4c0.5,0,0.9,0.1,1.4,0.2
			c0.5,0.1,1,0.3,1.5,0.6l-0.3,1.9c-0.4-0.3-0.9-0.5-1.3-0.6c-0.5-0.1-0.8-0.2-1.2-0.2c-0.4,0-0.7,0.1-1,0.3
			c-0.2,0.2-0.3,0.5-0.3,0.8c0,0.3,0.1,0.5,0.3,0.7c0.2,0.2,0.6,0.4,1.1,0.6l0.5,0.2c0.9,0.3,1.6,0.7,2,1.2c0.5,0.5,0.7,1.2,0.7,2
			c0,0.6-0.1,1.2-0.4,1.7c-0.3,0.5-0.7,0.9-1.3,1.1c-0.5,0.3-1.2,0.4-1.9,0.4C445.9,147.2,445.3,147.1,444.8,147z"/>
		<path d="M458.3,147l-0.1-0.7c-0.4,0.3-0.7,0.5-1.2,0.7c-0.4,0.2-0.9,0.2-1.4,0.2c-0.7,0-1.4-0.2-1.9-0.5c-0.6-0.3-1.1-0.8-1.4-1.3
			c-0.3-0.6-0.5-1.2-0.5-1.9s0.2-1.3,0.5-1.9c0.3-0.6,0.8-1,1.4-1.3c0.6-0.3,1.3-0.5,2-0.5c0.9,0,1.7,0.3,2.4,0.9v-0.5
			c0-0.6-0.2-1.1-0.5-1.4c-0.3-0.3-0.9-0.5-1.7-0.5c-0.8,0-1.6,0.2-2.5,0.5l0.3-1.9c0.8-0.2,1.7-0.4,2.5-0.4c1.3,0,2.4,0.3,3.1,0.9
			s1,1.5,1,2.6v5.1l0.1,1.9H458.3z M457.2,145.2c0.3-0.2,0.6-0.4,0.8-0.7c0.2-0.3,0.3-0.6,0.3-1c0-0.4-0.1-0.7-0.3-1
			c-0.2-0.3-0.4-0.5-0.8-0.7s-0.7-0.3-1.1-0.3c-0.4,0-0.7,0.1-1.1,0.3c-0.3,0.2-0.6,0.4-0.8,0.7c-0.2,0.3-0.3,0.6-0.3,1
			c0,0.4,0.1,0.7,0.3,1c0.2,0.3,0.4,0.5,0.8,0.7c0.3,0.2,0.7,0.3,1.1,0.3C456.5,145.5,456.9,145.4,457.2,145.2z"/>
		<path d="M466,138.7v4.9c0,0.5,0.1,0.8,0.4,1.1c0.3,0.3,0.6,0.4,1,0.4c0.2,0,0.5,0,0.7-0.1s0.5-0.1,0.7-0.2v2
			c-0.2,0.1-0.5,0.2-0.8,0.2c-0.3,0.1-0.7,0.1-1,0.1c-1,0-1.9-0.3-2.4-0.9s-0.9-1.4-0.9-2.5v-5.1h-1.6l0.3-2h1.2v-2.1l2.3-1.3v3.4
			h2.8v2H466z"/>
	</g>
</g>
<g>
	<rect x="511.2" y="47.4" class="st0" width="104.9" height="104.9"/>
	<rect x="511.2" y="46" class="st1" width="104.9" height="104.9"/>
	<rect x="511.2" y="44.6" class="st2" width="104.9" height="104.9"/>
	<rect x="511.2" y="33.3" class="st3" width="104.9" height="14.2"/>
	<g>
		<path d="M557.9,56.9c0.5,0.4,0.9,0.8,1.2,1.4c0.3,0.6,0.5,1.2,0.5,1.9c0,0.8-0.2,1.5-0.6,2.2c-0.4,0.7-0.9,1.2-1.6,1.5
			c-0.7,0.4-1.5,0.6-2.3,0.6c-0.7,0-1.4-0.1-2-0.4c-0.6-0.3-1.2-0.7-1.7-1.3l0.9-1.6c0.4,0.5,0.8,0.8,1.3,1.1c0.5,0.3,1,0.4,1.6,0.4
			c0.5,0,0.9-0.1,1.3-0.3c0.4-0.2,0.7-0.5,0.9-0.9c0.2-0.4,0.3-0.8,0.3-1.3c0-0.5-0.1-0.9-0.3-1.3c-0.2-0.4-0.6-0.7-1-0.9
			c-0.4-0.2-0.9-0.3-1.5-0.3c-0.5,0-1,0.1-1.6,0.2l2.9-4.7h-4.5l0.3-1.8h7.5l-3.3,4.9C556.7,56.3,557.3,56.5,557.9,56.9z"/>
		<path d="M569.7,62.7h0.8c1.8,0,2,0,2-1v-1.6h-7.3c-0.3,1.8-0.8,3.7-1.6,5l-2.1-1.4c1.3-1.9,1.8-4.5,1.8-8.2v-5.2h11.5v11
			c0,3.1-0.2,3.5-4,3.5L569.7,62.7z M572.4,56.2h-7.1v0.6c0,0.4,0,0.9-0.1,1.3h7.2V56.2z M572.4,52.4h-7.1v1.8h7.1V52.4z"/>
		<path d="M572.2,95.2c2.9,1.7,5.2,4,6.9,6.8c1.7,2.9,2.5,6.1,2.5,9.6c0,3.5-0.9,6.7-2.6,9.6s-4.2,5.2-7.3,6.9
			c-3.1,1.7-6.7,2.6-10.6,2.6c-3,0-5.8-0.5-8.4-1.4c-2.7-0.9-5.1-2.1-7.2-3.7l2.2-8.1c1.8,1.5,3.9,2.7,6.2,3.7c2.3,1,4.6,1.5,7,1.5
			c2.3,0,4.4-0.5,6.2-1.5c1.8-1,3.2-2.4,4.2-4.1s1.5-3.7,1.5-5.8c0-2-0.5-3.9-1.5-5.6c-1-1.7-2.4-3.1-4.3-4.1s-4-1.5-6.4-1.5
			c-2.1,0-4.3,0.4-6.5,1.2c-2.2,0.8-4.4,1.8-6.6,3.2l1.7-32.6h30.3l-1.4,8H557l-1,13.9c2-0.8,4.2-1.2,6.5-1.2
			C566.1,92.6,569.3,93.5,572.2,95.2z"/>
		<path d="M549.4,147c-0.6-0.2-1.1-0.4-1.6-0.7l0.3-1.9c0.5,0.3,1,0.6,1.5,0.8c0.5,0.2,0.9,0.3,1.4,0.3s0.8-0.1,1.1-0.3
			c0.3-0.2,0.4-0.5,0.4-0.9c0-0.3-0.1-0.6-0.3-0.8c-0.2-0.2-0.6-0.4-1.2-0.6l-0.4-0.1c-0.8-0.3-1.4-0.7-1.8-1.2
			c-0.4-0.5-0.6-1.2-0.6-1.9c0-0.6,0.1-1.1,0.4-1.5c0.3-0.5,0.7-0.8,1.2-1.1s1.1-0.4,1.8-0.4c0.5,0,0.9,0.1,1.4,0.2
			c0.5,0.1,1,0.3,1.5,0.6L554,139c-0.4-0.3-0.9-0.5-1.3-0.6c-0.5-0.1-0.8-0.2-1.2-0.2c-0.4,0-0.7,0.1-1,0.3
			c-0.2,0.2-0.3,0.5-0.3,0.8c0,0.3,0.1,0.5,0.3,0.7c0.2,0.2,0.6,0.4,1.1,0.6l0.5,0.2c0.9,0.3,1.6,0.7,2,1.2c0.5,0.5,0.7,1.2,0.7,2
			c0,0.6-0.1,1.2-0.4,1.7c-0.3,0.5-0.7,0.9-1.3,1.1c-0.5,0.3-1.2,0.4-1.9,0.4C550.6,147.2,550,147.1,549.4,147z"/>
		<path d="M566.4,136.5V147h-2.2v-1.2c-0.4,0.4-0.8,0.8-1.4,1c-0.5,0.2-1.1,0.4-1.8,0.4c-0.8,0-1.5-0.2-2.1-0.5
			c-0.6-0.3-1.1-0.8-1.4-1.5c-0.3-0.6-0.5-1.4-0.5-2.3v-6.1l2.3-0.3v6.2c0,0.8,0.2,1.4,0.6,1.8c0.4,0.4,0.9,0.7,1.6,0.7
			c0.5,0,0.9-0.1,1.3-0.3c0.4-0.2,0.7-0.5,0.9-0.9c0.2-0.4,0.3-0.9,0.3-1.4v-5.7L566.4,136.5z"/>
		<path d="M577.1,136.9c0.6,0.3,1.1,0.8,1.4,1.5c0.3,0.6,0.5,1.4,0.5,2.3v6.3h-2.3v-6c0-0.8-0.2-1.4-0.6-1.9s-1-0.7-1.6-0.7
			c-0.5,0-0.9,0.1-1.3,0.3s-0.7,0.5-0.9,0.9c-0.2,0.4-0.3,0.9-0.3,1.4v5.8h-2.3v-10.1l2.2-0.3v1.3c0.4-0.4,0.8-0.8,1.4-1
			c0.5-0.2,1.1-0.4,1.8-0.4C575.8,136.4,576.5,136.6,577.1,136.9z"/>
	</g>
</g>
<g>
	<rect x="78.4" y="167.5" class="st4" width="137.3" height="11.5"/>
	<g>
		<path d="M91.6,173.8H92c1.8,0,2.1,0,2.1-0.3v-0.4H88v2.4H86v-7.7H96c-0.3-0.3-0.6-0.7-0.8-0.8c-2.8,0.2-6.3,0.3-10.2,0.4l-0.3-1.6
			c0.3,0,0.7,0,1,0c0.2,0,0.8,0,1.1,0c0.3-0.3,0.5-0.6,0.6-0.9h-2.7v-1.6H90v-0.9h2.1v0.9h5.2v1.6h-2.1c0.7,0.5,1.6,1.3,2.4,2
			l-1.5,1.2c0,0-0.1-0.1-0.1-0.1v5.7c0,1.9-1.3,1.9-3.7,1.9L91.6,173.8z M94.1,169.2H88v0.6h6.2V169.2z M94.1,171.1H88v0.7h6.2
			V171.1z M89.7,164.7c-0.2,0.3-0.4,0.7-0.7,1c1.4,0,3.3-0.1,4.7-0.1c-0.2-0.2-0.6-0.4-0.6-0.4l1-0.4H89.7z"/>
		<path d="M110.8,175.4c-2.4-0.4-4.2-1.7-5.4-3.7c-1,2-3,3.3-5.9,3.8l-0.9-1.9c2.3-0.1,4-0.8,4.9-1.9h-4.8v-1.6h1.7v-3.6h4v-1.1h1.8
			v1.1h4v3.6h1.6v1.6h-4.3c1.2,1.3,2.7,1.8,4.4,1.9L110.8,175.4z M108.1,164.7v1h-1.9v-1h-2.5v1h-1.9v-1h-3.1V163h3.1v-0.8h1.9v0.8
			h2.5v-0.8h1.9v0.8h3.2v1.7H108.1z M104.1,168.1H102v1.9h2c0.1-0.4,0.1-1.2,0.1-1.5V168.1z M108.1,168.1h-2.2v0.5
			c0,0.3,0,1-0.1,1.5h2.4V168.1z"/>
		<path d="M124.8,169.4c-0.8-0.3-1.6-0.7-2.2-1.1v0.8h-6.4v-0.8c-0.9,0.7-1.8,1.1-2.8,1.4l-0.8-1.7c0.6-0.1,1.3-0.3,1.8-0.6
			c-0.4-0.3-1-0.5-1-0.5l1.1-1.1c0,0,0.6,0.3,1.2,0.8l0.4-0.3c-0.5-0.4-1.1-0.7-1.1-0.7l1.1-1c0,0,0.6,0.3,1.1,0.7
			c0.3-0.3,0.5-0.6,0.7-0.9h-2.1c-0.6,0.6-1.3,1.2-2.2,1.7l-1-1.5c2-0.9,2.9-2.4,2.9-2.4l1.8,0.2c0,0-0.2,0.3-0.4,0.5h2.8
			c0,0,1,1.8,2.5,2.9c0.5-0.5,0.8-0.9,0.9-1.2H121V163h4.1v1.4c0,0-0.5,1.3-1.4,2.4c0.6,0.3,1.2,0.6,1.9,0.9L124.8,169.4z
			 M112.6,173.6c0,0,1.7-0.5,3.4-1.9l1.5,1c-1.7,1.7-3.6,2.5-3.6,2.5L112.6,173.6z M120.2,171.6v1.2c0,2.1-0.2,2.6-3,2.6l-0.7-1.8
			c0.3,0,0.5,0,0.8,0c0.9,0,1.1-0.1,1.1-0.6v-1.4h-5.4V170h12.2v1.7H120.2z M121.6,167.6c-0.9-0.8-1.7-1.6-2.3-2.4
			c-0.5,0.8-1.2,1.6-2.2,2.4H121.6z M124.2,175.2c0,0-1.6-0.7-3.4-2.4l1.4-1.1c1.7,1.3,3.4,1.9,3.4,1.9L124.2,175.2z"/>
		<path d="M137.3,172.2V171H134v4.5H132V171h-3.2v1.2h-1.8v-7.9h5v-2h1.9v2h5.1v7.9H137.3z M132,166h-3.2v3.2h3.2V166z M137.3,166
			H134v3.2h3.3V166z"/>
		<path d="M141,175.5v-12.8h5.7v5.3h-3.9v7.5H141z M144.9,164h-2.1v0.7h2.1V164z M144.9,165.9h-2.1v0.7h2.1V165.9z M149.9,174.4h-6
			v-5.8h6.3v5c1.2,0,1.2-0.1,1.2-0.7v-4.9h-4v-5.3h5.8v10.3c0,2-0.1,2.5-2.9,2.5L149.9,174.4z M148.5,170h-2.9v0.9h2.9V170z
			 M148.5,172.1h-2.9v0.9h2.9V172.1z M151.4,164h-2.3v0.7h2.3V164z M151.4,165.9h-2.3v0.7h2.3V165.9z"/>
		<path d="M166.6,164.7L166.6,164.7c-0.5,6.4-4.6,9.6-9.7,10.2v-1.8c4.5-0.9,7.1-3.8,7.5-8.1h-9.1v-1.8h9.9c0-0.8,0.7-1.4,1.4-1.4
			c0.8,0,1.4,0.6,1.4,1.4C168,164.1,167.4,164.7,166.6,164.7z M166.6,162.6c-0.4,0-0.7,0.3-0.7,0.7c0,0.4,0.3,0.7,0.7,0.7
			c0.4,0,0.7-0.3,0.7-0.7C167.3,163,167,162.6,166.6,162.6z"/>
		<path d="M170.7,174.9H170v-12h2v10c3.9-0.5,6.3-2.5,7.2-6.2h2C180.4,171.1,177.3,174.7,170.7,174.9z"/>
		<path d="M189.6,171.1v-1.8c1.1-0.4,2.4-1.4,3-2.7h-6v4.9c0,1,0.4,1.6,1.8,1.6h6.5v1.8h-6.7c-2.7,0-3.5-1-3.5-3.1v-5.2h-2.1v-1.8
			h2.1v-2.2h1.9v2.2h8.5C194.7,168.3,192.4,170.5,189.6,171.1z M192.1,164.2v-2.1h1.2v2.1H192.1z M193.9,164.2v-2.1h1.2v2.1H193.9z"
			/>
		<path d="M197.6,165.2v-1.9c1.9,0.1,4.1,0.4,6,0.8v2C201.6,165.7,199.5,165.3,197.6,165.2z M197.8,174.8v-1.9
			c5.1-0.4,8.5-1.9,9.1-7.7h2.1C208.3,172,204.3,174.6,197.8,174.8z"/>
	</g>
</g>
<g>
	<rect x="252.6" y="167.5" class="st4" width="151.3" height="11.5"/>
	<g>
		<path d="M258.4,173.9c1.9-2.5,2.9-5.9,3-10.3l1.9,0.2c-0.2,4.4-1,8.4-3.4,11.6L258.4,173.9z M270.6,175.4c-2-3.2-3-6.9-3.5-10.9
			H264v-1.8h4.8c0.2,4.3,1.3,8.3,3.2,11.2L270.6,175.4z"/>
		<path d="M272.6,174.9v-1.8h5.6v-3.6H274v-1.8h4.2v-3.1h-4.8v-1.8H285v1.8h-4.9v3.1h4.4v1.8h-4.4v3.6h5.8v1.8L272.6,174.9z"/>
		<path d="M294.5,169.5v2.7c0,2.9,0,3.2-4,3.2l-0.8-2h1.8c1,0,1.1-0.1,1.1-1v-3h-6v-1.9h6v-1.8h0.9c1.2-0.6,2.3-1.4,2.3-1.4H288
			v-1.8h10.5v1.6c0,0-1.8,1.8-4,3.1v0.4h5.3v1.9H294.5z"/>
		<path d="M301.8,174.5v-1.8h8.8v-7.3h-8.8v-1.8h10.9v10.9H301.8z"/>
		<path d="M315.7,165.2v-1.9c1.9,0.1,4.1,0.4,6,0.8v2C319.8,165.7,317.6,165.3,315.7,165.2z M315.9,174.8v-1.9
			c5.1-0.4,8.5-1.9,9.1-7.7h2.1C326.5,172,322.4,174.6,315.9,174.8z"/>
		<path d="M331.2,169c-0.5-1.8-1.3-3.9-2.1-5.7h2.1c0.8,1.8,1.5,3.6,2.1,5.7H331.2z M331.7,175v-1.9c4.5-1,7.2-3.7,7.5-10h2
			C340.9,170.6,337.3,174,331.7,175z"/>
		<path d="M343.2,169.2v-1.8h12.1v1.8H343.2z"/>
		<path d="M357.5,168.9v-1.8c1.9,0.1,4.3,0.3,6.2,0.5v1.8C361.8,169.2,359.3,169,357.5,168.9z M357.7,164.8v-1.8
			c1.9,0.1,4.3,0.3,6.2,0.5v1.8C362,165.2,359.5,164.9,357.7,164.8z M357.9,174.9V173c6-0.2,8.9-2.3,9.5-7.9h2
			C368.8,172.2,364.6,174.8,357.9,174.9z"/>
		<path d="M377,170.8c-0.9,2.3-2.8,3.6-5.1,4.2v-1.8c2.5-1,3.8-2.7,3.8-6.1v-0.8h1.9v0.9c0,0.6,0,1.2-0.1,1.7
			c2.1-0.5,3.2-1.9,3.6-3.9h-9.6v-1.8h11.8v0.4C383.2,168.3,380.2,170.3,377,170.8z"/>
		<path d="M385.1,174.8v-1.7c1.2-2.4,2.9-7,3.7-10.1h2.1c-1.1,3.9-2.4,7-3.7,10h7.8c-0.6-1.9-1.8-4.2-2.8-6h2.1
			c1.2,2.2,2.5,4.9,3.4,7.8H385.1z"/>
	</g>
</g>
<g>
	<rect x="454.8" y="167.5" class="st4" width="109.3" height="11.5"/>
	<g>
		<path d="M466,169.6c-0.9-0.4-1.5-1.1-1.9-1.7c-0.5,0.8-1.2,1.5-2.2,2.1l-1.1-1.6c2.4-1.2,2.7-3.3,2.7-3.3l1.7,0.5
			c0,0-0.1,0.3-0.3,0.9c0.3,0.5,0.9,1.2,2,1.6L466,169.6z M468.3,172v3.4h-1.8V172h-5.6v-1.8h5.6v-0.9h1.8v0.9h5.7v1.8H468.3z
			 M461.2,165v-1.8h5.2v-1h2v1h5.2v1.8H461.2z M473,169.7c-1-0.3-1.7-1.1-2.4-1.9c-0.4,0.6-1.1,1.3-1.9,1.8l-1.1-1.6
			c2.3-1.1,2.4-3,2.4-3l1.7,0.5c0,0-0.1,0.4-0.2,0.9c0.3,0.4,1.1,1.3,2.5,1.8L473,169.7z"/>
		<path d="M487,175.2c-2-0.6-3.4-1.4-4.7-2.5v2.8h-1.8v-2.8c-1.2,1-2.7,2-4.7,2.5l-1-1.7c1.7-0.2,3-0.6,4.1-1.2h-3.6v-1.5h5.2v-0.6
			h-4.3v-1.4h4.3v-0.6h-4.8v-1.5h2.8c-0.1-0.3-0.3-0.7-0.4-1h-2.9v-1.6h1.4c-0.2-0.4-0.4-0.7-0.7-1.1l1.6-0.7c0.4,0.5,0.7,1.2,1,1.8
			h0.7v-1.9h1.8v1.9h1.3v-1.9h1.8v1.9h0.8c0.3-0.5,0.6-1.1,0.8-1.8l1.6,0.6c-0.2,0.4-0.4,0.8-0.6,1.2h1.2v1.6h-2.9
			c-0.1,0.3-0.2,0.6-0.4,1h2.6v1.5h-4.8v0.6h4.3v1.4h-4.3v0.6h5.2v1.5h-3.6c1,0.6,2.4,1,4.1,1.2L487,175.2z M480,165.7
			c0.1,0.3,0.3,0.6,0.4,1h2.3c0.2-0.3,0.3-0.7,0.3-1H480z"/>
		<path d="M498.9,175.5v-6h-1.4c-0.1,2.4-0.5,4.6-2,6l-1.3-1.4v0.3h-2.5v0.8h-1.8v-4.9c-0.3,0.5-0.6,0.9-0.6,0.9l-0.5-2.4
			c0,0,1.5-1.6,1.8-4.5h-1.4v-1.7h5.2v1.7h-2c-0.1,0.9-0.4,1.8-0.6,2.6h2.4v7c1.1-1.1,1.5-2.4,1.6-4.4h-1.2v-1.8h1.2v-3.1h-1v-1.8
			h6.9v1.8h-1.1v3.1h1.4v1.8h-1.4v6H498.9z M492.5,168.5h-0.9v4.2h0.9V168.5z M498.9,164.5h-1.4v3.1h1.4V164.5z"/>
		<path d="M512.1,175.2c-0.9,0-1.4-0.2-1.4-1.1c0-0.1,0-0.2,0-0.3l0.3-3h-1.9c-0.4,2.2-1.8,3.8-5,4.6l-1.3-1.6
			c2.6-0.5,3.9-1.4,4.4-3h-3.5v-1.7h3.7l0-1.5h1.8l0,1.5h3.7l-0.4,4.1c0,0.2,0.1,0.2,0.3,0.2h1c0.3,0,0.4,0,0.7-2.4l1.6,0.9
			c-0.3,2.6-0.7,3.2-2.1,3.2H512.1z M514.1,165.9l1,0.3c-0.4,1.8-0.6,2.1-2,2.1H511c-0.9,0-1.3-0.4-1.3-1.1v-1.9h1.8v1.3
			c0,0.2,0.1,0.2,0.3,0.2h0.7c0.6,0,0.7-0.2,0.8-1.1l0.5,0.2V165h-6.5l1.5,0.5c-0.6,1.8-2.4,2.8-4.5,3.2l-1.1-1.7c2.6-0.2,3.5-1,4-2
			h-2.3v1.3h-1.8v-3h5.2v-1.1h2v1.1h5.3v2.6H514.1z"/>
		<path d="M518.4,175.5v-7.4c-0.3,0.5-0.7,1-1.1,1.4l-0.5-2.4c1.1-1.1,2.2-2.7,2.8-4.8l1.9,0.5c-0.3,1.3-0.8,2.4-1.3,3.3v9.5H518.4z
			 M525.2,172.3v3.2h-1.8V166c-0.5,1.3-1.1,2.5-1.7,3.3l-1.2-1.8c1.2-1.7,2-3.4,2.4-5.3l1.8,0.4c-0.1,0.5-0.3,1-0.5,1.6h5.9v1.8
			h-4.8v1.4h4.4v1.7h-4.4v1.5h4.4v1.7H525.2z"/>
		<path d="M533,174.7v0.7h-1.8v-6.6h5.7v5.9L533,174.7z M532.5,167.9v-5.3h9.7v5.3H532.5z M535,170.6H533v2.5h2.1V170.6z
			 M540.4,164.3h-6v1.8h6V164.3z M541.9,175.5v-0.8h-2.4v0.8h-1.8v-6.6h6v6.6L541.9,175.5z M541.9,170.6h-2.4v2.4h2.4V170.6z"/>
		<path d="M557.1,175.4c-2.3-0.8-3.6-1.8-4.5-2.8v1.6c-2.2,0.7-5.1,1-5.1,1l-0.4-1.7c0,0,1.1-0.1,1.8-0.2v-2.1h-1.6
			c-0.2,1.4-0.5,2.7-1,3.7l-1.6-1.1c0.8-1.9,1-3.6,1-6.8v-4.4h11.5v3.8h-2.3v0.9h2.2v1.5h-2.2v0.9h2.8v1.5h-4.3
			c0.3,0.4,0.8,0.8,1.4,1.2c0.4-0.3,0.9-0.7,1.2-1.1l1.5,0.8c-0.4,0.5-0.8,0.8-1.3,1.1c0.5,0.2,1.2,0.4,1.9,0.6L557.1,175.4z
			 M549.6,168.9H548v-1.5h1.7v-0.9h-2.1v0.6c0,0.9,0,1.9,0,2.6h2.1V168.9z M555.5,164.2h-7.9v0.8h7.9V164.2z M550.7,171.3v1.8
			c0.6-0.1,1.2-0.3,1.9-0.5c-0.4-0.5-0.8-0.9-1.1-1.3H550.7z M553.2,166.5h-1.9v0.9h1.9V166.5z M553.2,168.9h-1.9v0.9h1.9V168.9z"/>
	</g>
</g>
<g>
</g>
<g>
</g>
<g>
</g>
<g>
</g>
<g>
</g>
<g>
</g>
</svg>
