<?xml version="1.0" encoding="utf-8"?>
<!-- Generator: Adobe Illustrator 21.1.0, SVG Export Plug-In . SVG Version: 6.00 Build 0)  -->
<svg version="1.1" id="レイヤー_1" xmlns="http://www.w3.org/2000/svg" xmlns:xlink="http://www.w3.org/1999/xlink" x="0px"
	 y="0px" viewBox="0 0 200 100" style="enable-background:new 0 0 200 100;" xml:space="preserve">
<style type="text/css">
	.st0{fill:#D24D8A;}
	.st1{fill:#FFFFFF;}
</style>
<rect y="0" class="st0" width="200" height="100"/>
<g>
	<g>
		<path class="st1" d="M24,70.9c2.1,0.8,4.4,1.1,6.9,0.9c2.8-0.2,4.9-1.1,6.4-2.6s2.1-3.4,1.9-5.7c-0.1-1.6-0.9-3.1-2.2-4.5
			c-1.3-1.4-3.5-2.9-6.7-4.7c-1.7-0.9-3.1-1.8-4.2-2.7s-2.1-1.9-2.9-3c-0.8-1-1.4-2.1-1.8-3.3s-0.7-2.5-0.8-3.9
			c-0.2-2.3,0.1-4.5,0.8-6.5c0.8-2,1.9-3.8,3.4-5.4c1.5-1.5,3.3-2.8,5.4-3.8c2.1-1,4.4-1.6,6.8-1.8c4.9-0.4,9.4,0.2,13.6,1.8
			l-1.3,10.7c-2.3-1.4-4.3-2.4-6.1-3c-1.8-0.6-3.6-0.8-5.3-0.6c-2.4,0.2-4.2,1-5.4,2.4c-1.2,1.4-1.8,3-1.6,4.8
			c0.1,0.7,0.2,1.3,0.5,1.9c0.3,0.6,0.8,1.2,1.4,1.8c0.6,0.6,1.5,1.3,2.6,2c1.1,0.7,2.5,1.5,4.2,2.5c3.4,1.8,5.9,3.8,7.4,6
			c1.5,2.2,2.5,4.8,2.7,7.8c0.2,2.6-0.1,5-1,7.2s-2.2,4.1-4,5.8s-3.8,3-6.3,4c-2.4,1-5.1,1.7-8,1.9c-2.7,0.2-5.2,0.2-7.5-0.1
			c-2.3-0.3-4.3-1-6.1-2.1L17.5,67l0.2,0C19.9,68.8,22,70.1,24,70.9z"/>
		<path class="st1" d="M70,40.7l-4.4,36.1l-9.5,0.8l4.2-34.2L70,40.7z M66.8,24c1.5-0.1,2.8,0.2,3.7,1s1.5,2,1.6,3.5
			c0.1,0.8,0,1.6-0.3,2.4c-0.3,0.8-0.6,1.4-1.1,2c-0.5,0.6-1.1,1.1-1.8,1.4c-0.7,0.4-1.5,0.6-2.3,0.7c-1.6,0.1-2.8-0.2-3.8-1
			c-0.9-0.8-1.5-1.9-1.6-3.4c-0.2-1.8,0.3-3.3,1.4-4.5C63.8,24.9,65.1,24.2,66.8,24z"/>
	</g>
	<g>
		<path class="st1" d="M84.1,43.2c0.8,0.2,1.7,0.3,2.8,0.2c0.9-0.1,1.7-0.3,2.5-0.6c0.7-0.3,1.3-0.7,1.8-1.2s0.9-1.1,1.1-1.7
			s0.3-1.3,0.3-2.1c-0.1-0.9-0.4-1.7-1.1-2.4c-0.6-0.7-1.7-1.3-3-1.9c-0.7-0.3-1.4-0.6-1.9-1s-1-0.7-1.4-1c-0.4-0.4-0.7-0.8-0.9-1.2
			c-0.2-0.5-0.3-1-0.4-1.6c-0.1-0.8,0-1.5,0.3-2.2s0.7-1.3,1.2-1.9c0.5-0.6,1.2-1,1.9-1.4s1.6-0.6,2.5-0.6c0.9-0.1,1.6,0,2.3,0.1
			s1.4,0.4,2,0.7l-0.2,1.5c-0.6-0.5-1.2-0.9-1.9-1s-1.4-0.2-2.2-0.2c-0.8,0.1-1.5,0.2-2.1,0.5c-0.6,0.3-1.1,0.6-1.5,1.1
			s-0.7,0.9-0.9,1.5s-0.2,1.2-0.2,1.8c0,0.4,0.1,0.8,0.3,1.2c0.2,0.4,0.4,0.7,0.7,1c0.3,0.3,0.7,0.6,1.2,0.9s1.1,0.6,1.7,0.8
			c1.5,0.7,2.7,1.4,3.4,2.3c0.8,0.9,1.2,1.9,1.3,3c0.1,1,0,1.8-0.3,2.7c-0.3,0.8-0.8,1.5-1.4,2.1s-1.4,1.1-2.2,1.4
			C89,44.2,88,44.5,87,44.6c-1.1,0.1-2,0-2.9-0.1s-1.6-0.5-2.1-0.9L82,42l0.1,0C82.7,42.5,83.4,42.9,84.1,43.2z"/>
		<path class="st1" d="M99.7,30l0.5-4.4l1.2-0.4l-0.6,4.7l4.2-0.4l-0.1,1.1l-4.2,0.4l-0.9,7.6c-0.1,0.8-0.1,1.4-0.1,1.8
			c0.1,0.5,0.2,1,0.5,1.3c0.3,0.3,0.7,0.7,1.3,0.9l0,0.2l-1.4,0.3c-0.5-0.2-0.9-0.5-1.1-0.9c-0.3-0.4-0.4-1-0.5-1.7
			c0-0.5,0-1.1,0.1-1.8l0.9-7.6L97,31.3l0.1-1.1L99.7,30z"/>
		<path class="st1" d="M108.9,29.2l-1,8.5c-0.1,0.5-0.1,0.9,0,1.3c0.1,0.9,0.3,1.5,0.8,1.8s1.1,0.5,1.9,0.4c0.9-0.1,1.8-0.4,2.6-1
			c0.8-0.6,1.5-1.3,2.1-2.1c0.4-0.5,0.6-1.1,0.6-1.7l1-7.9l1.2-0.1l-1.6,13l-1.2,0.5l0.3-2.7c-0.6,0.9-1.4,1.6-2.3,2.2
			c-0.9,0.6-1.8,0.9-2.8,1c-2.4,0.2-3.7-0.9-3.8-3.2c0-0.4,0-0.8,0-1.2l1.1-8.6L108.9,29.2L108.9,29.2z"/>
		<path class="st1" d="M130.8,39.5c-0.7,0.5-1.3,0.9-2,1.1c-0.7,0.2-1.3,0.4-2,0.4c-0.9,0.1-1.6,0-2.3-0.2s-1.2-0.6-1.7-1
			c-0.5-0.5-0.8-1-1.1-1.6s-0.4-1.3-0.5-2c-0.1-1.3,0-2.4,0.4-3.5c0.4-1.1,0.9-2,1.6-2.8c0.7-0.8,1.5-1.5,2.5-2s1.9-0.8,2.9-0.9
			c0.7-0.1,1.4,0,1.9,0c0.6,0.1,1.2,0.3,1.7,0.5l1-8.4l1.2-0.4l-2.6,21.3l-1.2,0.6L130.8,39.5z M126.7,40c0.8-0.1,1.6-0.3,2.3-0.6
			c0.7-0.3,1.4-0.7,2-1.3l1.1-9.3c-0.4-0.3-0.9-0.5-1.5-0.6s-1.3-0.2-2-0.1c-0.9,0.1-1.8,0.3-2.6,0.8c-0.8,0.4-1.5,1-2.1,1.7
			c-0.6,0.7-1,1.5-1.3,2.4s-0.4,1.9-0.3,3c0.1,0.6,0.2,1.2,0.4,1.7c0.2,0.5,0.5,0.9,0.8,1.3s0.8,0.6,1.3,0.8
			C125.4,40,126,40,126.7,40z"/>
		<path class="st1" d="M142.7,33.3c-0.4,0.1-0.7,0.2-1.2,0.4c-0.4,0.1-0.9,0.2-1.3,0.4s-0.9,0.2-1.4,0.3c-0.4,0.1-0.9,0.2-1.3,0.3
			l0,0.1c0.1,1.2,0.6,2.2,1.3,2.9s1.9,1,3.2,0.9c0.9-0.1,1.7-0.3,2.5-0.8c0.8-0.4,1.5-1,2.1-1.7l0.1,0l-0.2,1.7
			c-0.5,0.5-1.2,0.9-2,1.3c-0.8,0.3-1.6,0.6-2.4,0.6c-0.9,0.1-1.7,0-2.4-0.2s-1.3-0.5-1.7-1c-0.5-0.4-0.8-1-1.1-1.6
			c-0.3-0.6-0.4-1.2-0.5-2c-0.1-1,0.1-2.1,0.4-3.2c0.4-1.1,0.9-2,1.6-2.9c0.7-0.9,1.5-1.6,2.4-2.2c0.9-0.6,2-0.9,3-1
			c1.2-0.1,2.1,0.1,2.8,0.6c0.6,0.5,1,1.2,1.1,2c0,0.5,0,0.9-0.1,1.4c-0.1,0.5-0.4,0.9-0.8,1.3c-0.4,0.4-0.9,0.8-1.6,1.2
			C144.6,32.7,143.8,33,142.7,33.3z M144.1,26.8c-0.8,0.1-1.6,0.3-2.3,0.8c-0.7,0.4-1.4,1-2,1.6c-0.6,0.6-1.1,1.4-1.4,2.2
			c-0.4,0.8-0.6,1.6-0.7,2.4c0.3-0.1,0.7-0.2,1.1-0.3c0.4-0.1,0.9-0.2,1.4-0.4c0.5-0.1,1-0.3,1.5-0.4c0.5-0.2,1-0.3,1.4-0.5
			c1.3-0.5,2.3-1,2.9-1.7c0.6-0.6,0.9-1.3,0.8-2c-0.1-0.6-0.3-1-0.8-1.3C145.5,26.8,144.9,26.7,144.1,26.8z"/>
		<path class="st1" d="M152.2,25.4l1.2-0.1l-0.3,2.5c0.8-1,1.6-1.8,2.6-2.3c0.9-0.5,1.8-0.8,2.6-0.9c1.1-0.1,1.9,0.1,2.6,0.6
			c0.6,0.5,1,1.3,1.1,2.4c0,0.5,0,0.9,0,1.3l-1.1,8.7l-1.2,0.1l1.1-8.6c0.1-0.5,0.1-0.9,0-1.3c-0.1-0.8-0.3-1.3-0.8-1.6
			c-0.5-0.3-1.1-0.5-1.9-0.4c-0.4,0-0.8,0.1-1.2,0.3s-0.8,0.3-1.2,0.6c-0.4,0.2-0.7,0.5-1.1,0.8c-0.3,0.3-0.6,0.6-0.9,1
			c-0.3,0.4-0.6,0.8-0.7,1.2c-0.2,0.4-0.3,0.9-0.4,1.5l-0.9,7.4l-1.2,0.1L152.2,25.4z"/>
		<path class="st1" d="M168,24l0.5-4.4l1.2-0.4l-0.6,4.7l4.2-0.4l-0.1,1.1L169,25l-0.9,7.6c-0.1,0.8-0.1,1.4-0.1,1.8
			c0.1,0.5,0.2,1,0.5,1.3c0.3,0.3,0.7,0.7,1.3,0.9l0,0.2l-1.4,0.3c-0.5-0.2-0.9-0.5-1.1-0.9s-0.4-1-0.5-1.7c0-0.5,0-1.1,0.1-1.8
			l0.9-7.6l-2.6,0.2l0.1-1.1L168,24z"/>
		<path class="st1" d="M85.7,74.3l2.6-21.2l1.2-0.1l-2.6,21.2L85.7,74.3z"/>
		<path class="st1" d="M93.9,60.6l1.2-0.1L94.8,63c0.8-1,1.7-1.8,2.6-2.3c0.9-0.5,1.8-0.8,2.6-0.9c1.1-0.1,1.9,0.1,2.6,0.6
			c0.7,0.5,1,1.3,1.1,2.4c0,0.4,0,0.9,0,1.3l-1.1,8.7l-1.2,0.1l1.1-8.6c0.1-0.5,0.1-0.9,0-1.3c-0.1-0.8-0.3-1.3-0.8-1.6
			c-0.5-0.3-1.1-0.5-1.9-0.4c-0.4,0-0.8,0.1-1.2,0.3s-0.8,0.3-1.2,0.6c-0.4,0.2-0.7,0.5-1.1,0.8c-0.3,0.3-0.6,0.6-0.9,1
			c-0.3,0.4-0.6,0.8-0.7,1.2c-0.2,0.4-0.3,0.9-0.4,1.5l-0.9,7.4l-1.2,0.1L93.9,60.6z"/>
		<path class="st1" d="M109.7,59.2l0.5-4.4l1.2-0.4l-0.6,4.7l4.2-0.4l-0.1,1.1l-4.2,0.4l-0.9,7.6c-0.1,0.8-0.1,1.4-0.1,1.8
			c0.1,0.5,0.2,0.9,0.5,1.3s0.7,0.7,1.3,0.9l0,0.2l-1.4,0.3c-0.5-0.2-0.9-0.5-1.1-0.9c-0.3-0.4-0.4-1-0.5-1.7c0-0.5,0-1.1,0.1-1.8
			l0.9-7.6l-2.6,0.2l0.1-1.1C107.1,59.5,109.7,59.2,109.7,59.2z"/>
		<path class="st1" d="M122.1,65.3c-0.3,0.1-0.7,0.2-1.2,0.4c-0.4,0.1-0.9,0.2-1.3,0.4s-0.9,0.2-1.4,0.3c-0.4,0.1-0.9,0.2-1.3,0.3
			l0,0.1c0.1,1.2,0.6,2.2,1.3,2.9s1.8,1,3.2,0.9c0.9-0.1,1.7-0.3,2.5-0.8s1.5-1,2.1-1.7l0.1,0l-0.2,1.7c-0.5,0.5-1.2,0.9-2,1.3
			s-1.6,0.6-2.4,0.6c-0.9,0.1-1.7,0-2.4-0.2s-1.3-0.6-1.7-1c-0.5-0.4-0.8-1-1.1-1.6s-0.4-1.2-0.5-1.9c-0.1-1,0.1-2.1,0.4-3.2
			c0.4-1.1,0.9-2,1.6-2.9c0.7-0.9,1.5-1.6,2.4-2.2s2-0.9,3-1c1.2-0.1,2.1,0.1,2.8,0.6c0.7,0.5,1,1.2,1.1,2c0,0.5,0,0.9-0.2,1.4
			c-0.1,0.5-0.4,0.9-0.8,1.3c-0.4,0.4-0.9,0.8-1.6,1.2C124,64.6,123.2,64.9,122.1,65.3z M123.5,58.7c-0.8,0.1-1.6,0.3-2.3,0.8
			s-1.4,1-2,1.6c-0.6,0.6-1.1,1.4-1.4,2.2s-0.6,1.6-0.7,2.4c0.3-0.1,0.7-0.2,1.1-0.3s0.9-0.2,1.3-0.4c0.5-0.1,1-0.3,1.5-0.4
			c0.5-0.2,1-0.3,1.4-0.5c1.3-0.5,2.3-1,2.9-1.7c0.6-0.7,0.9-1.3,0.8-2c-0.1-0.6-0.3-1-0.8-1.3C124.9,58.7,124.3,58.6,123.5,58.7z"
			/>
		<path class="st1" d="M138.1,57.8c-1.1,0.1-2.1,0.3-2.9,0.7c-0.8,0.4-1.5,0.9-2.1,1.5c-0.1,0.1-0.2,0.3-0.3,0.4
			c-0.1,0.2-0.2,0.3-0.2,0.5c-0.1,0.2-0.1,0.5-0.2,0.8c-0.1,0.3-0.1,0.6-0.2,1.1l-0.9,7.5l-1.2,0.1l1.6-13.1l1.2-0.1l-0.3,2.2
			c0.7-0.7,1.4-1.3,2.1-1.7c0.7-0.4,1.5-0.7,2.3-0.9c0.4-0.1,0.8-0.2,1.2-0.2L138.1,57.8z"/>
		<path class="st1" d="M140.2,56.6l2.6,11l6.1-11.8l1.4-0.1l-7.2,13.6l-0.9,0.1L139,56.7C139,56.7,140.2,56.6,140.2,56.6z"/>
		<path class="st1" d="M154.4,55.2l-1.6,13.3l-1.2,0.1l1.6-13L154.4,55.2z M154.5,49.3c0.3,0,0.5,0,0.6,0.2c0.2,0.1,0.3,0.3,0.3,0.6
			c0,0.3-0.1,0.6-0.3,0.8c-0.2,0.2-0.5,0.3-0.8,0.4c-0.3,0-0.5,0-0.7-0.2c-0.1-0.1-0.2-0.3-0.3-0.6c0-0.3,0.1-0.6,0.2-0.9
			C153.9,49.5,154.2,49.3,154.5,49.3z"/>
		<path class="st1" d="M163.7,61.6c-0.4,0.1-0.7,0.2-1.2,0.4c-0.4,0.1-0.9,0.2-1.3,0.4c-0.4,0.1-0.9,0.2-1.4,0.3
			c-0.4,0.1-0.9,0.2-1.3,0.3l0,0.1c0.1,1.2,0.6,2.2,1.3,2.9s1.9,1,3.2,0.9c0.9-0.1,1.7-0.3,2.5-0.8s1.5-1,2.1-1.7l0.1,0l-0.2,1.7
			c-0.5,0.5-1.2,0.9-2,1.3c-0.8,0.3-1.6,0.6-2.4,0.6c-0.9,0.1-1.7,0-2.4-0.2s-1.3-0.6-1.7-1c-0.5-0.4-0.8-1-1.1-1.6
			c-0.3-0.6-0.4-1.2-0.5-1.9c-0.1-1,0.1-2.1,0.4-3.2s0.9-2,1.6-2.9c0.7-0.9,1.5-1.6,2.4-2.2c0.9-0.6,2-0.9,3-1
			c1.2-0.1,2.1,0.1,2.8,0.6c0.6,0.5,1,1.2,1.1,2c0,0.5,0,0.9-0.1,1.4c-0.1,0.5-0.4,0.9-0.8,1.3c-0.4,0.4-0.9,0.8-1.6,1.2
			C165.6,60.9,164.7,61.3,163.7,61.6z M165.1,55.1c-0.8,0.1-1.6,0.3-2.3,0.8s-1.4,1-2,1.6c-0.6,0.6-1.1,1.4-1.4,2.2
			s-0.6,1.6-0.7,2.4c0.3-0.1,0.7-0.2,1.1-0.3s0.9-0.2,1.4-0.4c0.5-0.1,1-0.3,1.5-0.4c0.5-0.2,1-0.3,1.4-0.5c1.3-0.5,2.3-1,2.9-1.7
			c0.6-0.7,0.9-1.3,0.8-2c-0.1-0.6-0.3-1-0.8-1.3S165.8,55,165.1,55.1z"/>
		<path class="st1" d="M181,53l1.6,11.2l5.9-11.9l1.4-0.1l-7,13.6l-0.9,0.1l-1.7-10.8L175,66.5l-1,0.1l-3-12.7l1.2-0.1l2.4,11.1
			l5.2-11.8C179.9,53.1,181,53,181,53z"/>
	</g>
</g>
</svg>
