<?xml version="1.0" encoding="utf-8"?>
<!-- Generator: Adobe Illustrator 21.1.0, SVG Export Plug-In . SVG Version: 6.00 Build 0)  -->
<svg version="1.1" id="レイヤー_1" xmlns="http://www.w3.org/2000/svg" xmlns:xlink="http://www.w3.org/1999/xlink" x="0px"
	 y="0px" viewBox="0 0 500 150" style="enable-background:new 0 0 500 150;" xml:space="preserve">
<style type="text/css">
	.st0{fill:none;}
	.st1{fill:#AC6922;}
	.st2{fill:#D78226;}
	.st3{fill:url(#SVGID_1_);}
</style>
<pattern  x="-250" y="-75" width="1869.5" height="1122.5" patternUnits="userSpaceOnUse" id="新規パターンスウォッチ_3" viewBox="0 -1122.5 1869.5 1122.5" style="overflow:visible;">
	<g>
		<rect y="-1122.5" class="st0" width="1869.5" height="1122.5"/>
		<path class="st1" d="M1675.3-182.8c1.6,0,2.4,1.2,1.9,2.7l-29,79.7c-0.5,1.5-2.2,2.7-3.8,2.7H1565c-1.6,0-2.4-1.2-1.9-2.7l29-79.7
			c0.5-1.5,2.2-2.7,3.8-2.7H1675.3z"/>
		<path class="st2" d="M1675.3-191.3c1.6,0,2.4-1.2,1.9-2.7l-29-79.7c-0.5-1.5-2.2-2.7-3.8-2.7H1565c-1.6,0-2.4,1.2-1.9,2.7l29,79.7
			c0.5,1.5,2.2,2.7,3.8,2.7H1675.3z"/>
		<path class="st2" d="M1675.3-4.3c1.6,0,2.4-1.2,1.9-2.7l-29-79.7c-0.5-1.5-2.2-2.7-3.8-2.7H1565c-1.6,0-2.4,1.2-1.9,2.7l29,79.7
			c0.5,1.5,2.2,2.7,3.8,2.7H1675.3z"/>
		<path class="st1" d="M1768.9-182.8c1.6,0,2.4,1.2,1.9,2.7l-29,79.7c-0.5,1.5-2.2,2.7-3.8,2.7h-79.4c-1.6,0-2.4-1.2-1.9-2.7
			l29-79.7c0.5-1.5,2.2-2.7,3.8-2.7H1768.9z"/>
		<path class="st1" d="M1768.9-369.9c1.6,0,2.4,1.2,1.9,2.7l-29,79.7c-0.5,1.5-2.2,2.7-3.8,2.7h-79.4c-1.6,0-2.4-1.2-1.9-2.7
			l29-79.7c0.5-1.5,2.2-2.7,3.8-2.7H1768.9z"/>
		<path class="st2" d="M1768.9-191.3c1.6,0,2.4-1.2,1.9-2.7l-29-79.7c-0.5-1.5-2.2-2.7-3.8-2.7h-79.4c-1.6,0-2.4,1.2-1.9,2.7
			l29,79.7c0.5,1.5,2.2,2.7,3.8,2.7H1768.9z"/>
		<path class="st2" d="M1768.9-4.3c1.6,0,2.4-1.2,1.9-2.7l-29-79.7c-0.5-1.5-2.2-2.7-3.8-2.7h-79.4c-1.6,0-2.4,1.2-1.9,2.7l29,79.7
			c0.5,1.5,2.2,2.7,3.8,2.7H1768.9z"/>
		<path class="st1" d="M1862.4-182.8c1.6,0,2.4,1.2,1.9,2.7l-29,79.7c-0.5,1.5-2.2,2.7-3.8,2.7h-79.4c-1.6,0-2.4-1.2-1.9-2.7
			l29-79.7c0.5-1.5,2.2-2.7,3.8-2.7H1862.4z"/>
		<path class="st2" d="M1862.4-191.3c1.6,0,2.4-1.2,1.9-2.7l-29-79.7c-0.5-1.5-2.2-2.7-3.8-2.7h-79.4c-1.6,0-2.4,1.2-1.9,2.7
			l29,79.7c0.5,1.5,2.2,2.7,3.8,2.7H1862.4z"/>
		<path class="st2" d="M1862.4-4.3c1.6,0,2.4-1.2,1.9-2.7l-29-79.7c-0.5-1.5-2.2-2.7-3.8-2.7h-79.4c-1.6,0-2.4,1.2-1.9,2.7l29,79.7
			c0.5,1.5,2.2,2.7,3.8,2.7H1862.4z"/>
		<path class="st1" d="M1363.7-276.4c1.6,0,2.4,1.2,1.9,2.7l-29,79.7c-0.5,1.5-2.2,2.7-3.8,2.7h-79.4c-1.6,0-2.4-1.2-1.9-2.7
			l29-79.7c0.5-1.5,2.2-2.7,3.8-2.7H1363.7z"/>
		<path class="st2" d="M1363.7-284.9c1.6,0,2.4-1.2,1.9-2.7l-29-79.7c-0.5-1.5-2.2-2.7-3.8-2.7h-79.4c-1.6,0-2.4,1.2-1.9,2.7
			l29,79.7c0.5,1.5,2.2,2.7,3.8,2.7H1363.7z"/>
		<path class="st1" d="M1363.7-89.3c1.6,0,2.4,1.2,1.9,2.7l-29,79.7c-0.5,1.5-2.2,2.7-3.8,2.7h-79.4c-1.6,0-2.4-1.2-1.9-2.7l29-79.7
			c0.5-1.5,2.2-2.7,3.8-2.7H1363.7z"/>
		<path class="st2" d="M1363.7-97.8c1.6,0,2.4-1.2,1.9-2.7l-29-79.7c-0.5-1.5-2.2-2.7-3.8-2.7h-79.4c-1.6,0-2.4,1.2-1.9,2.7l29,79.7
			c0.5,1.5,2.2,2.7,3.8,2.7H1363.7z"/>
		<path class="st1" d="M1457.3-276.4c1.6,0,2.4,1.2,1.9,2.7l-29,79.7c-0.5,1.5-2.2,2.7-3.8,2.7H1347c-1.6,0-2.4-1.2-1.9-2.7l29-79.7
			c0.5-1.5,2.2-2.7,3.8-2.7H1457.3z"/>
		<path class="st1" d="M1457.3-463.5c1.6,0,2.4,1.2,1.9,2.7l-29,79.7c-0.5,1.5-2.2,2.7-3.8,2.7H1347c-1.6,0-2.4-1.2-1.9-2.7l29-79.7
			c0.5-1.5,2.2-2.7,3.8-2.7H1457.3z"/>
		<path class="st2" d="M1457.3-284.9c1.6,0,2.4-1.2,1.9-2.7l-29-79.7c-0.5-1.5-2.2-2.7-3.8-2.7H1347c-1.6,0-2.4,1.2-1.9,2.7l29,79.7
			c0.5,1.5,2.2,2.7,3.8,2.7H1457.3z"/>
		<path class="st1" d="M1457.3-89.3c1.6,0,2.4,1.2,1.9,2.7l-29,79.7c-0.5,1.5-2.2,2.7-3.8,2.7H1347c-1.6,0-2.4-1.2-1.9-2.7l29-79.7
			c0.5-1.5,2.2-2.7,3.8-2.7H1457.3z"/>
		<path class="st2" d="M1457.3-97.8c1.6,0,2.4-1.2,1.9-2.7l-29-79.7c-0.5-1.5-2.2-2.7-3.8-2.7H1347c-1.6,0-2.4,1.2-1.9,2.7l29,79.7
			c0.5,1.5,2.2,2.7,3.8,2.7H1457.3z"/>
		<path class="st1" d="M1550.8-276.4c1.6,0,2.4,1.2,1.9,2.7l-29,79.7c-0.5,1.5-2.2,2.7-3.8,2.7h-79.4c-1.6,0-2.4-1.2-1.9-2.7
			l29-79.7c0.5-1.5,2.2-2.7,3.8-2.7H1550.8z"/>
		<path class="st2" d="M1550.8-284.9c1.6,0,2.4-1.2,1.9-2.7l-29-79.7c-0.5-1.5-2.2-2.7-3.8-2.7h-79.4c-1.6,0-2.4,1.2-1.9,2.7
			l29,79.7c0.5,1.5,2.2,2.7,3.8,2.7H1550.8z"/>
		<path class="st1" d="M1550.8-89.3c1.6,0,2.4,1.2,1.9,2.7l-29,79.7c-0.5,1.5-2.2,2.7-3.8,2.7h-79.4c-1.6,0-2.4-1.2-1.9-2.7l29-79.7
			c0.5-1.5,2.2-2.7,3.8-2.7H1550.8z"/>
		<path class="st2" d="M1550.8-97.8c1.6,0,2.4-1.2,1.9-2.7l-29-79.7c-0.5-1.5-2.2-2.7-3.8-2.7h-79.4c-1.6,0-2.4,1.2-1.9,2.7l29,79.7
			c0.5,1.5,2.2,2.7,3.8,2.7H1550.8z"/>
		<path class="st1" d="M1052.2-369.9c1.6,0,2.4,1.2,1.9,2.7l-29,79.7c-0.5,1.5-2.2,2.7-3.8,2.7h-79.4c-1.6,0-2.4-1.2-1.9-2.7
			l29-79.7c0.5-1.5,2.2-2.7,3.8-2.7H1052.2z"/>
		<path class="st2" d="M1052.2-378.4c1.6,0,2.4-1.2,1.9-2.7l-29-79.7c-0.5-1.5-2.2-2.7-3.8-2.7h-79.4c-1.6,0-2.4,1.2-1.9,2.7
			l29,79.7c0.5,1.5,2.2,2.7,3.8,2.7H1052.2z"/>
		<path class="st1" d="M1052.2-182.8c1.6,0,2.4,1.2,1.9,2.7l-29,79.7c-0.5,1.5-2.2,2.7-3.8,2.7h-79.4c-1.6,0-2.4-1.2-1.9-2.7
			l29-79.7c0.5-1.5,2.2-2.7,3.8-2.7H1052.2z"/>
		<path class="st2" d="M1052.2-191.3c1.6,0,2.4-1.2,1.9-2.7l-29-79.7c-0.5-1.5-2.2-2.7-3.8-2.7h-79.4c-1.6,0-2.4,1.2-1.9,2.7
			l29,79.7c0.5,1.5,2.2,2.7,3.8,2.7H1052.2z"/>
		<path class="st1" d="M1145.7-369.9c1.6,0,2.4,1.2,1.9,2.7l-29,79.7c-0.5,1.5-2.2,2.7-3.8,2.7h-79.4c-1.6,0-2.4-1.2-1.9-2.7
			l29-79.7c0.5-1.5,2.2-2.7,3.8-2.7H1145.7z"/>
		<path class="st1" d="M1145.7-557c1.6,0,2.4,1.2,1.9,2.7l-29,79.7c-0.5,1.5-2.2,2.7-3.8,2.7h-79.4c-1.6,0-2.4-1.2-1.9-2.7l29-79.7
			c0.5-1.5,2.2-2.7,3.8-2.7H1145.7z"/>
		<path class="st2" d="M1145.7-378.4c1.6,0,2.4-1.2,1.9-2.7l-29-79.7c-0.5-1.5-2.2-2.7-3.8-2.7h-79.4c-1.6,0-2.4,1.2-1.9,2.7
			l29,79.7c0.5,1.5,2.2,2.7,3.8,2.7H1145.7z"/>
		<path class="st1" d="M1145.7-182.8c1.6,0,2.4,1.2,1.9,2.7l-29,79.7c-0.5,1.5-2.2,2.7-3.8,2.7h-79.4c-1.6,0-2.4-1.2-1.9-2.7
			l29-79.7c0.5-1.5,2.2-2.7,3.8-2.7H1145.7z"/>
		<path class="st2" d="M1145.7-191.3c1.6,0,2.4-1.2,1.9-2.7l-29-79.7c-0.5-1.5-2.2-2.7-3.8-2.7h-79.4c-1.6,0-2.4,1.2-1.9,2.7
			l29,79.7c0.5,1.5,2.2,2.7,3.8,2.7H1145.7z"/>
		<path class="st2" d="M1145.7-4.3c1.6,0,2.4-1.2,1.9-2.7l-29-79.7c-0.5-1.5-2.2-2.7-3.8-2.7h-79.4c-1.6,0-2.4,1.2-1.9,2.7l29,79.7
			c0.5,1.5,2.2,2.7,3.8,2.7H1145.7z"/>
		<path class="st1" d="M1239.2-369.9c1.6,0,2.4,1.2,1.9,2.7l-29,79.7c-0.5,1.5-2.2,2.7-3.8,2.7h-79.4c-1.6,0-2.4-1.2-1.9-2.7
			l29-79.7c0.5-1.5,2.2-2.7,3.8-2.7H1239.2z"/>
		<path class="st2" d="M1239.2-378.4c1.6,0,2.4-1.2,1.9-2.7l-29-79.7c-0.5-1.5-2.2-2.7-3.8-2.7h-79.4c-1.6,0-2.4,1.2-1.9,2.7
			l29,79.7c0.5,1.5,2.2,2.7,3.8,2.7H1239.2z"/>
		<path class="st1" d="M1239.2-182.8c1.6,0,2.4,1.2,1.9,2.7l-29,79.7c-0.5,1.5-2.2,2.7-3.8,2.7h-79.4c-1.6,0-2.4-1.2-1.9-2.7
			l29-79.7c0.5-1.5,2.2-2.7,3.8-2.7H1239.2z"/>
		<path class="st2" d="M1239.2-191.3c1.6,0,2.4-1.2,1.9-2.7l-29-79.7c-0.5-1.5-2.2-2.7-3.8-2.7h-79.4c-1.6,0-2.4,1.2-1.9,2.7
			l29,79.7c0.5,1.5,2.2,2.7,3.8,2.7H1239.2z"/>
		<path class="st1" d="M740.6-463.5c1.6,0,2.4,1.2,1.9,2.7l-29,79.7c-0.5,1.5-2.2,2.7-3.8,2.7h-79.4c-1.6,0-2.4-1.2-1.9-2.7l29-79.7
			c0.5-1.5,2.2-2.7,3.8-2.7H740.6z"/>
		<path class="st2" d="M740.6-472c1.6,0,2.4-1.2,1.9-2.7l-29-79.7c-0.5-1.5-2.2-2.7-3.8-2.7h-79.4c-1.6,0-2.4,1.2-1.9,2.7l29,79.7
			c0.5,1.5,2.2,2.7,3.8,2.7H740.6z"/>
		<path class="st1" d="M740.6-276.4c1.6,0,2.4,1.2,1.9,2.7l-29,79.7c-0.5,1.5-2.2,2.7-3.8,2.7h-79.4c-1.6,0-2.4-1.2-1.9-2.7l29-79.7
			c0.5-1.5,2.2-2.7,3.8-2.7H740.6z"/>
		<path class="st2" d="M740.6-284.9c1.6,0,2.4-1.2,1.9-2.7l-29-79.7c-0.5-1.5-2.2-2.7-3.8-2.7h-79.4c-1.6,0-2.4,1.2-1.9,2.7l29,79.7
			c0.5,1.5,2.2,2.7,3.8,2.7H740.6z"/>
		<path class="st1" d="M834.1-463.5c1.6,0,2.4,1.2,1.9,2.7l-29,79.7c-0.5,1.5-2.2,2.7-3.8,2.7h-79.4c-1.6,0-2.4-1.2-1.9-2.7l29-79.7
			c0.5-1.5,2.2-2.7,3.8-2.7H834.1z"/>
		<path class="st1" d="M834.1-650.6c1.6,0,2.4,1.2,1.9,2.7l-29,79.7c-0.5,1.5-2.2,2.7-3.8,2.7h-79.4c-1.6,0-2.4-1.2-1.9-2.7l29-79.7
			c0.5-1.5,2.2-2.7,3.8-2.7H834.1z"/>
		<path class="st2" d="M834.1-472c1.6,0,2.4-1.2,1.9-2.7l-29-79.7c-0.5-1.5-2.2-2.7-3.8-2.7h-79.4c-1.6,0-2.4,1.2-1.9,2.7l29,79.7
			c0.5,1.5,2.2,2.7,3.8,2.7H834.1z"/>
		<path class="st1" d="M834.1-276.4c1.6,0,2.4,1.2,1.9,2.7L807-194c-0.5,1.5-2.2,2.7-3.8,2.7h-79.4c-1.6,0-2.4-1.2-1.9-2.7l29-79.7
			c0.5-1.5,2.2-2.7,3.8-2.7H834.1z"/>
		<path class="st2" d="M834.1-284.9c1.6,0,2.4-1.2,1.9-2.7l-29-79.7c-0.5-1.5-2.2-2.7-3.8-2.7h-79.4c-1.6,0-2.4,1.2-1.9,2.7l29,79.7
			c0.5,1.5,2.2,2.7,3.8,2.7H834.1z"/>
		<path class="st1" d="M834.1-89.3c1.6,0,2.4,1.2,1.9,2.7L807-6.9c-0.5,1.5-2.2,2.7-3.8,2.7h-79.4c-1.6,0-2.4-1.2-1.9-2.7l29-79.7
			c0.5-1.5,2.2-2.7,3.8-2.7H834.1z"/>
		<path class="st2" d="M834.1-97.8c1.6,0,2.4-1.2,1.9-2.7l-29-79.7c-0.5-1.5-2.2-2.7-3.8-2.7h-79.4c-1.6,0-2.4,1.2-1.9,2.7l29,79.7
			c0.5,1.5,2.2,2.7,3.8,2.7H834.1z"/>
		<path class="st1" d="M927.7-463.5c1.6,0,2.4,1.2,1.9,2.7l-29,79.7c-0.5,1.5-2.2,2.7-3.8,2.7h-79.4c-1.6,0-2.4-1.2-1.9-2.7l29-79.7
			c0.5-1.5,2.2-2.7,3.8-2.7H927.7z"/>
		<path class="st2" d="M927.7-472c1.6,0,2.4-1.2,1.9-2.7l-29-79.7c-0.5-1.5-2.2-2.7-3.8-2.7h-79.4c-1.6,0-2.4,1.2-1.9,2.7l29,79.7
			c0.5,1.5,2.2,2.7,3.8,2.7H927.7z"/>
		<path class="st1" d="M927.7-276.4c1.6,0,2.4,1.2,1.9,2.7l-29,79.7c-0.5,1.5-2.2,2.7-3.8,2.7h-79.4c-1.6,0-2.4-1.2-1.9-2.7l29-79.7
			c0.5-1.5,2.2-2.7,3.8-2.7H927.7z"/>
		<path class="st2" d="M927.7-284.9c1.6,0,2.4-1.2,1.9-2.7l-29-79.7c-0.5-1.5-2.2-2.7-3.8-2.7h-79.4c-1.6,0-2.4,1.2-1.9,2.7l29,79.7
			c0.5,1.5,2.2,2.7,3.8,2.7H927.7z"/>
		<path class="st1" d="M429-557c1.6,0,2.4,1.2,1.9,2.7l-29,79.7c-0.5,1.5-2.2,2.7-3.8,2.7h-79.4c-1.6,0-2.4-1.2-1.9-2.7l29-79.7
			c0.5-1.5,2.2-2.7,3.8-2.7H429z"/>
		<path class="st2" d="M429-565.5c1.6,0,2.4-1.2,1.9-2.7l-29-79.7c-0.5-1.5-2.2-2.7-3.8-2.7h-79.4c-1.6,0-2.4,1.2-1.9,2.7l29,79.7
			c0.5,1.5,2.2,2.7,3.8,2.7H429z"/>
		<path class="st1" d="M429-369.9c1.6,0,2.4,1.2,1.9,2.7l-29,79.7c-0.5,1.5-2.2,2.7-3.8,2.7h-79.4c-1.6,0-2.4-1.2-1.9-2.7l29-79.7
			c0.5-1.5,2.2-2.7,3.8-2.7H429z"/>
		<path class="st2" d="M429-378.4c1.6,0,2.4-1.2,1.9-2.7l-29-79.7c-0.5-1.5-2.2-2.7-3.8-2.7h-79.4c-1.6,0-2.4,1.2-1.9,2.7l29,79.7
			c0.5,1.5,2.2,2.7,3.8,2.7H429z"/>
		<path class="st1" d="M522.5-557c1.6,0,2.4,1.2,1.9,2.7l-29,79.7c-0.5,1.5-2.2,2.7-3.8,2.7h-79.4c-1.6,0-2.4-1.2-1.9-2.7l29-79.7
			c0.5-1.5,2.2-2.7,3.8-2.7H522.5z"/>
		<path class="st1" d="M522.5-744.1c1.6,0,2.4,1.2,1.9,2.7l-29,79.7c-0.5,1.5-2.2,2.7-3.8,2.7h-79.4c-1.6,0-2.4-1.2-1.9-2.7l29-79.7
			c0.5-1.5,2.2-2.7,3.8-2.7H522.5z"/>
		<path class="st2" d="M522.5-565.5c1.6,0,2.4-1.2,1.9-2.7l-29-79.7c-0.5-1.5-2.2-2.7-3.8-2.7h-79.4c-1.6,0-2.4,1.2-1.9,2.7l29,79.7
			c0.5,1.5,2.2,2.7,3.8,2.7H522.5z"/>
		<path class="st1" d="M522.5-369.9c1.6,0,2.4,1.2,1.9,2.7l-29,79.7c-0.5,1.5-2.2,2.7-3.8,2.7h-79.4c-1.6,0-2.4-1.2-1.9-2.7l29-79.7
			c0.5-1.5,2.2-2.7,3.8-2.7H522.5z"/>
		<path class="st2" d="M522.5-378.4c1.6,0,2.4-1.2,1.9-2.7l-29-79.7c-0.5-1.5-2.2-2.7-3.8-2.7h-79.4c-1.6,0-2.4,1.2-1.9,2.7l29,79.7
			c0.5,1.5,2.2,2.7,3.8,2.7H522.5z"/>
		<path class="st1" d="M522.5-182.8c1.6,0,2.4,1.2,1.9,2.7l-29,79.7c-0.5,1.5-2.2,2.7-3.8,2.7h-79.4c-1.6,0-2.4-1.2-1.9-2.7l29-79.7
			c0.5-1.5,2.2-2.7,3.8-2.7H522.5z"/>
		<path class="st2" d="M522.5-191.3c1.6,0,2.4-1.2,1.9-2.7l-29-79.7c-0.5-1.5-2.2-2.7-3.8-2.7h-79.4c-1.6,0-2.4,1.2-1.9,2.7l29,79.7
			c0.5,1.5,2.2,2.7,3.8,2.7H522.5z"/>
		<path class="st2" d="M522.5-4.3c1.6,0,2.4-1.2,1.9-2.7l-29-79.7c-0.5-1.5-2.2-2.7-3.8-2.7h-79.4c-1.6,0-2.4,1.2-1.9,2.7l29,79.7
			c0.5,1.5,2.2,2.7,3.8,2.7H522.5z"/>
		<path class="st2" d="M429-4.3c1.6,0,2.4-1.2,1.9-2.7l-29-79.7c-0.5-1.5-2.2-2.7-3.8-2.7h-79.4c-1.6,0-2.4,1.2-1.9,2.7l29,79.7
			c0.5,1.5,2.2,2.7,3.8,2.7H429z"/>
		<path class="st2" d="M616.1-4.3c1.6,0,2.4-1.2,1.9-2.7l-29-79.7c-0.5-1.5-2.2-2.7-3.8-2.7h-79.4c-1.6,0-2.4,1.2-1.9,2.7l29,79.7
			c0.5,1.5,2.2,2.7,3.8,2.7H616.1z"/>
		<path class="st1" d="M616.1-557c1.6,0,2.4,1.2,1.9,2.7l-29,79.7c-0.5,1.5-2.2,2.7-3.8,2.7h-79.4c-1.6,0-2.4-1.2-1.9-2.7l29-79.7
			c0.5-1.5,2.2-2.7,3.8-2.7H616.1z"/>
		<path class="st2" d="M616.1-565.5c1.6,0,2.4-1.2,1.9-2.7l-29-79.7c-0.5-1.5-2.2-2.7-3.8-2.7h-79.4c-1.6,0-2.4,1.2-1.9,2.7l29,79.7
			c0.5,1.5,2.2,2.7,3.8,2.7H616.1z"/>
		<path class="st1" d="M616.1-369.9c1.6,0,2.4,1.2,1.9,2.7l-29,79.7c-0.5,1.5-2.2,2.7-3.8,2.7h-79.4c-1.6,0-2.4-1.2-1.9-2.7l29-79.7
			c0.5-1.5,2.2-2.7,3.8-2.7H616.1z"/>
		<path class="st2" d="M616.1-378.4c1.6,0,2.4-1.2,1.9-2.7l-29-79.7c-0.5-1.5-2.2-2.7-3.8-2.7h-79.4c-1.6,0-2.4,1.2-1.9,2.7l29,79.7
			c0.5,1.5,2.2,2.7,3.8,2.7H616.1z"/>
		<path class="st1" d="M117.4-650.6c1.6,0,2.4,1.2,1.9,2.7l-29,79.7c-0.5,1.5-2.2,2.7-3.8,2.7H7.1c-1.6,0-2.4-1.2-1.9-2.7l29-79.7
			c0.5-1.5,2.2-2.7,3.8-2.7H117.4z"/>
		<path class="st2" d="M117.4-659.1c1.6,0,2.4-1.2,1.9-2.7l-29-79.7c-0.5-1.5-2.2-2.7-3.8-2.7H7.1c-1.6,0-2.4,1.2-1.9,2.7l29,79.7
			c0.5,1.5,2.2,2.7,3.8,2.7H117.4z"/>
		<path class="st1" d="M117.4-463.5c1.6,0,2.4,1.2,1.9,2.7l-29,79.7c-0.5,1.5-2.2,2.7-3.8,2.7H7.1c-1.6,0-2.4-1.2-1.9-2.7l29-79.7
			c0.5-1.5,2.2-2.7,3.8-2.7H117.4z"/>
		<path class="st2" d="M117.4-472c1.6,0,2.4-1.2,1.9-2.7l-29-79.7c-0.5-1.5-2.2-2.7-3.8-2.7H7.1c-1.6,0-2.4,1.2-1.9,2.7l29,79.7
			c0.5,1.5,2.2,2.7,3.8,2.7H117.4z"/>
		<path class="st1" d="M211-650.6c1.6,0,2.4,1.2,1.9,2.7l-29,79.7c-0.5,1.5-2.2,2.7-3.8,2.7h-79.4c-1.6,0-2.4-1.2-1.9-2.7l29-79.7
			c0.5-1.5,2.2-2.7,3.8-2.7H211z"/>
		<path class="st1" d="M211-837.6c1.6,0,2.4,1.2,1.9,2.7l-29,79.7c-0.5,1.5-2.2,2.7-3.8,2.7h-79.4c-1.6,0-2.4-1.2-1.9-2.7l29-79.7
			c0.5-1.5,2.2-2.7,3.8-2.7H211z"/>
		<path class="st2" d="M211-659.1c1.6,0,2.4-1.2,1.9-2.7l-29-79.7c-0.5-1.5-2.2-2.7-3.8-2.7h-79.4c-1.6,0-2.4,1.2-1.9,2.7l29,79.7
			c0.5,1.5,2.2,2.7,3.8,2.7H211z"/>
		<path class="st1" d="M211-463.5c1.6,0,2.4,1.2,1.9,2.7l-29,79.7c-0.5,1.5-2.2,2.7-3.8,2.7h-79.4c-1.6,0-2.4-1.2-1.9-2.7l29-79.7
			c0.5-1.5,2.2-2.7,3.8-2.7H211z"/>
		<path class="st2" d="M211-472c1.6,0,2.4-1.2,1.9-2.7l-29-79.7c-0.5-1.5-2.2-2.7-3.8-2.7h-79.4c-1.6,0-2.4,1.2-1.9,2.7l29,79.7
			c0.5,1.5,2.2,2.7,3.8,2.7H211z"/>
		<path class="st1" d="M211-276.4c1.6,0,2.4,1.2,1.9,2.7l-29,79.7c-0.5,1.5-2.2,2.7-3.8,2.7h-79.4c-1.6,0-2.4-1.2-1.9-2.7l29-79.7
			c0.5-1.5,2.2-2.7,3.8-2.7H211z"/>
		<path class="st2" d="M211-284.9c1.6,0,2.4-1.2,1.9-2.7l-29-79.7c-0.5-1.5-2.2-2.7-3.8-2.7h-79.4c-1.6,0-2.4,1.2-1.9,2.7l29,79.7
			c0.5,1.5,2.2,2.7,3.8,2.7H211z"/>
		<path class="st1" d="M211-89.3c1.6,0,2.4,1.2,1.9,2.7l-29,79.7c-0.5,1.5-2.2,2.7-3.8,2.7h-79.4c-1.6,0-2.4-1.2-1.9-2.7l29-79.7
			c0.5-1.5,2.2-2.7,3.8-2.7H211z"/>
		<path class="st2" d="M211-97.8c1.6,0,2.4-1.2,1.9-2.7l-29-79.7c-0.5-1.5-2.2-2.7-3.8-2.7h-79.4c-1.6,0-2.4,1.2-1.9,2.7l29,79.7
			c0.5,1.5,2.2,2.7,3.8,2.7H211z"/>
		<path class="st1" d="M117.4-89.3c1.6,0,2.4,1.2,1.9,2.7l-29,79.7c-0.5,1.5-2.2,2.7-3.8,2.7H7.1c-1.6,0-2.4-1.2-1.9-2.7l29-79.7
			c0.5-1.5,2.2-2.7,3.8-2.7H117.4z"/>
		<path class="st2" d="M117.4-97.8c1.6,0,2.4-1.2,1.9-2.7l-29-79.7c-0.5-1.5-2.2-2.7-3.8-2.7H7.1c-1.6,0-2.4,1.2-1.9,2.7l29,79.7
			c0.5,1.5,2.2,2.7,3.8,2.7H117.4z"/>
		<path class="st1" d="M304.5-89.3c1.6,0,2.4,1.2,1.9,2.7l-29,79.7c-0.5,1.5-2.2,2.7-3.8,2.7h-79.4c-1.6,0-2.4-1.2-1.9-2.7l29-79.7
			c0.5-1.5,2.2-2.7,3.8-2.7H304.5z"/>
		<path class="st2" d="M304.5-97.8c1.6,0,2.4-1.2,1.9-2.7l-29-79.7c-0.5-1.5-2.2-2.7-3.8-2.7h-79.4c-1.6,0-2.4,1.2-1.9,2.7l29,79.7
			c0.5,1.5,2.2,2.7,3.8,2.7H304.5z"/>
		<path class="st1" d="M304.5-650.6c1.6,0,2.4,1.2,1.9,2.7l-29,79.7c-0.5,1.5-2.2,2.7-3.8,2.7h-79.4c-1.6,0-2.4-1.2-1.9-2.7l29-79.7
			c0.5-1.5,2.2-2.7,3.8-2.7H304.5z"/>
		<path class="st2" d="M304.5-659.1c1.6,0,2.4-1.2,1.9-2.7l-29-79.7c-0.5-1.5-2.2-2.7-3.8-2.7h-79.4c-1.6,0-2.4,1.2-1.9,2.7l29,79.7
			c0.5,1.5,2.2,2.7,3.8,2.7H304.5z"/>
		<path class="st1" d="M304.5-463.5c1.6,0,2.4,1.2,1.9,2.7l-29,79.7c-0.5,1.5-2.2,2.7-3.8,2.7h-79.4c-1.6,0-2.4-1.2-1.9-2.7l29-79.7
			c0.5-1.5,2.2-2.7,3.8-2.7H304.5z"/>
		<path class="st2" d="M304.5-472c1.6,0,2.4-1.2,1.9-2.7l-29-79.7c-0.5-1.5-2.2-2.7-3.8-2.7h-79.4c-1.6,0-2.4,1.2-1.9,2.7l29,79.7
			c0.5,1.5,2.2,2.7,3.8,2.7H304.5z"/>
		<path class="st1" d="M1363.7-276.4c1.6,0,2.4,1.2,1.9,2.7l-29,79.7c-0.5,1.5-2.2,2.7-3.8,2.7h-79.4c-1.6,0-2.4-1.2-1.9-2.7
			l29-79.7c0.5-1.5,2.2-2.7,3.8-2.7H1363.7z"/>
		<path class="st2" d="M1363.7-284.9c1.6,0,2.4-1.2,1.9-2.7l-29-79.7c-0.5-1.5-2.2-2.7-3.8-2.7h-79.4c-1.6,0-2.4,1.2-1.9,2.7
			l29,79.7c0.5,1.5,2.2,2.7,3.8,2.7H1363.7z"/>
		<path class="st1" d="M1363.7-89.3c1.6,0,2.4,1.2,1.9,2.7l-29,79.7c-0.5,1.5-2.2,2.7-3.8,2.7h-79.4c-1.6,0-2.4-1.2-1.9-2.7l29-79.7
			c0.5-1.5,2.2-2.7,3.8-2.7H1363.7z"/>
		<path class="st2" d="M1363.7-97.8c1.6,0,2.4-1.2,1.9-2.7l-29-79.7c-0.5-1.5-2.2-2.7-3.8-2.7h-79.4c-1.6,0-2.4,1.2-1.9,2.7l29,79.7
			c0.5,1.5,2.2,2.7,3.8,2.7H1363.7z"/>
		<path class="st1" d="M1457.3-276.4c1.6,0,2.4,1.2,1.9,2.7l-29,79.7c-0.5,1.5-2.2,2.7-3.8,2.7H1347c-1.6,0-2.4-1.2-1.9-2.7l29-79.7
			c0.5-1.5,2.2-2.7,3.8-2.7H1457.3z"/>
		<path class="st1" d="M1457.3-463.5c1.6,0,2.4,1.2,1.9,2.7l-29,79.7c-0.5,1.5-2.2,2.7-3.8,2.7H1347c-1.6,0-2.4-1.2-1.9-2.7l29-79.7
			c0.5-1.5,2.2-2.7,3.8-2.7H1457.3z"/>
		<path class="st2" d="M1457.3-284.9c1.6,0,2.4-1.2,1.9-2.7l-29-79.7c-0.5-1.5-2.2-2.7-3.8-2.7H1347c-1.6,0-2.4,1.2-1.9,2.7l29,79.7
			c0.5,1.5,2.2,2.7,3.8,2.7H1457.3z"/>
		<path class="st1" d="M1457.3-89.3c1.6,0,2.4,1.2,1.9,2.7l-29,79.7c-0.5,1.5-2.2,2.7-3.8,2.7H1347c-1.6,0-2.4-1.2-1.9-2.7l29-79.7
			c0.5-1.5,2.2-2.7,3.8-2.7H1457.3z"/>
		<path class="st2" d="M1457.3-97.8c1.6,0,2.4-1.2,1.9-2.7l-29-79.7c-0.5-1.5-2.2-2.7-3.8-2.7H1347c-1.6,0-2.4,1.2-1.9,2.7l29,79.7
			c0.5,1.5,2.2,2.7,3.8,2.7H1457.3z"/>
		<path class="st1" d="M1550.8-276.4c1.6,0,2.4,1.2,1.9,2.7l-29,79.7c-0.5,1.5-2.2,2.7-3.8,2.7h-79.4c-1.6,0-2.4-1.2-1.9-2.7
			l29-79.7c0.5-1.5,2.2-2.7,3.8-2.7H1550.8z"/>
		<path class="st2" d="M1550.8-284.9c1.6,0,2.4-1.2,1.9-2.7l-29-79.7c-0.5-1.5-2.2-2.7-3.8-2.7h-79.4c-1.6,0-2.4,1.2-1.9,2.7
			l29,79.7c0.5,1.5,2.2,2.7,3.8,2.7H1550.8z"/>
		<path class="st1" d="M1550.8-89.3c1.6,0,2.4,1.2,1.9,2.7l-29,79.7c-0.5,1.5-2.2,2.7-3.8,2.7h-79.4c-1.6,0-2.4-1.2-1.9-2.7l29-79.7
			c0.5-1.5,2.2-2.7,3.8-2.7H1550.8z"/>
		<path class="st2" d="M1550.8-97.8c1.6,0,2.4-1.2,1.9-2.7l-29-79.7c-0.5-1.5-2.2-2.7-3.8-2.7h-79.4c-1.6,0-2.4,1.2-1.9,2.7l29,79.7
			c0.5,1.5,2.2,2.7,3.8,2.7H1550.8z"/>
		<path class="st1" d="M1675.3-1118.3c1.6,0,2.4,1.2,1.9,2.7l-29,79.7c-0.5,1.5-2.2,2.7-3.8,2.7H1565c-1.6,0-2.4-1.2-1.9-2.7
			l29-79.7c0.5-1.5,2.2-2.7,3.8-2.7H1675.3z"/>
		<path class="st1" d="M1768.9-1118.3c1.6,0,2.4,1.2,1.9,2.7l-29,79.7c-0.5,1.5-2.2,2.7-3.8,2.7h-79.4c-1.6,0-2.4-1.2-1.9-2.7
			l29-79.7c0.5-1.5,2.2-2.7,3.8-2.7H1768.9z"/>
		<path class="st1" d="M1768.9-931.2c1.6,0,2.4,1.2,1.9,2.7l-29,79.7c-0.5,1.5-2.2,2.7-3.8,2.7h-79.4c-1.6,0-2.4-1.2-1.9-2.7
			l29-79.7c0.5-1.5,2.2-2.7,3.8-2.7H1768.9z"/>
		<path class="st2" d="M1768.9-939.7c1.6,0,2.4-1.2,1.9-2.7l-29-79.7c-0.5-1.5-2.2-2.7-3.8-2.7h-79.4c-1.6,0-2.4,1.2-1.9,2.7
			l29,79.7c0.5,1.5,2.2,2.7,3.8,2.7H1768.9z"/>
		<path class="st1" d="M1768.9-744.1c1.6,0,2.4,1.2,1.9,2.7l-29,79.7c-0.5,1.5-2.2,2.7-3.8,2.7h-79.4c-1.6,0-2.4-1.2-1.9-2.7
			l29-79.7c0.5-1.5,2.2-2.7,3.8-2.7H1768.9z"/>
		<path class="st2" d="M1768.9-752.6c1.6,0,2.4-1.2,1.9-2.7l-29-79.7c-0.5-1.5-2.2-2.7-3.8-2.7h-79.4c-1.6,0-2.4,1.2-1.9,2.7
			l29,79.7c0.5,1.5,2.2,2.7,3.8,2.7H1768.9z"/>
		<path class="st1" d="M1768.9-557c1.6,0,2.4,1.2,1.9,2.7l-29,79.7c-0.5,1.5-2.2,2.7-3.8,2.7h-79.4c-1.6,0-2.4-1.2-1.9-2.7l29-79.7
			c0.5-1.5,2.2-2.7,3.8-2.7H1768.9z"/>
		<path class="st2" d="M1768.9-565.5c1.6,0,2.4-1.2,1.9-2.7l-29-79.7c-0.5-1.5-2.2-2.7-3.8-2.7h-79.4c-1.6,0-2.4,1.2-1.9,2.7
			l29,79.7c0.5,1.5,2.2,2.7,3.8,2.7H1768.9z"/>
		<path class="st1" d="M1675.3-744.1c1.6,0,2.4,1.2,1.9,2.7l-29,79.7c-0.5,1.5-2.2,2.7-3.8,2.7H1565c-1.6,0-2.4-1.2-1.9-2.7l29-79.7
			c0.5-1.5,2.2-2.7,3.8-2.7H1675.3z"/>
		<path class="st2" d="M1675.3-752.6c1.6,0,2.4-1.2,1.9-2.7l-29-79.7c-0.5-1.5-2.2-2.7-3.8-2.7H1565c-1.6,0-2.4,1.2-1.9,2.7l29,79.7
			c0.5,1.5,2.2,2.7,3.8,2.7H1675.3z"/>
		<path class="st1" d="M1675.3-557c1.6,0,2.4,1.2,1.9,2.7l-29,79.7c-0.5,1.5-2.2,2.7-3.8,2.7H1565c-1.6,0-2.4-1.2-1.9-2.7l29-79.7
			c0.5-1.5,2.2-2.7,3.8-2.7H1675.3z"/>
		<path class="st2" d="M1675.3-565.5c1.6,0,2.4-1.2,1.9-2.7l-29-79.7c-0.5-1.5-2.2-2.7-3.8-2.7H1565c-1.6,0-2.4,1.2-1.9,2.7l29,79.7
			c0.5,1.5,2.2,2.7,3.8,2.7H1675.3z"/>
		<path class="st1" d="M1862.4-744.1c1.6,0,2.4,1.2,1.9,2.7l-29,79.7c-0.5,1.5-2.2,2.7-3.8,2.7h-79.4c-1.6,0-2.4-1.2-1.9-2.7
			l29-79.7c0.5-1.5,2.2-2.7,3.8-2.7H1862.4z"/>
		<path class="st2" d="M1862.4-752.6c1.6,0,2.4-1.2,1.9-2.7l-29-79.7c-0.5-1.5-2.2-2.7-3.8-2.7h-79.4c-1.6,0-2.4,1.2-1.9,2.7
			l29,79.7c0.5,1.5,2.2,2.7,3.8,2.7H1862.4z"/>
		<path class="st1" d="M1862.4-557c1.6,0,2.4,1.2,1.9,2.7l-29,79.7c-0.5,1.5-2.2,2.7-3.8,2.7h-79.4c-1.6,0-2.4-1.2-1.9-2.7l29-79.7
			c0.5-1.5,2.2-2.7,3.8-2.7H1862.4z"/>
		<path class="st2" d="M1862.4-565.5c1.6,0,2.4-1.2,1.9-2.7l-29-79.7c-0.5-1.5-2.2-2.7-3.8-2.7h-79.4c-1.6,0-2.4,1.2-1.9,2.7
			l29,79.7c0.5,1.5,2.2,2.7,3.8,2.7H1862.4z"/>
		<path class="st2" d="M1768.9-378.4c1.6,0,2.4-1.2,1.9-2.7l-29-79.7c-0.5-1.5-2.2-2.7-3.8-2.7h-79.4c-1.6,0-2.4,1.2-1.9,2.7
			l29,79.7c0.5,1.5,2.2,2.7,3.8,2.7H1768.9z"/>
		<path class="st1" d="M1862.4-1118.3c1.6,0,2.4,1.2,1.9,2.7l-29,79.7c-0.5,1.5-2.2,2.7-3.8,2.7h-79.4c-1.6,0-2.4-1.2-1.9-2.7
			l29-79.7c0.5-1.5,2.2-2.7,3.8-2.7H1862.4z"/>
		<path class="st1" d="M1457.3-1024.7c1.6,0,2.4,1.2,1.9,2.7l-29,79.7c-0.5,1.5-2.2,2.7-3.8,2.7H1347c-1.6,0-2.4-1.2-1.9-2.7
			l29-79.7c0.5-1.5,2.2-2.7,3.8-2.7H1457.3z"/>
		<path class="st2" d="M1457.3-1033.2c1.6,0,2.4-1.2,1.9-2.7l-29-79.7c-0.5-1.5-2.2-2.7-3.8-2.7H1347c-1.6,0-2.4,1.2-1.9,2.7
			l29,79.7c0.5,1.5,2.2,2.7,3.8,2.7H1457.3z"/>
		<path class="st1" d="M1457.3-837.6c1.6,0,2.4,1.2,1.9,2.7l-29,79.7c-0.5,1.5-2.2,2.7-3.8,2.7H1347c-1.6,0-2.4-1.2-1.9-2.7l29-79.7
			c0.5-1.5,2.2-2.7,3.8-2.7H1457.3z"/>
		<path class="st2" d="M1457.3-846.1c1.6,0,2.4-1.2,1.9-2.7l-29-79.7c-0.5-1.5-2.2-2.7-3.8-2.7H1347c-1.6,0-2.4,1.2-1.9,2.7l29,79.7
			c0.5,1.5,2.2,2.7,3.8,2.7H1457.3z"/>
		<path class="st1" d="M1457.3-650.6c1.6,0,2.4,1.2,1.9,2.7l-29,79.7c-0.5,1.5-2.2,2.7-3.8,2.7H1347c-1.6,0-2.4-1.2-1.9-2.7l29-79.7
			c0.5-1.5,2.2-2.7,3.8-2.7H1457.3z"/>
		<path class="st2" d="M1457.3-659.1c1.6,0,2.4-1.2,1.9-2.7l-29-79.7c-0.5-1.5-2.2-2.7-3.8-2.7H1347c-1.6,0-2.4,1.2-1.9,2.7l29,79.7
			c0.5,1.5,2.2,2.7,3.8,2.7H1457.3z"/>
		<path class="st1" d="M1363.7-837.6c1.6,0,2.4,1.2,1.9,2.7l-29,79.7c-0.5,1.5-2.2,2.7-3.8,2.7h-79.4c-1.6,0-2.4-1.2-1.9-2.7
			l29-79.7c0.5-1.5,2.2-2.7,3.8-2.7H1363.7z"/>
		<path class="st2" d="M1363.7-846.1c1.6,0,2.4-1.2,1.9-2.7l-29-79.7c-0.5-1.5-2.2-2.7-3.8-2.7h-79.4c-1.6,0-2.4,1.2-1.9,2.7
			l29,79.7c0.5,1.5,2.2,2.7,3.8,2.7H1363.7z"/>
		<path class="st1" d="M1363.7-650.6c1.6,0,2.4,1.2,1.9,2.7l-29,79.7c-0.5,1.5-2.2,2.7-3.8,2.7h-79.4c-1.6,0-2.4-1.2-1.9-2.7
			l29-79.7c0.5-1.5,2.2-2.7,3.8-2.7H1363.7z"/>
		<path class="st2" d="M1363.7-659.1c1.6,0,2.4-1.2,1.9-2.7l-29-79.7c-0.5-1.5-2.2-2.7-3.8-2.7h-79.4c-1.6,0-2.4,1.2-1.9,2.7
			l29,79.7c0.5,1.5,2.2,2.7,3.8,2.7H1363.7z"/>
		<path class="st1" d="M1550.8-837.6c1.6,0,2.4,1.2,1.9,2.7l-29,79.7c-0.5,1.5-2.2,2.7-3.8,2.7h-79.4c-1.6,0-2.4-1.2-1.9-2.7
			l29-79.7c0.5-1.5,2.2-2.7,3.8-2.7H1550.8z"/>
		<path class="st2" d="M1550.8-846.1c1.6,0,2.4-1.2,1.9-2.7l-29-79.7c-0.5-1.5-2.2-2.7-3.8-2.7h-79.4c-1.6,0-2.4,1.2-1.9,2.7
			l29,79.7c0.5,1.5,2.2,2.7,3.8,2.7H1550.8z"/>
		<path class="st1" d="M1550.8-650.6c1.6,0,2.4,1.2,1.9,2.7l-29,79.7c-0.5,1.5-2.2,2.7-3.8,2.7h-79.4c-1.6,0-2.4-1.2-1.9-2.7
			l29-79.7c0.5-1.5,2.2-2.7,3.8-2.7H1550.8z"/>
		<path class="st2" d="M1550.8-659.1c1.6,0,2.4-1.2,1.9-2.7l-29-79.7c-0.5-1.5-2.2-2.7-3.8-2.7h-79.4c-1.6,0-2.4,1.2-1.9,2.7
			l29,79.7c0.5,1.5,2.2,2.7,3.8,2.7H1550.8z"/>
		<path class="st2" d="M1457.3-472c1.6,0,2.4-1.2,1.9-2.7l-29-79.7c-0.5-1.5-2.2-2.7-3.8-2.7H1347c-1.6,0-2.4,1.2-1.9,2.7l29,79.7
			c0.5,1.5,2.2,2.7,3.8,2.7H1457.3z"/>
		<path class="st1" d="M1145.7-1118.3c1.6,0,2.4,1.2,1.9,2.7l-29,79.7c-0.5,1.5-2.2,2.7-3.8,2.7h-79.4c-1.6,0-2.4-1.2-1.9-2.7
			l29-79.7c0.5-1.5,2.2-2.7,3.8-2.7H1145.7z"/>
		<path class="st1" d="M1145.7-931.2c1.6,0,2.4,1.2,1.9,2.7l-29,79.7c-0.5,1.5-2.2,2.7-3.8,2.7h-79.4c-1.6,0-2.4-1.2-1.9-2.7
			l29-79.7c0.5-1.5,2.2-2.7,3.8-2.7H1145.7z"/>
		<path class="st2" d="M1145.7-939.7c1.6,0,2.4-1.2,1.9-2.7l-29-79.7c-0.5-1.5-2.2-2.7-3.8-2.7h-79.4c-1.6,0-2.4,1.2-1.9,2.7
			l29,79.7c0.5,1.5,2.2,2.7,3.8,2.7H1145.7z"/>
		<path class="st1" d="M1145.7-744.1c1.6,0,2.4,1.2,1.9,2.7l-29,79.7c-0.5,1.5-2.2,2.7-3.8,2.7h-79.4c-1.6,0-2.4-1.2-1.9-2.7
			l29-79.7c0.5-1.5,2.2-2.7,3.8-2.7H1145.7z"/>
		<path class="st2" d="M1145.7-752.6c1.6,0,2.4-1.2,1.9-2.7l-29-79.7c-0.5-1.5-2.2-2.7-3.8-2.7h-79.4c-1.6,0-2.4,1.2-1.9,2.7
			l29,79.7c0.5,1.5,2.2,2.7,3.8,2.7H1145.7z"/>
		<path class="st1" d="M1052.2-931.2c1.6,0,2.4,1.2,1.9,2.7l-29,79.7c-0.5,1.5-2.2,2.7-3.8,2.7h-79.4c-1.6,0-2.4-1.2-1.9-2.7
			l29-79.7c0.5-1.5,2.2-2.7,3.8-2.7H1052.2z"/>
		<path class="st2" d="M1052.2-939.7c1.6,0,2.4-1.2,1.9-2.7l-29-79.7c-0.5-1.5-2.2-2.7-3.8-2.7h-79.4c-1.6,0-2.4,1.2-1.9,2.7
			l29,79.7c0.5,1.5,2.2,2.7,3.8,2.7H1052.2z"/>
		<path class="st1" d="M1052.2-744.1c1.6,0,2.4,1.2,1.9,2.7l-29,79.7c-0.5,1.5-2.2,2.7-3.8,2.7h-79.4c-1.6,0-2.4-1.2-1.9-2.7
			l29-79.7c0.5-1.5,2.2-2.7,3.8-2.7H1052.2z"/>
		<path class="st2" d="M1052.2-752.6c1.6,0,2.4-1.2,1.9-2.7l-29-79.7c-0.5-1.5-2.2-2.7-3.8-2.7h-79.4c-1.6,0-2.4,1.2-1.9,2.7
			l29,79.7c0.5,1.5,2.2,2.7,3.8,2.7H1052.2z"/>
		<path class="st1" d="M1239.2-931.2c1.6,0,2.4,1.2,1.9,2.7l-29,79.7c-0.5,1.5-2.2,2.7-3.8,2.7h-79.4c-1.6,0-2.4-1.2-1.9-2.7
			l29-79.7c0.5-1.5,2.2-2.7,3.8-2.7H1239.2z"/>
		<path class="st2" d="M1239.2-939.7c1.6,0,2.4-1.2,1.9-2.7l-29-79.7c-0.5-1.5-2.2-2.7-3.8-2.7h-79.4c-1.6,0-2.4,1.2-1.9,2.7
			l29,79.7c0.5,1.5,2.2,2.7,3.8,2.7H1239.2z"/>
		<path class="st1" d="M1239.2-744.1c1.6,0,2.4,1.2,1.9,2.7l-29,79.7c-0.5,1.5-2.2,2.7-3.8,2.7h-79.4c-1.6,0-2.4-1.2-1.9-2.7
			l29-79.7c0.5-1.5,2.2-2.7,3.8-2.7H1239.2z"/>
		<path class="st2" d="M1239.2-752.6c1.6,0,2.4-1.2,1.9-2.7l-29-79.7c-0.5-1.5-2.2-2.7-3.8-2.7h-79.4c-1.6,0-2.4,1.2-1.9,2.7
			l29,79.7c0.5,1.5,2.2,2.7,3.8,2.7H1239.2z"/>
		<path class="st2" d="M1145.7-565.5c1.6,0,2.4-1.2,1.9-2.7l-29-79.7c-0.5-1.5-2.2-2.7-3.8-2.7h-79.4c-1.6,0-2.4,1.2-1.9,2.7
			l29,79.7c0.5,1.5,2.2,2.7,3.8,2.7H1145.7z"/>
		<path class="st1" d="M834.1-1024.7c1.6,0,2.4,1.2,1.9,2.7l-29,79.7c-0.5,1.5-2.2,2.7-3.8,2.7h-79.4c-1.6,0-2.4-1.2-1.9-2.7
			l29-79.7c0.5-1.5,2.2-2.7,3.8-2.7H834.1z"/>
		<path class="st2" d="M834.1-1033.2c1.6,0,2.4-1.2,1.9-2.7l-29-79.7c-0.5-1.5-2.2-2.7-3.8-2.7h-79.4c-1.6,0-2.4,1.2-1.9,2.7
			l29,79.7c0.5,1.5,2.2,2.7,3.8,2.7H834.1z"/>
		<path class="st1" d="M834.1-837.6c1.6,0,2.4,1.2,1.9,2.7l-29,79.7c-0.5,1.5-2.2,2.7-3.8,2.7h-79.4c-1.6,0-2.4-1.2-1.9-2.7l29-79.7
			c0.5-1.5,2.2-2.7,3.8-2.7H834.1z"/>
		<path class="st2" d="M834.1-846.1c1.6,0,2.4-1.2,1.9-2.7l-29-79.7c-0.5-1.5-2.2-2.7-3.8-2.7h-79.4c-1.6,0-2.4,1.2-1.9,2.7l29,79.7
			c0.5,1.5,2.2,2.7,3.8,2.7H834.1z"/>
		<path class="st1" d="M740.6-1024.7c1.6,0,2.4,1.2,1.9,2.7l-29,79.7c-0.5,1.5-2.2,2.7-3.8,2.7h-79.4c-1.6,0-2.4-1.2-1.9-2.7
			l29-79.7c0.5-1.5,2.2-2.7,3.8-2.7H740.6z"/>
		<path class="st2" d="M740.6-1033.2c1.6,0,2.4-1.2,1.9-2.7l-29-79.7c-0.5-1.5-2.2-2.7-3.8-2.7h-79.4c-1.6,0-2.4,1.2-1.9,2.7
			l29,79.7c0.5,1.5,2.2,2.7,3.8,2.7H740.6z"/>
		<path class="st1" d="M740.6-837.6c1.6,0,2.4,1.2,1.9,2.7l-29,79.7c-0.5,1.5-2.2,2.7-3.8,2.7h-79.4c-1.6,0-2.4-1.2-1.9-2.7l29-79.7
			c0.5-1.5,2.2-2.7,3.8-2.7H740.6z"/>
		<path class="st2" d="M740.6-846.1c1.6,0,2.4-1.2,1.9-2.7l-29-79.7c-0.5-1.5-2.2-2.7-3.8-2.7h-79.4c-1.6,0-2.4,1.2-1.9,2.7l29,79.7
			c0.5,1.5,2.2,2.7,3.8,2.7H740.6z"/>
		<path class="st1" d="M927.7-1024.7c1.6,0,2.4,1.2,1.9,2.7l-29,79.7c-0.5,1.5-2.2,2.7-3.8,2.7h-79.4c-1.6,0-2.4-1.2-1.9-2.7
			l29-79.7c0.5-1.5,2.2-2.7,3.8-2.7H927.7z"/>
		<path class="st2" d="M927.7-1033.2c1.6,0,2.4-1.2,1.9-2.7l-29-79.7c-0.5-1.5-2.2-2.7-3.8-2.7h-79.4c-1.6,0-2.4,1.2-1.9,2.7
			l29,79.7c0.5,1.5,2.2,2.7,3.8,2.7H927.7z"/>
		<path class="st1" d="M927.7-837.6c1.6,0,2.4,1.2,1.9,2.7l-29,79.7c-0.5,1.5-2.2,2.7-3.8,2.7h-79.4c-1.6,0-2.4-1.2-1.9-2.7l29-79.7
			c0.5-1.5,2.2-2.7,3.8-2.7H927.7z"/>
		<path class="st2" d="M927.7-846.1c1.6,0,2.4-1.2,1.9-2.7l-29-79.7c-0.5-1.5-2.2-2.7-3.8-2.7h-79.4c-1.6,0-2.4,1.2-1.9,2.7l29,79.7
			c0.5,1.5,2.2,2.7,3.8,2.7H927.7z"/>
		<path class="st2" d="M834.1-659.1c1.6,0,2.4-1.2,1.9-2.7l-29-79.7c-0.5-1.5-2.2-2.7-3.8-2.7h-79.4c-1.6,0-2.4,1.2-1.9,2.7l29,79.7
			c0.5,1.5,2.2,2.7,3.8,2.7H834.1z"/>
		<path class="st1" d="M522.5-1118.3c1.6,0,2.4,1.2,1.9,2.7l-29,79.7c-0.5,1.5-2.2,2.7-3.8,2.7h-79.4c-1.6,0-2.4-1.2-1.9-2.7
			l29-79.7c0.5-1.5,2.2-2.7,3.8-2.7H522.5z"/>
		<path class="st1" d="M522.5-931.2c1.6,0,2.4,1.2,1.9,2.7l-29,79.7c-0.5,1.5-2.2,2.7-3.8,2.7h-79.4c-1.6,0-2.4-1.2-1.9-2.7l29-79.7
			c0.5-1.5,2.2-2.7,3.8-2.7H522.5z"/>
		<path class="st2" d="M522.5-939.7c1.6,0,2.4-1.2,1.9-2.7l-29-79.7c-0.5-1.5-2.2-2.7-3.8-2.7h-79.4c-1.6,0-2.4,1.2-1.9,2.7l29,79.7
			c0.5,1.5,2.2,2.7,3.8,2.7H522.5z"/>
		<path class="st1" d="M429-1118.3c1.6,0,2.4,1.2,1.9,2.7l-29,79.7c-0.5,1.5-2.2,2.7-3.8,2.7h-79.4c-1.6,0-2.4-1.2-1.9-2.7l29-79.7
			c0.5-1.5,2.2-2.7,3.8-2.7H429z"/>
		<path class="st1" d="M429-931.2c1.6,0,2.4,1.2,1.9,2.7l-29,79.7c-0.5,1.5-2.2,2.7-3.8,2.7h-79.4c-1.6,0-2.4-1.2-1.9-2.7l29-79.7
			c0.5-1.5,2.2-2.7,3.8-2.7H429z"/>
		<path class="st2" d="M429-939.7c1.6,0,2.4-1.2,1.9-2.7l-29-79.7c-0.5-1.5-2.2-2.7-3.8-2.7h-79.4c-1.6,0-2.4,1.2-1.9,2.7l29,79.7
			c0.5,1.5,2.2,2.7,3.8,2.7H429z"/>
		<path class="st1" d="M616.1-1118.3c1.6,0,2.4,1.2,1.9,2.7l-29,79.7c-0.5,1.5-2.2,2.7-3.8,2.7h-79.4c-1.6,0-2.4-1.2-1.9-2.7
			l29-79.7c0.5-1.5,2.2-2.7,3.8-2.7H616.1z"/>
		<path class="st1" d="M616.1-931.2c1.6,0,2.4,1.2,1.9,2.7l-29,79.7c-0.5,1.5-2.2,2.7-3.8,2.7h-79.4c-1.6,0-2.4-1.2-1.9-2.7l29-79.7
			c0.5-1.5,2.2-2.7,3.8-2.7H616.1z"/>
		<path class="st2" d="M616.1-939.7c1.6,0,2.4-1.2,1.9-2.7l-29-79.7c-0.5-1.5-2.2-2.7-3.8-2.7h-79.4c-1.6,0-2.4,1.2-1.9,2.7l29,79.7
			c0.5,1.5,2.2,2.7,3.8,2.7H616.1z"/>
		<path class="st2" d="M522.5-752.6c1.6,0,2.4-1.2,1.9-2.7l-29-79.7c-0.5-1.5-2.2-2.7-3.8-2.7h-79.4c-1.6,0-2.4,1.2-1.9,2.7l29,79.7
			c0.5,1.5,2.2,2.7,3.8,2.7H522.5z"/>
		<path class="st1" d="M211-1024.7c1.6,0,2.4,1.2,1.9,2.7l-29,79.7c-0.5,1.5-2.2,2.7-3.8,2.7h-79.4c-1.6,0-2.4-1.2-1.9-2.7l29-79.7
			c0.5-1.5,2.2-2.7,3.8-2.7H211z"/>
		<path class="st2" d="M211-1033.2c1.6,0,2.4-1.2,1.9-2.7l-29-79.7c-0.5-1.5-2.2-2.7-3.8-2.7h-79.4c-1.6,0-2.4,1.2-1.9,2.7l29,79.7
			c0.5,1.5,2.2,2.7,3.8,2.7H211z"/>
		<path class="st1" d="M117.4-1024.7c1.6,0,2.4,1.2,1.9,2.7l-29,79.7c-0.5,1.5-2.2,2.7-3.8,2.7H7.1c-1.6,0-2.4-1.2-1.9-2.7l29-79.7
			c0.5-1.5,2.2-2.7,3.8-2.7H117.4z"/>
		<path class="st2" d="M117.4-1033.2c1.6,0,2.4-1.2,1.9-2.7l-29-79.7c-0.5-1.5-2.2-2.7-3.8-2.7H7.1c-1.6,0-2.4,1.2-1.9,2.7l29,79.7
			c0.5,1.5,2.2,2.7,3.8,2.7H117.4z"/>
		<path class="st1" d="M304.5-1024.7c1.6,0,2.4,1.2,1.9,2.7l-29,79.7c-0.5,1.5-2.2,2.7-3.8,2.7h-79.4c-1.6,0-2.4-1.2-1.9-2.7
			l29-79.7c0.5-1.5,2.2-2.7,3.8-2.7H304.5z"/>
		<path class="st2" d="M304.5-1033.2c1.6,0,2.4-1.2,1.9-2.7l-29-79.7c-0.5-1.5-2.2-2.7-3.8-2.7h-79.4c-1.6,0-2.4,1.2-1.9,2.7
			l29,79.7c0.5,1.5,2.2,2.7,3.8,2.7H304.5z"/>
		<path class="st2" d="M211-846.1c1.6,0,2.4-1.2,1.9-2.7l-29-79.7c-0.5-1.5-2.2-2.7-3.8-2.7h-79.4c-1.6,0-2.4,1.2-1.9,2.7l29,79.7
			c0.5,1.5,2.2,2.7,3.8,2.7H211z"/>
		<path class="st1" d="M1457.3-1024.7c1.6,0,2.4,1.2,1.9,2.7l-29,79.7c-0.5,1.5-2.2,2.7-3.8,2.7H1347c-1.6,0-2.4-1.2-1.9-2.7
			l29-79.7c0.5-1.5,2.2-2.7,3.8-2.7H1457.3z"/>
		<path class="st2" d="M1457.3-1033.2c1.6,0,2.4-1.2,1.9-2.7l-29-79.7c-0.5-1.5-2.2-2.7-3.8-2.7H1347c-1.6,0-2.4,1.2-1.9,2.7
			l29,79.7c0.5,1.5,2.2,2.7,3.8,2.7H1457.3z"/>
		<path class="st1" d="M1457.3-837.6c1.6,0,2.4,1.2,1.9,2.7l-29,79.7c-0.5,1.5-2.2,2.7-3.8,2.7H1347c-1.6,0-2.4-1.2-1.9-2.7l29-79.7
			c0.5-1.5,2.2-2.7,3.8-2.7H1457.3z"/>
		<path class="st2" d="M1457.3-846.1c1.6,0,2.4-1.2,1.9-2.7l-29-79.7c-0.5-1.5-2.2-2.7-3.8-2.7H1347c-1.6,0-2.4,1.2-1.9,2.7l29,79.7
			c0.5,1.5,2.2,2.7,3.8,2.7H1457.3z"/>
		<path class="st1" d="M1457.3-650.6c1.6,0,2.4,1.2,1.9,2.7l-29,79.7c-0.5,1.5-2.2,2.7-3.8,2.7H1347c-1.6,0-2.4-1.2-1.9-2.7l29-79.7
			c0.5-1.5,2.2-2.7,3.8-2.7H1457.3z"/>
		<path class="st2" d="M1457.3-659.1c1.6,0,2.4-1.2,1.9-2.7l-29-79.7c-0.5-1.5-2.2-2.7-3.8-2.7H1347c-1.6,0-2.4,1.2-1.9,2.7l29,79.7
			c0.5,1.5,2.2,2.7,3.8,2.7H1457.3z"/>
		<path class="st1" d="M1363.7-837.6c1.6,0,2.4,1.2,1.9,2.7l-29,79.7c-0.5,1.5-2.2,2.7-3.8,2.7h-79.4c-1.6,0-2.4-1.2-1.9-2.7
			l29-79.7c0.5-1.5,2.2-2.7,3.8-2.7H1363.7z"/>
		<path class="st2" d="M1363.7-846.1c1.6,0,2.4-1.2,1.9-2.7l-29-79.7c-0.5-1.5-2.2-2.7-3.8-2.7h-79.4c-1.6,0-2.4,1.2-1.9,2.7
			l29,79.7c0.5,1.5,2.2,2.7,3.8,2.7H1363.7z"/>
		<path class="st1" d="M1363.7-650.6c1.6,0,2.4,1.2,1.9,2.7l-29,79.7c-0.5,1.5-2.2,2.7-3.8,2.7h-79.4c-1.6,0-2.4-1.2-1.9-2.7
			l29-79.7c0.5-1.5,2.2-2.7,3.8-2.7H1363.7z"/>
		<path class="st2" d="M1363.7-659.1c1.6,0,2.4-1.2,1.9-2.7l-29-79.7c-0.5-1.5-2.2-2.7-3.8-2.7h-79.4c-1.6,0-2.4,1.2-1.9,2.7
			l29,79.7c0.5,1.5,2.2,2.7,3.8,2.7H1363.7z"/>
		<path class="st1" d="M1550.8-837.6c1.6,0,2.4,1.2,1.9,2.7l-29,79.7c-0.5,1.5-2.2,2.7-3.8,2.7h-79.4c-1.6,0-2.4-1.2-1.9-2.7
			l29-79.7c0.5-1.5,2.2-2.7,3.8-2.7H1550.8z"/>
		<path class="st2" d="M1550.8-846.1c1.6,0,2.4-1.2,1.9-2.7l-29-79.7c-0.5-1.5-2.2-2.7-3.8-2.7h-79.4c-1.6,0-2.4,1.2-1.9,2.7
			l29,79.7c0.5,1.5,2.2,2.7,3.8,2.7H1550.8z"/>
		<path class="st1" d="M1550.8-650.6c1.6,0,2.4,1.2,1.9,2.7l-29,79.7c-0.5,1.5-2.2,2.7-3.8,2.7h-79.4c-1.6,0-2.4-1.2-1.9-2.7
			l29-79.7c0.5-1.5,2.2-2.7,3.8-2.7H1550.8z"/>
		<path class="st2" d="M1550.8-659.1c1.6,0,2.4-1.2,1.9-2.7l-29-79.7c-0.5-1.5-2.2-2.7-3.8-2.7h-79.4c-1.6,0-2.4,1.2-1.9,2.7
			l29,79.7c0.5,1.5,2.2,2.7,3.8,2.7H1550.8z"/>
		<path class="st2" d="M1457.3-472c1.6,0,2.4-1.2,1.9-2.7l-29-79.7c-0.5-1.5-2.2-2.7-3.8-2.7H1347c-1.6,0-2.4,1.2-1.9,2.7l29,79.7
			c0.5,1.5,2.2,2.7,3.8,2.7H1457.3z"/>
	</g>
</pattern>
<g>
	<path class="st1" d="M469.3,6.6h-19.5c-0.4,0-0.8,0.3-0.9,0.7l-7.1,19.6c-0.1,0.4,0.1,0.7,0.5,0.7h19.5c0.4,0,0.8-0.3,0.9-0.7
		l7.1-19.6C469.9,6.8,469.7,6.6,469.3,6.6z"/>
	<path class="st2" d="M449.8,4.5h19.5c0.4,0,0.6-0.3,0.5-0.7L468.4,0h-20.9l1.4,3.8C449,4.2,449.4,4.5,449.8,4.5z"/>
	<path class="st2" d="M441.7,30.2l7.1,19.6c0.1,0.4,0.6,0.7,0.9,0.7h19.5c0.4,0,0.6-0.3,0.5-0.7l-7.1-19.6c-0.1-0.4-0.6-0.7-0.9-0.7
		h-19.5C441.8,29.6,441.5,29.9,441.7,30.2z"/>
	<path class="st1" d="M465.2,27.5h19.5c0.4,0,0.8-0.3,0.9-0.7l7.1-19.6c0.1-0.4-0.1-0.7-0.5-0.7h-19.5c-0.4,0-0.8,0.3-0.9,0.7
		l-7.1,19.6C464.6,27.2,464.8,27.5,465.2,27.5z"/>
	<path class="st2" d="M472.8,4.5h19.5c0.4,0,0.6-0.3,0.5-0.7L491.4,0h-20.9l1.4,3.8C472,4.2,472.4,4.5,472.8,4.5z"/>
	<path class="st2" d="M472.8,50.5h19.5c0.4,0,0.6-0.3,0.5-0.7l-7.1-19.6c-0.1-0.4-0.6-0.7-0.9-0.7h-19.5c-0.4,0-0.6,0.3-0.5,0.7
		l7.1,19.6C472,50.2,472.4,50.5,472.8,50.5z"/>
	<path class="st1" d="M494.9,7.2l-7.1,19.6c-0.1,0.4,0.1,0.7,0.5,0.7H500V6.6h-4.2C495.4,6.6,495,6.8,494.9,7.2z"/>
	<path class="st2" d="M493.5,0l1.4,3.8c0.1,0.4,0.6,0.7,0.9,0.7h4.2V0H493.5z"/>
	<path class="st2" d="M488.2,29.6c-0.4,0-0.6,0.3-0.5,0.7l7.1,19.6c0.1,0.4,0.6,0.7,0.9,0.7h4.2V29.6H488.2z"/>
	<path class="st1" d="M315.9,6.6h-19.5c-0.4,0-0.8,0.3-0.9,0.7l-7.1,19.6c-0.1,0.4,0.1,0.7,0.5,0.7h19.5c0.4,0,0.8-0.3,0.9-0.7
		l7.1-19.6C316.5,6.8,316.3,6.6,315.9,6.6z"/>
	<path class="st2" d="M296.4,4.5h19.5c0.4,0,0.6-0.3,0.5-0.7L315,0h-20.9l1.4,3.8C295.6,4.2,296,4.5,296.4,4.5z"/>
	<path class="st1" d="M311.8,27.5h19.5c0.4,0,0.8-0.3,0.9-0.7l7.1-19.6c0.1-0.4-0.1-0.7-0.5-0.7h-19.5c-0.4,0-0.8,0.3-0.9,0.7
		l-7.1,19.6C311.2,27.2,311.4,27.5,311.8,27.5z"/>
	<path class="st2" d="M319.4,4.5h19.5c0.4,0,0.6-0.3,0.5-0.7L338,0h-20.9l1.4,3.8C318.6,4.2,319,4.5,319.4,4.5z"/>
	<path class="st2" d="M339.4,49.9l-7.1-19.6c-0.1-0.4-0.6-0.7-0.9-0.7h-19.5c-0.4,0-0.6,0.3-0.5,0.7l7.1,19.6
		c0.1,0.4,0.6,0.7,0.9,0.7h19.5C339.3,50.5,339.5,50.2,339.4,49.9z"/>
	<path class="st1" d="M362,6.6h-19.5c-0.4,0-0.8,0.3-0.9,0.7l-7.1,19.6c-0.1,0.4,0.1,0.7,0.5,0.7h19.5c0.4,0,0.8-0.3,0.9-0.7
		l7.1-19.6C362.5,6.8,362.3,6.6,362,6.6z"/>
	<path class="st2" d="M341.5,3.8c0.1,0.4,0.6,0.7,0.9,0.7H362c0.4,0,0.6-0.3,0.5-0.7L361,0h-20.9L341.5,3.8z"/>
	<path class="st1" d="M212.1,4.5h19.5c0.4,0,0.8-0.3,0.9-0.7l1.4-3.8H213l-1.4,3.8C211.5,4.2,211.7,4.5,212.1,4.5z"/>
	<path class="st1" d="M235.1,4.5h19.5c0.4,0,0.8-0.3,0.9-0.7l1.4-3.8H236l-1.4,3.8C234.5,4.2,234.7,4.5,235.1,4.5z"/>
	<path class="st1" d="M262.2,29.6h-19.5c-0.4,0-0.8,0.3-0.9,0.7l-7.1,19.6c-0.1,0.4,0.1,0.7,0.5,0.7h19.5c0.4,0,0.8-0.3,0.9-0.7
		l7.1-19.6C262.8,29.9,262.6,29.6,262.2,29.6z"/>
	<path class="st2" d="M262.7,26.8l-7.1-19.6c-0.1-0.4-0.6-0.7-0.9-0.7h-19.5c-0.4,0-0.6,0.3-0.5,0.7l7.1,19.6
		c0.1,0.4,0.6,0.7,0.9,0.7h19.5C262.6,27.5,262.8,27.2,262.7,26.8z"/>
	<path class="st1" d="M257.7,3.8c-0.1,0.4,0.1,0.7,0.5,0.7h19.5c0.4,0,0.8-0.3,0.9-0.7L280,0H259L257.7,3.8z"/>
	<path class="st1" d="M158.4,27.5h19.5c0.4,0,0.8-0.3,0.9-0.7L186,7.2c0.1-0.4-0.1-0.7-0.5-0.7H166c-0.4,0-0.8,0.3-0.9,0.7
		l-7.1,19.6C157.8,27.2,158,27.5,158.4,27.5z"/>
	<path class="st2" d="M166,4.5h19.5c0.4,0,0.6-0.3,0.5-0.7L184.6,0h-20.9l1.4,3.8C165.2,4.2,165.6,4.5,166,4.5z"/>
	<path class="st2" d="M157.9,30.2l7.1,19.6c0.1,0.4,0.6,0.7,0.9,0.7h19.5c0.4,0,0.6-0.3,0.5-0.7l-7.1-19.6c-0.1-0.4-0.6-0.7-0.9-0.7
		h-19.5C158,29.6,157.8,29.9,157.9,30.2z"/>
	<path class="st2" d="M154.9,29.6h-19.5c-0.4,0-0.6,0.3-0.5,0.7l7.1,19.6c0.1,0.4,0.6,0.7,0.9,0.7h19.5c0.4,0,0.6-0.3,0.5-0.7
		l-7.1-19.6C155.7,29.9,155.3,29.6,154.9,29.6z"/>
	<path class="st2" d="M209,49.9l-7.1-19.6c-0.1-0.4-0.6-0.7-0.9-0.7h-19.5c-0.4,0-0.6,0.3-0.5,0.7l7.1,19.6c0.1,0.4,0.6,0.7,0.9,0.7
		h19.5C209,50.5,209.2,50.2,209,49.9z"/>
	<path class="st1" d="M81.7,4.5h19.5c0.4,0,0.8-0.3,0.9-0.7l1.4-3.8H82.6l-1.4,3.8C81.1,4.2,81.3,4.5,81.7,4.5z"/>
	<path class="st1" d="M108.9,29.6H89.3c-0.4,0-0.8,0.3-0.9,0.7l-7.1,19.6c-0.1,0.4,0.1,0.7,0.5,0.7h19.5c0.4,0,0.8-0.3,0.9-0.7
		l7.1-19.6C109.4,29.9,109.2,29.6,108.9,29.6z"/>
	<path class="st2" d="M109.3,26.8l-7.1-19.6c-0.1-0.4-0.6-0.7-0.9-0.7H81.7c-0.4,0-0.6,0.3-0.5,0.7l7.1,19.6
		c0.1,0.4,0.6,0.7,0.9,0.7h19.5C109.2,27.5,109.4,27.2,109.3,26.8z"/>
	<path class="st1" d="M58.7,50.5h19.5c0.4,0,0.8-0.3,0.9-0.7l7.1-19.6c0.1-0.4-0.1-0.7-0.5-0.7H66.3c-0.4,0-0.8,0.3-0.9,0.7
		l-7.1,19.6C58.1,50.2,58.3,50.5,58.7,50.5z"/>
	<path class="st2" d="M78.2,6.6H58.7c-0.4,0-0.6,0.3-0.5,0.7l7.1,19.6c0.1,0.4,0.6,0.7,0.9,0.7h19.5c0.4,0,0.6-0.3,0.5-0.7L79.2,7.2
		C79,6.8,78.6,6.6,78.2,6.6z"/>
	<path class="st1" d="M131.9,29.6h-19.5c-0.4,0-0.8,0.3-0.9,0.7l-7.1,19.6c-0.1,0.4,0.1,0.7,0.5,0.7h19.5c0.4,0,0.8-0.3,0.9-0.7
		l7.1-19.6C132.5,29.9,132.3,29.6,131.9,29.6z"/>
	<path class="st2" d="M132.3,26.8l-7.1-19.6c-0.1-0.4-0.6-0.7-0.9-0.7h-19.5c-0.4,0-0.6,0.3-0.5,0.7l7.1,19.6
		c0.1,0.4,0.6,0.7,0.9,0.7h19.5C132.3,27.5,132.5,27.2,132.3,26.8z"/>
	<path class="st1" d="M365.4,4.5H385c0.4,0,0.8-0.3,0.9-0.7l1.4-3.8h-20.9L365,3.8C364.9,4.2,365.1,4.5,365.4,4.5z"/>
	<path class="st1" d="M365.4,50.5H385c0.4,0,0.8-0.3,0.9-0.7l7.1-19.6c0.1-0.4-0.1-0.7-0.5-0.7h-19.5c-0.4,0-0.8,0.3-0.9,0.7
		L365,49.9C364.9,50.2,365.1,50.5,365.4,50.5z"/>
	<path class="st2" d="M385,6.6h-19.5c-0.4,0-0.6,0.3-0.5,0.7l7.1,19.6c0.1,0.4,0.6,0.7,0.9,0.7h19.5c0.4,0,0.6-0.3,0.5-0.7
		l-7.1-19.6C385.8,6.8,385.4,6.6,385,6.6z"/>
	<path class="st1" d="M388.5,4.5H408c0.4,0,0.8-0.3,0.9-0.7l1.4-3.8h-20.9L388,3.8C387.9,4.2,388.1,4.5,388.5,4.5z"/>
	<path class="st1" d="M415.6,29.6h-19.5c-0.4,0-0.8,0.3-0.9,0.7L388,49.9c-0.1,0.4,0.1,0.7,0.5,0.7H408c0.4,0,0.8-0.3,0.9-0.7
		l7.1-19.6C416.2,29.9,416,29.6,415.6,29.6z"/>
	<path class="st2" d="M395.2,26.8c0.1,0.4,0.6,0.7,0.9,0.7h19.5c0.4,0,0.6-0.3,0.5-0.7l-7.1-19.6c-0.1-0.4-0.6-0.7-0.9-0.7h-19.5
		c-0.4,0-0.6,0.3-0.5,0.7L395.2,26.8z"/>
	<path class="st1" d="M411,3.8c-0.1,0.4,0.1,0.7,0.5,0.7H431c0.4,0,0.8-0.3,0.9-0.7l1.4-3.8h-20.9L411,3.8z"/>
	<path class="st1" d="M438.7,29.6h-19.5c-0.4,0-0.8,0.3-0.9,0.7L411,49.9c-0.1,0.4,0.1,0.7,0.5,0.7H431c0.4,0,0.8-0.3,0.9-0.7
		l7.1-19.6C439.2,29.9,439,29.6,438.7,29.6z"/>
	<path class="st2" d="M439.1,26.8L432,7.2c-0.1-0.4-0.6-0.7-0.9-0.7h-19.5c-0.4,0-0.6,0.3-0.5,0.7l7.1,19.6c0.1,0.4,0.6,0.7,0.9,0.7
		h19.5C439,27.5,439.2,27.2,439.1,26.8z"/>
	<path class="st1" d="M185.6,144.7H166c-0.4,0-0.8,0.3-0.9,0.7l-1.7,4.6h20.9l1.7-4.6C186.1,145,185.9,144.7,185.6,144.7z"/>
	<path class="st2" d="M79.2,145.4c-0.1-0.4-0.6-0.7-0.9-0.7H58.7c-0.4,0-0.6,0.3-0.5,0.7l1.7,4.6h20.9L79.2,145.4z"/>
	<path class="st1" d="M108.9,121.7H89.3c-0.4,0-0.8,0.3-0.9,0.7l-7.1,19.6c-0.1,0.4,0.1,0.7,0.5,0.7h19.5c0.4,0,0.8-0.3,0.9-0.7
		l7.1-19.6C109.4,122,109.2,121.7,108.9,121.7z"/>
	<path class="st2" d="M101.2,144.7H81.7c-0.4,0-0.6,0.3-0.5,0.7l1.7,4.6h20.9l-1.7-4.6C102,145,101.6,144.7,101.2,144.7z"/>
	<path class="st2" d="M124.3,144.7h-19.5c-0.4,0-0.6,0.3-0.5,0.7l1.7,4.6h20.9l-1.7-4.6C125.1,145,124.6,144.7,124.3,144.7z"/>
	<path class="st1" d="M442.1,73.5h19.5c0.4,0,0.8-0.3,0.9-0.7l7.1-19.6c0.1-0.4-0.1-0.7-0.5-0.7h-19.5c-0.4,0-0.8,0.3-0.9,0.7
		l-7.1,19.6C441.5,73.2,441.8,73.5,442.1,73.5z"/>
	<path class="st1" d="M465.2,73.5h19.5c0.4,0,0.8-0.3,0.9-0.7l7.1-19.6c0.1-0.4-0.1-0.7-0.5-0.7h-19.5c-0.4,0-0.8,0.3-0.9,0.7
		l-7.1,19.6C464.6,73.2,464.8,73.5,465.2,73.5z"/>
	<path class="st1" d="M465.2,119.6h19.5c0.4,0,0.8-0.3,0.9-0.7l7.1-19.6c0.1-0.4-0.1-0.7-0.5-0.7h-19.5c-0.4,0-0.8,0.3-0.9,0.7
		l-7.1,19.6C464.6,119.3,464.8,119.6,465.2,119.6z"/>
	<path class="st2" d="M464.7,76.3l7.1,19.6c0.1,0.4,0.6,0.7,0.9,0.7h19.5c0.4,0,0.6-0.3,0.5-0.7l-7.1-19.6c-0.1-0.4-0.6-0.7-0.9-0.7
		h-19.5C464.8,75.6,464.6,75.9,464.7,76.3z"/>
	<path class="st1" d="M492.8,145.4c0.1-0.4-0.1-0.7-0.5-0.7h-19.5c-0.4,0-0.8,0.3-0.9,0.7l-1.7,4.6h20.9L492.8,145.4z"/>
	<path class="st2" d="M464.7,122.3l7.1,19.6c0.1,0.4,0.6,0.7,0.9,0.7h19.5c0.4,0,0.6-0.3,0.5-0.7l-7.1-19.6
		c-0.1-0.4-0.6-0.7-0.9-0.7h-19.5C464.8,121.7,464.6,122,464.7,122.3z"/>
	<path class="st1" d="M469.8,145.4c0.1-0.4-0.1-0.7-0.5-0.7h-19.5c-0.4,0-0.8,0.3-0.9,0.7l-1.7,4.6h20.9L469.8,145.4z"/>
	<path class="st2" d="M441.7,122.3l7.1,19.6c0.1,0.4,0.6,0.7,0.9,0.7h19.5c0.4,0,0.6-0.3,0.5-0.7l-7.1-19.6
		c-0.1-0.4-0.6-0.7-0.9-0.7h-19.5C441.8,121.7,441.5,122,441.7,122.3z"/>
	<path class="st1" d="M494.9,145.4l-1.7,4.6h6.8v-5.3h-4.2C495.4,144.7,495,145,494.9,145.4z"/>
	<path class="st2" d="M488.2,121.7c-0.4,0-0.6,0.3-0.5,0.7l7.1,19.6c0.1,0.4,0.6,0.7,0.9,0.7h4.2v-20.9H488.2z"/>
	<path class="st1" d="M494.9,53.3l-7.1,19.6c-0.1,0.4,0.1,0.7,0.5,0.7H500V52.6h-4.2C495.4,52.6,495,52.9,494.9,53.3z"/>
	<path class="st1" d="M338.9,52.6h-19.5c-0.4,0-0.8,0.3-0.9,0.7l-7.1,19.6c-0.1,0.4,0.1,0.7,0.5,0.7h19.5c0.4,0,0.8-0.3,0.9-0.7
		l7.1-19.6C339.5,52.9,339.3,52.6,338.9,52.6z"/>
	<path class="st1" d="M338.9,98.6h-19.5c-0.4,0-0.8,0.3-0.9,0.7l-7.1,19.6c-0.1,0.4,0.1,0.7,0.5,0.7h19.5c0.4,0,0.8-0.3,0.9-0.7
		l7.1-19.6C339.5,98.9,339.3,98.6,338.9,98.6z"/>
	<path class="st2" d="M339.4,95.9l-7.1-19.6c-0.1-0.4-0.6-0.7-0.9-0.7h-19.5c-0.4,0-0.6,0.3-0.5,0.7l7.1,19.6
		c0.1,0.4,0.6,0.7,0.9,0.7h19.5C339.3,96.6,339.5,96.3,339.4,95.9z"/>
	<path class="st1" d="M338.9,144.7h-19.5c-0.4,0-0.8,0.3-0.9,0.7l-1.7,4.6h20.9l1.7-4.6C339.5,145,339.3,144.7,338.9,144.7z"/>
	<path class="st2" d="M332.3,122.3c-0.1-0.4-0.6-0.7-0.9-0.7h-19.5c-0.4,0-0.6,0.3-0.5,0.7l7.1,19.6c0.1,0.4,0.6,0.7,0.9,0.7h19.5
		c0.4,0,0.6-0.3,0.5-0.7L332.3,122.3z"/>
	<path class="st1" d="M288.8,119.6h19.5c0.4,0,0.8-0.3,0.9-0.7l7.1-19.6c0.1-0.4-0.1-0.7-0.5-0.7h-19.5c-0.4,0-0.8,0.3-0.9,0.7
		l-7.1,19.6C288.2,119.3,288.4,119.6,288.8,119.6z"/>
	<path class="st2" d="M288.3,76.3l7.1,19.6c0.1,0.4,0.6,0.7,0.9,0.7h19.5c0.4,0,0.6-0.3,0.5-0.7l-7.1-19.6c-0.1-0.4-0.6-0.7-0.9-0.7
		h-19.5C288.4,75.6,288.2,75.9,288.3,76.3z"/>
	<path class="st1" d="M316.4,145.4c0.1-0.4-0.1-0.7-0.5-0.7h-19.5c-0.4,0-0.8,0.3-0.9,0.7l-1.7,4.6h20.9L316.4,145.4z"/>
	<path class="st2" d="M288.3,122.3l7.1,19.6c0.1,0.4,0.6,0.7,0.9,0.7h19.5c0.4,0,0.6-0.3,0.5-0.7l-7.1-19.6
		c-0.1-0.4-0.6-0.7-0.9-0.7h-19.5C288.4,121.7,288.2,122,288.3,122.3z"/>
	<path class="st1" d="M362,98.6h-19.5c-0.4,0-0.8,0.3-0.9,0.7l-7.1,19.6c-0.1,0.4,0.1,0.7,0.5,0.7h19.5c0.4,0,0.8-0.3,0.9-0.7
		l7.1-19.6C362.5,98.9,362.3,98.6,362,98.6z"/>
	<path class="st2" d="M362.4,95.9l-7.1-19.6c-0.1-0.4-0.6-0.7-0.9-0.7h-19.5c-0.4,0-0.6,0.3-0.5,0.7l7.1,19.6
		c0.1,0.4,0.6,0.7,0.9,0.7H362C362.3,96.6,362.5,96.3,362.4,95.9z"/>
	<path class="st1" d="M362,144.7h-19.5c-0.4,0-0.8,0.3-0.9,0.7l-1.7,4.6h20.9l1.7-4.6C362.5,145,362.3,144.7,362,144.7z"/>
	<path class="st2" d="M342.4,142.6H362c0.4,0,0.6-0.3,0.5-0.7l-7.1-19.6c-0.1-0.4-0.6-0.7-0.9-0.7h-19.5c-0.4,0-0.6,0.3-0.5,0.7
		l7.1,19.6C341.6,142.3,342,142.6,342.4,142.6z"/>
	<path class="st1" d="M262.2,75.6h-19.5c-0.4,0-0.8,0.3-0.9,0.7l-7.1,19.6c-0.1,0.4,0.1,0.7,0.5,0.7h19.5c0.4,0,0.8-0.3,0.9-0.7
		l7.1-19.6C262.8,75.9,262.6,75.6,262.2,75.6z"/>
	<path class="st2" d="M241.8,72.9c0.1,0.4,0.6,0.7,0.9,0.7h19.5c0.4,0,0.6-0.3,0.5-0.7l-7.1-19.6c-0.1-0.4-0.6-0.7-0.9-0.7h-19.5
		c-0.4,0-0.6,0.3-0.5,0.7L241.8,72.9z"/>
	<path class="st1" d="M235.1,142.6h19.5c0.4,0,0.8-0.3,0.9-0.7l7.1-19.6c0.1-0.4-0.1-0.7-0.5-0.7h-19.5c-0.4,0-0.8,0.3-0.9,0.7
		l-7.1,19.6C234.5,142.3,234.7,142.6,235.1,142.6z"/>
	<path class="st2" d="M254.6,98.6h-19.5c-0.4,0-0.6,0.3-0.5,0.7l7.1,19.6c0.1,0.4,0.6,0.7,0.9,0.7h19.5c0.4,0,0.6-0.3,0.5-0.7
		l-7.1-19.6C255.4,98.9,255,98.6,254.6,98.6z"/>
	<path class="st1" d="M212.1,96.6h19.5c0.4,0,0.8-0.3,0.9-0.7l7.1-19.6c0.1-0.4-0.1-0.7-0.5-0.7h-19.5c-0.4,0-0.8,0.3-0.9,0.7
		l-7.1,19.6C211.5,96.3,211.7,96.6,212.1,96.6z"/>
	<path class="st2" d="M231.6,52.6h-19.5c-0.4,0-0.6,0.3-0.5,0.7l7.1,19.6c0.1,0.4,0.6,0.7,0.9,0.7h19.5c0.4,0,0.6-0.3,0.5-0.7
		l-7.1-19.6C232.4,52.9,232,52.6,231.6,52.6z"/>
	<path class="st1" d="M212.1,142.6h19.5c0.4,0,0.8-0.3,0.9-0.7l7.1-19.6c0.1-0.4-0.1-0.7-0.5-0.7h-19.5c-0.4,0-0.8,0.3-0.9,0.7
		l-7.1,19.6C211.5,142.3,211.7,142.6,212.1,142.6z"/>
	<path class="st2" d="M211.6,99.3l7.1,19.6c0.1,0.4,0.6,0.7,0.9,0.7h19.5c0.4,0,0.6-0.3,0.5-0.7l-7.1-19.6c-0.1-0.4-0.6-0.7-0.9-0.7
		h-19.5C211.7,98.6,211.5,98.9,211.6,99.3z"/>
	<path class="st1" d="M285.3,75.6h-19.5c-0.4,0-0.8,0.3-0.9,0.7l-7.1,19.6c-0.1,0.4,0.1,0.7,0.5,0.7h19.5c0.4,0,0.8-0.3,0.9-0.7
		l7.1-19.6C285.9,75.9,285.7,75.6,285.3,75.6z"/>
	<path class="st2" d="M285.7,72.9l-7.1-19.6c-0.1-0.4-0.6-0.7-0.9-0.7h-19.5c-0.4,0-0.6,0.3-0.5,0.7l7.1,19.6
		c0.1,0.4,0.6,0.7,0.9,0.7h19.5C285.7,73.5,285.9,73.2,285.7,72.9z"/>
	<path class="st1" d="M258.1,142.6h19.5c0.4,0,0.8-0.3,0.9-0.7l7.1-19.6c0.1-0.4-0.1-0.7-0.5-0.7h-19.5c-0.4,0-0.8,0.3-0.9,0.7
		l-7.1,19.6C257.5,142.3,257.7,142.6,258.1,142.6z"/>
	<path class="st2" d="M285.7,118.9l-7.1-19.6c-0.1-0.4-0.6-0.7-0.9-0.7h-19.5c-0.4,0-0.6,0.3-0.5,0.7l7.1,19.6
		c0.1,0.4,0.6,0.7,0.9,0.7h19.5C285.7,119.6,285.9,119.3,285.7,118.9z"/>
	<path class="st2" d="M254.6,144.7h-19.5c-0.4,0-0.6,0.3-0.5,0.7l1.7,4.6h20.9l-1.7-4.6C255.4,145,255,144.7,254.6,144.7z"/>
	<path class="st1" d="M185.6,52.6H166c-0.4,0-0.8,0.3-0.9,0.7l-7.1,19.6c-0.1,0.4,0.1,0.7,0.5,0.7h19.5c0.4,0,0.8-0.3,0.9-0.7
		l7.1-19.6C186.1,52.9,185.9,52.6,185.6,52.6z"/>
	<path class="st1" d="M185.6,98.6H166c-0.4,0-0.8,0.3-0.9,0.7l-7.1,19.6c-0.1,0.4,0.1,0.7,0.5,0.7h19.5c0.4,0,0.8-0.3,0.9-0.7
		l7.1-19.6C186.1,98.9,185.9,98.6,185.6,98.6z"/>
	<path class="st2" d="M186,95.9l-7.1-19.6c-0.1-0.4-0.6-0.7-0.9-0.7h-19.5c-0.4,0-0.6,0.3-0.5,0.7l7.1,19.6c0.1,0.4,0.6,0.7,0.9,0.7
		h19.5C185.9,96.6,186.1,96.3,186,95.9z"/>
	<path class="st1" d="M135.4,73.5h19.5c0.4,0,0.8-0.3,0.9-0.7l7.1-19.6c0.1-0.4-0.1-0.7-0.5-0.7H143c-0.4,0-0.8,0.3-0.9,0.7
		l-7.1,19.6C134.8,73.2,135,73.5,135.4,73.5z"/>
	<path class="st1" d="M135.4,119.6h19.5c0.4,0,0.8-0.3,0.9-0.7l7.1-19.6c0.1-0.4-0.1-0.7-0.5-0.7H143c-0.4,0-0.8,0.3-0.9,0.7
		l-7.1,19.6C134.8,119.3,135,119.6,135.4,119.6z"/>
	<path class="st2" d="M134.9,76.3l7.1,19.6c0.1,0.4,0.6,0.7,0.9,0.7h19.5c0.4,0,0.6-0.3,0.5-0.7l-7.1-19.6c-0.1-0.4-0.6-0.7-0.9-0.7
		h-19.5C135,75.6,134.8,75.9,134.9,76.3z"/>
	<path class="st1" d="M208.6,52.6H189c-0.4,0-0.8,0.3-0.9,0.7L181,72.9c-0.1,0.4,0.1,0.7,0.5,0.7H201c0.4,0,0.8-0.3,0.9-0.7
		l7.1-19.6C209.2,52.9,209,52.6,208.6,52.6z"/>
	<path class="st1" d="M201.9,118.9l7.1-19.6c0.1-0.4-0.1-0.7-0.5-0.7H189c-0.4,0-0.8,0.3-0.9,0.7l-7.1,19.6
		c-0.1,0.4,0.1,0.7,0.5,0.7H201C201.3,119.6,201.8,119.3,201.9,118.9z"/>
	<path class="st2" d="M209,95.9l-7.1-19.6c-0.1-0.4-0.6-0.7-0.9-0.7h-19.5c-0.4,0-0.6,0.3-0.5,0.7l7.1,19.6c0.1,0.4,0.6,0.7,0.9,0.7
		h19.5C209,96.6,209.2,96.3,209,95.9z"/>
	<path class="st2" d="M165.1,141.9c0.1,0.4,0.6,0.7,0.9,0.7h19.5c0.4,0,0.6-0.3,0.5-0.7l-7.1-19.6c-0.1-0.4-0.6-0.7-0.9-0.7h-19.5
		c-0.4,0-0.6,0.3-0.5,0.7L165.1,141.9z"/>
	<path class="st1" d="M108.9,75.6H89.3c-0.4,0-0.8,0.3-0.9,0.7l-7.1,19.6c-0.1,0.4,0.1,0.7,0.5,0.7h19.5c0.4,0,0.8-0.3,0.9-0.7
		l7.1-19.6C109.4,75.9,109.2,75.6,108.9,75.6z"/>
	<path class="st2" d="M109.3,72.9l-7.1-19.6c-0.1-0.4-0.6-0.7-0.9-0.7H81.7c-0.4,0-0.6,0.3-0.5,0.7l7.1,19.6
		c0.1,0.4,0.6,0.7,0.9,0.7h19.5C109.2,73.5,109.4,73.2,109.3,72.9z"/>
	<path class="st1" d="M58.7,96.6h19.5c0.4,0,0.8-0.3,0.9-0.7l7.1-19.6c0.1-0.4-0.1-0.7-0.5-0.7H66.3c-0.4,0-0.8,0.3-0.9,0.7
		l-7.1,19.6C58.1,96.3,58.3,96.6,58.7,96.6z"/>
	<path class="st2" d="M58.2,53.3l7.1,19.6c0.1,0.4,0.6,0.7,0.9,0.7h19.5c0.4,0,0.6-0.3,0.5-0.7l-7.1-19.6c-0.1-0.4-0.6-0.7-0.9-0.7
		H58.7C58.3,52.6,58.1,52.9,58.2,53.3z"/>
	<path class="st1" d="M125.2,95.9l7.1-19.6c0.1-0.4-0.1-0.7-0.5-0.7h-19.5c-0.4,0-0.8,0.3-0.9,0.7l-7.1,19.6
		c-0.1,0.4,0.1,0.7,0.5,0.7h19.5C124.6,96.6,125.1,96.3,125.2,95.9z"/>
	<path class="st2" d="M132.3,72.9l-7.1-19.6c-0.1-0.4-0.6-0.7-0.9-0.7h-19.5c-0.4,0-0.6,0.3-0.5,0.7l7.1,19.6
		c0.1,0.4,0.6,0.7,0.9,0.7h19.5C132.3,73.5,132.5,73.2,132.3,72.9z"/>
	<path class="st2" d="M109.3,118.9l-7.1-19.6c-0.1-0.4-0.6-0.7-0.9-0.7H81.7c-0.4,0-0.6,0.3-0.5,0.7l7.1,19.6
		c0.1,0.4,0.6,0.7,0.9,0.7h19.5C109.2,119.6,109.4,119.3,109.3,118.9z"/>
	<path class="st1" d="M415.6,75.6h-19.5c-0.4,0-0.8,0.3-0.9,0.7L388,95.9c-0.1,0.4,0.1,0.7,0.5,0.7H408c0.4,0,0.8-0.3,0.9-0.7
		l7.1-19.6C416.2,75.9,416,75.6,415.6,75.6z"/>
	<path class="st2" d="M416.1,72.9l-7.1-19.6c-0.1-0.4-0.6-0.7-0.9-0.7h-19.5c-0.4,0-0.6,0.3-0.5,0.7l7.1,19.6
		c0.1,0.4,0.6,0.7,0.9,0.7h19.5C416,73.5,416.2,73.2,416.1,72.9z"/>
	<path class="st1" d="M415.6,121.7h-19.5c-0.4,0-0.8,0.3-0.9,0.7l-7.1,19.6c-0.1,0.4,0.1,0.7,0.5,0.7H408c0.4,0,0.8-0.3,0.9-0.7
		l7.1-19.6C416.2,122,416,121.7,415.6,121.7z"/>
	<path class="st2" d="M408,98.6h-19.5c-0.4,0-0.6,0.3-0.5,0.7l7.1,19.6c0.1,0.4,0.6,0.7,0.9,0.7h19.5c0.4,0,0.6-0.3,0.5-0.7
		l-7.1-19.6C408.8,98.9,408.4,98.6,408,98.6z"/>
	<path class="st2" d="M408,144.7h-19.5c-0.4,0-0.6,0.3-0.5,0.7l1.7,4.6h20.9l-1.7-4.6C408.8,145,408.4,144.7,408,144.7z"/>
	<path class="st1" d="M365.4,142.6H385c0.4,0,0.8-0.3,0.9-0.7l7.1-19.6c0.1-0.4-0.1-0.7-0.5-0.7h-19.5c-0.4,0-0.8,0.3-0.9,0.7
		l-7.1,19.6C364.9,142.3,365.1,142.6,365.4,142.6z"/>
	<path class="st2" d="M365,99.3l7.1,19.6c0.1,0.4,0.6,0.7,0.9,0.7h19.5c0.4,0,0.6-0.3,0.5-0.7l-7.1-19.6c-0.1-0.4-0.6-0.7-0.9-0.7
		h-19.5C365.1,98.6,364.9,98.9,365,99.3z"/>
	<path class="st2" d="M385.9,145.4c-0.1-0.4-0.6-0.7-0.9-0.7h-19.5c-0.4,0-0.6,0.3-0.5,0.7l1.7,4.6h20.9L385.9,145.4z"/>
	<path class="st1" d="M411.5,142.6H431c0.4,0,0.8-0.3,0.9-0.7l7.1-19.6c0.1-0.4-0.1-0.7-0.5-0.7h-19.5c-0.4,0-0.8,0.3-0.9,0.7
		l-7.1,19.6C410.9,142.3,411.1,142.6,411.5,142.6z"/>
	<path class="st2" d="M439.1,118.9L432,99.3c-0.1-0.4-0.6-0.7-0.9-0.7h-19.5c-0.4,0-0.6,0.3-0.5,0.7l7.1,19.6
		c0.1,0.4,0.6,0.7,0.9,0.7h19.5C439,119.6,439.2,119.3,439.1,118.9z"/>
	<path class="st2" d="M431,144.7h-19.5c-0.4,0-0.6,0.3-0.5,0.7l1.7,4.6h20.9l-1.7-4.6C431.8,145,431.4,144.7,431,144.7z"/>
	<path class="st1" d="M2.5,26.8L9.6,7.2c0.1-0.4-0.1-0.7-0.5-0.7H0v20.9h1.5C1.9,27.5,2.3,27.2,2.5,26.8z"/>
	<path class="st2" d="M0,4.5h9.1c0.4,0,0.6-0.3,0.5-0.7L8.2,0H0V4.5z"/>
	<path class="st2" d="M9.1,50.5c0.4,0,0.6-0.3,0.5-0.7L2.5,30.2c-0.1-0.4-0.6-0.7-0.9-0.7H0v20.9H9.1z"/>
	<path class="st1" d="M32.2,6.6H12.6c-0.4,0-0.8,0.3-0.9,0.7L4.6,26.8c-0.1,0.4,0.1,0.7,0.5,0.7h19.5c0.4,0,0.8-0.3,0.9-0.7
		l7.1-19.6C32.8,6.8,32.6,6.6,32.2,6.6z"/>
	<path class="st2" d="M11.7,3.8c0.1,0.4,0.6,0.7,0.9,0.7h19.5c0.4,0,0.6-0.3,0.5-0.7L31.2,0H10.3L11.7,3.8z"/>
	<path class="st2" d="M32.6,49.9l-7.1-19.6c-0.1-0.4-0.6-0.7-0.9-0.7H5c-0.4,0-0.6,0.3-0.5,0.7l7.1,19.6c0.1,0.4,0.6,0.7,0.9,0.7
		h19.5C32.6,50.5,32.8,50.2,32.6,49.9z"/>
	<path class="st1" d="M55.2,6.6H35.7c-0.4,0-0.8,0.3-0.9,0.7l-7.1,19.6c-0.1,0.4,0.1,0.7,0.5,0.7h19.5c0.4,0,0.8-0.3,0.9-0.7
		l7.1-19.6C55.8,6.8,55.6,6.6,55.2,6.6z"/>
	<path class="st2" d="M34.7,3.8c0.1,0.4,0.6,0.7,0.9,0.7h19.5c0.4,0,0.6-0.3,0.5-0.7L54.3,0H33.3L34.7,3.8z"/>
	<path class="st2" d="M55.7,49.9l-7.1-19.6c-0.1-0.4-0.6-0.7-0.9-0.7H28c-0.4,0-0.6,0.3-0.5,0.7l7.1,19.6c0.1,0.4,0.6,0.7,0.9,0.7
		h19.5C55.6,50.5,55.8,50.2,55.7,49.9z"/>
	<path class="st1" d="M9.1,52.6H0v20.9h1.5c0.4,0,0.8-0.3,0.9-0.7l7.1-19.6C9.7,52.9,9.5,52.6,9.1,52.6z"/>
	<path class="st1" d="M32.2,52.6H12.6c-0.4,0-0.8,0.3-0.9,0.7L4.6,72.9c-0.1,0.4,0.1,0.7,0.5,0.7h19.5c0.4,0,0.8-0.3,0.9-0.7
		l7.1-19.6C32.8,52.9,32.6,52.6,32.2,52.6z"/>
	<path class="st1" d="M32.2,98.6H12.6c-0.4,0-0.8,0.3-0.9,0.7l-7.1,19.6c-0.1,0.4,0.1,0.7,0.5,0.7h19.5c0.4,0,0.8-0.3,0.9-0.7
		l7.1-19.6C32.8,98.9,32.6,98.6,32.2,98.6z"/>
	<path class="st2" d="M32.6,95.9l-7.1-19.6c-0.1-0.4-0.6-0.7-0.9-0.7H5c-0.4,0-0.6,0.3-0.5,0.7l7.1,19.6c0.1,0.4,0.6,0.7,0.9,0.7
		h19.5C32.6,96.6,32.8,96.3,32.6,95.9z"/>
	<path class="st1" d="M32.2,144.7H12.6c-0.4,0-0.8,0.3-0.9,0.7L10,150h20.9l1.7-4.6C32.8,145,32.6,144.7,32.2,144.7z"/>
	<path class="st2" d="M25.5,122.3c-0.1-0.4-0.6-0.7-0.9-0.7H5c-0.4,0-0.6,0.3-0.5,0.7l7.1,19.6c0.1,0.4,0.6,0.7,0.9,0.7h19.5
		c0.4,0,0.6-0.3,0.5-0.7L25.5,122.3z"/>
	<path class="st1" d="M9.1,144.7H0v5.3h7.9l1.7-4.6C9.7,145,9.5,144.7,9.1,144.7z"/>
	<path class="st2" d="M2.5,122.3c-0.1-0.4-0.6-0.7-0.9-0.7H0v20.9h9.1c0.4,0,0.6-0.3,0.5-0.7L2.5,122.3z"/>
	<path class="st1" d="M55.2,144.7H35.7c-0.4,0-0.8,0.3-0.9,0.7L33,150H54l1.7-4.6C55.8,145,55.6,144.7,55.2,144.7z"/>
	<path class="st2" d="M35.7,142.6h19.5c0.4,0,0.6-0.3,0.5-0.7l-7.1-19.6c-0.1-0.4-0.6-0.7-0.9-0.7H28c-0.4,0-0.6,0.3-0.5,0.7
		l7.1,19.6C34.9,142.3,35.3,142.6,35.7,142.6z"/>
	<path class="st1" d="M55.2,52.6H35.7c-0.4,0-0.8,0.3-0.9,0.7l-7.1,19.6c-0.1,0.4,0.1,0.7,0.5,0.7h19.5c0.4,0,0.8-0.3,0.9-0.7
		l7.1-19.6C55.8,52.9,55.6,52.6,55.2,52.6z"/>
</g>
<pattern  id="SVGID_1_" xlink:href="#譁ｰ隕上ヱ繧ｿ繝ｼ繝ｳ繧ｹ繧ｦ繧ｩ繝メ_3" patternTransform="matrix(0.2461 0 0 0.2461 -5026.4023 -6269.0151)">
</pattern>
<rect y="-193.1" class="st3" width="500" height="150"/>
<g>
</g>
<g>
</g>
<g>
</g>
<g>
</g>
<g>
</g>
<g>
</g>
</svg>
