<?xml version="1.0" encoding="utf-8"?>
<!-- Generator: Adobe Illustrator 21.1.0, SVG Export Plug-In . SVG Version: 6.00 Build 0)  -->
<svg version="1.1" id="レイヤー_1" xmlns="http://www.w3.org/2000/svg" xmlns:xlink="http://www.w3.org/1999/xlink" x="0px"
	 y="0px" viewBox="0 0 500 150" style="enable-background:new 0 0 500 150;" xml:space="preserve">
<style type="text/css">
	.st0{fill:none;}
	.st1{clip-path:url(#SVGID_2_);fill:#13848F;}
	.st2{clip-path:url(#SVGID_2_);}
	.st3{fill:#FFFFFF;}
	.st4{clip-path:url(#SVGID_2_);fill:#FFFFFF;}
	.st5{clip-path:url(#SVGID_2_);fill:none;}
	.st6{fill:url(#SVGID_3_);}
	.st7{fill:#D14D89;}
</style>
<pattern  x="-250" y="-75" width="177.3" height="90.6" patternUnits="userSpaceOnUse" id="新規パターンスウォッチ_6" viewBox="265.3 -136 177.3 90.6" style="overflow:visible;">
	<g>
		<rect x="265.3" y="-136" class="st0" width="177.3" height="90.6"/>
		<g>
			<defs>
				<rect id="SVGID_1_" x="265.3" y="-136" width="177.3" height="90.6"/>
			</defs>
			<clipPath id="SVGID_2_">
				<use xlink:href="#SVGID_1_"  style="overflow:visible;"/>
			</clipPath>
			<rect x="239.7" y="-158.7" class="st1" width="219.4" height="152.7"/>
			<g class="st2">
				<path class="st3" d="M176-2.2h-43.2c-0.6-23.9-20.2-43.2-44.2-43.2S44.8-26.1,44.3-2.2H1.1C0.5-2.2,0-1.7,0-1.1
					C0-0.5,0.5,0,1.1,0h43.2h88.5H176c0.6,0,1.1-0.5,1.1-1.1C177-1.7,176.6-2.2,176-2.2z"/>
				<path class="st3" d="M353-2.2h-43.2c-0.6-23.9-20.2-43.2-44.2-43.2c-24.1,0-43.7,19.2-44.2,43.2h-43.2c-0.6,0-1.1,0.5-1.1,1.1
					c0,0.6,0.5,1.1,1.1,1.1h43.2h88.5H353c0.6,0,1.1-0.5,1.1-1.1C354.1-1.7,353.6-2.2,353-2.2z"/>
			</g>
			<path class="st4" d="M264.5-47.5h-43.2c-0.6-23.9-20.2-43.2-44.2-43.2s-43.7,19.2-44.2,43.2H89.6c-0.6,0-1.1,0.5-1.1,1.1
				c0,0.6,0.5,1.1,1.1,1.1h43.2h88.5h43.2c0.6,0,1.1-0.5,1.1-1.1C265.6-47,265.1-47.5,264.5-47.5z"/>
			<g class="st2">
				<path class="st3" d="M176-92.8h-43.2c-0.6-23.9-20.2-43.2-44.2-43.2s-43.7,19.2-44.2,43.2H1.1c-0.6,0-1.1,0.5-1.1,1.1
					c0,0.6,0.5,1.1,1.1,1.1h43.2h88.5H176c0.6,0,1.1-0.5,1.1-1.1C177-92.4,176.6-92.8,176-92.8z"/>
				<path class="st3" d="M353-92.8h-43.2c-0.6-23.9-20.2-43.2-44.2-43.2c-24.1,0-43.7,19.2-44.2,43.2h-43.2c-0.6,0-1.1,0.5-1.1,1.1
					c0,0.6,0.5,1.1,1.1,1.1h43.2h88.5H353c0.6,0,1.1-0.5,1.1-1.1C354.1-92.4,353.6-92.8,353-92.8z"/>
			</g>
			<path class="st4" d="M264.5-138.2h-43.2c-0.6-23.9-20.2-43.2-44.2-43.2s-43.7,19.2-44.2,43.2H89.6c-0.6,0-1.1,0.5-1.1,1.1
				c0,0.6,0.5,1.1,1.1,1.1h43.2h88.5h43.2c0.6,0,1.1-0.5,1.1-1.1C265.6-137.7,265.1-138.2,264.5-138.2z"/>
			<path class="st4" d="M441.5-47.5h-43.2c-0.6-23.9-20.2-43.2-44.2-43.2c-24.1,0-43.7,19.2-44.2,43.2h-43.2c-0.6,0-1.1,0.5-1.1,1.1
				c0,0.6,0.5,1.1,1.1,1.1h43.2h88.5h43.2c0.6,0,1.1-0.5,1.1-1.1C442.6-47,442.1-47.5,441.5-47.5z"/>
			<path class="st4" d="M441.5-138.2h-43.2c-0.6-23.9-20.2-43.2-44.2-43.2c-24.1,0-43.7,19.2-44.2,43.2h-43.2
				c-0.6,0-1.1,0.5-1.1,1.1c0,0.6,0.5,1.1,1.1,1.1h43.2h88.5h43.2c0.6,0,1.1-0.5,1.1-1.1C442.6-137.7,442.1-138.2,441.5-138.2z"/>
			<g class="st2">
				<path class="st3" d="M530.1-2.2h-43.2c-0.6-23.9-20.2-43.2-44.2-43.2c-24.1,0-43.7,19.2-44.2,43.2h-43.2c-0.6,0-1.1,0.5-1.1,1.1
					c0,0.6,0.5,1.1,1.1,1.1h43.2h88.5h43.2c0.6,0,1.1-0.5,1.1-1.1C531.1-1.7,530.7-2.2,530.1-2.2z"/>
				<path class="st3" d="M707.1-2.2h-43.2c-0.6-23.9-20.2-43.2-44.2-43.2S576-26.1,575.4-2.2h-43.2c-0.6,0-1.1,0.5-1.1,1.1
					c0,0.6,0.5,1.1,1.1,1.1h43.2h88.5h43.2c0.6,0,1.1-0.5,1.1-1.1C708.2-1.7,707.7-2.2,707.1-2.2z"/>
			</g>
			<path class="st4" d="M618.6-47.5h-43.2c-0.6-23.9-20.2-43.2-44.2-43.2c-24.1,0-43.7,19.2-44.2,43.2h-43.2c-0.6,0-1.1,0.5-1.1,1.1
				c0,0.6,0.5,1.1,1.1,1.1h43.2h88.5h43.2c0.6,0,1.1-0.5,1.1-1.1C619.7-47,619.2-47.5,618.6-47.5z"/>
			<g class="st2">
				<path class="st3" d="M530.1-92.8h-43.2c-0.6-23.9-20.2-43.2-44.2-43.2c-24.1,0-43.7,19.2-44.2,43.2h-43.2
					c-0.6,0-1.1,0.5-1.1,1.1c0,0.6,0.5,1.1,1.1,1.1h43.2h88.5h43.2c0.6,0,1.1-0.5,1.1-1.1C531.1-92.4,530.7-92.8,530.1-92.8z"/>
				<path class="st3" d="M707.1-92.8h-43.2c-0.6-23.9-20.2-43.2-44.2-43.2s-43.7,19.2-44.2,43.2h-43.2c-0.6,0-1.1,0.5-1.1,1.1
					c0,0.6,0.5,1.1,1.1,1.1h43.2h88.5h43.2c0.6,0,1.1-0.5,1.1-1.1C708.2-92.4,707.7-92.8,707.1-92.8z"/>
			</g>
			<path class="st4" d="M618.6-138.2h-43.2c-0.6-23.9-20.2-43.2-44.2-43.2c-24.1,0-43.7,19.2-44.2,43.2h-43.2
				c-0.6,0-1.1,0.5-1.1,1.1c0,0.6,0.5,1.1,1.1,1.1h43.2h88.5h43.2c0.6,0,1.1-0.5,1.1-1.1C619.7-137.7,619.2-138.2,618.6-138.2z"/>
			<rect x="85.6" y="-540.3" class="st5" width="534.3" height="534.3"/>
			<rect x="84.7" y="-138.2" class="st4" width="556" height="2.2"/>
			<rect x="84.7" y="-92.8" class="st4" width="556" height="2.2"/>
			<rect x="84.7" y="-47.5" class="st4" width="556" height="2.2"/>
			<rect x="85.6" y="-540.3" class="st5" width="534.3" height="534.3"/>
		</g>
	</g>
</pattern>
<pattern  id="SVGID_3_" xlink:href="#譁ｰ隕上ヱ繧ｿ繝ｼ繝ｳ繧ｹ繧ｦ繧ｩ繝メ_6" patternTransform="matrix(0.4012 0 0 0.4012 -3389.7144 -3725.1169)">
</pattern>
<rect y="-191.8" class="st6" width="500" height="150"/>
<g>
	<path class="st0" d="M273.1,97.1c-0.6,11.4-9.7,20.5-21.1,21.1c0.5,10.2,8.8,18.4,19,19c0.6-11.4,9.7-20.5,21.1-21.1
		C291.6,105.9,283.4,97.7,273.1,97.1z"/>
	<path class="st0" d="M188.2,97.1c-0.6,11.4-9.7,20.5-21.1,21.1c0.5,10.2,8.8,18.4,19,19c0.6-11.4,9.7-20.5,21.1-21.1
		C206.6,105.9,198.4,97.7,188.2,97.1z"/>
	<path class="st0" d="M145.7,12.2c-0.6,11.4-9.7,20.5-21.1,21.1c0.5,10.2,8.8,18.4,19,19c0.6-11.4,9.7-20.5,21.1-21.1
		C164.2,20.9,156,12.7,145.7,12.2z"/>
	<path class="st0" d="M230.7,12.2c-0.6,11.4-9.7,20.5-21.1,21.1c0.5,10.2,8.8,18.4,19,19c0.6-11.4,9.7-20.5,21.1-21.1
		C249.1,20.9,240.9,12.7,230.7,12.2z"/>
	<path class="st0" d="M145.7,54.7c-0.6,11.4-9.7,20.5-21.1,21.1c0.5,10.2,8.8,18.4,19,19c0.6-11.4,9.7-20.5,21.1-21.1
		C164.2,63.4,156,55.2,145.7,54.7z"/>
	<path class="st0" d="M230.7,54.7c-0.6,11.4-9.7,20.5-21.1,21.1c0.5,10.2,8.8,18.4,19,19c0.6-11.4,9.7-20.5,21.1-21.1
		C249.1,63.4,240.9,55.2,230.7,54.7z"/>
	<path class="st0" d="M188.2,12.2c-0.6,11.4-9.7,20.5-21.1,21.1c0.5,10.2,8.8,18.4,19,19c0.6-11.4,9.7-20.5,21.1-21.1
		C206.6,20.9,198.4,12.7,188.2,12.2z"/>
	<path class="st0" d="M188.2,54.7c-0.6,11.4-9.7,20.5-21.1,21.1c0.5,10.2,8.8,18.4,19,19c0.6-11.4,9.7-20.5,21.1-21.1
		C206.6,63.4,198.4,55.2,188.2,54.7z"/>
	<path class="st0" d="M60.8,12.2c-0.6,11.4-9.7,20.5-21.1,21.1c0.5,10.2,8.8,18.4,19,19c0.6-11.4,9.7-20.5,21.1-21.1
		C79.3,20.9,71.1,12.7,60.8,12.2z"/>
	<path class="st0" d="M60.8,54.7C60.2,66,51.1,75.2,39.7,75.8c0.5,10.2,8.8,18.4,19,19c0.6-11.4,9.7-20.5,21.1-21.1
		C79.3,63.4,71.1,55.2,60.8,54.7z"/>
	<path class="st0" d="M60.8,97.1c-0.6,11.4-9.7,20.5-21.1,21.1c0.5,10.2,8.8,18.4,19,19c0.6-11.4,9.7-20.5,21.1-21.1
		C79.3,105.9,71.1,97.7,60.8,97.1z"/>
	<path class="st0" d="M103.3,12.2c-0.6,11.4-9.7,20.5-21.1,21.1c0.5,10.2,8.8,18.4,19,19c0.6-11.4,9.7-20.5,21.1-21.1
		C121.7,20.9,113.5,12.7,103.3,12.2z"/>
	<path class="st0" d="M145.7,97.1c-0.6,11.4-9.7,20.5-21.1,21.1c0.5,10.2,8.8,18.4,19,19c0.6-11.4,9.7-20.5,21.1-21.1
		C164.2,105.9,156,97.7,145.7,97.1z"/>
	<path class="st0" d="M103.3,97.1c-0.6,11.4-9.7,20.5-21.1,21.1c0.5,10.2,8.8,18.4,19,19c0.6-11.4,9.7-20.5,21.1-21.1
		C121.7,105.9,113.5,97.7,103.3,97.1z"/>
	<path class="st0" d="M103.3,54.7c-0.6,11.4-9.7,20.5-21.1,21.1c0.5,10.2,8.8,18.4,19,19c0.6-11.4,9.7-20.5,21.1-21.1
		C121.7,63.4,113.5,55.2,103.3,54.7z"/>
	<path class="st0" d="M230.7,97.1c-0.6,11.4-9.7,20.5-21.1,21.1c0.5,10.2,8.8,18.4,19,19c0.6-11.4,9.7-20.5,21.1-21.1
		C249.1,105.9,240.9,97.7,230.7,97.1z"/>
	<path class="st0" d="M400.5,12.2c-0.6,11.4-9.7,20.5-21.1,21.1c0.5,10.2,8.8,18.4,19,19c0.6-11.4,9.7-20.5,21.1-21.1
		C418.9,20.9,410.7,12.7,400.5,12.2z"/>
	<path class="st0" d="M400.5,97.1c-0.6,11.4-9.7,20.5-21.1,21.1c0.5,10.2,8.8,18.4,19,19c0.6-11.4,9.7-20.5,21.1-21.1
		C418.9,105.9,410.7,97.7,400.5,97.1z"/>
	<path class="st0" d="M400.5,54.7c-0.6,11.4-9.7,20.5-21.1,21.1c0.5,10.2,8.8,18.4,19,19c0.6-11.4,9.7-20.5,21.1-21.1
		C418.9,63.4,410.7,55.2,400.5,54.7z"/>
	<path class="st0" d="M443,97.1c-0.6,11.4-9.7,20.5-21.1,21.1c0.5,10.2,8.8,18.4,19,19c0.6-11.4,9.7-20.5,21.1-21.1
		C461.4,105.9,453.2,97.7,443,97.1z"/>
	<path class="st0" d="M443,54.7c-0.6,11.4-9.7,20.5-21.1,21.1c0.5,10.2,8.8,18.4,19,19c0.6-11.4,9.7-20.5,21.1-21.1
		C461.4,63.4,453.2,55.2,443,54.7z"/>
	<path class="st0" d="M273.1,54.7c-0.6,11.4-9.7,20.5-21.1,21.1c0.5,10.2,8.8,18.4,19,19c0.6-11.4,9.7-20.5,21.1-21.1
		C291.6,63.4,283.4,55.2,273.1,54.7z"/>
	<path class="st0" d="M443,12.2c-0.6,11.4-9.7,20.5-21.1,21.1c0.5,10.2,8.8,18.4,19,19c0.6-11.4,9.7-20.5,21.1-21.1
		C461.4,20.9,453.2,12.7,443,12.2z"/>
	<path class="st0" d="M315.6,97.1c-0.6,11.4-9.7,20.5-21.1,21.1c0.5,10.2,8.8,18.4,19,19c0.6-11.4,9.7-20.5,21.1-21.1
		C334,105.9,325.8,97.7,315.6,97.1z"/>
	<path class="st0" d="M273.1,12.2c-0.6,11.4-9.7,20.5-21.1,21.1c0.5,10.2,8.8,18.4,19,19c0.6-11.4,9.7-20.5,21.1-21.1
		C291.6,20.9,283.4,12.7,273.1,12.2z"/>
	<path class="st0" d="M315.6,54.7c-0.6,11.4-9.7,20.5-21.1,21.1c0.5,10.2,8.8,18.4,19,19c0.6-11.4,9.7-20.5,21.1-21.1
		C334,63.4,325.8,55.2,315.6,54.7z"/>
	<path class="st0" d="M358,12.2c-0.6,11.4-9.7,20.5-21.1,21.1c0.5,10.2,8.8,18.4,19,19c0.6-11.4,9.7-20.5,21.1-21.1
		C376.5,20.9,368.3,12.7,358,12.2z"/>
	<path class="st0" d="M315.6,12.2c-0.6,11.4-9.7,20.5-21.1,21.1c0.5,10.2,8.8,18.4,19,19c0.6-11.4,9.7-20.5,21.1-21.1
		C334,20.9,325.8,12.7,315.6,12.2z"/>
	<path class="st0" d="M358,97.1c-0.6,11.4-9.7,20.5-21.1,21.1c0.5,10.2,8.8,18.4,19,19c0.6-11.4,9.7-20.5,21.1-21.1
		C376.5,105.9,368.3,97.7,358,97.1z"/>
	<path class="st0" d="M358,54.7c-0.6,11.4-9.7,20.5-21.1,21.1c0.5,10.2,8.8,18.4,19,19c0.6-11.4,9.7-20.5,21.1-21.1
		C376.5,63.4,368.3,55.2,358,54.7z"/>
	<path class="st7" d="M485.4,12.2c5.9,0.3,11.1,3.2,14.6,7.5V0h-13.8c-1.7,2.9-2.7,6.3-2.9,9.8c-6.9-0.4-12.9-4.2-16.2-9.8h-23.4
		c-1.7,2.9-2.7,6.3-2.9,9.8c-6.9-0.4-12.9-4.2-16.2-9.8h-23.4c-1.7,2.9-2.7,6.3-2.9,9.8c-6.9-0.4-12.9-4.2-16.2-9.8h-23.4
		c-1.7,2.9-2.7,6.3-2.9,9.8C349,9.5,343,5.6,339.7,0h-23.4c-1.7,2.9-2.7,6.3-2.9,9.8c-6.9-0.4-12.9-4.2-16.2-9.8h-23.4
		c-1.7,2.9-2.7,6.3-2.9,9.8c-6.9-0.4-12.9-4.2-16.2-9.8h-23.4c-1.7,2.9-2.7,6.3-2.9,9.8c-6.9-0.4-12.9-4.2-16.2-9.8H189
		c-1.7,2.9-2.7,6.3-2.9,9.8c-6.9-0.4-12.9-4.2-16.2-9.8h-23.4c-1.7,2.9-2.7,6.3-2.9,9.8c-6.9-0.4-12.9-4.2-16.2-9.8H104
		c-1.7,2.9-2.7,6.3-2.9,9.8C94.3,9.5,88.3,5.6,84.9,0H61.6c-1.7,2.9-2.7,6.3-2.9,9.8C51.8,9.5,45.8,5.6,42.5,0H19.1
		c-1.7,2.9-2.7,6.3-2.9,9.8C9.3,9.5,3.4,5.6,0,0h0v33c10.1-1.8,17.8-10.3,18.4-20.8c10.2,0.5,18.4,8.8,19,19
		C26,31.8,16.8,40.9,16.2,52.3C9.3,51.9,3.3,48.1,0,42.4v33c10.1-1.8,17.8-10.3,18.4-20.8c10.2,0.5,18.4,8.8,19,19
		C26,74.2,16.8,83.4,16.2,94.8C9.3,94.4,3.3,90.5,0,84.9v33c10.1-1.8,17.8-10.3,18.4-20.8c10.2,0.5,18.4,8.8,19,19
		c-11.4,0.6-20.5,9.7-21.1,21.1C9.3,136.9,3.3,133,0,127.3V150h15.1c1.9-3.1,3.1-6.6,3.3-10.4c7.1,0.4,13.3,4.5,16.5,10.4h22.7
		c1.9-3.1,3.1-6.6,3.3-10.4c7.1,0.4,13.3,4.5,16.5,10.4H100c1.9-3.1,3.1-6.6,3.3-10.4c7.1,0.4,13.3,4.5,16.5,10.4h22.7
		c1.9-3.1,3.1-6.6,3.3-10.4c7.1,0.4,13.3,4.5,16.5,10.4H185c1.9-3.1,3.1-6.6,3.3-10.4c7.1,0.4,13.3,4.5,16.5,10.4h22.7
		c1.9-3.1,3.1-6.6,3.3-10.4c7.1,0.4,13.3,4.5,16.5,10.4h22.7c1.9-3.1,3.1-6.6,3.3-10.4c7.1,0.4,13.3,4.5,16.5,10.4h22.7
		c1.9-3.1,3.1-6.6,3.3-10.4c7.1,0.4,13.3,4.5,16.5,10.4h22.7c1.9-3.1,3.1-6.6,3.3-10.4c7.1,0.4,13.3,4.5,16.5,10.4h22.7
		c1.9-3.1,3.1-6.6,3.3-10.4c7.1,0.4,13.3,4.5,16.5,10.4h22.7c1.9-3.1,3.1-6.6,3.3-10.4c7.1,0.4,13.3,4.5,16.5,10.4h22.7
		c1.9-3.1,3.1-6.6,3.3-10.4c5.9,0.3,11.1,3.2,14.6,7.5v-30.3c-9.3,2.4-16.2,10.6-16.7,20.4c-10.2-0.5-18.4-8.8-19-19
		c11.4-0.6,20.5-9.7,21.1-21.1c5.9,0.3,11.1,3.2,14.6,7.5V74.3c-9.3,2.4-16.2,10.6-16.7,20.4c-10.2-0.5-18.4-8.8-19-19
		c11.4-0.6,20.5-9.7,21.1-21.1c5.9,0.3,11.1,3.2,14.6,7.5V31.9c-9.3,2.4-16.2,10.6-16.7,20.4c-10.2-0.5-18.4-8.8-19-19
		C475.7,32.7,484.8,23.6,485.4,12.2z M58.7,137.2c-10.2-0.5-18.4-8.8-19-19c11.4-0.6,20.5-9.7,21.1-21.1c10.2,0.5,18.4,8.8,19,19
		C68.4,116.7,59.3,125.8,58.7,137.2z M58.7,94.8c-10.2-0.5-18.4-8.8-19-19c11.4-0.6,20.5-9.7,21.1-21.1c10.2,0.5,18.4,8.8,19,19
		C68.4,74.2,59.3,83.4,58.7,94.8z M58.7,52.3c-10.2-0.5-18.4-8.8-19-19c11.4-0.6,20.5-9.7,21.1-21.1c10.2,0.5,18.4,8.8,19,19
		C68.4,31.8,59.3,40.9,58.7,52.3z M101.2,137.2c-10.2-0.5-18.4-8.8-19-19c11.4-0.6,20.5-9.7,21.1-21.1c10.2,0.5,18.4,8.8,19,19
		C110.9,116.7,101.8,125.8,101.2,137.2z M101.2,94.8c-10.2-0.5-18.4-8.8-19-19c11.4-0.6,20.5-9.7,21.1-21.1c10.2,0.5,18.4,8.8,19,19
		C110.9,74.2,101.8,83.4,101.2,94.8z M101.2,52.3c-10.2-0.5-18.4-8.8-19-19c11.4-0.6,20.5-9.7,21.1-21.1c10.2,0.5,18.4,8.8,19,19
		C110.9,31.8,101.8,40.9,101.2,52.3z M143.6,137.2c-10.2-0.5-18.4-8.8-19-19c11.4-0.6,20.5-9.7,21.1-21.1c10.2,0.5,18.4,8.8,19,19
		C153.3,116.7,144.2,125.8,143.6,137.2z M143.6,94.8c-10.2-0.5-18.4-8.8-19-19c11.4-0.6,20.5-9.7,21.1-21.1c10.2,0.5,18.4,8.8,19,19
		C153.3,74.2,144.2,83.4,143.6,94.8z M143.6,52.3c-10.2-0.5-18.4-8.8-19-19c11.4-0.6,20.5-9.7,21.1-21.1c10.2,0.5,18.4,8.8,19,19
		C153.3,31.8,144.2,40.9,143.6,52.3z M186.1,137.2c-10.2-0.5-18.4-8.8-19-19c11.4-0.6,20.5-9.7,21.1-21.1c10.2,0.5,18.4,8.8,19,19
		C195.8,116.7,186.7,125.8,186.1,137.2z M186.1,94.8c-10.2-0.5-18.4-8.8-19-19c11.4-0.6,20.5-9.7,21.1-21.1c10.2,0.5,18.4,8.8,19,19
		C195.8,74.2,186.7,83.4,186.1,94.8z M186.1,52.3c-10.2-0.5-18.4-8.8-19-19c11.4-0.6,20.5-9.7,21.1-21.1c10.2,0.5,18.4,8.8,19,19
		C195.8,31.8,186.7,40.9,186.1,52.3z M228.5,137.2c-10.2-0.5-18.4-8.8-19-19c11.4-0.6,20.5-9.7,21.1-21.1c10.2,0.5,18.4,8.8,19,19
		C238.3,116.7,229.1,125.8,228.5,137.2z M228.5,94.8c-10.2-0.5-18.4-8.8-19-19c11.4-0.6,20.5-9.7,21.1-21.1c10.2,0.5,18.4,8.8,19,19
		C238.3,74.2,229.1,83.4,228.5,94.8z M228.5,52.3c-10.2-0.5-18.4-8.8-19-19c11.4-0.6,20.5-9.7,21.1-21.1c10.2,0.5,18.4,8.8,19,19
		C238.3,31.8,229.1,40.9,228.5,52.3z M271,137.2c-10.2-0.5-18.4-8.8-19-19c11.4-0.6,20.5-9.7,21.1-21.1c10.2,0.5,18.4,8.8,19,19
		C280.7,116.7,271.6,125.8,271,137.2z M271,94.8c-10.2-0.5-18.4-8.8-19-19c11.4-0.6,20.5-9.7,21.1-21.1c10.2,0.5,18.4,8.8,19,19
		C280.7,74.2,271.6,83.4,271,94.8z M271,52.3c-10.2-0.5-18.4-8.8-19-19c11.4-0.6,20.5-9.7,21.1-21.1c10.2,0.5,18.4,8.8,19,19
		C280.7,31.8,271.6,40.9,271,52.3z M313.4,137.2c-10.2-0.5-18.4-8.8-19-19c11.4-0.6,20.5-9.7,21.1-21.1c10.2,0.5,18.4,8.8,19,19
		C323.2,116.7,314,125.8,313.4,137.2z M313.4,94.8c-10.2-0.5-18.4-8.8-19-19c11.4-0.6,20.5-9.7,21.1-21.1c10.2,0.5,18.4,8.8,19,19
		C323.2,74.2,314,83.4,313.4,94.8z M313.4,52.3c-10.2-0.5-18.4-8.8-19-19c11.4-0.6,20.5-9.7,21.1-21.1c10.2,0.5,18.4,8.8,19,19
		C323.2,31.8,314,40.9,313.4,52.3z M355.9,137.2c-10.2-0.5-18.4-8.8-19-19c11.4-0.6,20.5-9.7,21.1-21.1c10.2,0.5,18.4,8.8,19,19
		C365.6,116.7,356.5,125.8,355.9,137.2z M355.9,94.8c-10.2-0.5-18.4-8.8-19-19c11.4-0.6,20.5-9.7,21.1-21.1c10.2,0.5,18.4,8.8,19,19
		C365.6,74.2,356.5,83.4,355.9,94.8z M355.9,52.3c-10.2-0.5-18.4-8.8-19-19c11.4-0.6,20.5-9.7,21.1-21.1c10.2,0.5,18.4,8.8,19,19
		C365.6,31.8,356.5,40.9,355.9,52.3z M398.4,137.2c-10.2-0.5-18.4-8.8-19-19c11.4-0.6,20.5-9.7,21.1-21.1c10.2,0.5,18.4,8.8,19,19
		C408.1,116.7,399,125.8,398.4,137.2z M398.4,94.8c-10.2-0.5-18.4-8.8-19-19c11.4-0.6,20.5-9.7,21.1-21.1c10.2,0.5,18.4,8.8,19,19
		C408.1,74.2,399,83.4,398.4,94.8z M398.4,52.3c-10.2-0.5-18.4-8.8-19-19c11.4-0.6,20.5-9.7,21.1-21.1c10.2,0.5,18.4,8.8,19,19
		C408.1,31.8,399,40.9,398.4,52.3z M440.8,137.2c-10.2-0.5-18.4-8.8-19-19c11.4-0.6,20.5-9.7,21.1-21.1c10.2,0.5,18.4,8.8,19,19
		C450.6,116.7,441.4,125.8,440.8,137.2z M440.8,94.8c-10.2-0.5-18.4-8.8-19-19c11.4-0.6,20.5-9.7,21.1-21.1c10.2,0.5,18.4,8.8,19,19
		C450.6,74.2,441.4,83.4,440.8,94.8z M440.8,52.3c-10.2-0.5-18.4-8.8-19-19c11.4-0.6,20.5-9.7,21.1-21.1c10.2,0.5,18.4,8.8,19,19
		C450.6,31.8,441.4,40.9,440.8,52.3z"/>
</g>
<g>
</g>
<g>
</g>
<g>
</g>
<g>
</g>
<g>
</g>
<g>
</g>
</svg>
