<?xml version="1.0" encoding="utf-8"?>
<!-- Generator: Adobe Illustrator 21.1.0, SVG Export Plug-In . SVG Version: 6.00 Build 0)  -->
<svg version="1.1" id="レイヤー_1" xmlns="http://www.w3.org/2000/svg" xmlns:xlink="http://www.w3.org/1999/xlink" x="0px"
	 y="0px" viewBox="0 0 500 150" style="enable-background:new 0 0 500 150;" xml:space="preserve">
<style type="text/css">
	.st0{fill:none;}
	.st1{clip-path:url(#SVGID_2_);fill:#13848F;}
	.st2{clip-path:url(#SVGID_2_);}
	.st3{fill:#FFFFFF;}
	.st4{clip-path:url(#SVGID_2_);fill:#FFFFFF;}
	.st5{clip-path:url(#SVGID_2_);fill:none;}
	.st6{fill:url(#SVGID_3_);}
	.st7{fill:#806235;}
</style>
<pattern  x="-250" y="-75" width="177.3" height="90.6" patternUnits="userSpaceOnUse" id="新規パターンスウォッチ_6" viewBox="265.3 -136 177.3 90.6" style="overflow:visible;">
	<g>
		<rect x="265.3" y="-136" class="st0" width="177.3" height="90.6"/>
		<g>
			<defs>
				<rect id="SVGID_1_" x="265.3" y="-136" width="177.3" height="90.6"/>
			</defs>
			<clipPath id="SVGID_2_">
				<use xlink:href="#SVGID_1_"  style="overflow:visible;"/>
			</clipPath>
			<rect x="239.7" y="-158.7" class="st1" width="219.4" height="152.7"/>
			<g class="st2">
				<path class="st3" d="M176-2.2h-43.2c-0.6-23.9-20.2-43.2-44.2-43.2S44.8-26.1,44.3-2.2H1.1C0.5-2.2,0-1.7,0-1.1
					C0-0.5,0.5,0,1.1,0h43.2h88.5H176c0.6,0,1.1-0.5,1.1-1.1C177-1.7,176.6-2.2,176-2.2z"/>
				<path class="st3" d="M353-2.2h-43.2c-0.6-23.9-20.2-43.2-44.2-43.2c-24.1,0-43.7,19.2-44.2,43.2h-43.2c-0.6,0-1.1,0.5-1.1,1.1
					c0,0.6,0.5,1.1,1.1,1.1h43.2h88.5H353c0.6,0,1.1-0.5,1.1-1.1C354.1-1.7,353.6-2.2,353-2.2z"/>
			</g>
			<path class="st4" d="M264.5-47.5h-43.2c-0.6-23.9-20.2-43.2-44.2-43.2s-43.7,19.2-44.2,43.2H89.6c-0.6,0-1.1,0.5-1.1,1.1
				c0,0.6,0.5,1.1,1.1,1.1h43.2h88.5h43.2c0.6,0,1.1-0.5,1.1-1.1C265.6-47,265.1-47.5,264.5-47.5z"/>
			<g class="st2">
				<path class="st3" d="M176-92.8h-43.2c-0.6-23.9-20.2-43.2-44.2-43.2s-43.7,19.2-44.2,43.2H1.1c-0.6,0-1.1,0.5-1.1,1.1
					c0,0.6,0.5,1.1,1.1,1.1h43.2h88.5H176c0.6,0,1.1-0.5,1.1-1.1C177-92.4,176.6-92.8,176-92.8z"/>
				<path class="st3" d="M353-92.8h-43.2c-0.6-23.9-20.2-43.2-44.2-43.2c-24.1,0-43.7,19.2-44.2,43.2h-43.2c-0.6,0-1.1,0.5-1.1,1.1
					c0,0.6,0.5,1.1,1.1,1.1h43.2h88.5H353c0.6,0,1.1-0.5,1.1-1.1C354.1-92.4,353.6-92.8,353-92.8z"/>
			</g>
			<path class="st4" d="M264.5-138.2h-43.2c-0.6-23.9-20.2-43.2-44.2-43.2s-43.7,19.2-44.2,43.2H89.6c-0.6,0-1.1,0.5-1.1,1.1
				c0,0.6,0.5,1.1,1.1,1.1h43.2h88.5h43.2c0.6,0,1.1-0.5,1.1-1.1C265.6-137.7,265.1-138.2,264.5-138.2z"/>
			<path class="st4" d="M441.5-47.5h-43.2c-0.6-23.9-20.2-43.2-44.2-43.2c-24.1,0-43.7,19.2-44.2,43.2h-43.2c-0.6,0-1.1,0.5-1.1,1.1
				c0,0.6,0.5,1.1,1.1,1.1h43.2h88.5h43.2c0.6,0,1.1-0.5,1.1-1.1C442.6-47,442.1-47.5,441.5-47.5z"/>
			<path class="st4" d="M441.5-138.2h-43.2c-0.6-23.9-20.2-43.2-44.2-43.2c-24.1,0-43.7,19.2-44.2,43.2h-43.2
				c-0.6,0-1.1,0.5-1.1,1.1c0,0.6,0.5,1.1,1.1,1.1h43.2h88.5h43.2c0.6,0,1.1-0.5,1.1-1.1C442.6-137.7,442.1-138.2,441.5-138.2z"/>
			<g class="st2">
				<path class="st3" d="M530.1-2.2h-43.2c-0.6-23.9-20.2-43.2-44.2-43.2c-24.1,0-43.7,19.2-44.2,43.2h-43.2c-0.6,0-1.1,0.5-1.1,1.1
					c0,0.6,0.5,1.1,1.1,1.1h43.2h88.5h43.2c0.6,0,1.1-0.5,1.1-1.1C531.1-1.7,530.7-2.2,530.1-2.2z"/>
				<path class="st3" d="M707.1-2.2h-43.2c-0.6-23.9-20.2-43.2-44.2-43.2S576-26.1,575.4-2.2h-43.2c-0.6,0-1.1,0.5-1.1,1.1
					c0,0.6,0.5,1.1,1.1,1.1h43.2h88.5h43.2c0.6,0,1.1-0.5,1.1-1.1C708.2-1.7,707.7-2.2,707.1-2.2z"/>
			</g>
			<path class="st4" d="M618.6-47.5h-43.2c-0.6-23.9-20.2-43.2-44.2-43.2c-24.1,0-43.7,19.2-44.2,43.2h-43.2c-0.6,0-1.1,0.5-1.1,1.1
				c0,0.6,0.5,1.1,1.1,1.1h43.2h88.5h43.2c0.6,0,1.1-0.5,1.1-1.1C619.7-47,619.2-47.5,618.6-47.5z"/>
			<g class="st2">
				<path class="st3" d="M530.1-92.8h-43.2c-0.6-23.9-20.2-43.2-44.2-43.2c-24.1,0-43.7,19.2-44.2,43.2h-43.2
					c-0.6,0-1.1,0.5-1.1,1.1c0,0.6,0.5,1.1,1.1,1.1h43.2h88.5h43.2c0.6,0,1.1-0.5,1.1-1.1C531.1-92.4,530.7-92.8,530.1-92.8z"/>
				<path class="st3" d="M707.1-92.8h-43.2c-0.6-23.9-20.2-43.2-44.2-43.2s-43.7,19.2-44.2,43.2h-43.2c-0.6,0-1.1,0.5-1.1,1.1
					c0,0.6,0.5,1.1,1.1,1.1h43.2h88.5h43.2c0.6,0,1.1-0.5,1.1-1.1C708.2-92.4,707.7-92.8,707.1-92.8z"/>
			</g>
			<path class="st4" d="M618.6-138.2h-43.2c-0.6-23.9-20.2-43.2-44.2-43.2c-24.1,0-43.7,19.2-44.2,43.2h-43.2
				c-0.6,0-1.1,0.5-1.1,1.1c0,0.6,0.5,1.1,1.1,1.1h43.2h88.5h43.2c0.6,0,1.1-0.5,1.1-1.1C619.7-137.7,619.2-138.2,618.6-138.2z"/>
			<rect x="85.6" y="-540.3" class="st5" width="534.3" height="534.3"/>
			<rect x="84.7" y="-138.2" class="st4" width="556" height="2.2"/>
			<rect x="84.7" y="-92.8" class="st4" width="556" height="2.2"/>
			<rect x="84.7" y="-47.5" class="st4" width="556" height="2.2"/>
			<rect x="85.6" y="-540.3" class="st5" width="534.3" height="534.3"/>
		</g>
	</g>
</pattern>
<pattern  id="SVGID_3_" xlink:href="#譁ｰ隕上ヱ繧ｿ繝ｼ繝ｳ繧ｹ繧ｦ繧ｩ繝メ_6" patternTransform="matrix(0.4012 0 0 0.4012 -3389.7144 -3725.1169)">
</pattern>
<rect y="-191.8" class="st6" width="500" height="150"/>
<g>
	<path class="st0" d="M261.6,19.7c0.9,2.7,2.4,5.3,4.5,7.4c2.2,2.2,4.7,3.7,7.4,4.5c1.6,0.5,3.3,0.8,5,0.9c-0.1-1.7-0.4-3.4-0.9-5
		c-0.3-1.1-0.8-2.1-1.4-3.2c-0.3-0.5-0.6-1-0.9-1.5c-0.7-1-1.4-1.9-2.3-2.8s-1.8-1.6-2.8-2.3c-0.5-0.3-1-0.6-1.5-0.9
		c-1-0.6-2.1-1-3.2-1.4c-1.6-0.5-3.3-0.8-5-0.9C260.8,16.4,261.1,18.1,261.6,19.7z"/>
	<path class="st0" d="M352.5,22.5c-3.2-2.7-7.1-4.1-11.1-4.2c0.1,1.7,0.4,3.4,0.9,5c0.7,2.2,1.8,4.2,3.3,6.1
		c0.4,0.5,0.8,0.9,1.2,1.3c3.4,3.4,7.9,5.3,12.4,5.4c-0.2-4.5-2-9-5.4-12.4C353.4,23.3,353,22.9,352.5,22.5z"/>
	<path class="st0" d="M71.1,140.4c3.2,2.7,7.1,4.1,11.1,4.2c-0.2-4-1.6-7.9-4.2-11.1c-0.4-0.5-0.8-0.9-1.2-1.3
		c-0.4-0.4-0.9-0.8-1.3-1.2c-2.3-1.9-5-3.2-7.7-3.8c-1.1-0.2-2.2-0.4-3.4-0.4c0.2,4.5,2,9,5.4,12.4
		C70.2,139.7,70.6,140.1,71.1,140.4z"/>
	<path class="st0" d="M242.3,39c0.9,2.7,2.4,5.3,4.5,7.4c2.2,2.2,4.7,3.7,7.4,4.5c1.6,0.5,3.3,0.8,5,0.9c-0.1-1.7-0.4-3.4-0.9-5
		c-0.3-1.1-0.8-2.1-1.4-3.2c-0.3-0.5-0.6-1-0.9-1.5c-0.7-1-1.4-1.9-2.3-2.8s-1.8-1.6-2.8-2.3c-0.5-0.3-1-0.6-1.5-0.9
		c-1-0.6-2.1-1-3.2-1.4c-1.6-0.5-3.3-0.8-5-0.9C241.5,35.7,241.8,37.4,242.3,39z"/>
	<path class="st0" d="M167.5,44c1.8,1.5,3.9,2.6,6.1,3.3c1.6,0.5,3.3,0.8,5,0.9c-0.2-4-1.6-7.9-4.2-11.1c-0.4-0.5-0.8-0.9-1.2-1.3
		c-0.4-0.4-0.9-0.8-1.3-1.2c-2.3-1.9-5-3.2-7.7-3.8c-1.1-0.2-2.2-0.4-3.4-0.4c0.2,4.5,2,9,5.4,12.4C166.6,43.3,167,43.7,167.5,44z"
		/>
	<path class="st0" d="M90.4,121.2c3.2,2.7,7.1,4.1,11.1,4.2c-0.2-4-1.6-7.9-4.2-11.1c-0.4-0.5-0.8-0.9-1.2-1.3
		c-0.4-0.4-0.9-0.8-1.3-1.2c-2.3-1.9-5-3.2-7.7-3.8c-1.1-0.2-2.2-0.4-3.4-0.4c0.2,4.5,2,9,5.4,12.4
		C89.5,120.4,89.9,120.8,90.4,121.2z"/>
	<path class="st0" d="M165.2,116.1c0.9,2.7,2.4,5.3,4.5,7.4c2.2,2.2,4.7,3.7,7.4,4.5c1.6,0.5,3.3,0.8,5,0.9c-0.1-1.7-0.4-3.4-0.9-5
		c-0.3-1.1-0.8-2.1-1.4-3.2c-0.3-0.5-0.6-1-0.9-1.5c-0.7-1-1.4-1.9-2.3-2.8s-1.8-1.6-2.8-2.3c-0.5-0.3-1-0.6-1.5-0.9
		c-1-0.6-2.1-1-3.2-1.4c-1.6-0.5-3.3-0.8-5-0.9C164.4,112.8,164.7,114.5,165.2,116.1z"/>
	<path class="st0" d="M184.5,96.8c0.9,2.7,2.4,5.3,4.5,7.4c2.2,2.2,4.7,3.7,7.4,4.5c1.6,0.5,3.3,0.8,5,0.9c-0.1-1.7-0.4-3.4-0.9-5
		c-0.3-1.1-0.8-2.1-1.4-3.2c-0.3-0.5-0.6-1-0.9-1.5c-0.7-1-1.4-1.9-2.3-2.8s-1.8-1.6-2.8-2.3c-0.5-0.3-1-0.6-1.5-0.9
		c-1-0.6-2.1-1-3.2-1.4c-1.6-0.5-3.3-0.8-5-0.9C183.7,93.5,184,95.2,184.5,96.8z"/>
	<path class="st0" d="M128.9,82.6c1.8,1.5,3.9,2.6,6.1,3.3c1.6,0.5,3.3,0.8,5,0.9c-0.2-4-1.6-7.9-4.2-11.1c-0.4-0.5-0.8-0.9-1.2-1.3
		c-0.4-0.4-0.9-0.8-1.3-1.2c-2.3-1.9-5-3.2-7.7-3.8c-1.1-0.2-2.2-0.4-3.4-0.4c0.2,4.5,2,9,5.4,12.4C128,81.8,128.5,82.2,128.9,82.6z
		"/>
	<path class="st0" d="M203.8,77.6c0.9,2.7,2.4,5.3,4.5,7.4c2.2,2.2,4.7,3.7,7.4,4.5c1.6,0.5,3.3,0.8,5,0.9c-0.1-1.7-0.4-3.4-0.9-5
		c-0.3-1.1-0.8-2.1-1.4-3.2c-0.3-0.5-0.6-1-0.9-1.5c-0.7-1-1.4-1.9-2.3-2.8s-1.8-1.6-2.8-2.3c-0.5-0.3-1-0.6-1.5-0.9
		c-1-0.6-2.1-1-3.2-1.4c-1.6-0.5-3.3-0.8-5-0.9C203,74.2,203.2,75.9,203.8,77.6z"/>
	<path class="st0" d="M109.7,101.9c3.2,2.7,7.1,4.1,11.1,4.2c-0.2-4-1.6-7.9-4.2-11.1c-0.4-0.5-0.8-0.9-1.2-1.3
		c-0.4-0.4-0.9-0.8-1.3-1.2c-2.3-1.9-5-3.2-7.7-3.8c-1.1-0.2-2.2-0.4-3.4-0.4c0.2,4.5,2,9,5.4,12.4
		C108.7,101.1,109.2,101.5,109.7,101.9z"/>
	<path class="st0" d="M145.9,135.4c0.9,2.7,2.4,5.3,4.5,7.4c2.2,2.2,4.7,3.7,7.4,4.5c1.6,0.5,3.3,0.8,5,0.9c-0.1-1.7-0.4-3.4-0.9-5
		c-0.3-1.1-0.8-2.1-1.4-3.2c-0.3-0.5-0.6-1-0.9-1.5c-0.7-1-1.4-1.9-2.3-2.8s-1.8-1.6-2.8-2.3c-0.5-0.3-1-0.6-1.5-0.9
		c-1-0.6-2.1-1-3.2-1.4c-1.6-0.5-3.3-0.8-5-0.9C145.1,132.1,145.4,133.8,145.9,135.4z"/>
	<path class="st0" d="M186.8,24.8c1.8,1.5,3.9,2.6,6.1,3.3c1.6,0.5,3.3,0.8,5,0.9c-0.2-4-1.6-7.9-4.2-11.1c-0.4-0.5-0.8-0.9-1.2-1.3
		c-0.4-0.4-0.9-0.8-1.3-1.2c-2.3-1.9-5-3.2-7.7-3.8c-1.1-0.2-2.2-0.4-3.4-0.4c0.2,4.5,2,9,5.4,12.4C185.9,24,186.3,24.4,186.8,24.8z
		"/>
	<path class="st0" d="M148.2,63.3c1.8,1.5,3.9,2.6,6.1,3.3c1.6,0.5,3.3,0.8,5,0.9c-0.2-4-1.6-7.9-4.2-11.1c-0.4-0.5-0.8-0.9-1.2-1.3
		c-0.4-0.4-0.9-0.8-1.3-1.2c-2.3-1.9-5-3.2-7.7-3.8c-1.1-0.2-2.2-0.4-3.4-0.4c0.2,4.5,2,9,5.4,12.4
		C147.3,62.5,147.8,62.9,148.2,63.3z"/>
	<path class="st0" d="M223.1,58.3c0.9,2.7,2.4,5.3,4.5,7.4c2.2,2.2,4.7,3.7,7.4,4.5c1.6,0.5,3.3,0.8,5,0.9c-0.1-1.7-0.4-3.4-0.9-5
		c-0.3-1.1-0.8-2.1-1.4-3.2c-0.3-0.5-0.6-1-0.9-1.5c-0.7-1-1.4-1.9-2.3-2.8s-1.8-1.6-2.8-2.3c-0.5-0.3-1-0.6-1.5-0.9
		c-1-0.6-2.1-1-3.2-1.4c-1.6-0.5-3.3-0.8-5-0.9C222.2,55,222.5,56.7,223.1,58.3z"/>
	<path class="st0" d="M458.7,90.1c-0.4-0.5-0.8-0.9-1.2-1.3c-3.4-3.4-7.9-5.3-12.4-5.4c0.2,4.5,2,9,5.4,12.4
		c0.4,0.4,0.9,0.8,1.3,1.2c1.8,1.5,3.9,2.6,6.1,3.3c1.6,0.5,3.3,0.8,5,0.9C462.7,97.3,461.3,93.3,458.7,90.1z"/>
	<path class="st0" d="M80,26.8c0.1,3.4,1.2,6.7,3.1,9.7c0.7,1,1.4,1.9,2.3,2.8s1.8,1.6,2.8,2.3c2.9,2,6.3,3,9.7,3.1
		c-0.2-4.5-2-9-5.4-12.4S84.5,27,80,26.8z"/>
	<path class="st0" d="M478,70.8c-0.4-0.5-0.8-0.9-1.2-1.3c-3.4-3.4-7.9-5.3-12.4-5.4c0.2,4.5,2,9,5.4,12.4c0.4,0.4,0.9,0.8,1.3,1.2
		c1.8,1.5,3.9,2.6,6.1,3.3c1.6,0.5,3.3,0.8,5,0.9C482,78,480.6,74.1,478,70.8z"/>
	<path class="st0" d="M99.3,7.5c0.1,3.4,1.2,6.7,3.1,9.7c0.7,1,1.4,1.9,2.3,2.8s1.8,1.6,2.8,2.3c2.9,2,6.3,3,9.7,3.1
		c-0.2-4.5-2-9-5.4-12.4S103.8,7.7,99.3,7.5z"/>
	<path class="st0" d="M333.3,41.8c-3.2-2.7-7.1-4.1-11.1-4.2c0.1,1.7,0.4,3.4,0.9,5c0.7,2.2,1.8,4.2,3.3,6.1
		c0.4,0.5,0.8,0.9,1.2,1.3c3.4,3.4,7.9,5.3,12.4,5.4c-0.2-4.5-2-9-5.4-12.4C334.2,42.6,333.7,42.2,333.3,41.8z"/>
	<path class="st0" d="M402.9,41.2c0.1,3.4,1.2,6.7,3.1,9.7c0.7,1,1.4,1.9,2.3,2.8s1.8,1.6,2.8,2.3c2.9,2,6.3,3,9.7,3.1
		c-0.2-4.5-2-9-5.4-12.4S407.4,41.4,402.9,41.2z"/>
	<path class="st0" d="M420.1,128.7c-0.4-0.5-0.8-0.9-1.2-1.3c-3.4-3.4-7.9-5.3-12.4-5.4c0.2,4.5,2,9,5.4,12.4
		c0.4,0.4,0.9,0.8,1.3,1.2c1.8,1.5,3.9,2.6,6.1,3.3c1.6,0.5,3.3,0.8,5,0.9C424.2,135.8,422.8,131.9,420.1,128.7z"/>
	<path class="st0" d="M2.9,103.9c0.1,3.4,1.2,6.7,3.1,9.7c0.7,1,1.4,1.9,2.3,2.8s1.8,1.6,2.8,2.3c2.9,2,6.3,3,9.7,3.1
		c-0.2-4.5-2-9-5.4-12.4S7.4,104.1,2.9,103.9z"/>
	<path class="st0" d="M439.4,109.4c-0.4-0.5-0.8-0.9-1.2-1.3c-3.4-3.4-7.9-5.3-12.4-5.4c0.2,4.5,2,9,5.4,12.4
		c0.4,0.4,0.9,0.8,1.3,1.2c1.8,1.5,3.9,2.6,6.1,3.3c1.6,0.5,3.3,0.8,5,0.9C443.5,116.5,442.1,112.6,439.4,109.4z"/>
	<path class="st0" d="M60.7,46.1c0.1,3.4,1.2,6.7,3.1,9.7c0.7,1,1.4,1.9,2.3,2.8s1.8,1.6,2.8,2.3c2.9,2,6.3,3,9.7,3.1
		c-0.2-4.5-2-9-5.4-12.4S65.2,46.3,60.7,46.1z"/>
	<path class="st0" d="M22.2,84.6c0.1,3.4,1.2,6.7,3.1,9.7c0.7,1,1.4,1.9,2.3,2.8s1.8,1.6,2.8,2.3c2.9,2,6.3,3,9.7,3.1
		c-0.2-4.5-2-9-5.4-12.4S26.7,84.8,22.2,84.6z"/>
	<path class="st0" d="M41.5,65.4c0.1,3.4,1.2,6.7,3.1,9.7c0.7,1,1.4,1.9,2.3,2.8s1.8,1.6,2.8,2.3c2.9,2,6.3,3,9.7,3.1
		c-0.2-4.5-2-9-5.4-12.4S46,65.5,41.5,65.4z"/>
	<path class="st0" d="M364.3,79.7c0.1,3.4,1.2,6.7,3.1,9.7c0.7,1,1.4,1.9,2.3,2.8s1.8,1.6,2.8,2.3c2.9,2,6.3,3,9.7,3.1
		c-0.2-4.5-2-9-5.4-12.4S368.8,79.9,364.3,79.7z"/>
	<path class="st0" d="M422.2,21.9c0.1,3.4,1.2,6.7,3.1,9.7c0.7,1,1.4,1.9,2.3,2.8s1.8,1.6,2.8,2.3c2.9,2,6.3,3,9.7,3.1
		c-0.2-4.5-2-9-5.4-12.4S426.7,22.1,422.2,21.9z"/>
	<path class="st0" d="M345,99c0.1,3.4,1.2,6.7,3.1,9.7c0.7,1,1.4,1.9,2.3,2.8s1.8,1.6,2.8,2.3c2.9,2,6.3,3,9.7,3.1
		c-0.2-4.5-2-9-5.4-12.4S349.6,99.2,345,99z"/>
	<path class="st0" d="M278,102.2c-0.4-0.5-0.8-0.9-1.2-1.3c-0.4-0.4-0.9-0.8-1.3-1.2c-3.2-2.7-7.1-4.1-11.1-4.2
		c0.1,1.7,0.4,3.4,0.9,5c0.7,2.2,1.8,4.2,3.3,6.1c0.4,0.5,0.8,0.9,1.2,1.3c3.4,3.4,7.9,5.3,12.4,5.4c0-1.1-0.2-2.3-0.4-3.4
		C281.1,107.2,279.9,104.5,278,102.2z"/>
	<path class="st0" d="M314,61.1c-3.2-2.7-7.1-4.1-11.1-4.2c0.1,1.7,0.4,3.4,0.9,5c0.7,2.2,1.8,4.2,3.3,6.1c0.4,0.5,0.8,0.9,1.2,1.3
		c3.4,3.4,7.9,5.3,12.4,5.4c-0.2-4.5-2-9-5.4-12.4C314.9,61.9,314.4,61.5,314,61.1z"/>
	<path class="st0" d="M383.6,60.5c0.1,3.4,1.2,6.7,3.1,9.7c0.7,1,1.4,1.9,2.3,2.8s1.8,1.6,2.8,2.3c2.9,2,6.3,3,9.7,3.1
		c-0.2-4.5-2-9-5.4-12.4S388.1,60.6,383.6,60.5z"/>
	<path class="st0" d="M294.7,80.4c-3.2-2.7-7.1-4.1-11.1-4.2c0.1,1.7,0.4,3.4,0.9,5c0.7,2.2,1.8,4.2,3.3,6.1
		c0.4,0.5,0.8,0.9,1.2,1.3c3.4,3.4,7.9,5.3,12.4,5.4c-0.2-4.5-2-9-5.4-12.4C295.6,81.1,295.2,80.7,294.7,80.4z"/>
	<path class="st0" d="M258.7,121.5c-0.4-0.5-0.8-0.9-1.2-1.3c-0.4-0.4-0.9-0.8-1.3-1.2c-3.2-2.7-7.1-4.1-11.1-4.2
		c0.2,4,1.6,7.9,4.2,11.1c0.4,0.5,0.8,0.9,1.2,1.3c3.4,3.4,7.9,5.3,12.4,5.4c0-1.1-0.2-2.3-0.4-3.4
		C261.8,126.4,260.6,123.8,258.7,121.5z"/>
	<path class="st0" d="M441.4,2.6c0.1,3.4,1.2,6.7,3.1,9.7c0.7,1,1.4,1.9,2.3,2.8s1.8,1.6,2.8,2.3c2.9,2,6.3,3,9.7,3.1
		c-0.2-4.5-2-9-5.4-12.4S446,2.8,441.4,2.6z"/>
	<path class="st0" d="M22.8,15c0.4,0.5,0.8,0.9,1.2,1.3c3.4,3.4,7.9,5.3,12.4,5.4c0-1.1-0.2-2.3-0.4-3.4c-0.6-2.8-1.9-5.4-3.8-7.7
		c-0.4-0.5-0.8-0.9-1.2-1.3c-0.4-0.4-0.9-0.8-1.3-1.2c-3.2-2.7-7.1-4.1-11.1-4.2C18.7,7.9,20.1,11.8,22.8,15z"/>
	<path class="st0" d="M325.8,118.3c0.1,3.4,1.2,6.7,3.1,9.7c0.7,1,1.4,1.9,2.3,2.8s1.8,1.6,2.8,2.3c2.9,2,6.3,3,9.7,3.1
		c-0.2-4.5-2-9-5.4-12.4S330.3,118.5,325.8,118.3z"/>
	<path class="st7" d="M477.2,81c-2.2-0.7-4.2-1.8-6.1-3.3c-0.5-0.4-0.9-0.8-1.3-1.2c-3.4-3.4-5.3-7.9-5.4-12.4
		c-5-0.2-10,1.6-13.9,5.4s-5.6,8.9-5.4,13.9c4.5,0.2,9,2,12.4,5.4c0.4,0.4,0.8,0.9,1.2,1.3c2.7,3.2,4.1,7.1,4.2,11.1
		c1.9,0.1,3.8-0.1,5.6-0.6c3-0.8,5.9-2.4,8.3-4.8c2.9-2.9,4.6-6.4,5.2-10.1c0.1-0.6,0.2-1.2,0.2-1.9c0-0.6,0-1.2,0-1.9
		C480.5,81.9,478.8,81.6,477.2,81z"/>
	<path class="st7" d="M457.9,100.3c-2.2-0.7-4.2-1.8-6.1-3.3c-0.5-0.4-0.9-0.8-1.3-1.2c-3.4-3.4-5.3-7.9-5.4-12.4
		c-5-0.2-10,1.6-13.9,5.4s-5.6,8.9-5.4,13.9c4.5,0.2,9,2,12.4,5.4c0.4,0.4,0.8,0.9,1.2,1.3c2.7,3.2,4.1,7.1,4.2,11.1
		c1.9,0.1,3.8-0.1,5.6-0.6c3-0.8,5.9-2.4,8.3-4.8c2.9-2.9,4.6-6.4,5.2-10.1c0.1-0.6,0.2-1.2,0.2-1.9c0-0.6,0-1.2,0-1.9
		C461.2,101.1,459.5,100.8,457.9,100.3z"/>
	<path class="st7" d="M492.2,126.4c1.1,0.3,2.1,0.8,3.2,1.4c0.5,0.3,1,0.6,1.5,0.9c1,0.7,1.9,1.4,2.8,2.3c0.1,0.1,0.2,0.3,0.4,0.4
		v-24.2c-2.1,0.7-4.1,1.7-5.9,3.2c-0.5,0.4-1,0.9-1.5,1.3l0,0v0l0,0c-1,1-1.8,2-2.5,3.1c-0.4,0.5-0.7,1.1-1,1.7
		c-0.3,0.6-0.5,1.2-0.8,1.7c-0.5,1.2-0.8,2.4-1,3.6c-0.1,0.6-0.2,1.2-0.2,1.9s0,1.2,0,1.9C488.9,125.6,490.6,125.9,492.2,126.4z"/>
	<path class="st7" d="M438.6,119.6c-2.2-0.7-4.2-1.8-6.1-3.3c-0.5-0.4-0.9-0.8-1.3-1.2c-3.4-3.4-5.3-7.9-5.4-12.4
		c-5-0.2-10,1.6-13.9,5.4s-5.6,8.9-5.4,13.9c4.5,0.2,9,2,12.4,5.4c0.4,0.4,0.8,0.9,1.2,1.3c2.7,3.2,4.1,7.1,4.2,11.1
		c1.9,0.1,3.8-0.1,5.6-0.6c3-0.8,5.9-2.4,8.3-4.8c2.9-2.9,4.6-6.4,5.2-10.1c0.1-0.6,0.2-1.2,0.2-1.9c0-0.6,0-1.2,0-1.9
		C441.9,120.4,440.2,120.1,438.6,119.6z"/>
	<path class="st7" d="M468.9,150c0-0.1-0.1-0.1-0.1-0.2c-0.5-1.6-0.8-3.3-0.9-5c-1.2,0-2.5,0-3.7,0.2c-3.1,0.5-6.1,1.8-8.6,3.9
		c-0.4,0.3-0.8,0.7-1.2,1.1H468.9z"/>
	<path class="st7" d="M472.9,145.7c1.1,0.3,2.1,0.8,3.2,1.4c0.5,0.3,1,0.6,1.5,0.9c0.9,0.6,1.7,1.3,2.5,2.1H500v-7.5
		c-2.7-0.9-5.2-2.4-7.4-4.5c-2.2-2.2-3.7-4.7-4.5-7.4c-0.5-1.6-0.8-3.3-0.9-5c-1.2,0-2.5,0-3.7,0.2c-3.1,0.5-6.1,1.8-8.6,3.9
		c-0.5,0.4-1,0.9-1.5,1.3l0,0v0l0,0c-1,1-1.8,2-2.5,3.1c-0.4,0.5-0.7,1.1-1,1.7c-0.3,0.6-0.5,1.2-0.8,1.7c-0.5,1.2-0.8,2.4-1,3.6
		c-0.1,0.6-0.2,1.2-0.2,1.9s0,1.2,0,1.9C469.6,144.8,471.3,145.1,472.9,145.7z"/>
	<polygon class="st7" points="444.2,150 449,145.2 449,145.2 468.3,125.9 468.3,125.9 487.6,106.6 487.6,106.6 500,94.2 500,83.3 
		482.1,101.2 482.1,101.2 462.9,120.5 462.9,120.5 443.6,139.7 443.6,139.7 433.3,150 	"/>
	<path class="st7" d="M419.3,138.9c-2.2-0.7-4.2-1.8-6.1-3.3c-0.5-0.4-0.9-0.8-1.3-1.2c-3.4-3.4-5.3-7.9-5.4-12.4
		c-5-0.2-10,1.6-13.9,5.4s-5.6,8.9-5.4,13.9c4.5,0.2,9,2,12.4,5.4c0.4,0.4,0.8,0.9,1.2,1.3c0.5,0.7,1,1.3,1.4,2h19.4
		c1.2-2,2-4.2,2.4-6.5c0.1-0.6,0.2-1.2,0.2-1.9c0-0.6,0-1.2,0-1.9C422.6,139.7,421,139.4,419.3,138.9z"/>
	<polygon class="st7" points="492,7 472.8,26.2 453.5,45.5 434.2,64.8 414.9,84.1 395.6,103.4 390.6,108.4 376.4,122.6 371.3,127.7 
		357.1,141.9 352,147 349,150 359.9,150 362.5,147.3 376.7,133.1 381.8,128.1 396,113.8 401.1,108.8 420.4,89.5 439.6,70.2 
		458.9,50.9 478.2,31.7 497.5,12.4 500,9.9 500,0 499,0 	"/>
	<path class="st7" d="M441.5,0c-0.1,0.9-0.1,1.8-0.1,2.6c4.5,0.2,9,2,12.4,5.4s5.3,7.9,5.4,12.4c1.2,0,2.5,0,3.7-0.2
		c0.6-0.1,1.2-0.2,1.8-0.4c1.2-0.3,2.4-0.8,3.5-1.4c1.7-0.9,3.3-2,4.7-3.4c3.8-3.8,5.6-8.9,5.4-13.9c-2-0.1-4-0.5-5.9-1.2H441.5z"/>
	<path class="st7" d="M485.9,0h-7.5c0,0.4,0.1,0.8,0.1,1.2c1.2,0,2.5,0,3.7-0.2c0.6-0.1,1.2-0.2,1.8-0.4
		C484.8,0.4,485.3,0.2,485.9,0z"/>
	<path class="st7" d="M446.9,15.1c-0.9-0.9-1.6-1.8-2.3-2.8c-2-2.9-3-6.3-3.1-9.7c-5-0.2-10,1.6-13.9,5.4c-1.4,1.4-2.6,3-3.4,4.7
		c-0.6,1.1-1,2.3-1.4,3.5c-0.2,0.6-0.3,1.2-0.4,1.8c-0.2,1.2-0.3,2.5-0.2,3.7c4.5,0.2,9,2,12.4,5.4s5.3,7.9,5.4,12.4
		c1.2,0,2.5,0,3.7-0.2c0.6-0.1,1.2-0.2,1.8-0.4c1.2-0.3,2.4-0.8,3.5-1.4c1.7-0.9,3.3-2,4.7-3.4c3.8-3.8,5.6-8.9,5.4-13.9
		c-3.4-0.1-6.7-1.2-9.7-3.1C448.7,16.7,447.7,15.9,446.9,15.1z"/>
	<path class="st7" d="M483.6,44.8c4.5,0.2,9,2,12.4,5.4c0.4,0.4,0.8,0.9,1.2,1.3c1.2,1.4,2.1,2.9,2.8,4.5V25.6
		c-4,0.5-7.9,2.2-11,5.3C485.2,34.7,483.4,39.8,483.6,44.8z"/>
	<path class="st7" d="M427.6,34.3c-0.9-0.9-1.6-1.8-2.3-2.8c-2-2.9-3-6.3-3.1-9.7c-5-0.2-10,1.6-13.9,5.4c-1.4,1.4-2.6,3-3.4,4.7
		c-0.6,1.1-1,2.3-1.4,3.5c-0.2,0.6-0.3,1.2-0.4,1.8c-0.2,1.2-0.3,2.5-0.2,3.7c4.5,0.2,9,2,12.4,5.4s5.3,7.9,5.4,12.4
		c1.2,0,2.5,0,3.7-0.2c0.6-0.1,1.2-0.2,1.8-0.4c1.2-0.3,2.4-0.8,3.5-1.4c1.7-0.9,3.3-2,4.7-3.4c3.8-3.8,5.6-8.9,5.4-13.9
		c-3.4-0.1-6.7-1.2-9.7-3.1C429.4,36,428.5,35.2,427.6,34.3z"/>
	<path class="st7" d="M464.3,64.1c4.5,0.2,9,2,12.4,5.4c0.4,0.4,0.8,0.9,1.2,1.3c2.7,3.2,4.1,7.1,4.2,11.1c1.9,0.1,3.8-0.1,5.6-0.6
		c3-0.8,5.9-2.4,8.3-4.8c1.8-1.8,3.1-3.8,4-5.9v-8c-1.2-0.1-2.4-0.4-3.6-0.8c-2.2-0.7-4.2-1.8-6.1-3.3c-0.5-0.4-0.9-0.8-1.3-1.2
		c-3.4-3.4-5.3-7.9-5.4-12.4c-5-0.2-10,1.6-13.9,5.4S464.1,59.1,464.3,64.1z"/>
	<path class="st7" d="M408.3,53.6c-0.9-0.9-1.6-1.8-2.3-2.8c-2-2.9-3-6.3-3.1-9.7c-5-0.2-10,1.6-13.9,5.4c-1.4,1.4-2.6,3-3.4,4.7
		c-0.6,1.1-1,2.3-1.4,3.5c-0.2,0.6-0.3,1.2-0.4,1.8c-0.2,1.2-0.3,2.5-0.2,3.7c4.5,0.2,9,2,12.4,5.4s5.3,7.9,5.4,12.4
		c1.2,0,2.5,0,3.7-0.2c0.6-0.1,1.2-0.2,1.8-0.4c1.2-0.3,2.4-0.8,3.5-1.4c1.7-0.9,3.3-2,4.7-3.4c3.8-3.8,5.6-8.9,5.4-13.9
		c-3.4-0.1-6.7-1.2-9.7-3.1C410.1,55.2,409.2,54.5,408.3,53.6z"/>
	<path class="st7" d="M389,72.9c-0.9-0.9-1.6-1.8-2.3-2.8c-2-2.9-3-6.3-3.1-9.7c-5-0.2-10,1.6-13.9,5.4c-1.4,1.4-2.6,3-3.4,4.7
		c-0.6,1.1-1,2.3-1.4,3.5c-0.2,0.6-0.3,1.2-0.4,1.8c-0.2,1.2-0.3,2.5-0.2,3.7c4.5,0.2,9,2,12.4,5.4s5.3,7.9,5.4,12.4
		c1.2,0,2.5,0,3.7-0.2c0.6-0.1,1.2-0.2,1.8-0.4c1.2-0.3,2.4-0.8,3.5-1.4c1.7-0.9,3.3-2,4.7-3.4c3.8-3.8,5.6-8.9,5.4-13.9
		c-3.4-0.1-6.7-1.2-9.7-3.1C390.8,74.5,389.9,73.8,389,72.9z"/>
	<path class="st7" d="M369.7,92.2c-0.9-0.9-1.6-1.8-2.3-2.8c-2-2.9-3-6.3-3.1-9.7c-5-0.2-10,1.6-13.9,5.4c-1.4,1.4-2.6,3-3.4,4.7
		c-0.6,1.1-1,2.3-1.4,3.5c-0.2,0.6-0.3,1.2-0.4,1.8c-0.2,1.2-0.3,2.5-0.2,3.7c4.5,0.2,9,2,12.4,5.4s5.3,7.9,5.4,12.4
		c1.2,0,2.5,0,3.7-0.2c0.6-0.1,1.2-0.2,1.8-0.4c1.2-0.3,2.4-0.8,3.5-1.4c1.7-0.9,3.3-2,4.7-3.4c3.8-3.8,5.6-8.9,5.4-13.9
		c-3.4-0.1-6.7-1.2-9.7-3.1C371.5,93.8,370.6,93,369.7,92.2z"/>
	<path class="st7" d="M350.5,111.5c-0.9-0.9-1.6-1.8-2.3-2.8c-2-2.9-3-6.3-3.1-9.7c-5-0.2-10,1.6-13.9,5.4c-1.4,1.4-2.6,3-3.4,4.7
		c-0.6,1.1-1,2.3-1.4,3.5c-0.2,0.6-0.3,1.2-0.4,1.8c-0.2,1.2-0.3,2.5-0.2,3.7c4.5,0.2,9,2,12.4,5.4s5.3,7.9,5.4,12.4
		c1.2,0,2.5,0,3.7-0.2c0.6-0.1,1.2-0.2,1.8-0.4c1.2-0.3,2.4-0.8,3.5-1.4c1.7-0.9,3.3-2,4.7-3.4c3.8-3.8,5.6-8.9,5.4-13.9
		c-3.4-0.1-6.7-1.2-9.7-3.1C352.3,113.1,351.3,112.3,350.5,111.5z"/>
	<path class="st7" d="M331.2,130.7c-0.9-0.9-1.6-1.8-2.3-2.8c-2-2.9-3-6.3-3.1-9.7c-5-0.2-10,1.6-13.9,5.4c-1.4,1.4-2.6,3-3.4,4.7
		c-0.6,1.1-1,2.3-1.4,3.5c-0.2,0.6-0.3,1.2-0.4,1.8c-0.2,1.2-0.3,2.5-0.2,3.7c4.5,0.2,9,2,12.4,5.4c2,2,3.5,4.4,4.4,7h14.9
		c3.8-3.8,5.6-8.8,5.4-13.8c-3.4-0.1-6.7-1.2-9.7-3.1C333,132.4,332.1,131.6,331.2,130.7z"/>
	<path class="st7" d="M370.7,150h19.1c-1.6-2.7-2.5-5.7-2.6-8.8c-5-0.2-10,1.6-13.9,5.4C372.3,147.7,371.4,148.8,370.7,150z"/>
	<polygon class="st7" points="414.7,0 397.8,16.9 397.8,16.9 378.5,36.1 378.5,36.1 359.3,55.4 359.3,55.4 340,74.7 340,74.7 
		320.7,94 320.7,94 301.4,113.3 301.4,113.3 282.1,132.5 282.1,132.5 264.7,150 275.5,150 276.7,148.8 281.8,143.8 296,129.5 
		301.1,124.5 315.3,110.2 320.4,105.2 334.6,91 339.6,85.9 353.9,71.7 358.9,66.6 378.2,47.4 397.5,28.1 416.8,8.8 425.5,0 	"/>
	<path class="st7" d="M366,0c2.1,0.7,4.1,1.8,5.9,3.2c0.5,0.4,0.9,0.8,1.3,1.2c3.4,3.4,5.3,7.9,5.4,12.4c5,0.2,10-1.6,13.9-5.4
		c3.2-3.2,5-7.3,5.3-11.5H366z"/>
	<path class="st7" d="M289.2,147.8c-0.4,0.7-0.7,1.5-0.9,2.2h23.6c-0.9-0.9-1.6-1.8-2.3-2.7c-2-2.9-3-6.3-3.1-9.7
		c-5-0.2-10,1.6-13.9,5.4C291.2,144.4,290.1,146,289.2,147.8z"/>
	<path class="st7" d="M364.9,10.1c-1.5-1.8-2.6-3.9-3.3-6.1c-0.4-1.3-0.7-2.7-0.8-4h-6.7c-2.6,0.9-5.1,2.4-7.2,4.5
		c-2.4,2.4-4,5.2-4.8,8.3c-0.5,1.8-0.7,3.7-0.6,5.6c4,0.2,7.9,1.6,11.1,4.2c0.5,0.4,0.9,0.8,1.3,1.2c3.4,3.4,5.3,7.9,5.4,12.4
		c5,0.2,10-1.6,13.9-5.4s5.6-8.9,5.4-13.9c-4.5-0.2-9-2-12.4-5.4C365.7,11,365.3,10.6,364.9,10.1z"/>
	<path class="st7" d="M345.7,29.4c-1.5-1.8-2.6-3.9-3.3-6.1c-0.5-1.6-0.8-3.3-0.9-5c-0.6,0-1.2,0-1.9,0c-0.6,0-1.2,0.1-1.9,0.2
		c-3.7,0.6-7.3,2.3-10.1,5.2c-2.4,2.4-4,5.2-4.8,8.3c-0.5,1.8-0.7,3.7-0.6,5.6c4,0.2,7.9,1.6,11.1,4.2c0.5,0.4,0.9,0.8,1.3,1.2
		c3.4,3.4,5.3,7.9,5.4,12.4c5,0.2,10-1.6,13.9-5.4s5.6-8.9,5.4-13.9c-4.5-0.2-9-2-12.4-5.4C346.4,30.3,346,29.9,345.7,29.4z"/>
	<path class="st7" d="M301.6,13.1c1.2-0.2,2.5-0.5,3.6-1c0.6-0.2,1.2-0.5,1.7-0.8c0.6-0.3,1.1-0.6,1.7-1c1.1-0.7,2.1-1.5,3.1-2.5
		l0,0h0l0,0c0.5-0.5,0.9-1,1.3-1.5c1.6-1.9,2.7-4.1,3.3-6.4h-24.9c0.3,0.3,0.6,0.6,0.9,0.9c0.9,0.9,1.6,1.8,2.3,2.8
		c0.3,0.5,0.6,1,0.9,1.5c0.6,1,1,2.1,1.4,3.2c0.5,1.6,0.8,3.3,0.9,5c0.6,0,1.2,0,1.9,0S301,13.2,301.6,13.1z"/>
	<path class="st7" d="M326.4,48.7c-1.5-1.8-2.6-3.9-3.3-6.1c-0.5-1.6-0.8-3.3-0.9-5c-0.6,0-1.2,0-1.9,0c-0.6,0-1.2,0.1-1.9,0.2
		c-3.7,0.6-7.3,2.3-10.1,5.2c-2.4,2.4-4,5.2-4.8,8.3c-0.5,1.8-0.7,3.7-0.6,5.6c4,0.2,7.9,1.6,11.1,4.2c0.5,0.4,0.9,0.8,1.3,1.2
		c3.4,3.4,5.3,7.9,5.4,12.4c5,0.2,10-1.6,13.9-5.4s5.6-8.9,5.4-13.9c-4.5-0.2-9-2-12.4-5.4C327.2,49.6,326.8,49.1,326.4,48.7z"/>
	<path class="st7" d="M307.1,68c-1.5-1.8-2.6-3.9-3.3-6.1c-0.5-1.6-0.8-3.3-0.9-5c-0.6,0-1.2,0-1.9,0c-0.6,0-1.2,0.1-1.9,0.2
		c-3.7,0.6-7.3,2.3-10.1,5.2c-2.4,2.4-4,5.2-4.8,8.3c-0.5,1.8-0.7,3.7-0.6,5.6c4,0.2,7.9,1.6,11.1,4.2c0.5,0.4,0.9,0.8,1.3,1.2
		c3.4,3.4,5.3,7.9,5.4,12.4c5,0.2,10-1.6,13.9-5.4s5.6-8.9,5.4-13.9c-4.5-0.2-9-2-12.4-5.4C307.9,68.9,307.5,68.4,307.1,68z"/>
	<path class="st7" d="M287.8,87.2c-1.5-1.8-2.6-3.9-3.3-6.1c-0.5-1.6-0.8-3.3-0.9-5c-0.6,0-1.2,0-1.9,0c-0.6,0-1.2,0.1-1.9,0.2
		c-3.7,0.6-7.3,2.3-10.1,5.2c-2.4,2.4-4,5.2-4.8,8.3c-0.5,1.8-0.7,3.7-0.6,5.6c4,0.2,7.9,1.6,11.1,4.2c0.5,0.4,0.9,0.8,1.3,1.2
		c0.4,0.4,0.8,0.9,1.2,1.3c1.9,2.3,3.2,5,3.8,7.7c0.2,1.1,0.4,2.2,0.4,3.4c5,0.2,10-1.6,13.9-5.4s5.6-8.9,5.4-13.9
		c-4.5-0.2-9-2-12.4-5.4C288.6,88.2,288.2,87.7,287.8,87.2z"/>
	<path class="st7" d="M268.5,106.5c-1.5-1.8-2.6-3.9-3.3-6.1c-0.5-1.6-0.8-3.3-0.9-5c-0.6,0-1.2,0-1.9,0c-0.6,0-1.2,0.1-1.9,0.2
		c-3.7,0.6-7.3,2.3-10.1,5.2c-2.4,2.4-4,5.2-4.8,8.3c-0.5,1.8-0.7,3.7-0.6,5.6c4,0.2,7.9,1.6,11.1,4.2c0.5,0.4,0.9,0.8,1.3,1.2
		c0.4,0.4,0.8,0.9,1.2,1.3c1.9,2.3,3.2,5,3.8,7.7c0.2,1.1,0.4,2.2,0.4,3.4c5,0.2,10-1.6,13.9-5.4s5.6-8.9,5.4-13.9
		c-4.5-0.2-9-2-12.4-5.4C269.3,107.4,268.9,107,268.5,106.5z"/>
	<path class="st7" d="M249.3,125.8c-2.7-3.2-4.1-7.1-4.2-11.1c-0.6,0-1.2,0-1.9,0c-0.6,0-1.2,0.1-1.9,0.2c-3.7,0.6-7.3,2.3-10.1,5.2
		c-2.4,2.4-4,5.2-4.8,8.3c-0.5,1.8-0.7,3.7-0.6,5.6c4,0.2,7.9,1.6,11.1,4.2c0.5,0.4,0.9,0.8,1.3,1.2c0.4,0.4,0.8,0.9,1.2,1.3
		c1.9,2.3,3.2,5,3.8,7.7c0.1,0.5,0.2,1,0.3,1.5h9c1.8-0.9,3.5-2.1,5-3.6c3.8-3.8,5.6-8.9,5.4-13.9c-4.5-0.2-9-2-12.4-5.4
		C250,126.7,249.6,126.3,249.3,125.8z"/>
	<path class="st7" d="M222,134.2c-3.7,0.6-7.3,2.3-10.1,5.2c-2.4,2.4-4,5.2-4.8,8.3c-0.2,0.8-0.3,1.5-0.4,2.3h29.6
		c-1.8-0.9-3.5-2.1-5.1-3.6c-0.4-0.4-0.8-0.9-1.2-1.3c-2.7-3.2-4.1-7.1-4.2-11.1c-0.6,0-1.2,0-1.9,0
		C223.3,134.1,222.6,134.1,222,134.2z"/>
	<polygon class="st7" points="180.4,150 191.2,150 206.9,134.4 206.9,134.4 226.1,115.1 226.1,115.1 245.4,95.8 245.4,95.8 
		264.7,76.5 264.7,76.5 284,57.2 284,57.2 303.3,38 303.3,38 322.5,18.7 322.5,18.7 341.2,0 330.4,0 311.3,19 306.3,24.1 292,38.3 
		287,43.4 272.8,57.6 267.7,62.7 253.5,76.9 248.4,81.9 234.2,96.2 229.1,101.2 214.9,115.4 209.9,120.5 195.6,134.7 190.6,139.8 	
		"/>
	<path class="st7" d="M265.7,15.6c1.1,0.3,2.1,0.8,3.2,1.4c0.5,0.3,1,0.6,1.5,0.9c1,0.7,1.9,1.4,2.8,2.3s1.6,1.8,2.3,2.8
		c0.3,0.5,0.6,1,0.9,1.5c0.6,1,1,2.1,1.4,3.2c0.5,1.6,0.8,3.3,0.9,5c0.6,0,1.2,0,1.9,0s1.2-0.1,1.9-0.2c1.2-0.2,2.5-0.5,3.6-1
		c0.6-0.2,1.2-0.5,1.7-0.8c0.6-0.3,1.1-0.6,1.7-1c1.1-0.7,2.1-1.5,3.1-2.5l0,0h0l0,0c0.5-0.5,0.9-1,1.3-1.5c2.1-2.6,3.4-5.5,3.9-8.6
		c0.2-1.2,0.3-2.5,0.2-3.7c-1.7-0.1-3.4-0.4-5-0.9c-2.7-0.9-5.3-2.4-7.4-4.5c-2.2-2.2-3.7-4.7-4.5-7.4c0-0.1-0.1-0.3-0.1-0.4h-13.7
		c-0.3,0.3-0.7,0.6-1,0.9l0,0v0l0,0c-1,1-1.8,2-2.5,3.1c-0.4,0.5-0.7,1.1-1,1.7c-0.3,0.6-0.5,1.2-0.8,1.7c-0.5,1.2-0.8,2.4-1,3.6
		c-0.1,0.6-0.2,1.2-0.2,1.9s0,1.2,0,1.9C262.4,14.8,264.1,15.1,265.7,15.6z"/>
	<path class="st7" d="M222.7,9.1c3-0.8,5.9-2.4,8.3-4.8c1.3-1.3,2.3-2.7,3.2-4.3H214c2,2.9,3,6.3,3.2,9.7
		C219,9.8,220.9,9.6,222.7,9.1z"/>
	<path class="st7" d="M246.5,34.9c1.1,0.3,2.1,0.8,3.2,1.4c0.5,0.3,1,0.6,1.5,0.9c1,0.7,1.9,1.4,2.8,2.3s1.6,1.8,2.3,2.8
		c0.3,0.5,0.6,1,0.9,1.5c0.6,1,1,2.1,1.4,3.2c0.5,1.6,0.8,3.3,0.9,5c0.6,0,1.2,0,1.9,0s1.2-0.1,1.9-0.2c1.2-0.2,2.5-0.5,3.6-1
		c0.6-0.2,1.2-0.5,1.7-0.8c0.6-0.3,1.1-0.6,1.7-1c1.1-0.7,2.1-1.5,3.1-2.5l0,0h0l0,0c0.5-0.5,0.9-1,1.3-1.5c2.1-2.6,3.4-5.5,3.9-8.6
		c0.2-1.2,0.3-2.5,0.2-3.7c-1.7-0.1-3.4-0.4-5-0.9c-2.7-0.9-5.3-2.4-7.4-4.5c-2.2-2.2-3.7-4.7-4.5-7.4c-0.5-1.6-0.8-3.3-0.9-5
		c-1.2,0-2.5,0-3.7,0.2c-3.1,0.5-6.1,1.8-8.6,3.9c-0.5,0.4-1,0.9-1.5,1.3l0,0v0l0,0c-1,1-1.8,2-2.5,3.1c-0.4,0.5-0.7,1.1-1,1.7
		c-0.3,0.6-0.5,1.2-0.8,1.7c-0.5,1.2-0.8,2.4-1,3.6c-0.1,0.6-0.2,1.2-0.2,1.9s0,1.2,0,1.9C243.1,34.1,244.8,34.4,246.5,34.9z"/>
	<path class="st7" d="M227.2,54.2c1.1,0.3,2.1,0.8,3.2,1.4c0.5,0.3,1,0.6,1.5,0.9c1,0.7,1.9,1.4,2.8,2.3s1.6,1.8,2.3,2.8
		c0.3,0.5,0.6,1,0.9,1.5c0.6,1,1,2.1,1.4,3.2c0.5,1.6,0.8,3.3,0.9,5c0.6,0,1.2,0,1.9,0s1.2-0.1,1.9-0.2c1.2-0.2,2.5-0.5,3.6-1
		c0.6-0.2,1.2-0.5,1.7-0.8c0.6-0.3,1.1-0.6,1.7-1c1.1-0.7,2.1-1.5,3.1-2.5l0,0h0l0,0c0.5-0.5,0.9-1,1.3-1.5c2.1-2.6,3.4-5.5,3.9-8.6
		c0.2-1.2,0.3-2.5,0.2-3.7c-1.7-0.1-3.4-0.4-5-0.9c-2.7-0.9-5.3-2.4-7.4-4.5c-2.2-2.2-3.7-4.7-4.5-7.4c-0.5-1.6-0.8-3.3-0.9-5
		c-1.2,0-2.5,0-3.7,0.2c-3.1,0.5-6.1,1.8-8.6,3.9c-0.5,0.4-1,0.9-1.5,1.3l0,0v0l0,0c-1,1-1.8,2-2.5,3.1c-0.4,0.5-0.7,1.1-1,1.7
		c-0.3,0.6-0.5,1.2-0.8,1.7c-0.5,1.2-0.8,2.4-1,3.6c-0.1,0.6-0.2,1.2-0.2,1.9s0,1.2,0,1.9C223.9,53.3,225.5,53.6,227.2,54.2z"/>
	<path class="st7" d="M207.9,73.4c1.1,0.3,2.1,0.8,3.2,1.4c0.5,0.3,1,0.6,1.5,0.9c1,0.7,1.9,1.4,2.8,2.3s1.6,1.8,2.3,2.8
		c0.3,0.5,0.6,1,0.9,1.5c0.6,1,1,2.1,1.4,3.2c0.5,1.6,0.8,3.3,0.9,5c0.6,0,1.2,0,1.9,0s1.2-0.1,1.9-0.2c1.2-0.2,2.5-0.5,3.6-1
		c0.6-0.2,1.2-0.5,1.7-0.8c0.6-0.3,1.1-0.6,1.7-1c1.1-0.7,2.1-1.5,3.1-2.5l0,0h0l0,0c0.5-0.5,0.9-1,1.3-1.5c2.1-2.6,3.4-5.5,3.9-8.6
		c0.2-1.2,0.3-2.5,0.2-3.7c-1.7-0.1-3.4-0.4-5-0.9c-2.7-0.9-5.3-2.4-7.4-4.5c-2.2-2.2-3.7-4.7-4.5-7.4c-0.5-1.6-0.8-3.3-0.9-5
		c-1.2,0-2.5,0-3.7,0.2c-3.1,0.5-6.1,1.8-8.6,3.9c-0.5,0.4-1,0.9-1.5,1.3l0,0v0l0,0c-1,1-1.8,2-2.5,3.1c-0.4,0.5-0.7,1.1-1,1.7
		c-0.3,0.6-0.5,1.2-0.8,1.7c-0.5,1.2-0.8,2.4-1,3.6c-0.1,0.6-0.2,1.2-0.2,1.9s0,1.2,0,1.9C204.6,72.6,206.3,72.9,207.9,73.4z"/>
	<path class="st7" d="M188.6,92.7c1.1,0.3,2.1,0.8,3.2,1.4c0.5,0.3,1,0.6,1.5,0.9c1,0.7,1.9,1.4,2.8,2.3s1.6,1.8,2.3,2.8
		c0.3,0.5,0.6,1,0.9,1.5c0.6,1,1,2.1,1.4,3.2c0.5,1.6,0.8,3.3,0.9,5c0.6,0,1.2,0,1.9,0s1.2-0.1,1.9-0.2c1.2-0.2,2.5-0.5,3.6-1
		c0.6-0.2,1.2-0.5,1.7-0.8c0.6-0.3,1.1-0.6,1.7-1c1.1-0.7,2.1-1.5,3.1-2.5l0,0h0l0,0c0.5-0.5,0.9-1,1.3-1.5c2.1-2.6,3.4-5.5,3.9-8.6
		c0.2-1.2,0.3-2.5,0.2-3.7c-1.7-0.1-3.4-0.4-5-0.9c-2.7-0.9-5.3-2.4-7.4-4.5c-2.2-2.2-3.7-4.7-4.5-7.4c-0.5-1.6-0.8-3.3-0.9-5
		c-1.2,0-2.5,0-3.7,0.2c-3.1,0.5-6.1,1.8-8.6,3.9c-0.5,0.4-1,0.9-1.5,1.3l0,0v0l0,0c-1,1-1.8,2-2.5,3.1c-0.4,0.5-0.7,1.1-1,1.7
		c-0.3,0.6-0.5,1.2-0.8,1.7c-0.5,1.2-0.8,2.4-1,3.6c-0.1,0.6-0.2,1.2-0.2,1.9s0,1.2,0,1.9C185.3,91.9,187,92.2,188.6,92.7z"/>
	<path class="st7" d="M169.3,112c1.1,0.3,2.1,0.8,3.2,1.4c0.5,0.3,1,0.6,1.5,0.9c1,0.7,1.9,1.4,2.8,2.3s1.6,1.8,2.3,2.8
		c0.3,0.5,0.6,1,0.9,1.5c0.6,1,1,2.1,1.4,3.2c0.5,1.6,0.8,3.3,0.9,5c0.6,0,1.2,0,1.9,0s1.2-0.1,1.9-0.2c1.2-0.2,2.5-0.5,3.6-1
		c0.6-0.2,1.2-0.5,1.7-0.8c0.6-0.3,1.1-0.6,1.7-1c1.1-0.7,2.1-1.5,3.1-2.5l0,0h0l0,0c0.5-0.5,0.9-1,1.3-1.5c2.1-2.6,3.4-5.5,3.9-8.6
		c0.2-1.2,0.3-2.5,0.2-3.7c-1.7-0.1-3.4-0.4-5-0.9c-2.7-0.9-5.3-2.4-7.4-4.5c-2.2-2.2-3.7-4.7-4.5-7.4c-0.5-1.6-0.8-3.3-0.9-5
		c-1.2,0-2.5,0-3.7,0.2c-3.1,0.5-6.1,1.8-8.6,3.9c-0.5,0.4-1,0.9-1.5,1.3l0,0v0l0,0c-1,1-1.8,2-2.5,3.1c-0.4,0.5-0.7,1.1-1,1.7
		c-0.3,0.6-0.5,1.2-0.8,1.7c-0.5,1.2-0.8,2.4-1,3.6c-0.1,0.6-0.2,1.2-0.2,1.9s0,1.2,0,1.9C166,111.2,167.7,111.5,169.3,112z"/>
	<path class="st7" d="M150.1,131.3c1.1,0.3,2.1,0.8,3.2,1.4c0.5,0.3,1,0.6,1.5,0.9c1,0.7,1.9,1.4,2.8,2.3s1.6,1.8,2.3,2.8
		c0.3,0.5,0.6,1,0.9,1.5c0.6,1,1,2.1,1.4,3.2c0.5,1.6,0.8,3.3,0.9,5c0.6,0,1.2,0,1.9,0s1.2-0.1,1.9-0.2c1.2-0.2,2.5-0.5,3.6-1
		c0.6-0.2,1.2-0.5,1.7-0.8c0.6-0.3,1.1-0.6,1.7-1c1.1-0.7,2.1-1.5,3.1-2.5l0,0h0l0,0c0.5-0.5,0.9-1,1.3-1.5c2.1-2.6,3.4-5.5,3.9-8.6
		c0.2-1.2,0.3-2.5,0.2-3.7c-1.7-0.1-3.4-0.4-5-0.9c-2.7-0.9-5.3-2.4-7.4-4.5c-2.2-2.2-3.7-4.7-4.5-7.4c-0.5-1.6-0.8-3.3-0.9-5
		c-1.2,0-2.5,0-3.7,0.2c-3.1,0.5-6.1,1.8-8.6,3.9c-0.5,0.4-1,0.9-1.5,1.3l0,0v0l0,0c-1,1-1.8,2-2.5,3.1c-0.4,0.5-0.7,1.1-1,1.7
		c-0.3,0.6-0.5,1.2-0.8,1.7c-0.5,1.2-0.8,2.4-1,3.6c-0.1,0.6-0.2,1.2-0.2,1.9s0,1.2,0,1.9C146.7,130.5,148.4,130.8,150.1,131.3z"/>
	<path class="st7" d="M125.8,150c0-0.1,0-0.2,0-0.3c-1.2,0-2.5,0-3.7,0.2c-0.1,0-0.3,0.1-0.4,0.1H125.8z"/>
	<path class="st7" d="M128.5,150h34.4c0-0.6,0-1.2,0-1.7c-1.7-0.1-3.4-0.4-5-0.9c-2.7-0.9-5.3-2.4-7.4-4.5c-2.2-2.2-3.7-4.7-4.5-7.4
		c-0.5-1.6-0.8-3.3-0.9-5c-1.2,0-2.5,0-3.7,0.2c-3.1,0.5-6.1,1.8-8.6,3.9c-0.5,0.4-1,0.9-1.5,1.3l0,0v0l0,0c-1,1-1.8,2-2.5,3.1
		c-0.4,0.5-0.7,1.1-1,1.7c-0.3,0.6-0.5,1.2-0.8,1.7c-0.5,1.2-0.8,2.4-1,3.6c-0.1,0.6-0.2,1.2-0.2,1.9s0,1.2,0,1.9
		C126.7,149.7,127.6,149.8,128.5,150z"/>
	<polygon class="st7" points="106.9,150 126.1,130.8 126.1,130.8 145.4,111.5 145.4,111.5 164.7,92.2 164.7,92.2 184,72.9 184,72.9 
		203.3,53.7 203.3,53.7 222.5,34.4 222.5,34.4 241.8,15.1 241.8,15.1 256.9,0 246.1,0 244.8,1.2 236.4,9.7 236.4,9.7 217.1,28.9 
		217.1,28.9 197.8,48.2 197.8,48.2 178.6,67.5 178.6,67.5 159.3,86.8 159.3,86.8 140,106.1 140,106.1 120.7,125.3 120.7,125.3 
		101.4,144.6 101.4,144.6 96.1,150 	"/>
	<path class="st7" d="M82.2,146.5c0-0.6,0-1.2,0-1.9c-4-0.2-7.9-1.6-11.1-4.2c-0.5-0.4-0.9-0.8-1.3-1.2c-3.4-3.4-5.3-7.9-5.4-12.4
		c-5-0.2-10,1.6-13.9,5.4s-5.6,8.9-5.4,13.9c1.1,0,2.3,0.2,3.4,0.4c2.6,0.6,5.1,1.8,7.3,3.5h25.9c0.1-0.5,0.3-1.1,0.3-1.6
		C82.1,147.8,82.1,147.2,82.2,146.5z"/>
	<path class="st7" d="M191.1,15.3c0.5,0.4,0.9,0.8,1.3,1.2c0.4,0.4,0.8,0.9,1.2,1.3c2.7,3.2,4.1,7.1,4.2,11.1
		c1.9,0.1,3.8-0.1,5.6-0.6c3-0.8,5.9-2.4,8.3-4.8c2.9-2.9,4.6-6.4,5.2-10.1c0.1-0.6,0.2-1.2,0.2-1.9c0-0.6,0-1.2,0-1.9
		c-1.7-0.1-3.4-0.4-5-0.9c-2.2-0.7-4.2-1.8-6.1-3.3c-0.5-0.4-0.9-0.8-1.3-1.2c-1.3-1.3-2.4-2.7-3.2-4.3h-18.3
		c-2.3,3.3-3.3,7.2-3.2,11.1c1.1,0,2.3,0.2,3.4,0.4C186.1,12.2,188.8,13.4,191.1,15.3z"/>
	<path class="st7" d="M136.4,6.1C133,6,129.7,4.9,126.8,3c-1-0.7-1.9-1.4-2.8-2.3c-0.2-0.2-0.4-0.4-0.6-0.7h-22.8
		c-0.3,0.6-0.5,1.3-0.7,1.9c-0.2,0.6-0.3,1.2-0.4,1.8c-0.2,1.2-0.3,2.5-0.2,3.7c4.5,0.2,9,2,12.4,5.4s5.3,7.9,5.4,12.4
		c1.2,0,2.5,0,3.7-0.2c0.6-0.1,1.2-0.2,1.8-0.4c1.2-0.3,2.4-0.8,3.5-1.4c1.7-0.9,3.3-2,4.7-3.4C134.8,16.1,136.6,11.1,136.4,6.1z"/>
	<path class="st7" d="M142,5.5c1.2-0.3,2.4-0.8,3.5-1.4c1.7-0.9,3.3-2,4.7-3.4c0.2-0.2,0.4-0.4,0.6-0.7h-15.7c0.8,2,1.2,4,1.3,6.1
		c1.2,0,2.5,0,3.7-0.2C140.8,5.8,141.4,5.6,142,5.5z"/>
	<path class="st7" d="M171.8,34.6c0.5,0.4,0.9,0.8,1.3,1.2c0.4,0.4,0.8,0.9,1.2,1.3c2.7,3.2,4.1,7.1,4.2,11.1
		c1.9,0.1,3.8-0.1,5.6-0.6c3-0.8,5.9-2.4,8.3-4.8c2.9-2.9,4.6-6.4,5.2-10.1c0.1-0.6,0.2-1.2,0.2-1.9c0-0.6,0-1.2,0-1.9
		c-1.7-0.1-3.4-0.4-5-0.9c-2.2-0.7-4.2-1.8-6.1-3.3c-0.5-0.4-0.9-0.8-1.3-1.2c-3.4-3.4-5.3-7.9-5.4-12.4c-5-0.2-10,1.6-13.9,5.4
		s-5.6,8.9-5.4,13.9c1.1,0,2.3,0.2,3.4,0.4C166.9,31.5,169.5,32.7,171.8,34.6z"/>
	<path class="st7" d="M104.7,20c-0.9-0.9-1.6-1.8-2.3-2.8c-2-2.9-3-6.3-3.1-9.7c-5-0.2-10,1.6-13.9,5.4c-1.4,1.4-2.6,3-3.4,4.7
		c-0.6,1.1-1,2.3-1.4,3.5c-0.2,0.6-0.3,1.2-0.4,1.8C80,24.3,80,25.6,80,26.8c4.5,0.2,9,2,12.4,5.4s5.3,7.9,5.4,12.4
		c1.2,0,2.5,0,3.7-0.2c0.6-0.1,1.2-0.2,1.8-0.4c1.2-0.3,2.4-0.8,3.5-1.4c1.7-0.9,3.3-2,4.7-3.4c3.8-3.8,5.6-8.9,5.4-13.9
		c-3.4-0.1-6.7-1.2-9.7-3.1C106.5,21.6,105.6,20.8,104.7,20z"/>
	<path class="st7" d="M152.5,53.9c0.5,0.4,0.9,0.8,1.3,1.2c0.4,0.4,0.8,0.9,1.2,1.3c2.7,3.2,4.1,7.1,4.2,11.1
		c1.9,0.1,3.8-0.1,5.6-0.6c3-0.8,5.9-2.4,8.3-4.8c2.9-2.9,4.6-6.4,5.2-10.1c0.1-0.6,0.2-1.2,0.2-1.9c0-0.6,0-1.2,0-1.9
		c-1.7-0.1-3.4-0.4-5-0.9c-2.2-0.7-4.2-1.8-6.1-3.3c-0.5-0.4-0.9-0.8-1.3-1.2c-3.4-3.4-5.3-7.9-5.4-12.4c-5-0.2-10,1.6-13.9,5.4
		s-5.6,8.9-5.4,13.9c1.1,0,2.3,0.2,3.4,0.4C147.6,50.7,150.2,52,152.5,53.9z"/>
	<path class="st7" d="M85.4,39.2c-0.9-0.9-1.6-1.8-2.3-2.8c-2-2.9-3-6.3-3.1-9.7c-5-0.2-10,1.6-13.9,5.4c-1.4,1.4-2.6,3-3.4,4.7
		c-0.6,1.1-1,2.3-1.4,3.5c-0.2,0.6-0.3,1.2-0.4,1.8c-0.2,1.2-0.3,2.5-0.2,3.7c4.5,0.2,9,2,12.4,5.4s5.3,7.9,5.4,12.4
		c1.2,0,2.5,0,3.7-0.2c0.6-0.1,1.2-0.2,1.8-0.4c1.2-0.3,2.4-0.8,3.5-1.4c1.7-0.9,3.3-2,4.7-3.4c3.8-3.8,5.6-8.9,5.4-13.9
		c-3.4-0.1-6.7-1.2-9.7-3.1C87.2,40.9,86.3,40.1,85.4,39.2z"/>
	<path class="st7" d="M133.3,73.2c0.5,0.4,0.9,0.8,1.3,1.2c0.4,0.4,0.8,0.9,1.2,1.3c2.7,3.2,4.1,7.1,4.2,11.1
		c1.9,0.1,3.8-0.1,5.6-0.6c3-0.8,5.9-2.4,8.3-4.8c2.9-2.9,4.6-6.4,5.2-10.1c0.1-0.6,0.2-1.2,0.2-1.9c0-0.6,0-1.2,0-1.9
		c-1.7-0.1-3.4-0.4-5-0.9c-2.2-0.7-4.2-1.8-6.1-3.3c-0.5-0.4-0.9-0.8-1.3-1.2c-3.4-3.4-5.3-7.9-5.4-12.4c-5-0.2-10,1.6-13.9,5.4
		S122,64,122.2,69c1.1,0,2.3,0.2,3.4,0.4C128.3,70,131,71.3,133.3,73.2z"/>
	<path class="st7" d="M66.2,58.5c-0.9-0.9-1.6-1.8-2.3-2.8c-2-2.9-3-6.3-3.1-9.7c-5-0.2-10,1.6-13.9,5.4c-1.4,1.4-2.6,3-3.4,4.7
		c-0.6,1.1-1,2.3-1.4,3.5c-0.2,0.6-0.3,1.2-0.4,1.8c-0.2,1.2-0.3,2.5-0.2,3.7c4.5,0.2,9,2,12.4,5.4s5.3,7.9,5.4,12.4
		c1.2,0,2.5,0,3.7-0.2c0.6-0.1,1.2-0.2,1.8-0.4c1.2-0.3,2.4-0.8,3.5-1.4c1.7-0.9,3.3-2,4.7-3.4c3.8-3.8,5.6-8.9,5.4-13.9
		c-3.4-0.1-6.7-1.2-9.7-3.1C67.9,60.1,67,59.4,66.2,58.5z"/>
	<path class="st7" d="M114,92.4c0.5,0.4,0.9,0.8,1.3,1.2c0.4,0.4,0.8,0.9,1.2,1.3c2.7,3.2,4.1,7.1,4.2,11.1c1.9,0.1,3.8-0.1,5.6-0.6
		c3-0.8,5.9-2.4,8.3-4.8c2.9-2.9,4.6-6.4,5.2-10.1c0.1-0.6,0.2-1.2,0.2-1.9c0-0.6,0-1.2,0-1.9c-1.7-0.1-3.4-0.4-5-0.9
		c-2.2-0.7-4.2-1.8-6.1-3.3c-0.5-0.4-0.9-0.8-1.3-1.2c-3.4-3.4-5.3-7.9-5.4-12.4c-5-0.2-10,1.6-13.9,5.4s-5.6,8.9-5.4,13.9
		c1.1,0,2.3,0.2,3.4,0.4C109,89.3,111.7,90.6,114,92.4z"/>
	<path class="st7" d="M46.9,77.8C46,76.9,45.3,76,44.6,75c-2-2.9-3-6.3-3.1-9.7c-5-0.2-10,1.6-13.9,5.4c-1.4,1.4-2.6,3-3.4,4.7
		c-0.6,1.1-1,2.3-1.4,3.5c-0.2,0.6-0.3,1.2-0.4,1.8c-0.2,1.2-0.3,2.5-0.2,3.7c4.5,0.2,9,2,12.4,5.4s5.3,7.9,5.4,12.4
		c1.2,0,2.5,0,3.7-0.2c0.6-0.1,1.2-0.2,1.8-0.4c1.2-0.3,2.4-0.8,3.5-1.4c1.7-0.9,3.3-2,4.7-3.4c3.8-3.8,5.6-8.9,5.4-13.9
		c-3.4-0.1-6.7-1.2-9.7-3.1C48.7,79.4,47.7,78.7,46.9,77.8z"/>
	<path class="st7" d="M94.7,111.7c0.5,0.4,0.9,0.8,1.3,1.2c0.4,0.4,0.8,0.9,1.2,1.3c2.7,3.2,4.1,7.1,4.2,11.1
		c1.9,0.1,3.8-0.1,5.6-0.6c3-0.8,5.9-2.4,8.3-4.8c2.9-2.9,4.6-6.4,5.2-10.1c0.1-0.6,0.2-1.2,0.2-1.9c0-0.6,0-1.2,0-1.9
		c-4-0.2-7.9-1.6-11.1-4.2c-0.5-0.4-0.9-0.8-1.3-1.2c-3.4-3.4-5.3-7.9-5.4-12.4c-5-0.2-10,1.6-13.9,5.4s-5.6,8.9-5.4,13.9
		c1.1,0,2.3,0.2,3.4,0.4C89.7,108.6,92.4,109.8,94.7,111.7z"/>
	<path class="st7" d="M27.6,97.1c-0.9-0.9-1.6-1.8-2.3-2.8c-2-2.9-3-6.3-3.1-9.7c-5-0.2-10,1.6-13.9,5.4c-1.4,1.4-2.6,3-3.4,4.7
		c-0.6,1.1-1,2.3-1.4,3.5c-0.2,0.6-0.3,1.2-0.4,1.8c-0.2,1.2-0.3,2.5-0.2,3.7c4.5,0.2,9,2,12.4,5.4s5.3,7.9,5.4,12.4
		c1.2,0,2.5,0,3.7-0.2c0.6-0.1,1.2-0.2,1.8-0.4c1.2-0.3,2.4-0.8,3.5-1.4c1.7-0.9,3.3-2,4.7-3.4c3.8-3.8,5.6-8.9,5.4-13.9
		c-3.4-0.1-6.7-1.2-9.7-3.1C29.4,98.7,28.5,97.9,27.6,97.1z"/>
	<path class="st7" d="M75.4,131c0.5,0.4,0.9,0.8,1.3,1.2c0.4,0.4,0.8,0.9,1.2,1.3c2.7,3.2,4.1,7.1,4.2,11.1c1.9,0.1,3.8-0.1,5.6-0.6
		c3-0.8,5.9-2.4,8.3-4.8c2.9-2.9,4.6-6.4,5.2-10.1c0.1-0.6,0.2-1.2,0.2-1.9c0-0.6,0-1.2,0-1.9c-4-0.2-7.9-1.6-11.1-4.2
		c-0.5-0.4-0.9-0.8-1.3-1.2c-3.4-3.4-5.3-7.9-5.4-12.4c-5-0.2-10,1.6-13.9,5.4s-5.6,8.9-5.4,13.9c1.1,0,2.3,0.2,3.4,0.4
		C70.5,127.9,73.1,129.1,75.4,131z"/>
	<path class="st7" d="M8.3,116.4c-0.9-0.9-1.6-1.8-2.3-2.8c-2-2.9-3-6.3-3.1-9.7c-1,0-1.9,0-2.9,0.1v30.4c0.9,2.1,1.4,4.3,1.5,6.6
		c1.2,0,2.5,0,3.7-0.2c0.6-0.1,1.2-0.2,1.8-0.4c1.2-0.3,2.4-0.8,3.5-1.4c1.7-0.9,3.3-2,4.7-3.4c3.8-3.8,5.6-8.9,5.4-13.9
		c-3.4-0.1-6.7-1.2-9.7-3.1C10.1,118,9.2,117.2,8.3,116.4z"/>
	<path class="st7" d="M45.6,150c-0.3-1.3-0.5-2.6-0.6-3.9c-4.3-0.2-8.6,1.2-12.1,3.9H45.6z"/>
	<polygon class="st7" points="22.6,150 34.6,138 53.9,118.7 73.1,99.5 92.4,80.2 97.5,75.1 111.7,60.9 116.8,55.8 131,41.6 
		136,36.6 150.3,22.3 155.3,17.3 169.5,3.1 172.6,0 161.7,0 144.8,16.9 136.4,25.3 136.4,25.3 117.1,44.6 117.1,44.6 97.8,63.9 
		97.8,63.9 78.6,83.2 78.6,83.2 59.3,102.5 59.3,102.5 40,121.7 40,121.7 20.7,141 20.7,141 11.7,150 	"/>
	<path class="st7" d="M0,149c1.1-2.5,1.6-5.2,1.5-8c-0.5,0-1-0.1-1.5-0.1V149z"/>
	<path class="st7" d="M55.4,0c0.1,0.8,0.3,1.7,0.3,2.5c3.5,0.1,6.9-0.7,10-2.5H55.4z"/>
	<polygon class="st7" points="11.7,76.6 31,57.3 50.3,38 69.5,18.7 88.3,0 77.4,0 75,2.5 75,2.5 55.7,21.7 55.7,21.7 36.4,41 
		36.4,41 17.1,60.3 17.1,60.3 0,77.4 0,88.3 3.3,85 3.3,85 	"/>
	<polygon class="st7" points="0,4 4,0 0,0 	"/>
	<path class="st7" d="M29.7,8.1c0.5,0.4,0.9,0.8,1.3,1.2c0.4,0.4,0.8,0.9,1.2,1.3c1.9,2.3,3.2,5,3.8,7.7c0.2,1.1,0.4,2.2,0.4,3.4
		c5,0.2,10-1.6,13.9-5.4s5.6-8.9,5.4-13.9c-3-0.1-5.9-1-8.6-2.5H18.8c-0.2,1.3-0.3,2.6-0.3,3.9C22.5,4.1,26.4,5.5,29.7,8.1z"/>
	<path class="st7" d="M3.5,34.3c-1.7-2-2.8-4.3-3.5-6.7v32.7c4.3-0.3,8.5-2.1,11.7-5.4c3.8-3.8,5.6-8.9,5.4-13.9
		c-4.5-0.2-9-2-12.4-5.4C4.3,35.2,3.9,34.8,3.5,34.3z"/>
	<path class="st7" d="M0,17.4v5.9c3.7,0.3,7.4,1.7,10.4,4.2c0.5,0.4,0.9,0.8,1.3,1.2c0.4,0.4,0.8,0.9,1.2,1.3c1.9,2.3,3.2,5,3.8,7.7
		c0.2,1.1,0.4,2.2,0.4,3.4c5,0.2,10-1.6,13.9-5.4s5.6-8.9,5.4-13.9c-4.5-0.2-9-2-12.4-5.4c-0.4-0.4-0.8-0.9-1.2-1.3
		c-2.7-3.2-4.1-7.1-4.2-11.1c-0.6,0-1.2,0-1.9,0c-0.6,0-1.2,0.1-1.9,0.2C11.1,4.8,7.6,6.5,4.7,9.4C2.4,11.7,0.8,14.5,0,17.4z"/>
</g>
<g>
</g>
<g>
</g>
<g>
</g>
<g>
</g>
<g>
</g>
<g>
</g>
</svg>
