<?xml version="1.0" encoding="utf-8"?>
<!-- Generator: Adobe Illustrator 21.1.0, SVG Export Plug-In . SVG Version: 6.00 Build 0)  -->
<svg version="1.1" id="レイヤー_1" xmlns="http://www.w3.org/2000/svg" xmlns:xlink="http://www.w3.org/1999/xlink" x="0px"
	 y="0px" viewBox="0 0 500 500" style="enable-background:new 0 0 500 500;" xml:space="preserve">
<style type="text/css">
	.st0{fill:#E3007F;}
	.st1{fill:#C94391;}
	.st2{fill:#D383B3;}
	.st3{fill:#E4ACCC;}
	.st4{fill:#F7CFE0;}
	.st5{fill:#F9DBE8;}
	.st6{fill:#FCEDF3;}
</style>
<g>
	<polygon class="st0" points="28.3,41.6 38.7,21.8 0,0.1 0,21 	"/>
	<polygon class="st1" points="63.2,51 82,19 113.1,41.6 123.4,21.8 84.6,0 73,0 38.7,23.7 	"/>
	<polygon class="st2" points="147.9,51 166.7,19 197.8,41.6 208.2,21.8 169.4,0 157.8,0 123.4,23.7 	"/>
	<polygon class="st3" points="232.7,51 251.5,19 282.6,41.6 292.9,21.8 254.1,0 242.5,0 208.2,23.7 	"/>
	<polygon class="st4" points="317.4,51 336.2,19 367.3,41.6 377.7,21.8 338.9,0 327.3,0 292.9,23.7 	"/>
	<polygon class="st5" points="402.2,51 421,19 452.1,41.6 462.4,21.8 423.6,0 412,0 377.7,23.7 	"/>
	<polygon class="st6" points="486.9,51 500,28.8 500,0 496.8,0 462.4,23.7 	"/>
	<polygon class="st0" points="472.8,51.8 462.4,71.6 500,92.7 500,71.6 	"/>
	<polygon class="st0" points="377.7,71.6 422.9,97 462.4,69.7 437.9,42.4 419.1,74.4 388,51.8 	"/>
	<polygon class="st0" points="292.9,71.6 338.1,97 377.7,69.7 353.2,42.4 334.4,74.4 303.3,51.8 	"/>
	<polygon class="st0" points="208.2,71.6 253.4,97 292.9,69.7 268.4,42.4 249.6,74.4 218.5,51.8 	"/>
	<polygon class="st0" points="123.4,71.6 168.6,97 208.2,69.7 183.7,42.4 164.9,74.4 133.8,51.8 	"/>
	<polygon class="st0" points="38.7,71.6 83.9,97 123.4,69.7 99,42.4 80.1,74.4 49,51.8 	"/>
	<polygon class="st0" points="0,66.6 0,96.4 38.7,69.7 14.2,42.4 	"/>
	<polygon class="st0" points="28.3,143.1 38.7,123.4 0,101.6 0,122.5 	"/>
	<polygon class="st2" points="123.4,125.3 147.9,152.6 166.7,120.5 197.8,143.1 208.2,123.4 163,98 	"/>
	<polygon class="st3" points="208.2,125.3 232.7,152.6 251.5,120.5 282.6,143.1 292.9,123.4 247.7,98 	"/>
	<polygon class="st4" points="332.5,98 292.9,125.3 317.4,152.6 336.2,120.5 367.3,143.1 377.7,123.4 	"/>
	<polygon class="st5" points="377.7,125.3 402.2,152.6 421,120.5 452.1,143.1 462.4,123.4 417.2,98 	"/>
	<polygon class="st1" points="82,120.5 113.1,143.1 123.4,123.4 78.2,98 38.7,125.3 63.2,152.6 	"/>
	<polygon class="st6" points="500,130.3 500,99.3 462.4,125.3 486.9,152.6 	"/>
	<polygon class="st0" points="472.8,153.4 462.4,173.2 500,194.3 500,173.2 	"/>
	<polygon class="st0" points="437.9,144 419.1,176 388,153.4 377.7,173.2 422.9,198.6 462.4,171.3 	"/>
	<polygon class="st0" points="353.2,144 334.4,176 303.3,153.4 292.9,173.2 338.1,198.6 377.7,171.3 	"/>
	<polygon class="st0" points="208.2,173.2 253.4,198.6 292.9,171.3 268.4,144 249.6,176 218.5,153.4 	"/>
	<polygon class="st0" points="123.4,173.2 168.6,198.6 208.2,171.3 183.7,144 164.9,176 133.8,153.4 	"/>
	<polygon class="st0" points="123.4,171.3 99,144 80.1,176 49,153.4 38.7,173.2 83.9,198.6 	"/>
	<polygon class="st0" points="38.7,171.3 14.2,144 0,168.1 0,198 	"/>
	<polygon class="st0" points="28.3,244.7 38.7,224.9 0,203.2 0,224.1 	"/>
	<polygon class="st2" points="163,199.5 123.4,226.8 147.9,254.1 166.7,222.1 197.8,244.7 208.2,224.9 	"/>
	<polygon class="st3" points="247.7,199.5 208.2,226.8 232.7,254.1 251.5,222.1 282.6,244.7 292.9,224.9 	"/>
	<polygon class="st4" points="332.5,199.5 292.9,226.8 317.4,254.1 336.2,222.1 367.3,244.7 377.7,224.9 	"/>
	<polygon class="st5" points="377.7,226.8 402.2,254.1 421,222.1 452.1,244.7 462.4,224.9 417.2,199.5 	"/>
	<polygon class="st1" points="82,222.1 113.1,244.7 123.4,224.9 78.2,199.5 38.7,226.8 63.2,254.1 	"/>
	<polygon class="st6" points="500,231.8 500,200.9 462.4,226.8 486.9,254.1 	"/>
	<polygon class="st0" points="472.8,254.9 462.4,274.7 500,295.8 500,274.7 	"/>
	<polygon class="st0" points="462.4,272.8 437.9,245.5 419.1,277.5 388,254.9 377.7,274.7 422.9,300.1 	"/>
	<polygon class="st0" points="377.7,272.8 353.2,245.5 334.4,277.5 303.3,254.9 292.9,274.7 338.1,300.1 	"/>
	<polygon class="st0" points="292.9,272.8 268.4,245.5 249.6,277.5 218.5,254.9 208.2,274.7 253.4,300.1 	"/>
	<polygon class="st0" points="208.2,272.8 183.7,245.5 164.9,277.5 133.8,254.9 123.4,274.7 168.6,300.1 	"/>
	<polygon class="st0" points="123.4,272.8 99,245.5 80.1,277.5 49,254.9 38.7,274.7 83.9,300.1 	"/>
	<polygon class="st0" points="38.7,272.8 14.2,245.5 0,269.7 0,299.5 	"/>
	<polygon class="st0" points="0,304.7 0,325.6 28.3,346.2 38.7,326.5 	"/>
	<polygon class="st1" points="78.2,301 38.7,328.3 63.2,355.7 82,323.6 113.1,346.2 123.4,326.5 	"/>
	<polygon class="st2" points="163,301 123.4,328.3 147.9,355.7 166.7,323.6 197.8,346.2 208.2,326.5 	"/>
	<polygon class="st3" points="247.7,301 208.2,328.3 232.7,355.7 251.5,323.6 282.6,346.2 292.9,326.5 	"/>
	<polygon class="st4" points="332.5,301 292.9,328.3 317.4,355.7 336.2,323.6 367.3,346.2 377.7,326.5 	"/>
	<polygon class="st5" points="417.2,301 377.7,328.3 402.2,355.7 421,323.6 452.1,346.2 462.4,326.5 	"/>
	<polygon class="st6" points="500,333.4 500,302.4 462.4,328.3 486.9,355.7 	"/>
	<polygon class="st0" points="500,376.3 472.8,356.5 462.4,376.2 500,397.4 	"/>
	<polygon class="st0" points="462.4,374.4 437.9,347.1 419.1,379.1 388,356.5 377.7,376.2 422.9,401.7 	"/>
	<polygon class="st0" points="377.7,374.4 353.2,347.1 334.4,379.1 303.3,356.5 292.9,376.2 338.1,401.7 	"/>
	<polygon class="st0" points="292.9,374.4 268.4,347.1 249.6,379.1 218.5,356.5 208.2,376.2 253.4,401.7 	"/>
	<polygon class="st0" points="208.2,374.4 183.7,347.1 164.9,379.1 133.8,356.5 123.4,376.2 168.6,401.7 	"/>
	<polygon class="st0" points="123.4,374.4 99,347.1 80.1,379.1 49,356.5 38.7,376.2 83.9,401.7 	"/>
	<polygon class="st0" points="14.2,347.1 0,371.2 0,401.1 38.7,374.4 	"/>
	<polygon class="st0" points="0,406.2 0,427.2 28.3,447.8 38.7,428 	"/>
	<polygon class="st1" points="78.2,402.6 38.7,429.9 63.2,457.2 82,425.2 113.1,447.8 123.4,428 	"/>
	<polygon class="st2" points="163,402.6 123.4,429.9 147.9,457.2 166.7,425.2 197.8,447.8 208.2,428 	"/>
	<polygon class="st3" points="247.7,402.6 208.2,429.9 232.7,457.2 251.5,425.2 282.6,447.8 292.9,428 	"/>
	<polygon class="st4" points="332.5,402.6 292.9,429.9 317.4,457.2 336.2,425.2 367.3,447.8 377.7,428 	"/>
	<polygon class="st5" points="417.2,402.6 377.7,429.9 402.2,457.2 421,425.2 452.1,447.8 462.4,428 	"/>
	<polygon class="st6" points="500,434.9 500,403.9 462.4,429.9 486.9,457.2 	"/>
	<polygon class="st0" points="472.8,458 462.4,477.8 500,498.9 500,477.8 	"/>
	<polygon class="st0" points="437.9,448.6 419.1,480.6 388,458 377.7,477.8 417.2,500 427.5,500 462.4,475.9 	"/>
	<polygon class="st0" points="353.2,448.6 334.4,480.6 303.3,458 292.9,477.8 332.4,500 342.8,500 377.7,475.9 	"/>
	<polygon class="st0" points="268.4,448.6 249.6,480.6 218.5,458 208.2,477.8 247.7,500 258,500 292.9,475.9 	"/>
	<polygon class="st0" points="183.7,448.6 164.9,480.6 133.8,458 123.4,477.8 162.9,500 173.3,500 208.2,475.9 	"/>
	<polygon class="st0" points="99,448.6 80.1,480.6 49,458 38.7,477.8 78.2,500 88.5,500 123.4,475.9 	"/>
	<polygon class="st0" points="14.2,448.6 0,472.7 0,500 3.8,500 38.7,475.9 	"/>
</g>
</svg>
