<?xml version="1.0" encoding="utf-8"?>
<!-- Generator: Adobe Illustrator 21.1.0, SVG Export Plug-In . SVG Version: 6.00 Build 0)  -->
<svg version="1.1" id="レイヤー_1" xmlns="http://www.w3.org/2000/svg" xmlns:xlink="http://www.w3.org/1999/xlink" x="0px"
	 y="0px" viewBox="0 0 500 500" enable-background="new 0 0 500 500" xml:space="preserve">
<g>
	<rect x="225.09" y="75.65" fill="none" width="49.82" height="49.82"/>
	<rect x="125.46" y="374.52" fill="none" width="49.82" height="49.82"/>
	<rect x="125.46" y="75.65" fill="none" width="49.82" height="49.82"/>
	<rect x="125.46" y="274.9" fill="none" width="49.82" height="49.82"/>
	<rect x="175.28" y="424.34" fill="none" width="49.82" height="49.82"/>
	<rect x="75.65" y="225.09" fill="none" width="49.82" height="49.82"/>
	<rect x="424.34" y="175.28" fill="none" width="49.82" height="49.82"/>
	<rect x="374.52" y="424.34" fill="none" width="49.82" height="49.82"/>
	<rect x="424.34" y="374.52" fill="none" width="49.82" height="49.82"/>
	<rect x="424.34" y="75.65" fill="none" width="49.82" height="49.82"/>
	<rect x="274.9" y="424.34" fill="none" width="49.82" height="49.82"/>
	<rect x="424.34" y="274.9" fill="none" width="49.82" height="49.82"/>
	<rect x="324.72" y="75.65" fill="none" width="49.82" height="49.82"/>
	<rect x="125.46" y="175.28" fill="none" width="49.82" height="49.82"/>
	<rect x="324.72" y="274.9" fill="none" width="49.82" height="49.82"/>
	<rect x="225.09" y="175.28" fill="none" width="49.82" height="49.82"/>
	<rect x="274.9" y="324.72" fill="none" width="49.82" height="49.82"/>
	<rect x="175.28" y="225.09" fill="none" width="49.82" height="49.82"/>
	<rect x="225.09" y="274.9" fill="none" width="49.82" height="49.82"/>
	<rect x="274.9" y="225.09" fill="none" width="49.82" height="49.82"/>
	<rect x="324.72" y="175.28" fill="none" width="49.82" height="49.82"/>
	<rect x="374.52" y="125.46" fill="none" width="49.82" height="49.82"/>
	<rect x="274.9" y="125.46" fill="none" width="49.82" height="49.82"/>
	<rect x="175.28" y="324.72" fill="none" width="49.82" height="49.82"/>
	<rect x="374.52" y="225.09" fill="none" width="49.82" height="49.82"/>
	<rect x="175.28" y="125.46" fill="none" width="49.82" height="49.82"/>
	<rect x="374.52" y="324.72" fill="none" width="49.82" height="49.82"/>
	<rect x="225.09" y="374.52" fill="none" width="49.82" height="49.82"/>
	<rect x="324.72" y="374.52" fill="none" width="49.82" height="49.82"/>
	<rect x="75.65" y="125.46" fill="none" width="49.82" height="49.82"/>
	<rect x="274.9" y="25.84" fill="none" width="49.82" height="49.82"/>
	<rect x="424.34" y="474.16" fill="none" width="49.82" height="49.82"/>
	<rect x="324.72" y="474.16" fill="none" width="49.82" height="49.82"/>
	<rect x="175.28" y="25.84" fill="none" width="49.82" height="49.82"/>
	<rect x="225.09" y="474.16" fill="none" width="49.82" height="49.82"/>
	<rect x="474.16" y="225.09" fill="none" width="49.82" height="49.82"/>
	<rect x="474.16" y="424.34" fill="none" width="49.82" height="49.82"/>
	<rect x="75.65" y="25.84" fill="none" width="49.82" height="49.82"/>
	<rect x="374.52" y="25.84" fill="none" width="49.82" height="49.82"/>
	<rect x="474.16" y="25.84" fill="none" width="49.82" height="49.82"/>
	<rect x="474.16" y="125.46" fill="none" width="49.82" height="49.82"/>
	<rect x="25.84" y="75.65" fill="none" width="49.82" height="49.82"/>
	<rect x="25.84" y="274.9" fill="none" width="49.82" height="49.82"/>
	<rect x="25.84" y="374.52" fill="none" width="49.82" height="49.82"/>
	<rect x="25.84" y="474.16" fill="none" width="49.82" height="49.82"/>
	<rect x="75.65" y="324.72" fill="none" width="49.82" height="49.82"/>
	<rect x="474.16" y="324.72" fill="none" width="49.82" height="49.82"/>
	<rect x="125.46" y="474.16" fill="none" width="49.82" height="49.82"/>
	<rect x="75.65" y="424.34" fill="none" width="49.82" height="49.82"/>
	<rect x="25.84" y="175.28" fill="none" width="49.82" height="49.82"/>
	<rect x="474.16" y="-23.97" fill="#231815" width="49.82" height="49.82"/>
	<rect x="474.16" y="75.65" fill="#231815" width="49.82" height="49.82"/>
	<rect x="474.16" y="175.28" fill="#231815" width="49.82" height="49.82"/>
	<rect x="474.16" y="274.9" fill="#231815" width="49.82" height="49.82"/>
	<rect x="474.16" y="374.52" fill="#231815" width="49.82" height="49.82"/>
	<rect x="474.16" y="474.16" fill="#231815" width="49.82" height="49.82"/>
	<rect x="374.52" y="-23.97" fill="#231815" width="49.82" height="49.82"/>
	<rect x="424.34" y="25.84" fill="#231815" width="49.82" height="49.82"/>
	<rect x="374.52" y="75.65" fill="#231815" width="49.82" height="49.82"/>
	<rect x="424.34" y="125.46" fill="#231815" width="49.82" height="49.82"/>
	<rect x="374.52" y="175.28" fill="#231815" width="49.82" height="49.82"/>
	<rect x="424.34" y="225.09" fill="#231815" width="49.82" height="49.82"/>
	<rect x="374.52" y="274.9" fill="#231815" width="49.82" height="49.82"/>
	<rect x="424.34" y="324.72" fill="#231815" width="49.82" height="49.82"/>
	<rect x="374.52" y="374.52" fill="#231815" width="49.82" height="49.82"/>
	<rect x="424.34" y="424.34" fill="#231815" width="49.82" height="49.82"/>
	<rect x="374.52" y="474.16" fill="#231815" width="49.82" height="49.82"/>
	<rect x="274.9" y="-23.97" fill="#231815" width="49.82" height="49.82"/>
	<rect x="324.72" y="25.84" fill="#231815" width="49.82" height="49.82"/>
	<rect x="274.9" y="75.65" fill="#231815" width="49.82" height="49.82"/>
	<rect x="324.72" y="125.46" fill="#231815" width="49.82" height="49.82"/>
	<rect x="274.9" y="175.28" fill="#231815" width="49.82" height="49.82"/>
	<rect x="324.72" y="225.09" fill="#231815" width="49.82" height="49.82"/>
	<rect x="274.9" y="274.9" fill="#231815" width="49.82" height="49.82"/>
	<rect x="324.72" y="324.72" fill="#231815" width="49.82" height="49.82"/>
	<rect x="274.9" y="374.52" fill="#231815" width="49.82" height="49.82"/>
	<rect x="324.72" y="424.34" fill="#231815" width="49.82" height="49.82"/>
	<rect x="274.9" y="474.16" fill="#231815" width="49.82" height="49.82"/>
	<rect x="175.28" y="-23.97" fill="#231815" width="49.82" height="49.82"/>
	<rect x="225.09" y="25.84" fill="#231815" width="49.82" height="49.82"/>
	<rect x="175.28" y="75.65" fill="#231815" width="49.82" height="49.82"/>
	<rect x="225.09" y="125.46" fill="#231815" width="49.82" height="49.82"/>
	<rect x="175.28" y="175.28" fill="#231815" width="49.82" height="49.82"/>
	<rect x="225.09" y="225.09" fill="#231815" width="49.82" height="49.82"/>
	<rect x="175.28" y="274.9" fill="#231815" width="49.82" height="49.82"/>
	<rect x="225.09" y="324.72" fill="#231815" width="49.82" height="49.82"/>
	<rect x="175.28" y="374.52" fill="#231815" width="49.82" height="49.82"/>
	<rect x="225.09" y="424.34" fill="#231815" width="49.82" height="49.82"/>
	<rect x="175.28" y="474.16" fill="#231815" width="49.82" height="49.82"/>
	<rect x="75.65" y="-23.97" fill="#231815" width="49.82" height="49.82"/>
	<rect x="125.46" y="25.84" fill="#231815" width="49.82" height="49.82"/>
	<rect x="75.65" y="75.65" fill="#231815" width="49.82" height="49.82"/>
	<rect x="125.46" y="125.46" fill="#231815" width="49.82" height="49.82"/>
	<rect x="75.65" y="175.28" fill="#231815" width="49.82" height="49.82"/>
	<rect x="125.46" y="225.09" fill="#231815" width="49.82" height="49.82"/>
	<rect x="75.65" y="274.9" fill="#231815" width="49.82" height="49.82"/>
	<rect x="125.46" y="324.72" fill="#231815" width="49.82" height="49.82"/>
	<rect x="75.65" y="374.52" fill="#231815" width="49.82" height="49.82"/>
	<rect x="125.46" y="424.34" fill="#231815" width="49.82" height="49.82"/>
	<rect x="75.65" y="474.16" fill="#231815" width="49.82" height="49.82"/>
	<rect x="-23.97" y="-23.97" fill="#231815" width="49.82" height="49.82"/>
	<rect x="25.84" y="25.84" fill="#231815" width="49.82" height="49.82"/>
	<rect x="-23.97" y="75.65" fill="#231815" width="49.82" height="49.82"/>
	<rect x="25.84" y="125.46" fill="#231815" width="49.82" height="49.82"/>
	<rect x="-23.97" y="175.28" fill="#231815" width="49.82" height="49.82"/>
	<rect x="25.84" y="225.09" fill="#231815" width="49.82" height="49.82"/>
	<rect x="-23.97" y="274.9" fill="#231815" width="49.82" height="49.82"/>
	<rect x="25.84" y="324.72" fill="#231815" width="49.82" height="49.82"/>
	<rect x="-23.97" y="374.52" fill="#231815" width="49.82" height="49.82"/>
	<rect x="25.84" y="424.34" fill="#231815" width="49.82" height="49.82"/>
	<rect x="-23.97" y="474.16" fill="#231815" width="49.82" height="49.82"/>
</g>
<rect fill="none" width="500" height="500"/>
</svg>
