<?xml version="1.0" encoding="utf-8"?>
<!-- Generator: Adobe Illustrator 21.1.0, SVG Export Plug-In . SVG Version: 6.00 Build 0)  -->
<svg version="1.1" id="レイヤー_1" xmlns="http://www.w3.org/2000/svg" xmlns:xlink="http://www.w3.org/1999/xlink" x="0px"
	 y="0px" viewBox="0 0 500 500" style="enable-background:new 0 0 500 500;" xml:space="preserve">
<style type="text/css">
	.st0{fill:#466612;}
	.st1{fill:#D4C79F;}
	.st2{fill:#D98700;}
</style>
<g>
	<path class="st0" d="M497.3,33.2c0.9,0,1.8,0,2.7-0.1V0h-33.5c-0.1,0.8-0.1,1.5-0.1,2.3C466.4,19.4,480.2,33.2,497.3,33.2z"/>
	<path class="st1" d="M500,33.1c-0.9,0.1-1.8,0.1-2.7,0.1c-17.1,0-30.9-13.9-30.9-30.9c0-0.8,0-1.5,0.1-2.3h-62.1
		c0.1,0.8,0.1,1.5,0.1,2.3c0,17.1-13.9,30.9-30.9,30.9s-30.9-13.9-30.9-30.9c0-0.8,0-1.5,0.1-2.3h-62.1c0.1,0.8,0.1,1.5,0.1,2.3
		c0,17.1-13.9,30.9-30.9,30.9s-30.9-13.9-30.9-30.9c0-0.8,0-1.5,0.1-2.3h-62.1c0.1,0.8,0.1,1.5,0.1,2.3c0,17.1-13.9,30.9-30.9,30.9
		S95.1,19.4,95.1,2.3c0-0.8,0-1.5,0.1-2.3H33.1c0.1,0.8,0.1,1.5,0.1,2.3c0,17.1-13.9,30.9-30.9,30.9c-0.8,0-1.5,0-2.3-0.1v62.1
		c0.8-0.1,1.5-0.1,2.3-0.1c17.1,0,30.9,13.9,30.9,30.9c0,17.1-13.9,30.9-30.9,30.9c-0.8,0-1.5,0-2.3-0.1V219
		c0.8-0.1,1.5-0.1,2.3-0.1c17.1,0,30.9,13.9,30.9,30.9c0,17.1-13.9,30.9-30.9,30.9c-0.8,0-1.5,0-2.3-0.1v62.1
		c0.8-0.1,1.5-0.1,2.3-0.1c17.1,0,30.9,13.9,30.9,30.9c0,17.1-13.9,30.9-30.9,30.9c-0.8,0-1.5,0-2.3-0.1v62.1
		c0.8-0.1,1.5-0.1,2.3-0.1c17.1,0,30.9,13.9,30.9,30.9c0,0.9,0,1.8-0.1,2.7h62.1c-0.1-0.9-0.1-1.8-0.1-2.7
		c0-17.1,13.9-30.9,30.9-30.9s30.9,13.9,30.9,30.9c0,0.9,0,1.8-0.1,2.7H219c-0.1-0.9-0.1-1.8-0.1-2.7c0-17.1,13.9-30.9,30.9-30.9
		s30.9,13.9,30.9,30.9c0,0.9,0,1.8-0.1,2.7h62.1c-0.1-0.9-0.1-1.8-0.1-2.7c0-17.1,13.9-30.9,30.9-30.9s30.9,13.9,30.9,30.9
		c0,0.9,0,1.8-0.1,2.7h62.1c-0.1-0.9-0.1-1.8-0.1-2.7c0-17.1,13.9-30.9,30.9-30.9c0.9,0,1.8,0,2.7,0.1v-62.1
		c-0.9,0.1-1.8,0.1-2.7,0.1c-17.1,0-30.9-13.9-30.9-30.9c0-17.1,13.9-30.9,30.9-30.9c0.9,0,1.8,0,2.7,0.1v-62.1
		c-0.9,0.1-1.8,0.1-2.7,0.1c-17.1,0-30.9-13.9-30.9-30.9c0-17.1,13.9-30.9,30.9-30.9c0.9,0,1.8,0,2.7,0.1v-62.1
		c-0.9,0.1-1.8,0.1-2.7,0.1c-17.1,0-30.9-13.9-30.9-30.9c0-17.1,13.9-30.9,30.9-30.9c0.9,0,1.8,0,2.7,0.1V33.1z M435.4,33.2
		c17.1,0,30.9,13.9,30.9,30.9s-13.9,30.9-30.9,30.9c-17.1,0-30.9-13.9-30.9-30.9S418.3,33.2,435.4,33.2z M404.5,126.1
		c0,17.1-13.9,30.9-30.9,30.9s-30.9-13.9-30.9-30.9c0-17.1,13.9-30.9,30.9-30.9S404.5,109,404.5,126.1z M404.5,249.8
		c0,17.1-13.9,30.9-30.9,30.9s-30.9-13.9-30.9-30.9c0-17.1,13.9-30.9,30.9-30.9S404.5,232.7,404.5,249.8z M404.5,373.6
		c0,17.1-13.9,30.9-30.9,30.9s-30.9-13.9-30.9-30.9c0-17.1,13.9-30.9,30.9-30.9S404.5,356.5,404.5,373.6z M311.7,466.4
		c-17.1,0-30.9-13.9-30.9-30.9c0-17.1,13.9-30.9,30.9-30.9c17.1,0,30.9,13.9,30.9,30.9C342.6,452.5,328.8,466.4,311.7,466.4z
		 M187.9,466.4c-17.1,0-30.9-13.9-30.9-30.9c0-17.1,13.9-30.9,30.9-30.9c17.1,0,30.9,13.9,30.9,30.9
		C218.9,452.5,205,466.4,187.9,466.4z M280.7,126.1c0,17.1-13.9,30.9-30.9,30.9s-30.9-13.9-30.9-30.9c0-17.1,13.9-30.9,30.9-30.9
		S280.7,109,280.7,126.1z M280.7,249.8c0,17.1-13.9,30.9-30.9,30.9s-30.9-13.9-30.9-30.9c0-17.1,13.9-30.9,30.9-30.9
		S280.7,232.7,280.7,249.8z M280.7,373.6c0,17.1-13.9,30.9-30.9,30.9s-30.9-13.9-30.9-30.9c0-17.1,13.9-30.9,30.9-30.9
		S280.7,356.5,280.7,373.6z M157,373.6c0,17.1-13.9,30.9-30.9,30.9s-30.9-13.9-30.9-30.9c0-17.1,13.9-30.9,30.9-30.9
		S157,356.5,157,373.6z M126,218.9c17.1,0,30.9,13.9,30.9,30.9c0,17.1-13.9,30.9-30.9,30.9s-30.9-13.9-30.9-30.9
		C95.1,232.7,109,218.9,126,218.9z M187.9,342.6c-17.1,0-30.9-13.9-30.9-30.9s13.9-30.9,30.9-30.9c17.1,0,30.9,13.9,30.9,30.9
		S205,342.6,187.9,342.6z M187.9,218.9c-17.1,0-30.9-13.9-30.9-30.9s13.9-30.9,30.9-30.9c17.1,0,30.9,13.9,30.9,30.9
		S205,218.9,187.9,218.9z M157,126.1c0,17.1-13.9,30.9-30.9,30.9s-30.9-13.9-30.9-30.9c0-17.1,13.9-30.9,30.9-30.9
		S157,109,157,126.1z M311.7,342.6c-17.1,0-30.9-13.9-30.9-30.9s13.9-30.9,30.9-30.9c17.1,0,30.9,13.9,30.9,30.9
		S328.8,342.6,311.7,342.6z M311.7,218.9c-17.1,0-30.9-13.9-30.9-30.9s13.9-30.9,30.9-30.9c17.1,0,30.9,13.9,30.9,30.9
		S328.8,218.9,311.7,218.9z M311.7,33.2c17.1,0,30.9,13.9,30.9,30.9s-13.9,30.9-30.9,30.9c-17.1,0-30.9-13.9-30.9-30.9
		S294.6,33.2,311.7,33.2z M187.9,33.2c17.1,0,30.9,13.9,30.9,30.9S205,95.1,187.9,95.1c-17.1,0-30.9-13.9-30.9-30.9
		S170.8,33.2,187.9,33.2z M64.2,33.2c17.1,0,30.9,13.9,30.9,30.9S81.3,95.1,64.2,95.1c-17.1,0-30.9-13.9-30.9-30.9
		S47.1,33.2,64.2,33.2z M64.2,157c17.1,0,30.9,13.9,30.9,30.9s-13.9,30.9-30.9,30.9c-17.1,0-30.9-13.9-30.9-30.9S47.1,157,64.2,157z
		 M64.2,280.7c17.1,0,30.9,13.9,30.9,30.9s-13.9,30.9-30.9,30.9c-17.1,0-30.9-13.9-30.9-30.9S47.1,280.7,64.2,280.7z M64.2,404.5
		c17.1,0,30.9,13.9,30.9,30.9c0,17.1-13.9,30.9-30.9,30.9c-17.1,0-30.9-13.9-30.9-30.9C33.2,418.3,47.1,404.5,64.2,404.5z
		 M435.4,466.4c-17.1,0-30.9-13.9-30.9-30.9c0-17.1,13.9-30.9,30.9-30.9c17.1,0,30.9,13.9,30.9,30.9
		C466.4,452.5,452.5,466.4,435.4,466.4z M435.4,342.6c-17.1,0-30.9-13.9-30.9-30.9s13.9-30.9,30.9-30.9c17.1,0,30.9,13.9,30.9,30.9
		S452.5,342.6,435.4,342.6z M435.4,218.9c-17.1,0-30.9-13.9-30.9-30.9s13.9-30.9,30.9-30.9c17.1,0,30.9,13.9,30.9,30.9
		S452.5,218.9,435.4,218.9z"/>
	<path class="st0" d="M497.3,95.1c-17.1,0-30.9,13.9-30.9,30.9c0,17.1,13.9,30.9,30.9,30.9c0.9,0,1.8,0,2.7-0.1V95.2
		C499.1,95.2,498.2,95.1,497.3,95.1z"/>
	<circle class="st2" cx="435.4" cy="187.9" r="30.9"/>
	<path class="st0" d="M497.3,218.9c-17.1,0-30.9,13.9-30.9,30.9c0,17.1,13.9,30.9,30.9,30.9c0.9,0,1.8,0,2.7-0.1V219
		C499.1,218.9,498.2,218.9,497.3,218.9z"/>
	<circle class="st2" cx="435.4" cy="311.7" r="30.9"/>
	<path class="st0" d="M497.3,342.6c-17.1,0-30.9,13.9-30.9,30.9c0,17.1,13.9,30.9,30.9,30.9c0.9,0,1.8,0,2.7-0.1v-61.6
		C499.1,342.7,498.2,342.6,497.3,342.6z"/>
	<circle class="st2" cx="435.4" cy="435.4" r="30.9"/>
	<path class="st0" d="M497.3,466.4c-17.1,0-30.9,13.9-30.9,30.9c0,0.9,0,1.8,0.1,2.7H500v-33.5C499.1,466.4,498.2,466.4,497.3,466.4
		z"/>
	<path class="st0" d="M373.5,33.2c17.1,0,30.9-13.9,30.9-30.9c0-0.8,0-1.5-0.1-2.3h-61.7c-0.1,0.8-0.1,1.5-0.1,2.3
		C342.6,19.4,356.5,33.2,373.5,33.2z"/>
	<circle class="st0" cx="373.5" cy="126.1" r="30.9"/>
	<circle class="st2" cx="435.4" cy="64.2" r="30.9"/>
	<circle class="st2" cx="311.7" cy="187.9" r="30.9"/>
	<circle class="st0" cx="373.5" cy="249.8" r="30.9"/>
	<circle class="st2" cx="311.7" cy="311.7" r="30.9"/>
	<circle class="st0" cx="373.5" cy="373.6" r="30.9"/>
	<circle class="st2" cx="311.7" cy="435.4" r="30.9"/>
	<path class="st0" d="M373.5,466.4c-17.1,0-30.9,13.9-30.9,30.9c0,0.9,0,1.8,0.1,2.7h61.6c0.1-0.9,0.1-1.8,0.1-2.7
		C404.5,480.2,390.6,466.4,373.5,466.4z"/>
	<path class="st0" d="M249.8,33.2c17.1,0,30.9-13.9,30.9-30.9c0-0.8,0-1.5-0.1-2.3H219c-0.1,0.8-0.1,1.5-0.1,2.3
		C218.9,19.4,232.7,33.2,249.8,33.2z"/>
	<circle class="st0" cx="249.8" cy="126.1" r="30.9"/>
	<circle class="st2" cx="311.7" cy="64.2" r="30.9"/>
	<circle class="st2" cx="187.9" cy="187.9" r="30.9"/>
	<circle class="st0" cx="249.8" cy="249.8" r="30.9"/>
	<circle class="st2" cx="187.9" cy="311.7" r="30.9"/>
	<circle class="st0" cx="249.8" cy="373.6" r="30.9"/>
	<circle class="st2" cx="187.9" cy="435.4" r="30.9"/>
	<path class="st0" d="M249.8,466.4c-17.1,0-30.9,13.9-30.9,30.9c0,0.9,0,1.8,0.1,2.7h61.6c0.1-0.9,0.1-1.8,0.1-2.7
		C280.7,480.2,266.9,466.4,249.8,466.4z"/>
	<path class="st0" d="M126,33.2c17.1,0,30.9-13.9,30.9-30.9c0-0.8,0-1.5-0.1-2.3H95.2c-0.1,0.8-0.1,1.5-0.1,2.3
		C95.1,19.4,109,33.2,126,33.2z"/>
	<circle class="st0" cx="126" cy="126.1" r="30.9"/>
	<circle class="st2" cx="187.9" cy="64.2" r="30.9"/>
	<circle class="st0" cx="126" cy="249.8" r="30.9"/>
	<circle class="st0" cx="126" cy="373.6" r="30.9"/>
	<path class="st0" d="M126,466.4c-17.1,0-30.9,13.9-30.9,30.9c0,0.9,0,1.8,0.1,2.7h61.6c0.1-0.9,0.1-1.8,0.1-2.7
		C157,480.2,143.1,466.4,126,466.4z"/>
	<path class="st0" d="M33.2,2.3c0-0.8,0-1.5-0.1-2.3H0v33.2c0.8,0.1,1.5,0.1,2.3,0.1C19.4,33.2,33.2,19.4,33.2,2.3z"/>
	<path class="st0" d="M33.2,126.1c0-17.1-13.9-30.9-30.9-30.9c-0.8,0-1.5,0-2.3,0.1v61.7c0.8,0.1,1.5,0.1,2.3,0.1
		C19.4,157,33.2,143.1,33.2,126.1z"/>
	<circle class="st2" cx="64.2" cy="64.2" r="30.9"/>
	<path class="st0" d="M33.2,249.8c0-17.1-13.9-30.9-30.9-30.9c-0.8,0-1.5,0-2.3,0.1v61.7c0.8,0.1,1.5,0.1,2.3,0.1
		C19.4,280.7,33.2,266.9,33.2,249.8z"/>
	<circle class="st2" cx="64.2" cy="187.9" r="30.9"/>
	<path class="st0" d="M33.2,373.6c0-17.1-13.9-30.9-30.9-30.9c-0.8,0-1.5,0-2.3,0.1v61.7c0.8,0.1,1.5,0.1,2.3,0.1
		C19.4,404.5,33.2,390.6,33.2,373.6z"/>
	<circle class="st2" cx="64.2" cy="311.7" r="30.9"/>
	<path class="st0" d="M2.3,466.4c-0.8,0-1.5,0-2.3,0.1V500h33.1c0.1-0.9,0.1-1.8,0.1-2.7C33.2,480.2,19.4,466.4,2.3,466.4z"/>
	<circle class="st2" cx="64.2" cy="435.4" r="30.9"/>
</g>
</svg>
