<?xml version="1.0" encoding="utf-8"?>
<!-- Generator: Adobe Illustrator 21.1.0, SVG Export Plug-In . SVG Version: 6.00 Build 0)  -->
<svg version="1.1" id="レイヤー_1" xmlns="http://www.w3.org/2000/svg" xmlns:xlink="http://www.w3.org/1999/xlink" x="0px"
	 y="0px" viewBox="0 0 500 500" style="enable-background:new 0 0 500 500;" xml:space="preserve">
<style type="text/css">
	.st0{clip-path:url(#SVGID_2_);}
	.st1{clip-path:url(#SVGID_4_);fill:#D8211D;}
	.st2{clip-path:url(#SVGID_4_);fill:#E9B222;}
	.st3{clip-path:url(#SVGID_4_);fill:#1E2974;}
	.st4{clip-path:url(#SVGID_6_);fill:#D8211D;}
	.st5{clip-path:url(#SVGID_6_);fill:#E9B222;}
	.st6{clip-path:url(#SVGID_6_);fill:#F4E827;}
	.st7{clip-path:url(#SVGID_6_);fill:#FFFFFF;}
	.st8{clip-path:url(#SVGID_6_);fill:#E6871F;}
	.st9{clip-path:url(#SVGID_6_);fill:#D71E3D;}
	.st10{clip-path:url(#SVGID_6_);fill:#1E2974;}
	.st11{clip-path:url(#SVGID_8_);fill:#D8211D;}
	.st12{clip-path:url(#SVGID_8_);fill:#E9B222;}
	.st13{clip-path:url(#SVGID_8_);fill:#F4E827;}
	.st14{clip-path:url(#SVGID_8_);fill:#FFFFFF;}
	.st15{clip-path:url(#SVGID_8_);fill:#E6871F;}
	.st16{clip-path:url(#SVGID_8_);fill:#D71E3D;}
	.st17{clip-path:url(#SVGID_8_);fill:#1E2974;}
	.st18{clip-path:url(#SVGID_10_);fill:#D8211D;}
	.st19{clip-path:url(#SVGID_10_);fill:#DA3E1D;}
	.st20{clip-path:url(#SVGID_10_);fill:#FFFFFF;}
	.st21{clip-path:url(#SVGID_10_);fill:#E9B222;}
	.st22{clip-path:url(#SVGID_10_);fill:#E6D22D;}
	.st23{clip-path:url(#SVGID_10_);fill:#1E2974;}
	.st24{clip-path:url(#SVGID_12_);fill:#D8211D;}
	.st25{clip-path:url(#SVGID_12_);fill:#DA3E1D;}
	.st26{clip-path:url(#SVGID_12_);fill:#E9B222;}
	.st27{clip-path:url(#SVGID_12_);fill:#D71E3D;}
	.st28{clip-path:url(#SVGID_12_);fill:#FFFFFF;}
	.st29{clip-path:url(#SVGID_12_);fill:#E6871F;}
	.st30{clip-path:url(#SVGID_12_);fill:#F4E827;}
	.st31{clip-path:url(#SVGID_12_);fill:#E6D22D;}
	.st32{clip-path:url(#SVGID_12_);fill:#1E2974;}
	.st33{clip-path:url(#SVGID_14_);fill:#D8211D;}
	.st34{clip-path:url(#SVGID_14_);fill:#E9B222;}
	.st35{clip-path:url(#SVGID_14_);fill:#DA3E1D;}
	.st36{clip-path:url(#SVGID_14_);fill:#D71E3D;}
	.st37{clip-path:url(#SVGID_14_);fill:#FFFFFF;}
	.st38{clip-path:url(#SVGID_14_);fill:#E6871F;}
	.st39{clip-path:url(#SVGID_14_);fill:#F4E827;}
	.st40{clip-path:url(#SVGID_14_);fill:#E6D22D;}
	.st41{clip-path:url(#SVGID_14_);fill:#1E2974;}
	.st42{clip-path:url(#SVGID_16_);fill:#D8211D;}
	.st43{clip-path:url(#SVGID_16_);fill:#DA3E1D;}
	.st44{clip-path:url(#SVGID_16_);fill:#FFFFFF;}
	.st45{clip-path:url(#SVGID_16_);fill:#E9B222;}
	.st46{clip-path:url(#SVGID_16_);fill:#E6D22D;}
	.st47{clip-path:url(#SVGID_16_);fill:#1E2974;}
	.st48{clip-path:url(#SVGID_18_);fill:#D8211D;}
	.st49{clip-path:url(#SVGID_18_);fill:#DA3E1D;}
	.st50{clip-path:url(#SVGID_18_);fill:#E9B222;}
	.st51{clip-path:url(#SVGID_18_);fill:#D71E3D;}
	.st52{clip-path:url(#SVGID_18_);fill:#FFFFFF;}
	.st53{clip-path:url(#SVGID_18_);fill:#E6871F;}
	.st54{clip-path:url(#SVGID_18_);fill:#F4E827;}
	.st55{clip-path:url(#SVGID_18_);fill:#E6D22D;}
	.st56{clip-path:url(#SVGID_18_);fill:#1E2974;}
	.st57{clip-path:url(#SVGID_20_);fill:#D8211D;}
	.st58{clip-path:url(#SVGID_20_);fill:#E9B222;}
	.st59{clip-path:url(#SVGID_20_);fill:#DA3E1D;}
	.st60{clip-path:url(#SVGID_20_);fill:#D71E3D;}
	.st61{clip-path:url(#SVGID_20_);fill:#FFFFFF;}
	.st62{clip-path:url(#SVGID_20_);fill:#E6871F;}
	.st63{clip-path:url(#SVGID_20_);fill:#F4E827;}
	.st64{clip-path:url(#SVGID_20_);fill:#E6D22D;}
	.st65{clip-path:url(#SVGID_20_);fill:#1E2974;}
</style>
<g>
	<g>
		<defs>
			<rect id="SVGID_1_" width="500" height="500"/>
		</defs>
		<clipPath id="SVGID_2_">
			<use xlink:href="#SVGID_1_"  style="overflow:visible;"/>
		</clipPath>
		<g class="st0">
			<defs>
				<rect id="SVGID_3_" x="419.5" y="-149.1" width="268.7" height="245.5"/>
			</defs>
			<clipPath id="SVGID_4_">
				<use xlink:href="#SVGID_3_"  style="overflow:visible;"/>
			</clipPath>
			<polygon class="st1" points="688.2,88.7 688.2,96.4 608.9,96.4 553.8,13 519.7,65.6 519.7,65.6 462.8,65.6 431.9,11.6 
				470.5,-38.9 470.5,-7 503.2,-39.2 503.2,29.5 529.5,-13.6 557,-13.4 611.1,64.4 611.1,-13 611.1,-13 688.2,-12.5 688.2,14.2 
				617.9,33.5 688.2,65.6 688.2,73.8 642.7,86.6 			"/>
			<polygon class="st2" points="553.8,13 608.9,96.4 499.6,96.4 519.7,65.6 519.7,65.6 			"/>
			<polygon class="st2" points="519.7,65.6 499.6,96.4 419.5,96.4 419.5,-52.1 470.5,-92 470.5,-38.9 431.9,11.6 462.8,65.6 			"/>
			<path class="st3" d="M688.7,97H418.9v-246.6h269.8V97z M420,95.9h267.6v-244.4H420V95.9z"/>
			
				<rect x="491.3" y="80.5" transform="matrix(0.5445 -0.8387 0.8387 0.5445 164.1631 464.3645)" class="st3" width="36.8" height="1.1"/>
			<polygon class="st3" points="519.7,66.2 462.5,66.2 431.3,11.5 470.1,-39.2 470.9,-38.6 432.6,11.6 463.2,65.1 519.7,65.1 			"/>
		</g>
		<g class="st0">
			<defs>
				<rect id="SVGID_5_" x="419.5" y="96.4" width="268.7" height="245.5"/>
			</defs>
			<clipPath id="SVGID_6_">
				<use xlink:href="#SVGID_5_"  style="overflow:visible;"/>
			</clipPath>
			<polygon class="st4" points="688.2,334.2 688.2,342 608.9,342 553.8,258.6 519.7,311.1 519.7,311.1 462.8,311.1 431.9,257.1 
				470.5,206.6 470.5,238.5 503.2,206.3 503.2,275 529.5,231.9 557,232.1 611.1,310 611.1,232.5 611.1,232.5 688.2,233.1 
				688.2,259.7 617.9,279 688.2,311.1 688.2,319.3 642.7,332.1 			"/>
			<polygon class="st5" points="553.8,258.6 608.9,342 499.6,342 519.7,311.1 519.7,311.1 			"/>
			<polygon class="st5" points="519.7,311.1 499.6,342 419.5,342 419.5,193.4 470.5,153.5 470.5,206.6 431.9,257.1 462.8,311.1 			
				"/>
			<polygon class="st6" points="503.2,153.5 503.2,206.3 470.5,153.5 470.5,96.4 503.2,96.4 			"/>
			<polygon class="st7" points="470.5,153.5 503.2,206.3 470.5,238.5 470.5,206.6 			"/>
			<polygon class="st4" points="470.5,96.4 470.5,153.5 435.1,96.4 			"/>
			<polygon class="st8" points="435.1,96.4 470.5,153.5 419.5,153.5 419.5,96.4 			"/>
			<polygon class="st9" points="470.5,153.5 419.5,193.4 419.5,153.5 			"/>
			<path class="st10" d="M688.7,342.5H418.9V95.9h269.8V342.5z M420,341.4h267.6V97H420V341.4z"/>
			<path class="st10" d="M469.9,239.8v-86.1l-35.4-57l0.9-0.6l34.4,55.5V96.4h1.1v56.9l32.9,53L469.9,239.8z M471,155.4v81.8
				l31.5-31L471,155.4z"/>
			<polygon class="st10" points="419.8,193.8 419.1,193 468.9,154.1 419.5,154.1 419.5,153 470.5,153 470.8,154 			"/>
			<polygon class="st10" points="500.1,342.3 499.2,341.7 519.2,310.8 520.1,311.4 			"/>
			<polygon class="st10" points="519.7,311.7 462.5,311.7 431.3,257.1 470.1,206.3 470.9,206.9 432.6,257.2 463.2,310.6 
				519.7,310.6 			"/>
		</g>
		<g class="st0">
			<defs>
				<rect id="SVGID_7_" x="419.5" y="342" width="268.7" height="245.5"/>
			</defs>
			<clipPath id="SVGID_8_">
				<use xlink:href="#SVGID_7_"  style="overflow:visible;"/>
			</clipPath>
			<polygon class="st11" points="688.2,579.7 688.2,587.5 608.9,587.5 553.8,504.1 519.7,556.7 519.7,556.7 462.8,556.7 
				431.9,502.6 470.5,452.1 470.5,484 503.2,451.8 503.2,520.5 529.5,477.4 557,477.6 611.1,555.5 611.1,478 611.1,478 688.2,478.6 
				688.2,505.3 617.9,524.5 688.2,556.7 688.2,564.8 642.7,577.7 			"/>
			<polygon class="st12" points="519.7,556.7 499.6,587.5 419.5,587.5 419.5,438.9 470.5,399.1 470.5,452.1 431.9,502.6 
				462.8,556.7 			"/>
			<polygon class="st13" points="503.2,399.1 503.2,451.8 470.5,399.1 470.5,342 503.2,342 			"/>
			<polygon class="st14" points="470.5,399.1 503.2,451.8 470.5,484 470.5,452.1 			"/>
			<polygon class="st11" points="470.5,342 470.5,399.1 435.1,342 			"/>
			<polygon class="st15" points="435.1,342 470.5,399.1 419.5,399.1 419.5,342 			"/>
			<polygon class="st16" points="470.5,399.1 419.5,438.9 419.5,399.1 			"/>
			<path class="st17" d="M688.7,588H418.9V341.4h269.8V588z M420,586.9h267.6V342.5H420V586.9z"/>
			<path class="st17" d="M469.9,485.3v-86.1l-35.4-57l0.9-0.6l34.4,55.5V342h1.1v56.9l32.9,53L469.9,485.3z M471,401v81.8l31.5-31
				L471,401z"/>
			<polygon class="st17" points="419.8,439.4 419.1,438.5 468.9,399.6 419.5,399.6 419.5,398.5 470.5,398.5 470.8,399.5 			"/>
			<polygon class="st17" points="519.7,557.2 462.5,557.2 431.3,502.6 470.1,451.8 470.9,452.5 432.6,502.7 463.2,556.1 
				519.7,556.1 			"/>
		</g>
		<g class="st0">
			<defs>
				<rect id="SVGID_9_" x="150.8" y="-149.1" width="268.7" height="245.5"/>
			</defs>
			<clipPath id="SVGID_10_">
				<use xlink:href="#SVGID_9_"  style="overflow:visible;"/>
			</clipPath>
			<polygon class="st18" points="419.5,88.7 419.5,96.4 340.1,96.4 285.1,13 251,65.6 251,65.6 194.1,65.6 163.2,11.6 201.8,-38.9 
				201.8,-7 234.5,-39.2 234.5,29.5 260.8,-13.6 288.3,-13.4 342.4,64.4 342.4,-13 342.4,-13 419.5,-12.5 419.5,14.2 349.2,33.5 
				419.5,65.6 419.5,73.8 374,86.6 			"/>
			<polygon class="st19" points="419.5,73.8 419.5,88.7 374,86.6 			"/>
			<polygon class="st19" points="419.5,14.2 419.5,65.6 349.2,33.5 			"/>
			<polygon class="st20" points="342.4,-13 342.4,64.4 288.3,-13.4 			"/>
			<polygon class="st21" points="285.1,13 340.1,96.4 230.9,96.4 251,65.6 251,65.6 			"/>
			<polygon class="st22" points="308.6,-92 298.5,-75.3 260.8,-13.6 234.5,29.5 234.5,-39.2 234.5,-92 			"/>
			<polygon class="st21" points="251,65.6 230.9,96.4 150.8,96.4 150.8,-52.1 201.8,-92 201.8,-38.9 163.2,11.6 194.1,65.6 			"/>
			<path class="st23" d="M420,97H150.2v-246.6H420V97z M151.3,95.9h267.6v-244.4H151.3V95.9z"/>
			<polygon class="st23" points="234,31.4 234,-149.1 235.1,-149.1 235.1,27.5 318.9,-109.9 319.8,-109.3 			"/>
			<polygon class="st23" points="343,66.2 287.7,-13.3 288.6,-13.9 288.8,-13.7 341.9,62.7 341.9,-149.1 343,-149.1 			"/>
			<polygon class="st23" points="419.3,66.1 347.6,33.4 419.3,13.7 419.6,14.7 350.8,33.6 419.7,65.1 			"/>
			<polygon class="st23" points="419.5,89.2 370.6,87 419.3,73.2 419.6,74.3 377.4,86.2 419.5,88.1 			"/>
			
				<rect x="222.6" y="80.5" transform="matrix(0.545 -0.8385 0.8385 0.545 41.7004 238.8901)" class="st23" width="36.8" height="1.1"/>
			<polygon class="st23" points="339.7,96.7 285.1,14 251.4,65.9 250.5,65.3 285.1,12.1 340.6,96.1 			"/>
			<polygon class="st23" points="251,66.2 193.8,66.2 162.5,11.5 162.8,11.3 201.3,-39.2 202.2,-38.6 163.8,11.6 194.4,65.1 
				251,65.1 			"/>
		</g>
		<g class="st0">
			<defs>
				<rect id="SVGID_11_" x="150.8" y="96.4" width="268.7" height="245.5"/>
			</defs>
			<clipPath id="SVGID_12_">
				<use xlink:href="#SVGID_11_"  style="overflow:visible;"/>
			</clipPath>
			<polygon class="st24" points="419.5,334.2 419.5,342 340.1,342 285.1,258.6 251,311.1 251,311.1 194.1,311.1 163.2,257.1 
				201.8,206.6 201.8,238.5 234.5,206.3 234.5,275 260.8,231.9 288.3,232.1 342.4,310 342.4,232.5 342.4,232.5 419.5,233.1 
				419.5,259.7 349.2,279 419.5,311.1 419.5,319.3 374,332.1 			"/>
			<polygon class="st25" points="419.5,319.3 419.5,334.2 374,332.1 			"/>
			<polygon class="st25" points="419.5,259.7 419.5,311.1 349.2,279 			"/>
			<polygon class="st24" points="419.5,179.4 419.5,233.1 342.4,232.5 			"/>
			<polygon class="st26" points="419.5,173.6 419.5,179.4 342.4,232.5 342.4,232.5 342.4,173.6 			"/>
			<polygon class="st25" points="419.5,161.9 419.5,173.6 342.4,173.6 342.4,96.4 419.5,96.4 385.4,125.7 			"/>
			<polygon class="st27" points="419.5,96.4 419.5,161.9 385.4,125.7 			"/>
			<polygon class="st28" points="342.4,232.5 342.4,310 288.3,232.1 			"/>
			<polygon class="st28" points="342.4,173.6 342.4,232.5 319.4,199.8 319.4,136 319.4,96.4 342.4,96.4 			"/>
			<polygon class="st29" points="288.3,232.1 260.8,231.9 298.5,170.2 319.4,199.8 342.4,232.5 			"/>
			<polygon class="st26" points="285.1,258.6 340.1,342 230.9,342 251,311.1 251,311.1 			"/>
			<polygon class="st30" points="319.4,136 319.4,199.8 298.5,170.2 308.6,153.5 			"/>
			<polygon class="st26" points="319.4,96.4 319.4,136 308.6,153.5 234.5,153.5 234.5,96.4 			"/>
			<polygon class="st31" points="308.6,153.5 298.5,170.2 260.8,231.9 234.5,275 234.5,206.3 234.5,153.5 			"/>
			<polygon class="st26" points="251,311.1 230.9,342 150.8,342 150.8,193.4 201.8,153.5 201.8,206.6 163.2,257.1 194.1,311.1 			
				"/>
			<polygon class="st30" points="234.5,153.5 234.5,206.3 201.8,153.5 201.8,96.4 234.5,96.4 			"/>
			<polygon class="st28" points="201.8,153.5 234.5,206.3 201.8,238.5 201.8,206.6 			"/>
			<polygon class="st24" points="201.8,96.4 201.8,153.5 166.3,96.4 			"/>
			<polygon class="st29" points="166.3,96.4 201.8,153.5 150.8,153.5 150.8,96.4 			"/>
			<polygon class="st27" points="201.8,153.5 150.8,193.4 150.8,153.5 			"/>
			<path class="st32" d="M420,342.5H150.2V95.9H420V342.5z M151.3,341.4h267.6V97H151.3V341.4z"/>
			<path class="st32" d="M201.2,239.8v-86.1l-35.4-57l0.9-0.6l34.4,55.5V96.4h1.1v56.9l32.9,53L201.2,239.8z M202.3,155.4v81.8
				l31.5-31L202.3,155.4z"/>
			<polygon class="st32" points="234,277 234,96.4 235.1,96.4 235.1,273.1 318.9,135.7 319.8,136.2 			"/>
			<rect x="318.8" y="96.4" class="st32" width="1.1" height="103.4"/>
			<polygon class="st32" points="151.1,193.8 150.4,193 200.2,154.1 150.8,154.1 150.8,153 201.8,153 202.1,154 			"/>
			<polygon class="st32" points="343,311.7 287.7,232.2 288.6,231.6 288.8,231.8 341.9,308.2 341.9,96.4 343,96.4 			"/>
			
				<rect x="380.4" y="194.3" transform="matrix(7.173271e-03 -1 1 7.173271e-03 145.4505 612.063)" class="st32" width="1.1" height="77.1"/>
			
				<rect x="301.1" y="191.4" transform="matrix(7.311303e-03 -1 1 7.311303e-03 67.2077 532.1169)" class="st32" width="1.1" height="81.6"/>
			<polygon class="st32" points="342.6,233.1 342.2,233.1 342,232.8 298,170.5 298.9,169.9 342.6,231.8 419.2,179 419.8,179.9 			
				"/>
			<rect x="234.5" y="153" class="st32" width="74.1" height="1.1"/>
			<rect x="342.4" y="173.1" class="st32" width="77.1" height="1.1"/>
			<polygon class="st32" points="419.1,162.3 384.6,125.7 419.1,96 419.8,96.9 386.2,125.8 419.9,161.6 			"/>
			<polygon class="st32" points="419.3,311.6 347.6,278.9 419.3,259.2 419.6,260.3 350.8,279.1 419.7,310.6 			"/>
			<polygon class="st32" points="419.5,334.7 370.6,332.5 419.3,318.8 419.6,319.8 377.4,331.8 419.5,333.7 			"/>
			
				<rect x="222.6" y="326" transform="matrix(0.5443 -0.8389 0.8389 0.5443 -164.1432 350.9174)" class="st32" width="36.8" height="1.1"/>
			<polygon class="st32" points="339.7,342.3 285.1,259.6 251.4,311.4 250.5,310.8 285.1,257.6 340.6,341.7 			"/>
			<polygon class="st32" points="251,311.7 193.8,311.7 162.5,257.1 201.3,206.3 202.2,206.9 163.8,257.2 194.4,310.6 251,310.6 			
				"/>
		</g>
		<g class="st0">
			<defs>
				<rect id="SVGID_13_" x="150.8" y="342" width="268.7" height="245.5"/>
			</defs>
			<clipPath id="SVGID_14_">
				<use xlink:href="#SVGID_13_"  style="overflow:visible;"/>
			</clipPath>
			<polygon class="st33" points="419.5,579.7 419.5,587.5 340.1,587.5 285.1,504.1 251,556.7 251,556.7 194.1,556.7 163.2,502.6 
				201.8,452.1 201.8,484 234.5,451.8 234.5,520.5 260.8,477.4 288.3,477.6 342.4,555.5 342.4,478 342.4,478 419.5,478.6 
				419.5,505.3 349.2,524.5 419.5,556.7 419.5,564.8 374,577.7 			"/>
			<polygon class="st33" points="419.5,425 419.5,478.6 342.4,478 			"/>
			<polygon class="st34" points="419.5,419.1 419.5,425 342.4,478 342.4,478 342.4,419.1 			"/>
			<polygon class="st35" points="419.5,407.5 419.5,419.1 342.4,419.1 342.4,342 419.5,342 385.4,371.2 			"/>
			<polygon class="st36" points="419.5,342 419.5,407.5 385.4,371.2 			"/>
			<polygon class="st37" points="342.4,478 342.4,555.5 288.3,477.6 			"/>
			<polygon class="st37" points="342.4,419.1 342.4,478 319.4,445.3 319.4,381.5 319.4,342 342.4,342 			"/>
			<polygon class="st38" points="288.3,477.6 260.8,477.4 298.5,415.7 319.4,445.3 342.4,478 			"/>
			<polygon class="st39" points="319.4,381.5 319.4,445.3 298.5,415.7 308.6,399.1 			"/>
			<polygon class="st34" points="319.4,342 319.4,381.5 308.6,399.1 234.5,399.1 234.5,342 			"/>
			<polygon class="st40" points="308.6,399.1 298.5,415.7 260.8,477.4 234.5,520.5 234.5,451.8 234.5,399.1 			"/>
			<polygon class="st34" points="251,556.7 230.9,587.5 150.8,587.5 150.8,438.9 201.8,399.1 201.8,452.1 163.2,502.6 194.1,556.7 
							"/>
			<polygon class="st39" points="234.5,399.1 234.5,451.8 201.8,399.1 201.8,342 234.5,342 			"/>
			<polygon class="st37" points="201.8,399.1 234.5,451.8 201.8,484 201.8,452.1 			"/>
			<polygon class="st33" points="201.8,342 201.8,399.1 166.3,342 			"/>
			<polygon class="st38" points="166.3,342 201.8,399.1 150.8,399.1 150.8,342 			"/>
			<polygon class="st36" points="201.8,399.1 150.8,438.9 150.8,399.1 			"/>
			<path class="st41" d="M420,588H150.2V341.4H420V588z M151.3,586.9h267.6V342.5H151.3V586.9z"/>
			<path class="st41" d="M201.2,485.3v-86.1l-35.4-57l0.9-0.6l34.4,55.5V342h1.1v56.9l32.9,53L201.2,485.3z M202.3,401v81.8l31.5-31
				L202.3,401z"/>
			<polygon class="st41" points="234,522.5 234,342 235.1,342 235.1,518.6 318.9,381.2 319.8,381.8 			"/>
			<rect x="318.8" y="342" class="st41" width="1.1" height="103.4"/>
			<polygon class="st41" points="151.1,439.4 150.4,438.5 200.2,399.6 150.8,399.6 150.8,398.5 201.8,398.5 202.1,399.5 			"/>
			<polygon class="st41" points="343,557.2 287.7,477.8 288.6,477.1 288.8,477.3 341.9,553.7 341.9,342 343,342 			"/>
			
				<rect x="380.4" y="439.8" transform="matrix(7.173271e-03 -1 1 7.173271e-03 -100.0661 855.8248)" class="st41" width="1.1" height="77.1"/>
			
				<rect x="301.1" y="436.9" transform="matrix(7.311303e-03 -1 1 7.311303e-03 -178.3086 775.8448)" class="st41" width="1.1" height="81.6"/>
			<polygon class="st41" points="342.6,478.6 342.2,478.6 342,478.3 298,416 298.9,415.4 342.6,477.3 419.2,424.5 419.8,425.4 			
				"/>
			<rect x="234.5" y="398.5" class="st41" width="74.1" height="1.1"/>
			<rect x="342.4" y="418.6" class="st41" width="77.1" height="1.1"/>
			<polygon class="st41" points="419.1,407.8 384.6,371.2 419.1,341.6 419.8,342.4 386.2,371.3 419.9,407.1 			"/>
			<polygon class="st41" points="251,557.2 193.8,557.2 162.5,502.6 201.3,451.8 202.2,452.5 163.8,502.7 194.4,556.1 251,556.1 			
				"/>
		</g>
		<g class="st0">
			<defs>
				<rect id="SVGID_15_" x="-117.9" y="-149.1" width="268.7" height="245.5"/>
			</defs>
			<clipPath id="SVGID_16_">
				<use xlink:href="#SVGID_15_"  style="overflow:visible;"/>
			</clipPath>
			<polygon class="st42" points="150.8,88.7 150.8,96.4 71.4,96.4 16.4,13 -17.7,65.6 -17.8,65.6 -74.6,65.6 -105.5,11.6 
				-66.9,-38.9 -66.9,-7 -34.2,-39.2 -34.2,29.5 -7.9,-13.6 19.6,-13.4 73.7,64.4 73.7,-13 73.7,-13 150.8,-12.5 150.8,14.2 
				80.5,33.5 150.8,65.6 150.8,73.8 105.3,86.6 			"/>
			<polygon class="st43" points="150.8,73.8 150.8,88.7 105.3,86.6 			"/>
			<polygon class="st43" points="150.8,14.2 150.8,65.6 80.5,33.5 			"/>
			<polygon class="st44" points="73.7,-13 73.7,64.4 19.6,-13.4 			"/>
			<polygon class="st45" points="16.4,13 71.4,96.4 -37.8,96.4 -17.8,65.6 -17.7,65.6 			"/>
			<polygon class="st46" points="39.9,-92 29.7,-75.3 -7.9,-13.6 -34.2,29.5 -34.2,-39.2 -34.2,-92 			"/>
			<path class="st47" d="M151.3,97h-269.8v-246.6h269.8V97z M-117.4,95.9h267.6v-244.4h-267.6V95.9z"/>
			<polygon class="st47" points="-34.7,31.4 -34.7,-149.1 -33.7,-149.1 -33.7,27.5 50.2,-109.9 51.1,-109.3 			"/>
			<polygon class="st47" points="74.3,66.2 19,-13.3 19.9,-13.9 20,-13.7 73.2,62.7 73.2,-149.1 74.3,-149.1 			"/>
			<polygon class="st47" points="150.5,66.1 78.9,33.4 150.6,13.7 150.9,14.7 82.1,33.6 151,65.1 			"/>
			<polygon class="st47" points="150.7,89.2 101.9,87 150.6,73.2 150.9,74.3 108.7,86.2 150.8,88.1 			"/>
			<polygon class="st47" points="71,96.7 16.4,14 -17.3,65.9 -18.2,65.3 16.4,12.1 71.9,96.1 			"/>
		</g>
		<g class="st0">
			<defs>
				<rect id="SVGID_17_" x="-117.9" y="96.4" width="268.7" height="245.5"/>
			</defs>
			<clipPath id="SVGID_18_">
				<use xlink:href="#SVGID_17_"  style="overflow:visible;"/>
			</clipPath>
			<polygon class="st48" points="150.8,334.2 150.8,342 71.4,342 16.4,258.6 -17.7,311.1 -17.8,311.1 -74.6,311.1 -105.5,257.1 
				-66.9,206.6 -66.9,238.5 -34.2,206.3 -34.2,275 -7.9,231.9 19.6,232.1 73.7,310 73.7,232.5 73.7,232.5 150.8,233.1 150.8,259.7 
				80.5,279 150.8,311.1 150.8,319.3 105.3,332.1 			"/>
			<polygon class="st49" points="150.8,319.3 150.8,334.2 105.3,332.1 			"/>
			<polygon class="st49" points="150.8,259.7 150.8,311.1 80.5,279 			"/>
			<polygon class="st48" points="150.8,179.4 150.8,233.1 73.7,232.5 			"/>
			<polygon class="st50" points="150.8,173.6 150.8,179.4 73.7,232.5 73.7,232.5 73.7,173.6 			"/>
			<polygon class="st49" points="150.8,161.9 150.8,173.6 73.7,173.6 73.7,96.4 150.8,96.4 116.7,125.7 			"/>
			<polygon class="st51" points="150.8,96.4 150.8,161.9 116.7,125.7 			"/>
			<polygon class="st52" points="73.7,232.5 73.7,310 19.6,232.1 			"/>
			<polygon class="st52" points="73.7,173.6 73.7,232.5 50.6,199.8 50.6,136 50.6,96.4 73.7,96.4 			"/>
			<polygon class="st53" points="19.6,232.1 -7.9,231.9 29.7,170.2 50.6,199.8 73.7,232.5 			"/>
			<polygon class="st50" points="16.4,258.6 71.4,342 -37.8,342 -17.8,311.1 -17.7,311.1 			"/>
			<polygon class="st54" points="50.6,136 50.6,199.8 29.7,170.2 39.9,153.5 			"/>
			<polygon class="st50" points="50.6,96.4 50.6,136 39.9,153.5 -34.2,153.5 -34.2,96.4 			"/>
			<polygon class="st55" points="39.9,153.5 29.7,170.2 -7.9,231.9 -34.2,275 -34.2,206.3 -34.2,153.5 			"/>
			<path class="st56" d="M151.3,342.5h-269.8V95.9h269.8V342.5z M-117.4,341.4h267.6V97h-267.6V341.4z"/>
			<polygon class="st56" points="-34.7,277 -34.7,96.4 -33.7,96.4 -33.7,273.1 50.2,135.7 51.1,136.2 			"/>
			<rect x="50.1" y="96.4" class="st56" width="1.1" height="103.4"/>
			<polygon class="st56" points="74.3,311.7 19,232.2 19.9,231.6 20,231.8 73.2,308.2 73.2,96.4 74.3,96.4 			"/>
			
				<rect x="111.7" y="194.3" transform="matrix(7.173226e-03 -1 1 7.173226e-03 -121.3351 343.3568)" class="st56" width="1.1" height="77.1"/>
			
				<rect x="32.4" y="191.4" transform="matrix(7.311347e-03 -1 1 7.311347e-03 -199.5407 263.411)" class="st56" width="1.1" height="81.6"/>
			<polygon class="st56" points="73.9,233.1 73.4,233.1 73.3,232.8 29.3,170.5 30.2,169.9 73.8,231.8 150.5,179 151.1,179.9 			"/>
			<rect x="-34.2" y="153" class="st56" width="74.1" height="1.1"/>
			<rect x="73.7" y="173.1" class="st56" width="77.1" height="1.1"/>
			<polygon class="st56" points="150.4,162.3 115.9,125.7 150.4,96 151.1,96.9 117.5,125.8 151.2,161.6 			"/>
			<polygon class="st56" points="150.5,311.6 78.9,278.9 150.6,259.2 150.9,260.3 82.1,279.1 151,310.6 			"/>
			<polygon class="st56" points="150.7,334.7 101.9,332.5 150.6,318.8 150.9,319.8 108.7,331.8 150.8,333.7 			"/>
			<polygon class="st56" points="71,342.3 16.4,259.6 -17.3,311.4 -18.2,310.8 16.4,257.6 71.9,341.7 			"/>
		</g>
		<g class="st0">
			<defs>
				<rect id="SVGID_19_" x="-117.9" y="342" width="268.7" height="245.5"/>
			</defs>
			<clipPath id="SVGID_20_">
				<use xlink:href="#SVGID_19_"  style="overflow:visible;"/>
			</clipPath>
			<polygon class="st57" points="150.8,579.7 150.8,587.5 71.4,587.5 16.4,504.1 -17.7,556.7 -17.8,556.7 -74.6,556.7 -105.5,502.6 
				-66.9,452.1 -66.9,484 -34.2,451.8 -34.2,520.5 -7.9,477.4 19.6,477.6 73.7,555.5 73.7,478 73.7,478 150.8,478.6 150.8,505.3 
				80.5,524.5 150.8,556.7 150.8,564.8 105.3,577.7 			"/>
			<polygon class="st57" points="150.8,425 150.8,478.6 73.7,478 			"/>
			<polygon class="st58" points="150.8,419.1 150.8,425 73.7,478 73.7,478 73.7,419.1 			"/>
			<polygon class="st59" points="150.8,407.5 150.8,419.1 73.7,419.1 73.7,342 150.8,342 116.7,371.2 			"/>
			<polygon class="st60" points="150.8,342 150.8,407.5 116.7,371.2 			"/>
			<polygon class="st61" points="73.7,478 73.7,555.5 19.6,477.6 			"/>
			<polygon class="st61" points="73.7,419.1 73.7,478 50.6,445.3 50.6,381.5 50.6,342 73.7,342 			"/>
			<polygon class="st62" points="19.6,477.6 -7.9,477.4 29.7,415.7 50.6,445.3 73.7,478 			"/>
			<polygon class="st63" points="50.6,381.5 50.6,445.3 29.7,415.7 39.9,399.1 			"/>
			<polygon class="st58" points="50.6,342 50.6,381.5 39.9,399.1 -34.2,399.1 -34.2,342 			"/>
			<polygon class="st64" points="39.9,399.1 29.7,415.7 -7.9,477.4 -34.2,520.5 -34.2,451.8 -34.2,399.1 			"/>
			<path class="st65" d="M151.3,588h-269.8V341.4h269.8V588z M-117.4,586.9h267.6V342.5h-267.6V586.9z"/>
			<polygon class="st65" points="-34.7,522.5 -34.7,342 -33.7,342 -33.7,518.6 50.2,381.2 51.1,381.8 			"/>
			<rect x="50.1" y="342" class="st65" width="1.1" height="103.4"/>
			<polygon class="st65" points="74.3,557.2 19,477.8 19.9,477.1 20,477.3 73.2,553.7 73.2,342 74.3,342 			"/>
			
				<rect x="111.7" y="439.8" transform="matrix(7.173226e-03 -1 1 7.173226e-03 -366.8517 587.1186)" class="st65" width="1.1" height="77.1"/>
			
				<rect x="32.4" y="436.9" transform="matrix(7.311347e-03 -1 1 7.311347e-03 -445.0571 507.1388)" class="st65" width="1.1" height="81.6"/>
			<polygon class="st65" points="73.9,478.6 73.4,478.6 73.3,478.3 29.3,416 30.2,415.4 73.8,477.3 150.5,424.5 151.1,425.4 			"/>
			<rect x="-34.2" y="398.5" class="st65" width="74.1" height="1.1"/>
			<rect x="73.7" y="418.6" class="st65" width="77.1" height="1.1"/>
			<polygon class="st65" points="150.4,407.8 115.9,371.2 150.4,341.6 151.1,342.4 117.5,371.3 151.2,407.1 			"/>
		</g>
	</g>
</g>
</svg>
