<?xml version="1.0" encoding="utf-8"?>
<!-- Generator: Adobe Illustrator 21.1.0, SVG Export Plug-In . SVG Version: 6.00 Build 0)  -->
<svg version="1.1" id="レイヤー_1" xmlns="http://www.w3.org/2000/svg" xmlns:xlink="http://www.w3.org/1999/xlink" x="0px"
	 y="0px" viewBox="0 0 500 500" style="enable-background:new 0 0 500 500;" xml:space="preserve">
<style type="text/css">
	.st0{fill:none;}
	.st1{fill:#C1986B;}
	.st2{fill:#040000;}
</style>
<g>
	<path class="st0" d="M338.8,336.7c0,0-0.9,0.1-2.4,0.5l0,0c-9.2,2-40.8,11.5-37.5,44.7c0,0,1,12.7,12.6,21.5
		c-0.2-1.9-0.7-18.6,29.2-26.9c0,0,2.3-0.3,5.9-1.3l0,0c11.9-3.3,37-14,34-43.8c0,0-1-12.7-12.6-21.5
		C368.2,311.8,368.7,328.5,338.8,336.7z"/>
	<path class="st0" d="M46.4,194.5c0,0,2.3-0.3,5.9-1.3l0,0c11.9-3.3,37-14,34-43.8c0,0-1-12.7-12.6-21.5c0.2,1.9,0.7,18.6-29.2,26.9
		c0,0-0.9,0.1-2.4,0.5l0,0c-9.2,2-40.8,11.5-37.5,44.7c0,0,1,12.7,12.6,21.5C17.1,219.5,16.5,202.8,46.4,194.5z"/>
	<path class="st0" d="M448.1,133.6c0,0-43.9,6.3-40,45.2c0,0,1,12.7,12.6,21.5c-0.2-1.9-0.7-18.6,29.2-26.9c0,0,43.9-6.3,40-45.2
		c0,0-1-12.7-12.6-21.5C477.4,108.7,478,125.3,448.1,133.6z"/>
	<path class="st0" d="M306.7,226.3l0-0.2c1.6-6.1,7.4-16.2,28.7-22c0,0,43.9-6.3,40-45.2c0,0-1-12.7-12.6-21.5
		c0.2,1.9,0.7,18.6-29.2,26.9c0,0-27.2,3.9-36.9,24.6l0,0.1c-2.6,5.5-3.9,12.3-3.1,20.5c0,0,1,12.7,12.6,21.5
		C306.2,230.4,306.1,228.7,306.7,226.3z"/>
	<path class="st0" d="M398.7,407.6c0,0-27.2,3.9-36.9,24.6l0,0.1c-2.6,5.5-3.9,12.3-3.1,20.5c0,0,1,12.7,12.6,21.5
		c0-0.5-0.1-2.3,0.5-4.6l0-0.2c1.6-6.1,7.4-16.2,28.7-22c0,0,43.9-6.3,40-45.2c0,0-1-12.7-12.6-21.5
		C428.1,382.7,428.6,399.4,398.7,407.6z"/>
	<path class="st0" d="M395.2,275c0,0,43.9-6.3,40-45.2c0,0-1-12.7-12.6-21.5c0.2,1.9,0.7,18.6-29.2,26.9c0,0-43.9,6.3-40,45.2
		c0,0,1,12.7,12.6,21.5C365.9,299.9,365.3,283.3,395.2,275z"/>
	<path class="st0" d="M220.8,234.8c0,0,43.9-6.3,40-45.2c0,0-1-12.7-12.6-21.5c0.2,1.9,0.7,18.6-29.2,26.9c0,0-43.9,6.3-40,45.2
		c0,0,1,12.7,12.6,21.5C191.4,259.7,190.9,243.1,220.8,234.8z"/>
	<path class="st0" d="M51.6,367c0,0,32.4-4.6,39-30.7l0,0c1.1-4.2,1.5-9.1,0.9-14.5c0,0-0.9-10.7-10-19.3l0,0
		c-0.8-0.8-1.7-1.5-2.6-2.2c0.2,1.9,0.7,18.6-29.2,26.9c0,0-43.9,6.3-40,45.2c0,0,1,12.7,12.6,21.5C22.3,392,21.7,375.3,51.6,367z"
		/>
	<path class="st0" d="M104.5,225.7c0,0-27.2,3.9-36.9,24.6l0,0.1c-2.6,5.5-3.9,12.3-3.1,20.5c0,0,1,12.7,12.6,21.5
		c0-0.5-0.1-2.3,0.5-4.6l0-0.2c1.6-6.1,7.4-16.2,28.7-22c0,0,43.9-6.3,40-45.2c0,0-1-12.7-12.6-21.5
		C133.8,200.7,134.4,217.4,104.5,225.7z"/>
	<path class="st0" d="M160.9,163.9c0,0,43.9-6.3,40-45.2c0,0-1-12.7-12.6-21.5c0.2,1.9,0.7,18.6-29.2,26.9c0,0-43.9,6.3-40,45.2
		c0,0,1,12.7,12.6,21.5C131.5,188.8,131,172.2,160.9,163.9z"/>
	<path class="st0" d="M164.4,296.5c0,0-43.9,6.3-40,45.2c0,0,1,12.7,12.6,21.5c-0.2-1.9-0.7-18.6,29.2-26.9c0,0,43.9-6.3,40-45.2
		c0,0-1-12.7-12.6-21.5C193.7,271.6,194.3,288.3,164.4,296.5z"/>
	<path class="st0" d="M388.2,62.7c0,0-43.9,6.3-40,45.2c0,0,1,12.7,12.6,21.5c-0.2-1.9-0.7-18.6,29.2-26.9c0,0,43.9-6.3,40-45.2
		c0,0-1-12.7-12.6-21.5C417.5,37.8,418,54.4,388.2,62.7z"/>
	<path class="st0" d="M99.2,53.2c0,0-43.9,6.3-40,45.2c0,0,1,12.7,12.6,21.5c-0.2-1.9-0.7-18.6,29.2-26.9c0,0,43.9-6.3,40-45.2
		c0,0-1-12.7-12.6-21.5C128.5,28.3,129.1,44.9,99.2,53.2z"/>
	<path class="st0" d="M109.8,398.1c0,0-0.9,0.1-2.4,0.5l0,0c-9.2,2-40.8,11.5-37.5,44.7c0,0,1,12.7,12.6,21.5
		c-0.2-1.9-0.7-18.6,29.2-26.9c0,0,2.3-0.3,5.9-1.3l0,0c11.9-3.3,37-14,34-43.8c0,0-1-12.7-12.6-21.5
		C139.1,373.2,139.6,389.8,109.8,398.1z"/>
	<path class="st0" d="M278.9,265.9c0,0-43.9,6.3-40,45.2c0,0,1,12.7,12.6,21.5c-0.2-1.9-0.7-18.6,29.2-26.9c0,0,32.4-4.6,39-30.7
		l0,0c1.1-4.2,1.5-9.1,0.9-14.5c0,0-0.9-10.7-10-19.3l0,0c-0.8-0.8-1.7-1.5-2.6-2.2C308.3,240.9,308.8,257.6,278.9,265.9z"/>
	<path class="st0" d="M224.3,367.4c0,0-43.9,6.3-40,45.2c0,0,1,12.7,12.6,21.5c-0.2-1.9-0.7-18.6,29.2-26.9c0,0,43.9-6.3,40-45.2
		c0,0-1-12.7-12.6-21.5C253.6,342.5,254.2,359.2,224.3,367.4z"/>
	<path class="st0" d="M275.5,133.2c0,0,2.3-0.3,5.9-1.3l0,0c11.9-3.3,37-14,34-43.8c0,0-1-12.7-12.6-21.5
		c0.2,1.9,0.7,18.6-29.2,26.9c0,0-0.9,0.1-2.4,0.5l0,0c-9.2,2-40.8,11.5-37.5,44.7c0,0,1,12.7,12.6,21.5
		C246.2,158.1,245.6,141.4,275.5,133.2z"/>
	<path class="st0" d="M453.4,306.1c0,0-43.9,6.3-40,45.2c0,0,1,12.7,12.6,21.5c-0.2-1.9-0.7-18.6,29.2-26.9c0,0,43.9-6.3,40-45.2
		c0,0-1-12.7-12.6-21.5C482.7,281.1,483.3,297.8,453.4,306.1z"/>
	<path class="st1" d="M448.9,0c-2.7,0.7-4.4,0.9-4.4,0.9c-29.9,8.3-29.3,24.9-29.2,26.9c1.4,1.1,3,2.1,4.7,3l74.4-19.9l0,0l0,0
		c1.9-3.8,3.4-7.4,4.6-10.9H448.9z"/>
	<path class="st1" d="M305.6,61.5L380,41.6c8.2-16.3,9.5-30.1,7.3-41.6h-17.9C363.2,26.9,330,31.6,330,31.6
		c-29.9,8.3-29.3,24.9-29.2,26.9C302.3,59.5,303.8,60.6,305.6,61.5z"/>
	<path class="st2" d="M305.6,61.5c-1.7-0.9-3.3-1.9-4.7-3C289.3,49.7,288.3,37,288.3,37c-1.9-19.3,7.9-30.5,18.2-37h-34.9
		c-9.6,41.9,28.3,63,28.3,63l0,0L305.6,61.5z"/>
	<path class="st2" d="M415.4,27.8C403.8,19,402.8,6.3,402.8,6.3c-0.2-2.2-0.3-4.3-0.2-6.3h-15c7.5,21.5,26.9,32.3,26.9,32.3l0.5-0.1
		l5.1-1.4C418.4,29.9,416.8,28.9,415.4,27.8z"/>
	<polygon class="st1" points="298.1,63.5 298.1,63.5 298.1,63.5 	"/>
	<path class="st1" d="M302.8,66.5c11.6,8.8,12.6,21.5,12.6,21.5c3,29.8-22.1,40.5-34,43.8l0,0c-3.5,1-5.9,1.3-5.9,1.3
		c-29.9,8.3-29.3,24.9-29.2,26.9c1.4,1.1,3,2.1,4.7,3l36.1-9.7v0l38.2-10.2C352.5,89.3,303.7,62,303.7,62l-5.2,1.4l4.2,3
		C302.8,66.3,302.8,66.4,302.8,66.5z"/>
	<path class="st2" d="M298.1,63.5l-32.6,8.7v0l-41.6,11.2c-27.2,53.9,21.6,81.1,21.6,81.1l5.2-1.4l0.5-0.1l0,0l0,0
		c-1.7-0.9-3.3-1.9-4.7-3c-11.6-8.8-12.6-21.5-12.6-21.5c-3.3-33.3,28.2-42.7,37.5-44.7l0,0c1.5-0.3,2.4-0.5,2.4-0.5
		c29.9-8.3,29.3-24.9,29.2-26.9c0-0.1,0-0.2,0-0.2l-4.2-3l0,0L298.1,63.5L298.1,63.5z"/>
	<path class="st1" d="M418.3,31.3l-5.2,1.4l4.2,3c0,0,0,0.1,0,0.2c11.6,8.8,12.6,21.5,12.6,21.5c3.9,38.9-40,45.2-40,45.2
		c-29.9,8.3-29.3,24.9-29.2,26.9c1.4,1.1,3,2.1,4.7,3l74.4-19.9C467.1,58.6,418.3,31.3,418.3,31.3z"/>
	<polygon class="st1" points="412.6,32.8 412.6,32.8 412.6,32.8 	"/>
	<polygon class="st1" points="365,132.5 365,132.5 365.5,132.4 	"/>
	<path class="st2" d="M360.8,129.4c-11.6-8.8-12.6-21.5-12.6-21.5c-3.9-38.9,40-45.2,40-45.2c29.9-8.3,29.3-24.9,29.2-26.9
		c0-0.1,0-0.2,0-0.2l-4.2-3l0,0l-0.5,0.1l0,0l-74.4,19.9c-27.2,53.9,21.6,81.1,21.6,81.1l5.2-1.4l0.5-0.1l0,0c0,0,0,0,0,0
		C363.7,131.5,362.2,130.4,360.8,129.4z"/>
	<polygon class="st1" points="479.6,101.8 479.6,101.8 480.1,101.7 	"/>
	<path class="st1" d="M500,73.2c-25.2,8.6-24.8,23.6-24.6,25.4c1.4,1.1,3,2.1,4.7,3l19.9-5.3V73.2z"/>
	<path class="st2" d="M475.4,98.7c-11.6-8.8-12.6-21.5-12.6-21.5c-3.3-32.9,27.6-42.5,37.2-44.7V9.4l-5.5,1.5l0,0L452.9,22
		c-27.2,53.9,21.6,81.1,21.6,81.1l5.2-1.4l0.5-0.1l0,0c0,0,0,0,0,0C478.4,100.7,476.8,99.7,475.4,98.7z"/>
	<path class="st1" d="M362.7,137.4c11.6,8.8,12.6,21.5,12.6,21.5c3.9,38.9-40,45.2-40,45.2c-21.2,5.9-27.1,16-28.7,22l0,0.2
		c-0.6,2.4-0.5,4.1-0.5,4.6c0.7,0.5,1.4,1,2.1,1.5l0,0.1c0.8,0.5,1.6,1,2.5,1.5l74.4-19.9c27.2-53.9-21.6-81.1-21.6-81.1l-5.2,1.4
		l4.2,3C362.7,137.2,362.7,137.3,362.7,137.4z"/>
	<polygon class="st1" points="358,134.4 358,134.4 358,134.4 	"/>
	<polygon class="st1" points="310.3,234.1 310.3,234.1 310.9,234 	"/>
	<path class="st2" d="M358,134.4l-70.8,19l0,0l-3.5,0.9c-27.2,53.9,21.6,81.1,21.6,81.1l3.6-1l0,0l1.4-0.4l0.5-0.1l0,0l0,0
		c-0.9-0.5-1.7-1-2.5-1.5l0-0.1c-0.7-0.5-1.4-1-2.1-1.5c-11.6-8.8-12.6-21.5-12.6-21.5c-0.8-8.2,0.5-14.9,3.1-20.5l0-0.1
		c9.7-20.7,36.9-24.6,36.9-24.6c29.9-8.3,29.3-24.9,29.2-26.9c0-0.1,0-0.2,0-0.2l-4.2-3l0,0L358,134.4L358,134.4z"/>
	<polygon class="st1" points="424.9,203.4 424.9,203.4 425.4,203.3 	"/>
	<path class="st1" d="M500,182.9v-59.1c-8.8-14.4-21.8-21.6-21.8-21.6l-5.2,1.4l4.2,3c0,0,0,0.1,0,0.2c11.6,8.8,12.6,21.5,12.6,21.5
		c3.9,38.9-40,45.2-40,45.2c-29.9,8.3-29.3,24.9-29.2,26.9c1.4,1.1,3,2.1,4.7,3l74.4-19.9C499.9,183.2,499.9,183.1,500,182.9z"/>
	<polygon class="st1" points="472.6,103.7 472.5,103.7 472.5,103.7 	"/>
	<path class="st2" d="M420.7,200.3c-11.6-8.8-12.6-21.5-12.6-21.5c-3.9-38.9,40-45.2,40-45.2c29.9-8.3,29.3-24.9,29.2-26.9
		c0-0.1,0-0.2,0-0.2l-4.2-3l0,0l-0.5,0.1l0,0l-74.4,19.9c-27.2,53.9,21.6,81.1,21.6,81.1l5.2-1.4l0.5-0.1l0,0c0,0,0,0,0,0
		C423.7,202.4,422.1,201.3,420.7,200.3z"/>
	<polygon class="st1" points="418.4,205.2 417.9,205.3 417.9,205.3 	"/>
	<path class="st1" d="M422.6,208.3c11.6,8.8,12.6,21.5,12.6,21.5c3.9,38.9-40,45.2-40,45.2c-29.9,8.3-29.3,24.9-29.2,26.9
		c1.4,1.1,3,2.1,4.7,3l74.4-19.9c27.2-53.9-21.6-81.1-21.6-81.1l-5.2,1.4l4.2,3C422.6,208.1,422.6,208.2,422.6,208.3z"/>
	<path class="st2" d="M370.8,304.9c-1.7-0.9-3.3-1.9-4.7-3c-11.6-8.8-12.6-21.5-12.6-21.5c-3.9-38.9,40-45.2,40-45.2
		c29.9-8.3,29.3-24.9,29.2-26.9c0-0.1,0-0.2,0-0.2l-4.2-3h0l0,0l-0.5,0.1l-74.4,19.9c-27.2,53.9,21.6,81.1,21.6,81.1l0,0
		L370.8,304.9z"/>
	<path class="st1" d="M485.3,274.2l14.7-3.9v-22.5c-20,8.8-19.5,21.7-19.4,23.4C482,272.2,483.6,273.2,485.3,274.2z"/>
	<path class="st2" d="M485.3,274.2c-1.7-0.9-3.3-1.9-4.7-3c-11.6-8.8-12.6-21.5-12.6-21.5c-2.8-28.3,19.5-39.3,32-43.2v-23.1
		l-42,11.2c-27.2,53.9,21.6,81.1,21.6,81.1l0.5-0.1L485.3,274.2z"/>
	<polygon class="st1" points="363.3,306.9 363.3,306.9 363.3,306.9 	"/>
	<polygon class="st1" points="430.2,375.9 430.2,375.9 430.7,375.8 	"/>
	<polygon class="st1" points="477.9,276.2 477.8,276.2 477.8,276.2 	"/>
	<path class="st1" d="M500,289c-7.9-9.5-16.5-14.3-16.5-14.3l-5.2,1.4l4.2,3c0,0,0,0.1,0,0.2c11.6,8.8,12.6,21.5,12.6,21.5
		c3.9,38.9-40,45.2-40,45.2c-29.9,8.3-29.3,24.9-29.2,26.9c1.4,1.1,3,2.1,4.7,3l69.3-18.6V289z"/>
	<path class="st2" d="M426,372.7c-11.6-8.8-12.6-21.5-12.6-21.5c-3.9-38.9,40-45.2,40-45.2c29.9-8.3,29.3-24.9,29.2-26.9
		c0-0.1,0-0.2,0-0.2l-4.2-3l0,0l-0.5,0.1l0,0l-74.4,19.9C376.2,350,425,377.3,425,377.3l5.2-1.4l0.5-0.1l0,0c0,0,0,0,0,0
		C429,374.8,427.4,373.8,426,372.7z"/>
	<polygon class="st1" points="375.5,477.5 375.6,477.5 376.1,477.3 	"/>
	<path class="st1" d="M450.5,457.4c27.2-53.9-21.6-81.1-21.6-81.1l-5.2,1.4l4.2,3c0,0,0,0.1,0,0.2c11.6,8.8,12.6,21.5,12.6,21.5
		c3.9,38.9-40,45.2-40,45.2c-21.2,5.9-27.1,16-28.7,22l0,0.2c-0.6,2.4-0.5,4.1-0.5,4.6c0.7,0.5,1.4,1,2.1,1.5l0,0.1
		c0.8,0.5,1.6,1,2.5,1.5L450.5,457.4z"/>
	<polygon class="st1" points="423.2,377.8 423.2,377.8 423.2,377.8 	"/>
	<path class="st2" d="M373.6,475.9l0-0.1c-0.7-0.5-1.4-1-2.1-1.5c-11.6-8.8-12.6-21.5-12.6-21.5c-0.8-8.2,0.5-14.9,3.1-20.5l0-0.1
		c9.7-20.7,36.9-24.6,36.9-24.6c29.9-8.3,29.3-24.9,29.2-26.9c0-0.1,0-0.2,0-0.2l-4.2-3l0,0l-0.5,0.1l0,0l-70.8,19l0,0l-3.5,0.9
		c-27.2,53.9,21.6,81.1,21.6,81.1l3.6-1l0,0l1.4-0.4l0.5-0.1l0,0l0,0C375.2,476.9,374.4,476.4,373.6,475.9z"/>
	<polygon class="st1" points="490.1,446.8 490.1,446.8 490.6,446.7 	"/>
	<path class="st1" d="M500,422.9c-14.6,8.5-14.2,19.2-14.1,20.8c1.4,1.1,3,2.1,4.7,3l9.4-2.5V422.9z"/>
	<path class="st2" d="M485.9,443.6c-11.6-8.8-12.6-21.5-12.6-21.5c-2.4-24.6,14.1-36.1,26.7-41.3v-23.6l-36.7,9.8
		c-27.2,53.9,21.6,81.1,21.6,81.1l5.2-1.4l0.5-0.1l0,0c0,0,0,0,0,0C488.9,445.7,487.3,444.7,485.9,443.6z"/>
	<path class="st1" d="M396.4,500c-8.8-14.7-22.1-22.2-22.1-22.2l-0.1,0h0l-5,1.3l4.2,3c0,0,0,0.1,0,0.2c0.9,0.7,1.8,1.4,2.6,2.2l0,0
		c5.7,5.4,8.2,11.5,9.2,15.4H396.4z"/>
	<path class="st1" d="M487.8,451.7c8.4,6.4,11.2,14.8,12.2,18.9v-14.8c-6-5.8-11.2-8.6-11.2-8.6l-5.2,1.4l4.2,3
		C487.8,451.5,487.8,451.5,487.8,451.7z"/>
	<path class="st1" d="M500,485.3c-1.1,5.8-3.4,10.7-6.5,14.7h6.5V485.3z"/>
	<polygon class="st1" points="483.6,448.5 483.1,448.7 483.1,448.7 	"/>
	<path class="st2" d="M423.4,500c10.8-18,35.2-21.5,35.2-21.5c29.9-8.3,29.3-24.9,29.2-26.9c0-0.1,0-0.2,0-0.2l-4.2-3h0l0,0
		l-0.5,0.1l-74.4,19.9c-5.9,11.7-8.2,22.2-8.2,31.4H423.4z"/>
	<path class="st1" d="M76.6,0C66,18.5,41,22.1,41,22.1c-21.2,5.9-27.1,16-28.7,22l0,0.2c-0.6,2.4-0.5,4.1-0.5,4.6
		c0.7,0.5,1.4,1,2.1,1.5l0,0.1c0.8,0.5,1.6,1,2.5,1.5L91,32C97,20,99.3,9.4,99.2,0H76.6z"/>
	<polygon class="st1" points="16.1,52.1 16.1,52.1 16.5,52 	"/>
	<path class="st2" d="M0,0v14.2c0.6-2.6,1.4-5,2.4-7.3l0-0.1C3.6,4.3,5,2.1,6.6,0H0z"/>
	<path class="st2" d="M14.1,50.5l0-0.1c-0.7-0.5-1.4-1-2.1-1.5C4.1,43,1.1,35.2,0,30.9V45c5.9,5.6,11,8.5,11,8.5l3.6-1l0,0l1.4-0.4
		l0.5-0.1l0,0c0,0,0,0,0,0C15.7,51.5,14.9,51,14.1,50.5z"/>
	<polygon class="st1" points="130.6,21.4 130.6,21.4 131.1,21.3 	"/>
	<path class="st1" d="M131.1,21.3l74.4-19.9c0.2-0.5,0.4-0.9,0.7-1.4h-69.4c-10.8,8-10.5,16.9-10.3,18.3
		C127.8,19.3,129.4,20.4,131.1,21.3z"/>
	<path class="st2" d="M102.9,0c8.8,15.2,22.5,22.8,22.5,22.8l5.2-1.4l0.5-0.1l0,0c0,0,0,0,0,0c-1.7-0.9-3.3-1.9-4.7-3
		c-8-6-10.9-13.9-12-18.3H102.9z"/>
	<path class="st1" d="M123.6,23.3l0.5-0.1l4.2,3c0,0,0,0.1,0,0.2c11.6,8.8,12.6,21.5,12.6,21.5c3.9,38.9-40,45.2-40,45.2
		c-29.9,8.3-29.3,24.9-29.2,26.9c1.4,1.1,3,2.1,4.7,3l74.2-19.9l0.2-0.1c27.2-53.9-21.6-81.1-21.6-81.1L123.6,23.3
		C123.6,23.3,123.6,23.3,123.6,23.3z"/>
	<path class="st2" d="M71.8,119.9c-11.6-8.8-12.6-21.5-12.6-21.5c-3.9-38.9,40-45.2,40-45.2c29.9-8.3,29.3-24.9,29.2-26.9
		c0-0.1,0-0.2,0-0.2l-4.2-3l-0.5,0.1L49.2,43.2C22,97.1,70.8,124.4,70.8,124.4l0,0l5.7-1.5C74.8,121.9,73.2,120.9,71.8,119.9z"/>
	<path class="st1" d="M191,92.2l74.4-19.9l0,0l0,0C283.6,36.2,267.8,12,255.3,0h-7.7c7.2,8.1,7.9,17.1,7.9,17.1
		c0.5,5.5,0.1,10.3-0.9,14.5l0,0c-6.6,26-39,30.7-39,30.7c-29.9,8.3-29.3,24.9-29.2,26.9C187.7,90.2,189.3,91.3,191,92.2z"/>
	<path class="st2" d="M185.4,93.7l0.5-0.1l5.2-1.4c-1.7-0.9-3.3-1.9-4.7-3c-11.6-8.8-12.6-21.5-12.6-21.5c-3.9-38.9,40-45.2,40-45.2
		c21.8-6,27.4-16.5,28.8-22.5h-31.9l-46.8,12.6C136.6,66.4,185.4,93.7,185.4,93.7z"/>
	<path class="st1" d="M73.7,127.7c0,0,0,0.1,0,0.2c11.6,8.8,12.6,21.5,12.6,21.5c3,29.8-22.1,40.5-34,43.8l0,0
		c-3.5,1-5.9,1.3-5.9,1.3c-29.9,8.3-29.3,24.9-29.2,26.9c1.4,1.1,3,2.1,4.7,3l36.1-9.7l0,0l38.2-10.2c27.2-53.9-21.6-81.1-21.6-81.1
		l-5.2,1.4L73.7,127.7z"/>
	<polygon class="st1" points="69,124.9 69,124.9 69,124.9 	"/>
	<path class="st2" d="M69,124.9l-32.6,8.7v0L0,143.4v68.5c7.9,9.4,16.3,14.1,16.3,14.1l5.2-1.4l0.5-0.1l0,0c0,0,0,0,0,0
		c-1.7-0.9-3.3-1.9-4.7-3c-11.6-8.8-12.6-21.5-12.6-21.5c-3.3-33.3,28.2-42.7,37.5-44.7l0,0c1.5-0.3,2.4-0.5,2.4-0.5
		c29.9-8.3,29.3-24.9,29.2-26.9c0-0.1,0-0.2,0-0.2l-4.2-3l0,0L69,124.9L69,124.9z"/>
	<path class="st1" d="M188.3,97.2c11.6,8.8,12.6,21.5,12.6,21.5c3.9,38.9-40,45.2-40,45.2c-29.9,8.3-29.3,24.9-29.2,26.9
		c1.4,1.1,3,2.1,4.7,3l74.4-19.9c27.2-53.9-21.6-81.1-21.6-81.1l-5.2,1.4l4.2,3C188.2,97,188.2,97.1,188.3,97.2z"/>
	<polygon class="st1" points="135.9,193.9 135.9,193.9 136.4,193.8 	"/>
	<polygon class="st1" points="183.5,94.2 183.5,94.2 183.5,94.2 	"/>
	<path class="st2" d="M130.7,195.3l5.2-1.4l0.5-0.1l0,0c0,0,0,0,0,0c-1.7-0.9-3.3-1.9-4.7-3c-11.6-8.8-12.6-21.5-12.6-21.5
		c-3.9-38.9,40-45.2,40-45.2c29.9-8.3,29.3-24.9,29.2-26.9c0-0.1,0-0.2,0-0.2l-4.2-3l0,0l-0.5,0.1l0,0l-74.4,19.9
		C81.9,168,130.7,195.3,130.7,195.3z"/>
	<polygon class="st1" points="250.5,163.2 250.5,163.2 251,163.1 	"/>
	<path class="st1" d="M156.2,275.4c27.2-53.9-21.6-81.1-21.6-81.1l-5.2,1.4l4.2,3c0,0,0,0.1,0,0.2c11.6,8.8,12.6,21.5,12.6,21.5
		c3.9,38.9-40,45.2-40,45.2c-21.2,5.9-27.1,16-28.7,22l0,0.2c-0.6,2.4-0.5,4.1-0.5,4.6c0.7,0.5,1.4,1,2.1,1.5l0,0.1
		c0.8,0.5,1.6,1,2.5,1.5L156.2,275.4z"/>
	<polygon class="st1" points="81.3,295.5 81.3,295.5 81.8,295.4 	"/>
	<polygon class="st1" points="128.9,195.8 128.9,195.8 128.9,195.8 	"/>
	<path class="st2" d="M79.3,293.9l0-0.1c-0.7-0.5-1.4-1-2.1-1.5c-11.6-8.8-12.6-21.5-12.6-21.5c-0.8-8.2,0.5-14.9,3.1-20.5l0-0.1
		c9.7-20.7,36.9-24.6,36.9-24.6c29.9-8.3,29.3-24.9,29.2-26.9c0-0.1,0-0.2,0-0.2l-4.2-3l0,0l-0.5,0.1l0,0l-70.8,19l0,0l-3.5,0.9
		c-27.2,53.9,21.6,81.1,21.6,81.1l3.6-1l0,0l1.4-0.4l0.5-0.1l0,0c0,0,0,0,0,0C80.9,294.9,80.1,294.4,79.3,293.9z"/>
	<path class="st1" d="M248.2,168.1c11.6,8.8,12.6,21.5,12.6,21.5c3.9,38.9-40,45.2-40,45.2c-29.9,8.3-29.3,24.9-29.2,26.9
		c1.4,1.1,3,2.1,4.7,3l74.4-19.9c27.2-53.9-21.6-81.1-21.6-81.1l-5.2,1.4l4.2,3C248.1,167.9,248.2,168,248.2,168.1z"/>
	<polygon class="st1" points="243.5,165.1 243.4,165.1 243.4,165.1 	"/>
	<polygon class="st1" points="195.8,264.8 195.8,264.8 196.3,264.7 	"/>
	<path class="st2" d="M195.8,264.8l0.5-0.1l0,0c0,0,0,0,0,0c-1.7-0.9-3.3-1.9-4.7-3c-11.6-8.8-12.6-21.5-12.6-21.5
		c-3.9-38.9,40-45.2,40-45.2c29.9-8.3,29.3-24.9,29.2-26.9c0-0.1,0-0.2,0-0.2l-4.2-3l0,0l-0.5,0.1l0,0L169.1,185
		c-27.2,53.9,21.6,81.1,21.6,81.1L195.8,264.8z"/>
	<path class="st1" d="M194.5,265.2l-5.7,1.5c0,0,0,0,0,0l0.5-0.1l4.2,3c0,0,0,0.1,0,0.2c11.6,8.8,12.6,21.5,12.6,21.5
		c3.9,38.9-40,45.2-40,45.2c-29.9,8.3-29.3,24.9-29.2,26.9c1.4,1.1,3,2.1,4.7,3l74.2-19.9l0.2-0.1
		C243.3,292.4,194.5,265.2,194.5,265.2z"/>
	<path class="st2" d="M137,363.2c-11.6-8.8-12.6-21.5-12.6-21.5c-3.9-38.9,40-45.2,40-45.2c29.9-8.3,29.3-24.9,29.2-26.9
		c0-0.1,0-0.2,0-0.2l-4.2-3l-0.5,0.1l-74.4,19.9c-27.2,53.9,21.6,81.1,21.6,81.1l0,0l5.7-1.5C140,365.3,138.4,364.3,137,363.2z"/>
	<polygon class="st1" points="303.4,236 303.4,236 303.4,236 	"/>
	<path class="st1" d="M330.6,315.6L330.6,315.6c27.2-53.9-21.6-81.1-21.6-81.1l-0.1,0h0l-5,1.3l4.2,3c0,0,0,0.1,0,0.2
		c0.9,0.7,1.8,1.4,2.6,2.2l0,0c9.1,8.6,10,19.3,10,19.3c0.5,5.5,0.1,10.3-0.9,14.5l0,0c-6.6,26-39,30.7-39,30.7
		c-29.9,8.3-29.3,24.9-29.2,26.9c1.4,1.1,3,2.1,4.7,3L330.6,315.6L330.6,315.6z"/>
	<path class="st2" d="M251.5,332.5c-11.6-8.8-12.6-21.5-12.6-21.5c-3.9-38.9,40-45.2,40-45.2c29.9-8.3,29.3-24.9,29.2-26.9
		c0-0.1,0-0.2,0-0.2l-4.2-3l0,0l-0.5,0.1l0,0L229,255.9c-27.2,53.9,21.6,81.1,21.6,81.1l0.5-0.1l5.1-1.4
		C254.5,334.6,252.9,333.6,251.5,332.5z"/>
	<path class="st1" d="M139.9,366.7l-5.2,1.4l4.2,3c0,0,0,0.1,0,0.2c11.6,8.8,12.6,21.5,12.6,21.5c3,29.8-22.1,40.5-34,43.8l0,0
		c-3.5,1-5.9,1.3-5.9,1.3c-29.9,8.3-29.3,24.9-29.2,26.9c1.4,1.1,3,2.1,4.7,3l36.1-9.7l0,0l38.2-10.2
		C188.7,394,139.9,366.7,139.9,366.7z"/>
	<polygon class="st1" points="134.3,368.2 134.2,368.2 134.2,368.2 	"/>
	<polygon class="st1" points="248.7,337.6 248.7,337.6 248.7,337.6 	"/>
	<polygon class="st1" points="201.1,437.3 201.1,437.3 201.6,437.1 	"/>
	<path class="st1" d="M276,417.2c27.2-53.9-21.6-81.1-21.6-81.1l-5.2,1.4l4.2,3c0,0,0,0.1,0,0.2c11.6,8.8,12.6,21.5,12.6,21.5
		c3.9,38.9-40,45.2-40,45.2c-29.9,8.3-29.3,24.9-29.2,26.9c1.4,1.1,3,2.1,4.7,3L276,417.2z"/>
	<path class="st2" d="M196.9,434.1c-11.6-8.8-12.6-21.5-12.6-21.5c-3.9-38.9,40-45.2,40-45.2c29.9-8.3,29.3-24.9,29.2-26.9
		c0-0.1,0-0.2,0-0.2l-4.2-3l0,0l-0.5,0.1l0,0l-74.4,19.9c-27.2,53.9,21.6,81.1,21.6,81.1l5.2-1.4l0.5-0.1l0,0c0,0,0,0,0,0
		C199.9,436.2,198.3,435.2,196.9,434.1z"/>
	<path class="st1" d="M352.4,396.7l38.2-10.2c27.2-53.9-21.6-81.1-21.6-81.1l-5.2,1.4l4.2,3c0,0,0,0.1,0,0.2
		c11.6,8.8,12.6,21.5,12.6,21.5c3,29.8-22.1,40.5-34,43.8l0,0c-3.5,1-5.9,1.3-5.9,1.3c-29.9,8.3-29.3,24.9-29.2,26.9
		c1.4,1.1,3,2.1,4.7,3L352.4,396.7L352.4,396.7z"/>
	<polygon class="st1" points="315.7,406.6 315.7,406.6 316.3,406.4 	"/>
	<path class="st2" d="M311.5,403.4c-11.6-8.8-12.6-21.5-12.6-21.5c-3.3-33.3,28.2-42.7,37.5-44.7l0,0c1.5-0.3,2.4-0.5,2.4-0.5
		c29.9-8.3,29.3-24.9,29.2-26.9c0-0.1,0-0.2,0-0.2l-4.2-3l0,0l-0.5,0.1l0,0l-32.6,8.7v0L289,326.8c-27.2,53.9,21.6,81.1,21.6,81.1
		l5.2-1.4l0.5-0.1l0,0l0,0C314.5,405.5,313,404.5,311.5,403.4z"/>
	<path class="st1" d="M199.8,437.6l-5.2,1.4l4.2,3c0,0,0,0.1,0,0.2c11.6,8.8,12.6,21.5,12.6,21.5c1.9,18.7-7.3,29.8-17.2,36.4h34
		C237.3,458.6,199.8,437.6,199.8,437.6z"/>
	<polygon class="st1" points="194.2,439.1 194.1,439.1 194.1,439.1 	"/>
	<path class="st2" d="M198.8,442l-4.2-3l0,0l-0.5,0.1l0,0l-70.8,19l0,0l-3.5,0.9c-8.1,16-9.5,29.7-7.4,40.9h18.2
		c0.6-2.3,1.3-4.3,2.2-6.3l0-0.1c9.7-20.7,36.9-24.6,36.9-24.6c29.9-8.3,29.3-24.9,29.2-26.9C198.8,442,198.8,442,198.8,442z"/>
	<polygon class="st1" points="308.7,408.4 308.7,408.5 308.7,408.5 	"/>
	<path class="st1" d="M313.4,411.5c11.6,8.8,12.6,21.5,12.6,21.5c3.9,38.9-40,45.2-40,45.2c-21,5.8-27,15.8-28.6,21.9h34.1
		l44.5-11.9c27.2-53.9-21.6-81.1-21.6-81.1l-5.2,1.4l4.2,3C313.4,411.3,313.4,411.3,313.4,411.5z"/>
	<path class="st2" d="M251.6,500c-6.6-7.9-7.3-16.5-7.3-16.5c-3.9-38.9,40-45.2,40-45.2c29.9-8.3,29.3-24.9,29.2-26.9
		c0-0.1,0-0.2,0-0.2l-4.2-3l0,0l-0.5,0.1l0,0l-74.4,19.9c-17.9,35.5-2.9,59.4,9.5,71.6H251.6z"/>
	<polygon class="st1" points="368.6,479.3 368.6,479.3 368.6,479.3 	"/>
	<path class="st2" d="M373.3,482.2l-4.2-3l0,0l-0.5,0.1l0,0l-74.4,19.9c-0.1,0.2-0.2,0.5-0.3,0.7h70c9.9-7.8,9.6-16.3,9.5-17.6
		C373.3,482.2,373.3,482.2,373.3,482.2z"/>
	<path class="st1" d="M13.8,57c0.9,0.7,1.8,1.4,2.6,2.2l0,0c9.1,8.6,10,19.3,10,19.3c0.5,5.5,0.1,10.3-0.9,14.5l0,0
		C21.7,107.7,9.7,115.6,0,119.7v23.7l36.4-9.7l0,0l0,0c27.2-53.9-21.6-81.1-21.6-81.1l-0.1,0l0,0l-5,1.3l4.2,3
		C13.8,56.8,13.8,56.9,13.8,57z"/>
	<polygon class="st1" points="9.1,54 9.1,54 9.1,54 	"/>
	<path class="st2" d="M0,77.6C14.3,69.1,13.9,58.5,13.8,57c0-0.1,0-0.2,0-0.2l-4.2-3l0,0L9.1,54l0,0L0,56.4V77.6z"/>
	<polygon class="st1" points="21.5,224.6 21.5,224.6 21.9,224.4 	"/>
	<path class="st1" d="M20.1,225l-5.2,1.4l4.2,3c0,0,0,0.1,0,0.2c11.6,8.8,12.6,21.5,12.6,21.5c2.8,28-19.2,39.1-31.7,43.2v23.2
		l41.6-11.2C68.8,252.2,20.1,225,20.1,225z"/>
	<polygon class="st1" points="14.4,226.5 14.4,226.5 14.4,226.5 	"/>
	<path class="st2" d="M19.1,229.3l-4.2-3l0,0l-0.5,0.1l0,0L0,230.3v22.5c19.7-8.8,19.2-21.6,19.1-23.3
		C19.1,229.4,19.1,229.3,19.1,229.3z"/>
	<path class="st1" d="M79,300.4c0.9,0.7,1.8,1.4,2.6,2.2l0,0c9.1,8.6,10,19.3,10,19.3c0.5,5.5,0.1,10.3-0.9,14.5l0,0
		c-6.6,26-39,30.7-39,30.7c-29.9,8.3-29.3,24.9-29.2,26.9c1.4,1.1,3,2.1,4.7,3l74.4-19.9l0,0l0,0c27.2-53.9-21.6-81.1-21.6-81.1
		l-0.1,0l0,0l-5,1.3l4.2,3C79,300.2,79,300.3,79,300.4z"/>
	<polygon class="st1" points="74.3,297.4 74.3,297.4 74.3,297.4 	"/>
	<path class="st2" d="M27.2,396.9c-1.7-0.9-3.3-1.9-4.7-3c-11.6-8.8-12.6-21.5-12.6-21.5c-3.9-38.9,40-45.2,40-45.2
		c29.9-8.3,29.3-24.9,29.2-26.9c0-0.1,0-0.2,0-0.2l-4.2-3l0,0l-0.5,0.1l0,0L0,317.3v60c8.8,14.1,21.5,21.1,21.5,21.1l0.5-0.1
		L27.2,396.9z"/>
	<polygon class="st1" points="19.7,398.9 19.7,398.9 19.7,398.9 	"/>
	<path class="st1" d="M46.9,478.6c27.2-53.9-21.6-81.1-21.6-81.1l-5.2,1.4l4.2,3c0,0,0,0.1,0,0.2C36,410.7,37,423.4,37,423.4
		c3.3,32.7-27.2,42.4-37,44.6v23.1L46.9,478.6z"/>
	<path class="st2" d="M24.4,401.8l-4.2-3l0,0l-0.5,0.1l0,0L0,404.2v23.1c25-8.6,24.5-23.5,24.4-25.4
		C24.4,401.8,24.4,401.8,24.4,401.8z"/>
	<polygon class="st1" points="86.7,467.9 86.7,467.9 87.2,467.8 	"/>
	<path class="st2" d="M82.5,464.8c-11.6-8.8-12.6-21.5-12.6-21.5c-3.3-33.3,28.2-42.7,37.5-44.7l0,0c1.5-0.3,2.4-0.5,2.4-0.5
		c29.9-8.3,29.3-24.9,29.2-26.9c0-0.1,0-0.2,0-0.2l-4.2-3l0,0l-0.5,0.1l0,0l-32.6,8.7v0l-41.6,11.2c-27.2,53.9,21.6,81.1,21.6,81.1
		l5.2-1.4l0.5-0.1l0,0c0,0,0,0,0,0C85.4,466.9,83.9,465.8,82.5,464.8z"/>
	<polygon class="st1" points="79.6,469.8 79.6,469.8 79.6,469.8 	"/>
	<path class="st1" d="M85.3,468.3l-5.2,1.4l4.2,3c0,0,0,0.1,0,0.2c11.6,8.8,12.6,21.5,12.6,21.5c0.2,2,0.3,3.9,0.2,5.7h14.8
		C104.3,478.9,85.3,468.3,85.3,468.3z"/>
	<path class="st2" d="M84.3,472.7l-4.2-3l0,0l-0.5,0.1l0,0L5.2,489.8c-1.8,3.5-3.2,6.9-4.4,10.2h52.7c1-0.2,1.6-0.3,1.6-0.3
		c29.9-8.3,29.3-24.9,29.2-26.9C84.3,472.7,84.3,472.7,84.3,472.7z"/>
</g>
</svg>
