<?xml version="1.0" encoding="utf-8"?>
<!-- Generator: Adobe Illustrator 21.1.0, SVG Export Plug-In . SVG Version: 6.00 Build 0)  -->
<svg version="1.1" id="レイヤー_1" xmlns="http://www.w3.org/2000/svg" xmlns:xlink="http://www.w3.org/1999/xlink" x="0px"
	 y="0px" viewBox="0 0 500 500" enable-background="new 0 0 500 500" xml:space="preserve">
<g>
	<rect x="341.06" y="352.03" fill="none" width="21.01" height="2.92"/>
	<rect x="268.8" y="163.63" fill="none" width="2.92" height="2.92"/>
	<rect x="424.53" y="316.35" fill="none" width="2.92" height="9.48"/>
	<rect x="239.43" y="94.39" fill="none" width="2.92" height="2.92"/>
	<rect x="334.18" y="358.91" fill="none" width="2.92" height="2.92"/>
	<rect x="232.55" y="147.93" fill="none" width="2.92" height="4.87"/>
	<rect x="239.43" y="101.26" fill="none" width="2.92" height="42.71"/>
	<rect x="232.55" y="76.58" fill="none" width="2.92" height="6.97"/>
	<rect x="341.06" y="358.91" fill="none" width="21.01" height="2.92"/>
	<rect x="327.31" y="358.91" fill="none" width="2.92" height="2.92"/>
	<rect x="232.55" y="69.7" fill="none" width="2.92" height="2.92"/>
	<rect x="239.43" y="62.82" fill="none" width="2.92" height="2.92"/>
	<rect x="232.55" y="62.82" fill="none" width="2.92" height="2.92"/>
	<rect x="334.18" y="352.03" fill="none" width="2.92" height="2.92"/>
	<rect x="82.88" y="115.19" fill="none" width="2.92" height="2.92"/>
	<rect x="442.12" y="309.47" fill="none" width="2.92" height="2.92"/>
	<rect x="239.43" y="69.7" fill="none" width="2.92" height="2.92"/>
	<rect x="275.68" y="163.63" fill="none" width="2.92" height="2.92"/>
	<rect x="327.31" y="352.03" fill="none" width="2.92" height="2.92"/>
	<rect x="239.43" y="87.51" fill="none" width="2.92" height="2.92"/>
	<rect x="232.55" y="141.05" fill="none" width="2.92" height="2.92"/>
	<path fill="none" d="M235.47,101.26h-2.45c-0.16,0-0.32-0.03-0.47-0.06v35.9h2.92V101.26z"/>
	<rect x="232.55" y="87.51" fill="none" width="2.92" height="2.92"/>
	<path fill="none" d="M235.47,97.31v-2.92h-2.92v2.99c0.15-0.04,0.31-0.06,0.47-0.06H235.47z"/>
	<rect x="239.43" y="147.93" fill="none" width="2.92" height="4.87"/>
	<rect x="162.51" y="85.89" fill="none" width="2.92" height="2.92"/>
	<rect x="169.39" y="85.89" fill="none" width="2.92" height="2.92"/>
	<path fill="none" d="M368.96,382.86v-2.92h-2.92v3.05c0.21-0.08,0.43-0.13,0.67-0.13H368.96z"/>
	<rect x="169.39" y="76.58" fill="none" width="2.92" height="5.36"/>
	<rect x="169.39" y="92.77" fill="none" width="2.92" height="2.92"/>
	<rect x="372.91" y="358.91" fill="none" width="2.92" height="2.92"/>
	<rect x="169.39" y="69.7" fill="none" width="2.92" height="2.92"/>
	<rect x="169.39" y="99.65" fill="none" width="2.92" height="30.57"/>
	<rect x="162.51" y="99.65" fill="none" width="2.92" height="30.57"/>
	<rect x="162.51" y="92.77" fill="none" width="2.92" height="2.92"/>
	<rect x="435.25" y="250.72" fill="none" width="2.92" height="2.92"/>
	<rect x="76" y="57.34" fill="none" width="2.92" height="2.92"/>
	<rect x="89.75" y="92.77" fill="none" width="68.8" height="2.92"/>
	<rect x="366.03" y="365.79" fill="none" width="2.92" height="3.32"/>
	<rect x="76" y="50.46" fill="none" width="2.92" height="2.92"/>
	<path fill="none" d="M341.06,380.5h1.03c1.09,0,1.98,0.89,1.98,1.98s-0.89,1.98-1.98,1.98h-1.03v2.92h7.91
		c1.09,0,1.98,0.89,1.98,1.98s-0.89,1.98-1.98,1.98h-7.91v5.46h27.89v-9.97h-2.25c-0.24,0-0.46-0.05-0.67-0.13v3.74
		c0,1.09-0.89,1.98-1.98,1.98s-1.98-0.89-1.98-1.98v-10.49h-2.25c-1.09,0-1.98-0.89-1.98-1.98s0.89-1.98,1.98-1.98h2.25v-2.92h-9.13
		c-1.09,0-1.98-0.89-1.98-1.98s0.89-1.98,1.98-1.98h9.13v-3.32h-21.01V380.5z"/>
	<rect x="366.03" y="358.91" fill="none" width="2.92" height="2.92"/>
	<rect x="82.88" y="50.46" fill="none" width="2.92" height="2.92"/>
	<rect x="343.53" y="210.6" fill="none" width="58.92" height="2.92"/>
	<rect x="82.88" y="64.22" fill="none" width="2.92" height="17.72"/>
	<rect x="76" y="64.22" fill="none" width="2.92" height="17.72"/>
	<rect x="82.88" y="57.34" fill="none" width="2.92" height="2.92"/>
	<rect x="239.43" y="76.58" fill="none" width="2.92" height="6.97"/>
	<rect x="327.31" y="377.57" fill="none" width="2.92" height="2.92"/>
	<rect x="406.41" y="225.93" fill="none" width="2.92" height="2.92"/>
	<rect x="406.41" y="232.81" fill="none" width="2.92" height="2.92"/>
	<rect x="406.41" y="239.69" fill="none" width="2.92" height="0.2"/>
	<rect x="435.25" y="243.84" fill="none" width="2.92" height="2.92"/>
	<rect x="379.79" y="336.66" fill="none" width="40.79" height="2.92"/>
	<rect x="413.28" y="225.93" fill="none" width="2.92" height="2.92"/>
	<rect x="334.18" y="391.33" fill="none" width="2.92" height="5.46"/>
	<rect x="327.31" y="384.45" fill="none" width="2.92" height="2.92"/>
	<rect x="420.16" y="239.69" fill="none" width="11.13" height="0.2"/>
	<rect x="413.28" y="232.81" fill="none" width="2.92" height="2.92"/>
	<rect x="413.28" y="239.69" fill="none" width="2.92" height="0.2"/>
	<rect x="366.03" y="329.78" fill="none" width="2.92" height="2.92"/>
	<rect x="442.12" y="257.59" fill="none" width="2.92" height="1.56"/>
	<rect x="372.91" y="336.66" fill="none" width="2.92" height="2.92"/>
	<rect x="442.12" y="263.11" fill="none" width="2.92" height="2.92"/>
	<path fill="none" d="M337.11,380.5v-4.35c-0.24,0.82-0.99,1.43-1.89,1.43h-1.03v2.92H337.11z"/>
	<rect x="435.25" y="257.59" fill="none" width="2.92" height="1.56"/>
	<rect x="442.12" y="250.72" fill="none" width="2.92" height="2.92"/>
	<rect x="435.25" y="263.11" fill="none" width="2.92" height="2.92"/>
	<rect x="442.12" y="269.99" fill="none" width="2.92" height="2.92"/>
	<rect x="379.79" y="329.78" fill="none" width="40.79" height="2.92"/>
	<rect x="435.25" y="269.99" fill="none" width="2.92" height="2.92"/>
	<rect x="372.91" y="329.78" fill="none" width="2.92" height="2.92"/>
	<rect x="268.8" y="156.75" fill="none" width="2.92" height="2.92"/>
	<rect x="329.78" y="187.81" fill="none" width="2.92" height="3.32"/>
	<rect x="329.78" y="180.93" fill="none" width="2.92" height="2.92"/>
	<rect x="327.31" y="365.79" fill="none" width="2.92" height="7.83"/>
	<rect x="82.88" y="122.07" fill="none" width="2.92" height="2.92"/>
	<rect x="329.78" y="174.06" fill="none" width="2.92" height="2.92"/>
	<rect x="76" y="115.19" fill="none" width="2.92" height="2.92"/>
	<path fill="none" d="M278.61,159.68v-2.95c-0.08,0.01-0.16,0.02-0.24,0.02h-2.68v2.92H278.61z"/>
	<rect x="366.03" y="352.03" fill="none" width="2.92" height="2.92"/>
	<rect x="336.66" y="187.81" fill="none" width="2.92" height="3.32"/>
	<rect x="372.91" y="352.03" fill="none" width="2.92" height="2.92"/>
	<rect x="336.66" y="180.93" fill="none" width="2.92" height="2.92"/>
	<path fill="none" d="M334.18,365.79v7.83h1.03c0.9,0,1.65,0.61,1.89,1.43v-9.26H334.18z"/>
	<rect x="329.78" y="195.08" fill="none" width="2.92" height="2.92"/>
	<rect x="413.28" y="210.6" fill="none" width="2.92" height="2.92"/>
	<rect x="406.41" y="217.47" fill="none" width="2.92" height="4.5"/>
	<rect x="406.41" y="210.6" fill="none" width="2.92" height="2.92"/>
	<rect x="406.41" y="203.72" fill="none" width="2.92" height="2.92"/>
	<rect x="413.28" y="203.72" fill="none" width="2.92" height="2.92"/>
	<rect x="372.91" y="343.54" fill="none" width="2.92" height="4.54"/>
	<rect x="336.66" y="195.08" fill="none" width="2.92" height="2.92"/>
	<rect x="413.28" y="217.47" fill="none" width="2.92" height="4.5"/>
	<rect x="366.03" y="336.66" fill="none" width="2.92" height="2.92"/>
	<rect x="366.03" y="343.54" fill="none" width="2.92" height="4.54"/>
	<rect x="82.88" y="92.77" fill="none" width="2.92" height="2.92"/>
	<path fill="none" d="M182.2,423.34v-1.03c0-0.9,0.61-1.65,1.43-1.89h-4.35v2.92H182.2z"/>
	<rect x="231.73" y="445.04" fill="none" width="2.92" height="2.92"/>
	<rect x="172.4" y="420.42" fill="none" width="2.92" height="2.92"/>
	<rect x="162.51" y="141.05" fill="none" width="2.92" height="2.92"/>
	<rect x="238.6" y="445.04" fill="none" width="2.92" height="2.92"/>
	<rect x="172.4" y="427.3" fill="none" width="2.92" height="2.92"/>
	<path fill="none" d="M186.16,441.75c0.36-0.41,0.88-0.67,1.47-0.67h40.14v-6.91h-41.61V441.75z"/>
	<rect x="186.16" y="427.3" fill="none" width="41.61" height="2.92"/>
	<path fill="none" d="M186.16,422.31v1.03h41.61v-2.92h-43.04C185.55,420.66,186.16,421.41,186.16,422.31z"/>
	<rect x="239.43" y="182.74" fill="none" width="2.92" height="46.36"/>
	<rect x="179.28" y="427.3" fill="none" width="2.92" height="2.92"/>
	<rect x="246.31" y="163.63" fill="none" width="18.54" height="2.92"/>
	<rect x="231.73" y="420.42" fill="none" width="2.92" height="2.92"/>
	<rect x="238.6" y="420.42" fill="none" width="2.92" height="2.92"/>
	<rect x="231.73" y="427.3" fill="none" width="2.92" height="2.92"/>
	<rect x="176.27" y="134.18" fill="none" width="52.33" height="2.92"/>
	<rect x="424.53" y="309.47" fill="none" width="2.92" height="2.92"/>
	<rect x="162.51" y="134.18" fill="none" width="2.92" height="2.92"/>
	<rect x="238.6" y="451.92" fill="none" width="2.92" height="2.92"/>
	<rect x="231.73" y="451.92" fill="none" width="2.92" height="2.92"/>
	<rect x="424.53" y="329.78" fill="none" width="2.92" height="2.92"/>
	<rect x="169.39" y="134.18" fill="none" width="2.92" height="2.92"/>
	<rect x="424.53" y="336.66" fill="none" width="2.92" height="2.92"/>
	<rect x="413.28" y="250.72" fill="none" width="2.92" height="8.44"/>
	<rect x="420.16" y="243.84" fill="none" width="11.13" height="2.92"/>
	<rect x="420.16" y="257.59" fill="none" width="11.13" height="1.56"/>
	<rect x="424.53" y="302.59" fill="none" width="2.92" height="2.92"/>
	<rect x="420.16" y="250.72" fill="none" width="11.13" height="2.92"/>
	<rect x="282.56" y="180.93" fill="none" width="43.26" height="2.92"/>
	<rect x="282.56" y="174.06" fill="none" width="43.26" height="2.92"/>
	<rect x="275.68" y="174.06" fill="none" width="2.92" height="2.92"/>
	<path fill="none" d="M383.31,204.88c1.02,0,1.84,0.77,1.96,1.76h17.18v-2.92h-58.92v1.17H383.31z"/>
	<rect x="336.66" y="203.72" fill="none" width="2.92" height="1.17"/>
	<rect x="329.78" y="203.72" fill="none" width="2.92" height="1.17"/>
	<path fill="none" d="M334.18,348.08h3.95c0.28-0.15,0.6-0.25,0.95-0.25s0.66,0.1,0.95,0.25h22.05v-4.54h-27.89V348.08z"/>
	<rect x="413.28" y="243.84" fill="none" width="2.92" height="2.92"/>
	<rect x="239.43" y="156.75" fill="none" width="2.92" height="2.92"/>
	<rect x="239.43" y="163.63" fill="none" width="2.92" height="2.92"/>
	<path fill="none" d="M327.31,348.08h2.92v-5.15c0-1.09,0.89-1.98,1.98-1.98c0.02,0,0.04,0.01,0.06,0.01
		c0.26-0.79,0.99-1.37,1.87-1.37h27.94v-2.92h-34.77V348.08z"/>
	<rect x="239.43" y="170.51" fill="none" width="2.92" height="8.27"/>
	<rect x="246.31" y="156.75" fill="none" width="18.54" height="2.92"/>
	<rect x="420.16" y="263.11" fill="none" width="11.13" height="2.92"/>
	<rect x="232.55" y="175.86" fill="none" width="2.92" height="2.92"/>
	<rect x="232.55" y="170.51" fill="none" width="2.92" height="1.39"/>
	<rect x="232.55" y="156.75" fill="none" width="2.92" height="2.92"/>
	<rect x="232.55" y="163.63" fill="none" width="2.92" height="2.92"/>
	<rect x="341.06" y="400.74" fill="none" width="34.77" height="2.92"/>
	<rect x="82.88" y="85.89" fill="none" width="2.92" height="2.92"/>
	<rect x="231.73" y="384.45" fill="none" width="2.92" height="2.92"/>
	<rect x="89.75" y="85.89" fill="none" width="68.8" height="2.92"/>
	<rect x="231.73" y="377.57" fill="none" width="2.92" height="2.92"/>
	<rect x="238.6" y="391.33" fill="none" width="2.92" height="5.46"/>
	<rect x="169.39" y="141.05" fill="none" width="2.92" height="2.92"/>
	<rect x="231.73" y="391.33" fill="none" width="2.92" height="5.46"/>
	<rect x="238.6" y="384.45" fill="none" width="2.92" height="2.92"/>
	<rect x="245.48" y="384.45" fill="none" width="77.87" height="2.92"/>
	<rect x="238.6" y="377.57" fill="none" width="2.92" height="2.92"/>
	<rect x="245.48" y="377.57" fill="none" width="77.87" height="2.92"/>
	<rect x="76" y="85.89" fill="none" width="2.92" height="2.92"/>
	<rect x="162.51" y="69.7" fill="none" width="2.92" height="2.92"/>
	<rect x="176.27" y="69.7" fill="none" width="52.33" height="2.92"/>
	<rect x="372.91" y="386.81" fill="none" width="2.92" height="9.97"/>
	<path fill="none" d="M176.27,81.94h13.1c1.09,0,1.98,0.89,1.98,1.98s-0.89,1.98-1.98,1.98h-13.1v2.92h19.98
		c1.09,0,1.98,0.89,1.98,1.98s-0.89,1.98-1.98,1.98h-19.98v2.92h26.86c1.09,0,1.98,0.89,1.98,1.98s-0.89,1.98-1.98,1.98h-26.86
		v30.57h52.33V94.39h-2.45c-1.09,0-1.98-0.89-1.98-1.98s0.89-1.98,1.98-1.98h2.45v-2.92h-9.33c-1.09,0-1.98-0.89-1.98-1.98
		s0.89-1.98,1.98-1.98h9.33v-6.97h-52.33V81.94z"/>
	<path fill="none" d="M172.32,65.74v-0.21c0-1.09,0.89-1.98,1.98-1.98s1.98,0.89,1.98,1.98v0.21h52.33v-2.92h-59.2v2.92H172.32z"/>
	<rect x="334.18" y="384.45" fill="none" width="2.92" height="2.92"/>
	<rect x="162.51" y="76.58" fill="none" width="2.92" height="5.36"/>
	<rect x="372.91" y="373.06" fill="none" width="2.92" height="2.92"/>
	<rect x="366.03" y="373.06" fill="none" width="2.92" height="2.92"/>
	<rect x="162.51" y="62.82" fill="none" width="2.92" height="2.92"/>
	<rect x="76" y="92.77" fill="none" width="2.92" height="2.92"/>
	<rect x="372.91" y="379.94" fill="none" width="2.92" height="2.92"/>
	<path fill="none" d="M445.05,305.52v-4.35c-0.24,0.82-0.99,1.43-1.89,1.43h-1.03v2.92H445.05z"/>
	<path fill="none" d="M176.27,165.03h52.33v-1.39H215.2c-1.09,0-1.98-0.89-1.98-1.98s0.89-1.98,1.98-1.98h13.39v-2.92h-20.27
		c-1.09,0-1.98-0.89-1.98-1.98s0.89-1.98,1.98-1.98h20.27v-4.87h-52.33V165.03z"/>
	<rect x="435.25" y="278.14" fill="none" width="2.92" height="2.92"/>
	<rect x="76" y="99.65" fill="none" width="2.92" height="11.59"/>
	<rect x="372.91" y="365.79" fill="none" width="2.92" height="3.32"/>
	<path fill="none" d="M438.17,298.06v-13.04h-2.92v12.04c0.31-0.2,0.67-0.32,1.07-0.32C437.17,296.74,437.9,297.29,438.17,298.06z"
		/>
	<rect x="231.73" y="434.18" fill="none" width="2.92" height="6.91"/>
	<rect x="442.12" y="285.02" fill="none" width="2.92" height="2.92"/>
	<rect x="176.27" y="141.05" fill="none" width="52.33" height="2.92"/>
	<rect x="238.6" y="427.3" fill="none" width="2.92" height="2.92"/>
	<rect x="238.6" y="434.18" fill="none" width="2.92" height="6.91"/>
	<rect x="442.12" y="278.14" fill="none" width="2.92" height="2.92"/>
	<rect x="238.6" y="407.62" fill="none" width="2.92" height="2.92"/>
	<rect x="231.73" y="400.74" fill="none" width="2.92" height="2.92"/>
	<rect x="231.73" y="414.5" fill="none" width="2.92" height="1.97"/>
	<rect x="82.88" y="99.65" fill="none" width="2.92" height="11.59"/>
	<rect x="231.73" y="407.62" fill="none" width="2.92" height="2.92"/>
	<path fill="none" d="M442.12,291.89v6.74h1.03c0.9,0,1.65,0.61,1.89,1.43v-8.17H442.12z"/>
	<rect x="238.6" y="414.5" fill="none" width="2.92" height="1.97"/>
	<rect x="238.6" y="400.74" fill="none" width="2.92" height="2.92"/>
	<rect x="76" y="60.26" fill="#FFF100" width="2.92" height="3.96"/>
	<path fill="#FFF100" d="M62.23,60.26c-1.09,0-1.98,0.89-1.98,1.98s0.89,1.98,1.98,1.98h9.81v-3.96H62.23z"/>
	<rect x="85.8" y="115.19" fill="#FFF100" width="3.96" height="2.92"/>
	<path fill="#FFF100" d="M89.75,20.19c0-1.09-0.89-1.98-1.98-1.98s-1.98,0.89-1.98,1.98v26.32h3.96V20.19z"/>
	<rect x="85.8" y="85.89" fill="#FFF100" width="3.96" height="2.92"/>
	<path fill="#FFF100" d="M85.8,60.26h-2.92v3.96h2.92v17.72h3.96V64.22h14.5c1.09,0,1.98-0.89,1.98-1.98s-0.89-1.98-1.98-1.98h-14.5
		v-2.92H85.8V60.26z"/>
	<path fill="#FFF100" d="M89.75,131.01v-2.06h39.65c1.09,0,1.98-0.89,1.98-1.98s-0.89-1.98-1.98-1.98H89.75v-2.92H85.8v2.92h-2.92
		v0.41c0,1.09-0.89,1.98-1.98,1.98s-1.98-0.89-1.98-1.98v-0.41H59.8c-1.09,0-1.98,0.89-1.98,1.98s0.89,1.98,1.98,1.98h26v2.06H89.75
		z"/>
	<rect x="85.8" y="50.46" fill="#FFF100" width="3.96" height="2.92"/>
	<rect x="162.51" y="95.69" fill="#FFF100" width="2.92" height="3.96"/>
	<path fill="#FFF100" d="M203.13,99.65c1.09,0,1.98-0.89,1.98-1.98s-0.89-1.98-1.98-1.98h-26.86v-2.92h-3.96v2.92h-2.92v3.96h2.92
		v30.57h3.96V99.65H203.13z"/>
	<path fill="#FFF100" d="M70.14,97.67c0,1.07,0.84,1.93,1.9,1.97V95.7C70.99,95.74,70.14,96.61,70.14,97.67z"/>
	<rect x="76" y="95.69" fill="#FFF100" width="2.92" height="3.96"/>
	<polygon fill="#FFF100" points="89.75,95.69 89.75,92.77 85.8,92.77 85.8,95.69 82.88,95.69 82.88,99.65 85.8,99.65 85.8,111.24 
		89.75,111.24 89.75,99.65 158.56,99.65 158.56,95.69 	"/>
	<rect x="172.32" y="85.89" fill="#FFF100" width="3.96" height="2.92"/>
	<polygon fill="#FFF100" points="176.27,69.7 172.32,69.7 172.32,72.62 169.39,72.62 169.39,76.58 172.32,76.58 172.32,81.94 
		176.27,81.94 176.27,76.58 228.6,76.58 228.6,72.62 176.27,72.62 	"/>
	<rect x="172.32" y="134.18" fill="#FFF100" width="3.96" height="2.92"/>
	<path fill="#FFF100" d="M174.29,63.56c-1.09,0-1.98,0.89-1.98,1.98v0.21h3.96v-0.21C176.27,64.44,175.39,63.56,174.29,63.56z"/>
	<polygon fill="#FFF100" points="176.27,147.93 228.6,147.93 228.6,143.98 176.27,143.98 176.27,141.05 172.32,141.05 
		172.32,143.98 169.39,143.98 169.39,147.93 172.32,147.93 172.32,165.03 176.27,165.03 	"/>
	<rect x="232.55" y="72.62" fill="#FFF100" width="2.92" height="3.96"/>
	<path fill="#FFF100" d="M157.81,72.62c-1.09,0-1.98,0.89-1.98,1.98s0.89,1.98,1.98,1.98h0.75v-3.96H157.81z"/>
	<rect x="162.51" y="72.62" fill="#FFF100" width="2.92" height="3.96"/>
	<rect x="242.35" y="87.51" fill="#FFF100" width="3.96" height="2.92"/>
	<path fill="#FFF100" d="M242.35,72.62h-2.92v3.96h2.92v6.97h3.96v-6.97h11.2c1.09,0,1.98-0.89,1.98-1.98s-0.89-1.98-1.98-1.98
		h-11.2V69.7h-3.96V72.62z"/>
	<path fill="#FFF100" d="M245.72,60.84c0,1.09-0.89,1.98-1.98,1.98h-1.39v2.92h3.96V48.23c0-1.09-0.89-1.98-1.98-1.98
		s-1.98,0.89-1.98,1.98v10.63h1.39C244.84,58.87,245.72,59.75,245.72,60.84z"/>
	<path fill="#FFF100" d="M242.35,97.31h-2.92v3.96h2.92v42.71h-2.92v3.96h2.92v4.87h3.96v-51.53h133.05c1.09,0,1.98-0.89,1.98-1.98
		s-0.89-1.98-1.98-1.98H246.31v-2.92h-3.96V97.31z"/>
	<rect x="242.35" y="156.75" fill="#FFF100" width="3.96" height="2.92"/>
	<path fill="#FFF100" d="M242.35,240.22c0,1.09,0.89,1.98,1.98,1.98s1.98-0.89,1.98-1.98v-0.29h-3.96V240.22z"/>
	<path fill="#FFF100" d="M220.16,168.98c0.2,0.87,0.98,1.53,1.92,1.53h6.51v-1.53H220.16z"/>
	<rect x="232.55" y="166.55" fill="#FFF100" width="2.92" height="3.96"/>
	<path fill="#FFF100" d="M246.31,166.55v-2.92h-3.96v2.92h-2.92v3.96h2.92v8.27h-2.92v3.96h2.92v46.36h1.39
		c1.09,0,1.98,0.89,1.98,1.98s-0.89,1.98-1.98,1.98h-1.39v2.92h3.96v-65.47h18.54v-3.96H246.31z"/>
	<rect x="268.8" y="166.55" fill="#FFF100" width="2.92" height="3.55"/>
	<rect x="278.61" y="174.06" fill="#FFF100" width="3.96" height="2.92"/>
	<path fill="#FFF100" d="M280.34,154.78c0,1.01-0.76,1.83-1.73,1.95v2.95h3.96v-14.22c0-1.09-0.89-1.98-1.98-1.98
		s-1.98,0.89-1.98,1.98v7.36C279.58,152.94,280.34,153.77,280.34,154.78z"/>
	<path fill="#FFF100" d="M278.61,166.55h-2.92v3.55h17.63c0.48-0.36,0.79-0.93,0.79-1.57c0-1.09-0.89-1.98-1.98-1.98h-9.56v-2.92
		h-3.96V166.55z"/>
	<path fill="#FFF100" d="M282.56,183.86v-2.92h-3.96v32.09c0,1.09,0.89,1.98,1.98,1.98s1.98-0.89,1.98-1.98v-25.21h43.26v-3.96
		H282.56z"/>
	<rect x="329.78" y="183.86" fill="#FFF100" width="2.92" height="3.96"/>
	<path fill="#FFF100" d="M343.53,175.12c0-1.09-0.89-1.98-1.98-1.98s-1.98,0.89-1.98,1.98v1.86h3.96V175.12z"/>
	<rect x="339.58" y="195.08" fill="#FFF100" width="3.96" height="2.92"/>
	<path fill="#FFF100" d="M339.58,183.86h-2.92v3.96h2.92v3.32h3.96v-3.32h8.73c1.09,0,1.98-0.89,1.98-1.98s-0.89-1.98-1.98-1.98
		h-8.73v-2.92h-3.96V183.86z"/>
	<rect x="406.41" y="213.52" fill="#FFF100" width="2.92" height="3.96"/>
	<path fill="#FFF100" d="M343.53,213.52v-2.92h-3.96v20.56c0,1.09,0.89,1.98,1.98,1.98s1.98-0.89,1.98-1.98v-13.68h58.92v-3.96
		H343.53z"/>
	<rect x="416.21" y="203.72" fill="#FFF100" width="3.96" height="2.92"/>
	<rect x="416.21" y="263.11" fill="#FFF100" width="3.96" height="2.92"/>
	<polygon fill="#FFF100" points="420.16,250.72 416.21,250.72 416.21,259.15 420.16,259.15 420.16,257.59 431.29,257.59 
		431.29,253.64 420.16,253.64 	"/>
	<path fill="#FFF100" d="M418.18,271.86c1.05,0,1.91-0.83,1.97-1.87h-3.93C416.28,271.03,417.13,271.86,418.18,271.86z"/>
	<path fill="#FFF100" d="M416.21,213.52h-2.92v3.96h2.92v4.5h3.96v-4.5h25.21c1.09,0,1.98-0.89,1.98-1.98s-0.89-1.98-1.98-1.98
		h-25.21v-2.92h-3.96V213.52z"/>
	<path fill="#FFF100" d="M416.21,235.73h-2.92v3.96h2.92v0.2h3.96v-0.2h11.13v-3.34c0-0.22,0.04-0.42,0.11-0.61h-11.23v-2.92h-3.96
		V235.73z"/>
	<path fill="#FFF100" d="M420.16,197.37c0-1.09-0.89-1.98-1.98-1.98s-1.98,0.89-1.98,1.98v2.39h3.96V197.37z"/>
	<rect x="416.21" y="243.84" fill="#FFF100" width="3.96" height="2.92"/>
	<rect x="416.21" y="225.93" fill="#FFF100" width="3.96" height="2.92"/>
	<rect x="435.25" y="253.64" fill="#FFF100" width="2.92" height="3.96"/>
	<path fill="#FFF100" d="M445.05,312.39h-2.92v3.96h2.92v50.76c0,1.09,0.89,1.98,1.98,1.98s1.98-0.89,1.98-1.98v-50.76h7.91
		c1.09,0,1.98-0.89,1.98-1.98s-0.89-1.98-1.98-1.98H449v-2.92h-3.96V312.39z"/>
	<path fill="#FFF100" d="M445.05,272.91h-2.92v1.27h18.97c-0.28-0.74-1-1.27-1.84-1.27H449v-2.92h-3.96V272.91z"/>
	<path fill="#FFF100" d="M445.05,253.64h-2.92v3.96h2.92v1.56h0.45c1.09,0,1.98,0.89,1.98,1.98s-0.89,1.98-1.98,1.98h-0.45v2.92H449
		v-8.44h10.38c1.09,0,1.98-0.89,1.98-1.98s-0.89-1.98-1.98-1.98H449v-2.92h-3.96V253.64z"/>
	<rect x="445.05" y="278.14" fill="#FFF100" width="3.96" height="2.92"/>
	<path fill="#FFF100" d="M445.05,287.94h-2.92v3.96h2.92v8.17c0.05,0.18,0.09,0.36,0.09,0.55s-0.04,0.37-0.09,0.55v4.35H449v-13.62
		h27.65c1.09,0,1.98-0.89,1.98-1.98s-0.89-1.98-1.98-1.98H449v-2.92h-3.96V287.94z"/>
	<path fill="#FFF100" d="M418.68,314.37c0,1.07,0.84,1.93,1.9,1.97v-3.94C419.52,312.44,418.68,313.31,418.68,314.37z"/>
	<rect x="424.53" y="312.39" fill="#FFF100" width="2.92" height="3.96"/>
	<path fill="#FFF100" d="M436.31,296.74c-0.39,0-0.76,0.12-1.07,0.32v1.58h2.92v-0.58C437.9,297.29,437.17,296.74,436.31,296.74z"/>
	<rect x="435.25" y="302.59" fill="#FFF100" width="2.92" height="2.92"/>
	<path fill="#FFF100" d="M438.17,309.47h-2.92v23.24h0.78c1.09,0,1.98,0.89,1.98,1.98s-0.89,1.98-1.98,1.98h-0.78v16.69
		c0,0.7-0.36,1.31-0.91,1.66v19.51c0,1.09,0.89,1.98,1.98,1.98s1.98-0.89,1.98-1.98v-13.63c-0.07-0.21-0.12-0.43-0.12-0.66V309.47z"
		/>
	<path fill="#FFF100" d="M332.27,340.95c1.06,0.03,1.92,0.9,1.92,1.97v0.62h27.89v-3.96h-27.94
		C333.26,339.58,332.53,340.16,332.27,340.95z"/>
	<path fill="#FFF100" d="M379.79,339.58v-2.92h-3.96v2.92h-2.92v3.96h2.92v4.54h1.4c1.09,0,1.98,0.89,1.98,1.98
		s-0.89,1.98-1.98,1.98h-1.4v2.92h3.96v-11.41h40.79v-3.96H379.79z"/>
	<rect x="424.53" y="339.58" fill="#FFF100" width="2.92" height="3.96"/>
	<rect x="366.03" y="339.58" fill="#FFF100" width="2.92" height="3.96"/>
	<path fill="#FFF100" d="M442.9,343.54c1.09,0,1.98-0.89,1.98-1.98s-0.89-1.98-1.98-1.98h-0.78v3.96H442.9z"/>
	<rect x="375.83" y="329.78" fill="#FFF100" width="3.96" height="2.92"/>
	<rect x="375.83" y="373.06" fill="#FFF100" width="3.96" height="2.92"/>
	<path fill="#FFF100" d="M375.83,361.83h-2.92v3.96h2.92v3.32h3.96v-3.32h11.21c1.09,0,1.98-0.89,1.98-1.98s-0.89-1.98-1.98-1.98
		h-11.21v-2.92h-3.96V361.83z"/>
	<path fill="#FFF100" d="M375.83,382.86h-2.92v3.96h2.92v9.97h1.64c1.09,0,1.98,0.89,1.98,1.98s-0.89,1.98-1.98,1.98h-1.64v2.92
		h3.96v-16.85h42.29c1.09,0,1.98-0.89,1.98-1.98s-0.89-1.98-1.98-1.98h-42.29v-2.92h-3.96V382.86z"/>
	<path fill="#FFF100" d="M323.1,363.81c0,0.35,0.1,0.66,0.25,0.95v-1.89C323.2,363.14,323.1,363.46,323.1,363.81z"/>
	<rect x="327.31" y="361.83" fill="#FFF100" width="2.92" height="3.96"/>
	<rect x="366.03" y="361.83" fill="#FFF100" width="2.92" height="3.96"/>
	<rect x="337.11" y="352.03" fill="#FFF100" width="3.96" height="2.92"/>
	<path fill="#FFF100" d="M337.11,408.3c0,1.09,0.89,1.98,1.98,1.98s1.98-0.89,1.98-1.98v-0.68h-3.96V408.3z"/>
	<path fill="#FFF100" d="M338.14,348.08h1.89c-0.28-0.15-0.6-0.25-0.95-0.25S338.42,347.92,338.14,348.08z"/>
	<path fill="#FFF100" d="M341.06,380.5v-14.71h21.01v-3.96h-21.01v-2.92h-3.96v2.92h-2.92v3.96h2.92v9.26
		c0.05,0.17,0.09,0.36,0.09,0.55s-0.04,0.37-0.09,0.55v4.35H341.06z"/>
	<rect x="337.11" y="400.74" fill="#FFF100" width="3.96" height="2.92"/>
	<path fill="#FFF100" d="M348.97,391.33c1.09,0,1.98-0.89,1.98-1.98s-0.89-1.98-1.98-1.98h-7.91v-2.92h-3.96v2.92h-2.92v3.96h2.92
		v5.46h3.96v-5.46H348.97z"/>
	<polygon fill="#FFF100" points="245.48,387.37 245.48,384.45 241.53,384.45 241.53,387.37 238.6,387.37 238.6,391.33 
		241.53,391.33 241.53,396.79 245.48,396.79 245.48,391.33 323.35,391.33 323.35,387.37 	"/>
	<rect x="327.31" y="387.37" fill="#FFF100" width="2.92" height="3.96"/>
	<rect x="231.73" y="387.37" fill="#FFF100" width="2.92" height="3.96"/>
	<path fill="#FFF100" d="M194.89,387.37c-1.09,0-1.98,0.89-1.98,1.98s0.89,1.98,1.98,1.98h32.88v-3.96H194.89z"/>
	<path fill="#FFF100" d="M241.53,410.54h-2.92v3.96h2.92v1.97h3.96v-1.97h30.26c1.09,0,1.98-0.89,1.98-1.98s-0.89-1.98-1.98-1.98
		h-30.26v-2.92h-3.96V410.54z"/>
	<path fill="#FFF100" d="M241.53,454.84h-2.92v3.96h2.92v15.42c0,1.09,0.89,1.98,1.98,1.98s1.98-0.89,1.98-1.98V458.8h16.02
		c1.09,0,1.98-0.89,1.98-1.98s-0.89-1.98-1.98-1.98h-16.02v-2.92h-3.96V454.84z"/>
	<rect x="241.53" y="420.42" fill="#FFF100" width="3.96" height="2.92"/>
	<rect x="241.53" y="377.57" fill="#FFF100" width="3.96" height="2.92"/>
	<path fill="#FFF100" d="M241.53,430.22h-2.92v3.96h2.92v6.91h3.96v-6.91h16.15c1.09,0,1.98-0.89,1.98-1.98s-0.89-1.98-1.98-1.98
		h-16.15v-2.92h-3.96V430.22z"/>
	<rect x="241.53" y="445.04" fill="#FFF100" width="3.96" height="2.92"/>
	<rect x="241.53" y="400.74" fill="#FFF100" width="3.96" height="2.92"/>
	<path fill="#FFF100" d="M245.48,362.99c0-1.09-0.89-1.98-1.98-1.98s-1.98,0.89-1.98,1.98v10.63h3.96V362.99z"/>
	<rect x="172.4" y="430.22" fill="#FFF100" width="2.92" height="3.96"/>
	<rect x="231.73" y="430.22" fill="#FFF100" width="2.92" height="3.96"/>
	<path fill="#FFF100" d="M163.58,430.22c-1.09,0-1.98,0.89-1.98,1.98s0.89,1.98,1.98,1.98h4.87v-3.96H163.58z"/>
	<path fill="#FFF100" d="M186.16,441.75v-7.58h41.61v-3.96h-41.61v-2.92h-3.96v2.92h-2.92v3.96h2.92v56.87
		c0,1.09,0.89,1.98,1.98,1.98s1.98-0.89,1.98-1.98v-46.68c-0.31-0.35-0.51-0.81-0.51-1.31S185.85,442.1,186.16,441.75z"/>
	<path fill="#FFF100" d="M182.2,422.31v1.03h3.96v-1.03c0-0.9-0.61-1.65-1.43-1.89h-1.1C182.81,420.66,182.2,421.41,182.2,422.31z"
		/>
	<rect x="232.55" y="178.78" fill="#FFF100" width="2.92" height="3.96"/>
	<path fill="#FFF100" d="M63.75,178.78c-1.09,0-1.98,0.89-1.98,1.98s0.89,1.98,1.98,1.98H228.6v-3.96H63.75z"/>
	<rect x="162.51" y="143.98" fill="#FFF100" width="2.92" height="3.96"/>
	<path fill="#FFF100" d="M155.51,143.98c-1.09,0-1.98,0.89-1.98,1.98s0.89,1.98,1.98,1.98h3.05v-3.96H155.51z"/>
	<rect x="232.55" y="143.98" fill="#FFF100" width="2.92" height="3.96"/>
	<path fill="#FFF100" d="M22.07,148.72h93.09c1.09,0,1.98-0.89,1.98-1.98s-0.89-1.98-1.98-1.98H22.07c-1.09,0-1.98,0.89-1.98,1.98
		S20.98,148.72,22.07,148.72z"/>
	<path fill="#FFF100" d="M235.47,101.26v-3.96h-2.45c-0.16,0-0.32,0.03-0.47,0.06v3.83c0.15,0.04,0.31,0.06,0.47,0.06H235.47z"/>
	<path fill="#FFF100" d="M441.06,42.73H286.02c-1.09,0-1.98,0.89-1.98,1.98s0.89,1.98,1.98,1.98h155.04c1.09,0,1.98-0.89,1.98-1.98
		S442.15,42.73,441.06,42.73z"/>
	<path fill="#FFF100" d="M333.48,128.95h107.58c1.09,0,1.98-0.89,1.98-1.98s-0.89-1.98-1.98-1.98H333.48
		c-1.09,0-1.98,0.89-1.98,1.98S332.39,128.95,333.48,128.95z"/>
	<path fill="#FFF100" d="M388.06,147.93h56.95c1.09,0,1.98-0.89,1.98-1.98s-0.89-1.98-1.98-1.98h-56.95c-1.09,0-1.98,0.89-1.98,1.98
		S386.97,147.93,388.06,147.93z"/>
	<path fill="#FFF100" d="M443.43,68.04h-97.29c-1.09,0-1.98,0.89-1.98,1.98s0.89,1.98,1.98,1.98h97.29c1.09,0,1.98-0.89,1.98-1.98
		S444.52,68.04,443.43,68.04z"/>
	<path fill="#FFF100" d="M492.93,97.31h-32.89c-1.09,0-1.98,0.89-1.98,1.98s0.89,1.98,1.98,1.98h32.89c1.09,0,1.98-0.89,1.98-1.98
		S494.02,97.31,492.93,97.31z"/>
	<path fill="#FFF100" d="M453.71,193.81h39.22c1.09,0,1.98-0.89,1.98-1.98s-0.89-1.98-1.98-1.98h-39.22c-1.09,0-1.98,0.89-1.98,1.98
		S452.62,193.81,453.71,193.81z"/>
	<path fill="#FFF100" d="M492.93,174.83h-83.51c-1.09,0-1.98,0.89-1.98,1.98s0.89,1.98,1.98,1.98h28.7
		c-0.08-0.22-0.14-0.46-0.14-0.7c0-1.09,0.89-1.98,1.98-1.98h39.22c1.09,0,1.98,0.89,1.98,1.98c0,0.25-0.05,0.48-0.14,0.7h11.91
		c1.09,0,1.98-0.89,1.98-1.98S494.02,174.83,492.93,174.83z"/>
	<path fill="#FFF100" d="M257.5,242.85H142.06c-1.09,0-1.98,0.89-1.98,1.98s0.89,1.98,1.98,1.98H257.5c1.09,0,1.98-0.89,1.98-1.98
		S258.59,242.85,257.5,242.85z"/>
	<path fill="#FFF100" d="M234.21,223.47c0-0.98-0.72-1.79-1.66-1.95v3.89C233.49,225.27,234.21,224.46,234.21,223.47z"/>
	<path fill="#FFF100" d="M151.55,221.5c-1.09,0-1.98,0.89-1.98,1.98s0.89,1.98,1.98,1.98h77.04v-3.96H151.55z"/>
	<path fill="#FFF100" d="M62.96,217.54h79.99c-0.15-0.28-0.25-0.6-0.25-0.95c0-1.09,0.89-1.98,1.98-1.98h46.57
		c-0.34-0.61-0.98-1.03-1.73-1.03H62.96c-1.09,0-1.98,0.89-1.98,1.98S61.87,217.54,62.96,217.54z"/>
	<path fill="#FFF100" d="M47.14,192.23H22.07c-1.09,0-1.98,0.89-1.98,1.98s0.89,1.98,1.98,1.98h25.07c1.09,0,1.98-0.89,1.98-1.98
		S48.23,192.23,47.14,192.23z"/>
	<path fill="#FFF100" d="M22.07,272.12h91.51c1.09,0,1.98-0.89,1.98-1.98s-0.89-1.98-1.98-1.98H22.07c-1.09,0-1.98,0.89-1.98,1.98
		S20.98,272.12,22.07,272.12z"/>
	<path fill="#FFF100" d="M28.95,242.06h24.52c1.09,0,1.98-0.89,1.98-1.98s-0.89-1.98-1.98-1.98H28.95c-1.09,0-1.98,0.89-1.98,1.98
		S27.85,242.06,28.95,242.06z"/>
	<path fill="#FFF100" d="M158.54,294.27h141.72c1.09,0,1.98-0.89,1.98-1.98s-0.89-1.98-1.98-1.98H157.09
		c-1.09,0-1.98,0.89-1.98,1.98c0,0.32,0.08,0.61,0.21,0.88h1.45C157.56,293.17,158.22,293.62,158.54,294.27z"/>
	<path fill="#FFF100" d="M319.64,274.89c0-1.09-0.89-1.98-1.98-1.98h-91.76c-1.09,0-1.98,0.89-1.98,1.98c0,0.7,0.37,1.32,0.93,1.67
		h61.65c0.39,0,0.75,0.12,1.05,0.31h30.11C318.75,276.87,319.64,275.98,319.64,274.89z"/>
	<path fill="#FFF100" d="M299.47,204.88c-1.09,0-1.98,0.89-1.98,1.98s0.89,1.98,1.98,1.98h26.35v-3.96H299.47z"/>
	<path fill="#FFF100" d="M336.66,204.88v1.76h48.61c-0.11-0.99-0.94-1.76-1.96-1.76h-39.78v-1.17h-3.96v1.17H336.66z"/>
	<rect x="329.78" y="204.88" fill="#FFF100" width="2.92" height="3.96"/>
	<path fill="#FFF100" d="M435.25,239.69h57.69c1.09,0,1.98-0.89,1.98-1.98s-0.89-1.98-1.98-1.98h-57.79
		c0.06,0.19,0.11,0.4,0.11,0.61V239.69z"/>
	<rect x="406.41" y="235.73" fill="#FFF100" width="2.92" height="3.96"/>
	<path fill="#FFF100" d="M386.48,235.73c-1.09,0-1.98,0.89-1.98,1.98s0.89,1.98,1.98,1.98h15.97v-3.96H386.48z"/>
	<path fill="#FFF100" d="M340.21,247.6c0-1.09-0.89-1.98-1.98-1.98h-47.86c-1.09,0-1.98,0.89-1.98,1.98s0.89,1.98,1.98,1.98h47.86
		C339.32,249.58,340.21,248.69,340.21,247.6z"/>
	<path fill="#FFF100" d="M366.03,318.79h17.28c1.09,0,1.98-0.89,1.98-1.98s-0.89-1.98-1.98-1.98h-17.39
		c0.06,0.19,0.11,0.4,0.11,0.61V318.79z"/>
	<path fill="#FFF100" d="M362.18,314.83h-88.82c-1.09,0-1.98,0.89-1.98,1.98s0.89,1.98,1.98,1.98h88.71v-3.34
		C362.08,315.23,362.12,315.03,362.18,314.83z"/>
	<path fill="#FFF100" d="M427.3,274.18h3.99v-1.27h-77.24c-1.09,0-1.98,0.89-1.98,1.98s0.89,1.98,1.98,1.98h71.41
		c-0.08-0.22-0.14-0.46-0.14-0.7C425.32,275.07,426.21,274.18,427.3,274.18z"/>
	<rect x="435.25" y="272.91" fill="#FFF100" width="2.92" height="1.27"/>
	<path fill="#FFF100" d="M170.54,306.92H73.24c-1.09,0-1.98,0.89-1.98,1.98s0.89,1.98,1.98,1.98h97.29c1.09,0,1.98-0.89,1.98-1.98
		S171.63,306.92,170.54,306.92z"/>
	<path fill="#FFF100" d="M86.69,363.88c-1.09,0-1.98,0.89-1.98,1.98s0.89,1.98,1.98,1.98h141.08v-3.96H86.69z"/>
	<path fill="#FFF100" d="M231.84,365.85c0-0.22-0.04-0.43-0.11-0.63v1.26C231.79,366.28,231.84,366.07,231.84,365.85z"/>
	<path fill="#FFF100" d="M272.97,323.93c0-1.09-0.89-1.98-1.98-1.98h-72.77c-1.09,0-1.98,0.89-1.98,1.98s0.89,1.98,1.98,1.98h72.77
		C272.08,325.91,272.97,325.02,272.97,323.93z"/>
	<path fill="#FFF100" d="M164.6,405.4c0-1.09-0.89-1.98-1.98-1.98H55.84c-1.09,0-1.98,0.89-1.98,1.98s0.89,1.98,1.98,1.98h106.78
		C163.72,407.38,164.6,406.5,164.6,405.4z"/>
	<path fill="#FFF100" d="M87.88,338.17c0,1.09,0.89,1.98,1.98,1.98h55.37c1.09,0,1.98-0.89,1.98-1.98s-0.89-1.98-1.98-1.98H89.85
		C88.76,336.19,87.88,337.08,87.88,338.17z"/>
	<path fill="#FFF100" d="M384.19,412.21c0-0.7,0.37-1.32,0.93-1.67h-94.35c-1.09,0-1.98,0.89-1.98,1.98s0.89,1.98,1.98,1.98h100.46
		c0.39,0,0.75-0.12,1.05-0.31h-6.11C385.08,414.19,384.19,413.3,384.19,412.21z"/>
	<path fill="#FFF100" d="M368.96,386.81v-3.96h-2.25c-0.24,0-0.46,0.05-0.67,0.13v3.7c0.21,0.08,0.43,0.13,0.67,0.13H368.96z"/>
	<path fill="#FFF100" d="M494.91,407.78c0-1.09-0.89-1.98-1.98-1.98h-47.92c-1.09,0-1.98,0.89-1.98,1.98s0.89,1.98,1.98,1.98h47.92
		C494.02,409.75,494.91,408.87,494.91,407.78z"/>
	<path fill="#FFF100" d="M450.15,448.12c0-1.09-0.89-1.98-1.98-1.98h-38.76c-1.09,0-1.98,0.89-1.98,1.98s0.89,1.98,1.98,1.98h38.76
		C449.27,450.09,450.15,449.21,450.15,448.12z"/>
	<path fill="#FFF100" d="M307.38,476.2h125.37c1.09,0,1.98-0.89,1.98-1.98s-0.89-1.98-1.98-1.98H307.38c-1.09,0-1.98,0.89-1.98,1.98
		S306.29,476.2,307.38,476.2z"/>
	<path fill="#FFF100" d="M474.67,425.97c0-1.09-0.89-1.98-1.98-1.98h-72.77c-1.09,0-1.98,0.89-1.98,1.98s0.89,1.98,1.98,1.98h72.77
		C473.79,427.95,474.67,427.06,474.67,425.97z"/>
	<path fill="#FFF100" d="M47.14,453.26h76.73c1.09,0,1.98-0.89,1.98-1.98s-0.89-1.98-1.98-1.98H47.14c-1.09,0-1.98,0.89-1.98,1.98
		S46.05,453.26,47.14,453.26z"/>
	<rect x="231.73" y="410.54" fill="#FFF100" width="2.92" height="3.96"/>
	<rect x="231.73" y="454.84" fill="#FFF100" width="2.92" height="3.96"/>
	<path fill="#FFF100" d="M201.38,454.84c-1.09,0-1.98,0.89-1.98,1.98s0.89,1.98,1.98,1.98h26.39v-3.96H201.38z"/>
	<path fill="#FFF100" d="M22.07,364.67h33.77c1.09,0,1.98-0.89,1.98-1.98s-0.89-1.98-1.98-1.98H22.07c-1.09,0-1.98,0.89-1.98,1.98
		S20.98,364.67,22.07,364.67z"/>
	<path fill="#FBC600" d="M55.36,53.39c-1.09,0-1.98,0.89-1.98,1.98s0.89,1.98,1.98,1.98h16.69v-3.96H55.36z"/>
	<path fill="#FBC600" d="M82.88,53.39v-2.92h-3.96v2.92H76v3.96h2.92v2.92v3.96v17.72h3.96V64.22v-3.96v-2.92h2.92h3.96h7.62
		c1.09,0,1.98-0.89,1.98-1.98s-0.89-1.98-1.98-1.98h-7.62H85.8H82.88z"/>
	<path fill="#FBC600" d="M82.88,13.31c0-1.09-0.89-1.98-1.98-1.98s-1.98,0.89-1.98,1.98v33.2h3.96V13.31z"/>
	<polygon fill="#FBC600" points="82.88,95.69 82.88,92.77 85.8,92.77 89.75,92.77 158.56,92.77 158.56,88.82 89.75,88.82 
		85.8,88.82 82.88,88.82 82.88,85.89 78.92,85.89 78.92,88.82 76,88.82 76,92.77 78.92,92.77 78.92,95.69 78.92,99.65 78.92,111.24 
		82.88,111.24 82.88,99.65 	"/>
	<path fill="#FBC600" d="M80.9,127.38c1.09,0,1.98-0.89,1.98-1.98v-0.41v-2.92h2.92h3.96h32.77c1.09,0,1.98-0.89,1.98-1.98
		s-0.89-1.98-1.98-1.98H89.75H85.8h-2.92v-2.92h-3.96v2.92H76v0.41c0,1.09-0.89,1.98-1.98,1.98s-1.98-0.89-1.98-1.98v-0.41H52.92
		c-1.09,0-1.98,0.89-1.98,1.98s0.89,1.98,1.98,1.98h26v2.92v0.41C78.92,126.49,79.81,127.38,80.9,127.38z"/>
	<path fill="#FBC600" d="M65.24,88.82c-1.09,0-1.98,0.89-1.98,1.98s0.89,1.98,1.98,1.98h6.8v-3.96H65.24z"/>
	<path fill="#FBC600" d="M169.39,141.05h2.92h3.96h52.33v-3.96h-52.33h-3.96h-2.92v-2.92h-3.96v2.92h-2.92v3.96h2.92v2.92v3.96
		v12.07c0,1.09,0.89,1.98,1.98,1.98s1.98-0.89,1.98-1.98v-12.07v-3.96V141.05z"/>
	<polygon fill="#FBC600" points="165.44,72.62 165.44,76.58 165.44,81.94 169.39,81.94 169.39,76.58 169.39,72.62 169.39,69.7 
		172.32,69.7 176.27,69.7 228.6,69.7 228.6,65.74 176.27,65.74 172.32,65.74 169.39,65.74 169.39,62.82 165.44,62.82 165.44,65.74 
		162.51,65.74 162.51,69.7 165.44,69.7 	"/>
	<path fill="#FBC600" d="M169.39,58.66c0-1.09-0.89-1.98-1.98-1.98s-1.98,0.89-1.98,1.98v0.21h3.96V58.66z"/>
	<path fill="#FBC600" d="M169.39,95.69v-2.92h2.92h3.96h19.98c1.09,0,1.98-0.89,1.98-1.98s-0.89-1.98-1.98-1.98h-19.98h-3.96h-2.92
		v-2.92h-3.96v2.92h-2.92v3.96h2.92v2.92v3.96v30.57h3.96V99.65V95.69z"/>
	<path fill="#FBC600" d="M239.43,65.74v-2.92h-3.96v2.92h-2.92v3.96h2.92v2.92v3.96v6.97h3.96v-6.97v-3.96V69.7h2.92h3.96h4.32
		c1.09,0,1.98-0.89,1.98-1.98s-0.88-1.98-1.98-1.98h-4.32h-3.96H239.43z"/>
	<path fill="#FBC600" d="M150.94,65.74c-1.09,0-1.98,0.89-1.98,1.98s0.89,1.98,1.98,1.98h7.62v-3.96H150.94z"/>
	<path fill="#FBC600" d="M239.43,41.36c0-1.09-0.89-1.98-1.98-1.98s-1.98,0.89-1.98,1.98v17.51h3.96V41.36z"/>
	<path fill="#FBC600" d="M235.47,233.34c0,1.09,0.89,1.98,1.98,1.98s1.98-0.89,1.98-1.98v-0.29h-3.96V233.34z"/>
	<polygon fill="#FBC600" points="239.43,182.74 239.43,178.78 239.43,170.51 239.43,166.55 239.43,163.63 242.35,163.63 
		246.31,163.63 264.85,163.63 264.85,159.68 246.31,159.68 242.35,159.68 239.43,159.68 239.43,156.75 235.47,156.75 235.47,159.68 
		232.55,159.68 232.55,163.63 235.47,163.63 235.47,166.55 235.47,170.51 235.47,171.9 232.55,171.9 232.55,175.86 235.47,175.86 
		235.47,178.78 235.47,182.74 235.47,229.1 239.43,229.1 	"/>
	<path fill="#FBC600" d="M275.68,159.68v-2.92h-3.96v2.92h-2.92v3.96h2.92v2.92v3.55h3.96v-3.55v-2.92h2.92h3.96h2.68
		c1.09,0,1.98-0.89,1.98-1.98s-0.89-1.98-1.98-1.98h-2.68h-3.96H275.68z"/>
	<path fill="#FBC600" d="M213.23,161.65c0,1.09,0.89,1.98,1.98,1.98h13.39v-3.96H215.2C214.11,159.68,213.23,160.56,213.23,161.65z"
		/>
	<path fill="#FBC600" d="M275.68,138.58c0-1.09-0.89-1.98-1.98-1.98s-1.98,0.89-1.98,1.98v14.22h3.96V138.58z"/>
	<path fill="#FBC600" d="M325.82,180.93v-3.96h-43.26h-3.96h-2.92v-2.92h-3.96v32.09c0,1.09,0.89,1.98,1.98,1.98
		s1.98-0.89,1.98-1.98v-25.21h2.92h3.96H325.82z"/>
	<path fill="#FBC600" d="M336.66,168.25c0-1.09-0.89-1.98-1.98-1.98s-1.98,0.89-1.98,1.98v1.86h3.96V168.25z"/>
	<path fill="#FBC600" d="M332.7,176.98h-2.92v3.96h2.92v2.92v3.96v3.32h3.96v-3.32v-3.96v-2.92h2.92h3.96h1.86
		c1.09,0,1.98-0.89,1.98-1.98s-0.89-1.98-1.98-1.98h-1.86h-3.96h-2.92v-2.92h-3.96V176.98z"/>
	<path fill="#FBC600" d="M413.28,206.64v-2.92h-3.96v2.92h-2.92v3.96h2.92v2.92v3.96v4.5h3.96v-4.5v-3.96v-2.92h2.92h3.96h18.33
		c1.09,0,1.98-0.89,1.98-1.98s-0.89-1.98-1.98-1.98h-18.33h-3.96H413.28z"/>
	<path fill="#FBC600" d="M402.45,210.6v-3.96h-17.18h-48.61v-1.76v-1.17h-3.96v1.17v3.96v15.43c0,1.09,0.89,1.98,1.98,1.98
		s1.98-0.89,1.98-1.98V210.6h2.92h3.96H402.45z"/>
	<path fill="#FBC600" d="M411.31,264.98c1.05,0,1.91-0.83,1.97-1.87h-3.93C409.4,264.15,410.25,264.98,411.31,264.98z"/>
	<path fill="#FBC600" d="M413.28,190.49c0-1.09-0.89-1.98-1.98-1.98s-1.98,0.89-1.98,1.98v9.27h3.96V190.49z"/>
	<polygon fill="#FBC600" points="413.28,250.72 416.21,250.72 420.16,250.72 431.29,250.72 431.29,246.76 420.16,246.76 
		416.21,246.76 413.28,246.76 413.28,243.84 409.33,243.84 409.33,259.15 413.28,259.15 	"/>
	<path fill="#FBC600" d="M438.17,246.76h-2.92v3.96h2.92v2.92v3.96v1.56h3.96v-1.56v-3.96v-2.92h2.92H449h3.5
		c1.09,0,1.98-0.89,1.98-1.98s-0.89-1.98-1.98-1.98h-10.38v-2.92h-3.96V246.76z"/>
	<path fill="#FBC600" d="M442.12,305.52v-2.92h-3.96v2.92h-2.92v3.96h2.92v50.76c0,0.23,0.05,0.45,0.12,0.66
		c0.27,0.77,1,1.32,1.86,1.32c1.09,0,1.98-0.89,1.98-1.98v-16.69v-3.96v-23.24v-3.96v-2.92h2.92H449h1.03
		c1.09,0,1.98-0.89,1.98-1.98s-0.89-1.98-1.98-1.98H449h-3.96H442.12z"/>
	<path fill="#FBC600" d="M413.78,305.52c-1.09,0-1.98,0.89-1.98,1.98s0.89,1.98,1.98,1.98h6.8v-3.96H413.78z"/>
	<path fill="#FBC600" d="M431.29,302.59h-3.83v2.92h-2.92v3.96h2.92v2.92v3.96v9.48h1.69c1.09,0,1.98,0.89,1.98,1.98
		s-0.89,1.98-1.98,1.98h-1.69v2.92h-2.92v3.96h2.92v2.92v3.96v24.1c0,1.09,0.89,1.98,1.98,1.98s1.98-0.89,1.98-1.98v-13.63
		c-0.07-0.21-0.12-0.43-0.12-0.66V302.59z"/>
	<path fill="#FBC600" d="M431.29,291.18c-0.27-0.77-1-1.32-1.86-1.32c-1.09,0-1.98,0.89-1.98,1.98v6.8h3.83V291.18z"/>
	<path fill="#FBC600" d="M327.31,336.05v0.62h34.77v-3.96h-34.81c-0.88,0-1.61,0.58-1.87,1.37
		C326.45,334.11,327.31,334.98,327.31,336.05z"/>
	<path fill="#FBC600" d="M438,334.68c0-1.09-0.89-1.98-1.98-1.98h-0.78v3.96h0.78C437.12,336.66,438,335.78,438,334.68z"/>
	<path fill="#FBC600" d="M372.91,322.33c0-1.09-0.89-1.98-1.98-1.98s-1.98,0.89-1.98,1.98v3.5h3.96V322.33z"/>
	<polygon fill="#FBC600" points="372.91,339.58 372.91,336.66 375.83,336.66 379.79,336.66 420.58,336.66 420.58,332.71 
		379.79,332.71 375.83,332.71 372.91,332.71 372.91,329.78 368.96,329.78 368.96,332.71 366.03,332.71 366.03,336.66 368.96,336.66 
		368.96,339.58 368.96,343.54 368.96,348.08 372.91,348.08 372.91,343.54 	"/>
	<path fill="#FBC600" d="M318.2,354.95c-1.09,0-1.98,0.89-1.98,1.98s0.89,1.98,1.98,1.98h5.15v-3.96H318.2z"/>
	<path fill="#FBC600" d="M372.91,354.95v-2.92h-3.96v2.92h-2.92v3.96h2.92v2.92v3.96v3.32h3.96v-3.32v-3.96v-2.92h2.92h3.96h4.33
		c1.09,0,1.98-0.89,1.98-1.98s-0.89-1.98-1.98-1.98h-4.33h-3.96H372.91z"/>
	<path fill="#FBC600" d="M330.23,401.43c0,1.09,0.89,1.98,1.98,1.98s1.98-0.89,1.98-1.98v-0.68h-3.96V401.43z"/>
	<path fill="#FBC600" d="M334.18,391.33v-3.96v-2.92h2.92h3.96h1.03c1.09,0,1.98-0.89,1.98-1.98s-0.89-1.98-1.98-1.98h-1.03h-3.96
		h-2.92v-2.92h-3.96v2.92h-2.92v3.96h2.92v2.92v3.96v5.46h3.96V391.33z"/>
	<path fill="#FBC600" d="M334.18,342.92c0-1.07-0.85-1.94-1.92-1.97c-0.02,0-0.04-0.01-0.06-0.01c-1.09,0-1.98,0.89-1.98,1.98v5.15
		h3.96v-4.54V342.92z"/>
	<polygon fill="#FBC600" points="334.18,361.83 334.18,358.91 337.11,358.91 341.06,358.91 362.08,358.91 362.08,354.95 
		341.06,354.95 337.11,354.95 334.18,354.95 334.18,352.03 330.23,352.03 330.23,354.95 327.31,354.95 327.31,358.91 330.23,358.91 
		330.23,361.83 330.23,365.79 330.23,373.62 334.18,373.62 334.18,365.79 	"/>
	<path fill="#FBC600" d="M188.01,380.5c-1.09,0-1.98,0.89-1.98,1.98s0.89,1.98,1.98,1.98h39.76v-3.96H188.01z"/>
	<path fill="#FBC600" d="M238.6,356.11c0-1.09-0.89-1.98-1.98-1.98s-1.98,0.89-1.98,1.98v17.51h3.96V356.11z"/>
	<polygon fill="#FBC600" points="238.6,387.37 238.6,384.45 241.53,384.45 245.48,384.45 323.35,384.45 323.35,380.5 245.48,380.5 
		241.53,380.5 238.6,380.5 238.6,377.57 234.65,377.57 234.65,380.5 231.73,380.5 231.73,384.45 234.65,384.45 234.65,387.37 
		234.65,391.33 234.65,396.79 238.6,396.79 238.6,391.33 	"/>
	<path fill="#FBC600" d="M238.6,423.34v-2.92h-3.96v2.92h-2.92v3.96h2.92v2.92v3.96v6.91h3.96v-6.91v-3.96v-2.92h2.92h3.96h9.27
		c1.09,0,1.98-0.89,1.98-1.98s-0.89-1.98-1.98-1.98h-9.27h-3.96H238.6z"/>
	<path fill="#FBC600" d="M156.7,423.34c-1.09,0-1.98,0.89-1.98,1.98s0.89,1.98,1.98,1.98h11.74v-3.96H156.7z"/>
	<path fill="#FBC600" d="M179.28,415.43c0-1.09-0.89-1.98-1.98-1.98s-1.98,0.89-1.98,1.98v1.03h3.96V415.43z"/>
	<path fill="#FBC600" d="M179.28,427.3h2.92h3.96h41.61v-3.96h-41.61h-3.96h-2.92v-2.92h-3.96v2.92h-2.92v3.96h2.92v2.92v3.96v50
		c0,1.09,0.89,1.98,1.98,1.98s1.98-0.89,1.98-1.98v-50v-3.96V427.3z"/>
	<path fill="#FBC600" d="M56.87,171.9c-1.09,0-1.98,0.89-1.98,1.98s0.89,1.98,1.98,1.98H228.6v-3.96H56.87z"/>
	<path fill="#FBC600" d="M148.63,137.1c-1.09,0-1.98,0.89-1.98,1.98s0.89,1.98,1.98,1.98h9.93v-3.96H148.63z"/>
	<path fill="#FBC600" d="M110.27,139.87c0-1.09-0.89-1.98-1.98-1.98H15.19c-1.09,0-1.98,0.89-1.98,1.98s0.89,1.98,1.98,1.98h93.09
		C109.38,141.85,110.27,140.96,110.27,139.87z"/>
	<path fill="#FBC600" d="M224.17,92.41c0,1.09,0.89,1.98,1.98,1.98h2.45v-3.96h-2.45C225.05,90.43,224.17,91.32,224.17,92.41z"/>
	<path fill="#FBC600" d="M239.43,90.43v-2.92h-3.96v2.92h-2.92v3.96h2.92v2.92v3.96v35.84h-2.92v3.96h2.92v2.92v3.96v4.87h3.96
		v-4.87v-3.96v-42.71v-3.96v-2.92h2.92h3.96h126.17c1.09,0,1.98-0.89,1.98-1.98s-0.89-1.98-1.98-1.98H246.31h-3.96H239.43z"/>
	<path fill="#FBC600" d="M434.18,35.85H279.14c-1.09,0-1.98,0.89-1.98,1.98s0.89,1.98,1.98,1.98h155.04c1.09,0,1.98-0.89,1.98-1.98
		S435.27,35.85,434.18,35.85z"/>
	<path fill="#FBC600" d="M326.6,122.07h107.58c1.09,0,1.98-0.89,1.98-1.98s-0.89-1.98-1.98-1.98H326.6c-1.09,0-1.98,0.89-1.98,1.98
		S325.51,122.07,326.6,122.07z"/>
	<path fill="#FBC600" d="M381.18,141.05h56.95c1.09,0,1.98-0.89,1.98-1.98s-0.89-1.98-1.98-1.98h-56.95c-1.09,0-1.98,0.89-1.98,1.98
		S380.09,141.05,381.18,141.05z"/>
	<path fill="#FBC600" d="M339.26,65.12h97.29c1.09,0,1.98-0.89,1.98-1.98s-0.89-1.98-1.98-1.98h-97.29c-1.09,0-1.98,0.89-1.98,1.98
		S338.17,65.12,339.26,65.12z"/>
	<path fill="#FBC600" d="M488.03,92.41c0-1.09-0.89-1.98-1.98-1.98h-32.89c-1.09,0-1.98,0.89-1.98,1.98s0.89,1.98,1.98,1.98h32.89
		C487.15,94.39,488.03,93.5,488.03,92.41z"/>
	<path fill="#FBC600" d="M488.03,184.96c0-1.09-0.89-1.98-1.98-1.98h-39.22c-1.09,0-1.98,0.89-1.98,1.98s0.89,1.98,1.98,1.98h39.22
		C487.15,186.93,488.03,186.05,488.03,184.96z"/>
	<path fill="#FBC600" d="M486.05,167.95h-83.51c-1.09,0-1.98,0.89-1.98,1.98s0.89,1.98,1.98,1.98h83.51c1.09,0,1.98-0.89,1.98-1.98
		S487.15,167.95,486.05,167.95z"/>
	<path fill="#FBC600" d="M135.18,235.97c-1.09,0-1.98,0.89-1.98,1.98s0.89,1.98,1.98,1.98h107.17h3.96h4.32
		c1.09,0,1.98-0.89,1.98-1.98s-0.88-1.98-1.98-1.98h-4.32h-3.96H135.18z"/>
	<path fill="#FBC600" d="M142.7,216.59c0,0.34,0.1,0.66,0.25,0.95c0.34,0.61,0.98,1.03,1.73,1.03h80.68c1.09,0,1.98-0.89,1.98-1.98
		s-0.89-1.98-1.98-1.98h-34.11h-46.57C143.58,214.62,142.7,215.5,142.7,216.59z"/>
	<path fill="#FBC600" d="M136.07,210.66c-0.15-0.28-0.25-0.6-0.25-0.95c0-1.09,0.89-1.98,1.98-1.98h46.57
		c-0.34-0.61-0.98-1.03-1.73-1.03H56.08c-1.09,0-1.98,0.89-1.98,1.98s0.89,1.98,1.98,1.98H136.07z"/>
	<path fill="#FBC600" d="M13.22,187.33c0,1.09,0.89,1.98,1.98,1.98h25.07c1.09,0,1.98-0.89,1.98-1.98s-0.89-1.98-1.98-1.98H15.19
		C14.1,185.35,13.22,186.24,13.22,187.33z"/>
	<path fill="#FBC600" d="M13.22,263.26c0,1.09,0.89,1.98,1.98,1.98h91.51c1.09,0,1.98-0.89,1.98-1.98s-0.89-1.98-1.98-1.98H15.19
		C14.1,261.29,13.22,262.17,13.22,263.26z"/>
	<path fill="#FBC600" d="M22.07,235.18h24.52c1.09,0,1.98-0.89,1.98-1.98s-0.89-1.98-1.98-1.98H22.07c-1.09,0-1.98,0.89-1.98,1.98
		S20.98,235.18,22.07,235.18z"/>
	<path fill="#FBC600" d="M150.21,283.43c-1.09,0-1.98,0.89-1.98,1.98s0.89,1.98,1.98,1.98h143.17c1.09,0,1.98-0.89,1.98-1.98
		s-0.89-1.98-1.98-1.98H150.21z"/>
	<path fill="#FBC600" d="M310.78,269.99c1.09,0,1.98-0.89,1.98-1.98s-0.89-1.98-1.98-1.98h-91.76c-1.09,0-1.98,0.89-1.98,1.98
		s0.89,1.98,1.98,1.98H310.78z"/>
	<path fill="#FBC600" d="M325.82,198.01h-33.23c-1.09,0-1.98,0.89-1.98,1.98s0.89,1.98,1.98,1.98h33.23V198.01z"/>
	<path fill="#FBC600" d="M336.66,198.01v-2.92h-3.96v2.92h-2.92v1.76h48.61c-0.11-0.99-0.94-1.76-1.96-1.76h-32.9h-3.96H336.66z"/>
	<path fill="#FBC600" d="M379.6,228.86c-1.09,0-1.98,0.89-1.98,1.98s0.89,1.98,1.98,1.98h22.85v-3.96H379.6z"/>
	<path fill="#FBC600" d="M413.28,228.86v-2.92h-3.96v2.92h-2.92v3.96h2.92v2.92v3.96v0.2h3.96v-0.2v-3.96v-2.92h2.92h3.96h65.89
		c1.09,0,1.98-0.89,1.98-1.98s-0.89-1.98-1.98-1.98h-65.89h-3.96H413.28z"/>
	<path fill="#FBC600" d="M331.35,238.74h-47.86c-1.09,0-1.98,0.89-1.98,1.98s0.89,1.98,1.98,1.98h47.86c1.09,0,1.98-0.89,1.98-1.98
		S332.44,238.74,331.35,238.74z"/>
	<path fill="#FBC600" d="M378.41,309.93c0-1.09-0.89-1.98-1.98-1.98H266.49c-1.09,0-1.98,0.89-1.98,1.98s0.89,1.98,1.98,1.98h109.95
		C377.53,311.91,378.41,311.02,378.41,309.93z"/>
	<path fill="#FBC600" d="M442.12,266.03v-2.92h-3.96v2.92h-2.92v3.96h2.92v2.92v1.27h3.96v-1.27v-2.92h2.92H449h3.37
		c1.09,0,1.98-0.89,1.98-1.98s-0.89-1.98-1.98-1.98H449h-3.96H442.12z"/>
	<path fill="#FBC600" d="M420.16,266.03h-3.96h-69.04c-1.09,0-1.98,0.89-1.98,1.98s0.89,1.98,1.98,1.98h69.05h3.93h11.14v-3.96
		H420.16z"/>
	<path fill="#FBC600" d="M163.66,300.05H66.36c-1.09,0-1.98,0.89-1.98,1.98s0.89,1.98,1.98,1.98h97.29c1.09,0,1.98-0.89,1.98-1.98
		S164.75,300.05,163.66,300.05z"/>
	<path fill="#FBC600" d="M224.96,358.97c0-1.09-0.89-1.98-1.98-1.98H79.81c-1.09,0-1.98,0.89-1.98,1.98s0.89,1.98,1.98,1.98h143.17
		C224.08,360.95,224.96,360.07,224.96,358.97z"/>
	<path fill="#FBC600" d="M189.37,317.05c0,1.09,0.89,1.98,1.98,1.98h72.77c1.09,0,1.98-0.89,1.98-1.98s-0.89-1.98-1.98-1.98h-72.77
		C190.25,315.07,189.37,315.96,189.37,317.05z"/>
	<path fill="#FBC600" d="M46.99,398.53c0,1.09,0.89,1.98,1.98,1.98h106.78c1.09,0,1.98-0.89,1.98-1.98s-0.89-1.98-1.98-1.98H48.96
		C47.87,396.55,46.99,397.43,46.99,398.53z"/>
	<path fill="#FBC600" d="M138.35,329.31H82.98c-1.09,0-1.98,0.89-1.98,1.98s0.89,1.98,1.98,1.98h55.37c1.09,0,1.98-0.89,1.98-1.98
		S139.44,329.31,138.35,329.31z"/>
	<path fill="#FBC600" d="M341.06,403.67h-3.96h-53.22c-1.09,0-1.98,0.89-1.98,1.98s0.89,1.98,1.98,1.98h53.22h3.96h43.28
		c1.09,0,1.98-0.89,1.98-1.98s-0.89-1.98-1.98-1.98h-4.56h-3.96H341.06z"/>
	<path fill="#FBC600" d="M357.85,377.96c0,1.09,0.89,1.98,1.98,1.98h2.25v-3.96h-2.25C358.73,375.98,357.85,376.87,357.85,377.96z"
		/>
	<path fill="#FBC600" d="M372.91,375.98v-2.92h-3.96v2.92h-2.92v3.96h2.92v2.92v3.96v9.97h3.96v-9.97v-3.96v-2.92h2.92h3.96h35.41
		c1.09,0,1.98-0.89,1.98-1.98s-0.89-1.98-1.98-1.98h-35.41h-3.96H372.91z"/>
	<path fill="#FBC600" d="M436.16,400.9c0,1.09,0.89,1.98,1.98,1.98h47.92c1.09,0,1.98-0.89,1.98-1.98s-0.89-1.98-1.98-1.98h-47.92
		C437.04,398.92,436.16,399.81,436.16,400.9z"/>
	<path fill="#FBC600" d="M400.56,441.24c0,1.09,0.89,1.98,1.98,1.98h38.76c1.09,0,1.98-0.89,1.98-1.98s-0.89-1.98-1.98-1.98h-38.76
		C401.45,439.26,400.56,440.15,400.56,441.24z"/>
	<path fill="#FBC600" d="M300.5,469.32h125.37c1.09,0,1.98-0.89,1.98-1.98s-0.89-1.98-1.98-1.98H300.5c-1.09,0-1.98,0.89-1.98,1.98
		S299.41,469.32,300.5,469.32z"/>
	<path fill="#FBC600" d="M467.8,419.09c0-1.09-0.89-1.98-1.98-1.98h-72.77c-1.09,0-1.98,0.89-1.98,1.98s0.89,1.98,1.98,1.98h72.77
		C466.91,421.07,467.8,420.18,467.8,419.09z"/>
	<path fill="#FBC600" d="M442.12,281.06v-2.92h-3.96v2.92h-2.92v3.96h2.92v13.04v0.58h3.96v-6.74v-3.96v-2.92h2.92H449h20.77
		c1.09,0,1.98-0.89,1.98-1.98s-0.89-1.98-1.98-1.98H449h-3.96H442.12z"/>
	<path fill="#FBC600" d="M40.26,446.38h76.73c1.09,0,1.98-0.89,1.98-1.98s-0.89-1.98-1.98-1.98H40.26c-1.09,0-1.98,0.89-1.98,1.98
		S39.17,446.38,40.26,446.38z"/>
	<path fill="#FBC600" d="M224.56,403.67c-1.09,0-1.98,0.89-1.98,1.98s0.89,1.98,1.98,1.98h3.21v-3.96H224.56z"/>
	<path fill="#FBC600" d="M238.6,403.67v-2.92h-3.96v2.92h-2.92v3.96h2.92v2.92v3.96v1.97h3.96v-1.97v-3.96v-2.92h2.92h3.96h23.38
		c1.09,0,1.98-0.89,1.98-1.98s-0.89-1.98-1.98-1.98h-23.38h-3.96H238.6z"/>
	<path fill="#FBC600" d="M238.6,447.96v-2.92h-3.96v2.92h-2.92v3.96h2.92v2.92v3.96v8.55c0,1.09,0.89,1.98,1.98,1.98
		s1.98-0.89,1.98-1.98v-8.55v-3.96v-2.92h2.92h3.96h9.14c1.09,0,1.98-0.89,1.98-1.98s-0.89-1.98-1.98-1.98h-9.14h-3.96H238.6z"/>
	<path fill="#FBC600" d="M194.51,447.96c-1.09,0-1.98,0.89-1.98,1.98s0.89,1.98,1.98,1.98h33.27v-3.96H194.51z"/>
	<path fill="#FBC600" d="M13.22,355.81c0,1.09,0.89,1.98,1.98,1.98h33.77c1.09,0,1.98-0.89,1.98-1.98s-0.89-1.98-1.98-1.98H15.19
		C14.1,353.83,13.22,354.72,13.22,355.81z"/>
	<path fill="#EA6000" d="M74.02,120.5c1.09,0,1.98-0.89,1.98-1.98v-0.41v-2.92h2.92h3.96h2.92h3.96h25.89
		c1.09,0,1.98-0.89,1.98-1.98s-0.89-1.98-1.98-1.98H89.75H85.8h-2.92h-3.96H76V99.65v-3.96v-2.92v-3.96v-2.92h2.92h3.96h2.92h3.96
		h68.8v2.92v3.96v2.92v3.96v30.57h-16.81c-1.09,0-1.98,0.89-1.98,1.98s0.89,1.98,1.98,1.98h16.81v2.92v3.96v2.92v3.96v5.19
		c0,1.09,0.89,1.98,1.98,1.98s1.98-0.89,1.98-1.98v-5.19v-3.96v-2.92v-3.96v-2.92h2.92h3.96h2.92h3.96h52.33v2.92v3.96v2.92v3.96
		v4.87h-20.27c-1.09,0-1.98,0.89-1.98,1.98s0.89,1.98,1.98,1.98h20.27v2.92v3.96v1.39h-52.33h-3.96H49.99
		c-1.09,0-1.98,0.89-1.98,1.98s0.89,1.98,1.98,1.98h170.17h8.43v1.53v1.39v3.96v2.92v3.96v38.76v3.96v1.01
		c0,1.09,0.89,1.98,1.98,1.98s1.98-0.89,1.98-1.98v-1.04v-3.89v-38.79v-3.96v-2.92v-3.96v-1.39v-3.96v-2.92v-3.96v-2.92h2.92h3.96
		h2.92h3.96h18.54v2.92v3.96v2.92v3.96v28.76c0,1.09,0.89,1.98,1.98,1.98s1.98-0.89,1.98-1.98v-25.21h2.92h3.96h2.92h3.96h43.26
		v2.92v3.96v2.92v3.96v3.32h-40.11c-1.09,0-1.98,0.89-1.98,1.98s0.89,1.98,1.98,1.98h40.11v2.92v3.96v2.92v3.96v8.56
		c0,1.09,0.89,1.98,1.98,1.98s1.98-0.89,1.98-1.98v-8.56v-3.96v-1.17h2.92h3.96h2.92h3.96h58.92v2.92v3.96v2.92v3.96v4.5h-29.73
		c-1.09,0-1.98,0.89-1.98,1.98s0.89,1.98,1.98,1.98h29.73v2.92v3.96v2.92v3.96v16.43c0,1.09,0.89,1.98,1.98,1.98
		s1.98-0.89,1.98-1.98v-12.28h2.92h3.96h2.92h3.96h11.13v2.92v3.96v2.92v3.96v1.56h-11.13h-3.96h-2.92h-3.96h-69.04
		c-1.09,0-1.98,0.89-1.98,1.98s0.89,1.98,1.98,1.98h69.05h3.93h2.93h3.96h11.13v2.92v3.96v2.92v1.27h-3.99
		c-1.09,0-1.98,0.89-1.98,1.98c0,0.25,0.05,0.48,0.14,0.7c0.28,0.74,1,1.27,1.84,1.27h3.99v13.04v7.46h-3.83h-2.92v-13.68
		c0-1.09-0.89-1.98-1.98-1.98s-1.98,0.89-1.98,1.98v13.68H406.9c-1.09,0-1.98,0.89-1.98,1.98s0.89,1.98,1.98,1.98h13.68v2.92v3.96
		v2.93v3.94v9.49h-47.67h-3.96h-2.92v-7.04v-3.34c0-0.22-0.04-0.42-0.11-0.61c-0.26-0.79-0.99-1.36-1.87-1.36s-1.61,0.57-1.87,1.36
		c-0.06,0.19-0.11,0.4-0.11,0.61v3.34v7.04h-41.69c-1.09,0-1.98,0.89-1.98,1.98s0.89,1.98,1.98,1.98h41.69v2.92v3.96v2.92v3.96v4.54
		h-22.05h-1.89h-3.95h-3.96h-2.92v-11.41v-0.62c0-1.07-0.85-1.94-1.92-1.97c-0.02,0-0.04-0.01-0.06-0.01
		c-1.09,0-1.98,0.89-1.98,1.98v12.03h-12.03c-1.09,0-1.98,0.89-1.98,1.98s0.89,1.98,1.98,1.98h12.03v2.92v3.96v3.95v1.89v8.86
		h-77.87h-3.96h-2.92h-3.96h-2.92v-7.14v-1.26v-16c0-1.09-0.89-1.98-1.98-1.98s-1.98,0.89-1.98,1.98v14.65v3.96v5.79h-46.64
		c-1.09,0-1.98,0.89-1.98,1.98s0.89,1.98,1.98,1.98h46.64v2.92v3.96v2.92v3.96v5.46h-10.09c-1.09,0-1.98,0.89-1.98,1.98
		s0.89,1.98,1.98,1.98h10.09v2.92v3.96v8.84h-48.49h-3.96h-2.92v-7.91c0-1.09-0.89-1.98-1.98-1.98s-1.98,0.89-1.98,1.98v7.91h-18.62
		c-1.09,0-1.98,0.89-1.98,1.98s0.89,1.98,1.98,1.98h18.62v2.92v3.96v2.92v3.96v43.12c0,1.09,0.89,1.98,1.98,1.98
		s1.98-0.89,1.98-1.98v-43.12v-3.96v-2.92v-3.96v-2.92h2.92h3.96h4.35h1.1h43.04v2.92v3.96v2.92v3.96v6.91h-40.14
		c-0.59,0-1.11,0.26-1.47,0.67c-0.31,0.35-0.51,0.81-0.51,1.31s0.2,0.96,0.51,1.31c0.36,0.41,0.88,0.67,1.47,0.67h40.14v2.92v3.96
		v2.92v3.96v1.67c0,1.09,0.89,1.98,1.98,1.98s1.98-0.89,1.98-1.98v-1.67v-3.96v-2.92v-3.96v-2.92h2.92h3.96h2.92h3.96h2.26
		c1.09,0,1.98-0.89,1.98-1.98s-0.89-1.98-1.98-1.98h-2.26h-3.96h-2.92h-3.96h-2.92v-6.91v-3.96v-2.92v-3.96v-2.92h2.92h3.96h2.92
		h3.96h2.39c1.09,0,1.98-0.89,1.98-1.98s-0.89-1.98-1.98-1.98h-2.39h-3.96h-2.92h-3.96h-2.92v-1.97v-3.96v-2.92v-3.96v-2.92h2.92
		h3.96h2.92h3.96h16.5c1.09,0,1.98-0.89,1.98-1.98s-0.89-1.98-1.98-1.98h-16.5h-3.96h-2.92h-3.96h-2.92v-5.46v-3.96v-2.92v-3.96
		v-2.92h2.92h3.96h2.92h3.96h77.87v2.92v3.96v2.92v3.96v3.22c0,1.09,0.89,1.98,1.98,1.98s1.98-0.89,1.98-1.98v-3.22v-3.96v-2.92
		v-3.96v-2.92h2.92h3.96h1.03c0.9,0,1.65-0.61,1.89-1.43c0.05-0.17,0.09-0.36,0.09-0.55s-0.04-0.37-0.09-0.55
		c-0.24-0.82-0.99-1.43-1.89-1.43h-1.03h-3.96h-2.92v-7.83v-3.96v-2.92v-3.96v-2.92h2.92h3.96h2.92h3.96h21.01v2.92v3.96v2.92v3.96
		v3.32h-9.13c-1.09,0-1.98,0.89-1.98,1.98s0.89,1.98,1.98,1.98h9.13v2.92v3.96v10.49c0,1.09,0.89,1.98,1.98,1.98
		s1.98-0.89,1.98-1.98v-3.74v-3.7v-3.05v-3.96v-2.92h2.92h3.96h2.92h3.96h28.53c1.09,0,1.98-0.89,1.98-1.98s-0.89-1.98-1.98-1.98
		h-28.53h-3.96h-2.92h-3.96h-2.92v-3.32v-3.96v-2.92v-3.96v-2.92h2.92h3.96h2.92h1.4c1.09,0,1.98-0.89,1.98-1.98
		s-0.89-1.98-1.98-1.98h-1.4h-2.92h-3.96h-2.92v-4.54v-3.96v-2.92v-3.96v-2.92h2.92h3.96h2.92h3.96h40.79v2.92v3.96v2.92v3.96v17.22
		c0,1.09,0.89,1.98,1.98,1.98s1.98-0.89,1.98-1.98v-17.22v-3.96v-2.92v-3.96v-2.92h2.92h1.69c1.09,0,1.98-0.89,1.98-1.98
		s-0.89-1.98-1.98-1.98h-1.69h-2.92v-9.48v-3.96v-2.92v-3.96v-2.92h2.92h3.83v50.76c0,0.23,0.05,0.45,0.12,0.66
		c0.27,0.77,1,1.32,1.86,1.32c0.39,0,0.76-0.12,1.07-0.32c0.55-0.35,0.91-0.96,0.91-1.66v-16.69v-3.96v-23.24v-3.96v-2.92h2.92h3.96
		h1.03c0.9,0,1.65-0.61,1.89-1.43c0.05-0.18,0.09-0.36,0.09-0.55s-0.04-0.37-0.09-0.55c-0.24-0.82-0.99-1.43-1.89-1.43h-1.03h-3.96
		h-2.92v-1.58v-12.04v-3.96v-2.92h2.92h3.96h2.92H449h13.9c1.09,0,1.98-0.89,1.98-1.98s-0.89-1.98-1.98-1.98h-1.8h-18.97h-3.96
		h-2.92v-1.27v-2.92v-3.96v-2.92h2.92h3.96h2.92h0.45c1.09,0,1.98-0.89,1.98-1.98s-0.89-1.98-1.98-1.98h-0.45h-2.92h-3.96h-2.92
		v-1.56v-3.96v-2.92v-3.96v-2.92h2.92h3.96h3.5c1.09,0,1.98-0.89,1.98-1.98s-0.89-1.98-1.98-1.98h-10.38v-0.2v-3.34
		c0-0.22-0.04-0.42-0.11-0.61c-0.26-0.79-0.99-1.36-1.87-1.36s-1.61,0.57-1.87,1.36c-0.06,0.19-0.11,0.4-0.11,0.61v3.34v0.2h-11.13
		h-3.96h-2.92h-3.96h-2.92v-0.2v-3.96v-2.92v-3.96v-2.92h2.92h3.96h2.92h3.96h59.01c1.09,0,1.98-0.89,1.98-1.98
		s-0.89-1.98-1.98-1.98h-59.01h-3.96h-2.92h-3.96h-2.92v-4.5v-3.96v-2.92v-3.96v-2.92h2.92h3.96h2.92h3.96h11.46
		c1.09,0,1.98-0.89,1.98-1.98s-0.89-1.98-1.98-1.98h-11.46h-3.96h-2.92h-3.96h-2.92v-16.15c0-1.09-0.89-1.98-1.98-1.98
		s-1.98,0.89-1.98,1.98v16.15h-24.06h-48.61v-1.76v-2.92h2.92h3.96h2.92h3.96h26.02c1.09,0,1.98-0.89,1.98-1.98
		s-0.89-1.98-1.98-1.98h-26.02h-3.96h-2.92h-3.96h-2.92v-3.32v-3.96v-2.92v-3.96v-2.92h2.92h3.96h1.86c1.09,0,1.98-0.89,1.98-1.98
		s-0.89-1.98-1.98-1.98h-1.86h-3.96h-2.92v-8.73c0-1.09-0.89-1.98-1.98-1.98s-1.98,0.89-1.98,1.98v8.73h-32.51h-17.63h-3.96h-2.92
		v-3.55v-2.92v-3.96v-2.92h2.92h3.96h2.68c0.08,0,0.16-0.01,0.24-0.02c0.98-0.12,1.73-0.94,1.73-1.95s-0.76-1.83-1.73-1.95
		c-0.08-0.01-0.16-0.02-0.24-0.02h-2.68h-3.96h-2.92V131.7c0-1.09-0.89-1.98-1.98-1.98s-1.98,0.89-1.98,1.98v21.09h-18.54h-3.96
		h-2.92h-3.96h-2.92v-4.87v-3.96v-2.92v-3.96v-35.9v-3.83v-2.99v-3.96v-2.92h2.92h3.96h2.92h3.96h119.3c1.09,0,1.98-0.89,1.98-1.98
		s-0.89-1.98-1.98-1.98h-119.3h-3.96h-2.92h-3.96h-2.92v-6.97v-3.96V69.7v-3.96v-2.92h2.92h3.96h2.92h1.39
		c1.09,0,1.98-0.89,1.98-1.98s-0.89-1.98-1.98-1.98h-1.39h-2.92h-3.96h-2.92V34.48c0-1.09-0.89-1.98-1.98-1.98s-1.98,0.89-1.98,1.98
		v24.39h-59.2h-3.96h-2.92v-7.09c0-1.09-0.89-1.98-1.98-1.98s-1.98,0.89-1.98,1.98v7.09h-14.5c-1.09,0-1.98,0.89-1.98,1.98
		s0.89,1.98,1.98,1.98h14.5v2.92v3.96v2.92v3.96v5.36h-68.8H85.8h-2.92h-3.96H76V64.22v-3.96v-2.92v-3.96v-2.92h2.92h3.96h2.92h3.96
		h0.75c1.09,0,1.98-0.89,1.98-1.98s-0.89-1.98-1.98-1.98h-0.75H85.8h-2.92h-3.96H76V6.43c0-1.09-0.89-1.98-1.98-1.98
		s-1.98,0.89-1.98,1.98v40.08H48.48c-1.09,0-1.98,0.89-1.98,1.98s0.89,1.98,1.98,1.98h23.57v2.92v3.96v2.92v3.96v17.72H58.37
		c-1.09,0-1.98,0.89-1.98,1.98s0.89,1.98,1.98,1.98h13.68v2.92v3.96v2.93v3.94v11.6h-26c-1.09,0-1.98,0.89-1.98,1.98
		s0.89,1.98,1.98,1.98h26v2.92v0.41C72.04,119.61,72.93,120.5,74.02,120.5z M162.51,76.58v-3.96V69.7v-3.96v-2.92h2.92h3.96h59.2
		v2.92v3.96v2.92v3.96v6.97h-9.33c-1.09,0-1.98,0.89-1.98,1.98s0.89,1.98,1.98,1.98h9.33v2.92v3.96v35.84h-52.33h-3.96h-2.92h-3.96
		h-2.92V99.65v-3.96v-2.92v-3.96v-2.92h2.92h3.96h2.92h3.96h13.1c1.09,0,1.98-0.89,1.98-1.98s-0.89-1.98-1.98-1.98h-13.1h-3.96
		h-2.92h-3.96h-2.92V76.58z"/>
	<path fill="#EA6000" d="M8.31,131.01c-1.09,0-1.98,0.89-1.98,1.98s0.89,1.98,1.98,1.98h93.1c1.09,0,1.98-0.89,1.98-1.98
		s-0.89-1.98-1.98-1.98H89.75H85.8H8.31z"/>
	<path fill="#EA6000" d="M427.3,28.97H272.27c-1.09,0-1.98,0.89-1.98,1.98s0.89,1.98,1.98,1.98H427.3c1.09,0,1.98-0.89,1.98-1.98
		S428.39,28.97,427.3,28.97z"/>
	<path fill="#EA6000" d="M429.28,113.21c0-1.09-0.89-1.98-1.98-1.98H319.73c-1.09,0-1.98,0.89-1.98,1.98s0.89,1.98,1.98,1.98H427.3
		C428.39,115.19,429.28,114.31,429.28,113.21z"/>
	<path fill="#EA6000" d="M374.3,134.18h56.95c1.09,0,1.98-0.89,1.98-1.98s-0.89-1.98-1.98-1.98H374.3c-1.09,0-1.98,0.89-1.98,1.98
		S373.21,134.18,374.3,134.18z"/>
	<path fill="#EA6000" d="M431.65,56.26c0-1.09-0.89-1.98-1.98-1.98h-97.29c-1.09,0-1.98,0.89-1.98,1.98s0.89,1.98,1.98,1.98h97.29
		C430.77,58.24,431.65,57.36,431.65,56.26z"/>
	<path fill="#EA6000" d="M479.18,83.55h-32.89c-1.09,0-1.98,0.89-1.98,1.98s0.89,1.98,1.98,1.98h32.89c1.09,0,1.98-0.89,1.98-1.98
		S480.27,83.55,479.18,83.55z"/>
	<path fill="#EA6000" d="M479.18,176.1h-39.22c-1.09,0-1.98,0.89-1.98,1.98c0,0.25,0.05,0.48,0.14,0.7c0.28,0.74,1,1.27,1.84,1.27
		h39.22c0.84,0,1.56-0.53,1.84-1.27c0.08-0.22,0.14-0.46,0.14-0.7C481.15,176.98,480.27,176.1,479.18,176.1z"/>
	<path fill="#EA6000" d="M479.18,161.07h-83.51c-1.09,0-1.98,0.89-1.98,1.98s0.89,1.98,1.98,1.98h83.51c1.09,0,1.98-0.89,1.98-1.98
		S480.27,161.07,479.18,161.07z"/>
	<path fill="#EA6000" d="M245.72,231.07c0-1.09-0.89-1.98-1.98-1.98h-1.39h-2.92h-3.96H128.3c-1.09,0-1.98,0.89-1.98,1.98
		s0.89,1.98,1.98,1.98h107.17h3.96h2.92h1.39C244.84,233.05,245.72,232.17,245.72,231.07z"/>
	<path fill="#EA6000" d="M135.82,209.72c0,0.34,0.1,0.66,0.25,0.95c0.34,0.61,0.98,1.03,1.73,1.03h80.68c1.09,0,1.98-0.89,1.98-1.98
		s-0.89-1.98-1.98-1.98h-34.11H137.8C136.7,207.74,135.82,208.62,135.82,209.72z"/>
	<path fill="#EA6000" d="M47.23,201.81c0,1.09,0.89,1.98,1.98,1.98h126.56c1.09,0,1.98-0.89,1.98-1.98s-0.89-1.98-1.98-1.98H49.2
		C48.11,199.83,47.23,200.71,47.23,201.81z"/>
	<path fill="#EA6000" d="M8.31,182.43h25.07c1.09,0,1.98-0.89,1.98-1.98s-0.89-1.98-1.98-1.98H8.31c-1.09,0-1.98,0.89-1.98,1.98
		S7.22,182.43,8.31,182.43z"/>
	<path fill="#EA6000" d="M8.31,258.36h91.51c1.09,0,1.98-0.89,1.98-1.98s-0.89-1.98-1.98-1.98H8.31c-1.09,0-1.98,0.89-1.98,1.98
		S7.22,258.36,8.31,258.36z"/>
	<path fill="#EA6000" d="M15.19,228.31h24.52c1.09,0,1.98-0.89,1.98-1.98s-0.89-1.98-1.98-1.98H15.19c-1.09,0-1.98,0.89-1.98,1.98
		S14.1,228.31,15.19,228.31z"/>
	<path fill="#EA6000" d="M224.85,276.56h-81.52c-1.09,0-1.98,0.89-1.98,1.98s0.89,1.98,1.98,1.98H286.5c1.09,0,1.98-0.89,1.98-1.98
		c0-0.7-0.37-1.32-0.93-1.67c-0.31-0.19-0.66-0.31-1.05-0.31H224.85z"/>
	<path fill="#EA6000" d="M210.17,261.13c0,1.09,0.89,1.98,1.98,1.98h91.76c1.09,0,1.98-0.89,1.98-1.98s-0.89-1.98-1.98-1.98h-91.76
		C211.06,259.15,210.17,260.04,210.17,261.13z"/>
	<path fill="#EA6000" d="M324.47,231.86h-47.86c-1.09,0-1.98,0.89-1.98,1.98s0.89,1.98,1.98,1.98h47.86c1.09,0,1.98-0.89,1.98-1.98
		S325.56,231.86,324.47,231.86z"/>
	<path fill="#EA6000" d="M369.56,301.08H259.61c-1.09,0-1.98,0.89-1.98,1.98s0.89,1.98,1.98,1.98h109.95c1.09,0,1.98-0.89,1.98-1.98
		S370.65,301.08,369.56,301.08z"/>
	<path fill="#EA6000" d="M57.51,295.14c0,1.09,0.89,1.98,1.98,1.98h97.29c1.09,0,1.98-0.89,1.98-1.98c0-0.32-0.08-0.61-0.21-0.88
		c-0.32-0.65-0.99-1.1-1.76-1.1h-1.45H59.49C58.39,293.17,57.51,294.05,57.51,295.14z"/>
	<path fill="#EA6000" d="M70.96,352.1c0,1.09,0.89,1.98,1.98,1.98H216.1c1.09,0,1.98-0.89,1.98-1.98s-0.89-1.98-1.98-1.98H72.93
		C71.84,350.12,70.96,351,70.96,352.1z"/>
	<path fill="#EA6000" d="M257.24,308.2h-72.77c-1.09,0-1.98,0.89-1.98,1.98s0.89,1.98,1.98,1.98h72.77c1.09,0,1.98-0.89,1.98-1.98
		S258.33,308.2,257.24,308.2z"/>
	<path fill="#EA6000" d="M148.87,389.67H42.08c-1.09,0-1.98,0.89-1.98,1.98s0.89,1.98,1.98,1.98h106.78c1.09,0,1.98-0.89,1.98-1.98
		S149.96,389.67,148.87,389.67z"/>
	<path fill="#EA6000" d="M131.47,322.43H76.1c-1.09,0-1.98,0.89-1.98,1.98s0.89,1.98,1.98,1.98h55.37c1.09,0,1.98-0.89,1.98-1.98
		S132.56,322.43,131.47,322.43z"/>
	<path fill="#EA6000" d="M375.83,400.74h1.64c1.09,0,1.98-0.89,1.98-1.98s-0.89-1.98-1.98-1.98h-1.64h-2.92h-3.96h-27.89h-3.96
		h-2.92h-3.96h-53.22c-1.09,0-1.98,0.89-1.98,1.98s0.89,1.98,1.98,1.98h53.22h3.96h2.92h3.96H375.83z"/>
	<path fill="#EA6000" d="M479.18,392.04h-47.92c-1.09,0-1.98,0.89-1.98,1.98s0.89,1.98,1.98,1.98h47.92c1.09,0,1.98-0.89,1.98-1.98
		S480.27,392.04,479.18,392.04z"/>
	<path fill="#EA6000" d="M434.42,432.38h-38.76c-1.09,0-1.98,0.89-1.98,1.98s0.89,1.98,1.98,1.98h38.76c1.09,0,1.98-0.89,1.98-1.98
		S435.51,432.38,434.42,432.38z"/>
	<path fill="#EA6000" d="M293.62,462.44H419c1.09,0,1.98-0.89,1.98-1.98s-0.89-1.98-1.98-1.98H293.62c-1.09,0-1.98,0.89-1.98,1.98
		S292.53,462.44,293.62,462.44z"/>
	<path fill="#EA6000" d="M385.12,410.54c-0.55,0.35-0.93,0.96-0.93,1.67c0,1.09,0.89,1.98,1.98,1.98h6.11h66.67
		c1.09,0,1.98-0.89,1.98-1.98s-0.89-1.98-1.98-1.98h-72.77C385.78,410.24,385.42,410.35,385.12,410.54z"/>
	<path fill="#EA6000" d="M33.38,439.5h76.73c1.09,0,1.98-0.89,1.98-1.98s-0.89-1.98-1.98-1.98H33.38c-1.09,0-1.98,0.89-1.98,1.98
		S32.29,439.5,33.38,439.5z"/>
	<path fill="#EA6000" d="M8.31,350.91h33.77c1.09,0,1.98-0.89,1.98-1.98s-0.89-1.98-1.98-1.98H8.31c-1.09,0-1.98,0.89-1.98,1.98
		S7.22,350.91,8.31,350.91z"/>
</g>
</svg>
