<?xml version="1.0" encoding="utf-8"?>
<!-- Generator: Adobe Illustrator 21.1.0, SVG Export Plug-In . SVG Version: 6.00 Build 0)  -->
<svg version="1.1" id="レイヤー_1" xmlns="http://www.w3.org/2000/svg" xmlns:xlink="http://www.w3.org/1999/xlink" x="0px"
	 y="0px" viewBox="0 0 500 500" enable-background="new 0 0 500 500" xml:space="preserve">
<g>
	<path fill="#ECE8A0" d="M481.08,201.01c-7.09,5.91-5.35,13.57-3.4,16.35c0.78,1.12,2.02,1.95,3.21,2.75
		c2.23,1.5,3.57,2.54,3.32,4.42c-0.05,0.41,0.17,0.8,0.54,0.96c0.37,0.16,0.81,0.06,1.08-0.25c0.2-0.24,1.9-2.28,2.46-3.81
		c0.32-0.11,1.05-0.21,1.66-0.3c3.22-0.46,9.17-1.3,9.7-7.85c0.16,0.5,0.28,1.66,0.36,3.26v-5.54c-0.23-0.1-0.49-0.15-0.78-0.1
		c-0.76,0.14-1.12,0.89-1.28,1.41c-0.05,0.17-0.08,0.32-0.1,0.42c-0.01,0.04-0.01,0.07-0.01,0.11c-0.27,5.35-5.01,6.02-8.14,6.46
		c-1.68,0.24-2.79,0.4-3.08,1.36c-0.13,0.45-0.49,1.05-0.88,1.64c-0.7-1.64-2.32-2.73-3.81-3.73c-1.1-0.74-2.14-1.44-2.73-2.28
		c-1.63-2.33-3.03-8.8,3.07-13.88c6.54-5.45,9.63-11.04,9.76-11.29c0.07-0.13,1.62-3.18,0.16-6.49c-1.09-2.49-2.46-5.84-3-7.15
		c-0.03-0.06-0.04-0.12-0.05-0.19l-0.02-0.12c-0.24-1.27-0.3-2.01-0.3-2.44c0.25,0.23,0.61,0.61,1.12,1.26
		c3.45,4.42,6.67,5.83,10.07,6.48v-1.88c-2.95-0.63-5.65-1.93-8.62-5.73c-1.12-1.43-2.32-2.68-3.47-2.17
		c-1.16,0.52-1.09,2.23-0.61,4.81l0.02,0.12c0.03,0.19,0.09,0.37,0.16,0.55c0.54,1.33,1.91,4.69,3.02,7.2
		c1.09,2.49-0.1,4.89-0.1,4.89C490.37,190.32,487.35,195.78,481.08,201.01z"/>
	<path fill="#ECE8A0" d="M490.9,155.26c-0.56,1.61-1.02,1.72-1.03,1.72c-0.07,0.01-0.18-0.07-0.29-0.17
		c-0.19-3.09-0.08-5.83,0.25-8.3c0.71-5.44,2.41-9.59,3.97-13.39c1.63-3.97,3.03-7.4,2.77-11.25c-0.33-4.78-3.07-9.38-5.72-13.83
		c-2.32-3.89-4.5-7.56-4.61-10.7c-0.13-3.78,0.94-7.25,1.85-9.49c0.4-0.97,0.96-1.88,1.66-2.69c0.9-1.04,1.96-2.68,1.88-4.61
		c0-0.06-0.03-0.11-0.04-0.16c0.06-0.07,0.12-0.15,0.16-0.25l8.03-17.15c0.02-0.03,0.02-0.07,0.02-0.11V5.62
		c0-0.14-0.12-0.26-0.26-0.26l-17.7,0c-0.14,0-0.26,0.12-0.26,0.26v59.26c0,0.04,0.01,0.08,0.02,0.11l8.07,17.15
		c0.04,0.09,0.1,0.17,0.16,0.24c-0.02,0.08-0.04,0.16-0.04,0.25c0.05,1.32-0.75,2.54-1.43,3.33c-0.84,0.97-1.5,2.04-1.97,3.2
		c-0.98,2.41-2.13,6.14-1.99,10.25c0.12,3.62,2.43,7.49,4.87,11.58c2.54,4.26,5.17,8.67,5.46,13.01c0.24,3.42-1.09,6.67-2.63,10.42
		c-2.25,5.49-5.05,12.32-4.33,22.82c0.01,0.17,0.07,0.32,0.16,0.46c0.09,0.13,0.92,1.27,2.19,1.1c1.06-0.15,1.88-1.11,2.52-2.94
		c1-2.88,4.47-5.4,7.36-5.72v-1.84C496.34,148.61,492.16,151.61,490.9,155.26z"/>
	<path fill="#A5D2A1" d="M402.24,245.78c2.95-8.66,3.65-30.68,2.1-33.23c-0.22-0.36-0.89-1.45-1.93-1.25
		c-1.02,0.19-1.31,1.45-1.38,1.83l-0.01,0.11c-0.27,5.35-5.01,6.02-8.14,6.46c-1.68,0.24-2.79,0.4-3.08,1.36
		c-0.13,0.45-0.49,1.05-0.88,1.64c-0.7-1.64-2.32-2.73-3.81-3.73c-1.1-0.74-2.14-1.44-2.73-2.28c-0.41-0.58-0.8-1.42-1.07-2.44
		c-0.8-3.04-0.44-7.63,4.14-11.45c6.54-5.45,9.63-11.04,9.76-11.29c0.02-0.04,0.19-0.37,0.36-0.9c0.31-0.95,0.65-2.57,0.22-4.37
		c-0.1-0.4-0.23-0.81-0.41-1.23c-1.14-2.59-2.58-6.13-3-7.15c-0.02-0.06-0.04-0.12-0.05-0.19l-0.02-0.12
		c-0.24-1.27-0.3-2.01-0.3-2.44c0.25,0.23,0.61,0.61,1.12,1.26c4.23,5.42,8.12,6.31,12.41,6.84c3.41,0.42,6.29-2.03,7.71-3.53
		c0.38-0.4,0.81-0.72,1.28-0.95l2.84-1.37c0.54-0.26,0.92-0.74,1.06-1.33c0.13-0.58-0.01-1.19-0.38-1.65
		c-0.39-0.48-0.73-1-1.02-1.53c-0.15-0.27-0.28-0.54-0.4-0.82c-0.6-1.4-0.89-2.92-0.84-4.47l0.11-3c0.04-1.11,0.48-2.17,1.24-2.98
		l2.41-2.59c0.35-0.38,0.49-0.9,0.37-1.4s-0.47-0.91-0.95-1.1l-3.78-1.45c-0.19-0.07-0.35-0.21-0.43-0.37
		c-2.57-4.91-8.54-5.75-9.37-5.84c-3.98-1.07-9.75,2.4-11.28,6.8c-0.07,0.2-0.14,0.38-0.2,0.54c-0.46,1.1-0.82,1.19-0.82,1.19
		c-0.05,0.01-0.18-0.07-0.29-0.17c-0.62-9.9,1.95-16.16,4.22-21.69c1.63-3.97,3.03-7.4,2.77-11.25c-0.33-4.78-3.07-9.38-5.72-13.83
		c-2.32-3.89-4.5-7.56-4.61-10.7c-0.13-3.79,0.94-7.25,1.85-9.49c0.4-0.97,0.96-1.88,1.66-2.69c0.9-1.04,1.96-2.69,1.88-4.61
		l-0.22,0.01c0.14-0.11,0.27-0.24,0.35-0.42l6.42-13.72v0l1.61-3.43C403,65.34,403,65.3,403,65.27V6.01c0-0.07-0.03-0.14-0.08-0.19
		s-0.11-0.08-0.19-0.08l-1.37,0l0,0l-16.33,0c-0.07,0-0.14,0.03-0.19,0.08s-0.08,0.11-0.08,0.19v0v59.26c0,0.04,0.01,0.08,0.02,0.11
		l8.07,17.15c0.05,0.11,0.12,0.21,0.19,0.29c0.07,0.07,0.14,0.13,0.22,0.18l-0.3,0.01c0.05,1.32-0.75,2.54-1.43,3.33
		c-0.84,0.97-1.5,2.04-1.97,3.2c-0.98,2.41-2.13,6.14-1.99,10.25c0.12,3.62,2.43,7.49,4.87,11.58c2.54,4.26,5.17,8.67,5.47,13.01
		c0.24,3.42-1.09,6.67-2.63,10.42c-2.25,5.49-5.05,12.32-4.33,22.82l0.02,0.25l0.14,0.21c0.09,0.13,0.92,1.27,2.19,1.1
		c1.06-0.15,1.88-1.11,2.52-2.94c1.21-3.49,6.07-6.48,9.12-5.61l0.17,0.03c0.06,0.01,5.77,0.6,8,4.87c0.29,0.56,0.79,1,1.4,1.24
		l3.38,1.3l-2.11,2.28c-1.06,1.14-1.67,2.62-1.73,4.17l-0.11,3c-0.08,2.18,0.43,4.34,1.46,6.23c0.34,0.63,0.74,1.24,1.2,1.81
		l0.72-0.57l-0.76,0.75l-2.84,1.37c-0.67,0.32-1.28,0.78-1.82,1.34c-0.94,1-3.45,3.3-6.14,2.96c-4.01-0.5-7.38-1.27-11.18-6.15
		c-1.12-1.43-2.32-2.69-3.47-2.17c-1.16,0.52-1.09,2.23-0.61,4.81l0.02,0.11c0.04,0.19,0.09,0.37,0.16,0.55
		c0.42,1.03,1.87,4.59,3.02,7.2c1.09,2.49-0.1,4.89-0.1,4.89c-0.03,0.05-3.05,5.52-9.32,10.74c-7.09,5.91-5.35,13.57-3.4,16.35
		c0.78,1.12,2.02,1.95,3.21,2.75c2.23,1.5,3.57,2.54,3.32,4.42l-0.42,3.13l2.03-2.42c0.2-0.24,1.9-2.28,2.46-3.81
		c0.32-0.11,1.05-0.21,1.65-0.3c3.22-0.46,9.17-1.3,9.7-7.85c0.82,2.57,0.75,22.47-2.33,31.52L402.24,245.78z"/>
	<path fill="#F09BA5" d="M449.25,245.97c0.1,0.03,0.2,0.05,0.3,0.05c0.38,0,0.74-0.24,0.87-0.62c2.95-8.66,3.65-30.68,2.1-33.23
		c-0.22-0.36-0.88-1.45-1.93-1.25c-0.89,0.17-1.23,1.15-1.34,1.65c-0.02,0.07-0.03,0.13-0.04,0.18c-0.01,0.04-0.01,0.07-0.01,0.11
		c-0.27,5.35-5.01,6.02-8.14,6.46c-1.68,0.24-2.79,0.4-3.08,1.36c-0.13,0.45-0.48,1.05-0.88,1.64c-0.7-1.64-2.32-2.73-3.81-3.73
		c-1.1-0.74-2.14-1.44-2.73-2.28c-1.63-2.33-3.03-8.8,3.07-13.88c6.54-5.45,9.63-11.04,9.76-11.29c0.07-0.13,1.62-3.18,0.16-6.49
		c-1.14-2.59-2.58-6.13-3-7.15c-0.03-0.06-0.04-0.12-0.05-0.19l-0.02-0.12c-0.24-1.27-0.3-2.01-0.3-2.44
		c0.25,0.23,0.61,0.61,1.12,1.26c4.23,5.42,8.12,6.31,12.41,6.84c3.42,0.42,6.29-2.03,7.71-3.53c0.38-0.4,0.81-0.72,1.28-0.95
		l2.84-1.37c0.54-0.26,0.92-0.74,1.06-1.33c0.13-0.58-0.01-1.19-0.38-1.65c-1.54-1.93-2.34-4.35-2.25-6.82l0.11-2.99
		c0.04-1.11,0.48-2.17,1.24-2.99l2.41-2.59c0.35-0.38,0.49-0.9,0.37-1.4c-0.12-0.5-0.47-0.91-0.95-1.09l-3.78-1.45
		c-0.19-0.07-0.35-0.21-0.43-0.37c-2.57-4.91-8.54-5.75-9.37-5.84c-3.98-1.07-9.75,2.4-11.28,6.8c-0.56,1.61-1.02,1.72-1.03,1.72
		c-0.05,0.01-0.18-0.07-0.29-0.17c-0.04-0.62-0.07-1.22-0.08-1.81c-0.22-8.86,2.17-14.69,4.3-19.88c1.02-2.48,1.95-4.75,2.44-7.04
		c0.29-1.38,0.43-2.76,0.33-4.21c-0.33-4.78-3.07-9.38-5.72-13.83c-2.32-3.89-4.5-7.56-4.61-10.7c-0.13-3.79,0.94-7.25,1.85-9.49
		c0.4-0.97,0.96-1.88,1.66-2.69c0.9-1.04,1.96-2.69,1.88-4.61c0-0.06-0.03-0.11-0.04-0.16c0.06-0.07,0.12-0.15,0.17-0.25l8.03-17.15
		c0.02-0.03,0.02-0.07,0.02-0.11V5.62c0-0.14-0.12-0.26-0.26-0.26l-17.7,0c-0.14,0-0.26,0.12-0.26,0.26v59.26
		c0,0.04,0.01,0.08,0.02,0.11l8.07,17.15c0.04,0.09,0.1,0.17,0.16,0.24c-0.02,0.08-0.04,0.16-0.04,0.25
		c0.05,1.32-0.75,2.54-1.43,3.33c-0.84,0.97-1.5,2.04-1.97,3.2c-0.98,2.41-2.13,6.14-1.99,10.25c0.12,3.62,2.43,7.49,4.87,11.58
		c2.54,4.26,5.17,8.67,5.46,13.01c0.24,3.42-1.09,6.67-2.63,10.42c-2.25,5.49-5.05,12.32-4.33,22.82c0.01,0.17,0.07,0.32,0.16,0.46
		c0.09,0.13,0.92,1.27,2.19,1.1c1.06-0.15,1.88-1.11,2.52-2.94c1.21-3.49,6.07-6.48,9.12-5.61c0.05,0.02,0.11,0.03,0.17,0.03
		s5.77,0.6,8,4.87c0.29,0.56,0.79,1,1.4,1.24l3.38,1.3l-2.11,2.28c-1.06,1.14-1.67,2.62-1.73,4.17l-0.11,2.99
		c-0.11,2.91,0.83,5.77,2.65,8.04l0.72-0.57l-0.76,0.75l-2.84,1.37c-0.67,0.33-1.28,0.78-1.82,1.34c-0.94,1-3.42,3.3-6.14,2.96
		c-4.01-0.5-7.38-1.27-11.18-6.15c-1.12-1.43-2.32-2.68-3.47-2.17c-1.16,0.52-1.09,2.23-0.61,4.81l0.02,0.12
		c0.03,0.19,0.09,0.37,0.16,0.55c0.42,1.03,1.87,4.59,3.02,7.2c1.09,2.49-0.1,4.89-0.1,4.89c-0.03,0.05-3.05,5.52-9.32,10.74
		c-7.09,5.91-5.35,13.57-3.4,16.35c0.78,1.12,2.02,1.95,3.21,2.75c2.23,1.5,3.57,2.54,3.32,4.42c-0.05,0.41,0.17,0.8,0.54,0.96
		c0.37,0.16,0.81,0.06,1.08-0.25c0.2-0.24,1.9-2.28,2.46-3.81c0.32-0.11,1.05-0.21,1.66-0.3c3.22-0.46,9.17-1.3,9.7-7.85
		c0.82,2.57,0.75,22.47-2.33,31.52C448.51,245.28,448.77,245.8,449.25,245.97z"/>
	<path fill="#ECE8A0" d="M497.88,245.97c0.1,0.03,0.2,0.05,0.3,0.05c0.38,0,0.74-0.24,0.87-0.62c0.35-1.02,0.67-2.24,0.95-3.59
		v-16.79c-0.24,6.79-1.02,14.88-2.69,19.78C497.14,245.28,497.4,245.8,497.88,245.97z"/>
	<path fill="#ECE8A0" d="M499.81,254.1c0-0.14-0.12-0.26-0.26-0.26l-17.7,0c-0.14,0-0.26,0.12-0.26,0.26v59.26
		c0,0.04,0.01,0.08,0.02,0.11l8.07,17.15c0.04,0.09,0.1,0.17,0.16,0.24c-0.02,0.08-0.04,0.16-0.04,0.24
		c0.05,1.32-0.75,2.54-1.43,3.33c-0.84,0.97-1.5,2.04-1.97,3.2c-0.98,2.41-2.13,6.14-1.99,10.25c0.12,3.62,2.43,7.49,4.87,11.58
		c2.54,4.26,5.17,8.67,5.46,13.01c0.24,3.42-1.09,6.67-2.63,10.42c-2.25,5.49-5.05,12.32-4.33,22.82c0.01,0.17,0.07,0.32,0.16,0.46
		c0.09,0.13,0.92,1.28,2.19,1.1c1.06-0.14,1.88-1.11,2.52-2.94c1-2.88,4.47-5.4,7.36-5.72v-1.84c-3.66,0.32-7.84,3.31-9.1,6.96
		c-0.56,1.61-1.02,1.72-1.03,1.72c-0.07,0.02-0.18-0.07-0.29-0.17c-0.62-9.9,1.95-16.16,4.22-21.69c1.63-3.97,3.03-7.4,2.77-11.25
		c-0.33-4.78-3.07-9.38-5.72-13.83c-2.32-3.89-4.5-7.56-4.61-10.7c-0.13-3.78,0.94-7.25,1.85-9.49c0.1-0.24,0.21-0.48,0.33-0.71
		c0.36-0.7,0.8-1.37,1.33-1.98c0.9-1.04,1.96-2.68,1.88-4.61c0-0.06-0.03-0.11-0.04-0.16c0.06-0.07,0.12-0.15,0.16-0.25l8.03-17.15
		c0.02-0.03,0.02-0.07,0.02-0.11V254.1z"/>
	<path fill="#ECE8A0" d="M500,473.5c-0.24,6.79-1.02,14.88-2.69,19.78c-0.16,0.48,0.09,1,0.57,1.17c0.1,0.03,0.2,0.05,0.3,0.05
		c0.38,0,0.74-0.24,0.87-0.62c0.35-1.03,0.67-2.24,0.95-3.59V473.5z"/>
	<path fill="#ECE8A0" d="M489.93,424.48c3.45,4.42,6.67,5.82,10.07,6.48v-1.88c-2.95-0.63-5.65-1.93-8.62-5.73
		c-1.12-1.43-2.32-2.68-3.47-2.17c-1.16,0.52-1.09,2.23-0.61,4.81l0.02,0.12c0.03,0.19,0.09,0.37,0.16,0.55
		c0.54,1.33,1.91,4.68,3.02,7.2c0.27,0.62,0.4,1.24,0.45,1.81c0.13,1.72-0.55,3.07-0.55,3.08c-0.03,0.06-3.07,5.53-9.32,10.74
		c-7.09,5.91-5.35,13.57-3.4,16.35c0.78,1.12,2.02,1.95,3.21,2.75c2.23,1.5,3.56,2.54,3.31,4.42c-0.05,0.41,0.17,0.8,0.54,0.96
		c0.38,0.16,0.81,0.06,1.08-0.25c0.2-0.24,1.9-2.28,2.46-3.81c0.32-0.11,1.05-0.21,1.66-0.3c3.22-0.46,9.17-1.3,9.7-7.85
		c0.16,0.5,0.28,1.66,0.36,3.26v-5.54c-0.23-0.1-0.49-0.15-0.78-0.09c-1.02,0.19-1.31,1.45-1.38,1.83
		c-0.01,0.04-0.01,0.07-0.01,0.11c-0.27,5.35-5.01,6.02-8.14,6.46c-1.68,0.24-2.79,0.39-3.08,1.36c-0.13,0.45-0.49,1.05-0.88,1.64
		c-0.7-1.64-2.32-2.73-3.81-3.73c-1.1-0.74-2.15-1.44-2.73-2.28c-1.63-2.33-3.03-8.79,3.07-13.88c6.13-5.11,9.23-10.34,9.7-11.18
		c0.03-0.06,0.05-0.09,0.06-0.11c0.07-0.13,1.62-3.18,0.16-6.5c-1.1-2.5-2.46-5.84-3-7.15c-0.03-0.07-0.04-0.13-0.06-0.19
		l-0.02-0.12c-0.24-1.27-0.3-2.01-0.3-2.44C489.06,423.45,489.43,423.83,489.93,424.48z"/>
	<path fill="#A5D2A1" d="M404.34,461.03c-0.22-0.36-0.87-1.45-1.93-1.25c-1.02,0.19-1.31,1.45-1.38,1.83l-0.01,0.11
		c-0.27,5.35-5.01,6.02-8.14,6.46c-1.68,0.24-2.79,0.39-3.08,1.36c-0.13,0.45-0.49,1.05-0.88,1.64c-0.7-1.64-2.32-2.73-3.81-3.73
		c-1.1-0.74-2.15-1.44-2.73-2.28c-1.63-2.33-3.03-8.79,3.07-13.88c6.54-5.45,9.63-11.04,9.76-11.29c0.06-0.11,1.25-2.46,0.58-5.27
		c-0.1-0.4-0.23-0.81-0.41-1.23c-1.14-2.6-2.58-6.13-3-7.15c-0.03-0.06-0.04-0.12-0.05-0.19l-0.02-0.12
		c-0.24-1.27-0.3-2.01-0.3-2.44c0.25,0.23,0.61,0.61,1.12,1.26c4.23,5.42,8.12,6.31,12.41,6.84c3.41,0.42,6.3-2.03,7.71-3.53
		c0.38-0.4,0.81-0.72,1.28-0.95l2.84-1.37c0.54-0.26,0.92-0.74,1.06-1.33c0.13-0.58-0.01-1.19-0.38-1.65
		c-1.54-1.93-2.34-4.35-2.25-6.82l0.11-3c0.04-1.11,0.48-2.17,1.24-2.99l2.41-2.59c0.35-0.38,0.49-0.9,0.37-1.4s-0.47-0.91-0.95-1.1
		l-3.78-1.45c-0.19-0.07-0.34-0.2-0.43-0.37c-2.57-4.91-8.54-5.75-9.37-5.84c-3.98-1.06-9.75,2.4-11.28,6.8
		c-0.56,1.61-1.02,1.72-1.03,1.72c-0.05,0.02-0.18-0.07-0.29-0.17c-0.62-9.9,1.95-16.16,4.22-21.69c1.63-3.97,3.03-7.4,2.77-11.25
		c-0.33-4.78-3.07-9.38-5.72-13.83c-2.32-3.89-4.5-7.56-4.61-10.7c-0.13-3.79,0.94-7.25,1.85-9.49c0.4-0.97,0.96-1.88,1.66-2.69
		c0.9-1.04,1.96-2.69,1.88-4.61l-0.22,0.01c0.05-0.04,0.11-0.08,0.16-0.13c0.07-0.08,0.14-0.18,0.19-0.29l6.42-13.72v0l1.61-3.43
		c0.02-0.03,0.02-0.07,0.02-0.11v-59.26c0-0.07-0.03-0.14-0.08-0.19s-0.11-0.08-0.19-0.08l-1.37,0l0,0l-16.33,0
		c-0.14,0-0.26,0.12-0.26,0.26v0v59.26c0,0.04,0.01,0.08,0.02,0.11l8.07,17.15c0.1,0.21,0.24,0.36,0.41,0.47l-0.29,0.01
		c0.05,1.32-0.75,2.54-1.43,3.33c-0.84,0.97-1.5,2.04-1.97,3.2c-0.98,2.41-2.13,6.14-1.99,10.25c0.12,3.62,2.43,7.49,4.87,11.58
		c2.54,4.26,5.17,8.67,5.47,13.01c0.24,3.42-1.09,6.67-2.63,10.42c-2.25,5.49-5.05,12.32-4.33,22.82l0.02,0.25l0.14,0.21
		c0.09,0.13,0.92,1.26,2.19,1.1c1.06-0.15,1.88-1.11,2.52-2.94c1.21-3.49,6.08-6.48,9.12-5.61l0.17,0.03c0.06,0,5.75,0.58,8,4.87
		c0.29,0.56,0.79,1,1.4,1.23l3.38,1.3l-2.11,2.28c-1.06,1.14-1.67,2.62-1.73,4.17l-0.11,3c-0.11,2.91,0.83,5.77,2.65,8.04
		l-0.04,0.18l-2.84,1.37c-0.67,0.32-1.28,0.78-1.82,1.34c-0.94,1-3.42,3.32-6.14,2.96c-4.01-0.5-7.38-1.27-11.18-6.15
		c-1.12-1.43-2.32-2.69-3.47-2.17c-1.16,0.52-1.09,2.23-0.61,4.81l0.02,0.11c0.04,0.19,0.09,0.37,0.16,0.55
		c0.42,1.03,1.87,4.58,3.02,7.2c1.09,2.49-0.1,4.89-0.1,4.89c-0.03,0.05-3.07,5.53-9.32,10.74c-7.09,5.91-5.35,13.57-3.4,16.35
		c0.78,1.12,2.02,1.95,3.21,2.75c2.23,1.5,3.57,2.54,3.31,4.42l-0.42,3.13l2.03-2.42c0.2-0.24,1.9-2.28,2.46-3.81
		c0.32-0.11,1.05-0.21,1.66-0.3c3.22-0.46,9.17-1.3,9.7-7.85c0.82,2.57,0.75,22.47-2.33,31.52l1.74,0.59
		C405.2,485.6,405.89,463.58,404.34,461.03z"/>
	<path fill="#F09BA5" d="M449.25,494.45c0.1,0.03,0.2,0.05,0.3,0.05c0.38,0,0.74-0.24,0.87-0.62c2.95-8.66,3.65-30.68,2.1-33.23
		c-0.22-0.36-0.88-1.46-1.93-1.25c-1.02,0.19-1.31,1.45-1.38,1.83c-0.01,0.04-0.01,0.07-0.01,0.11c-0.27,5.35-5.01,6.02-8.14,6.46
		c-1.68,0.24-2.79,0.39-3.08,1.36c-0.13,0.45-0.48,1.05-0.88,1.64c-0.7-1.64-2.32-2.73-3.81-3.73c-1.1-0.74-2.15-1.44-2.73-2.28
		c-1.63-2.33-3.03-8.79,3.07-13.88c6.13-5.11,9.23-10.34,9.7-11.18c0.03-0.06,0.05-0.09,0.06-0.11c0.07-0.13,1.62-3.18,0.16-6.5
		c-1.14-2.6-2.58-6.13-3-7.15c-0.03-0.07-0.04-0.13-0.06-0.19l-0.02-0.12c-0.24-1.27-0.3-2.01-0.3-2.44
		c0.25,0.23,0.61,0.61,1.12,1.26c4.23,5.42,8.12,6.31,12.41,6.84c3.42,0.42,6.29-2.03,7.71-3.53c0.38-0.4,0.81-0.72,1.28-0.95
		l2.84-1.37c0.54-0.26,0.92-0.74,1.06-1.33c0.13-0.58-0.01-1.19-0.38-1.65c-1.54-1.93-2.34-4.35-2.25-6.82l0.11-3
		c0.04-1.11,0.48-2.17,1.24-2.99l2.41-2.59c0.35-0.38,0.49-0.9,0.37-1.4c-0.12-0.5-0.47-0.91-0.95-1.1l-3.78-1.45
		c-0.19-0.07-0.34-0.2-0.43-0.37c-2.57-4.91-8.54-5.75-9.37-5.84c-3.98-1.07-9.75,2.4-11.28,6.8c-0.56,1.61-1.02,1.72-1.03,1.72
		c-0.05,0.02-0.18-0.07-0.29-0.17c-0.62-9.9,1.95-16.16,4.22-21.69c1.63-3.97,3.03-7.4,2.77-11.25c-0.33-4.78-3.07-9.38-5.72-13.83
		c-2.32-3.89-4.5-7.56-4.61-10.7c-0.13-3.79,0.94-7.25,1.85-9.49c0.4-0.97,0.96-1.87,1.66-2.69c0.9-1.04,1.96-2.68,1.88-4.61
		c0-0.06-0.03-0.11-0.04-0.16c0.06-0.07,0.12-0.15,0.17-0.25l8.03-17.15c0.02-0.03,0.02-0.07,0.02-0.11V254.1
		c0-0.14-0.12-0.26-0.26-0.26l-17.7,0c-0.14,0-0.26,0.12-0.26,0.26v59.26c0,0.04,0.01,0.08,0.02,0.11l8.07,17.15
		c0.04,0.09,0.1,0.17,0.16,0.24c-0.02,0.08-0.04,0.16-0.04,0.25c0.05,1.32-0.75,2.54-1.43,3.33c-0.84,0.97-1.5,2.05-1.97,3.2
		c-0.98,2.41-2.13,6.14-1.99,10.25c0.12,3.62,2.43,7.49,4.87,11.58c2.54,4.26,5.17,8.67,5.46,13.01c0.24,3.42-1.09,6.67-2.63,10.42
		c-2.25,5.49-5.05,12.32-4.33,22.82c0.01,0.17,0.07,0.33,0.16,0.46c0.09,0.13,0.92,1.27,2.19,1.1c1.06-0.15,1.88-1.11,2.52-2.94
		c1.21-3.49,6.08-6.48,9.12-5.61c0.05,0.02,0.11,0.03,0.17,0.03c0.06,0,5.75,0.58,8,4.87c0.29,0.56,0.79,1,1.4,1.23l3.38,1.3
		l-2.11,2.28c-1.06,1.14-1.67,2.62-1.73,4.17l-0.11,3c-0.11,2.91,0.83,5.77,2.65,8.04c0,0-0.04,0.18-0.04,0.18l-2.84,1.37
		c-0.67,0.33-1.28,0.78-1.82,1.34c-0.94,1-3.44,3.31-6.14,2.96c-4.01-0.5-7.38-1.27-11.18-6.15c-1.12-1.43-2.32-2.68-3.47-2.17
		c-1.16,0.52-1.09,2.23-0.61,4.81l0.02,0.12c0.03,0.19,0.09,0.37,0.16,0.55c0.42,1.03,1.87,4.58,3.02,7.2
		c0.27,0.62,0.4,1.24,0.44,1.81c0.13,1.72-0.55,3.07-0.55,3.08c-0.03,0.06-3.07,5.53-9.32,10.74c-7.09,5.91-5.35,13.57-3.4,16.35
		c0.78,1.12,2.02,1.95,3.21,2.75c2.23,1.5,3.57,2.54,3.31,4.42c-0.05,0.41,0.17,0.8,0.54,0.96c0.37,0.16,0.81,0.06,1.08-0.25
		c0.2-0.24,1.9-2.28,2.46-3.81c0.32-0.11,1.05-0.21,1.66-0.3c3.22-0.46,9.17-1.3,9.7-7.85c0.82,2.57,0.75,22.47-2.33,31.52
		C448.51,493.76,448.77,494.29,449.25,494.45z"/>
	<path fill="#F09BA5" d="M256.56,245.97c0.1,0.03,0.2,0.05,0.3,0.05c0.38,0,0.74-0.24,0.87-0.62c2.95-8.66,3.65-30.68,2.1-33.23
		c-0.22-0.36-0.89-1.45-1.93-1.25c-0.76,0.14-1.12,0.89-1.28,1.41c-0.05,0.17-0.08,0.32-0.1,0.42c-0.01,0.04-0.01,0.07-0.01,0.11
		c-0.22,4.35-3.39,5.61-6.25,6.16c-0.66,0.13-1.3,0.22-1.89,0.3c-1.68,0.24-2.79,0.4-3.08,1.36c-0.13,0.45-0.48,1.05-0.88,1.64
		c-0.7-1.64-2.32-2.73-3.81-3.73c-1.1-0.74-2.15-1.44-2.73-2.28c-1.63-2.33-3.03-8.8,3.07-13.88c5.31-4.43,8.35-8.95,9.37-10.62
		c0.24-0.39,0.37-0.62,0.39-0.67c0.07-0.13,1.62-3.18,0.16-6.49c-1.13-2.58-2.58-6.13-3-7.15c-0.03-0.06-0.04-0.12-0.05-0.19
		l-0.02-0.12c-0.24-1.27-0.3-2.01-0.3-2.44c0.25,0.23,0.61,0.61,1.12,1.26c2.91,3.73,5.66,5.31,8.48,6.11
		c1.28,0.36,2.58,0.56,3.92,0.73c3.42,0.42,6.29-2.03,7.71-3.53c0.38-0.4,0.81-0.72,1.28-0.95l2.84-1.37
		c0.54-0.26,0.92-0.74,1.06-1.33c0.13-0.58-0.01-1.19-0.38-1.65c-1.54-1.93-2.34-4.35-2.25-6.82l0.11-2.99
		c0.01-0.28,0.05-0.55,0.1-0.82c0.18-0.81,0.57-1.55,1.13-2.16l2.41-2.59c0.35-0.38,0.49-0.9,0.37-1.4
		c-0.12-0.5-0.47-0.91-0.95-1.09l-3.78-1.45c-0.19-0.07-0.35-0.21-0.43-0.37c-2.57-4.91-8.54-5.75-9.37-5.84
		c-3.99-1.07-9.75,2.4-11.28,6.8c-0.56,1.61-1.02,1.72-1.03,1.72c-0.05,0.01-0.18-0.07-0.29-0.17c-0.08-1.24-0.11-2.42-0.09-3.55
		c0.11-7.9,2.32-13.3,4.31-18.15c1.63-3.97,3.03-7.4,2.77-11.25c-0.33-4.78-3.07-9.38-5.72-13.83c-2.32-3.89-4.5-7.56-4.61-10.7
		c-0.13-3.79,0.94-7.25,1.85-9.49c0.4-0.97,0.96-1.88,1.66-2.69c0.9-1.04,1.96-2.68,1.88-4.61c0-0.06-0.03-0.11-0.04-0.16
		c0.06-0.07,0.12-0.15,0.16-0.25l8.03-17.15c0.02-0.03,0.02-0.07,0.02-0.11V5.62c0-0.07-0.03-0.14-0.08-0.19s-0.11-0.08-0.19-0.08
		l-17.7,0c-0.14,0-0.26,0.12-0.26,0.26v59.26c0,0.04,0.01,0.08,0.02,0.11l8.07,17.15c0.04,0.09,0.1,0.17,0.16,0.24
		c-0.02,0.08-0.04,0.16-0.04,0.25c0.05,1.32-0.75,2.54-1.43,3.33c-0.84,0.97-1.5,2.04-1.97,3.2c-0.98,2.41-2.13,6.14-1.99,10.25
		c0.12,3.62,2.43,7.49,4.87,11.58c2.54,4.26,5.17,8.67,5.47,13.01c0.24,3.42-1.09,6.67-2.63,10.42c-2.25,5.49-5.05,12.32-4.33,22.82
		c0.01,0.17,0.07,0.32,0.16,0.46c0.09,0.13,0.93,1.27,2.19,1.1c1.06-0.15,1.88-1.11,2.52-2.94c1.21-3.49,6.07-6.48,9.12-5.61
		c0.05,0.02,0.11,0.03,0.17,0.03s5.77,0.6,8,4.87c0.29,0.56,0.79,1,1.4,1.24l3.38,1.3l-2.11,2.28c-1.06,1.14-1.67,2.62-1.73,4.17
		l-0.11,2.99c-0.11,2.91,0.83,5.77,2.65,8.04l0.72-0.57l-0.76,0.75l-2.84,1.37c-0.67,0.32-1.28,0.78-1.82,1.34
		c-0.94,1-3.42,3.3-6.14,2.96c-1.5-0.19-2.92-0.41-4.3-0.88c-2.3-0.78-4.51-2.22-6.89-5.27c-1.12-1.43-2.31-2.69-3.47-2.17
		c-1.16,0.52-1.09,2.23-0.61,4.81l0.02,0.12c0.03,0.19,0.09,0.37,0.16,0.55c0.42,1.03,1.88,4.6,3.02,7.2
		c0.27,0.62,0.4,1.24,0.45,1.81c0.13,1.72-0.55,3.07-0.55,3.08c-0.03,0.05-3.07,5.53-9.32,10.74c-7.09,5.91-5.35,13.57-3.4,16.35
		c0.78,1.12,2.02,1.95,3.21,2.75c2.23,1.5,3.57,2.54,3.32,4.42c-0.05,0.41,0.17,0.8,0.54,0.96c0.37,0.17,0.81,0.06,1.08-0.25
		c0.2-0.24,1.9-2.28,2.46-3.81c0.32-0.11,1.05-0.21,1.66-0.3c0.2-0.03,0.41-0.06,0.63-0.09c3.31-0.49,8.57-1.62,9.07-7.76
		c0.82,2.56,0.75,22.47-2.33,31.52C255.82,245.28,256.08,245.8,256.56,245.97z"/>
	<path fill="#ECE8A0" d="M305.19,245.97c0.1,0.03,0.2,0.05,0.3,0.05c0.38,0,0.74-0.24,0.87-0.62c2.95-8.66,3.65-30.68,2.1-33.23
		c-0.22-0.36-0.89-1.45-1.93-1.25c-0.76,0.14-1.12,0.89-1.28,1.41c-0.05,0.17-0.08,0.32-0.1,0.42c-0.01,0.04-0.01,0.07-0.01,0.11
		c-0.27,5.35-5.01,6.02-8.14,6.46c-1.68,0.24-2.79,0.4-3.08,1.36c-0.13,0.45-0.49,1.05-0.88,1.64c-0.7-1.64-2.32-2.73-3.81-3.73
		c-1.1-0.74-2.14-1.44-2.73-2.28c-1.63-2.33-3.03-8.8,3.08-13.88c6.54-5.45,9.63-11.04,9.76-11.29c0.07-0.13,1.62-3.18,0.16-6.49
		c-1.09-2.49-2.46-5.84-3-7.15c-0.03-0.06-0.04-0.12-0.05-0.19l-0.02-0.12c-0.24-1.27-0.3-2.01-0.3-2.44
		c0.25,0.23,0.61,0.61,1.12,1.26c4.23,5.42,8.12,6.31,12.41,6.84c3.42,0.42,6.29-2.03,7.71-3.53c0.38-0.4,0.81-0.72,1.28-0.95
		l2.84-1.37c0.54-0.26,0.92-0.74,1.06-1.33c0.13-0.58-0.01-1.19-0.38-1.65c-1.54-1.93-2.34-4.35-2.25-6.82l0.11-3
		c0.04-1.11,0.48-2.17,1.24-2.99l2.41-2.59c0.35-0.38,0.49-0.9,0.37-1.4s-0.47-0.91-0.95-1.09l-3.78-1.45
		c-0.19-0.07-0.35-0.21-0.43-0.37c-2.57-4.91-8.54-5.75-9.37-5.84c-3.98-1.07-9.75,2.4-11.28,6.8c-0.56,1.61-1.02,1.72-1.03,1.72
		c-0.06,0.01-0.18-0.07-0.29-0.17c-0.19-3.09-0.08-5.83,0.25-8.3c0.71-5.44,2.41-9.59,3.97-13.39c1.63-3.97,3.03-7.4,2.77-11.25
		c-0.33-4.78-3.07-9.38-5.72-13.83c-2.32-3.89-4.5-7.56-4.61-10.7c-0.13-3.78,0.94-7.25,1.85-9.49c0.4-0.97,0.96-1.88,1.66-2.69
		c0.9-1.04,1.96-2.68,1.88-4.61c0-0.06-0.03-0.11-0.04-0.16c0.06-0.07,0.12-0.15,0.16-0.25l8.03-17.15
		c0.02-0.03,0.02-0.07,0.02-0.11V5.62c0-0.14-0.12-0.26-0.26-0.26l-17.7,0c-0.14,0-0.26,0.12-0.26,0.26v59.26
		c0,0.04,0.01,0.08,0.02,0.11l8.07,17.15c0.04,0.09,0.1,0.17,0.16,0.24c-0.02,0.08-0.04,0.16-0.04,0.25
		c0.05,1.32-0.75,2.54-1.43,3.33c-0.84,0.97-1.5,2.04-1.97,3.2c-0.98,2.41-2.13,6.14-1.99,10.25c0.12,3.62,2.43,7.49,4.87,11.58
		c2.54,4.26,5.17,8.67,5.46,13.01c0.24,3.42-1.09,6.67-2.63,10.42c-2.25,5.49-5.05,12.32-4.33,22.82c0.01,0.17,0.07,0.32,0.16,0.46
		c0.09,0.13,0.92,1.27,2.19,1.1c1.06-0.15,1.88-1.11,2.52-2.94c1.21-3.49,6.07-6.48,9.12-5.61c0.05,0.02,0.11,0.03,0.17,0.03
		s5.77,0.6,8,4.87c0.29,0.56,0.79,1,1.4,1.24l3.38,1.3l-2.11,2.28c-1.06,1.14-1.67,2.62-1.73,4.17l-0.11,3
		c-0.11,2.91,0.83,5.77,2.65,8.04l0.72-0.57l-0.76,0.75l-2.84,1.37c-0.67,0.32-1.28,0.78-1.82,1.34c-0.94,1-3.42,3.3-6.14,2.96
		c-4.01-0.5-7.38-1.27-11.18-6.15c-1.12-1.43-2.32-2.68-3.47-2.17c-1.16,0.52-1.09,2.23-0.61,4.81l0.02,0.12
		c0.03,0.19,0.09,0.37,0.16,0.55c0.54,1.33,1.91,4.69,3.02,7.2c1.09,2.49-0.1,4.89-0.1,4.89c-0.03,0.05-3.05,5.52-9.32,10.74
		c-7.09,5.91-5.35,13.57-3.41,16.35c0.78,1.12,2.02,1.95,3.21,2.75c2.23,1.5,3.57,2.54,3.32,4.42c-0.05,0.41,0.17,0.8,0.54,0.96
		c0.38,0.17,0.81,0.06,1.08-0.25c0.2-0.24,1.9-2.28,2.46-3.81c0.32-0.11,1.05-0.21,1.66-0.3c3.22-0.46,9.17-1.3,9.7-7.85
		c0.82,2.56,0.75,22.47-2.33,31.52C304.46,245.28,304.71,245.8,305.19,245.97z"/>
	<path fill="#A1D1E1" d="M356.63,212.55c-0.22-0.36-0.88-1.45-1.93-1.25c-1.02,0.19-1.31,1.45-1.38,1.83l-0.01,0.11
		c-0.26,5.02-4.44,5.92-7.54,6.38c-0.21,0.03-0.41,0.06-0.6,0.09c-1.68,0.24-2.79,0.4-3.08,1.36c-0.13,0.45-0.49,1.05-0.88,1.64
		c-0.7-1.64-2.32-2.73-3.81-3.73c-1.1-0.74-2.14-1.44-2.73-2.28c-1.63-2.33-3.03-8.8,3.07-13.88c6.54-5.45,9.63-11.04,9.77-11.29
		c0.02-0.03,0.13-0.25,0.26-0.6c0.07-0.18,0.14-0.39,0.21-0.63c0.03-0.12,0.07-0.25,0.1-0.39c0.28-1.22,0.42-3.01-0.4-4.87
		c-1.24-2.84-2.82-6.72-3-7.15c-0.03-0.06-0.04-0.12-0.05-0.19l-0.02-0.12c-0.24-1.27-0.3-2.01-0.3-2.44
		c0.25,0.23,0.61,0.61,1.12,1.26c4.23,5.42,8.12,6.31,12.41,6.84c3.41,0.42,6.29-2.03,7.71-3.53c0.38-0.4,0.81-0.72,1.28-0.95
		l2.84-1.37c0.54-0.26,0.92-0.74,1.06-1.33c0.13-0.58-0.01-1.19-0.38-1.65c-0.39-0.48-0.73-1-1.02-1.53
		c-0.87-1.61-1.31-3.44-1.24-5.29l0.11-3c0.04-1.11,0.48-2.17,1.24-2.98l2.41-2.59c0.35-0.38,0.49-0.9,0.37-1.4s-0.47-0.91-0.95-1.1
		l-3.78-1.45c-0.19-0.07-0.35-0.21-0.43-0.37c-2.57-4.91-8.54-5.75-9.37-5.84c-3.98-1.07-9.75,2.4-11.28,6.8
		c-0.56,1.61-1.02,1.72-1.03,1.72c-0.06,0.01-0.18-0.07-0.29-0.17c-0.62-9.9,1.95-16.16,4.22-21.69c1.63-3.97,3.03-7.4,2.77-11.25
		c-0.33-4.78-3.07-9.38-5.72-13.83c-2.32-3.89-4.5-7.56-4.61-10.7c-0.13-3.79,0.94-7.25,1.85-9.49c0.3-0.73,0.69-1.42,1.16-2.06
		c0.16-0.21,0.33-0.42,0.5-0.63c0.9-1.04,1.96-2.68,1.88-4.61l-0.22,0.01c0.14-0.11,0.27-0.24,0.35-0.42l8.03-17.15
		c0.02-0.03,0.02-0.07,0.02-0.11V6.01c0-0.07-0.03-0.14-0.08-0.19s-0.11-0.08-0.19-0.08l-17.7,0c-0.07,0-0.14,0.03-0.19,0.08
		s-0.08,0.11-0.08,0.19v0v59.26c0,0.04,0.01,0.08,0.02,0.11l8.07,17.15c0.05,0.11,0.12,0.21,0.19,0.29
		c0.07,0.07,0.14,0.13,0.22,0.18l-0.29,0.01c0.06,1.39-0.87,2.68-1.43,3.33c-0.84,0.97-1.5,2.04-1.97,3.2
		c-0.98,2.41-2.13,6.14-1.99,10.25c0.12,3.62,2.43,7.49,4.87,11.58c2.54,4.26,5.17,8.67,5.47,13.01c0.24,3.42-1.09,6.67-2.63,10.42
		c-2.25,5.49-5.05,12.32-4.33,22.82l0.02,0.25l0.14,0.21c0.09,0.13,0.92,1.27,2.19,1.1c0.13-0.02,0.26-0.05,0.39-0.09
		c0.87-0.31,1.57-1.25,2.13-2.85c1.21-3.49,6.07-6.48,9.12-5.61l0.17,0.03c0.06,0.01,5.77,0.6,8,4.87c0.29,0.56,0.79,1,1.4,1.24
		l3.38,1.3l-2.11,2.28c-1.06,1.14-1.67,2.62-1.73,4.17l-0.11,3c-0.11,2.91,0.83,5.77,2.65,8.04l0.72-0.57l-0.76,0.75l-2.84,1.37
		c-0.67,0.32-1.28,0.78-1.82,1.34c-0.94,1-3.45,3.3-6.14,2.96c-4.01-0.5-7.38-1.27-11.18-6.15c-1.12-1.43-2.31-2.69-3.47-2.17
		c-1.16,0.52-1.09,2.23-0.61,4.81l0.02,0.11c0.03,0.19,0.09,0.37,0.16,0.55c0.18,0.44,1.76,4.34,3.02,7.2
		c1.09,2.49-0.1,4.89-0.1,4.89c-0.03,0.05-3.07,5.53-9.32,10.74c-7.09,5.91-5.35,13.57-3.4,16.35c0.78,1.12,2.02,1.95,3.21,2.75
		c2.23,1.5,3.57,2.54,3.32,4.42l-0.42,3.13l2.03-2.42c0.2-0.24,1.9-2.28,2.46-3.81c0.32-0.11,1.05-0.21,1.66-0.3
		c0.2-0.03,0.41-0.06,0.63-0.09c3.31-0.49,8.57-1.62,9.07-7.76c0.51,1.6,0.68,9.98-0.02,18.25c-0.04,0.41-0.07,0.83-0.11,1.24
		c-0.08,0.82-0.17,1.64-0.26,2.45c-0.44,3.64-1.07,7.04-1.93,9.58l1.74,0.59C357.49,237.12,358.18,215.1,356.63,212.55z"/>
	<path fill="#A5D2A1" d="M211.66,461.03c-0.22-0.36-0.89-1.46-1.93-1.25c-0.5,0.09-0.83,0.45-1.04,0.83v0
		c-0.21,0.39-0.31,0.8-0.34,1l-0.01,0.11c-0.27,5.35-5.01,6.02-8.14,6.46c-1.68,0.24-2.79,0.39-3.08,1.36
		c-0.13,0.45-0.48,1.05-0.88,1.64c-0.7-1.64-2.32-2.73-3.81-3.73c-1.1-0.74-2.15-1.44-2.73-2.28c-1.63-2.33-3.03-8.8,3.07-13.88
		c6.54-5.45,9.63-11.04,9.77-11.29c0.07-0.13,1.62-3.18,0.16-6.5c-1.19-2.71-2.71-6.44-3-7.16c-0.03-0.06-0.04-0.12-0.05-0.19
		l-0.02-0.12c-0.24-1.27-0.3-2.01-0.3-2.44c0.25,0.23,0.61,0.61,1.12,1.26c4.23,5.42,8.12,6.31,12.41,6.84
		c3.41,0.43,6.3-2.03,7.71-3.53c0.38-0.4,0.81-0.72,1.28-0.95l2.84-1.37c0.54-0.26,0.92-0.74,1.06-1.33s-0.01-1.19-0.38-1.65
		c-1.54-1.93-2.34-4.35-2.25-6.82l0.11-3c0.04-1.11,0.48-2.17,1.24-2.99l2.41-2.59c0.35-0.38,0.49-0.9,0.37-1.4
		c-0.12-0.5-0.47-0.91-0.95-1.1l-3.78-1.45c-0.19-0.07-0.34-0.2-0.43-0.37c-2.57-4.91-8.54-5.75-9.37-5.84
		c-3.98-1.07-9.75,2.4-11.28,6.8c-0.56,1.61-1.02,1.72-1.03,1.72c-0.05,0.02-0.18-0.07-0.29-0.17c-0.62-9.9,1.95-16.16,4.22-21.69
		c1.63-3.97,3.03-7.4,2.77-11.25c-0.33-4.78-3.07-9.38-5.72-13.83c-2.32-3.89-4.5-7.56-4.61-10.7c-0.13-3.79,0.94-7.25,1.85-9.49
		c0.1-0.24,0.21-0.48,0.33-0.71c0.36-0.7,0.8-1.37,1.33-1.98c0.9-1.04,1.96-2.69,1.88-4.61l-0.22,0.01
		c0.05-0.04,0.11-0.08,0.16-0.13c0.07-0.08,0.14-0.18,0.19-0.29l6.42-13.72v0l1.61-3.43c0.02-0.03,0.02-0.07,0.02-0.11v-59.26
		c0-0.07-0.03-0.14-0.08-0.19s-0.11-0.08-0.19-0.08l-1.37,0l0,0l-16.33,0c-0.14,0-0.26,0.12-0.26,0.26v0v59.26
		c0,0.04,0.01,0.08,0.02,0.11l8.07,17.15c0.1,0.21,0.24,0.36,0.41,0.47l-0.29,0.01c0.05,1.32-0.75,2.54-1.43,3.33
		c-0.84,0.97-1.5,2.04-1.97,3.2c-0.98,2.41-2.13,6.14-1.99,10.25c0.12,3.62,2.43,7.49,4.87,11.58c2.54,4.26,5.17,8.67,5.47,13.01
		c0.24,3.42-1.09,6.67-2.63,10.42c-2.25,5.49-5.05,12.32-4.33,22.82l0.02,0.25l0.14,0.21c0.09,0.13,0.92,1.26,2.19,1.1
		c1.06-0.15,1.88-1.11,2.52-2.94c1.21-3.49,6.07-6.48,9.12-5.61l0.17,0.03c0.06,0,5.76,0.58,8,4.87c0.29,0.56,0.79,1,1.4,1.24
		l3.38,1.3l-2.11,2.28c-1.06,1.14-1.67,2.62-1.73,4.17l-0.11,3c-0.11,2.91,0.83,5.77,2.65,8.04l-0.04,0.18l-2.84,1.37
		c-0.67,0.32-1.28,0.78-1.82,1.34c-0.94,1-3.43,3.31-6.14,2.96c-4.01-0.5-7.38-1.27-11.18-6.15c-1.12-1.43-2.31-2.69-3.47-2.17
		c-1.16,0.52-1.09,2.23-0.61,4.81l0.02,0.11c0.03,0.19,0.09,0.37,0.16,0.55c0.29,0.72,1.82,4.47,3.02,7.2
		c1.09,2.49-0.1,4.89-0.1,4.89c-0.03,0.05-3.05,5.52-9.32,10.74c-7.09,5.91-5.35,13.57-3.4,16.35c0.78,1.12,2.02,1.95,3.21,2.75
		c2.23,1.5,3.57,2.54,3.31,4.42l-0.42,3.13l2.03-2.42c0.2-0.24,1.9-2.28,2.46-3.81c0.32-0.11,1.05-0.21,1.66-0.3
		c0.4-0.06,0.85-0.12,1.32-0.2c2.28-0.38,5.19-1.16,6.92-3.5v0c0.77-1.04,1.32-2.39,1.46-4.16c0.73,2.29,0.75,18.48-1.46,28.34v0
		c-0.26,1.15-0.55,2.23-0.87,3.17l1.74,0.59C212.51,485.6,213.21,463.58,211.66,461.03z"/>
	<path fill="#F09BA5" d="M256.56,494.45c0.1,0.03,0.2,0.05,0.3,0.05c0.38,0,0.74-0.24,0.87-0.62c2.95-8.67,3.65-30.68,2.1-33.23
		c-0.22-0.36-0.88-1.46-1.93-1.25c-1.02,0.19-1.31,1.45-1.38,1.83c-0.01,0.04-0.01,0.07-0.01,0.11c-0.24,4.68-3.9,5.78-6.9,6.28
		c-0.43,0.07-0.85,0.13-1.24,0.19c-1.68,0.24-2.79,0.39-3.08,1.36c-0.13,0.45-0.48,1.05-0.88,1.64c-0.7-1.64-2.32-2.73-3.81-3.73
		c-1.1-0.74-2.15-1.44-2.73-2.28c-1.63-2.33-3.03-8.79,3.07-13.88c5.31-4.43,8.35-8.95,9.37-10.62c0.16-0.26,0.27-0.45,0.33-0.56
		c0.03-0.06,0.05-0.09,0.06-0.11c0.07-0.13,1.62-3.18,0.16-6.5c-1.13-2.58-2.58-6.13-3-7.15c-0.03-0.06-0.04-0.12-0.06-0.19
		l-0.02-0.12c-0.24-1.27-0.3-2.01-0.3-2.44c0.25,0.23,0.61,0.61,1.12,1.26c4.23,5.42,8.12,6.31,12.41,6.84
		c3.41,0.42,6.3-2.03,7.71-3.53c0.38-0.4,0.81-0.72,1.28-0.95l2.84-1.37c0.54-0.26,0.92-0.74,1.06-1.33
		c0.13-0.58-0.01-1.19-0.38-1.65c-1.54-1.93-2.34-4.35-2.25-6.82l0.11-3c0.04-1.11,0.48-2.17,1.24-2.99l2.41-2.59
		c0.35-0.38,0.49-0.9,0.38-1.4c-0.12-0.5-0.47-0.91-0.95-1.1l-3.78-1.45c-0.19-0.07-0.35-0.21-0.43-0.37
		c-2.57-4.91-8.54-5.75-9.37-5.84c-3.99-1.07-9.75,2.4-11.28,6.8c-0.56,1.61-1.02,1.72-1.03,1.72c-0.05,0.02-0.18-0.07-0.29-0.17
		c-0.62-9.9,1.95-16.16,4.22-21.69c1.63-3.97,3.03-7.4,2.77-11.25c-0.33-4.78-3.07-9.38-5.72-13.83c-2.32-3.89-4.5-7.56-4.61-10.7
		c-0.13-3.79,0.94-7.25,1.85-9.49c0.1-0.24,0.21-0.48,0.33-0.71c0.36-0.7,0.8-1.37,1.33-1.98c0.9-1.04,1.96-2.68,1.88-4.61
		c0-0.06-0.03-0.11-0.04-0.16c0.06-0.07,0.12-0.15,0.16-0.25l8.03-17.15c0.02-0.03,0.02-0.07,0.02-0.11V254.1
		c0-0.07-0.03-0.14-0.08-0.19s-0.11-0.08-0.19-0.08l-17.7,0c-0.14,0-0.26,0.12-0.26,0.26v59.26c0,0.04,0.01,0.08,0.02,0.11
		l8.07,17.15c0.04,0.09,0.1,0.17,0.16,0.24c-0.02,0.08-0.04,0.16-0.04,0.25c0.05,1.32-0.75,2.54-1.43,3.33
		c-0.84,0.97-1.5,2.04-1.97,3.2c-0.98,2.41-2.13,6.14-1.99,10.25c0.12,3.62,2.43,7.49,4.87,11.58c2.54,4.26,5.17,8.67,5.47,13.01
		c0.24,3.42-1.09,6.67-2.63,10.42c-2.25,5.49-5.05,12.32-4.33,22.82c0.01,0.17,0.07,0.33,0.16,0.46c0.09,0.13,0.93,1.27,2.19,1.1
		c1.06-0.15,1.88-1.11,2.52-2.94c1.21-3.49,6.08-6.48,9.12-5.61c0.05,0.02,0.11,0.03,0.17,0.03c0.06,0,5.75,0.58,8,4.87
		c0.29,0.56,0.79,1,1.4,1.24l3.38,1.3l-2.11,2.28c-1.05,1.14-1.67,2.62-1.73,4.17l-0.11,3c-0.11,2.91,0.83,5.77,2.65,8.04
		c0,0-0.04,0.18-0.04,0.18l-2.84,1.37c-0.67,0.32-1.28,0.78-1.82,1.34c-0.94,1-3.44,3.31-6.14,2.96c-1.5-0.19-2.92-0.41-4.3-0.88
		c-2.3-0.78-4.51-2.22-6.89-5.27c-1.12-1.43-2.31-2.69-3.47-2.17c-1.16,0.52-1.09,2.23-0.61,4.81l0.02,0.11
		c0.03,0.19,0.09,0.37,0.16,0.55c0.42,1.03,1.88,4.6,3.02,7.2c0.27,0.62,0.4,1.24,0.45,1.81c0.13,1.72-0.55,3.07-0.55,3.08
		c0,0-0.02,0.03-0.04,0.07c-0.38,0.66-3.4,5.77-9.28,10.67c-7.09,5.91-5.35,13.57-3.4,16.35c0.78,1.12,2.02,1.95,3.21,2.75
		c2.23,1.5,3.56,2.54,3.31,4.42c-0.05,0.41,0.17,0.8,0.54,0.96c0.37,0.16,0.81,0.06,1.08-0.25c0.2-0.24,1.9-2.29,2.46-3.81
		c0.32-0.11,1.05-0.21,1.66-0.3c0.2-0.03,0.41-0.06,0.63-0.09c3.31-0.49,8.57-1.62,9.07-7.76c0.82,2.56,0.75,22.47-2.33,31.52
		C255.82,493.76,256.08,494.29,256.56,494.45z"/>
	<path fill="#ECE8A0" d="M305.19,494.45c0.1,0.03,0.2,0.05,0.3,0.05c0.38,0,0.74-0.24,0.87-0.62c2.95-8.67,3.65-30.68,2.1-33.23
		c-0.22-0.36-0.87-1.46-1.93-1.25c-1.02,0.19-1.31,1.45-1.38,1.83c-0.01,0.04-0.01,0.07-0.01,0.11c-0.27,5.35-5.01,6.02-8.14,6.46
		c-1.68,0.24-2.79,0.39-3.08,1.36c-0.13,0.45-0.49,1.05-0.88,1.64c-0.26-0.61-0.65-1.15-1.12-1.64c-0.78-0.81-1.76-1.47-2.69-2.09
		c-1.1-0.74-2.15-1.44-2.73-2.28c-1.63-2.33-3.03-8.8,3.08-13.88c6.13-5.11,9.23-10.34,9.7-11.18c0.03-0.06,0.05-0.09,0.06-0.11
		c0.07-0.13,1.62-3.18,0.16-6.5c-1.1-2.5-2.46-5.84-3-7.15c-0.03-0.07-0.04-0.13-0.06-0.19l-0.02-0.12c-0.24-1.27-0.3-2.01-0.3-2.44
		c0.25,0.23,0.61,0.61,1.12,1.26c4.23,5.42,8.12,6.31,12.41,6.84c3.41,0.42,6.3-2.03,7.71-3.53c0.38-0.4,0.81-0.72,1.28-0.95
		l2.84-1.37c0.54-0.26,0.92-0.74,1.06-1.33c0.13-0.58-0.01-1.19-0.38-1.65c-1.54-1.93-2.34-4.35-2.25-6.82l0.11-3
		c0.04-1.11,0.48-2.17,1.24-2.99l2.41-2.59c0.35-0.38,0.49-0.9,0.38-1.4c-0.12-0.5-0.47-0.91-0.95-1.1l-3.78-1.45
		c-0.19-0.07-0.34-0.2-0.43-0.37c-2.57-4.91-8.54-5.75-9.37-5.84c-3.98-1.07-9.75,2.4-11.28,6.8c-0.56,1.61-1.02,1.72-1.03,1.72
		c-0.06,0.02-0.18-0.07-0.29-0.17c-0.62-9.9,1.95-16.16,4.22-21.69c1.63-3.97,3.03-7.4,2.77-11.25c-0.33-4.78-3.07-9.38-5.72-13.83
		c-2.32-3.89-4.5-7.56-4.61-10.7c-0.13-3.78,0.94-7.25,1.85-9.49c0.1-0.24,0.21-0.48,0.33-0.71c0.36-0.7,0.8-1.37,1.33-1.98
		c0.9-1.04,1.96-2.68,1.88-4.61c0-0.06-0.03-0.11-0.04-0.16c0.06-0.07,0.12-0.15,0.16-0.25l8.03-17.15
		c0.02-0.03,0.02-0.07,0.02-0.11V254.1c0-0.14-0.12-0.26-0.26-0.26l-17.7,0c-0.14,0-0.26,0.12-0.26,0.26v59.26
		c0,0.04,0.01,0.08,0.02,0.11l8.07,17.15c0.04,0.09,0.1,0.17,0.16,0.24c-0.02,0.08-0.04,0.16-0.04,0.24
		c0.05,1.32-0.75,2.54-1.43,3.33c-0.84,0.97-1.5,2.04-1.97,3.2c-0.98,2.41-2.13,6.14-1.99,10.25c0.12,3.62,2.43,7.49,4.87,11.58
		c2.54,4.26,5.17,8.67,5.46,13.01c0.24,3.42-1.09,6.67-2.63,10.42c-2.25,5.49-5.05,12.32-4.33,22.82c0.01,0.17,0.07,0.32,0.16,0.46
		c0.09,0.13,0.92,1.28,2.19,1.1c1.06-0.14,1.88-1.11,2.52-2.94c1.21-3.49,6.07-6.48,9.12-5.61c0.05,0.02,0.11,0.03,0.17,0.03
		c0.06,0,5.76,0.58,8,4.87c0.29,0.56,0.79,1,1.4,1.23l3.38,1.3l-2.11,2.28c-1.05,1.14-1.67,2.62-1.73,4.17l-0.11,3
		c-0.11,2.91,0.83,5.77,2.65,8.04c0,0-0.04,0.18-0.04,0.18l-2.84,1.37c-0.67,0.32-1.28,0.78-1.82,1.34c-0.94,1-3.44,3.31-6.14,2.96
		c-4.01-0.5-7.38-1.27-11.18-6.15c-1.12-1.43-2.32-2.68-3.47-2.17c-1.16,0.52-1.09,2.23-0.61,4.81l0.02,0.12
		c0.03,0.19,0.09,0.37,0.16,0.55c0.54,1.33,1.91,4.68,3.02,7.2c0.27,0.62,0.4,1.24,0.45,1.81c0.13,1.72-0.55,3.07-0.55,3.08
		c-0.03,0.06-3.07,5.53-9.32,10.74c-7.09,5.91-5.35,13.57-3.41,16.35c0.78,1.12,2.02,1.95,3.21,2.75c2.23,1.5,3.57,2.54,3.31,4.42
		c-0.05,0.41,0.17,0.8,0.54,0.96c0.37,0.16,0.81,0.06,1.08-0.25c0.2-0.24,1.9-2.28,2.46-3.81c0.32-0.11,1.05-0.21,1.66-0.3
		c3.22-0.46,9.17-1.3,9.7-7.85c0.82,2.56,0.75,22.47-2.33,31.52C304.46,493.76,304.71,494.29,305.19,494.45z"/>
	<path fill="#A1D1E1" d="M356.63,461.03c-0.22-0.36-0.88-1.46-1.93-1.25c-1.02,0.19-1.31,1.45-1.38,1.83l-0.01,0.11
		c-0.26,5.02-4.44,5.92-7.54,6.38c-0.21,0.03-0.41,0.06-0.6,0.09c-1.68,0.24-2.79,0.39-3.08,1.36c-0.13,0.45-0.49,1.05-0.88,1.64
		c-0.7-1.64-2.32-2.73-3.81-3.73c-1.1-0.74-2.15-1.44-2.73-2.28c-1.63-2.33-3.03-8.79,3.07-13.88c6.54-5.45,9.63-11.04,9.77-11.29
		c0.07-0.13,1.62-3.18,0.16-6.49c-1.25-2.84-2.82-6.72-3-7.15c-0.03-0.07-0.04-0.13-0.06-0.19l-0.02-0.12
		c-0.24-1.27-0.3-2.01-0.3-2.44c0.25,0.23,0.61,0.61,1.12,1.26c4.23,5.42,8.12,6.31,12.41,6.84c3.41,0.42,6.3-2.03,7.71-3.53
		c0.38-0.4,0.81-0.72,1.28-0.95l2.84-1.37c0.54-0.26,0.92-0.74,1.06-1.33c0.13-0.58-0.01-1.19-0.38-1.65
		c-1.54-1.93-2.34-4.35-2.25-6.82l0.11-3c0.04-1.11,0.48-2.17,1.24-2.99l2.41-2.59c0.35-0.38,0.49-0.9,0.37-1.4s-0.47-0.91-0.95-1.1
		l-3.78-1.45c-0.19-0.07-0.34-0.2-0.43-0.37c-2.57-4.91-8.54-5.75-9.37-5.84c-3.98-1.06-9.75,2.4-11.28,6.8
		c-0.56,1.61-1.02,1.72-1.03,1.72c-0.06,0.02-0.18-0.07-0.29-0.17c-0.62-9.9,1.95-16.16,4.22-21.69c1.63-3.97,3.03-7.4,2.77-11.25
		c-0.33-4.78-3.07-9.38-5.72-13.83c-2.32-3.89-4.5-7.56-4.61-10.7c-0.13-3.79,0.94-7.25,1.85-9.49c0.4-0.97,0.96-1.88,1.66-2.69
		c0.9-1.04,1.96-2.68,1.88-4.61l-0.22,0.01c0.05-0.04,0.11-0.08,0.16-0.13c0.07-0.08,0.14-0.18,0.19-0.29l8.03-17.15
		c0.02-0.03,0.02-0.07,0.02-0.11v-59.26c0-0.07-0.03-0.14-0.08-0.19s-0.11-0.08-0.19-0.08l-17.7,0c-0.14,0-0.26,0.12-0.26,0.26v0
		v59.26c0,0.04,0.01,0.08,0.02,0.11l8.07,17.15c0.1,0.21,0.24,0.36,0.41,0.47l-0.29,0.01c0.05,1.32-0.75,2.54-1.43,3.33
		c-0.84,0.97-1.5,2.04-1.97,3.2c-0.98,2.41-2.13,6.14-1.99,10.25c0.12,3.62,2.43,7.49,4.87,11.58c2.54,4.26,5.17,8.67,5.47,13.01
		c0.24,3.42-1.09,6.67-2.63,10.42c-2.25,5.49-5.05,12.32-4.33,22.82l0.02,0.25l0.14,0.21c0.09,0.13,0.92,1.26,2.19,1.1
		c1.06-0.15,1.88-1.11,2.52-2.94c1.21-3.49,6.08-6.48,9.12-5.61l0.17,0.03c0.06,0,5.75,0.58,8,4.87c0.29,0.56,0.79,1,1.4,1.23
		l3.38,1.3l-2.11,2.28c-1.06,1.14-1.67,2.62-1.73,4.17l-0.11,3c-0.11,2.91,0.83,5.77,2.65,8.04l-0.04,0.18l-2.84,1.37
		c-0.67,0.32-1.28,0.78-1.82,1.34c-0.94,1-3.42,3.32-6.14,2.96c-4.01-0.5-7.38-1.27-11.18-6.15c-1.12-1.43-2.31-2.69-3.47-2.17
		c-1.16,0.52-1.09,2.23-0.61,4.81l0.02,0.11c0.03,0.19,0.09,0.37,0.16,0.55c0.18,0.44,1.76,4.33,3.02,7.2
		c1.09,2.49-0.1,4.89-0.1,4.89c-0.03,0.05-3.07,5.53-9.32,10.74c-7.09,5.91-5.35,13.57-3.4,16.35c0.78,1.12,2.02,1.95,3.21,2.75
		c2.23,1.5,3.57,2.54,3.31,4.42l-0.42,3.13l2.03-2.42c0.2-0.24,1.9-2.28,2.46-3.81c0.32-0.11,1.05-0.21,1.66-0.3
		c0.2-0.03,0.41-0.06,0.63-0.09c3.31-0.49,8.57-1.62,9.07-7.76c0.82,2.56,0.75,22.47-2.33,31.52l1.74,0.59
		C357.49,485.6,358.18,463.58,356.63,461.03z"/>
	<path fill="#A5D2A1" d="M191.59,201.39c-7.09,5.91-5.35,13.57-3.4,16.35c0.78,1.12,2.02,1.95,3.21,2.75
		c2.23,1.5,3.57,2.54,3.32,4.42l-0.42,3.13l2.03-2.42c0.2-0.24,1.9-2.28,2.46-3.81c0.32-0.11,1.05-0.21,1.66-0.3
		c2.35-0.33,6.15-0.88,8.24-3.7v0c0.77-1.04,1.32-2.39,1.46-4.16c0.73,2.29,0.75,18.48-1.46,28.34v0c-0.26,1.15-0.55,2.23-0.87,3.17
		l1.74,0.59c2.95-8.66,3.65-30.68,2.1-33.23c-0.19-0.31-0.73-1.19-1.56-1.27c-0.12-0.01-0.24-0.01-0.37,0.02
		c-1.02,0.19-1.31,1.45-1.38,1.83l-0.01,0.11c-0.27,5.35-5.01,6.02-8.14,6.46c-1.68,0.24-2.79,0.4-3.08,1.36
		c-0.13,0.45-0.48,1.05-0.88,1.64c-0.7-1.64-2.32-2.73-3.81-3.73c-1.1-0.74-2.15-1.44-2.73-2.28c-1.63-2.33-3.03-8.8,3.07-13.88
		c6.54-5.45,9.63-11.04,9.77-11.29c0.02-0.03,0.13-0.25,0.26-0.6c0.07-0.18,0.14-0.39,0.21-0.63c0.03-0.12,0.07-0.25,0.1-0.39
		c0.28-1.22,0.42-3.01-0.4-4.87c-1.19-2.71-2.71-6.44-3-7.16c-0.03-0.06-0.04-0.12-0.05-0.19l-0.02-0.12
		c-0.24-1.27-0.3-2.01-0.3-2.44c0.25,0.23,0.61,0.61,1.12,1.26c4.23,5.42,8.12,6.31,12.41,6.84c3.41,0.42,6.29-2.03,7.71-3.53
		c0.38-0.4,0.81-0.72,1.28-0.95l2.84-1.37c0.54-0.26,0.92-0.74,1.06-1.33s-0.01-1.19-0.38-1.65c-0.19-0.24-0.37-0.49-0.54-0.75
		c-1.19-1.79-1.79-3.92-1.71-6.08l0.11-3c0.04-1.11,0.48-2.17,1.24-2.99l2.41-2.59c0.35-0.38,0.49-0.9,0.37-1.4
		c-0.12-0.5-0.47-0.91-0.95-1.09l-3.78-1.45c-0.19-0.07-0.35-0.21-0.43-0.37c-2.57-4.91-8.54-5.75-9.37-5.84
		c-3.98-1.07-9.75,2.4-11.28,6.8c-0.56,1.61-1.02,1.72-1.03,1.72c-0.05,0.01-0.18-0.07-0.29-0.17c-0.62-9.9,1.95-16.16,4.22-21.69
		c1.63-3.97,3.03-7.4,2.77-11.25c-0.33-4.78-3.07-9.38-5.72-13.83c-2.32-3.89-4.5-7.56-4.61-10.7c-0.13-3.79,0.94-7.25,1.85-9.49
		c0.4-0.97,0.96-1.88,1.66-2.69c0.9-1.04,1.96-2.68,1.88-4.61l-0.22,0.01c0.14-0.11,0.27-0.24,0.35-0.42l6.42-13.72v0l1.61-3.43
		c0.02-0.03,0.02-0.07,0.02-0.11V6.01c0-0.07-0.03-0.14-0.08-0.19s-0.11-0.08-0.19-0.08l-1.37,0l0,0l-16.33,0
		c-0.07,0-0.14,0.03-0.19,0.08s-0.08,0.11-0.08,0.19v0v59.26c0,0.04,0.01,0.08,0.02,0.11l8.07,17.15c0.05,0.11,0.12,0.21,0.19,0.29
		c0.07,0.07,0.14,0.13,0.22,0.18l-0.3,0.01c0.05,1.32-0.75,2.54-1.43,3.33c-0.84,0.97-1.5,2.04-1.97,3.2
		c-0.98,2.41-2.13,6.14-1.99,10.25c0.12,3.62,2.43,7.49,4.87,11.58c2.54,4.26,5.17,8.67,5.47,13.01c0.24,3.42-1.09,6.67-2.63,10.42
		c-2.25,5.49-5.05,12.32-4.33,22.82l0.02,0.25l0.14,0.21c0.09,0.13,0.92,1.27,2.19,1.1c1.06-0.15,1.88-1.11,2.52-2.94
		c1.21-3.49,6.07-6.48,9.12-5.61l0.17,0.03c0.06,0.01,5.77,0.6,8,4.87c0.29,0.56,0.79,1,1.4,1.24l3.38,1.3l-2.11,2.28
		c-1.06,1.14-1.67,2.62-1.73,4.17l-0.11,3c-0.09,2.55,0.62,5.05,2.01,7.16c0.2,0.3,0.41,0.59,0.64,0.88l-0.04,0.17l-2.84,1.37
		c-0.67,0.32-1.28,0.78-1.82,1.34c-0.94,1-3.43,3.3-6.14,2.96c-4.01-0.5-7.38-1.27-11.18-6.15c-1.12-1.43-2.31-2.69-3.47-2.17
		c-1.16,0.52-1.09,2.23-0.61,4.81l0.02,0.11c0.03,0.19,0.09,0.37,0.16,0.55c0.29,0.72,1.82,4.47,3.02,7.2
		c1.09,2.49-0.1,4.89-0.1,4.89C200.88,190.7,197.84,196.18,191.59,201.39z"/>
	<path fill="#F09BA5" d="M63.88,245.97c0.1,0.03,0.2,0.05,0.3,0.05c0.38,0,0.74-0.24,0.87-0.62c1.11-3.25,1.9-8.38,2.37-13.65
		c0.79-8.79,0.7-17.99-0.27-19.58c-0.16-0.27-0.58-0.95-1.22-1.19c-0.21-0.08-0.45-0.11-0.71-0.06c-1.02,0.19-1.31,1.45-1.38,1.83
		c-0.01,0.04-0.01,0.07-0.01,0.11c-0.27,5.35-5.01,6.02-8.14,6.46c-0.42,0.06-0.81,0.11-1.15,0.18c-1.04,0.19-1.71,0.46-1.93,1.18
		c-0.13,0.45-0.48,1.05-0.88,1.64c-0.7-1.64-2.32-2.73-3.81-3.73c-1.1-0.74-2.15-1.44-2.73-2.28c-1.63-2.33-3.03-8.8,3.07-13.88
		c6.54-5.45,9.63-11.04,9.77-11.29c0.07-0.13,1.62-3.18,0.16-6.49c-1.19-2.72-2.71-6.44-3-7.15c-0.03-0.06-0.04-0.12-0.06-0.19
		l-0.02-0.12c-0.23-1.27-0.3-2.01-0.29-2.44c0.25,0.23,0.61,0.61,1.12,1.26c4.23,5.42,8.12,6.31,12.41,6.84
		c3.41,0.42,6.29-2.03,7.71-3.53c0.38-0.4,0.81-0.72,1.28-0.95l2.84-1.37c0.54-0.26,0.92-0.74,1.06-1.33s-0.01-1.19-0.38-1.65
		c-1.54-1.93-2.34-4.35-2.25-6.82l0.11-3c0.04-1.11,0.48-2.17,1.24-2.99l2.41-2.59c0.35-0.38,0.49-0.9,0.37-1.4
		c-0.12-0.5-0.47-0.91-0.95-1.09l-3.78-1.45c-0.19-0.07-0.35-0.21-0.43-0.37c-2.57-4.91-8.54-5.75-9.37-5.84
		c-3.98-1.07-9.75,2.4-11.28,6.8c-0.56,1.61-1.02,1.72-1.03,1.72c-0.05,0.01-0.18-0.07-0.29-0.17c-0.12-1.86-0.12-3.58-0.04-5.2
		c0.34-6.48,2.1-11.22,3.82-15.44c0.14-0.35,0.29-0.7,0.43-1.05c0.2-0.5,0.4-0.98,0.6-1.46c1.36-3.37,2.4-6.41,2.17-9.78
		c-0.33-4.78-3.07-9.38-5.72-13.83c-2.32-3.89-4.5-7.56-4.61-10.7c-0.13-3.79,0.94-7.25,1.85-9.49c0.4-0.97,0.96-1.88,1.66-2.69
		c0.9-1.04,1.96-2.68,1.88-4.61c0-0.06-0.03-0.11-0.04-0.16c0.06-0.07,0.12-0.15,0.16-0.25l8.03-17.15
		c0.02-0.03,0.02-0.07,0.02-0.11V5.62c0-0.07-0.03-0.14-0.08-0.19s-0.11-0.08-0.19-0.08l-17.7,0c-0.14,0-0.26,0.12-0.26,0.26v59.26
		c0,0.04,0.01,0.08,0.02,0.11l8.07,17.15c0.04,0.09,0.1,0.17,0.16,0.24c-0.02,0.08-0.04,0.16-0.04,0.25
		c0.05,1.32-0.75,2.54-1.43,3.33c-0.84,0.97-1.5,2.04-1.97,3.2c-0.98,2.41-2.13,6.14-1.99,10.25c0.03,0.9,0.2,1.82,0.47,2.76
		c0.81,2.81,2.57,5.75,4.4,8.82c2.54,4.26,5.17,8.67,5.47,13.01c0.24,3.42-1.09,6.67-2.63,10.42c-1.83,4.46-4.02,9.81-4.39,17.29
		c-0.06,1.15-0.07,2.35-0.03,3.61c0.02,0.63,0.05,1.27,0.1,1.93c0.01,0.17,0.07,0.32,0.16,0.46c0.09,0.13,0.92,1.27,2.19,1.1
		c1.06-0.15,1.88-1.11,2.52-2.94c1.21-3.49,6.07-6.48,9.12-5.61c0.05,0.02,0.11,0.03,0.17,0.03c0.06,0.01,5.77,0.6,8,4.87
		c0.29,0.56,0.79,1,1.4,1.24l3.38,1.3l-2.11,2.28c-1.06,1.14-1.67,2.62-1.73,4.17l-0.11,3c-0.11,2.91,0.83,5.77,2.65,8.04l0.72-0.57
		l-0.76,0.75l-2.84,1.37c-0.67,0.32-1.28,0.78-1.82,1.34c-0.94,1-3.43,3.3-6.14,2.96c-4.01-0.5-7.38-1.27-11.18-6.15
		c-1.12-1.43-2.31-2.69-3.47-2.17c-1.16,0.52-1.09,2.23-0.61,4.81l0.02,0.12c0.03,0.19,0.09,0.37,0.16,0.55
		c0.29,0.72,1.81,4.46,3.02,7.2c1.09,2.49-0.1,4.89-0.1,4.89c-0.03,0.05-3.07,5.53-9.32,10.74c-7.09,5.91-5.35,13.57-3.4,16.35
		c0.78,1.12,2.02,1.95,3.21,2.75c2.23,1.5,3.57,2.54,3.32,4.42c-0.01,0.1-0.01,0.2,0.01,0.3c0.06,0.29,0.25,0.54,0.53,0.67
		c0.37,0.16,0.81,0.06,1.08-0.25c0.03-0.03,0.07-0.09,0.14-0.17c0.47-0.57,1.83-2.31,2.32-3.64c0.32-0.11,1.05-0.21,1.66-0.3
		c3.22-0.46,9.17-1.3,9.7-7.85c0.82,2.56,0.75,22.47-2.33,31.52C63.14,245.28,63.39,245.8,63.88,245.97z"/>
	<path fill="#ECE8A0" d="M112.51,245.97c0.1,0.03,0.2,0.05,0.3,0.05c0.38,0,0.74-0.24,0.87-0.62c1.29-3.79,2.15-10.14,2.58-16.29
		c0.55-7.91,0.39-15.51-0.48-16.94c-0.14-0.22-0.45-0.73-0.92-1.04c-0.28-0.18-0.62-0.29-1.01-0.22c-1.02,0.19-1.31,1.45-1.38,1.83
		c-0.01,0.04-0.01,0.07-0.01,0.11c-0.27,5.35-5.01,6.02-8.14,6.46c-1.68,0.24-2.79,0.4-3.08,1.36c-0.13,0.45-0.48,1.05-0.88,1.64
		c-0.7-1.64-2.32-2.73-3.81-3.73c-1.1-0.74-2.15-1.44-2.73-2.28c-1.63-2.33-3.03-8.8,3.07-13.88c6.54-5.45,9.63-11.04,9.77-11.29
		c0.07-0.13,1.62-3.18,0.16-6.49c-1.19-2.71-2.71-6.44-3-7.16c-0.03-0.06-0.04-0.12-0.05-0.19l-0.02-0.12
		c-0.24-1.27-0.3-2.01-0.3-2.44c0.25,0.23,0.61,0.61,1.12,1.26c4.23,5.42,8.12,6.31,12.41,6.84c3.41,0.42,6.3-2.03,7.71-3.53
		c0.38-0.4,0.81-0.72,1.28-0.95l2.84-1.37c0.54-0.26,0.92-0.74,1.06-1.33s-0.01-1.19-0.38-1.65c-1.54-1.93-2.34-4.35-2.25-6.82
		l0.11-3c0.04-1.11,0.48-2.17,1.24-2.99l2.41-2.59c0.35-0.38,0.49-0.9,0.37-1.4c-0.12-0.5-0.47-0.91-0.95-1.09l-3.78-1.45
		c-0.19-0.07-0.35-0.21-0.43-0.37c-2.57-4.91-8.54-5.75-9.37-5.84c-3.98-1.07-9.75,2.4-11.28,6.8c-0.56,1.61-1.02,1.72-1.03,1.72
		c-0.05,0.01-0.18-0.07-0.29-0.17c-0.08-1.24-0.11-2.42-0.09-3.55c0.11-7.9,2.32-13.3,4.31-18.15c1.63-3.97,3.03-7.4,2.77-11.25
		c-0.33-4.78-3.07-9.38-5.72-13.83c-2.32-3.89-4.5-7.56-4.61-10.7c-0.13-3.79,0.94-7.25,1.85-9.49c0.4-0.97,0.96-1.88,1.66-2.69
		c0.9-1.04,1.96-2.68,1.88-4.61c0-0.06-0.03-0.11-0.04-0.16c0.06-0.07,0.12-0.16,0.17-0.25l8.03-17.15
		c0.02-0.03,0.02-0.07,0.02-0.11V5.62c0-0.14-0.12-0.26-0.26-0.26l-17.7,0c-0.14,0-0.26,0.12-0.26,0.26v59.26
		c0,0.04,0.01,0.08,0.02,0.11l8.07,17.15c0.04,0.09,0.1,0.17,0.16,0.24c-0.02,0.08-0.04,0.16-0.04,0.25
		c0.05,1.32-0.75,2.54-1.43,3.33c-0.84,0.97-1.5,2.04-1.97,3.2c-0.98,2.41-2.13,6.14-1.99,10.25c0.12,3.62,2.43,7.49,4.87,11.58
		c2.54,4.26,5.17,8.67,5.47,13.01c0.24,3.42-1.09,6.67-2.63,10.42c-2.25,5.49-5.05,12.32-4.33,22.82c0.01,0.17,0.07,0.32,0.16,0.46
		c0.09,0.13,0.93,1.27,2.19,1.1c1.06-0.15,1.88-1.11,2.52-2.94c1.21-3.49,6.07-6.48,9.12-5.61c0.05,0.02,0.11,0.03,0.17,0.03
		c0.06,0.01,5.77,0.6,8,4.87c0.29,0.56,0.79,1,1.4,1.24l3.38,1.3l-2.11,2.28c-1.06,1.14-1.67,2.62-1.73,4.17l-0.11,3
		c-0.11,2.91,0.83,5.77,2.65,8.04l-0.04,0.17l-2.84,1.37c-0.67,0.32-1.28,0.78-1.82,1.34c-0.94,1-3.43,3.3-6.14,2.96
		c-4.01-0.5-7.38-1.27-11.18-6.15c-1.12-1.43-2.31-2.69-3.47-2.17c-1.16,0.52-1.09,2.23-0.61,4.81l0.02,0.11
		c0.03,0.19,0.09,0.37,0.16,0.55c0.29,0.72,1.82,4.47,3.02,7.2c1.09,2.49-0.1,4.89-0.1,4.89c-0.03,0.05-3.07,5.53-9.32,10.74
		c-7.09,5.91-5.35,13.57-3.4,16.35c0.78,1.12,2.02,1.95,3.21,2.75c2.23,1.5,3.57,2.54,3.32,4.42c-0.05,0.41,0.17,0.8,0.54,0.96
		c0.37,0.16,0.81,0.06,1.08-0.25c0.2-0.24,1.9-2.28,2.46-3.81c0.32-0.11,1.05-0.21,1.66-0.3c3.22-0.46,9.17-1.3,9.7-7.85
		c0.82,2.56,0.75,22.47-2.33,31.52C111.77,245.28,112.03,245.8,112.51,245.97z"/>
	<path fill="#A1D1E1" d="M163.94,212.55c-0.22-0.36-0.88-1.45-1.93-1.25c-1.02,0.19-1.31,1.45-1.38,1.83l-0.01,0.11
		c-0.27,5.35-5.01,6.02-8.14,6.46c-1.68,0.24-2.79,0.4-3.08,1.36c-0.13,0.45-0.48,1.05-0.88,1.64c-0.7-1.64-2.32-2.73-3.81-3.73
		c-1.1-0.74-2.15-1.44-2.73-2.28c-1.63-2.33-3.03-8.8,3.07-13.88c6.54-5.45,9.63-11.04,9.76-11.29c0.02-0.03,0.13-0.25,0.26-0.6
		c0.07-0.18,0.14-0.39,0.21-0.63c0.03-0.12,0.07-0.25,0.1-0.39c0.28-1.22,0.42-3.01-0.4-4.87c-1.19-2.72-2.71-6.44-3-7.15
		c-0.03-0.06-0.04-0.12-0.05-0.19l-0.02-0.12c-0.24-1.27-0.3-2.01-0.3-2.44c0.25,0.23,0.61,0.61,1.12,1.26
		c2.91,3.73,5.66,5.31,8.48,6.11c1.28,0.36,2.58,0.56,3.92,0.73c3.41,0.42,6.29-2.03,7.71-3.53c0.38-0.4,0.81-0.72,1.28-0.95
		l2.84-1.37c0.54-0.26,0.92-0.74,1.06-1.33s-0.01-1.19-0.38-1.65c-0.58-0.72-1.05-1.52-1.42-2.36c-0.6-1.4-0.89-2.92-0.84-4.47
		l0.11-3c0.04-1.11,0.48-2.17,1.24-2.99l2.41-2.59c0.35-0.38,0.49-0.9,0.37-1.4c-0.12-0.5-0.47-0.91-0.95-1.1l-3.78-1.45
		c-0.19-0.07-0.35-0.21-0.43-0.37c-2.57-4.91-8.54-5.75-9.37-5.84c-3.98-1.07-9.75,2.4-11.28,6.8c-0.56,1.61-1.02,1.72-1.03,1.72
		c-0.05,0.01-0.18-0.07-0.29-0.17c-0.58-9.28,1.64-15.36,3.79-20.64c0.14-0.35,0.29-0.7,0.43-1.05c1.63-3.97,3.03-7.4,2.77-11.25
		c-0.33-4.78-3.07-9.38-5.72-13.83c-2.32-3.89-4.5-7.56-4.61-10.7c-0.02-0.47-0.01-0.94,0.01-1.4c0.13-3.23,1.05-6.13,1.85-8.09
		c0.3-0.73,0.69-1.42,1.16-2.06c0.16-0.21,0.33-0.42,0.5-0.63c0.9-1.04,1.96-2.68,1.88-4.61l-0.22,0.01
		c0.14-0.11,0.27-0.24,0.35-0.42l8.03-17.15c0.02-0.03,0.02-0.07,0.02-0.11V6.01c0-0.07-0.03-0.14-0.08-0.19
		c-0.05-0.05-0.11-0.08-0.19-0.08l-17.7,0c-0.07,0-0.14,0.03-0.19,0.08s-0.08,0.11-0.08,0.19v0v59.26c0,0.04,0.01,0.08,0.02,0.11
		l8.07,17.15c0.05,0.11,0.12,0.21,0.19,0.29c0.07,0.07,0.14,0.13,0.22,0.18l-0.3,0.01c0.05,1.32-0.75,2.54-1.43,3.33
		c-0.84,0.97-1.5,2.04-1.97,3.2c-0.98,2.41-2.13,6.14-1.99,10.25c0.12,3.62,2.43,7.49,4.87,11.58c2.54,4.26,5.17,8.67,5.47,13.01
		c0.24,3.42-1.09,6.67-2.63,10.42c-2.25,5.49-5.05,12.32-4.33,22.82l0.02,0.25l0.14,0.21c0.08,0.11,0.73,1,1.74,1.1
		c0.14,0.01,0.3,0.01,0.45-0.01c0.13-0.02,0.26-0.05,0.39-0.09c0.87-0.31,1.57-1.25,2.13-2.85c1.21-3.49,6.07-6.48,9.12-5.61
		l0.17,0.03c0.06,0.01,5.77,0.6,8,4.87c0.29,0.56,0.79,1,1.4,1.24l3.38,1.3l-2.11,2.28c-1.06,1.14-1.67,2.62-1.73,4.17l-0.11,3
		c-0.11,2.91,0.83,5.77,2.65,8.04l0.72-0.57l-0.76,0.75l-2.84,1.37c-0.67,0.32-1.28,0.78-1.82,1.34c-0.94,1-3.43,3.3-6.14,2.96
		c-1.5-0.19-2.92-0.41-4.3-0.88c-2.3-0.78-4.51-2.22-6.89-5.27c-1.12-1.43-2.31-2.69-3.47-2.17c-1.16,0.52-1.09,2.23-0.61,4.81
		l0.02,0.12c0.03,0.19,0.09,0.37,0.16,0.55c0.29,0.72,1.81,4.46,3.02,7.2c1.09,2.49-0.1,4.89-0.1,4.89
		c-0.03,0.05-3.05,5.52-9.32,10.74c-7.09,5.91-5.35,13.57-3.4,16.35c0.78,1.12,2.02,1.95,3.21,2.75c2.23,1.5,3.57,2.54,3.32,4.42
		l-0.42,3.13l2.03-2.42c0.2-0.24,1.9-2.28,2.46-3.81c0.32-0.11,1.05-0.21,1.66-0.3c3.22-0.46,9.17-1.3,9.7-7.85
		c0.82,2.56,0.75,22.47-2.33,31.52l1.74,0.59C164.8,237.12,165.5,215.1,163.94,212.55z"/>
	<path fill="#A5D2A1" d="M18.97,461.03c-0.22-0.36-0.88-1.46-1.93-1.25c-1.02,0.19-1.31,1.45-1.38,1.83l-0.01,0.11
		c-0.27,5.35-5.01,6.02-8.14,6.46c-1.68,0.24-2.79,0.39-3.08,1.36c-0.13,0.45-0.48,1.05-0.88,1.64c-0.44-1.02-1.24-1.83-2.13-2.54
		c-0.46-0.36-0.94-0.69-1.41-1.01v2.26c1.43,1.07,2.22,2.04,2.03,3.51l-0.42,3.13l2.03-2.42c0.2-0.24,1.9-2.28,2.46-3.81
		c0.32-0.11,1.05-0.21,1.66-0.3c3.22-0.46,9.17-1.3,9.7-7.85c0.82,2.56,0.75,22.47-2.33,31.52l1.74,0.59
		C19.82,485.6,20.52,463.58,18.97,461.03z"/>
	<path fill="#F09BA5" d="M63.88,494.45c0.1,0.03,0.2,0.05,0.3,0.05c0.38,0,0.74-0.24,0.87-0.62c2.95-8.66,3.65-30.68,2.1-33.23
		c-0.22-0.36-0.88-1.46-1.93-1.25c-1.02,0.19-1.31,1.45-1.38,1.83c-0.01,0.04-0.01,0.07-0.01,0.11c-0.27,5.35-5.01,6.02-8.14,6.46
		c-1.68,0.24-2.79,0.39-3.08,1.36c-0.13,0.45-0.48,1.05-0.88,1.64c-0.7-1.64-2.32-2.73-3.81-3.73c-1.1-0.74-2.15-1.44-2.73-2.28
		c-1.63-2.33-3.03-8.79,3.07-13.88c6.13-5.11,9.23-10.34,9.7-11.18c0.03-0.06,0.05-0.09,0.06-0.11c0.07-0.13,1.62-3.18,0.16-6.5
		c-1.2-2.73-2.71-6.44-3-7.15c-0.03-0.07-0.04-0.13-0.06-0.19l-0.02-0.12c-0.24-1.27-0.3-2.01-0.3-2.44
		c0.25,0.23,0.61,0.61,1.12,1.26c4.23,5.42,8.12,6.31,12.41,6.84c3.42,0.43,6.3-2.03,7.71-3.53c0.38-0.4,0.81-0.72,1.28-0.95
		l2.84-1.37c0.54-0.26,0.92-0.74,1.06-1.33c0.13-0.58-0.01-1.19-0.38-1.65c-1.54-1.93-2.34-4.35-2.25-6.82l0.11-3
		c0.04-1.11,0.48-2.17,1.24-2.99l2.41-2.59c0.35-0.38,0.49-0.9,0.37-1.4c-0.12-0.5-0.47-0.91-0.95-1.1l-3.78-1.45
		c-0.19-0.07-0.34-0.2-0.43-0.37c-2.57-4.91-8.54-5.75-9.37-5.84c-3.98-1.07-9.75,2.4-11.28,6.8c-0.56,1.61-1.02,1.72-1.03,1.72
		c-0.05,0.02-0.18-0.07-0.29-0.17c-0.62-9.9,1.95-16.16,4.22-21.69c1.63-3.97,3.03-7.4,2.77-11.25c-0.33-4.78-3.07-9.38-5.72-13.83
		c-2.32-3.89-4.5-7.56-4.61-10.7c-0.13-3.79,0.94-7.25,1.85-9.49c0.4-0.97,0.96-1.88,1.66-2.69c0.9-1.04,1.96-2.68,1.88-4.61
		c0-0.06-0.03-0.11-0.04-0.16c0.06-0.07,0.12-0.15,0.16-0.25l8.03-17.15c0.02-0.03,0.02-0.07,0.02-0.11V254.1
		c0-0.07-0.03-0.14-0.08-0.19s-0.11-0.08-0.19-0.08l-17.7,0c-0.14,0-0.26,0.12-0.26,0.26v59.26c0,0.04,0.01,0.08,0.02,0.11
		l8.07,17.15c0.04,0.09,0.1,0.17,0.16,0.24c-0.02,0.08-0.04,0.16-0.04,0.25c0.05,1.32-0.75,2.54-1.43,3.33
		c-0.84,0.97-1.5,2.04-1.97,3.2c-0.98,2.41-2.13,6.14-1.99,10.25c0.02,0.45,0.06,0.91,0.14,1.37c0.56,3.22,2.59,6.63,4.72,10.21
		c2.54,4.26,5.17,8.67,5.47,13.01c0.24,3.42-1.09,6.67-2.63,10.42c-2.25,5.49-5.05,12.32-4.33,22.82c0.01,0.17,0.07,0.33,0.16,0.46
		c0.09,0.13,0.92,1.27,2.19,1.1c1.06-0.15,1.88-1.11,2.52-2.94c1.21-3.49,6.07-6.48,9.12-5.61c0.06,0.02,0.11,0.03,0.17,0.03
		c0.06,0,5.76,0.58,8,4.87c0.29,0.56,0.79,1,1.4,1.23l3.38,1.3l-2.11,2.28c-1.06,1.14-1.67,2.62-1.73,4.17l-0.11,3
		c-0.11,2.91,0.83,5.77,2.65,8.04c0,0-0.04,0.18-0.04,0.18l-2.84,1.37c-0.67,0.33-1.28,0.78-1.82,1.34c-0.94,1-3.43,3.31-6.14,2.96
		c-4.01-0.5-7.38-1.27-11.18-6.15c-1.12-1.43-2.31-2.69-3.47-2.17c-1.16,0.52-1.09,2.23-0.61,4.81l0.02,0.12
		c0.03,0.19,0.09,0.37,0.16,0.55c0.29,0.72,1.81,4.45,3.02,7.2c0.27,0.62,0.4,1.24,0.44,1.81c0.13,1.72-0.55,3.07-0.55,3.08
		c-0.03,0.06-3.07,5.53-9.32,10.74c-7.09,5.91-5.35,13.57-3.4,16.35c0.78,1.12,2.02,1.95,3.21,2.75c2.23,1.5,3.56,2.54,3.31,4.42
		c-0.05,0.41,0.17,0.8,0.54,0.96c0.09,0.04,0.19,0.07,0.29,0.07c0.29,0.03,0.59-0.09,0.79-0.32c0.2-0.24,1.9-2.28,2.46-3.81
		c0.32-0.11,1.05-0.21,1.66-0.3c3.22-0.46,9.17-1.3,9.7-7.85c0.82,2.56,0.75,22.47-2.33,31.52
		C63.14,493.76,63.39,494.29,63.88,494.45z"/>
	<path fill="#ECE8A0" d="M112.51,494.45c0.1,0.03,0.2,0.05,0.3,0.05c0.38,0,0.74-0.24,0.87-0.62c2.95-8.66,3.65-30.68,2.1-33.23
		c-0.22-0.36-0.88-1.46-1.93-1.25c-1.02,0.19-1.31,1.45-1.38,1.83c-0.01,0.04-0.01,0.07-0.01,0.11c-0.27,5.35-5.01,6.02-8.14,6.46
		c-1.68,0.24-2.79,0.39-3.08,1.36c-0.13,0.45-0.48,1.05-0.88,1.64c-0.7-1.64-2.32-2.73-3.81-3.73c-1.1-0.74-2.15-1.44-2.73-2.28
		c-1.63-2.33-3.03-8.8,3.07-13.88c6.13-5.11,9.23-10.34,9.7-11.18c0.03-0.06,0.05-0.09,0.06-0.11c0.07-0.13,1.62-3.18,0.16-6.5
		c-1.19-2.71-2.71-6.44-3-7.16c-0.03-0.06-0.04-0.12-0.05-0.19l-0.02-0.12c-0.24-1.27-0.3-2.01-0.3-2.44
		c0.25,0.23,0.61,0.61,1.12,1.26c4.23,5.42,8.12,6.31,12.41,6.84c3.42,0.43,6.3-2.03,7.71-3.53c0.38-0.4,0.81-0.72,1.28-0.95
		l2.84-1.37c0.54-0.26,0.92-0.74,1.06-1.33s-0.01-1.19-0.38-1.65c-1.54-1.93-2.34-4.35-2.25-6.82l0.11-3
		c0.04-1.11,0.48-2.17,1.24-2.99l2.41-2.59c0.35-0.38,0.49-0.9,0.38-1.4c-0.12-0.5-0.47-0.91-0.95-1.1l-3.78-1.45
		c-0.19-0.07-0.34-0.2-0.43-0.37c-2.57-4.91-8.54-5.75-9.37-5.84c-3.98-1.07-9.75,2.4-11.28,6.8c-0.56,1.61-1.02,1.72-1.03,1.72
		c-0.05,0.02-0.18-0.07-0.29-0.17c-0.62-9.9,1.95-16.16,4.22-21.69c1.63-3.97,3.03-7.4,2.77-11.25c-0.33-4.78-3.07-9.38-5.72-13.83
		c-2.32-3.89-4.5-7.56-4.61-10.7c-0.13-3.79,0.94-7.25,1.85-9.49c0.1-0.24,0.21-0.48,0.33-0.71c0.36-0.7,0.8-1.37,1.33-1.98
		c0.9-1.04,1.96-2.68,1.88-4.61c0-0.06-0.03-0.11-0.04-0.16c0.06-0.07,0.12-0.15,0.17-0.25l8.03-17.15
		c0.02-0.03,0.02-0.07,0.02-0.11V254.1c0-0.14-0.12-0.26-0.26-0.26l-17.7,0c-0.14,0-0.26,0.12-0.26,0.26v59.26
		c0,0.04,0.01,0.08,0.02,0.11l8.07,17.15c0.04,0.09,0.1,0.17,0.16,0.24c-0.02,0.08-0.04,0.16-0.04,0.25
		c0.05,1.32-0.75,2.54-1.43,3.33c-0.21,0.24-0.41,0.49-0.6,0.75c-0.56,0.77-1.02,1.59-1.38,2.45c-0.98,2.41-2.13,6.14-1.99,10.25
		c0.12,3.62,2.43,7.49,4.87,11.58c2.54,4.26,5.17,8.67,5.47,13.01c0.24,3.42-1.09,6.67-2.63,10.42c-2.25,5.49-5.05,12.32-4.33,22.82
		c0.01,0.17,0.07,0.33,0.16,0.46c0.09,0.13,0.93,1.27,2.19,1.1c1.06-0.15,1.88-1.11,2.52-2.94c1.21-3.49,6.07-6.48,9.12-5.61
		c0.06,0.02,0.11,0.03,0.17,0.03c0.06,0,5.76,0.58,8,4.87c0.29,0.56,0.79,1,1.4,1.24l3.38,1.3l-2.11,2.28
		c-1.06,1.14-1.67,2.62-1.73,4.17l-0.11,3c-0.11,2.91,0.83,5.77,2.65,8.04c0,0-0.04,0.17-0.04,0.18l-2.84,1.37
		c-0.67,0.32-1.28,0.78-1.82,1.34c-0.94,1-3.44,3.31-6.14,2.96c-4.01-0.5-7.38-1.27-11.18-6.15c-1.12-1.43-2.31-2.69-3.47-2.17
		c-1.16,0.52-1.09,2.23-0.61,4.81l0.02,0.11c0.03,0.19,0.09,0.37,0.16,0.55c0.29,0.72,1.82,4.47,3.02,7.2
		c0.27,0.62,0.4,1.24,0.45,1.81c0.13,1.72-0.55,3.07-0.55,3.08c-0.03,0.06-3.07,5.53-9.32,10.74c-7.09,5.91-5.35,13.57-3.4,16.35
		c0.78,1.12,2.02,1.95,3.21,2.75c2.23,1.5,3.57,2.54,3.31,4.42c-0.05,0.41,0.17,0.8,0.54,0.96c0.37,0.16,0.81,0.06,1.08-0.25
		c0.2-0.24,1.9-2.28,2.46-3.81c0.32-0.11,1.05-0.21,1.66-0.3c3.22-0.46,9.17-1.3,9.7-7.85c0.82,2.56,0.75,22.47-2.33,31.52
		C111.77,493.76,112.03,494.29,112.51,494.45z"/>
	<path fill="#A1D1E1" d="M163.95,461.03c-0.22-0.36-0.89-1.46-1.93-1.25c-1.02,0.19-1.31,1.45-1.38,1.83l-0.01,0.11
		c-0.27,5.35-5.01,6.02-8.14,6.46c-1.68,0.24-2.79,0.39-3.08,1.36c-0.13,0.45-0.48,1.05-0.88,1.64c-0.7-1.64-2.32-2.73-3.81-3.73
		c-1.1-0.74-2.15-1.44-2.73-2.28c-1.63-2.33-3.03-8.79,3.07-13.88c6.54-5.45,9.63-11.04,9.76-11.29c0.07-0.13,1.62-3.18,0.16-6.5
		c-1.2-2.73-2.71-6.44-3-7.15c-0.03-0.06-0.04-0.12-0.06-0.19l-0.02-0.12c-0.24-1.27-0.3-2.01-0.3-2.44
		c0.25,0.23,0.61,0.61,1.12,1.26c3.17,4.07,6.16,5.58,9.26,6.31c0.26,0.06,0.52,0.12,0.78,0.17c0.52,0.1,1.04,0.19,1.57,0.26
		c0.26,0.04,0.53,0.07,0.8,0.11c3.41,0.43,6.3-2.03,7.71-3.53c0.38-0.4,0.81-0.72,1.28-0.95l2.84-1.37
		c0.54-0.26,0.92-0.74,1.06-1.33s-0.01-1.19-0.38-1.65c-1.54-1.93-2.34-4.35-2.25-6.82l0.11-3c0.04-1.11,0.48-2.17,1.24-2.99
		l2.41-2.59c0.35-0.38,0.49-0.9,0.37-1.4c-0.12-0.5-0.47-0.91-0.95-1.1l-3.78-1.45c-0.19-0.07-0.34-0.2-0.43-0.37
		c-2.57-4.91-8.54-5.75-9.37-5.84c-3.98-1.07-9.75,2.4-11.28,6.8c-0.56,1.61-1.02,1.72-1.03,1.72c-0.05,0.03-0.18-0.07-0.29-0.17
		c-0.62-9.9,1.95-16.16,4.22-21.69c1.63-3.97,3.03-7.4,2.77-11.25c-0.33-4.78-3.07-9.38-5.72-13.83c-2.32-3.89-4.5-7.56-4.61-10.7
		c-0.03-0.95,0.01-1.87,0.11-2.76c0.29-2.68,1.06-5.05,1.75-6.73c0.4-0.97,0.96-1.87,1.66-2.69c0.9-1.04,1.96-2.69,1.88-4.61
		l-0.22,0.01c0.05-0.04,0.11-0.08,0.16-0.13c0.07-0.08,0.14-0.18,0.19-0.29l8.03-17.15c0.02-0.03,0.02-0.07,0.02-0.11v-59.26
		c0-0.07-0.03-0.14-0.08-0.19c-0.05-0.05-0.11-0.08-0.19-0.08l-17.7,0c-0.14,0-0.26,0.12-0.26,0.26v0v59.26
		c0,0.04,0.01,0.08,0.02,0.11l8.07,17.15c0.1,0.21,0.24,0.36,0.41,0.47l-0.29,0.01c0.05,1.32-0.75,2.54-1.43,3.33
		c-0.84,0.97-1.5,2.05-1.97,3.2c-0.98,2.41-2.13,6.14-1.99,10.25c0.12,3.62,2.43,7.49,4.87,11.58c2.54,4.26,5.17,8.67,5.47,13.01
		c0.24,3.42-1.09,6.67-2.63,10.42c-2.25,5.49-5.05,12.32-4.33,22.82l0.02,0.25l0.14,0.21c0.09,0.13,0.92,1.26,2.19,1.1
		c1.06-0.15,1.88-1.11,2.52-2.94c1.21-3.49,6.07-6.48,9.12-5.61l0.17,0.03c0.06,0,5.76,0.58,8,4.87c0.29,0.56,0.79,1,1.4,1.23
		l3.38,1.3l-2.11,2.28c-1.06,1.14-1.67,2.62-1.73,4.17l-0.11,3c-0.11,2.91,0.83,5.77,2.65,8.04l-0.04,0.18l-2.84,1.37
		c-0.67,0.32-1.28,0.78-1.82,1.34c-0.94,1-3.44,3.31-6.14,2.96c-0.25-0.03-0.5-0.06-0.74-0.1c-3.69-0.52-6.87-1.48-10.44-6.05
		c-1.12-1.43-2.31-2.69-3.47-2.17c-1.16,0.52-1.09,2.23-0.61,4.81l0.02,0.11c0.03,0.19,0.09,0.37,0.16,0.55
		c0.29,0.72,1.81,4.45,3.02,7.2c1.09,2.49-0.1,4.89-0.1,4.89c-0.03,0.05-3.07,5.53-9.32,10.74c-7.09,5.91-5.35,13.57-3.4,16.35
		c0.78,1.12,2.02,1.95,3.21,2.75c2.23,1.5,3.56,2.54,3.31,4.42l-0.42,3.13l2.03-2.42c0.2-0.24,1.9-2.29,2.46-3.81
		c0.32-0.11,1.05-0.21,1.66-0.3c3.22-0.46,9.17-1.3,9.7-7.85c0.82,2.56,0.75,22.47-2.33,31.52l1.74,0.59
		C164.8,485.6,165.5,463.58,163.95,461.03z"/>
	<path fill="#A5D2A1" d="M8.22,190.65c-0.03,0.05-2.35,4.25-7.12,8.79c-0.35,0.33-0.72,0.67-1.1,1.01v2.43
		c0.03-0.02,0.05-0.05,0.08-0.07c0.82-0.68,1.58-1.36,2.29-2.04c4.97-4.72,7.35-9.03,7.47-9.25c0.02-0.04,0.19-0.37,0.36-0.9
		c0.31-0.95,0.65-2.57,0.22-4.37c-0.1-0.4-0.23-0.81-0.41-1.23c-1.13-2.58-2.58-6.13-3-7.15c-0.03-0.06-0.04-0.12-0.05-0.19
		l-0.02-0.12c-0.24-1.27-0.3-2.01-0.3-2.44c0.25,0.23,0.61,0.61,1.12,1.26c4.23,5.42,8.12,6.31,12.41,6.84
		c3.42,0.43,6.3-2.03,7.71-3.53c0.38-0.4,0.81-0.72,1.28-0.95l2.84-1.37c0.54-0.26,0.92-0.74,1.06-1.33s-0.01-1.19-0.38-1.65
		c-0.39-0.48-0.73-1-1.02-1.53c-0.87-1.61-1.3-3.44-1.24-5.29l0.11-3c0.04-1.11,0.48-2.17,1.24-2.99l2.41-2.59
		c0.35-0.38,0.49-0.9,0.37-1.4c-0.12-0.5-0.47-0.91-0.95-1.09l-3.78-1.45c-0.19-0.07-0.35-0.21-0.43-0.37
		c-2.57-4.91-8.54-5.75-9.37-5.84c-3.98-1.07-9.75,2.4-11.28,6.8c-0.56,1.61-1.02,1.72-1.03,1.72c-0.05,0.01-0.18-0.07-0.29-0.17
		c-0.58-9.28,1.64-15.36,3.79-20.64c0.14-0.35,0.29-0.7,0.43-1.05c1.63-3.97,3.03-7.4,2.77-11.25c-0.33-4.78-3.07-9.38-5.72-13.83
		c-2.32-3.89-4.5-7.56-4.61-10.7C3.93,95.94,5,92.48,5.91,90.24c0.4-0.97,0.96-1.88,1.66-2.69c0.9-1.04,1.96-2.68,1.88-4.61
		l-0.22,0.01c0.14-0.11,0.27-0.24,0.35-0.42L16,68.81v0l1.61-3.43c0.02-0.03,0.02-0.07,0.02-0.11V6.01c0-0.07-0.03-0.14-0.08-0.19
		c-0.05-0.05-0.11-0.08-0.19-0.08l-1.37,0l0,0l-16,0v60.84l7.5,15.94c0.05,0.11,0.12,0.21,0.19,0.29c0.07,0.07,0.14,0.13,0.22,0.18
		l-0.3,0.01c0.05,1.32-0.75,2.54-1.43,3.33c-0.84,0.97-1.5,2.04-1.97,3.2c-0.98,2.41-2.13,6.14-1.99,10.25
		c0.12,3.62,2.43,7.49,4.87,11.58c2.54,4.26,5.17,8.67,5.47,13.01c0.24,3.42-1.09,6.67-2.63,10.42c-2.25,5.49-5.05,12.32-4.33,22.82
		l0.02,0.25l0.14,0.21c0.08,0.11,0.73,1,1.74,1.1c0.14,0.01,0.3,0.01,0.45-0.01c0.13-0.02,0.26-0.05,0.39-0.09
		c0.87-0.31,1.57-1.25,2.13-2.85c1.21-3.49,6.07-6.48,9.12-5.61l0.17,0.03c0.06,0.01,5.76,0.58,8,4.87c0.29,0.56,0.79,1,1.4,1.24
		l3.38,1.3l-2.11,2.28c-1.06,1.14-1.67,2.62-1.73,4.17l-0.11,3c-0.07,1.82,0.28,3.62,0.99,5.26c0.43,0.99,0.99,1.92,1.67,2.78
		l0.72-0.57l-0.76,0.75l-2.84,1.37c-0.67,0.32-1.28,0.78-1.82,1.34c-0.94,1-3.43,3.3-6.14,2.96c-4.01-0.5-7.38-1.27-11.18-6.15
		c-1.12-1.43-2.31-2.69-3.47-2.17c-1.16,0.52-1.09,2.23-0.61,4.81l0.02,0.12c0.03,0.19,0.09,0.37,0.16,0.55
		c0.42,1.03,1.88,4.6,3.02,7.2C9.42,188.25,8.22,190.65,8.22,190.65z"/>
	<path fill="#A5D2A1" d="M2.03,224.92l-0.42,3.13l2.03-2.42c0.18-0.21,1.5-1.8,2.2-3.22c0.1-0.2,0.19-0.4,0.26-0.59
		c0.32-0.11,1.05-0.21,1.65-0.3c3.22-0.46,9.17-1.3,9.7-7.85c0.82,2.56,0.75,22.47-2.33,31.52l1.74,0.59
		c2.95-8.66,3.65-30.68,2.1-33.23c-0.22-0.36-0.89-1.45-1.93-1.25c-1.02,0.19-1.31,1.45-1.38,1.83l-0.01,0.11
		c-0.27,5.35-5.01,6.02-8.14,6.46c-1.68,0.24-2.79,0.4-3.08,1.36c-0.13,0.45-0.48,1.05-0.88,1.64c-0.44-1.03-1.24-1.84-2.14-2.54
		c-0.46-0.36-0.94-0.69-1.41-1.01v2.26C1.43,222.48,2.22,223.44,2.03,224.92z"/>
	<path fill="#A5D2A1" d="M0.04,448.89c-0.01,0.01-0.03,0.02-0.04,0.03v2.43c0.03-0.02,0.05-0.05,0.08-0.07
		c0.82-0.68,1.58-1.36,2.29-2.04c4.97-4.72,7.35-9.03,7.47-9.25c0.05-0.1,1.09-2.14,0.69-4.68c-0.09-0.59-0.26-1.2-0.53-1.82
		c-1.13-2.58-2.58-6.13-3-7.15c-0.03-0.06-0.04-0.12-0.06-0.19l-0.02-0.12c-0.24-1.27-0.3-2.01-0.3-2.44
		c0.25,0.23,0.61,0.61,1.12,1.26c4.23,5.42,8.12,6.31,12.41,6.84c3.41,0.43,6.3-2.03,7.71-3.53c0.38-0.4,0.81-0.72,1.28-0.95
		l2.84-1.37c0.54-0.26,0.92-0.74,1.06-1.33s-0.01-1.19-0.38-1.65c-1.54-1.93-2.34-4.35-2.25-6.82l0.11-3
		c0.04-1.11,0.48-2.17,1.24-2.99l2.41-2.59c0.35-0.38,0.49-0.9,0.37-1.4c-0.12-0.5-0.47-0.91-0.95-1.1l-3.78-1.45
		c-0.19-0.07-0.34-0.2-0.43-0.37c-2.57-4.91-8.54-5.75-9.37-5.84c-3.98-1.07-9.75,2.4-11.28,6.8c-0.56,1.61-1.02,1.72-1.03,1.72
		c-0.05,0.03-0.18-0.07-0.29-0.17c-0.62-9.9,1.95-16.16,4.22-21.69c1.63-3.97,3.03-7.4,2.77-11.25c-0.33-4.78-3.07-9.38-5.72-13.83
		c-2.32-3.89-4.5-7.56-4.61-10.7c-0.13-3.79,0.94-7.25,1.85-9.49c0.4-0.97,0.96-1.88,1.66-2.69c0.9-1.04,1.96-2.69,1.88-4.61
		l-0.22,0.01c0.05-0.04,0.11-0.08,0.16-0.13c0.07-0.08,0.14-0.18,0.19-0.29L16,317.29v0l1.61-3.43c0.02-0.03,0.02-0.07,0.02-0.11
		v-59.26c0-0.07-0.03-0.14-0.08-0.19c-0.05-0.05-0.11-0.08-0.19-0.08l-1.37,0l0,0l-16,0v60.84l7.5,15.94
		c0.1,0.21,0.24,0.36,0.41,0.47l-0.29,0.01c0.05,1.32-0.75,2.54-1.43,3.33c-0.84,0.97-1.5,2.04-1.97,3.2
		c-0.98,2.41-2.13,6.14-1.99,10.25c0.12,3.62,2.43,7.49,4.87,11.58c2.54,4.26,5.17,8.67,5.47,13.01c0.24,3.42-1.09,6.67-2.63,10.42
		c-2.25,5.49-5.05,12.32-4.33,22.82l0.02,0.25l0.14,0.21c0.09,0.13,0.93,1.26,2.19,1.1c1.06-0.15,1.88-1.11,2.52-2.94
		c1.21-3.49,6.07-6.48,9.12-5.61l0.17,0.03c0.06,0,5.76,0.58,8,4.87c0.29,0.56,0.79,1,1.4,1.23l3.38,1.3l-2.11,2.28
		c-1.06,1.14-1.67,2.62-1.73,4.17l-0.11,3c-0.11,2.91,0.83,5.77,2.65,8.04l-0.04,0.18l-2.84,1.37c-0.67,0.32-1.28,0.78-1.82,1.34
		c-0.94,1-3.43,3.31-6.14,2.96c-4.01-0.5-7.38-1.27-11.18-6.15c-1.12-1.43-2.31-2.69-3.47-2.17c-1.16,0.52-1.09,2.23-0.61,4.81
		l0.02,0.11c0.03,0.19,0.09,0.37,0.16,0.55c0.42,1.03,1.88,4.6,3.02,7.2c0.14,0.31,0.24,0.62,0.31,0.93
		c0.5,2.13-0.41,3.96-0.41,3.97C8.19,439.18,5.54,443.99,0.04,448.89z"/>
</g>
</svg>
