<?xml version="1.0" encoding="utf-8"?>
<!-- Generator: Adobe Illustrator 21.1.0, SVG Export Plug-In . SVG Version: 6.00 Build 0)  -->
<svg version="1.1" id="レイヤー_1" xmlns="http://www.w3.org/2000/svg" xmlns:xlink="http://www.w3.org/1999/xlink" x="0px"
	 y="0px" viewBox="0 0 500 500" enable-background="new 0 0 500 500" xml:space="preserve">
<g>
	<ellipse fill="#D7E595" cx="445.78" cy="-43.13" rx="0" ry="0"/>
	<path fill="#EABF43" d="M445.8-43.12c-13.45-13.45-30.72-18.07-38.5-10.42l-30.07,30.07l0,0L347.17,6.6
		c-7.78,7.78-3.16,25.05,10.42,38.5l0,0c13.45,13.45,30.72,18.07,38.5,10.42l30.07-30.07l0,0l29.93-30.07
		C463.87-12.39,459.25-29.67,445.8-43.12L445.8-43.12L445.8-43.12z"/>
	<path fill="#EABF43" d="M432.35-79.78h-14.11C423.52-78.19,428.4-78.19,432.35-79.78z"/>
	<path fill="#FFFFFF" d="M445.8-43.12L445.8-43.12L445.8-43.12c13.45,13.45,30.72,18.07,38.5,10.42l32.7-32.7l14.24-14.37h-97.32
		C428.4-71.34,433.28-55.64,445.8-43.12z"/>
	<path fill="#D7E595" d="M543.39,54.6L543.39,54.6L543.39,54.6z"/>
	<path fill="#FFFFFF" d="M456.88-5.4l-30.72,30.72l0,0l-29.41,29.41c-7.78,7.78-3.16,25.05,10.42,38.5
		c13.45,13.45,30.72,18.07,38.5,10.42l29.27-29.27l0,0l30.72-30.72c7.78-7.78,3.16-24.92-10.42-38.5
		C481.8-8.44,464.66-13.05,456.88-5.4z"/>
	<path fill="#EABF43" d="M543.39,54.6L543.39,54.6L543.39,54.6c-13.45-13.45-30.72-18.07-38.5-10.42l-30.07,30.07l0,0l-30.07,30.07
		c-7.78,7.78-3.16,25.05,10.42,38.5l0,0c13.45,13.45,30.72,18.07,38.5,10.42l30.07-30.07l0,0L553.8,93.1
		C561.58,85.32,556.97,68.05,543.39,54.6L543.39,54.6L543.39,54.6z"/>
	<path fill="#EABF43" d="M517.01-65.53l-32.04,32.04c-7.78,7.78-3.16,25.05,10.42,38.5c13.45,13.45,30.72,18.07,38.5,10.42
		l45.76-45.89v-49.32h-48.39L517.01-65.53z"/>
	<path fill="#FFFFFF" d="M533.1,16.09c-7.78,7.78-3.16,25.05,10.42,38.5l0,0l0,0l0,0l0,0c12.26,12.26,27.69,17.27,36.26,12.13
		v-97.18L533.1,16.09z"/>
	<path fill="#D7E595" d="M543.39,54.6L543.39,54.6L543.39,54.6z"/>
	<path fill="#FFFFFF" d="M554.59,92.31l-30.72,30.72l0,0l-29.27,29.27c-7.78,7.78-3.16,25.05,10.42,38.5
		c13.45,13.45,30.72,18.07,38.5,10.42l29.27-29.27l0,0l6.99-6.99V92.84C569.63,87.56,559.87,87.03,554.59,92.31z"/>
	<path fill="#EABF43" d="M572.66,171.96L572.66,171.96l-30.07,30.07c-7.78,7.78-3.16,25.05,10.42,38.5l0,0
		c8.57,8.57,18.59,13.45,26.77,14.11v-89.67L572.66,171.96z"/>
	<path fill="#EABF43" d="M579.65,80.31V69.23C578.59,72.4,578.73,76.22,579.65,80.31z"/>
	<path fill="#D7E595" d="M73.28-61.31L73.28-61.31L73.28-61.31z"/>
	<path fill="#FFFFFF" d="M73.28-61.31L73.28-61.31L73.28-61.31L73.28-61.31L73.28-61.31c13.45,13.45,30.72,18.07,38.5,10.42
		l0.79-0.79l28.09-28.09H61.15C63.39-73.58,67.48-67.12,73.28-61.31z"/>
	<path fill="#D7E595" d="M73.28-61.31L73.28-61.31L73.28-61.31z"/>
	<ellipse fill="#D7E595" cx="171.03" cy="36.38" rx="0" ry="0"/>
	<path fill="#EABF43" d="M73.28-61.31L73.28-61.31L73.28-61.31c-13.45-13.45-30.72-18.2-38.5-10.42L4.85-41.67l0,0L-25.22-11.6
		C-33-3.82-28.38,13.45-14.8,26.9l0,0c13.45,13.45,30.72,18.07,38.5,10.42L53.64,7.26l0,0L83.7-22.81
		C91.48-30.59,86.73-47.86,73.28-61.31L73.28-61.31L73.28-61.31z"/>
	<path fill="#FFFFFF" d="M84.36-23.6L53.64,7.26l0,0L24.36,36.53c-7.78,7.78-3.16,25.05,10.42,38.5
		C48.23,88.48,65.5,93.1,73.28,85.45l29.27-29.27l0,0l30.72-30.72c7.78-7.78,3.16-24.92-10.42-38.5
		C109.42-26.63,92.14-31.38,84.36-23.6z"/>
	<path fill="#EABF43" d="M171,36.4c-13.45-13.45-30.72-18.07-38.5-10.42l-30.07,30.07l0,0L72.36,86.11
		c-7.78,7.78-3.16,25.05,10.42,38.5l0,0c13.45,13.45,30.72,18.07,38.5,10.42l30.07-30.07l0,0l30.07-30.07
		C189.06,66.99,184.45,49.85,171,36.4L171,36.4L171,36.4z"/>
	<path fill="#EABF43" d="M259.87-52.61L259.87-52.61c13.45,13.45,30.72,18.07,38.5,10.42l30.07-30.07l0,0l7.52-7.52H245.9
		C246.16-71.47,251.17-61.31,259.87-52.61z"/>
	<path fill="#EABF43" d="M112.58-51.69c-7.78,7.78-3.16,25.05,10.42,38.5c13.45,13.45,30.72,18.07,38.5,10.42l60.13-60.13
		c3.82-3.82,4.62-10.02,2.9-16.88H140.8L112.58-51.69z"/>
	<path fill="#FFFFFF" d="M160.58-2.11c-7.78,7.78-3.16,25.05,10.42,38.5l0,0l0,0c13.45,13.45,30.72,18.07,38.5,10.42l0.79-0.79
		l32.04-32.04l27.3-27.3c7.78-7.78,3.16-24.92-10.42-38.5l0,0l0,0c-13.45-13.45-30.72-18.07-38.5-10.42L160.58-2.11z"/>
	<path fill="#D7E595" d="M268.71,133.98L268.71,133.98L268.71,133.98z"/>
	<path fill="#FFFFFF" d="M182.07,74.11l-30.72,30.72l0,0l-29.27,29.27c-7.78,7.78-3.16,25.05,10.42,38.5
		c13.45,13.45,30.72,18.07,38.5,10.42l29.27-29.27l0,0L231,123.03c7.78-7.78,3.16-24.92-10.42-38.5
		C207.13,70.95,189.85,66.33,182.07,74.11z"/>
	<path fill="#EABF43" d="M268.71,133.98L268.71,133.98L268.71,133.98c-13.45-13.45-30.72-18.07-38.5-10.42l-30.07,30.07l0,0
		l-30.07,30.07c-7.78,7.78-3.16,25.05,10.42,38.5l0,0c13.45,13.45,30.72,18.07,38.5,10.42l30.07-30.07l0,0l30.07-30.07
		C286.77,164.7,282.16,147.56,268.71,133.98L268.71,133.98L268.71,133.98z"/>
	<path fill="#FFFFFF" d="M328.44-72.26l-29.27,29.27c-7.78,7.78-3.16,25.05,10.42,38.5c13.45,13.45,30.72,18.07,38.5,10.42
		l29.27-29.27l0,0l30.72-30.72c5.41-5.41,4.75-15.43-0.66-25.58h-71.47L328.44-72.26L328.44-72.26z"/>
	<path fill="#EABF43" d="M242.2,13.98l-32.04,32.04c-7.78,7.78-3.16,25.05,10.42,38.5c13.45,13.45,30.72,18.07,38.5,10.42
		l60.13-60.13c7.78-7.78,3.16-24.92-10.42-38.5c-13.45-13.45-30.72-18.07-38.5-10.42l-0.66,0.66L242.2,13.98z"/>
	<path fill="#D7E595" d="M366.29,231.69L366.29,231.69L366.29,231.69z"/>
	<path fill="#D7E595" d="M268.71,133.98L268.71,133.98L268.71,133.98z"/>
	<path fill="#FFFFFF" d="M279.79,171.82l-30.72,30.72l0,0l-29.41,29.27c-7.78,7.78-3.16,25.05,10.42,38.5
		c13.45,13.45,30.72,18.07,38.5,10.42l29.27-29.27l0,0l30.72-30.72c7.78-7.78,3.16-24.92-10.42-38.5
		C304.71,168.66,287.57,164.04,279.79,171.82z"/>
	<path fill="#EABF43" d="M366.29,231.69L366.29,231.69L366.29,231.69c-13.45-13.45-30.72-18.07-38.5-10.42l-30.07,30.07l0,0
		l-30.07,30.07c-7.78,7.78-3.16,25.05,10.42,38.5l0,0c13.45,13.45,30.72,18.07,38.5,10.42l30.07-30.07l0,0l30.07-30.07
		C384.49,262.42,379.87,245.14,366.29,231.69L366.29,231.69L366.29,231.69z"/>
	<path fill="#FFFFFF" d="M356.8,45.76L356.8,45.76L356.8,45.76c-13.45-13.45-30.72-18.07-38.5-10.42l-60,60.26
		c-7.78,7.78-3.16,25.05,10.42,38.5l0,0l0,0l0,0l0,0c13.45,13.45,30.72,18.07,38.5,10.42l32.7-32.7l27.3-27.3
		C374.99,76.49,370.38,59.34,356.8,45.76z"/>
	<path fill="#EABF43" d="M339.92,111.56l-32.04,32.04c-7.78,7.78-3.16,25.05,10.42,38.5c13.45,13.45,30.72,18.07,38.5,10.42
		l60.13-60.13c7.78-7.78,3.16-24.92-10.42-38.5c-13.45-13.45-30.72-18.07-38.5-10.42l-0.66,0.66L339.92,111.56z"/>
	<path fill="#D7E595" d="M366.29,231.69L366.29,231.69L366.29,231.69z"/>
	<path fill="#D7E595" d="M464,329.4L464,329.4L464,329.4z"/>
	<path fill="#FFFFFF" d="M377.37,269.4l-30.72,30.72l0,0l-29.27,29.27c-7.78,7.78-3.16,25.05,10.42,38.5
		c13.45,13.45,30.72,18.07,38.5,10.42l29.27-29.27l0,0l30.72-30.72c7.78-7.78,3.16-24.92-10.42-38.5
		C402.42,266.37,385.15,261.62,377.37,269.4z"/>
	<path fill="#EABF43" d="M464,329.4L464,329.4L464,329.4c-13.45-13.45-30.72-18.07-38.5-10.42l-30.07,30.07l0,0l-29.93,30.07
		c-7.78,7.78-3.16,25.05,10.42,38.5l0,0c13.45,13.45,30.72,18.07,38.5,10.42l30.07-30.07l0,0l30.07-30.07
		C482.07,360.13,477.45,342.85,464,329.4L464,329.4L464,329.4z"/>
	<path fill="#FFFFFF" d="M454.51,143.47L454.51,143.47L454.51,143.47c-13.45-13.45-30.72-18.07-38.5-10.42l-60,60.13
		c-7.78,7.78-3.16,25.05,10.42,38.5l0,0l0,0l0,0l0,0c13.45,13.45,30.72,18.07,38.5,10.42l32.7-32.7l27.3-27.3
		C472.57,174.2,467.96,156.92,454.51,143.47z"/>
	<path fill="#EABF43" d="M437.5,209.27l-31.91,32.04c-7.78,7.78-3.16,25.05,10.42,38.5c13.45,13.45,30.72,18.07,38.5,10.42
		l60.13-60.13c7.78-7.78,3.16-24.92-10.42-38.5c-13.45-13.45-30.72-18.07-38.5-10.42l-0.66,0.66L437.5,209.27z"/>
	<path fill="#D7E595" d="M561.71,426.98L561.71,426.98L561.71,426.98z"/>
	<path fill="#D7E595" d="M464,329.4L464,329.4L464,329.4z"/>
	<path fill="#FFFFFF" d="M475.08,367.12l-30.72,30.72l0,0l-29.27,29.27c-7.78,7.78-3.16,25.05,10.42,38.5
		c13.45,13.45,30.72,18.07,38.5,10.42l29.27-29.27l0,0L524,416.04c7.78-7.78,3.16-24.92-10.42-38.5
		C500.13,363.95,482.86,359.34,475.08,367.12z"/>
	<path fill="#FFFFFF" d="M562.51,279.56c7.78-7.78,3.16-24.92-10.42-38.5l0,0l0,0c-13.45-13.45-30.72-18.07-38.5-10.42l-60.13,60.13
		c-7.78,7.78-3.16,25.05,10.42,38.5l0,0l0,0l0,0l0,0c13.45,13.45,30.72,18.07,38.5,10.42l32.7-32.7L562.51,279.56z"/>
	<path fill="#EABF43" d="M563.3,278.9l-0.66,0.66l-27.3,27.3l-32.18,32.18c-7.78,7.78-3.16,25.05,10.42,38.5
		c13.45,13.45,30.72,18.07,38.5,10.42l27.56-27.56v-84.26C572.92,274.28,566.99,275.21,563.3,278.9z"/>
	<path fill="#FFFFFF" d="M551.3,388.61c-7.78,7.78-3.16,25.05,10.42,38.5l0,0l0,0l0,0l0,0c5.67,5.67,12,9.76,17.93,12v-78.86
		L551.3,388.61z"/>
	<path fill="#D7E595" d="M561.71,426.98L561.71,426.98L561.71,426.98z"/>
	<path fill="#EABF43" d="M561.71,426.98L561.71,426.98L561.71,426.98c-13.45-13.45-30.72-18.07-38.5-10.42l-30.07,30.07l0,0
		l-30.07,30.07c-7.78,7.78-3.16,25.05,10.42,38.5l0,0c13.45,13.45,30.72,18.07,38.5,10.42l30.07-30.07l0,0l30.07-30.07
		C579.78,457.71,575.16,440.57,561.71,426.98L561.71,426.98L561.71,426.98z"/>
	<path fill="#FFFFFF" d="M572.79,464.83l-30.72,30.72l0,0l-29.27,29.27c-7.78,7.78-3.16,25.05,10.42,38.5
		c13.45,13.45,30.72,18.07,38.5,10.42l18.2-18.2V461.4C577.01,461.8,574.64,462.98,572.79,464.83z"/>
	<path fill="#EABF43" d="M-74.01-60.39l19.25-19.38h-24.92v22.55C-77.57-57.89-75.59-58.94-74.01-60.39z"/>
	<path fill="#FFFFFF" d="M-73.35-61.18c-7.78,7.78-3.16,25.05,10.42,38.5C-49.48-9.23-32.34-4.61-24.56-12.39L4.71-41.67l0,0
		l30.86-30.72c1.98-1.98,3.03-4.48,3.56-7.38h-93.89L-73.35-61.18z"/>
	<path fill="#EABF43" d="M-53.31,16.49c7.78-7.78,3.16-24.92-10.42-38.5c-5.01-5.01-10.55-8.83-15.96-11.21v76.09L-53.31,16.49z"/>
	<path fill="#D7E595" d="M-54.23,163.91c-13.45-13.45-18.07-30.72-10.42-38.5l31.38-31.38l-31.38,31.38l-0.79,0.79
		c-3.43,3.43-8.57,4.35-14.37,3.43v20.44C-71.77,150.99-62.27,155.87-54.23,163.91z"/>
	<polygon fill="#D7E595" points="-6.1,213.49 -6.1,213.49 -6.1,213.49 -6.1,213.49 -6.1,213.49 	"/>
	<path fill="#FFFFFF" d="M-65.31,126.2l0.79-0.79l31.38-31.38l27.96-27.96c7.78-7.78,3.16-24.92-10.42-38.5l0,0l0,0
		C-29.04,14.11-46.32,9.5-54.1,17.15l-25.58,25.71v86.77C-73.88,130.55-68.74,129.5-65.31,126.2z"/>
	<path fill="#EABF43" d="M-33.26,94.02l-31.38,31.38c-7.78,7.78-3.16,25.05,10.42,38.5c13.45,13.45,30.72,18.07,38.5,10.42l60-60.13
		c7.78-7.78,3.16-24.92-10.42-38.5C20.54,62.24,3.26,57.63-4.52,65.28l-0.66,0.66L-33.26,94.02z"/>
	<path fill="#FFFFFF" d="M-6.1,213.49L-6.1,213.49L-6.1,213.49c13.45,13.45,30.72,18.07,38.5,10.42l0.79-0.79l32.04-32.04l27.3-27.3
		c7.78-7.78,3.16-24.92-10.42-38.5l0,0l0,0c-13.45-13.45-30.72-18.07-38.5-10.42l-60.13,60.13C-24.3,182.77-19.68,200.04-6.1,213.49
		L-6.1,213.49z"/>
	<path fill="#D7E595" d="M91.48,311.07L91.48,311.07L91.48,311.07z"/>
	<path fill="#FFFFFF" d="M4.98,251.21l-30.72,30.72l0,0l-29.27,29.27c-7.78,7.78-3.16,25.05,10.42,38.5
		c13.45,13.45,30.72,18.07,38.5,10.42l29.27-29.27l0,0l30.72-30.72c7.78-7.78,3.16-24.92-10.42-38.5
		C29.9,248.04,12.76,243.43,4.98,251.21z"/>
	<path fill="#EABF43" d="M23.04,330.85L23.04,330.85l-30.07,30.07c-7.78,7.78-3.16,25.05,10.42,38.5l0,0
		c13.45,13.45,30.72,18.07,38.5,10.42l30.07-30.07l0,0l30.07-30.07c7.78-7.78,3.16-24.92-10.42-38.5l0,0l0,0l0,0l0,0
		c-13.45-13.45-30.72-18.07-38.5-10.42L23.04,330.85z"/>
	<path fill="#EABF43" d="M65.11,191.08l-32.04,32.04c-7.78,7.78-3.16,25.05,10.42,38.5c13.45,13.45,30.72,18.07,38.5,10.42
		l60.13-60.13c7.78-7.78,3.16-24.92-10.42-38.5c-13.45-13.45-30.72-18.07-38.5-10.42l-0.66,0.66L65.11,191.08z"/>
	<path fill="#D7E595" d="M189.19,408.79L189.19,408.79L189.19,408.79z"/>
	<path fill="#D7E595" d="M91.48,311.07L91.48,311.07L91.48,311.07z"/>
	<path fill="#FFFFFF" d="M102.69,348.92l-30.72,30.72l0,0l-29.27,29.27c-7.78,7.78-3.16,25.05,10.42,38.5
		c13.45,13.45,30.72,18.07,38.5,10.42l29.27-29.27l0,0l30.72-30.72c7.78-7.78,3.16-24.92-10.42-38.5
		C127.61,345.75,110.34,341.14,102.69,348.92z"/>
	<path fill="#EABF43" d="M189.19,408.79L189.19,408.79L189.19,408.79c-13.45-13.45-30.72-18.07-38.5-10.42l-29.93,30.07l0,0
		L90.69,458.5c-7.78,7.78-3.16,25.05,10.42,38.5l0,0c13.45,13.45,30.72,18.07,38.5,10.42l30.07-30.07l0,0l30.07-30.07
		C207.39,439.51,202.64,422.24,189.19,408.79L189.19,408.79L189.19,408.79z"/>
	<path fill="#FFFFFF" d="M91.48,311.07L91.48,311.07L91.48,311.07c13.45,13.45,30.72,18.07,38.5,10.42l0.79-0.79l32.83-32.83
		l26.64-26.64c7.78-7.78,3.16-24.92-10.42-38.5l0,0l0,0c-13.45-13.45-30.72-18.07-38.5-10.42L81.2,272.7
		C73.42,280.48,78.03,297.62,91.48,311.07L91.48,311.07L91.48,311.07z"/>
	<path fill="#EABF43" d="M163.48,288l-32.83,32.83c-7.78,7.78-3.16,25.05,10.42,38.5c13.45,13.45,30.72,18.07,38.5,10.42
		l60.13-60.13c7.78-7.78,3.16-24.92-10.42-38.5c-13.45-13.45-30.72-18.07-38.5-10.42l-0.66,0.66L163.48,288z"/>
	<polygon fill="#D7E595" points="286.91,506.5 286.91,506.5 286.91,506.5 286.91,506.5 286.91,506.5 	"/>
	<path fill="#D7E595" d="M189.19,408.79L189.19,408.79L189.19,408.79z"/>
	<path fill="#FFFFFF" d="M249.19,495.42c7.78-7.78,3.16-24.92-10.42-38.5c-13.45-13.45-30.72-18.07-38.5-10.42l-30.72,30.86l0,0
		l-29.27,29.27c-7.78,7.78-3.16,25.05,10.42,38.5c13.45,13.45,30.72,18.07,38.5,10.42l29.27-29.27l0,0L249.19,495.42z"/>
	<path fill="#FFFFFF" d="M287.83,359.07c7.78-7.78,3.16-24.92-10.42-38.5l0,0l0,0c-13.45-13.45-30.72-18.07-38.5-10.42l-60.13,60.13
		c-7.78,7.78-3.16,25.05,10.42,38.5l0,0l0,0l0,0l0,0c13.45,13.45,30.72,18.07,38.5,10.42l32.7-32.7L287.83,359.07z"/>
	<path fill="#EABF43" d="M277.28,467.2l60.13-60.13c7.78-7.78,3.16-24.92-10.42-38.5c-13.45-13.45-30.72-18.07-38.5-10.42
		l-0.66,0.66l-27.3,27.3l-32.04,32.04c-7.78,7.78-3.16,25.05,10.42,38.5C252.23,470.37,269.5,474.98,277.28,467.2z"/>
	<path fill="#FFFFFF" d="M286.91,506.5L286.91,506.5L286.91,506.5c13.45,13.45,30.72,18.07,38.5,10.42l0.79-0.79l31.38-31.38
		l27.96-27.96c7.78-7.78,3.16-24.92-10.42-38.5l0,0l0,0c-13.45-13.45-30.72-18.07-38.5-10.42l-60.13,60.13
		C268.71,475.77,273.46,493.05,286.91,506.5L286.91,506.5z"/>
	<path fill="#D7E595" d="M267.26,574.94l30.72-30.72c7.78-7.78,25.05-3.16,38.5,10.42c-13.45-13.45-18.07-30.72-10.42-38.5
		l31.38-31.38l-31.38,31.38l-0.79,0.79c-7.78,7.78-25.05,3.16-38.5-10.42c13.45,13.45,18.07,30.72,10.42,38.5L267.26,574.94
		L267.26,574.94l-4.62,4.62l0,0L267.26,574.94L267.26,574.94z"/>
	<path fill="#EABF43" d="M267.26,574.94l30.07-30.07c7.78-7.78,3.16-24.92-10.42-38.5l0,0l0,0l0,0
		c-13.45-13.45-30.72-18.07-38.5-10.42l-30.07,30.2l0,0l-30.07,30.07c-5.01,5.01-4.88,13.98-0.4,23.34h74.77L267.26,574.94
		L267.26,574.94z"/>
	<path fill="#FFFFFF" d="M336.49,554.63c-13.45-13.45-30.72-18.07-38.5-10.42l-30.72,30.72l0,0l-4.62,4.62h87.69
		C349.15,571.77,344.4,562.54,336.49,554.63z"/>
	<path fill="#EABF43" d="M357.45,484.74l-31.38,31.38c-7.78,7.78-3.16,25.05,10.42,38.5c13.45,13.45,30.72,18.07,38.5,10.42
		l60.13-60.13c7.78-7.78,3.16-24.92-10.42-38.5c-13.45-13.45-30.72-18.07-38.5-10.42l-0.66,0.66L357.45,484.74z"/>
	<path fill="#D7E595" d="M557.76,579.55c0.66-1.98,1.58-3.69,3.03-5.14l18.86-18.86l0,0l-18.2,18.2
		c-7.78,7.78-25.05,3.16-38.5-10.42c-13.45-13.45-18.07-30.72-10.42-38.5l29.27-29.27l0,0l30.72-30.72c1.85-1.85,4.22-2.9,6.86-3.43
		v-22.29c-6.07-2.24-12.26-6.33-17.93-12c13.45,13.45,18.07,30.72,10.42,38.5l-30.07,30.07l0,0l-30.07,30.07
		c-7.78,7.78-25.05,3.16-38.5-10.42l0,0c-13.45-13.45-18.07-30.72-10.42-38.5l30.07-30.07l0,0l30.07-30.07
		c7.78-7.78,24.92-3.16,38.5,10.42c-13.45-13.45-18.07-30.72-10.42-38.5l28.35-28.35l0,0l-27.56,27.56
		c-7.78,7.78-25.05,3.16-38.5-10.42c13.45,13.45,18.07,30.72,10.42,38.5l-30.72,30.72l0,0l-29.27,29.27
		c-7.78,7.78-25.05,3.16-38.5-10.42c-13.45-13.45-18.07-30.72-10.42-38.5l29.27-29.27l0,0l30.72-30.72
		c7.78-7.78,25.05-3.16,38.5,10.42c-13.45-13.45-18.07-30.72-10.42-38.5l32.04-32.04l-32.7,32.7c-7.78,7.78-25.05,3.16-38.5-10.42
		c13.45,13.45,18.07,30.72,10.42,38.5l-30.07,30.07l0,0l-29.8,30.2c-7.78,7.78-25.05,3.16-38.5-10.42l0,0
		c-13.45-13.45-18.07-30.72-10.42-38.5l30.07-30.07l0,0l30.07-30.07c7.78-7.78,24.92-3.16,38.5,10.42
		c-13.45-13.45-18.07-30.72-10.42-38.5l60.13-60.13c7.78-7.78,24.92-3.16,38.5,10.42l0,0l0,0c13.45,13.45,18.07,30.72,10.42,38.5
		l0.66-0.66c3.69-3.69,9.76-4.62,16.35-2.9V254.5c-8.18-0.53-18.2-5.54-26.77-14.11l0,0c-13.45-13.45-18.07-30.72-10.42-38.5
		l30.07-30.07l0,0l6.99-6.99l0,0l-6.99,6.99l0,0l-29.27,29.27c-7.78,7.78-25.05,3.16-38.5-10.42
		c-13.45-13.45-18.07-30.72-10.42-38.5l29.27-29.27l0,0l30.72-30.72c5.27-5.27,15.16-4.75,25.05,0.4v-12.4
		c-0.92-4.09-1.05-7.91,0-11.08v-2.64c-8.57,5.14-23.87,0.26-36.26-12.13c13.45,13.45,18.07,30.72,10.42,38.5l-30.07,30.07l0,0
		l-30.07,30.07c-7.78,7.78-25.05,3.16-38.5-10.42l0,0c-13.45-13.45-18.07-30.72-10.42-38.5l30.07-30.07l0,0l30.46-29.8
		c7.78-7.78,24.92-3.16,38.5,10.42c-13.45-13.45-18.07-30.72-10.42-38.5l46.55-46.55l0,0l-45.89,45.89
		c-7.78,7.78-25.05,3.16-38.5-10.42c13.45,13.45,18.07,30.72,10.42,38.5l-30.72,30.72l0,0l-29.27,29.27
		c-7.78,7.78-25.05,3.16-38.5-10.42c-13.45-13.45-18.07-30.72-10.42-38.5l29.27-29.27l0,0L456.75-5.4
		c7.78-7.78,25.05-3.16,38.5,10.42c-13.45-13.45-18.07-30.72-10.42-38.5l32.04-32.04l-32.7,32.7c-7.78,7.78-25.05,3.16-38.5-10.42
		c13.45,13.45,18.07,30.72,10.42,38.5l-30.07,30.07l0,0l-30.07,30.07c-7.78,7.78-25.05,3.16-38.5-10.42l0,0
		C344,31.52,339.39,14.24,347.04,6.46L377.1-23.6l0,0l30.2-29.8c7.78-7.78,24.92-3.16,38.5,10.42
		c-12.53-12.53-17.41-28.22-11.87-36.66h-1.71c-3.82,1.58-8.83,1.58-14.11,0H407.3c5.41,10.15,6.07,20.18,0.66,25.58l-30.72,30.72
		l0,0L347.96,5.94c-7.78,7.78-25.05,3.16-38.5-10.42c-13.45-13.45-18.07-30.72-10.42-38.5l29.27-29.27l0,0l7.52-7.52l0,0l-7.52,7.52
		l0,0l-30.07,30.07c-7.78,7.78-25.05,3.16-38.5-10.42l0,0c-8.57-8.7-13.58-18.86-13.85-27.16H224.4c1.85,6.86,1.05,13.05-2.9,16.88
		L161.37-2.77c-7.78,7.78-25.05,3.16-38.5-10.42c13.45,13.45,18.07,30.72,10.42,38.5l-30.86,30.72l0,0L73.15,85.32
		c-7.78,7.78-25.05,3.16-38.5-10.42C21.2,61.45,16.58,44.31,24.36,36.53L53.64,7.26l0,0l30.72-30.72
		c7.78-7.78,25.05-3.16,38.5,10.42c-13.45-13.45-18.07-30.72-10.42-38.5l28.22-28.22l0,0l-28.09,28.09l-0.79,0.79
		c-7.78,7.78-25.05,3.16-38.5-10.42c13.45,13.45,18.07,30.72,10.42,38.5L53.64,7.26l0,0L23.57,37.19
		c-7.78,7.78-25.05,3.16-38.5-10.42l0,0C-28.38,13.32-33-3.95-25.35-11.73L4.71-41.8l0,0l30.07-29.93
		c7.78-7.78,24.92-3.16,38.5,10.42c-5.8-5.8-10.02-12.26-12.26-18.46H39.13c-0.4,2.9-1.58,5.41-3.56,7.38L4.85-41.67l0,0
		l-29.41,29.27c-7.78,7.78-25.05,3.16-38.5-10.42C-76.52-36.13-81.13-53.4-73.35-61.18l18.59-18.59l0,0l-19.25,19.38
		c-1.58,1.58-3.43,2.51-5.67,3.16v24.13c5.41,2.37,10.94,6.2,15.96,11.21c13.45,13.45,18.2,30.59,10.42,38.37l-26.37,26.37l0,0
		l25.58-25.58c7.78-7.78,24.92-3.16,38.5,10.42l0,0l0,0C-2.14,41.15,2.47,58.42-5.18,66.2l0.66-0.92
		c7.78-7.78,25.05-3.16,38.5,10.42c13.45,13.45,18.07,30.72,10.42,38.5l-60.13,60.13c-7.78,7.78-25.05,3.16-38.5-10.42
		c13.45,13.45,18.07,30.72,10.42,38.5l-30.86,30.72l0,0l-5.01,5.01l0,0l5.01-5.01l0,0l30.07-30.07c7.78-7.78,24.92-3.16,38.5,10.42
		c-13.45-13.45-18.07-30.72-10.42-38.5l60.13-60.13c7.78-7.78,24.92-3.16,38.5,10.42l0,0l0,0c13.45,13.45,18.07,30.72,10.42,38.5
		l0.66-0.66c7.78-7.78,25.05-3.16,38.5,10.42c13.45,13.45,18.07,30.72,10.42,38.5l-60.13,60.13c-7.78,7.78-25.05,3.16-38.5-10.42
		c13.45,13.45,18.07,30.72,10.42,38.5l-30.72,30.72l0,0L-6.1,360.26c-7.78,7.78-25.05,3.16-38.5-10.42
		c-13.45-13.45-18.07-30.72-10.42-38.5l29.27-29.27l0,0l30.72-30.86c7.78-7.78,25.05-3.16,38.5,10.42
		c-13.45-13.45-18.07-30.72-10.42-38.5l32.04-32.04l-32.04,32.04l-0.79,0.79c-7.78,7.78-25.05,3.16-38.5-10.42
		C7.22,226.94,11.83,244.22,4.19,252l-30.07,30.07l0,0l-30.07,30.07c-5.14,5.14-14.24,4.88-23.87,0.26v25.19
		c8.83-3.43,22.81,1.71,34.15,13.05c13.45,13.45,18.07,30.72,10.42,38.5l-44.44,44.44l0,0l43.78-43.91
		c7.78-7.78,24.92-3.16,38.5,10.42l0,0l0,0c13.45,13.45,18.07,30.72,10.42,38.5l0.66-0.66c7.78-7.78,25.05-3.16,38.5,10.42
		c13.45,13.45,18.07,30.72,10.42,38.5L2.47,546.98c-7.78,7.78-25.05,3.16-38.5-10.42c13.45,13.45,18.07,30.72,10.42,38.5l-4.75,4.75
		l0,0l3.96-3.96c6.33-6.33,19.12-4.35,30.99,3.96h1.98c-9.1-12.13-11.47-25.58-4.88-32.04l60.13-60.13
		c7.78-7.78,24.92-3.16,38.5,10.42l0,0l0,0c13.45,13.45,18.07,30.72,10.42,38.5l0.66-0.66c7.78-7.78,25.05-3.16,38.5,10.42
		c11.21,11.21,16.22,24.92,13.19,33.76h24.79c-4.35-9.36-4.62-18.33,0.4-23.34l30.07-30.07l0,0l30.07-30.07
		c7.78-7.78,24.92-3.16,38.5,10.42c-13.45-13.45-18.07-30.72-10.42-38.5l60.13-60.13c7.78-7.78,24.92-3.16,38.5,10.42l0,0l0,0
		c13.45,13.45,18.07,30.72,10.42,38.5l0.66-0.66c7.78-7.78,25.05-3.16,38.5,10.42c13.45,13.45,18.07,30.72,10.42,38.5l-60.13,60.13
		c-7.78,7.78-25.05,3.16-38.5-10.42c7.91,7.91,12.79,17.14,13.85,24.92h20.44c-0.92-5.67,0.13-10.55,3.43-13.85l60.13-60.13
		c7.78-7.78,24.92-3.16,38.5,10.42l0,0l0,0c13.45,13.45,18.07,30.72,10.42,38.5l0.66-0.66c7.78-7.78,25.05-3.16,38.5,10.42
		c4.88,4.88,8.57,10.29,10.94,15.56h24.4V579.55z M218.34,526.15L218.34,526.15l-29.27,29.27c-7.78,7.78-25.05,3.16-38.5-10.42
		c-13.45-13.45-18.07-30.72-10.42-38.5l29.27-29.27l0,0l30.72-30.72c7.78-7.78,25.05-3.16,38.5,10.42
		c-13.45-13.45-18.07-30.72-10.42-38.5l32.04-32.04l-32.7,32.7c-7.78,7.78-25.05,3.16-38.5-10.42
		c13.45,13.45,18.07,30.72,10.42,38.5l-29.93,30.2l0,0l-30.07,30.07c-7.78,7.78-25.05,3.16-38.5-10.42l0,0
		c-13.45-13.45-18.07-30.72-10.42-38.5l30.07-30.07l0,0l30.07-30.07c7.78-7.78,24.92-3.16,38.5,10.42
		c-13.45-13.45-18.07-30.72-10.42-38.5l60.13-60.13c7.78-7.78,24.92-3.16,38.5,10.42l0,0l0,0c13.45,13.45,18.07,30.72,10.42,38.5
		l0.66-0.66c7.78-7.78,25.05-3.16,38.5,10.42c13.45,13.45,18.07,30.72,10.42,38.5l-60.13,60.13c-7.78,7.78-25.05,3.16-38.5-10.42
		c13.45,13.45,18.07,30.72,10.42,38.5L218.34,526.15z M464.93,181.98l0.66-0.66c7.78-7.78,25.05-3.16,38.5,10.42
		c13.45,13.45,18.07,30.72,10.42,38.5l-60.13,59.87c-7.78,7.78-25.05,3.16-38.5-10.42c13.45,13.45,18.07,30.72,10.42,38.5
		l-30.72,30.72l0,0l-29.27,29.27c-7.78,7.78-25.05,3.16-38.5-10.42c-13.45-13.45-18.07-30.72-10.42-38.5L346.64,300l0,0l30.72-30.72
		c7.78-7.78,25.05-3.16,38.5,10.42c-13.45-13.45-18.07-30.72-10.42-38.5l32.04-32.04l-32.7,32.7c-7.78,7.78-25.05,3.16-38.5-10.42
		c13.45,13.45,18.07,30.72,10.42,38.5L346.64,300l0,0l-30.07,30.07c-7.78,7.78-25.05,3.16-38.5-10.42l0,0
		c-13.45-13.45-18.07-30.72-10.42-38.5l30.07-30.07l0,0l30.07-30.07c7.78-7.78,24.92-3.16,38.5,10.42
		c-13.45-13.45-18.07-30.72-10.42-38.5L416,132.79c7.78-7.78,24.92-3.16,38.5,10.42l0,0l0,0
		C467.96,156.92,472.57,174.2,464.93,181.98z M367.21,84.27l0.66-0.66c7.78-7.78,25.05-3.16,38.5,10.42
		c13.45,13.45,18.07,30.72,10.42,38.5l-60.13,60.13c-7.78,7.78-25.05,3.16-38.5-10.42c13.45,13.45,18.07,30.72,10.42,38.5
		l-30.72,30.72l0,0l-29.41,29.14c-7.78,7.78-25.05,3.16-38.5-10.42c-13.45-13.45-18.07-30.72-10.42-38.5l29.27-29.27l0,0
		l30.72-30.72c7.78-7.78,25.05-3.16,38.5,10.42c-13.45-13.45-18.07-30.72-10.42-38.5l32.04-32.04l-32.57,32.83
		c-7.78,7.78-25.05,3.16-38.5-10.42c13.45,13.45,18.07,30.72,10.42,38.5l-30.07,30.07l0,0l-30.07,30.07
		c-7.78,7.78-25.05,3.16-38.5-10.42l0,0c-13.45-13.45-18.07-30.72-10.42-38.5l30.07-30.07l0,0l30.07-30.07
		c7.78-7.78,24.92-3.16,38.5,10.42c-13.45-13.45-18.07-30.72-10.42-38.5l60.13-60.13c7.78-7.78,24.92-3.16,38.5,10.42l0,0l0,0
		C370.38,59.34,374.99,76.49,367.21,84.27z M259.21-51.82L259.21-51.82L259.21-51.82c13.45,13.45,18.07,30.72,10.42,38.5l0.66-0.66
		c7.78-7.78,25.05-3.16,38.5,10.42c13.45,13.45,18.07,30.72,10.42,38.5l-60.13,60.13c-7.78,7.78-25.05,3.16-38.5-10.42
		c13.45,13.45,18.07,30.72,10.42,38.5l-30.72,30.72l0,0l-29.41,29.14c-7.78,7.78-25.05,3.16-38.5-10.42
		c-13.45-13.45-18.07-30.72-10.42-38.5l29.27-29.27l0,0l30.72-30.72c7.78-7.78,25.05-3.16,38.5,10.42
		C207,71.08,202.38,53.8,210.03,46.02l32.04-32.04l-32.04,32.04l-0.79,0.79c-7.78,7.78-25.05,3.16-38.5-10.42
		c13.45,13.45,18.07,30.72,10.42,38.5l-29.8,29.93l0,0l-30.07,30.07c-7.78,7.78-25.05,3.16-38.5-10.42l0,0
		c-13.45-13.45-18.07-30.72-10.42-38.5l30.07-30.07l0,0l30.07-30.07c7.78-7.78,24.92-3.16,38.5,10.42
		c-13.45-13.45-18.07-30.72-10.42-38.5l60.13-60.13C228.49-70.02,245.63-65.27,259.21-51.82z M91.48,311.07
		c-13.45-13.45-18.07-30.72-10.42-38.5l60.13-60.13c7.78-7.78,24.92-3.16,38.5,10.42l0,0l0,0c13.45,13.45,18.07,30.72,10.42,38.5
		l0.66-0.66c7.78-7.78,25.05-3.16,38.5,10.42c13.45,13.45,18.07,30.72,10.42,38.5l-60.13,60.13c-7.78,7.78-25.05,3.16-38.5-10.42
		c13.45,13.45,18.07,30.72,10.42,38.5l-30.72,30.59l0,0l-29.27,29.27c-7.78,7.78-25.05,3.16-38.5-10.42
		c-13.45-13.45-18.07-30.72-10.42-38.5l29.27-29.27l0,0l30.72-30.72c7.78-7.78,25.05-3.16,38.5,10.42
		c-13.45-13.45-18.07-30.72-10.42-38.5l32.83-32.83l-32.83,32.83l-0.79,0.79C122.21,329.27,105.06,324.66,91.48,311.07
		c13.45,13.45,18.07,30.72,10.42,38.5l-30.07,30.07l0,0l-30.07,30.07c-7.78,7.78-25.05,3.16-38.5-10.42l0,0
		c-13.45-13.45-18.07-30.72-10.42-38.5l30.07-30.07l0,0l30.07-30.07C60.89,293.01,78.03,297.62,91.48,311.07z"/>
	<path fill="#EABF43" d="M560.79,574.41c-1.45,1.45-2.37,3.16-3.03,5.14h21.89v-24L560.79,574.41z"/>
	<path fill="#FFFFFF" d="M483.12,554.37c7.78-7.78,3.16-24.92-10.42-38.5l0,0l0,0c-13.45-13.45-30.72-18.07-38.5-10.42l-60.13,60.13
		c-3.3,3.3-4.35,8.18-3.43,13.85h87.3L483.12,554.37z"/>
	<path fill="#EABF43" d="M522.29,563.99c-13.45-13.45-30.72-18.07-38.5-10.42l-0.66,0.66l-25.19,25.32h75.3
		C530.86,574.28,527.17,569,522.29,563.99z"/>
	<path fill="#FFFFFF" d="M-74.67,233.14l30.86-30.72c7.78-7.78,3.16-24.92-10.42-38.5c-8.04-8.04-17.54-12.92-25.45-13.98v88.22
		L-74.67,233.14L-74.67,233.14z"/>
	<path fill="#EABF43" d="M-55.81,312l30.07-30.07l0,0l30.07-30.07c7.78-7.78,3.16-24.92-10.42-38.5l0,0l0,0l0,0
		c-13.45-13.45-30.72-18.07-38.5-10.42l-30.07,30.2l0,0l-5.01,5.01v74.11C-70.19,316.88-60.96,317.14-55.81,312z"/>
	<path fill="#EABF43" d="M-35.11,389.01c7.78-7.78,3.16-24.92-10.42-38.5c-11.34-11.34-25.45-16.48-34.15-13.05v96.13L-35.11,389.01
		z"/>
	<path fill="#D7E595" d="M-74.54,526.02c7.78-7.78,25.05-3.16,38.5,10.42c-13.45-13.58-18.07-30.72-10.29-38.5l32.04-32.04
		l-32.83,32.83c-6.73,6.73-20.31,4.22-32.57-5.14v1.71c8.7,12,10.94,25.05,4.48,31.52l-4.48,4.35l0,0L-74.54,526.02z"/>
	<path fill="#EABF43" d="M-79.68,495.16v36l4.48-4.48C-68.74,520.21-70.98,507.16-79.68,495.16z"/>
	<path fill="#FFFFFF" d="M-25.62,574.81c7.78-7.78,3.16-24.92-10.42-38.5c-13.45-13.45-30.72-18.07-38.5-10.29l-5.14,5.14v48.39
		h49.32L-25.62,574.81z"/>
	<path fill="#EABF43" d="M-26.41,575.6l-3.96,3.96H4.58C-7.29,571.24-20.08,569.14-26.41,575.6z"/>
	<path fill="#FFFFFF" d="M-47.11,498.59l32.83-32.83l27.3-27.3c7.78-7.78,3.16-24.92-10.42-38.5l0,0l0,0
		c-13.45-13.45-30.72-18.07-38.5-10.42l-43.78,44.04v59.87C-67.42,502.81-53.83,505.31-47.11,498.59z"/>
	<path fill="#EABF43" d="M-14.27,465.88l-32.04,32.04c-7.78,7.78-3.16,25.05,10.42,38.5c13.45,13.45,30.72,18.07,38.5,10.42
		l60.13-60.13c7.78-7.78,3.16-24.92-10.42-38.5c-13.45-13.45-30.72-18.07-38.5-10.42l-0.66,0.66L-14.27,465.88z"/>
	<polygon fill="#D7E595" points="83.44,563.33 67.35,579.55 67.35,579.55 	"/>
	<path fill="#FFFFFF" d="M83.44,563.33l27.16-27.16c7.78-7.78,3.16-24.92-10.42-38.5l0,0l0,0c-13.45-13.45-30.72-18.07-38.5-10.42
		L1.55,547.38c-6.59,6.59-4.22,19.91,4.88,32.04h60.66L83.44,563.33z"/>
	<path fill="#EABF43" d="M149.9,545.79c-13.45-13.45-30.72-18.07-38.5-10.42l-0.66,0.66L83.57,563.2l-16.22,16.35h95.73
		C166.12,570.72,160.97,557,149.9,545.79z"/>
</g>
</svg>
