<?xml version="1.0" encoding="utf-8"?>
<!-- Generator: Adobe Illustrator 21.1.0, SVG Export Plug-In . SVG Version: 6.00 Build 0)  -->
<svg version="1.1" id="レイヤー_1" xmlns="http://www.w3.org/2000/svg" xmlns:xlink="http://www.w3.org/1999/xlink" x="0px"
	 y="0px" viewBox="0 0 500 500" style="enable-background:new 0 0 500 500;" xml:space="preserve">
<style type="text/css">
	.st0{fill:none;}
	.st1{fill:#29833A;}
</style>
<g>
	<polygon class="st0" points="200.4,54.8 205.8,48.9 205.8,10.1 205.8,8.4 200.4,3.5 195.1,8.4 195.1,10.1 195.1,48.9 	"/>
	<polygon class="st0" points="24.1,82.4 22.5,84.1 49.6,113.5 76.6,84.1 75.1,82.4 76.6,82.4 49.6,53 22.5,82.4 	"/>
	<polygon class="st0" points="31,173.3 31,173.3 31.7,173.3 38.8,166.7 31.2,159.7 30.6,159.7 30.6,159.7 30,159.7 30,159.7 
		9.9,159.7 2.7,166.3 10.3,173.3 30.4,173.3 30.4,173.3 	"/>
	<polygon class="st0" points="99.8,54.8 105.2,48.9 105.2,10.1 105.2,8.4 99.8,3.5 94.5,8.4 94.5,10.1 94.5,48.9 	"/>
	<polygon class="st0" points="296.1,490.7 301,495.3 305.9,490.7 305.9,489.1 305.9,450.2 305.9,450.2 301,444.9 296.1,450.2 
		296.1,450.2 296.1,489.1 	"/>
	<polygon class="st0" points="99.8,495.3 104.8,490.7 104.8,489.1 104.8,450.2 104.8,450.2 99.8,444.9 94.9,450.2 94.9,450.2 
		94.9,489.1 94.9,490.7 	"/>
	<polygon class="st0" points="225.2,82.4 223.7,84.1 250.7,113.5 277.8,84.1 276.2,82.4 277.8,82.4 250.7,53 223.7,82.4 	"/>
	<polygon class="st0" points="451.9,385.2 424.9,414.6 426.4,414.6 424.9,416.3 451.9,445.7 479,416.3 477.4,414.6 479,414.6 	"/>
	<polygon class="st0" points="205.3,450.2 205.3,450.2 200.4,444.9 195.5,450.2 195.5,450.2 195.5,489.1 195.5,490.7 200.4,495.3 
		205.3,490.7 205.3,489.1 	"/>
	<polygon class="st0" points="470.9,159.7 470.9,159.7 470.3,159.7 462.7,166.7 469.8,173.3 470.4,173.3 470.4,173.3 491.2,173.3 
		491.2,173.3 498.7,166.3 491.6,159.7 491.6,159.7 	"/>
	<polygon class="st0" points="454.5,117.4 454.5,118 454.5,159.1 459.4,163.7 468.5,155.2 469.1,155.2 469.1,155.2 492.8,155.2 
		492.8,118 492.8,116.3 492.8,116.3 499.2,109.4 480.5,89.1 	"/>
	<polygon class="st0" points="31,339.4 31,339.4 31.7,339.4 38.8,332.8 31.2,325.8 30.6,325.8 30.6,325.8 30,325.8 30,325.8 
		9.9,325.8 2.7,332.4 10.3,339.4 30.4,339.4 30.4,339.4 	"/>
	<polygon class="st0" points="295.7,48.9 301,54.8 306.4,48.9 306.4,10.1 306.4,8.4 301,3.5 295.7,8.4 295.7,10.1 	"/>
	<polygon class="st0" points="492.8,282.4 499.2,275.5 480.5,255.1 454.5,283.5 454.5,284.1 454.5,324.9 454.5,325.2 459.4,329.8 
		468.5,321.3 469.1,321.3 469.1,321.3 492.8,321.3 492.8,284.1 	"/>
	<polygon class="st0" points="470.9,325.8 470.9,325.8 470.3,325.8 462.7,332.8 469.8,339.4 470.4,339.4 470.4,339.4 491.2,339.4 
		491.2,339.4 498.7,332.4 491.6,325.8 491.6,325.8 	"/>
	<polygon class="st0" points="31.7,155.2 31.7,155.2 32.3,155.2 32.3,155.2 33,155.2 42.1,163.7 47,159.1 47,158.6 47,119.7 
		47,118.1 47,118.1 47,118 47,117.4 21,89.1 2.3,109.4 8.7,116.3 8.7,116.3 8.7,118 8.7,155.2 	"/>
	<polygon class="st0" points="396.3,48.9 401.6,54.8 407,48.9 407,10.1 407,8.4 401.6,3.5 396.3,8.4 396.3,10.1 	"/>
	<polygon class="st0" points="210.4,11.7 210.3,11.7 210.3,50.7 203.5,58.1 221.7,77.9 248.4,48.9 248.4,10.1 248.4,8.4 243.3,3.7 
		234.6,11.7 234,11.7 234,11.7 233.3,11.7 	"/>
	<polygon class="st0" points="380.3,410.1 398.6,390.3 391.8,382.9 391.8,381.2 391.8,343.9 391.7,343.9 368.1,343.9 368.1,343.9 
		367.5,343.9 358.8,335.9 353.7,340.6 353.7,340.6 353.7,342.3 353.7,379.4 353.7,381.1 	"/>
	<polygon class="st0" points="80.5,248.5 82.1,248.5 80.1,250.7 99.8,272.2 119.6,250.7 117.6,248.5 119.1,248.5 99.8,227.5 	"/>
	<polygon class="st0" points="332.4,159.7 312.3,159.7 312.3,159.7 311.6,159.7 304.5,166.3 312.1,173.3 312.7,173.3 312.7,173.3 
		332.8,173.3 332.8,173.3 333.4,173.3 340.6,166.7 333,159.7 	"/>
	<polygon class="st0" points="150.1,336.7 154.3,332.8 150.1,329 146,332.8 	"/>
	<polygon class="st0" points="189.2,159.7 189.2,159.7 188.6,159.7 169.1,159.7 168.5,159.7 160.9,166.7 168,173.3 168.7,173.3 
		188.1,173.3 188.8,173.3 188.8,173.3 189.4,173.3 189.4,173.3 196.9,166.3 189.8,159.7 189.8,159.7 	"/>
	<polygon class="st0" points="390.4,159.7 370.3,159.7 370.3,159.7 369.7,159.7 362.1,166.7 369.2,173.3 369.8,173.3 369.8,173.3 
		389.9,173.3 390.6,173.3 390.6,173.3 398.1,166.3 391,159.7 391,159.7 	"/>
	<polygon class="st0" points="289.8,159.7 289.8,159.7 269.7,159.7 269.7,159.7 269.1,159.7 261.5,166.7 268.6,173.3 269.3,173.3 
		269.3,173.3 289.3,173.3 289.3,173.3 290,173.3 290,173.3 297.5,166.3 290.4,159.7 290.4,159.7 	"/>
	<polygon class="st0" points="94.5,176.2 94.5,215 99.8,220.8 105.2,215 105.2,176.2 105.2,174.5 105.2,174.5 99.8,169.6 
		94.5,174.5 94.5,174.5 	"/>
	<polygon class="st0" points="231.8,159.7 231.1,159.7 211.7,159.7 211,159.7 203.9,166.3 211.5,173.3 212.1,173.3 231.6,173.3 
		232.2,173.3 232.2,173.3 232.8,173.3 240,166.7 232.4,159.7 	"/>
	<polygon class="st0" points="166.9,177.8 166.3,177.8 157.6,169.8 152.5,174.5 152.5,174.5 152.5,176.2 152.5,215 179.2,244 
		197.4,224.2 190.6,216.8 190.6,177.8 190.5,177.8 190.5,177.8 189.9,177.8 	"/>
	<polygon class="st0" points="131.2,159.7 130.5,159.7 130.5,159.7 110.5,159.7 103.3,166.3 110.9,173.3 131,173.3 131,173.3 
		131.6,173.3 131.6,173.3 132.2,173.3 139.4,166.7 131.8,159.7 	"/>
	<polygon class="st0" points="401.6,227.5 382.3,248.5 383.9,248.5 381.9,250.7 401.6,272.2 421.4,250.7 419.4,248.5 420.9,248.5 	
		"/>
	<polygon class="st0" points="353.9,117.4 353.9,118 353.9,159.1 358.8,163.7 367.9,155.2 368.5,155.2 368.5,155.2 392.1,155.2 
		392.2,155.2 392.2,118 392.2,116.3 392.2,116.3 398.6,109.4 379.9,89.1 	"/>
	<polygon class="st0" points="121.6,89.1 102.9,109.4 109.2,116.3 109.2,116.3 109.2,118 109.2,155.2 132.3,155.2 132.3,155.2 
		132.9,155.2 132.9,155.2 133.6,155.2 142.7,163.7 147.6,159.1 147.6,158.6 147.6,119.7 147.6,118.1 147.6,118.1 147.6,118 
		147.6,117.4 	"/>
	<polygon class="st0" points="152.7,117.4 152.7,118 152.7,159.1 157.6,163.7 166.7,155.2 167.4,155.2 190.3,155.2 191,155.2 
		191,155.2 191,155.2 191,118 191,116.3 191,116.3 197.4,109.4 178.7,89.1 	"/>
	<polygon class="st0" points="447.8,332.8 451.9,336.7 456.1,332.8 451.9,329 	"/>
	<polygon class="st0" points="179.2,410.1 197.4,390.3 190.6,382.9 190.6,381.2 190.6,343.9 190.5,343.9 190.5,343.9 189.9,343.9 
		166.9,343.9 166.3,343.9 157.6,335.9 152.5,340.6 152.5,340.6 152.5,342.3 152.5,379.4 152.5,381.1 	"/>
	<polygon class="st0" points="51.9,176.2 51.9,215 78.6,244 96.8,224.2 90,216.8 90,177.8 89.9,177.8 89.9,177.8 89.3,177.8 
		89.3,177.8 65.7,177.8 57,169.8 51.9,174.5 51.9,174.5 	"/>
	<polygon class="st0" points="67.9,325.8 60.3,332.8 67.4,339.4 87.5,339.4 87.5,339.4 88.2,339.4 88.2,339.4 88.8,339.4 
		88.8,339.4 96.4,332.4 89.2,325.8 89.2,325.8 88.6,325.8 88.6,325.8 88,325.8 88,325.8 	"/>
	<polygon class="st0" points="89.2,159.7 88.6,159.7 88.6,159.7 88,159.7 88,159.7 67.9,159.7 60.3,166.7 67.4,173.3 87.5,173.3 
		87.5,173.3 88.2,173.3 88.2,173.3 88.8,173.3 88.8,173.3 96.4,166.3 	"/>
	<polygon class="st0" points="412.9,325.8 412.9,325.8 412.2,325.8 405.1,332.4 412.7,339.4 413.3,339.4 413.3,339.4 433.4,339.4 
		434,339.4 441.1,332.8 433.6,325.8 432.9,325.8 	"/>
	<polygon class="st0" points="378.4,416.3 376.8,414.6 378.4,414.6 351.3,385.2 324.3,414.6 325.8,414.6 324.3,416.3 351.3,445.7 	
		"/>
	<polygon class="st0" points="347.2,166.7 351.3,170.6 355.5,166.7 351.3,162.9 	"/>
	<polygon class="st0" points="355.5,332.8 351.3,329 347.2,332.8 351.3,336.7 	"/>
	<polygon class="st0" points="334.1,321.3 334.1,321.3 334.7,321.3 343.9,329.8 348.8,325.2 348.8,324.9 348.8,324.9 348.8,324.6 
		348.8,323 348.8,285.8 348.8,284.1 348.8,284.1 348.8,284.1 348.8,283.5 322.8,255.1 304.1,275.5 310.4,282.4 310.4,282.4 
		310.4,284.1 310.4,321.3 310.5,321.3 310.5,321.3 	"/>
	<polygon class="st0" points="291.6,321.3 291.6,321.3 291.6,321.3 291.6,284.1 291.6,282.4 291.6,282.4 298,275.5 279.3,255.1 
		253.3,283.5 253.3,284.1 253.3,324.9 253.3,325.2 258.2,329.8 267.3,321.3 267.9,321.3 267.9,321.3 	"/>
	<polygon class="st0" points="150.1,219.1 123.1,248.5 124.6,248.5 123.1,250.2 150.1,279.6 177.2,250.2 175.6,248.5 177.2,248.5 	
		"/>
	<polygon class="st0" points="232.9,321.3 233.5,321.3 233.5,321.3 234.2,321.3 243.3,329.8 248.2,325.2 248.2,324.9 248.2,324.9 
		248.2,324.6 248.2,323 248.2,285.8 248.2,284.1 248.2,284.1 248.2,284.1 248.2,283.5 222.2,255.1 203.5,275.5 209.8,282.4 
		209.8,282.4 209.8,284.1 209.8,321.3 209.9,321.3 	"/>
	<polygon class="st0" points="311,177.8 311,177.8 310.9,177.8 310.9,216.8 304.1,224.2 322.3,244 348.9,215 348.9,176.2 
		348.9,174.5 348.9,174.5 343.9,169.8 335.2,177.8 334.6,177.8 334.6,177.8 	"/>
	<polygon class="st0" points="301,227.5 281.7,248.5 283.3,248.5 281.3,250.7 301,272.2 320.8,250.7 318.8,248.5 320.3,248.5 	"/>
	<polygon class="st0" points="296.1,324.6 301,329.2 305.9,324.6 305.9,323 305.9,285.8 305.9,284.1 305.9,284.1 301,278.8 
		296.1,284.1 296.1,284.1 296.1,285.8 296.1,323 	"/>
	<polygon class="st0" points="190.3,321.3 191,321.3 191,321.3 191,321.3 191,284.1 191,282.4 191,282.4 197.4,275.5 178.7,255.1 
		152.7,283.5 152.7,284.1 152.7,324.9 152.7,325.2 157.6,329.8 166.7,321.3 167.4,321.3 	"/>
	<polygon class="st0" points="195.5,324.6 200.4,329.2 205.3,324.6 205.3,323 205.3,285.8 205.3,284.1 205.3,284.1 200.4,278.8 
		195.5,284.1 195.5,284.1 195.5,285.8 195.5,323 	"/>
	<polygon class="st0" points="254.9,332.8 250.7,329 246.6,332.8 250.7,336.7 	"/>
	<polygon class="st0" points="223.7,248.5 225.2,248.5 223.7,250.2 250.7,279.6 277.8,250.2 276.2,248.5 277.8,248.5 250.7,219.1 	
		"/>
	<polygon class="st0" points="351.3,219.1 324.3,248.5 325.8,248.5 324.3,250.2 351.3,279.6 378.4,250.2 376.8,248.5 378.4,248.5 	
		"/>
	<polygon class="st0" points="45.4,166.7 49.6,170.6 53.7,166.7 49.6,162.9 	"/>
	<polygon class="st0" points="305.9,119.7 305.9,118.1 305.9,118.1 301,112.7 296.1,118.1 296.1,118.1 296.1,119.7 296.1,158.6 
		301,163.1 305.9,158.6 	"/>
	<polygon class="st0" points="246.6,166.7 250.7,170.6 254.9,166.7 250.7,162.9 	"/>
	<polygon class="st0" points="279.7,410.1 298,390.3 291.2,382.9 291.2,381.2 291.2,343.9 291.1,343.9 291.1,343.9 267.5,343.9 
		267.5,343.9 266.9,343.9 258.2,335.9 253.1,340.6 253.1,340.6 253.1,342.3 253.1,379.4 253.1,381.1 	"/>
	<polygon class="st0" points="109.7,177.8 109.7,216.8 102.9,224.2 121.1,244 147.8,215 147.8,176.2 147.8,174.5 147.8,174.5 
		142.7,169.8 134,177.8 133.4,177.8 133.4,177.8 132.8,177.8 132.8,177.8 	"/>
	<polygon class="st0" points="109.2,321.3 132.3,321.3 132.3,321.3 132.9,321.3 132.9,321.3 133.6,321.3 142.7,329.8 147.6,325.2 
		147.6,324.9 147.6,324.9 147.6,324.6 147.6,323 147.6,285.8 147.6,284.1 147.6,284.1 147.6,284.1 147.6,283.5 121.6,255.1 
		102.9,275.5 109.2,282.4 109.2,282.4 109.2,284.1 	"/>
	<polygon class="st0" points="248.4,379.4 248.4,342.3 248.4,340.6 248.4,340.6 243.3,335.9 234.6,343.9 234,343.9 234,343.9 
		233.3,343.9 210.4,343.9 210.3,343.9 210.3,381.2 210.3,382.9 203.5,390.3 221.7,410.1 248.4,381.1 	"/>
	<polygon class="st0" points="267.5,177.8 267.5,177.8 266.9,177.8 258.2,169.8 253.1,174.5 253.1,174.5 253.1,176.2 253.1,215 
		279.7,244 298,224.2 291.2,216.8 291.2,177.8 291.1,177.8 291.1,177.8 	"/>
	<polygon class="st0" points="210.4,177.8 210.3,177.8 210.3,216.8 203.5,224.2 221.7,244 248.4,215 248.4,176.2 248.4,174.5 
		248.4,174.5 243.3,169.8 234.6,177.8 234,177.8 234,177.8 233.3,177.8 	"/>
	<polygon class="st0" points="222.2,89.1 203.5,109.4 209.8,116.3 209.8,116.3 209.8,118 209.8,155.2 209.9,155.2 232.9,155.2 
		233.5,155.2 233.5,155.2 234.2,155.2 243.3,163.7 248.2,159.1 248.2,158.6 248.2,119.7 248.2,118.1 248.2,118.1 248.2,118 
		248.2,117.4 	"/>
	<polygon class="st0" points="392.1,487.4 392.2,487.4 392.2,448.5 392.2,448.5 398.6,441.6 379.9,421.2 353.9,449.5 353.9,491 
		353.9,491.3 358.8,495.9 367.9,487.4 368.5,487.4 368.5,487.4 	"/>
	<polygon class="st0" points="334.1,487.4 334.1,487.4 334.7,487.4 343.9,495.9 348.8,491.3 348.8,491 348.8,491 348.8,490.7 
		348.8,489.1 348.8,450.2 348.8,450.2 348.8,449.5 322.8,421.2 304.1,441.6 310.4,448.5 310.4,448.5 310.4,487.4 310.5,487.4 
		310.5,487.4 	"/>
	<polygon class="st0" points="291.6,487.4 291.6,487.4 291.6,487.4 291.6,448.5 291.6,448.5 298,441.6 279.3,421.2 253.3,449.5 
		253.3,491 253.3,491.3 258.2,495.9 267.3,487.4 267.9,487.4 267.9,487.4 	"/>
	<polygon class="st0" points="492.8,487.4 492.8,448.5 492.8,448.5 499.2,441.6 480.5,421.2 454.5,449.5 454.5,491 454.5,491.3 
		459.4,495.9 468.5,487.4 469.1,487.4 469.1,487.4 	"/>
	<polygon class="st0" points="434.7,487.4 435.3,487.4 444.4,495.9 449.4,491.3 449.4,491 449.4,491 449.4,490.7 449.4,489.1 
		449.4,450.2 449.4,450.2 449.4,449.5 423.4,421.2 404.7,441.6 411,448.5 411,448.5 411,487.4 411.1,487.4 411.1,487.4 	"/>
	<polygon class="st0" points="132.3,487.4 132.3,487.4 132.9,487.4 132.9,487.4 133.6,487.4 142.7,495.9 147.6,491.3 147.6,491 
		147.6,491 147.6,490.7 147.6,489.1 147.6,450.2 147.6,450.2 147.6,449.5 121.6,421.2 102.9,441.6 109.2,448.5 109.2,448.5 
		109.2,487.4 	"/>
	<polygon class="st0" points="89.7,487.4 89.7,487.4 90.4,487.4 90.4,487.4 90.5,487.4 90.5,448.5 90.5,448.5 96.8,441.6 
		78.1,421.2 52.1,449.5 52.1,491 52.1,491.3 57,495.9 66.1,487.4 	"/>
	<polygon class="st0" points="31.7,487.4 32.3,487.4 32.3,487.4 33,487.4 42.1,495.9 47,491.3 47,491 47,491 47,490.7 47,489.1 
		47,450.2 47,450.2 47,449.5 21,421.2 2.3,441.6 8.7,448.5 8.7,448.5 8.7,487.4 	"/>
	<polygon class="st0" points="190.3,487.4 191,487.4 191,487.4 191,487.4 191,448.5 191,448.5 197.4,441.6 178.7,421.2 152.7,449.5 
		152.7,491 152.7,491.3 157.6,495.9 166.7,487.4 167.4,487.4 	"/>
	<polygon class="st0" points="232.9,487.4 233.5,487.4 233.5,487.4 234.2,487.4 243.3,495.9 248.2,491.3 248.2,491 248.2,491 
		248.2,490.7 248.2,489.1 248.2,450.2 248.2,450.2 248.2,449.5 222.2,421.2 203.5,441.6 209.8,448.5 209.8,448.5 209.8,487.4 
		209.9,487.4 	"/>
	<polygon class="st0" points="468.7,177.8 468.7,177.8 468.1,177.8 459.4,169.8 454.3,174.5 454.3,174.5 454.3,176.2 454.3,215 
		480.9,244 499.2,224.2 492.4,216.8 492.4,177.8 	"/>
	<polygon class="st0" points="65.7,11.7 57,3.7 51.9,8.4 51.9,10.1 51.9,48.9 78.6,77.9 96.8,58.1 90,50.7 90,11.7 89.9,11.7 
		89.9,11.7 89.3,11.7 89.3,11.7 	"/>
	<polygon class="st0" points="9.1,50.7 2.3,58.1 20.5,77.9 47.2,48.9 47.2,10.1 47.2,8.4 42.1,3.7 33.4,11.7 32.8,11.7 32.8,11.7 
		32.2,11.7 32.2,11.7 9.1,11.7 	"/>
	<polygon class="st0" points="492.4,343.9 468.7,343.9 468.7,343.9 468.1,343.9 459.4,335.9 454.3,340.6 454.3,340.6 454.3,342.3 
		454.3,379.4 454.3,381.1 480.9,410.1 499.2,390.3 492.4,382.9 492.4,381.2 	"/>
	<polygon class="st0" points="468.7,11.7 468.7,11.7 468.1,11.7 459.4,3.7 454.3,8.4 454.3,10.1 454.3,48.9 480.9,77.9 499.2,58.1 
		492.4,50.7 492.4,11.7 	"/>
	<polygon class="st0" points="411.5,11.7 411.5,11.7 411.5,11.7 411.5,50.7 404.7,58.1 422.9,77.9 449.5,48.9 449.5,10.1 449.5,8.4 
		444.4,3.7 435.8,11.7 435.2,11.7 	"/>
	<polygon class="st0" points="109.7,11.7 109.7,50.7 102.9,58.1 121.1,77.9 147.8,48.9 147.8,10.1 147.8,8.4 142.7,3.7 134,11.7 
		133.4,11.7 133.4,11.7 132.8,11.7 132.8,11.7 	"/>
	<polygon class="st0" points="368.1,11.7 368.1,11.7 367.5,11.7 358.8,3.7 353.7,8.4 353.7,10.1 353.7,48.9 380.3,77.9 398.6,58.1 
		391.8,50.7 391.8,11.7 391.7,11.7 	"/>
	<polygon class="st0" points="444.4,169.8 435.8,177.8 435.2,177.8 411.5,177.8 411.5,177.8 411.5,177.8 411.5,216.8 404.7,224.2 
		422.9,244 449.5,215 449.5,176.2 449.5,174.5 449.5,174.5 	"/>
	<polygon class="st0" points="311,11.7 311,11.7 310.9,11.7 310.9,50.7 304.1,58.1 322.3,77.9 348.9,48.9 348.9,10.1 348.9,8.4 
		343.9,3.7 335.2,11.7 334.6,11.7 334.6,11.7 	"/>
	<polygon class="st0" points="267.5,11.7 267.5,11.7 266.9,11.7 258.2,3.7 253.1,8.4 253.1,10.1 253.1,48.9 279.7,77.9 298,58.1 
		291.2,50.7 291.2,11.7 291.1,11.7 291.1,11.7 	"/>
	<polygon class="st0" points="166.9,11.7 166.3,11.7 157.6,3.7 152.5,8.4 152.5,10.1 152.5,48.9 179.2,77.9 197.4,58.1 190.6,50.7 
		190.6,11.7 190.5,11.7 190.5,11.7 189.9,11.7 	"/>
	<polygon class="st0" points="401.6,438.3 421.4,416.7 419.4,414.6 420.9,414.6 401.6,393.6 382.3,414.6 383.9,414.6 381.9,416.7 	
		"/>
	<polygon class="st0" points="423.4,89.1 404.7,109.4 411,116.3 411,116.3 411,118 411,155.2 411.1,155.2 411.1,155.2 434.7,155.2 
		435.3,155.2 444.4,163.7 449.4,159.1 449.4,158.6 449.4,119.7 449.4,118.1 449.4,118.1 449.4,118 449.4,117.4 	"/>
	<polygon class="st0" points="177.2,416.3 175.6,414.6 177.2,414.6 150.1,385.2 123.1,414.6 124.6,414.6 123.1,416.3 150.1,445.7 	
		"/>
	<polygon class="st0" points="281.7,82.4 283.3,82.4 281.3,84.6 301,106.1 320.8,84.6 318.8,82.4 320.3,82.4 301,61.4 	"/>
	<polygon class="st0" points="451.9,53 424.9,82.4 426.4,82.4 424.9,84.1 451.9,113.5 479,84.1 477.4,82.4 479,82.4 	"/>
	<polygon class="st0" points="412.9,159.7 412.9,159.7 412.2,159.7 405.1,166.3 412.7,173.3 413.3,173.3 413.3,173.3 433.4,173.3 
		434,173.3 441.1,166.7 433.6,159.7 432.9,159.7 	"/>
	<polygon class="st0" points="200.4,61.4 181.1,82.4 182.7,82.4 180.7,84.6 200.4,106.1 220.2,84.6 218.2,82.4 219.7,82.4 	"/>
	<polygon class="st0" points="220.2,416.7 218.2,414.6 219.7,414.6 200.4,393.6 181.1,414.6 182.7,414.6 180.7,416.7 200.4,438.3 	
		"/>
	<polygon class="st0" points="277.8,416.3 276.2,414.6 277.8,414.6 250.7,385.2 223.7,414.6 225.2,414.6 223.7,416.3 250.7,445.7 	
		"/>
	<polygon class="st0" points="119.6,416.7 117.6,414.6 119.1,414.6 99.8,393.6 80.5,414.6 82.1,414.6 80.1,416.7 99.8,438.3 	"/>
	<polygon class="st0" points="451.9,162.9 447.8,166.7 451.9,170.6 456.1,166.7 	"/>
	<polygon class="st0" points="22.5,248.5 24.1,248.5 22.5,250.2 49.6,279.6 76.6,250.2 75.1,248.5 76.6,248.5 49.6,219.1 	"/>
	<polygon class="st0" points="451.9,219.1 424.9,248.5 426.4,248.5 424.9,250.2 451.9,279.6 479,250.2 477.4,248.5 479,248.5 	"/>
	<polygon class="st0" points="124.6,82.4 123.1,84.1 150.1,113.5 177.2,84.1 175.6,82.4 177.2,82.4 150.1,53 123.1,82.4 	"/>
	<polygon class="st0" points="2.3,224.2 20.5,244 47.2,215 47.2,176.2 47.2,174.5 47.2,174.5 42.1,169.8 33.4,177.8 32.8,177.8 
		32.8,177.8 32.2,177.8 32.2,177.8 9.1,177.8 9.1,216.8 	"/>
	<polygon class="st0" points="2.3,390.3 20.5,410.1 47.2,381.1 47.2,379.4 47.2,342.3 47.2,340.6 47.2,340.6 42.1,335.9 33.4,343.9 
		32.8,343.9 32.8,343.9 32.2,343.9 32.2,343.9 9.1,343.9 9.1,381.2 9.1,382.9 	"/>
	<polygon class="st0" points="396.7,490.7 401.6,495.3 406.5,490.7 406.5,489.1 406.5,450.2 406.5,450.2 401.6,444.9 396.7,450.2 
		396.7,450.2 396.7,489.1 	"/>
	<polygon class="st0" points="8.7,321.3 31.7,321.3 31.7,321.3 32.3,321.3 32.3,321.3 33,321.3 42.1,329.8 47,325.2 47,324.9 
		47,324.9 47,324.6 47,323 47,285.8 47,284.1 47,284.1 47,284.1 47,283.5 21,255.1 2.3,275.5 8.7,282.4 8.7,282.4 8.7,284.1 	"/>
	<polygon class="st0" points="76.6,416.3 75.1,414.6 76.6,414.6 49.6,385.2 22.5,414.6 24.1,414.6 22.5,416.3 49.6,445.7 	"/>
	<polygon class="st0" points="99.8,61.4 80.5,82.4 82.1,82.4 80.1,84.6 99.8,106.1 119.6,84.6 117.6,82.4 119.1,82.4 	"/>
	<polygon class="st0" points="383.9,82.4 381.9,84.6 401.6,106.1 421.4,84.6 419.4,82.4 420.9,82.4 401.6,61.4 382.3,82.4 	"/>
	<polygon class="st0" points="351.3,53 324.3,82.4 325.8,82.4 324.3,84.1 351.3,113.5 378.4,84.1 376.8,82.4 378.4,82.4 	"/>
	<polygon class="st0" points="322.8,89.1 304.1,109.4 310.4,116.3 310.4,116.3 310.4,118 310.4,155.2 310.5,155.2 310.5,155.2 
		334.1,155.2 334.1,155.2 334.7,155.2 343.9,163.7 348.8,159.1 348.8,158.6 348.8,119.7 348.8,118.1 348.8,118.1 348.8,118 
		348.8,117.4 	"/>
	<polygon class="st0" points="188.8,339.4 189.4,339.4 189.4,339.4 196.9,332.4 189.8,325.8 189.8,325.8 189.2,325.8 189.2,325.8 
		188.6,325.8 169.1,325.8 168.5,325.8 160.9,332.8 168,339.4 168.7,339.4 188.1,339.4 	"/>
	<polygon class="st0" points="99.8,163.1 104.8,158.6 104.8,119.7 104.8,118.1 104.8,118.1 99.8,112.7 94.9,118.1 94.9,118.1 
		94.9,119.7 94.9,158.6 	"/>
	<polygon class="st0" points="348.9,379.4 348.9,342.3 348.9,340.6 348.9,340.6 343.9,335.9 335.2,343.9 334.6,343.9 334.6,343.9 
		311,343.9 311,343.9 310.9,343.9 310.9,381.2 310.9,382.9 304.1,390.3 322.3,410.1 348.9,381.1 	"/>
	<polygon class="st0" points="147.8,381.1 147.8,379.4 147.8,342.3 147.8,340.6 147.8,340.6 142.7,335.9 134,343.9 133.4,343.9 
		133.4,343.9 132.8,343.9 132.8,343.9 109.7,343.9 109.7,381.2 109.7,382.9 102.9,390.3 121.1,410.1 	"/>
	<polygon class="st0" points="200.4,163.1 205.3,158.6 205.3,119.7 205.3,118.1 205.3,118.1 200.4,112.7 195.5,118.1 195.5,118.1 
		195.5,119.7 195.5,158.6 	"/>
	<polygon class="st0" points="368.1,177.8 368.1,177.8 367.5,177.8 358.8,169.8 353.7,174.5 353.7,174.5 353.7,176.2 353.7,215 
		380.3,244 398.6,224.2 391.8,216.8 391.8,177.8 391.7,177.8 	"/>
	<polygon class="st0" points="94.5,381.1 99.8,386.9 105.2,381.1 105.2,379.4 105.2,342.3 105.2,340.6 105.2,340.6 99.8,335.6 
		94.5,340.6 94.5,340.6 94.5,342.3 94.5,379.4 	"/>
	<polygon class="st0" points="370.3,325.8 370.3,325.8 369.7,325.8 362.1,332.8 369.2,339.4 369.8,339.4 369.8,339.4 389.9,339.4 
		390.6,339.4 390.6,339.4 398.1,332.4 391,325.8 391,325.8 390.4,325.8 	"/>
	<polygon class="st0" points="290,339.4 290,339.4 297.5,332.4 290.4,325.8 290.4,325.8 289.8,325.8 289.8,325.8 269.7,325.8 
		269.7,325.8 269.1,325.8 261.5,332.8 268.6,339.4 269.3,339.4 269.3,339.4 289.3,339.4 289.3,339.4 	"/>
	<polygon class="st0" points="195.1,381.1 200.4,386.9 205.8,381.1 205.8,379.4 205.8,342.3 205.8,340.6 205.8,340.6 200.4,335.6 
		195.1,340.6 195.1,340.6 195.1,342.3 195.1,379.4 	"/>
	<polygon class="st0" points="181.1,248.5 182.7,248.5 180.7,250.7 200.4,272.2 220.2,250.7 218.2,248.5 219.7,248.5 200.4,227.5 	
		"/>
	<polygon class="st0" points="295.7,379.4 295.7,381.1 301,386.9 306.4,381.1 306.4,379.4 306.4,342.3 306.4,340.6 306.4,340.6 
		301,335.6 295.7,340.6 295.7,340.6 295.7,342.3 	"/>
	<polygon class="st0" points="195.1,215 200.4,220.8 205.8,215 205.8,176.2 205.8,174.5 205.8,174.5 200.4,169.6 195.1,174.5 
		195.1,174.5 195.1,176.2 	"/>
	<polygon class="st0" points="333.4,339.4 340.6,332.8 333,325.8 332.4,325.8 332.4,325.8 312.3,325.8 312.3,325.8 311.6,325.8 
		304.5,332.4 312.1,339.4 312.7,339.4 312.7,339.4 332.8,339.4 332.8,339.4 	"/>
	<polygon class="st0" points="407,174.5 401.6,169.6 396.3,174.5 396.3,174.5 396.3,176.2 396.3,215 401.6,220.8 407,215 407,176.2 
			"/>
	<polygon class="st0" points="52.1,159.1 57,163.7 66.1,155.2 89.7,155.2 89.7,155.2 90.4,155.2 90.4,155.2 90.5,155.2 90.5,118 
		90.5,116.3 90.5,116.3 96.8,109.4 78.1,89.1 52.1,117.4 52.1,118 	"/>
	<polygon class="st0" points="51.9,381.1 78.6,410.1 96.8,390.3 90,382.9 90,381.2 90,343.9 89.9,343.9 89.9,343.9 89.3,343.9 
		89.3,343.9 65.7,343.9 57,335.9 51.9,340.6 51.9,340.6 51.9,342.3 51.9,379.4 	"/>
	<polygon class="st0" points="57,329.8 66.1,321.3 89.7,321.3 89.7,321.3 90.4,321.3 90.4,321.3 90.5,321.3 90.5,284.1 90.5,282.4 
		90.5,282.4 96.8,275.5 78.1,255.1 52.1,283.5 52.1,284.1 52.1,324.9 52.1,325.2 	"/>
	<polygon class="st0" points="401.6,112.7 396.7,118.1 396.7,118.1 396.7,119.7 396.7,158.6 401.6,163.1 406.5,158.6 406.5,119.7 
		406.5,118.1 406.5,118.1 	"/>
	<polygon class="st0" points="444.4,335.9 435.8,343.9 435.2,343.9 411.5,343.9 411.5,343.9 411.5,343.9 411.5,381.2 411.5,382.9 
		404.7,390.3 422.9,410.1 449.5,381.1 449.5,379.4 449.5,342.3 449.5,340.6 449.5,340.6 	"/>
	<polygon class="st0" points="423.4,255.1 404.7,275.5 411,282.4 411,282.4 411,284.1 411,321.3 411.1,321.3 411.1,321.3 
		434.7,321.3 435.3,321.3 444.4,329.8 449.4,325.2 449.4,324.9 449.4,324.9 449.4,324.6 449.4,323 449.4,285.8 449.4,284.1 
		449.4,284.1 449.4,284.1 449.4,283.5 	"/>
	<polygon class="st0" points="320.8,416.7 318.8,414.6 320.3,414.6 301,393.6 281.7,414.6 283.3,414.6 281.3,416.7 301,438.3 	"/>
	<polygon class="st0" points="99.8,329.2 104.8,324.6 104.8,323 104.8,285.8 104.8,284.1 104.8,284.1 99.8,278.8 94.9,284.1 
		94.9,284.1 94.9,285.8 94.9,323 94.9,324.6 	"/>
	<polygon class="st0" points="49.6,336.7 53.7,332.8 49.6,329 45.4,332.8 	"/>
	<polygon class="st0" points="407,340.6 401.6,335.6 396.3,340.6 396.3,340.6 396.3,342.3 396.3,379.4 396.3,381.1 401.6,386.9 
		407,381.1 407,379.4 407,342.3 	"/>
	<polygon class="st0" points="406.5,284.1 406.5,284.1 401.6,278.8 396.7,284.1 396.7,284.1 396.7,285.8 396.7,323 396.7,324.6 
		401.6,329.2 406.5,324.6 406.5,323 406.5,285.8 	"/>
	<polygon class="st0" points="392.2,282.4 392.2,282.4 398.6,275.5 379.9,255.1 353.9,283.5 353.9,284.1 353.9,324.9 353.9,325.2 
		358.8,329.8 367.9,321.3 368.5,321.3 368.5,321.3 392.1,321.3 392.2,321.3 392.2,284.1 	"/>
	<polygon class="st0" points="253.3,117.4 253.3,118 253.3,159.1 258.2,163.7 267.3,155.2 267.9,155.2 267.9,155.2 291.6,155.2 
		291.6,155.2 291.6,155.2 291.6,118 291.6,116.3 291.6,116.3 298,109.4 279.3,89.1 	"/>
	<polygon class="st0" points="306.4,174.5 306.4,174.5 301,169.6 295.7,174.5 295.7,174.5 295.7,176.2 295.7,215 301,220.8 
		306.4,215 306.4,176.2 	"/>
	<polygon class="st0" points="131.6,339.4 131.6,339.4 132.2,339.4 139.4,332.8 131.8,325.8 131.2,325.8 131.2,325.8 130.5,325.8 
		130.5,325.8 110.5,325.8 103.3,332.4 110.9,339.4 131,339.4 131,339.4 	"/>
	<polygon class="st0" points="146,166.7 150.1,170.6 154.3,166.7 150.1,162.9 	"/>
	<polygon class="st0" points="232.2,339.4 232.8,339.4 240,332.8 232.4,325.8 231.8,325.8 231.8,325.8 231.1,325.8 211.7,325.8 
		211,325.8 203.9,332.4 211.5,339.4 212.1,339.4 231.6,339.4 	"/>
	<path class="st1" d="M455.4,0l0.7,0.7l-4.2,3.9l-4.2-3.9l0.7-0.7h-8l0.7,0.7L434,7.2h-0.6h-20.1l0,0h-0.6l-7.6-7l0.3-0.2h-7.5
		l0.3,0.2l-7.6,7l0,0H390h-20.1l0,0h-0.6l-7.1-6.6l0.7-0.7h-8l0.7,0.7l-4.2,3.9l-4.2-3.9l0.7-0.7h-8l0.7,0.7l-7.1,6.6h-0.6l0,0
		h-20.1l0,0h-0.6l-7.6-7l0.3-0.2h-7.5l0.3,0.2l-7.6,7l0,0h-0.6l0,0h-20.1l0,0h-0.6l-7.1-6.6l0.7-0.7h-8l0.7,0.7l-4.2,3.9l-4.2-3.9
		l0.7-0.7h-8l0.7,0.7L233,7.2h-0.6l0,0h-0.6h-19.5h-0.6l-7.6-7l0.3-0.2h-7.5l0.3,0.2l-7.6,7l0,0H189l0,0h-0.6h-19.5H168l-7.1-6.6
		l0.7-0.7h-8l0.7,0.7l-4.2,3.9L146,0.7l0.7-0.7h-8l0.7,0.7l-7.1,6.6h-0.6l0,0H131l0,0h-20.1l-7.6-7l0.3-0.2h-7.5l0.3,0.2l-7.6,7l0,0
		h-0.6l0,0h-0.6l0,0H67.4l-7.1-6.6L61,0h-8l0.7,0.7l-4.2,3.9l-4.2-3.9L46.1,0h-8l0.7,0.7l-7.1,6.6H31l0,0h-0.6l0,0H10.3l-7.6-7L3,0
		H0v4.2l4.6,4.3v1.7V49L0,54v8.3l18.6,20.2H17l2,2.2L0,105.3v8.3l4.2,4.5l0,0v1.7v38.8L0,162.4v7.8l4.6,4.3l0,0v1.7V215L0,220v8.3
		l18.6,20.2H17l2,2.2L0,271.4v8.3l4.2,4.5l0,0v1.7V323v1.7L0,328.5v7.8l4.6,4.3l0,0v1.7v37.2v1.7l-4.6,5v8.3l18.6,20.2H17l2,2.2
		L0,437.4v8.3l4.2,4.5l0,0V489v1.7L0,494.6v5.4h4.4l-1.6-1.5l7.1-6.6H30l0,0h0.6l0,0h0.6l7.6,7l-1.2,1.1h8.9l-1.2-1.1l4.2-3.9
		l4.2,3.9l-1.2,1.1h8.9l-1.2-1.1l7.6-7H88l0,0h0.6l0,0h0.6l0,0l7.1,6.6l-1.6,1.5H105l-1.6-1.5l7.1-6.6h20.1l0,0h0.6l0,0h0.6l7.6,7
		l-1.2,1.1h8.9l-1.2-1.1l4.2-3.9l4.2,3.9l-1.2,1.1h8.9l-1.2-1.1l7.6-7h0.6h19.5h0.6l0,0h0.6l0,0l7.1,6.6l-1.6,1.5h10.2l-1.6-1.5
		l7.1-6.6h0.6H231h0.6l0,0h0.6l7.6,7l-1.2,1.1h8.9l-1.2-1.1l4.2-3.9l4.2,3.9l-1.2,1.1h8.9l-1.2-1.1l7.6-7h0.6l0,0h20.1l0,0h0.6l0,0
		l7.1,6.6l-1.6,1.5h10.2l-1.6-1.5l7.1-6.6h0.6l0,0H332l0,0h0.6l7.6,7L339,500h8.9l-1.2-1.1l4.2-3.9l4.2,3.9l-1.2,1.1h8.9l-1.2-1.1
		l7.6-7h0.6l0,0h20.1h0.6l0,0l7.1,6.6L396,500h10.2l-1.6-1.5l7.1-6.6h0.6l0,0h20.1h0.6l7.6,7L440,500h8.9l-1.2-1.1l4.2-3.9l4.2,3.9
		l-1.2,1.1h8.9l-1.2-1.1l7.6-7h0.6l0,0h20.7l0,0l7.1,6.6L497,500h2.9v-6.8l-2.7-2.5V489v-38.8l0,0l2.7-2.9v-11.5l-17.5-19.1l2-2.2
		h-1.5L500,396v-11.5l-3.1-3.4v-1.7v-37.2v-1.7l0,0l3.1-2.9V327l-2.7-2.5V323v-37.2v-1.7l0,0l2.7-2.9v-11.5l-17.5-19.1l2-2.2H483
		l17.1-18.6v-11.5l-3.1-3.4v-38.8v-1.7l0,0l3.1-2.9V161l-2.7-2.5v-38.8V118l0,0l2.7-2.9v-11.5l-17.5-19.1l2-2.2h-1.5L500,63.8V52.3
		l-3.1-3.4V10.1V8.4l3.1-2.9V0h-1.5l0.3,0.2l-7.6,7l0,0h-20.7l0,0h-0.6l-7.1-6.6l0.7-0.7h-8.1V0z M499.2,109.4l-6.3,6.9l0,0v1.7
		v37.3h-23.7l0,0h-0.6l-9.1,8.4l-4.9-4.5V118v-0.6l26-28.3L499.2,109.4z M492.8,321.3h-23.7l0,0h-0.6l-9.1,8.4l-4.9-4.5v-0.3V284
		v-0.6l26-28.3l18.7,20.3l-6.3,6.9l0,0v1.7v37.3H492.8z M498.7,166.3l-7.6,7l0,0h-20.7l0,0h-0.6l-7.1-6.6l7.6-7h0.6l0,0h20.7l0,0
		L498.7,166.3z M8.7,116.3L8.7,116.3l-6.3-6.9L21,89.1l26,28.3v0.6v0.1l0,0v1.7v38.8v0.6l-4.9,4.5l-9.1-8.4h-0.6l0,0h-0.6l0,0H8.7
		V118V116.3z M396.3,8.4l5.4-5l5.4,5v1.7v38.8l-5.4,5.8l-5.4-5.8V10.1V8.4z M498.7,332.4l-7.6,7l0,0h-20.7l0,0h-0.6l-7.1-6.6l7.6-7
		h0.6l0,0h20.7l0,0L498.7,332.4z M295.7,8.4l5.4-5l5.4,5v1.7v38.8l-5.4,5.8l-5.4-5.8V10.1V8.4z M296.1,489.1v-38.8l0,0l4.9-5.3
		l4.9,5.3l0,0v38.8v1.7l-4.9,4.5l-4.9-4.5V489.1z M30.4,173.3L30.4,173.3H10.3l-7.6-7l7.1-6.6H30l0,0h0.6l0,0h0.6l7.6,7l-7.1,6.6H31
		l0,0H30.4z M49.6,53l27,29.4h-1.5l1.5,1.7l-27,29.4l-27-29.4l1.5-1.7h-1.5L49.6,53z M94.5,10.1V8.4l5.4-5l5.4,5v1.7v38.8l-5.4,5.8
		l-5.4-5.8V10.1z M195.1,10.1V8.4l5.4-5l5.4,5v1.7v38.8l-5.4,5.8l-5.4-5.8V10.1z M250.7,53l27,29.4h-1.5l1.5,1.7l-27,29.4l-27-29.4
		l1.5-1.7h-1.5L250.7,53z M477.4,414.6l1.5,1.7l-27,29.4l-27-29.4l1.5-1.7h-1.5l27-29.4l27,29.4H477.4z M205.3,490.7l-4.9,4.5
		l-4.9-4.5V489v-38.8l0,0l4.9-5.3l4.9,5.3l0,0V489V490.7z M94.9,489.1v-38.8l0,0l4.9-5.3l4.9,5.3l0,0v38.8v1.7l-4.9,4.5l-4.9-4.5
		V489.1z M30.4,339.4L30.4,339.4H10.3l-7.6-7l7.1-6.6H30l0,0h0.6l0,0h0.6l7.6,7l-7.1,6.6H31l0,0H30.4z M351.3,445.7l-27-29.4
		l1.5-1.7h-1.5l27-29.4l27,29.4h-1.5l1.5,1.7L351.3,445.7z M449.4,284.1L449.4,284.1L449.4,284.1v1.7V323v1.7v0.3l0,0v0.3l-4.9,4.5
		l-9.1-8.4h-0.6h-23.6l0,0H411v-37.3v-1.7l0,0l-6.3-6.9l18.7-20.3l26,28.3L449.4,284.1L449.4,284.1z M301,438.3l-19.7-21.5l2-2.2
		h-1.5l19.3-21l19.3,21h-1.5l2,2.2L301,438.3z M449.5,340.6v1.7v37.2v1.7l-26.6,29l-18.2-19.9l6.8-7.4v-1.7v-37.3h0.1l0,0h23.6h0.6
		l8.7-8L449.5,340.6L449.5,340.6z M52.1,284.1v-0.6l26-28.3l18.7,20.3l-6.3,6.9l0,0v1.7v37.3h-0.1l0,0h-0.6l0,0H66.1l-9.1,8.4
		l-4.9-4.5V325V284.1z M52.1,117.4l26-28.3l18.7,20.3l-6.3,6.9l0,0v1.7v37.3h-0.1l0,0h-0.6l0,0H66.1l-9.1,8.4l-4.9-4.5V118V117.4z
		 M51.9,342.3v-1.7l0,0l5.1-4.7l8.7,8h23.6l0,0h0.6l0,0H90v37.3v1.7l6.8,7.4l-18.2,19.9l-26.6-29v-1.7v-37.2H51.9z M406.5,118.1v1.7
		v38.8l-4.9,4.5l-4.9-4.5v-38.8v-1.7l0,0l4.9-5.3L406.5,118.1L406.5,118.1z M406.5,323v1.7l-4.9,4.5l-4.9-4.5V323v-37.2v-1.7l0,0
		l4.9-5.3l4.9,5.3l0,0v1.7V323z M407,176.2V215l-5.4,5.8l-5.4-5.8v-38.8v-1.7l0,0l5.4-5l5.4,5l0,0V176.2z M279.3,89.1l18.7,20.3
		l-6.3,6.9l0,0v1.7v37.3h-0.1l0,0H268l0,0h-0.6l-9.1,8.4l-4.9-4.5V118v-0.6L279.3,89.1z M407,342.3v37.2v1.7l-5.4,5.8l-5.4-5.8v-1.7
		v-37.2v-1.7l0,0l5.4-5l5.4,5l0,0V342.3z M45.4,332.8l4.2-3.9l4.2,3.9l-4.2,3.9L45.4,332.8z M94.9,323v-37.2v-1.7l0,0l4.9-5.3
		l4.9,5.3l0,0v1.7V323v1.7l-4.9,4.5l-4.9-4.5V323z M392.2,321.3L392.2,321.3h-23.7l0,0h-0.6l-9.1,8.4l-4.9-4.5v-0.3V284v-0.6
		l26-28.3l18.7,20.3l-6.3,6.9l0,0v1.7v37.3H392.2z M94.9,119.7V118l0,0l4.9-5.3l4.9,5.3l0,0v1.7v38.8l-4.9,4.5l-4.9-4.5V119.7z
		 M391.7,177.8L391.7,177.8l0.1,38.9l6.8,7.4L380.3,244l-26.6-29v-38.8v-1.7l0,0l5.1-4.7l8.7,8h0.6l0,0H391.7z M94.5,342.3v-1.7l0,0
		l5.4-5l5.4,5l0,0v1.7v37.2v1.7l-5.4,5.8l-5.4-5.8v-1.7V342.3z M195.5,119.7V118l0,0l4.9-5.3l4.9,5.3l0,0v1.7v38.8l-4.9,4.5
		l-4.9-4.5V119.7z M322.3,410.1l-18.2-19.9l6.8-7.4v-1.7v-37.3h0.1l0,0h23.6l0,0h0.6l8.7-8l5.1,4.7l0,0v1.7v37.2v1.7L322.3,410.1z
		 M121.1,410.1l-18.2-19.9l6.8-7.4v-1.7v-37.3h23.1l0,0h0.6l0,0h0.6l8.7-8l5.1,4.7l0,0v1.7v37.2v1.7L121.1,410.1z M391,325.8
		l7.1,6.6l-7.6,7l0,0h-0.6h-20.1l0,0h-0.6l-7.1-6.6l7.6-7h0.6l0,0h20.1H391L391,325.8z M188.1,339.4h-19.5H168l-7.1-6.6l7.6-7h0.6
		h19.5h0.6l0,0h0.6l0,0l7.1,6.6l-7.6,7l0,0h-0.6l0,0H188.1z M289.3,339.4L289.3,339.4h-20.1l0,0h-0.6l-7.1-6.6l7.6-7h0.6l0,0h20.1
		l0,0h0.6l0,0l7.1,6.6l-7.6,7l0,0H289.3z M195.1,174.5L195.1,174.5l5.4-5l5.4,5l0,0v1.7V215l-5.4,5.8l-5.4-5.8v-38.8V174.5z
		 M332.8,339.4L332.8,339.4h-20.1l0,0h-0.6l-7.6-7l7.1-6.6h0.6l0,0h20.1l0,0h0.6l7.6,7l-7.1,6.6H332.8z M295.7,340.6L295.7,340.6
		l5.4-5l5.4,5l0,0v1.7v37.2v1.7l-5.4,5.8l-5.4-5.8v-1.7v-37.2V340.6z M195.1,342.3v-1.7l0,0l5.4-5l5.4,5l0,0v1.7v37.2v1.7l-5.4,5.8
		l-5.4-5.8v-1.7V342.3z M131,339.4L131,339.4h-20.1l-7.6-7l7.1-6.6h20.1l0,0h0.6l0,0h0.6l7.6,7l-7.1,6.6h-0.6l0,0H131z M306.4,215
		l-5.4,5.8l-5.4-5.8v-38.8v-1.7l0,0l5.4-5l5.4,5l0,0v1.7V215z M231.6,339.4h-19.5h-0.6l-7.6-7l7.1-6.6h0.6h19.5h0.6l0,0h0.6l7.6,7
		l-7.1,6.6h-0.6l0,0H231.6z M154.3,166.7l-4.2,3.9l-4.2-3.9l4.2-3.9L154.3,166.7z M200.4,227.5l19.3,21h-1.5l2,2.2l-19.7,21.5
		l-19.7-21.5l2-2.2h-1.5L200.4,227.5z M146,332.8l4.2-3.9l4.2,3.9l-4.2,3.9L146,332.8z M250.7,219.1l27,29.4h-1.5l1.5,1.7l-27,29.4
		l-27-29.4l1.5-1.7h-1.5L250.7,219.1z M296.1,323v-37.2v-1.7l0,0l4.9-5.3l4.9,5.3l0,0v1.7V323v1.7l-4.9,4.5l-4.9-4.5V323z
		 M246.6,332.8l4.2-3.9l4.2,3.9l-4.2,3.9L246.6,332.8z M195.5,285.8v-1.7l0,0l4.9-5.3l4.9,5.3l0,0v1.7V323v1.7l-4.9,4.5l-4.9-4.5
		V323V285.8z M318.8,248.5l2,2.2L301,272.2l-19.7-21.5l2-2.2h-1.5l19.3-21l19.3,21L318.8,248.5L318.8,248.5z M209.8,321.3V284v-1.7
		l0,0l-6.3-6.9l18.7-20.3l26,28.3v0.6v0.1l0,0v1.7V323v1.7v0.3l0,0v0.3l-4.9,4.5l-9.1-8.4h-0.6l0,0H233h-23.2V321.3z M310.5,321.3
		L310.5,321.3l-0.1-37.3v-1.7l0,0l-6.3-6.9l18.7-20.3l26,28.3v0.6v0.1l0,0v1.7V323v1.7v0.3l0,0v0.3l-4.9,4.5l-9.1-8.4h-0.6l0,0
		h-23.7V321.3z M347.2,332.8l4.2-3.9l4.2,3.9l-4.2,3.9L347.2,332.8z M267.9,321.3h-0.6l-9.1,8.4l-4.9-4.5v-0.3V284v-0.6l26-28.3
		l18.7,20.3l-6.3,6.9l0,0v1.7v37.3h-0.1l0,0H267.9L267.9,321.3z M177.2,248.5h-1.5l1.5,1.7l-27,29.4l-27-29.4l1.5-1.7h-1.5l27-29.4
		L177.2,248.5z M166.7,321.3l-9.1,8.4l-4.9-4.5v-0.3V284v-0.6l26-28.3l18.7,20.3l-6.3,6.9l0,0v1.7v37.3H191l0,0h-0.6h-23H166.7z
		 M254.9,166.7l-4.2,3.9l-4.2-3.9l4.2-3.9L254.9,166.7z M109.2,282.4L109.2,282.4l-6.3-6.9l18.7-20.3l26,28.3v0.6v0.1l0,0v1.7V323
		v1.7v0.3l0,0v0.3l-4.9,4.5l-9.1-8.4H133l0,0h-0.6l0,0h-23.1v-37.3L109.2,282.4L109.2,282.4z M221.7,410.1l-18.2-19.9l6.8-7.4v-1.7
		v-37.3h0.1h23h0.6l0,0h0.6l8.7-8l5.1,4.7l0,0v1.7v37.2v1.7L221.7,410.1z M291.1,177.8L291.1,177.8L291.1,177.8l0.1,38.9l6.8,7.4
		L279.7,244l-26.6-29v-38.8v-1.7l0,0l5.1-4.7l8.7,8h0.6l0,0H291.1z M233.3,177.8h0.6l0,0h0.6l8.7-8l5.1,4.7l0,0v1.7V215l-26.6,29
		l-18.2-19.9l6.8-7.4v-38.9h0.1L233.3,177.8L233.3,177.8z M132.8,177.8L132.8,177.8h0.6l0,0h0.6l8.7-8l5.1,4.7l0,0v1.7V215l-26.6,29
		L103,224.1l6.8-7.4v-38.9L132.8,177.8L132.8,177.8z M376.8,248.5l1.5,1.7l-27,29.4l-27-29.4l1.5-1.7h-1.5l27-29.4l27,29.4
		L376.8,248.5L376.8,248.5z M355.5,166.7l-4.2,3.9l-4.2-3.9l4.2-3.9L355.5,166.7z M301,163.1l-4.9-4.5v-38.8v-1.7l0,0l4.9-5.3
		l4.9,5.3l0,0v1.7v38.8L301,163.1z M253.1,381.1v-1.7v-37.2v-1.7l0,0l5.1-4.7l8.7,8h0.6l0,0h23.6l0,0h0.1v37.3v1.7l6.8,7.4
		l-18.2,19.9L253.1,381.1z M334.6,177.8L334.6,177.8h0.6l8.7-8l5.1,4.7l0,0v1.7V215l-26.6,29l-18.2-19.9l6.8-7.4v-38.9h0.1l0,0
		L334.6,177.8L334.6,177.8z M152.5,381.1v-1.7v-37.2v-1.7l0,0l5.1-4.7l8.7,8h0.6h23h0.6l0,0h0.1v37.3v1.7l6.8,7.4l-18.2,19.9
		L152.5,381.1z M297.5,166.3l-7.6,7l0,0h-0.6l0,0h-20.1l0,0h-0.6l-7.1-6.6l7.6-7h0.6l0,0h20.1l0,0h0.6l0,0L297.5,166.3z M240,166.7
		l-7.1,6.6h-0.6l0,0h-0.6h-19.5h-0.6l-7.6-7l7.1-6.6h0.6h19.5h0.6l0,0h0.6L240,166.7z M189.9,177.8h0.6l0,0h0.1v38.9l6.8,7.4
		L179.2,244l-26.6-29v-38.8v-1.7l0,0l5.1-4.7l8.7,8h0.6H189.9z M139.4,166.7l-7.1,6.6h-0.6l0,0H131l0,0h-20.1l-7.6-7l7.1-6.6h20.1
		l0,0h0.6l0,0h0.6L139.4,166.7z M94.5,174.5l5.4-5l5.4,5l0,0v1.7V215l-5.4,5.8l-5.4-5.8v-38.8V174.5L94.5,174.5z M353.7,381.1v-1.7
		v-37.2v-1.7l0,0l5.1-4.7l8.7,8h0.6l0,0h23.6h0.1v37.3v1.7l6.8,7.4l-18.2,19.9L353.7,381.1z M99.8,227.5l19.3,21h-1.5l2,2.2
		l-19.7,21.5l-19.7-21.5l2-2.2h-1.5L99.8,227.5z M340.6,166.7l-7.1,6.6h-0.6l0,0h-20.1l0,0h-0.6l-7.6-7l7.1-6.6h0.6l0,0h20.1l0,0
		h0.6L340.6,166.7z M398.1,166.3l-7.6,7l0,0h-0.6h-20.1l0,0h-0.6l-7.1-6.6l7.6-7h0.6l0,0h20.1h0.6l0,0L398.1,166.3z M248.2,117.4
		v0.6v0.1l0,0v1.7v38.8v0.6l-4.9,4.5l-9.1-8.4h-0.6l0,0H233h-23h-0.1V118v-1.7l0,0l-6.3-6.9l18.7-20.3L248.2,117.4z M196.9,166.3
		l-7.6,7l0,0h-0.6l0,0h-0.6h-19.5H168l-7.1-6.6l7.6-7h0.6h19.5h0.6l0,0h0.6l0,0L196.9,166.3z M147.6,117.4v0.6v0.1l0,0v1.7v38.8v0.6
		l-4.9,4.5l-9.1-8.4H133l0,0h-0.6l0,0h-23.1V118v-1.7l0,0l-6.3-6.9l18.7-20.3L147.6,117.4z M88.6,325.8L88.6,325.8h0.6l0,0l7.1,6.6
		l-7.6,7l0,0h-0.6l0,0h-0.6l0,0H67.4l-7.1-6.6l7.6-7H88l0,0H88.6z M96.4,166.3l-7.6,7l0,0h-0.6l0,0h-0.6l0,0H67.4l-7.1-6.6l7.6-7H88
		l0,0h0.6l0,0h0.6l0,0L96.4,166.3z M348.8,117.4v0.6v0.1l0,0v1.7v38.8v0.6l-4.9,4.5l-9.1-8.4h-0.6l0,0h-23.6l0,0h-0.1V118v-1.7l0,0
		l-6.3-6.9l18.7-20.3L348.8,117.4z M441.1,332.8l-7.1,6.6h-0.6h-20.1l0,0h-0.6l-7.6-7l7.1-6.6h0.6l0,0h20.1h0.6L441.1,332.8z
		 M398.6,109.4l-6.3,6.9l0,0v1.7v37.3h-0.1h-23.6l0,0H368l-9.1,8.4l-4.9-4.5V118v-0.6l26-28.3L398.6,109.4z M178.7,89.1l18.7,20.3
		l-6.3,6.9l0,0v1.7v37.3H191l0,0h-0.6h-23h-0.6l-9.1,8.4l-4.9-4.5V118v-0.6L178.7,89.1z M51.9,174.5l5.1-4.7l8.7,8h23.6l0,0h0.6l0,0
		H90v38.9l6.8,7.4L78.6,244L52,215v-38.8L51.9,174.5L51.9,174.5z M456.1,332.8l-4.2,3.9l-4.2-3.9l4.2-3.9L456.1,332.8z M419.4,248.5
		l2,2.2l-19.7,21.5L382,250.7l2-2.2h-1.5l19.3-21l19.3,21L419.4,248.5L419.4,248.5z M53.7,166.7l-4.2,3.9l-4.2-3.9l4.2-3.9
		L53.7,166.7z M449.5,174.5v1.7V215l-26.6,29l-18.2-19.9l6.8-7.4v-38.9h0.1l0,0h23.6h0.6l8.7-8L449.5,174.5L449.5,174.5z
		 M441.1,166.7l-7.1,6.6h-0.6h-20.1l0,0h-0.6l-7.6-7l7.1-6.6h0.6l0,0h20.1h0.6L441.1,166.7z M200.4,438.3l-19.7-21.5l2-2.2h-1.5
		l19.3-21l19.3,21h-1.5l2,2.2L200.4,438.3z M456.1,166.7l-4.2,3.9l-4.2-3.9l4.2-3.9L456.1,166.7z M99.8,438.3l-19.7-21.5l2-2.2h-1.5
		l19.3-21l19.3,21h-1.5l2,2.2L99.8,438.3z M250.7,445.7l-27-29.4l1.5-1.7h-1.5l27-29.4l27,29.4h-1.5l1.5,1.7L250.7,445.7z
		 M383.9,414.6h-1.5l19.3-21l19.3,21h-1.5l2,2.2l-19.7,21.5l-19.7-21.5L383.9,414.6z M449.4,118L449.4,118L449.4,118v1.7v38.8v0.6
		l-4.9,4.5l-9.1-8.4h-0.6h-23.6l0,0H411V118v-1.7l0,0l-6.3-6.9l18.7-20.3l26,28.3L449.4,118L449.4,118z M150.1,445.7l-27-29.4
		l1.5-1.7h-1.5l27-29.4l27,29.4h-1.5l1.5,1.7L150.1,445.7z M49.6,219.1l27,29.4h-1.5l1.5,1.7l-27,29.4l-27-29.4l1.5-1.7h-1.5
		L49.6,219.1z M301,61.4l19.3,21h-1.5l2,2.2L301,106.1l-19.7-21.5l2-2.2h-1.5L301,61.4z M218.2,82.4l2,2.2l-19.7,21.5l-19.7-21.5
		l2-2.2h-1.5l19.3-21l19.3,21H218.2z M150.1,53l27,29.4h-1.5l1.5,1.7l-27,29.4l-27-29.4l1.5-1.7h-1.5L150.1,53z M117.6,82.4l2,2.2
		l-19.7,21.5L80.1,84.6l2-2.2h-1.5l19.3-21l19.3,21H117.6z M49.6,445.7l-27-29.4l1.5-1.7h-1.5l27-29.4l27,29.4h-1.5l1.5,1.7
		L49.6,445.7z M401.6,61.4l19.3,21h-1.5l2,2.2l-19.7,21.5L382,84.6l2-2.2h-1.5L401.6,61.4z M376.8,82.4l1.5,1.7l-27,29.4l-27-29.4
		l1.5-1.7h-1.5l27-29.4l27,29.4H376.8z M396.7,489.1v-38.8l0,0l4.9-5.3l4.9,5.3l0,0v38.8v1.7l-4.9,4.5l-4.9-4.5V489.1z M477.4,248.5
		l1.5,1.7l-27,29.4l-27-29.4l1.5-1.7h-1.5l27-29.4l27,29.4L477.4,248.5L477.4,248.5z M8.7,282.4L8.7,282.4l-6.3-6.9L21,255.1
		l26,28.3v0.6v0.1l0,0v1.7V323v1.7v0.3l0,0v0.3l-4.9,4.5l-9.1-8.4h-0.6l0,0h-0.6l0,0H8.7v-37.3V282.4z M9.1,216.8v-38.9h23.1l0,0
		h0.6l0,0h0.6l8.7-8l5.1,4.7l0,0v1.7V215l-26.6,29L2.3,224.2L9.1,216.8z M9.1,343.9h23.1l0,0h0.6l0,0h0.6l8.7-8l5.1,4.7l0,0v1.7
		v37.2v1.7l-26.6,29L2.3,390.3l6.8-7.4v-1.7V343.9z M477.4,82.4l1.5,1.7l-27,29.4l-27-29.4l1.5-1.7h-1.5l27-29.4l27,29.4H477.4z
		 M499.2,390.3L481,410.2l-26.6-29v-1.7v-37.2v-1.7l0,0l5.1-4.7l8.7,8h0.6l0,0h23.7v37.3v1.7L499.2,390.3z M8.7,448.5L8.7,448.5
		l-6.3-6.9L21,421.2l26,28.3v0.7l0,0V489v1.7v0.3l0,0v0.3l-4.9,4.5l-9.1-8.4h-0.6l0,0h-0.6l0,0H8.7V448.5z M57,495.9l-4.9-4.5V491
		v-41.5l26-28.3l18.7,20.3l-6.3,6.9l0,0v38.9h-0.1l0,0h-0.6l0,0H66.1L57,495.9z M109.2,448.5L109.2,448.5l-6.3-6.9l18.7-20.3
		l26,28.3v0.7l0,0v38.8v1.7v0.3l0,0v0.3l-4.9,4.5l-9.1-8.4H133l0,0h-0.6l0,0h-23.1L109.2,448.5L109.2,448.5z M166.7,487.4l-9.1,8.4
		l-4.9-4.5V491v-41.5l26-28.3l18.7,20.3l-6.3,6.9l0,0v38.9H191l0,0h-0.6h-23h-0.7V487.4z M209.8,487.4v-38.9l0,0l-6.3-6.9l18.7-20.3
		l26,28.3v0.7l0,0v38.8v1.7v0.3l0,0v0.3l-4.9,4.5l-9.1-8.4h-0.6l0,0H233h-23.2V487.4z M267.9,487.4h-0.6l-9.1,8.4l-4.9-4.5V491
		v-41.5l26-28.3l18.7,20.3l-6.3,6.9l0,0v38.9h-0.1l0,0h-23.7V487.4z M310.5,487.4L310.5,487.4L310.5,487.4l-0.1-38.9l0,0l-6.3-6.9
		l18.7-20.3l26,28.3v0.7l0,0v38.8v1.7v0.3l0,0v0.3l-4.9,4.5l-9.1-8.4h-0.6l0,0h-23.7V487.4z M368.5,487.4h-0.6l-9.1,8.4l-4.9-4.5
		V491v-41.5l26-28.3l18.7,20.3l-6.3,6.9l0,0v38.9h-0.1h-23.7V487.4z M411.1,487.4L411.1,487.4L411.1,487.4l-0.1-38.9l0,0l-6.3-6.9
		l18.7-20.3l26,28.3v0.7l0,0v38.8v1.7v0.3l0,0v0.3l-4.9,4.5l-9.1-8.4h-0.6h-23.7V487.4z M469.1,487.4h-0.6l-9.1,8.4l-4.9-4.5V491
		v-41.5l26-28.3l18.7,20.3l-6.3,6.9l0,0v38.9h-23.8V487.4z M492.4,216.8l6.8,7.4L480.9,244l-26.6-29v-38.8v-1.7l0,0l5.1-4.7l8.7,8
		h0.6l0,0h23.7L492.4,216.8L492.4,216.8z M435.2,11.7h0.6l8.7-8l5.1,4.7v1.7v38.8l-26.6,29L404.8,58l6.8-7.4V11.7h0.1l0,0H435.2z
		 M391.7,11.7L391.7,11.7l0.1,38.9l6.8,7.4l-18.2,19.9l-26.6-29V10.1V8.4l5.1-4.7l8.7,8h0.6l0,0H391.7z M334.6,11.7L334.6,11.7h0.6
		l8.7-8l5.1,4.7v1.7v38.8l-26.6,29L304.2,58l6.8-7.4V11.7h0.1l0,0H334.6z M291.1,11.7L291.1,11.7L291.1,11.7l0.1,38.9L298,58
		l-18.2,19.9l-26.6-29V10.1V8.4l5.1-4.7l8.7,8h0.6l0,0H291.1z M233.3,11.7h0.6l0,0h0.6l8.7-8l5.1,4.7v1.7v38.8l-26.6,29L203.5,58
		l6.8-7.4V11.7h0.1H233.3z M189.9,11.7h0.6l0,0h0.1v38.9l6.8,7.4l-18.2,19.9l-26.6-29V10.1V8.4l5.1-4.7l8.7,8h0.6H189.9z
		 M132.8,11.7L132.8,11.7h0.6l0,0h0.6l8.7-8l5.1,4.7v1.7v38.8l-26.6,29L103,58l6.8-7.4V11.7H132.8z M89.3,11.7L89.3,11.7h0.6l0,0H90
		v38.9l6.8,7.4L78.6,77.9L52,48.9V10.1V8.4l5-4.7l8.7,8H89.3z M32.2,11.7L32.2,11.7h0.6l0,0h0.6l8.7-8l5.1,4.7v1.7v38.8l-26.6,29
		L2.3,58.1l6.8-7.4v-39H32.2z M492.4,11.7v38.9l6.8,7.4L481,77.9l-26.6-29V10.1V8.4l5.1-4.7l8.7,8h0.6l0,0H492.4z"/>
</g>
</svg>
