<?xml version="1.0" encoding="utf-8"?>
<!-- Generator: Adobe Illustrator 21.1.0, SVG Export Plug-In . SVG Version: 6.00 Build 0)  -->
<svg version="1.1" id="レイヤー_1" xmlns="http://www.w3.org/2000/svg" xmlns:xlink="http://www.w3.org/1999/xlink" x="0px"
	 y="0px" viewBox="0 0 500 500" enable-background="new 0 0 500 500" xml:space="preserve">
<pattern  width="106.3" height="184.1" patternUnits="userSpaceOnUse" id="新規パターンスウォッチ_3" viewBox="45 -199.1 106.3 184.1" overflow="visible">
	<g>
		<rect x="45" y="-199.1" fill="none" width="106.3" height="184.1"/>
		<g>
			<polygon fill="#F7B52C" points="87.6,-86.4 53.1,-78 100.8,-53.5 			"/>
			<polygon fill="#DB4912" points="65.7,-58.5 55.8,-24.5 100.8,-53.5 			"/>
			<polygon fill="#F7B52C" points="79,-25.6 103.5,0 100.8,-53.5 			"/>
			<polygon fill="#DB4912" points="114.1,-20.6 148.5,-29 100.8,-53.5 			"/>
			<polygon fill="#F7B52C" points="135.9,-48.6 145.9,-82.6 100.8,-53.5 			"/>
			<polygon fill="#DB4912" points="122.7,-81.4 98.2,-107.1 100.8,-53.5 			"/>
		</g>
		<g>
			<polygon fill="#F7B52C" points="87.6,-86.4 53.1,-78 100.8,-53.5 			"/>
			<polygon fill="#DB4912" points="65.7,-58.5 55.8,-24.5 100.8,-53.5 			"/>
			<polygon fill="#F7B52C" points="79,-25.6 103.5,0 100.8,-53.5 			"/>
			<polygon fill="#DB4912" points="114.1,-20.6 148.5,-29 100.8,-53.5 			"/>
			<polygon fill="#F7B52C" points="135.9,-48.6 145.9,-82.6 100.8,-53.5 			"/>
			<polygon fill="#DB4912" points="122.7,-81.4 98.2,-107.1 100.8,-53.5 			"/>
		</g>
		<g>
			<polygon fill="#F7B52C" points="34.4,-178.5 0,-170.1 47.7,-145.6 			"/>
			<polygon fill="#DB4912" points="12.6,-150.6 2.6,-116.5 47.7,-145.6 			"/>
			<polygon fill="#F7B52C" points="25.8,-117.7 50.3,-92.1 47.7,-145.6 			"/>
			<polygon fill="#DB4912" points="60.9,-112.7 95.4,-121.1 47.7,-145.6 			"/>
			<polygon fill="#F7B52C" points="82.8,-140.6 92.7,-174.6 47.7,-145.6 			"/>
			<polygon fill="#DB4912" points="69.5,-173.5 45,-199.1 47.7,-145.6 			"/>
		</g>
		<g>
			<polygon fill="#F7B52C" points="34.4,-178.5 0,-170.1 47.7,-145.6 			"/>
			<polygon fill="#DB4912" points="12.6,-150.6 2.6,-116.5 47.7,-145.6 			"/>
			<polygon fill="#F7B52C" points="25.8,-117.7 50.3,-92.1 47.7,-145.6 			"/>
			<polygon fill="#DB4912" points="60.9,-112.7 95.4,-121.1 47.7,-145.6 			"/>
			<polygon fill="#F7B52C" points="82.8,-140.6 92.7,-174.6 47.7,-145.6 			"/>
			<polygon fill="#DB4912" points="69.5,-173.5 45,-199.1 47.7,-145.6 			"/>
		</g>
		<g>
			<polygon fill="#F7B52C" points="140.7,-178.5 106.3,-170.1 154,-145.6 			"/>
			<polygon fill="#DB4912" points="118.9,-150.6 108.9,-116.5 154,-145.6 			"/>
			<polygon fill="#F7B52C" points="132.1,-117.7 156.6,-92.1 154,-145.6 			"/>
			<polygon fill="#DB4912" points="167.2,-112.7 201.7,-121.1 154,-145.6 			"/>
			<polygon fill="#F7B52C" points="189.1,-140.6 199,-174.6 154,-145.6 			"/>
			<polygon fill="#DB4912" points="175.8,-173.5 151.3,-199.1 154,-145.6 			"/>
		</g>
		<g>
			<polygon fill="#F7B52C" points="140.7,-178.5 106.3,-170.1 154,-145.6 			"/>
			<polygon fill="#DB4912" points="118.9,-150.6 108.9,-116.5 154,-145.6 			"/>
			<polygon fill="#F7B52C" points="132.1,-117.7 156.6,-92.1 154,-145.6 			"/>
			<polygon fill="#DB4912" points="167.2,-112.7 201.7,-121.1 154,-145.6 			"/>
			<polygon fill="#F7B52C" points="189.1,-140.6 199,-174.6 154,-145.6 			"/>
			<polygon fill="#DB4912" points="175.8,-173.5 151.3,-199.1 154,-145.6 			"/>
		</g>
		<g>
			<polygon fill="#F7B52C" points="87.6,-270.5 53.1,-262.1 100.8,-237.6 			"/>
			<polygon fill="#DB4912" points="65.7,-242.6 55.8,-208.6 100.8,-237.6 			"/>
			<polygon fill="#F7B52C" points="79,-209.7 103.5,-184.1 100.8,-237.6 			"/>
			<polygon fill="#DB4912" points="114.1,-204.8 148.5,-213.2 100.8,-237.6 			"/>
			<polygon fill="#F7B52C" points="135.9,-232.7 145.9,-266.7 100.8,-237.6 			"/>
			<polygon fill="#DB4912" points="122.7,-265.6 98.2,-291.2 100.8,-237.6 			"/>
		</g>
		<g>
			<polygon fill="#F7B52C" points="87.6,-270.5 53.1,-262.1 100.8,-237.6 			"/>
			<polygon fill="#DB4912" points="65.7,-242.6 55.8,-208.6 100.8,-237.6 			"/>
			<polygon fill="#F7B52C" points="79,-209.7 103.5,-184.1 100.8,-237.6 			"/>
			<polygon fill="#DB4912" points="114.1,-204.8 148.5,-213.2 100.8,-237.6 			"/>
			<polygon fill="#F7B52C" points="135.9,-232.7 145.9,-266.7 100.8,-237.6 			"/>
			<polygon fill="#DB4912" points="122.7,-265.6 98.2,-291.2 100.8,-237.6 			"/>
		</g>
	</g>
</pattern>
<g>
	<polygon fill="#DB4912" points="500,42.6 500,22.1 481.6,18.1 	"/>
	<polygon fill="#F7B52C" points="500,0 497.9,0 481.6,18.1 500,15.8 	"/>
	<polygon fill="#DB4912" points="475.7,0 481.6,18.1 489.3,0 	"/>
	<polygon fill="#F7B52C" points="410.4,99.4 457.1,109.5 438.1,84.2 	"/>
	<polygon fill="#DB4912" points="425,144.8 457.1,109.5 425.7,113.3 	"/>
	<polygon fill="#F7B52C" points="471.7,154.9 457.1,109.5 444.7,138.5 	"/>
	<polygon fill="#DB4912" points="500,121.6 500,118.7 457.1,109.5 476,134.7 	"/>
	<polygon fill="#F7B52C" points="489.1,74.1 457.1,109.5 488.4,105.7 	"/>
	<polygon fill="#DB4912" points="442.5,64 457.1,109.5 469.4,80.4 	"/>
	<polygon fill="#DB4912" points="436.8,52.6 390.2,42.6 409.1,67.8 	"/>
	<polygon fill="#F7B52C" points="422.2,7.2 390.2,42.6 421.5,38.8 	"/>
	<polygon fill="#DB4912" points="390.2,42.6 402.5,13.5 380.3,0 376.5,0 	"/>
	<polygon fill="#F7B52C" points="468,0 449.5,0 434.9,8 481.6,18.1 	"/>
	<polygon fill="#DB4912" points="450.2,21.9 449.5,53.4 481.6,18.1 	"/>
	<polygon fill="#F7B52C" points="469.2,47.1 496.2,63.5 481.6,18.1 	"/>
	<polygon fill="#F7B52C" points="452.9,257.7 499.5,267.7 480.5,242.5 	"/>
	<polygon fill="#DB4912" points="467.4,303.1 499.5,267.7 468.2,271.5 	"/>
	<polygon fill="#F7B52C" points="500,304.6 500,269.4 499.5,267.7 487.1,296.8 	"/>
	<polygon fill="#DB4912" points="500,267.8 499.5,267.7 500,268.4 	"/>
	<polygon fill="#F7B52C" points="500,267.2 499.5,267.7 500,267.7 	"/>
	<polygon fill="#DB4912" points="500,231.5 484.9,222.3 499.5,267.7 500,266.5 	"/>
	<polygon fill="#DB4912" points="479.2,210.9 432.6,200.8 451.5,226.1 	"/>
	<polygon fill="#F7B52C" points="464.6,165.5 432.6,200.8 463.9,197 	"/>
	<polygon fill="#DB4912" points="445,171.8 418,155.4 432.6,200.8 	"/>
	<polygon fill="#F7B52C" points="500,153.9 477.3,166.3 500,171.2 	"/>
	<polygon fill="#DB4912" points="492.6,180.2 491.9,211.7 500,202.8 500,179.3 	"/>
	<polygon fill="#F7B52C" points="495.3,415.9 500,417 500,413.4 	"/>
	<polygon fill="#DB4912" points="500,381 500,364.5 475,359.1 493.9,384.3 	"/>
	<polygon fill="#F7B52C" points="500,331.5 475,359.1 500,356.1 	"/>
	<polygon fill="#DB4912" points="460.4,313.7 475,359.1 487.4,330.1 	"/>
	<polygon fill="#DB4912" points="301.2,0 291.5,0 291.2,11 	"/>
	<polygon fill="#F7B52C" points="310.9,4.7 337.9,21.1 331.1,0 312.9,0 	"/>
	<polygon fill="#DB4912" points="341.6,0 342.2,0.9 343.9,0 	"/>
	<polygon fill="#F7B52C" points="319.1,123.9 365.7,133.9 346.7,108.7 	"/>
	<polygon fill="#DB4912" points="333.7,169.3 365.7,133.9 334.4,137.7 	"/>
	<polygon fill="#F7B52C" points="380.3,179.4 365.7,133.9 353.3,163 	"/>
	<polygon fill="#DB4912" points="412.3,144 365.7,133.9 384.6,159.2 	"/>
	<polygon fill="#F7B52C" points="397.7,98.6 365.7,133.9 397,130.1 	"/>
	<polygon fill="#DB4912" points="351.1,88.5 365.7,133.9 378.1,104.9 	"/>
	<polygon fill="#DB4912" points="317.7,92.3 345.4,77.1 298.8,67 	"/>
	<polygon fill="#F7B52C" points="330.8,31.7 298.8,67 330.1,63.2 	"/>
	<polygon fill="#DB4912" points="284.2,21.6 298.8,67 311.2,38 	"/>
	<polygon fill="#F7B52C" points="371.2,17.3 343.5,32.5 390.2,42.6 	"/>
	<polygon fill="#DB4912" points="358.9,46.4 358.1,77.9 390.2,42.6 	"/>
	<polygon fill="#F7B52C" points="377.8,71.6 404.8,88 390.2,42.6 	"/>
	<polygon fill="#F7B52C" points="361.5,282.2 408.1,292.2 389.1,267 	"/>
	<polygon fill="#DB4912" points="376.1,327.6 408.1,292.2 376.8,296 	"/>
	<polygon fill="#F7B52C" points="395.7,321.2 422.7,337.6 408.1,292.2 	"/>
	<polygon fill="#DB4912" points="454.7,302.3 408.1,292.2 427.1,317.4 	"/>
	<polygon fill="#F7B52C" points="440.1,256.9 408.1,292.2 439.4,288.4 	"/>
	<polygon fill="#DB4912" points="393.5,246.8 408.1,292.2 420.5,263.2 	"/>
	<polygon fill="#F7B52C" points="341.2,225.3 328.8,254.4 355.8,270.7 	"/>
	<polygon fill="#DB4912" points="387.8,235.4 341.2,225.3 360.2,250.6 	"/>
	<polygon fill="#F7B52C" points="373.2,190 341.2,225.3 372.5,221.5 	"/>
	<polygon fill="#DB4912" points="326.6,179.9 341.2,225.3 353.6,196.3 	"/>
	<polygon fill="#F7B52C" points="413.6,175.6 386,190.8 432.6,200.8 	"/>
	<polygon fill="#DB4912" points="401.3,204.6 400.6,236.2 432.6,200.8 	"/>
	<polygon fill="#F7B52C" points="420.2,229.9 447.2,246.3 432.6,200.8 	"/>
	<polygon fill="#F7B52C" points="403.9,440.4 450.5,450.5 431.6,425.3 	"/>
	<polygon fill="#DB4912" points="418.5,485.8 450.5,450.5 419.2,454.3 	"/>
	<polygon fill="#DB4912" points="497.1,460.6 450.5,450.5 469.5,475.7 	"/>
	<polygon fill="#F7B52C" points="482.5,415.2 450.5,450.5 481.8,446.7 	"/>
	<polygon fill="#DB4912" points="435.9,405.1 450.5,450.5 462.9,421.5 	"/>
	<polygon fill="#F7B52C" points="383.6,383.6 371.2,412.6 398.2,429 	"/>
	<polygon fill="#DB4912" points="430.2,393.7 383.6,383.6 402.6,408.8 	"/>
	<polygon fill="#F7B52C" points="415.6,348.3 383.6,383.6 414.9,379.8 	"/>
	<polygon fill="#DB4912" points="369,338.2 383.6,383.6 396,354.6 	"/>
	<polygon fill="#F7B52C" points="456,333.9 428.4,349.1 475,359.1 	"/>
	<polygon fill="#DB4912" points="443.7,362.9 443,394.5 475,359.1 	"/>
	<polygon fill="#F7B52C" points="462.6,388.1 489.6,404.5 475,359.1 	"/>
	<polygon fill="#DB4912" points="411.4,496.5 412.6,500 417.2,500 	"/>
	<polygon fill="#F7B52C" points="500,494.2 498.5,492.2 484.2,500 500,500 	"/>
	<polygon fill="#F7B52C" points="450.5,450.5 438.1,479.5 465.1,495.9 	"/>
	<polygon fill="#F7B52C" points="231.2,0 231.9,0.1 231.8,0 	"/>
	<polygon fill="#DB4912" points="199.9,35.5 231.9,0.1 200.6,4 	"/>
	<polygon fill="#F7B52C" points="246.5,45.6 231.9,0.1 219.5,29.2 	"/>
	<polygon fill="#DB4912" points="278.5,10.2 231.9,0.1 250.8,25.4 	"/>
	<polygon fill="#F7B52C" points="232,0 231.9,0.1 233.1,0 	"/>
	<polygon fill="#DB4912" points="231.8,0 231.9,0.1 232,0 	"/>
	<polygon fill="#F7B52C" points="227.7,148.4 274.3,158.4 255.4,133.2 	"/>
	<polygon fill="#DB4912" points="242.3,193.8 274.3,158.4 243,162.2 	"/>
	<polygon fill="#F7B52C" points="288.9,203.8 274.3,158.4 261.9,187.5 	"/>
	<polygon fill="#DB4912" points="320.9,168.5 274.3,158.4 293.3,183.7 	"/>
	<polygon fill="#F7B52C" points="306.3,123.1 274.3,158.4 305.6,154.6 	"/>
	<polygon fill="#DB4912" points="259.7,113 274.3,158.4 286.7,129.4 	"/>
	<polygon fill="#F7B52C" points="207.4,91.5 188.5,66.3 160.8,81.5 	"/>
	<polygon fill="#DB4912" points="254,101.6 207.4,91.5 226.4,116.8 	"/>
	<polygon fill="#F7B52C" points="239.4,56.2 207.4,91.5 238.7,87.7 	"/>
	<polygon fill="#DB4912" points="192.8,46.1 207.4,91.5 219.8,62.5 	"/>
	<polygon fill="#F7B52C" points="279.8,41.8 252.2,57 298.8,67 	"/>
	<polygon fill="#DB4912" points="267.5,70.8 266.8,102.4 298.8,67 	"/>
	<polygon fill="#F7B52C" points="286.4,96.1 313.4,112.5 298.8,67 	"/>
	<polygon fill="#F7B52C" points="270.1,306.6 316.7,316.7 297.8,291.5 	"/>
	<polygon fill="#DB4912" points="284.7,352.1 316.7,316.7 285.4,320.5 	"/>
	<polygon fill="#F7B52C" points="331.3,362.1 316.7,316.7 304.3,345.7 	"/>
	<polygon fill="#DB4912" points="335.7,341.9 363.3,326.8 316.7,316.7 	"/>
	<polygon fill="#F7B52C" points="348.7,281.4 316.7,316.7 348,312.9 	"/>
	<polygon fill="#DB4912" points="302.1,271.3 316.7,316.7 329.1,287.7 	"/>
	<polygon fill="#DB4912" points="296.4,259.9 249.8,249.8 268.8,275 	"/>
	<polygon fill="#F7B52C" points="281.9,214.5 249.8,249.8 281.1,246 	"/>
	<polygon fill="#DB4912" points="235.2,204.4 249.8,249.8 262.2,220.8 	"/>
	<polygon fill="#F7B52C" points="322.2,200.1 294.6,215.3 341.2,225.3 	"/>
	<polygon fill="#DB4912" points="309.9,229.1 309.2,260.7 341.2,225.3 	"/>
	<polygon fill="#F7B52C" points="312.5,464.9 359.1,475 340.2,449.8 	"/>
	<polygon fill="#DB4912" points="327.3,500 336.5,500 359.1,475 327.8,478.8 	"/>
	<polygon fill="#F7B52C" points="367.2,500 359.1,475 348.5,500 	"/>
	<polygon fill="#DB4912" points="377.9,500 378.5,500 405.8,485.1 359.1,475 	"/>
	<polygon fill="#F7B52C" points="391.2,439.6 359.1,475 390.4,471.2 	"/>
	<polygon fill="#DB4912" points="344.5,429.6 359.1,475 371.5,446 	"/>
	<polygon fill="#DB4912" points="338.9,418.2 292.2,408.1 311.2,433.3 	"/>
	<polygon fill="#F7B52C" points="324.3,372.7 292.2,408.1 323.6,404.3 	"/>
	<polygon fill="#DB4912" points="277.6,362.7 292.2,408.1 304.6,379.1 	"/>
	<polygon fill="#F7B52C" points="364.7,358.4 337,373.5 383.6,383.6 	"/>
	<polygon fill="#DB4912" points="352.3,387.4 351.6,419 383.6,383.6 	"/>
	<polygon fill="#F7B52C" points="140.5,24.6 122,0 120.5,0 93.9,14.6 	"/>
	<polygon fill="#DB4912" points="108.5,60 140.5,24.6 109.2,28.4 	"/>
	<polygon fill="#F7B52C" points="155.1,70.1 140.5,24.6 128.1,53.7 	"/>
	<polygon fill="#DB4912" points="187.1,34.7 140.5,24.6 159.5,49.9 	"/>
	<polygon fill="#F7B52C" points="172.3,0 162.8,0 140.5,24.6 171.8,20.8 	"/>
	<polygon fill="#DB4912" points="132.6,0 140.5,24.6 151,0 	"/>
	<polygon fill="#F7B52C" points="88.2,3.2 87.2,0 83,0 	"/>
	<polygon fill="#F7B52C" points="136.3,172.8 182.9,182.9 164,157.7 	"/>
	<polygon fill="#DB4912" points="150.9,218.3 182.9,182.9 151.6,186.7 	"/>
	<polygon fill="#F7B52C" points="170.6,211.9 197.5,228.3 182.9,182.9 	"/>
	<polygon fill="#DB4912" points="229.6,193 182.9,182.9 201.9,208.1 	"/>
	<polygon fill="#F7B52C" points="215,147.6 182.9,182.9 214.2,179.1 	"/>
	<polygon fill="#DB4912" points="168.3,137.5 182.9,182.9 195.3,153.9 	"/>
	<polygon fill="#DB4912" points="162.7,126.1 116,116 135,141.2 	"/>
	<polygon fill="#F7B52C" points="148.1,80.7 116,116 147.3,112.2 	"/>
	<polygon fill="#DB4912" points="128.4,87 101.4,70.6 116,116 	"/>
	<polygon fill="#DB4912" points="176.1,95.3 175.4,126.9 207.4,91.5 	"/>
	<polygon fill="#F7B52C" points="195,120.6 222,136.9 207.4,91.5 	"/>
	<polygon fill="#F7B52C" points="178.7,331.1 225.3,341.2 206.4,316 	"/>
	<polygon fill="#DB4912" points="193.3,376.5 225.3,341.2 194,345 	"/>
	<polygon fill="#F7B52C" points="213,370.2 239.9,386.6 225.3,341.2 	"/>
	<polygon fill="#DB4912" points="272,351.3 225.3,341.2 244.3,366.4 	"/>
	<polygon fill="#F7B52C" points="257.4,305.8 225.3,341.2 256.7,337.4 	"/>
	<polygon fill="#DB4912" points="210.7,295.8 225.3,341.2 237.7,312.2 	"/>
	<polygon fill="#DB4912" points="205.1,284.4 158.4,274.3 177.4,299.5 	"/>
	<polygon fill="#F7B52C" points="190.5,239 158.4,274.3 189.8,270.5 	"/>
	<polygon fill="#DB4912" points="143.8,228.9 158.4,274.3 170.8,245.3 	"/>
	<polygon fill="#F7B52C" points="230.9,224.6 203.2,239.7 249.8,249.8 	"/>
	<polygon fill="#DB4912" points="218.5,253.6 217.8,285.2 249.8,249.8 	"/>
	<polygon fill="#F7B52C" points="237.5,278.8 264.4,295.2 249.8,249.8 	"/>
	<polygon fill="#F7B52C" points="221.1,489.4 267.7,499.5 248.8,474.2 	"/>
	<polygon fill="#DB4912" points="267.3,500 267.7,499.5 263.4,500 	"/>
	<polygon fill="#F7B52C" points="267.9,500 267.7,499.5 267.5,500 	"/>
	<polygon fill="#DB4912" points="268.1,500 270.2,500 267.7,499.5 	"/>
	<polygon fill="#F7B52C" points="299.8,464.1 267.7,499.5 299.1,495.7 	"/>
	<polygon fill="#DB4912" points="253.1,454.1 267.7,499.5 280.1,470.4 	"/>
	<polygon fill="#DB4912" points="247.5,442.6 200.8,432.6 219.8,457.8 	"/>
	<polygon fill="#F7B52C" points="232.9,397.2 200.8,432.6 232.2,428.8 	"/>
	<polygon fill="#DB4912" points="186.3,387.2 200.8,432.6 213.2,403.5 	"/>
	<polygon fill="#F7B52C" points="273.3,382.9 245.6,398 292.2,408.1 	"/>
	<polygon fill="#DB4912" points="260.9,411.9 260.2,443.4 292.2,408.1 	"/>
	<polygon fill="#F7B52C" points="279.9,437.1 306.8,453.5 292.2,408.1 	"/>
	<polygon fill="#F7B52C" points="2.5,39.1 49.1,49.1 30.2,23.9 	"/>
	<polygon fill="#DB4912" points="17.1,84.5 49.1,49.1 17.8,52.9 	"/>
	<polygon fill="#F7B52C" points="63.7,94.5 49.1,49.1 36.8,78.1 	"/>
	<polygon fill="#DB4912" points="95.8,59.2 49.1,49.1 68.1,74.3 	"/>
	<polygon fill="#F7B52C" points="81.2,13.8 49.1,49.1 80.5,45.3 	"/>
	<polygon fill="#DB4912" points="34.5,3.7 49.1,49.1 61.5,20.1 	"/>
	<polygon fill="#DB4912" points="0,5.9 1.2,7.4 14.8,0 0,0 	"/>
	<polygon fill="#F7B52C" points="44.9,197.3 91.5,207.4 72.6,182.2 	"/>
	<polygon fill="#DB4912" points="59.5,242.7 91.5,207.4 60.2,211.2 	"/>
	<polygon fill="#F7B52C" points="79.2,236.4 106.1,252.8 91.5,207.4 	"/>
	<polygon fill="#DB4912" points="138.2,217.5 91.5,207.4 110.5,232.6 	"/>
	<polygon fill="#F7B52C" points="123.6,172.1 91.5,207.4 122.9,203.6 	"/>
	<polygon fill="#DB4912" points="76.9,162 91.5,207.4 103.9,178.4 	"/>
	<polygon fill="#DB4912" points="71.3,150.6 24.6,140.5 43.6,165.7 	"/>
	<polygon fill="#F7B52C" points="56.7,105.2 24.6,140.5 56,136.7 	"/>
	<polygon fill="#DB4912" points="10,95.1 24.6,140.5 37,111.5 	"/>
	<polygon fill="#F7B52C" points="97.1,90.8 69.4,106 116,116 	"/>
	<polygon fill="#DB4912" points="84.7,119.8 84,151.4 116,116 	"/>
	<polygon fill="#F7B52C" points="103.7,145 130.6,161.4 116,116 	"/>
	<polygon fill="#F7B52C" points="87.3,355.6 134,365.7 115,340.5 	"/>
	<polygon fill="#DB4912" points="101.9,401 134,365.7 102.6,369.5 	"/>
	<polygon fill="#F7B52C" points="121.6,394.7 148.5,411.1 134,365.7 	"/>
	<polygon fill="#DB4912" points="180.6,375.7 134,365.7 152.9,390.9 	"/>
	<polygon fill="#F7B52C" points="166,330.3 134,365.7 165.3,361.9 	"/>
	<polygon fill="#DB4912" points="119.4,320.3 134,365.7 146.3,336.7 	"/>
	<polygon fill="#DB4912" points="113.7,308.9 67.1,298.8 86,324 	"/>
	<polygon fill="#F7B52C" points="99.1,263.4 67.1,298.8 98.4,295 	"/>
	<polygon fill="#DB4912" points="52.5,253.4 67.1,298.8 79.4,269.8 	"/>
	<polygon fill="#F7B52C" points="139.5,249.1 111.8,264.2 158.4,274.3 	"/>
	<polygon fill="#DB4912" points="127.1,278.1 126.4,309.6 158.4,274.3 	"/>
	<polygon fill="#F7B52C" points="146.1,303.3 173,319.7 158.4,274.3 	"/>
	<polygon fill="#F7B52C" points="157.4,498.7 155.1,500 158.4,500 	"/>
	<polygon fill="#F7B52C" points="208.4,488.6 198.1,500 208.1,500 	"/>
	<polygon fill="#DB4912" points="188.7,494.9 161.8,478.5 168.7,500 186.6,500 	"/>
	<polygon fill="#F7B52C" points="97.1,486.1 120,500 123.3,500 109.5,457.1 	"/>
	<polygon fill="#DB4912" points="156.1,467.1 109.5,457.1 128.4,482.3 	"/>
	<polygon fill="#F7B52C" points="141.5,421.7 109.5,457.1 140.8,453.3 	"/>
	<polygon fill="#DB4912" points="94.9,411.6 109.5,457.1 121.8,428 	"/>
	<polygon fill="#F7B52C" points="181.9,407.4 154.2,422.5 200.8,432.6 	"/>
	<polygon fill="#DB4912" points="169.5,436.4 168.8,467.9 200.8,432.6 	"/>
	<polygon fill="#F7B52C" points="188.5,461.6 215.4,478 200.8,432.6 	"/>
	<polygon fill="#DB4912" points="4.4,83.7 0,82.7 0,86.1 	"/>
	<polygon fill="#F7B52C" points="0,231.7 0,231.9 0.2,231.9 	"/>
	<polygon fill="#DB4912" points="0,232.1 0.2,231.9 0,231.9 	"/>
	<polygon fill="#F7B52C" points="0,268.3 14.8,277.3 0.2,231.9 0,232.3 	"/>
	<polygon fill="#DB4912" points="46.8,242 0.2,231.9 19.1,257.1 	"/>
	<polygon fill="#F7B52C" points="32.2,196.5 0.2,231.9 31.5,228.1 	"/>
	<polygon fill="#DB4912" points="0,195.2 0,231.4 0.2,231.9 12.5,202.9 	"/>
	<polygon fill="#F7B52C" points="5.7,115.3 0,118.4 0,135.2 24.6,140.5 	"/>
	<polygon fill="#DB4912" points="0,143.5 0,167.7 24.6,140.5 	"/>
	<polygon fill="#F7B52C" points="12.3,169.5 39.2,185.9 24.6,140.5 	"/>
	<polygon fill="#F7B52C" points="0,377.9 0,381 42.6,390.2 23.6,364.9 	"/>
	<polygon fill="#DB4912" points="10.5,425.5 42.6,390.2 11.2,394 	"/>
	<polygon fill="#F7B52C" points="30.2,419.2 57.2,435.6 42.6,390.2 	"/>
	<polygon fill="#DB4912" points="89.2,400.2 42.6,390.2 61.5,415.4 	"/>
	<polygon fill="#F7B52C" points="74.6,354.8 42.6,390.2 73.9,386.4 	"/>
	<polygon fill="#DB4912" points="28,344.8 42.6,390.2 54.9,361.1 	"/>
	<polygon fill="#DB4912" points="0,328.5 0,345.6 22.3,333.3 	"/>
	<polygon fill="#F7B52C" points="7,319.5 7.7,287.9 0,296.4 0,320.3 	"/>
	<polygon fill="#F7B52C" points="48.1,273.6 20.4,288.7 67.1,298.8 	"/>
	<polygon fill="#DB4912" points="35.7,302.6 35,334.1 67.1,298.8 	"/>
	<polygon fill="#F7B52C" points="54.7,327.8 81.6,344.2 67.1,298.8 	"/>
	<polygon fill="#DB4912" points="18.1,481.5 31.9,500 49.4,500 64.7,491.6 	"/>
	<polygon fill="#F7B52C" points="50.1,446.2 18.1,481.5 49.4,477.7 	"/>
	<polygon fill="#DB4912" points="3.5,436.1 18.1,481.5 30.4,452.5 	"/>
	<polygon fill="#F7B52C" points="90.5,431.8 62.8,447 109.5,457.1 	"/>
	<polygon fill="#DB4912" points="78.1,460.9 77.4,492.4 109.5,457.1 	"/>
	<polygon fill="#F7B52C" points="0,457.5 0,477.6 18.1,481.5 	"/>
	<polygon fill="#DB4912" points="0,483.7 0,500 1.4,500 18.1,481.5 	"/>
	<polygon fill="#F7B52C" points="10.2,500 24,500 18.1,481.5 	"/>
</g>
<pattern  id="SVGID_1_" xlink:href="#譁ｰ隕上ヱ繧ｿ繝ｼ繝ｳ繧ｹ繧ｦ繧ｩ繝メ_3" patternTransform="matrix(1 0 0 1 19.3599 -21.5888)">
</pattern>
<rect x="1476.3" y="449.5" fill="url(#SVGID_1_)" width="446.5" height="657.7"/>
</svg>
