<?xml version="1.0" encoding="utf-8"?>
<!-- Generator: Adobe Illustrator 21.1.0, SVG Export Plug-In . SVG Version: 6.00 Build 0)  -->
<svg version="1.1" id="レイヤー_1" xmlns="http://www.w3.org/2000/svg" xmlns:xlink="http://www.w3.org/1999/xlink" x="0px"
	 y="0px" viewBox="0 0 500 500" style="enable-background:new 0 0 500 500;" xml:space="preserve">
<g>
	<path d="M-130.64,311.79l-4.61,37.6l-2.25,0.2l-22.18-32.7l-4.31,35.02l-2.06,0.18l4.61-37.6l2.39-0.21l22.07,32.52l4.28-34.83
		L-130.64,311.79z"/>
	<path d="M-116.01,348.53c-2.81,0.25-5.09-0.47-6.86-2.15c-1.77-1.68-2.79-4.11-3.07-7.3c-0.18-2.1-0.01-4.06,0.52-5.88
		c0.53-1.81,1.32-3.41,2.38-4.79c1.05-1.38,2.33-2.48,3.83-3.32c1.5-0.84,3.14-1.34,4.93-1.49c1.27-0.11,2.49-0.02,3.64,0.28
		c1.15,0.3,2.16,0.81,3.02,1.52c0.87,0.71,1.58,1.64,2.15,2.8c0.57,1.15,0.92,2.53,1.06,4.12c0.16,1.82,0.02,3.65-0.41,5.5
		c-0.43,1.85-1.14,3.54-2.14,5.05c-0.99,1.52-2.25,2.79-3.76,3.82C-112.24,347.75-114,348.35-116.01,348.53z M-116.13,346.56
		c1.72-0.15,3.21-0.67,4.46-1.57c1.25-0.9,2.29-2.01,3.11-3.33c0.82-1.32,1.39-2.79,1.74-4.39c0.34-1.6,0.44-3.19,0.31-4.75
		c-0.21-2.39-0.99-4.19-2.33-5.41c-1.34-1.22-3.11-1.73-5.31-1.53c-1.59,0.14-3.02,0.6-4.29,1.39c-1.26,0.79-2.32,1.78-3.16,2.97
		c-0.84,1.2-1.46,2.58-1.85,4.14c-0.39,1.56-0.52,3.17-0.37,4.83c0.11,1.21,0.35,2.31,0.72,3.29c0.37,0.98,0.88,1.81,1.52,2.49
		c0.64,0.68,1.41,1.19,2.33,1.53C-118.36,346.55-117.31,346.67-116.13,346.56z"/>
	<path d="M-161.03,409.47l4.61-37.6l6.07-0.53c3.67-0.32,6.56,0.21,8.69,1.58c2.13,1.37,3.31,3.44,3.56,6.22
		c0.35,4.05-0.74,7.3-3.29,9.76c-2.55,2.46-6.45,3.91-11.71,4.37l-3.97,0.35l-1.9,15.68L-161.03,409.47z M-156.81,391.56l3.97-0.35
		c4.53-0.4,7.82-1.64,9.89-3.73c2.06-2.09,2.95-4.81,2.66-8.16c-0.19-2.2-1.15-3.81-2.86-4.83c-1.71-1.02-4.11-1.4-7.21-1.13
		l-4.26,0.37L-156.81,391.56z"/>
	<path d="M-133.43,385.66c1.05-0.86,2.2-1.52,3.44-1.99c1.24-0.46,2.47-0.75,3.68-0.85c2.17-0.19,3.81,0.16,4.94,1.06
		c1.12,0.9,1.76,2.26,1.92,4.07c0.03,0.35,0.04,0.7,0.02,1.03c-0.02,0.34-0.04,0.7-0.07,1.09l-1.95,15.73l-2.05,0.81l0.49-3.8
		c-1.12,1.13-2.45,2.13-3.98,3c-1.53,0.87-3.16,1.38-4.88,1.53s-3.11-0.16-4.15-0.94c-1.05-0.78-1.64-1.93-1.77-3.46
		c-0.14-1.56,0.25-3.03,1.16-4.41c0.91-1.38,2.33-2.54,4.27-3.48c1.39-0.67,2.93-1.26,4.61-1.78c1.69-0.52,3.72-1.01,6.09-1.47
		l0.25-2.05c0.05-0.49,0.05-1.03,0-1.64c-0.11-1.21-0.57-2.09-1.39-2.65c-0.82-0.55-1.93-0.77-3.33-0.65
		c-1.34,0.12-2.67,0.47-3.98,1.07c-1.31,0.6-2.53,1.46-3.65,2.58L-133.43,385.66z M-121.93,393.76c-1.49,0.23-3.03,0.56-4.61,1.01
		c-1.58,0.44-2.93,0.92-4.04,1.44c-2.07,0.92-3.47,1.94-4.19,3.06c-0.72,1.12-1.03,2.28-0.93,3.45c0.08,0.89,0.44,1.6,1.08,2.12
		c0.64,0.52,1.58,0.73,2.83,0.62c1.5-0.13,3.03-0.66,4.58-1.58c1.56-0.92,3.06-2.24,4.52-3.94L-121.93,393.76z"/>
	<path d="M-108.9,381.83l0.96-7.79l2.11-0.71l-1.05,8.33l7.46-0.65l-0.22,1.9l-7.46,0.65l-1.66,13.49
		c-0.17,1.36-0.22,2.46-0.15,3.29c0.08,0.93,0.38,1.69,0.9,2.31c0.52,0.61,1.31,1.15,2.38,1.6l-0.02,0.29l-2.41,0.55
		c-0.87-0.37-1.53-0.92-2-1.63c-0.46-0.71-0.75-1.69-0.86-2.94c-0.07-0.83-0.02-1.93,0.15-3.29l1.66-13.49l-4.59,0.4l0.22-1.9
		L-108.9,381.83z"/>
	<path d="M-92.69,380.41l0.96-7.79l2.11-0.71l-1.05,8.33l7.46-0.65l-0.22,1.9l-7.46,0.65l-1.66,13.49
		c-0.17,1.36-0.22,2.46-0.15,3.29c0.08,0.93,0.38,1.69,0.9,2.31c0.52,0.61,1.31,1.15,2.38,1.6l-0.02,0.29l-2.41,0.55
		c-0.87-0.37-1.53-0.92-2-1.63c-0.46-0.71-0.75-1.69-0.86-2.94c-0.07-0.83-0.02-1.93,0.15-3.29l1.66-13.49l-4.59,0.4l0.22-1.9
		L-92.69,380.41z"/>
	<path d="M-71.32,391.16c-0.62,0.22-1.31,0.43-2.06,0.64c-0.75,0.21-1.53,0.42-2.33,0.64c-0.8,0.22-1.6,0.41-2.4,0.6
		c-0.8,0.18-1.55,0.35-2.24,0.51l0.02,0.24c0.19,2.14,0.97,3.83,2.35,5.07c1.38,1.25,3.29,1.76,5.75,1.54
		c1.53-0.13,3.02-0.59,4.48-1.36c1.46-0.77,2.7-1.76,3.71-2.98l0.14-0.01l-0.41,3.07c-0.95,0.89-2.14,1.64-3.56,2.26
		c-1.42,0.62-2.84,1-4.24,1.12c-1.63,0.14-3.05,0.02-4.27-0.37c-1.22-0.39-2.25-0.97-3.09-1.75c-0.84-0.78-1.49-1.7-1.95-2.77
		c-0.46-1.07-0.75-2.22-0.86-3.47c-0.16-1.85,0.08-3.72,0.74-5.61c0.65-1.89,1.59-3.62,2.8-5.21c1.21-1.58,2.65-2.91,4.33-3.97
		c1.67-1.06,3.47-1.68,5.38-1.84c2.1-0.18,3.73,0.17,4.89,1.07c1.15,0.89,1.8,2.09,1.93,3.59c0.07,0.83-0.02,1.66-0.26,2.48
		c-0.25,0.83-0.72,1.62-1.41,2.39c-0.69,0.77-1.64,1.5-2.84,2.2C-67.95,389.94-69.48,390.58-71.32,391.16z M-68.87,379.48
		c-1.43,0.13-2.8,0.57-4.1,1.35c-1.3,0.77-2.46,1.73-3.48,2.88c-1.02,1.15-1.88,2.43-2.56,3.84c-0.68,1.41-1.1,2.81-1.27,4.21
		c0.57-0.11,1.23-0.27,1.98-0.46c0.75-0.19,1.55-0.41,2.4-0.64c0.85-0.23,1.71-0.49,2.58-0.78c0.87-0.29,1.7-0.57,2.48-0.87
		c2.33-0.85,4.03-1.85,5.08-3.02c1.05-1.17,1.53-2.36,1.42-3.57c-0.09-1.02-0.53-1.79-1.33-2.32
		C-66.47,379.57-67.54,379.36-68.87,379.48z"/>
	<path d="M-43.03,377.99c-1.94,0.17-3.65,0.6-5.11,1.29c-1.47,0.69-2.71,1.58-3.74,2.66c-0.24,0.25-0.43,0.5-0.58,0.77
		c-0.15,0.27-0.3,0.6-0.44,0.98c-0.14,0.38-0.26,0.83-0.36,1.36c-0.1,0.52-0.2,1.14-0.3,1.86l-1.63,13.3l-2.06,0.18l2.87-23.33
		l2.06-0.18l-0.48,3.85c1.2-1.29,2.45-2.29,3.74-3c1.29-0.71,2.67-1.24,4.15-1.59c0.66-0.15,1.39-0.27,2.19-0.34L-43.03,377.99z"/>
	<path d="M-37.51,375.58l2.06-0.18l-0.57,4.48c1.42-1.79,2.94-3.16,4.58-4.11c1.63-0.95,3.2-1.48,4.7-1.62
		c1.91-0.17,3.45,0.18,4.62,1.04c1.17,0.86,1.84,2.3,2.01,4.31c0.07,0.8,0.06,1.57-0.04,2.32l-1.92,15.49l-2.06,0.18l1.89-15.34
		c0.12-0.88,0.14-1.67,0.08-2.37c-0.12-1.34-0.59-2.31-1.41-2.91c-0.82-0.6-1.95-0.84-3.39-0.72c-0.73,0.06-1.47,0.22-2.2,0.48
		c-0.73,0.26-1.43,0.59-2.11,1c-0.67,0.41-1.3,0.89-1.9,1.42c-0.6,0.53-1.12,1.11-1.58,1.73c-0.58,0.76-1.02,1.49-1.32,2.21
		c-0.31,0.72-0.53,1.58-0.66,2.59l-1.6,13.15l-2.06,0.18L-37.51,375.58z"/>
</g>
<g>
	<path d="M-17.95,452.5l-4.61,37.6l-2.25,0.2l-22.18-32.7l-4.31,35.02l-2.06,0.18l4.61-37.6l2.39-0.21l22.07,32.52l4.28-34.83
		L-17.95,452.5z"/>
	<path d="M-3.31,489.24c-2.81,0.25-5.09-0.47-6.86-2.15c-1.77-1.68-2.79-4.11-3.07-7.3c-0.18-2.1-0.01-4.06,0.52-5.88
		c0.53-1.81,1.32-3.41,2.38-4.79c1.05-1.38,2.33-2.48,3.83-3.32c1.5-0.84,3.14-1.33,4.93-1.49c1.27-0.11,2.49-0.02,3.64,0.28
		c1.15,0.3,2.16,0.81,3.02,1.52c0.87,0.71,1.58,1.64,2.15,2.8s0.92,2.53,1.06,4.12c0.16,1.82,0.02,3.65-0.41,5.5
		c-0.43,1.85-1.14,3.54-2.14,5.05c-0.99,1.52-2.25,2.79-3.76,3.82C0.46,488.46-1.31,489.06-3.31,489.24z M-3.44,487.28
		c1.72-0.15,3.21-0.67,4.46-1.57c1.25-0.9,2.29-2.01,3.11-3.33c0.82-1.32,1.39-2.79,1.74-4.39c0.34-1.6,0.44-3.19,0.31-4.75
		c-0.21-2.39-0.99-4.19-2.33-5.41c-1.34-1.22-3.11-1.73-5.31-1.53c-1.59,0.14-3.02,0.6-4.29,1.39c-1.26,0.79-2.32,1.78-3.16,2.98
		c-0.84,1.2-1.46,2.58-1.85,4.14c-0.39,1.56-0.52,3.17-0.37,4.83c0.11,1.21,0.35,2.31,0.72,3.29c0.37,0.98,0.88,1.81,1.52,2.49
		c0.64,0.68,1.41,1.19,2.33,1.53C-5.66,487.26-4.62,487.38-3.44,487.28z"/>
	<path d="M-48.33,550.18l4.61-37.6l6.07-0.53c3.67-0.32,6.56,0.21,8.69,1.58c2.13,1.37,3.31,3.45,3.56,6.22
		c0.35,4.05-0.74,7.3-3.29,9.76c-2.55,2.46-6.45,3.91-11.71,4.37l-3.97,0.35l-1.9,15.68L-48.33,550.18z M-44.12,532.27l3.97-0.35
		c4.53-0.4,7.82-1.64,9.89-3.73c2.06-2.09,2.95-4.81,2.66-8.16c-0.19-2.2-1.15-3.81-2.86-4.83c-1.71-1.02-4.11-1.4-7.21-1.13
		l-4.26,0.37L-44.12,532.27z"/>
	<path d="M-20.74,526.37c1.05-0.86,2.2-1.52,3.44-1.99c1.24-0.46,2.47-0.75,3.68-0.85c2.17-0.19,3.81,0.17,4.94,1.06
		c1.12,0.9,1.76,2.26,1.92,4.07c0.03,0.35,0.04,0.7,0.02,1.03c-0.02,0.34-0.04,0.7-0.07,1.09l-1.95,15.73l-2.05,0.81l0.49-3.8
		c-1.12,1.13-2.45,2.13-3.98,3c-1.53,0.87-3.16,1.38-4.88,1.53c-1.72,0.15-3.11-0.16-4.15-0.94c-1.05-0.78-1.64-1.93-1.77-3.46
		c-0.14-1.56,0.25-3.03,1.16-4.41c0.91-1.38,2.33-2.54,4.27-3.48c1.39-0.67,2.93-1.26,4.61-1.78c1.69-0.52,3.72-1.01,6.09-1.47
		l0.25-2.05c0.05-0.49,0.05-1.03,0-1.64c-0.11-1.21-0.57-2.09-1.39-2.65c-0.82-0.55-1.93-0.77-3.33-0.65
		c-1.34,0.12-2.67,0.47-3.98,1.07c-1.31,0.6-2.53,1.46-3.65,2.58L-20.74,526.37z M-9.24,534.47c-1.49,0.23-3.03,0.56-4.61,1.01
		c-1.58,0.44-2.93,0.92-4.04,1.44c-2.07,0.92-3.47,1.94-4.19,3.07c-0.72,1.12-1.03,2.28-0.93,3.45c0.08,0.89,0.44,1.6,1.08,2.12
		c0.64,0.52,1.58,0.73,2.83,0.62c1.5-0.13,3.03-0.66,4.58-1.58c1.56-0.92,3.06-2.24,4.52-3.94L-9.24,534.47z"/>
	<path d="M3.79,522.54l0.96-7.79l2.11-0.71l-1.05,8.33l7.46-0.65l-0.22,1.9l-7.46,0.65l-1.66,13.49c-0.17,1.36-0.22,2.46-0.15,3.29
		c0.08,0.93,0.38,1.69,0.9,2.31c0.52,0.61,1.31,1.15,2.38,1.6l-0.02,0.29l-2.41,0.55c-0.87-0.37-1.53-0.92-2-1.63
		c-0.46-0.71-0.75-1.69-0.86-2.94c-0.07-0.83-0.02-1.93,0.15-3.29l1.66-13.49l-4.59,0.4l0.22-1.9L3.79,522.54z"/>
	<path d="M20,521.12l0.96-7.79l2.11-0.71l-1.05,8.33l7.46-0.65l-0.22,1.9l-7.46,0.65l-1.66,13.49c-0.17,1.36-0.22,2.46-0.15,3.29
		c0.08,0.93,0.38,1.69,0.9,2.31c0.52,0.61,1.31,1.15,2.38,1.6l-0.02,0.29l-2.41,0.55c-0.87-0.37-1.53-0.92-2-1.63
		c-0.46-0.71-0.75-1.69-0.86-2.94c-0.07-0.83-0.02-1.93,0.15-3.29l1.66-13.49l-4.59,0.4l0.22-1.9L20,521.12z"/>
	<path d="M41.37,531.88c-0.62,0.22-1.31,0.43-2.06,0.64c-0.75,0.21-1.53,0.42-2.33,0.64c-0.8,0.22-1.6,0.41-2.4,0.6
		c-0.8,0.18-1.55,0.35-2.24,0.51l0.02,0.24c0.19,2.14,0.97,3.83,2.35,5.07c1.38,1.25,3.29,1.76,5.75,1.54
		c1.53-0.13,3.02-0.59,4.48-1.36s2.7-1.76,3.71-2.98l0.14-0.01l-0.41,3.07c-0.95,0.89-2.14,1.64-3.56,2.26
		c-1.42,0.62-2.84,1-4.24,1.12c-1.63,0.14-3.05,0.02-4.27-0.37c-1.22-0.39-2.25-0.97-3.09-1.75c-0.84-0.78-1.49-1.7-1.95-2.77
		c-0.46-1.07-0.75-2.22-0.86-3.47c-0.16-1.85,0.08-3.72,0.74-5.61c0.65-1.89,1.59-3.62,2.8-5.21c1.21-1.58,2.65-2.91,4.33-3.97
		c1.67-1.06,3.47-1.68,5.38-1.84c2.1-0.18,3.73,0.17,4.89,1.07c1.15,0.89,1.8,2.09,1.93,3.59c0.07,0.83-0.02,1.66-0.27,2.48
		c-0.25,0.82-0.72,1.62-1.4,2.39c-0.69,0.77-1.64,1.5-2.84,2.2C44.74,530.66,43.22,531.3,41.37,531.88z M43.82,520.19
		c-1.43,0.13-2.8,0.57-4.1,1.35c-1.3,0.77-2.46,1.73-3.48,2.88c-1.02,1.15-1.88,2.43-2.56,3.84c-0.68,1.41-1.1,2.81-1.27,4.21
		c0.57-0.11,1.23-0.27,1.98-0.46c0.75-0.19,1.55-0.41,2.4-0.64c0.85-0.23,1.71-0.49,2.58-0.78c0.87-0.29,1.7-0.57,2.48-0.87
		c2.34-0.85,4.03-1.85,5.08-3.02c1.05-1.17,1.53-2.36,1.42-3.57c-0.09-1.02-0.53-1.79-1.33-2.32
		C46.23,520.28,45.16,520.08,43.82,520.19z"/>
	<path d="M69.66,518.7c-1.94,0.17-3.65,0.6-5.11,1.29c-1.47,0.69-2.71,1.58-3.74,2.66c-0.24,0.25-0.43,0.5-0.58,0.77
		c-0.15,0.27-0.3,0.6-0.44,0.98s-0.26,0.83-0.36,1.36c-0.1,0.52-0.2,1.14-0.3,1.86l-1.63,13.3l-2.06,0.18l2.87-23.33l2.06-0.18
		l-0.48,3.85c1.2-1.29,2.45-2.29,3.74-3c1.29-0.71,2.67-1.24,4.15-1.59c0.66-0.15,1.39-0.27,2.19-0.34L69.66,518.7z"/>
	<path d="M75.18,516.29l2.06-0.18l-0.57,4.48c1.42-1.79,2.94-3.16,4.58-4.11c1.63-0.94,3.2-1.48,4.7-1.62
		c1.91-0.17,3.45,0.18,4.62,1.04c1.17,0.86,1.84,2.3,2.01,4.3c0.07,0.8,0.06,1.57-0.04,2.32l-1.92,15.49l-2.06,0.18l1.89-15.34
		c0.12-0.88,0.14-1.67,0.08-2.37c-0.12-1.34-0.59-2.31-1.41-2.91c-0.82-0.6-1.95-0.84-3.39-0.72c-0.73,0.06-1.47,0.22-2.2,0.48
		c-0.73,0.26-1.43,0.59-2.11,1c-0.67,0.41-1.3,0.89-1.9,1.42c-0.6,0.53-1.12,1.11-1.58,1.73c-0.58,0.76-1.02,1.49-1.32,2.21
		c-0.31,0.72-0.53,1.58-0.66,2.59l-1.6,13.15l-2.06,0.18L75.18,516.29z"/>
</g>
<g>
	<path d="M68.6,294.36l-4.61,37.6l-2.25,0.2l-22.18-32.7l-4.31,35.02l-2.06,0.18l4.61-37.6l2.39-0.21l22.07,32.52l4.28-34.83
		L68.6,294.36z"/>
	<path d="M83.23,331.1c-2.81,0.25-5.09-0.47-6.86-2.15c-1.77-1.68-2.79-4.11-3.07-7.3c-0.18-2.1-0.01-4.06,0.52-5.88
		c0.53-1.81,1.32-3.41,2.38-4.79c1.05-1.38,2.33-2.48,3.83-3.32c1.5-0.84,3.14-1.34,4.93-1.49c1.28-0.11,2.49-0.02,3.64,0.28
		c1.15,0.3,2.16,0.81,3.02,1.52c0.87,0.71,1.58,1.64,2.15,2.8c0.57,1.15,0.92,2.53,1.06,4.12c0.16,1.82,0.02,3.65-0.41,5.5
		c-0.43,1.85-1.14,3.54-2.14,5.05c-0.99,1.52-2.25,2.79-3.76,3.82C87,330.32,85.24,330.92,83.23,331.1z M83.11,329.13
		c1.72-0.15,3.21-0.67,4.46-1.57c1.25-0.9,2.29-2.01,3.11-3.33s1.4-2.79,1.74-4.39c0.34-1.6,0.44-3.19,0.31-4.75
		c-0.21-2.39-0.99-4.19-2.33-5.41c-1.34-1.22-3.11-1.73-5.31-1.53c-1.59,0.14-3.02,0.6-4.29,1.39c-1.26,0.79-2.32,1.78-3.16,2.97
		c-0.84,1.2-1.46,2.58-1.85,4.14c-0.39,1.56-0.52,3.17-0.37,4.83c0.11,1.21,0.35,2.31,0.72,3.29c0.37,0.98,0.88,1.81,1.52,2.49
		c0.64,0.68,1.41,1.19,2.33,1.53C80.88,329.12,81.93,329.23,83.11,329.13z"/>
	<path d="M38.21,392.04l4.61-37.6l6.07-0.53c3.67-0.32,6.56,0.21,8.69,1.58c2.13,1.37,3.31,3.44,3.56,6.22
		c0.35,4.05-0.74,7.3-3.29,9.76c-2.55,2.46-6.45,3.91-11.71,4.37l-3.97,0.35l-1.9,15.68L38.21,392.04z M42.43,374.13l3.97-0.35
		c4.53-0.4,7.82-1.64,9.89-3.73c2.06-2.09,2.95-4.81,2.66-8.16c-0.19-2.2-1.15-3.81-2.86-4.83c-1.71-1.02-4.11-1.4-7.21-1.13
		l-4.26,0.37L42.43,374.13z"/>
	<path d="M65.81,368.23c1.05-0.86,2.19-1.52,3.44-1.99c1.24-0.46,2.47-0.75,3.68-0.85c2.17-0.19,3.81,0.16,4.94,1.06
		c1.12,0.9,1.76,2.26,1.92,4.07c0.03,0.35,0.04,0.7,0.02,1.03c-0.02,0.34-0.04,0.7-0.07,1.09l-1.95,15.73l-2.05,0.81l0.49-3.8
		c-1.12,1.13-2.45,2.13-3.98,3c-1.53,0.87-3.16,1.38-4.88,1.53c-1.72,0.15-3.11-0.16-4.15-0.94c-1.05-0.78-1.64-1.93-1.77-3.46
		c-0.14-1.56,0.25-3.03,1.16-4.41c0.91-1.38,2.33-2.54,4.27-3.48c1.39-0.67,2.92-1.26,4.61-1.78c1.69-0.52,3.72-1.01,6.09-1.47
		l0.26-2.05c0.05-0.49,0.05-1.03,0-1.64c-0.11-1.21-0.57-2.09-1.39-2.65c-0.82-0.55-1.93-0.77-3.33-0.65
		c-1.34,0.12-2.67,0.47-3.98,1.07c-1.31,0.6-2.53,1.46-3.65,2.58L65.81,368.23z M77.31,376.33c-1.49,0.23-3.03,0.56-4.61,1.01
		c-1.58,0.44-2.93,0.92-4.04,1.44c-2.07,0.92-3.47,1.94-4.19,3.06c-0.72,1.12-1.03,2.28-0.93,3.45c0.08,0.89,0.44,1.6,1.08,2.12
		c0.64,0.52,1.58,0.73,2.83,0.62c1.5-0.13,3.03-0.66,4.58-1.58c1.56-0.92,3.06-2.24,4.52-3.94L77.31,376.33z"/>
	<path d="M90.34,364.39l0.96-7.79l2.11-0.71l-1.05,8.33l7.46-0.65l-0.22,1.9l-7.46,0.65l-1.66,13.49c-0.17,1.36-0.22,2.46-0.15,3.29
		c0.08,0.93,0.38,1.69,0.9,2.31c0.52,0.61,1.31,1.15,2.38,1.6l-0.02,0.29l-2.41,0.55c-0.87-0.37-1.53-0.92-2-1.63
		c-0.46-0.71-0.75-1.69-0.86-2.94c-0.07-0.83-0.02-1.93,0.15-3.29l1.66-13.49l-4.59,0.4l0.22-1.9L90.34,364.39z"/>
	<path d="M106.55,362.98l0.96-7.79l2.11-0.71l-1.05,8.33l7.46-0.65l-0.22,1.9l-7.46,0.65l-1.66,13.49
		c-0.17,1.36-0.22,2.46-0.15,3.29c0.08,0.93,0.38,1.69,0.9,2.31c0.52,0.61,1.31,1.15,2.38,1.6l-0.02,0.29l-2.41,0.55
		c-0.87-0.37-1.53-0.92-2-1.63c-0.46-0.71-0.75-1.69-0.86-2.94c-0.07-0.83-0.02-1.93,0.15-3.29l1.66-13.49l-4.59,0.4l0.22-1.9
		L106.55,362.98z"/>
	<path d="M127.92,373.73c-0.62,0.22-1.31,0.43-2.06,0.64c-0.75,0.21-1.53,0.42-2.33,0.64c-0.8,0.22-1.6,0.41-2.41,0.6
		c-0.8,0.18-1.55,0.35-2.24,0.51l0.02,0.24c0.19,2.14,0.97,3.83,2.35,5.07c1.38,1.25,3.29,1.76,5.75,1.54
		c1.53-0.13,3.02-0.59,4.48-1.36c1.46-0.77,2.7-1.76,3.71-2.98l0.14-0.01l-0.41,3.07c-0.95,0.89-2.14,1.64-3.56,2.26
		c-1.42,0.62-2.84,1-4.24,1.12c-1.63,0.14-3.05,0.02-4.27-0.37c-1.22-0.39-2.25-0.97-3.09-1.75c-0.84-0.78-1.49-1.7-1.95-2.77
		c-0.46-1.07-0.75-2.22-0.86-3.47c-0.16-1.85,0.08-3.72,0.74-5.61c0.65-1.89,1.59-3.62,2.8-5.21c1.21-1.58,2.65-2.91,4.33-3.97
		c1.67-1.06,3.47-1.68,5.38-1.84c2.1-0.18,3.73,0.17,4.89,1.07c1.15,0.89,1.8,2.09,1.93,3.59c0.07,0.83-0.02,1.66-0.27,2.48
		c-0.25,0.83-0.72,1.62-1.4,2.39c-0.69,0.77-1.64,1.5-2.84,2.2C131.29,372.51,129.76,373.15,127.92,373.73z M130.36,362.05
		c-1.43,0.13-2.8,0.57-4.1,1.35c-1.3,0.77-2.46,1.73-3.48,2.88c-1.02,1.15-1.88,2.43-2.56,3.84c-0.68,1.41-1.1,2.81-1.27,4.21
		c0.57-0.11,1.23-0.27,1.98-0.46c0.75-0.19,1.55-0.41,2.4-0.64c0.85-0.23,1.71-0.49,2.58-0.78c0.87-0.29,1.7-0.57,2.48-0.87
		c2.33-0.85,4.03-1.85,5.08-3.02c1.05-1.17,1.53-2.36,1.42-3.57c-0.09-1.02-0.53-1.79-1.33-2.32
		C132.77,362.14,131.7,361.93,130.36,362.05z"/>
	<path d="M156.21,360.56c-1.94,0.17-3.65,0.6-5.11,1.29c-1.47,0.69-2.71,1.58-3.74,2.66c-0.24,0.25-0.43,0.5-0.58,0.77
		c-0.15,0.27-0.3,0.6-0.44,0.98c-0.14,0.38-0.26,0.83-0.36,1.36c-0.1,0.52-0.2,1.14-0.3,1.86l-1.63,13.3l-2.06,0.18l2.87-23.33
		l2.06-0.18l-0.48,3.85c1.2-1.29,2.45-2.29,3.74-3c1.29-0.71,2.67-1.24,4.15-1.59c0.66-0.15,1.39-0.27,2.19-0.34L156.21,360.56z"/>
	<path d="M161.73,358.15l2.06-0.18l-0.57,4.48c1.42-1.79,2.94-3.16,4.58-4.11c1.63-0.95,3.2-1.48,4.7-1.62
		c1.91-0.17,3.45,0.18,4.62,1.04c1.17,0.86,1.84,2.3,2.01,4.31c0.07,0.8,0.06,1.57-0.04,2.32l-1.92,15.49l-2.06,0.18l1.89-15.34
		c0.12-0.88,0.14-1.67,0.08-2.37c-0.12-1.34-0.59-2.31-1.41-2.91c-0.82-0.6-1.95-0.84-3.39-0.72c-0.73,0.06-1.47,0.22-2.2,0.48
		c-0.73,0.26-1.43,0.59-2.11,1c-0.67,0.41-1.3,0.89-1.9,1.42c-0.6,0.53-1.12,1.11-1.58,1.73c-0.58,0.76-1.02,1.49-1.32,2.21
		c-0.31,0.72-0.53,1.58-0.66,2.59l-1.6,13.15l-2.06,0.18L161.73,358.15z"/>
</g>
<g>
	<path d="M-156.79,12.93l-4.61,37.6l-2.25,0.2l-22.18-32.7l-4.31,35.02l-2.06,0.18l4.61-37.6l2.39-0.21l22.07,32.52l4.28-34.83
		L-156.79,12.93z"/>
	<path d="M-142.15,49.67c-2.81,0.25-5.09-0.47-6.86-2.15c-1.77-1.68-2.79-4.11-3.07-7.3c-0.18-2.1-0.01-4.06,0.52-5.88
		c0.53-1.81,1.32-3.41,2.38-4.79c1.05-1.38,2.33-2.48,3.83-3.32c1.5-0.84,3.14-1.34,4.93-1.49c1.27-0.11,2.49-0.02,3.64,0.28
		c1.15,0.3,2.16,0.81,3.02,1.52c0.87,0.71,1.58,1.64,2.15,2.8c0.57,1.15,0.92,2.53,1.06,4.12c0.16,1.82,0.02,3.65-0.41,5.5
		c-0.43,1.85-1.14,3.54-2.14,5.05c-0.99,1.52-2.25,2.79-3.76,3.82C-138.38,48.89-140.15,49.49-142.15,49.67z M-142.28,47.7
		c1.72-0.15,3.21-0.67,4.46-1.57c1.25-0.9,2.29-2.01,3.11-3.33c0.82-1.32,1.39-2.79,1.74-4.39c0.34-1.6,0.44-3.19,0.31-4.75
		c-0.21-2.39-0.99-4.19-2.33-5.41c-1.34-1.22-3.11-1.73-5.31-1.53c-1.59,0.14-3.02,0.6-4.29,1.39c-1.26,0.79-2.32,1.78-3.16,2.97
		c-0.84,1.2-1.46,2.58-1.85,4.14c-0.39,1.56-0.52,3.17-0.37,4.83c0.11,1.21,0.35,2.31,0.72,3.29c0.37,0.98,0.88,1.81,1.52,2.49
		c0.64,0.68,1.41,1.19,2.33,1.53C-144.5,47.69-143.46,47.81-142.28,47.7z"/>
	<path d="M-187.17,110.61l4.61-37.6l6.07-0.53c3.67-0.32,6.56,0.21,8.69,1.58c2.13,1.37,3.31,3.44,3.56,6.22
		c0.35,4.05-0.74,7.3-3.29,9.76c-2.55,2.46-6.45,3.91-11.71,4.37l-3.97,0.35l-1.9,15.68L-187.17,110.61z M-182.96,92.7l3.97-0.35
		c4.53-0.4,7.82-1.64,9.89-3.73c2.06-2.09,2.95-4.81,2.66-8.16c-0.19-2.2-1.15-3.81-2.86-4.83c-1.71-1.02-4.11-1.4-7.21-1.13
		l-4.26,0.37L-182.96,92.7z"/>
	<path d="M-159.58,86.8c1.05-0.86,2.2-1.52,3.44-1.99c1.24-0.46,2.47-0.75,3.68-0.85c2.17-0.19,3.81,0.16,4.94,1.06
		c1.12,0.9,1.76,2.26,1.92,4.07c0.03,0.35,0.04,0.7,0.02,1.03c-0.02,0.34-0.04,0.7-0.07,1.09l-1.95,15.73l-2.05,0.81l0.49-3.8
		c-1.12,1.13-2.45,2.13-3.98,3c-1.53,0.87-3.16,1.38-4.88,1.53c-1.72,0.15-3.11-0.16-4.15-0.94c-1.05-0.78-1.64-1.93-1.77-3.46
		c-0.14-1.56,0.25-3.03,1.16-4.41c0.91-1.38,2.33-2.54,4.27-3.48c1.39-0.67,2.93-1.26,4.61-1.78c1.69-0.52,3.72-1.01,6.09-1.47
		l0.25-2.05c0.05-0.49,0.05-1.03,0-1.64c-0.11-1.21-0.57-2.09-1.39-2.65c-0.82-0.55-1.93-0.77-3.33-0.65
		c-1.34,0.12-2.67,0.47-3.98,1.07c-1.31,0.6-2.53,1.46-3.65,2.58L-159.58,86.8z M-148.07,94.9c-1.49,0.23-3.03,0.56-4.61,1.01
		c-1.58,0.44-2.93,0.92-4.04,1.44c-2.07,0.92-3.47,1.94-4.19,3.06s-1.03,2.28-0.93,3.45c0.08,0.89,0.44,1.6,1.08,2.12
		c0.64,0.52,1.58,0.73,2.83,0.62c1.5-0.13,3.03-0.66,4.58-1.58c1.56-0.92,3.06-2.24,4.52-3.94L-148.07,94.9z"/>
	<path d="M-135.05,82.97l0.96-7.79l2.11-0.71l-1.05,8.33l7.46-0.65l-0.22,1.9l-7.46,0.65l-1.66,13.49
		c-0.17,1.36-0.22,2.46-0.15,3.29c0.08,0.93,0.38,1.69,0.9,2.31c0.52,0.61,1.31,1.15,2.38,1.6l-0.02,0.29l-2.41,0.55
		c-0.87-0.37-1.53-0.92-2-1.63c-0.46-0.71-0.75-1.69-0.86-2.94c-0.07-0.83-0.02-1.93,0.15-3.29l1.66-13.49l-4.59,0.4l0.22-1.9
		L-135.05,82.97z"/>
	<path d="M-118.84,81.55l0.96-7.79l2.11-0.71l-1.05,8.33l7.46-0.65l-0.22,1.9l-7.46,0.65l-1.66,13.49
		c-0.17,1.36-0.22,2.46-0.15,3.29c0.08,0.93,0.38,1.69,0.9,2.31c0.52,0.61,1.31,1.15,2.38,1.6l-0.02,0.29l-2.41,0.55
		c-0.87-0.37-1.53-0.92-2-1.63c-0.46-0.71-0.75-1.69-0.86-2.94c-0.07-0.83-0.02-1.93,0.15-3.29l1.66-13.49l-4.59,0.4l0.22-1.9
		L-118.84,81.55z"/>
	<path d="M-97.47,92.3c-0.62,0.22-1.31,0.43-2.06,0.64c-0.75,0.21-1.53,0.42-2.33,0.64c-0.8,0.21-1.6,0.41-2.4,0.6
		c-0.8,0.18-1.55,0.35-2.24,0.51l0.02,0.24c0.19,2.14,0.97,3.83,2.35,5.07c1.38,1.25,3.29,1.76,5.75,1.54
		c1.53-0.13,3.02-0.59,4.48-1.36c1.46-0.77,2.7-1.76,3.71-2.98l0.14-0.01l-0.41,3.07c-0.95,0.89-2.14,1.64-3.56,2.26
		c-1.42,0.62-2.84,1-4.24,1.12c-1.63,0.14-3.05,0.02-4.27-0.37c-1.22-0.39-2.25-0.97-3.09-1.75c-0.84-0.78-1.49-1.7-1.95-2.77
		c-0.46-1.07-0.75-2.22-0.86-3.47c-0.16-1.85,0.08-3.72,0.74-5.61c0.65-1.89,1.59-3.62,2.8-5.21c1.21-1.58,2.65-2.91,4.33-3.97
		c1.67-1.06,3.47-1.68,5.38-1.84c2.1-0.18,3.73,0.17,4.89,1.07c1.15,0.9,1.8,2.09,1.93,3.59c0.07,0.83-0.02,1.66-0.26,2.48
		c-0.25,0.83-0.72,1.62-1.41,2.39c-0.69,0.77-1.64,1.5-2.84,2.2C-94.1,91.09-95.62,91.73-97.47,92.3z M-95.02,80.62
		c-1.43,0.13-2.8,0.57-4.1,1.35c-1.3,0.77-2.46,1.73-3.48,2.88c-1.02,1.15-1.88,2.43-2.56,3.84c-0.68,1.41-1.1,2.81-1.27,4.21
		c0.57-0.11,1.23-0.27,1.98-0.46c0.75-0.19,1.55-0.41,2.4-0.64c0.85-0.23,1.71-0.49,2.58-0.78c0.87-0.29,1.7-0.57,2.48-0.87
		c2.33-0.85,4.03-1.85,5.08-3.02c1.05-1.17,1.53-2.36,1.42-3.57c-0.09-1.02-0.53-1.79-1.33-2.32
		C-92.61,80.71-93.68,80.51-95.02,80.62z"/>
	<path d="M-69.18,79.13c-1.94,0.17-3.65,0.6-5.11,1.29c-1.47,0.69-2.71,1.58-3.74,2.66c-0.24,0.25-0.43,0.5-0.58,0.77
		c-0.15,0.27-0.3,0.6-0.44,0.98c-0.14,0.38-0.26,0.83-0.36,1.36c-0.1,0.52-0.2,1.14-0.3,1.86l-1.63,13.3l-2.06,0.18l2.87-23.33
		l2.06-0.18l-0.48,3.85c1.2-1.29,2.45-2.29,3.74-3c1.29-0.71,2.67-1.24,4.15-1.59c0.66-0.15,1.39-0.27,2.19-0.34L-69.18,79.13z"/>
	<path d="M-63.66,76.72l2.06-0.18l-0.57,4.48c1.42-1.79,2.94-3.16,4.58-4.11c1.63-0.95,3.2-1.48,4.7-1.62
		c1.91-0.17,3.45,0.18,4.62,1.04c1.17,0.86,1.84,2.3,2.01,4.31c0.07,0.8,0.06,1.57-0.04,2.32l-1.92,15.49l-2.06,0.18l1.89-15.34
		c0.12-0.88,0.14-1.67,0.08-2.37c-0.12-1.34-0.59-2.31-1.41-2.91c-0.82-0.6-1.95-0.84-3.39-0.72c-0.73,0.06-1.47,0.22-2.2,0.48
		c-0.73,0.26-1.43,0.59-2.11,1c-0.67,0.41-1.3,0.89-1.9,1.42c-0.6,0.53-1.12,1.11-1.58,1.73c-0.58,0.76-1.02,1.49-1.32,2.21
		c-0.31,0.72-0.53,1.58-0.66,2.59l-1.6,13.15l-2.06,0.18L-63.66,76.72z"/>
</g>
<g>
	<path d="M-44.1,153.65l-4.61,37.6l-2.25,0.2l-22.18-32.7l-4.31,35.02l-2.06,0.18l4.61-37.6l2.39-0.21l22.07,32.52l4.28-34.83
		L-44.1,153.65z"/>
	<path d="M-29.46,190.38c-2.81,0.25-5.09-0.47-6.86-2.15c-1.77-1.68-2.79-4.11-3.07-7.3c-0.18-2.1-0.01-4.06,0.52-5.88
		c0.53-1.81,1.32-3.41,2.38-4.79c1.05-1.38,2.33-2.48,3.83-3.32c1.5-0.84,3.14-1.34,4.93-1.49c1.27-0.11,2.49-0.02,3.64,0.28
		c1.15,0.3,2.16,0.81,3.02,1.52c0.87,0.71,1.58,1.64,2.15,2.8c0.57,1.15,0.92,2.53,1.06,4.12c0.16,1.82,0.02,3.65-0.41,5.5
		c-0.43,1.85-1.14,3.54-2.14,5.05c-0.99,1.52-2.25,2.79-3.76,3.82C-25.69,189.6-27.45,190.21-29.46,190.38z M-29.59,188.42
		c1.72-0.15,3.21-0.67,4.46-1.57c1.25-0.9,2.29-2.01,3.11-3.33c0.82-1.32,1.39-2.79,1.74-4.39c0.34-1.6,0.44-3.19,0.31-4.75
		c-0.21-2.39-0.99-4.19-2.33-5.41c-1.34-1.22-3.11-1.73-5.31-1.53c-1.59,0.14-3.02,0.6-4.29,1.39c-1.26,0.79-2.32,1.78-3.16,2.97
		c-0.84,1.2-1.46,2.58-1.85,4.14c-0.39,1.56-0.52,3.17-0.37,4.83c0.11,1.21,0.35,2.31,0.72,3.29c0.37,0.98,0.88,1.81,1.52,2.49
		c0.64,0.68,1.41,1.19,2.33,1.53C-31.81,188.4-30.76,188.52-29.59,188.42z"/>
	<path d="M-74.48,251.32l4.61-37.6l6.07-0.53c3.67-0.32,6.56,0.21,8.69,1.58c2.13,1.37,3.31,3.44,3.56,6.22
		c0.35,4.05-0.74,7.3-3.29,9.76c-2.55,2.46-6.45,3.91-11.71,4.37l-3.97,0.35l-1.9,15.68L-74.48,251.32z M-70.27,233.41l3.97-0.35
		c4.53-0.4,7.82-1.64,9.89-3.73c2.06-2.09,2.95-4.81,2.66-8.16c-0.19-2.2-1.15-3.81-2.86-4.83c-1.71-1.02-4.11-1.4-7.21-1.13
		l-4.26,0.37L-70.27,233.41z"/>
	<path d="M-46.88,227.51c1.05-0.86,2.2-1.52,3.44-1.99c1.24-0.46,2.47-0.75,3.68-0.85c2.17-0.19,3.81,0.16,4.94,1.06
		c1.12,0.9,1.76,2.26,1.92,4.07c0.03,0.35,0.04,0.7,0.02,1.03c-0.02,0.34-0.04,0.7-0.07,1.09l-1.95,15.73l-2.05,0.81l0.49-3.8
		c-1.12,1.13-2.45,2.13-3.98,3c-1.53,0.87-3.16,1.38-4.88,1.53s-3.11-0.16-4.15-0.94c-1.05-0.78-1.64-1.93-1.77-3.46
		c-0.14-1.56,0.25-3.03,1.16-4.41c0.91-1.38,2.33-2.54,4.27-3.48c1.39-0.67,2.93-1.26,4.61-1.78c1.69-0.52,3.72-1.01,6.09-1.47
		l0.25-2.05c0.05-0.49,0.05-1.03,0-1.64c-0.11-1.21-0.57-2.09-1.39-2.65c-0.82-0.55-1.93-0.77-3.33-0.65
		c-1.34,0.12-2.67,0.47-3.98,1.07c-1.31,0.6-2.53,1.46-3.65,2.58L-46.88,227.51z M-35.38,235.61c-1.49,0.23-3.03,0.56-4.61,1.01
		c-1.58,0.44-2.93,0.92-4.04,1.44c-2.07,0.92-3.47,1.94-4.19,3.06s-1.03,2.28-0.93,3.45c0.08,0.89,0.44,1.6,1.08,2.12
		c0.64,0.52,1.58,0.73,2.83,0.62c1.5-0.13,3.03-0.66,4.58-1.58c1.56-0.92,3.06-2.24,4.52-3.94L-35.38,235.61z"/>
	<path d="M-22.36,223.68l0.96-7.79l2.11-0.71l-1.05,8.33l7.46-0.65l-0.22,1.9l-7.46,0.65l-1.66,13.49
		c-0.17,1.36-0.22,2.46-0.15,3.29c0.08,0.93,0.38,1.69,0.9,2.31c0.52,0.61,1.31,1.15,2.38,1.6l-0.02,0.29l-2.41,0.55
		c-0.87-0.37-1.53-0.92-2-1.63c-0.46-0.71-0.75-1.69-0.86-2.94c-0.07-0.83-0.02-1.93,0.15-3.29l1.66-13.49l-4.59,0.4l0.22-1.9
		L-22.36,223.68z"/>
	<path d="M-6.15,222.26l0.96-7.79l2.11-0.71l-1.05,8.33l7.46-0.65l-0.22,1.9l-7.46,0.65l-1.66,13.49c-0.17,1.36-0.22,2.46-0.15,3.29
		c0.08,0.93,0.38,1.69,0.9,2.31c0.52,0.61,1.31,1.15,2.38,1.6l-0.02,0.29l-2.41,0.55c-0.87-0.37-1.53-0.92-2-1.63
		c-0.46-0.71-0.75-1.69-0.86-2.94c-0.07-0.83-0.02-1.93,0.15-3.29l1.66-13.49l-4.59,0.4l0.22-1.9L-6.15,222.26z"/>
	<path d="M15.22,233.02c-0.62,0.22-1.31,0.43-2.06,0.64c-0.75,0.21-1.53,0.42-2.33,0.64c-0.8,0.21-1.6,0.41-2.4,0.6
		c-0.8,0.18-1.55,0.35-2.24,0.51l0.02,0.24c0.19,2.14,0.97,3.83,2.35,5.07c1.38,1.25,3.29,1.76,5.75,1.54
		c1.53-0.13,3.02-0.59,4.48-1.36c1.46-0.77,2.7-1.76,3.71-2.98l0.14-0.01l-0.41,3.07c-0.95,0.89-2.14,1.64-3.56,2.26
		c-1.42,0.62-2.84,1-4.24,1.12c-1.63,0.14-3.05,0.02-4.27-0.37c-1.22-0.39-2.25-0.97-3.09-1.75c-0.84-0.78-1.49-1.7-1.95-2.77
		c-0.46-1.07-0.75-2.22-0.86-3.47c-0.16-1.85,0.08-3.72,0.74-5.61c0.65-1.89,1.59-3.62,2.8-5.21c1.21-1.58,2.65-2.91,4.33-3.97
		c1.67-1.06,3.47-1.68,5.38-1.84c2.1-0.18,3.73,0.17,4.89,1.07c1.15,0.89,1.8,2.09,1.93,3.59c0.07,0.83-0.02,1.66-0.27,2.48
		c-0.25,0.83-0.72,1.62-1.4,2.39c-0.69,0.77-1.64,1.5-2.84,2.2C18.59,231.8,17.07,232.44,15.22,233.02z M17.67,221.34
		c-1.43,0.13-2.8,0.57-4.1,1.35c-1.3,0.77-2.46,1.73-3.48,2.88c-1.02,1.15-1.88,2.43-2.56,3.84c-0.68,1.41-1.1,2.81-1.27,4.21
		c0.57-0.11,1.23-0.27,1.98-0.46c0.75-0.19,1.55-0.41,2.4-0.64c0.85-0.23,1.71-0.49,2.58-0.78c0.87-0.29,1.7-0.57,2.48-0.87
		c2.33-0.85,4.03-1.85,5.08-3.02c1.05-1.17,1.53-2.36,1.42-3.57c-0.09-1.02-0.53-1.79-1.33-2.32
		C20.08,221.42,19.01,221.22,17.67,221.34z"/>
	<path d="M43.51,219.85c-1.94,0.17-3.65,0.6-5.11,1.29c-1.47,0.69-2.71,1.58-3.74,2.66c-0.24,0.25-0.43,0.5-0.58,0.77
		c-0.15,0.27-0.3,0.6-0.44,0.98c-0.14,0.38-0.26,0.83-0.36,1.36c-0.1,0.52-0.2,1.14-0.3,1.86l-1.63,13.3l-2.06,0.18l2.87-23.33
		l2.06-0.18l-0.48,3.85c1.2-1.29,2.45-2.29,3.74-3c1.29-0.71,2.67-1.24,4.15-1.59c0.66-0.15,1.39-0.27,2.19-0.34L43.51,219.85z"/>
	<path d="M49.03,217.44l2.06-0.18l-0.57,4.48c1.42-1.79,2.94-3.16,4.58-4.11c1.63-0.95,3.2-1.48,4.7-1.62
		c1.91-0.17,3.45,0.18,4.62,1.04c1.17,0.86,1.84,2.3,2.01,4.31c0.07,0.8,0.06,1.57-0.04,2.32l-1.92,15.49l-2.06,0.18L64.3,224
		c0.12-0.88,0.14-1.67,0.08-2.37c-0.12-1.34-0.59-2.31-1.41-2.91c-0.82-0.6-1.95-0.84-3.39-0.72c-0.73,0.06-1.47,0.22-2.2,0.48
		c-0.73,0.26-1.43,0.59-2.11,1c-0.67,0.41-1.3,0.89-1.9,1.42c-0.6,0.53-1.12,1.11-1.58,1.73c-0.58,0.76-1.02,1.49-1.32,2.21
		c-0.31,0.72-0.53,1.58-0.66,2.59l-1.6,13.15l-2.06,0.18L49.03,217.44z"/>
</g>
<g>
	<path d="M181.29,435.07l-4.61,37.6l-2.25,0.2l-22.18-32.7l-4.31,35.02l-2.06,0.18l4.61-37.6l2.39-0.21l22.07,32.52l4.28-34.83
		L181.29,435.07z"/>
	<path d="M195.92,471.81c-2.81,0.25-5.09-0.47-6.86-2.15c-1.77-1.68-2.79-4.11-3.07-7.3c-0.18-2.1-0.01-4.06,0.52-5.88
		c0.53-1.81,1.32-3.41,2.38-4.79c1.05-1.38,2.33-2.48,3.83-3.32c1.5-0.84,3.14-1.33,4.93-1.49c1.28-0.11,2.49-0.02,3.64,0.28
		c1.15,0.3,2.16,0.81,3.02,1.52c0.87,0.71,1.58,1.64,2.15,2.8c0.57,1.16,0.92,2.53,1.06,4.12c0.16,1.82,0.02,3.65-0.41,5.5
		c-0.43,1.85-1.14,3.54-2.14,5.05c-0.99,1.52-2.25,2.79-3.76,3.82C199.69,471.03,197.93,471.63,195.92,471.81z M195.8,469.84
		c1.72-0.15,3.21-0.67,4.46-1.57c1.25-0.9,2.29-2.01,3.11-3.33s1.4-2.79,1.74-4.39c0.34-1.6,0.44-3.19,0.31-4.75
		c-0.21-2.39-0.99-4.19-2.33-5.41c-1.34-1.22-3.11-1.73-5.31-1.53c-1.59,0.14-3.02,0.6-4.29,1.39c-1.26,0.79-2.32,1.78-3.16,2.98
		c-0.84,1.2-1.46,2.58-1.85,4.14c-0.39,1.56-0.52,3.17-0.37,4.83c0.11,1.21,0.35,2.31,0.72,3.29c0.37,0.98,0.88,1.81,1.52,2.49
		c0.64,0.68,1.41,1.19,2.33,1.53C193.58,469.83,194.62,469.95,195.8,469.84z"/>
	<path d="M150.9,532.75l4.61-37.6l6.07-0.53c3.67-0.32,6.56,0.21,8.69,1.58c2.13,1.37,3.31,3.45,3.56,6.22
		c0.35,4.05-0.74,7.3-3.29,9.76c-2.55,2.46-6.45,3.91-11.71,4.37l-3.97,0.35l-1.9,15.68L150.9,532.75z M155.12,514.84l3.97-0.35
		c4.53-0.4,7.82-1.64,9.89-3.73c2.06-2.09,2.95-4.81,2.66-8.16c-0.19-2.2-1.15-3.81-2.86-4.83c-1.71-1.02-4.11-1.4-7.21-1.13
		l-4.26,0.37L155.12,514.84z"/>
	<path d="M178.5,508.94c1.05-0.86,2.19-1.52,3.44-1.99c1.24-0.46,2.47-0.75,3.68-0.85c2.17-0.19,3.81,0.17,4.94,1.06
		c1.12,0.9,1.76,2.26,1.92,4.07c0.03,0.35,0.04,0.7,0.02,1.03c-0.02,0.34-0.04,0.7-0.07,1.09l-1.95,15.73l-2.05,0.81l0.49-3.8
		c-1.12,1.13-2.45,2.13-3.98,3c-1.53,0.87-3.16,1.38-4.88,1.53c-1.72,0.15-3.11-0.16-4.15-0.94c-1.05-0.78-1.64-1.93-1.77-3.46
		c-0.14-1.56,0.25-3.03,1.16-4.41c0.91-1.38,2.33-2.54,4.27-3.48c1.39-0.67,2.92-1.26,4.61-1.78c1.69-0.52,3.72-1.01,6.09-1.47
		l0.26-2.05c0.05-0.49,0.05-1.03,0-1.64c-0.11-1.21-0.57-2.09-1.39-2.65c-0.82-0.55-1.93-0.77-3.33-0.65
		c-1.34,0.12-2.67,0.47-3.98,1.07c-1.31,0.6-2.53,1.46-3.65,2.58L178.5,508.94z M190,517.04c-1.49,0.23-3.03,0.56-4.61,1.01
		c-1.58,0.44-2.93,0.92-4.04,1.44c-2.07,0.92-3.47,1.94-4.19,3.07c-0.72,1.12-1.03,2.28-0.93,3.45c0.08,0.89,0.44,1.6,1.08,2.12
		c0.64,0.52,1.58,0.73,2.83,0.62c1.5-0.13,3.03-0.66,4.58-1.58c1.56-0.92,3.06-2.24,4.52-3.94L190,517.04z"/>
	<path d="M203.03,505.11l0.96-7.79l2.11-0.71l-1.05,8.33l7.46-0.65l-0.22,1.9l-7.46,0.65l-1.66,13.49
		c-0.17,1.36-0.22,2.46-0.15,3.29c0.08,0.93,0.38,1.69,0.9,2.31c0.52,0.61,1.31,1.15,2.38,1.6l-0.02,0.29l-2.41,0.55
		c-0.87-0.37-1.53-0.92-2-1.63c-0.46-0.71-0.75-1.69-0.86-2.94c-0.07-0.83-0.02-1.93,0.15-3.29l1.66-13.49l-4.59,0.4l0.22-1.9
		L203.03,505.11z"/>
	<path d="M219.24,503.69l0.96-7.79l2.11-0.71l-1.05,8.33l7.46-0.65l-0.22,1.9l-7.46,0.65l-1.66,13.49
		c-0.17,1.36-0.22,2.46-0.15,3.29c0.08,0.93,0.38,1.69,0.9,2.31c0.52,0.61,1.31,1.15,2.38,1.6l-0.02,0.29l-2.41,0.55
		c-0.87-0.37-1.53-0.92-2-1.63c-0.46-0.71-0.75-1.69-0.86-2.94c-0.07-0.83-0.02-1.93,0.15-3.29l1.66-13.49l-4.59,0.4l0.22-1.9
		L219.24,503.69z"/>
	<path d="M240.61,514.44c-0.62,0.22-1.31,0.43-2.06,0.64c-0.75,0.21-1.53,0.42-2.33,0.64c-0.8,0.22-1.6,0.41-2.41,0.6
		c-0.8,0.18-1.55,0.35-2.24,0.51l0.02,0.24c0.19,2.14,0.97,3.83,2.35,5.07c1.38,1.25,3.29,1.76,5.75,1.54
		c1.53-0.13,3.02-0.59,4.48-1.36c1.46-0.77,2.7-1.76,3.71-2.98l0.14-0.01l-0.41,3.07c-0.95,0.89-2.14,1.64-3.56,2.26
		c-1.42,0.62-2.84,1-4.24,1.12c-1.63,0.14-3.05,0.02-4.27-0.37c-1.22-0.39-2.25-0.97-3.09-1.75c-0.84-0.78-1.49-1.7-1.95-2.77
		c-0.46-1.07-0.75-2.22-0.86-3.47c-0.16-1.85,0.08-3.72,0.74-5.61c0.65-1.89,1.59-3.62,2.8-5.21c1.21-1.58,2.65-2.91,4.33-3.97
		s3.47-1.68,5.38-1.84c2.1-0.18,3.73,0.17,4.89,1.07c1.15,0.89,1.8,2.09,1.93,3.59c0.07,0.83-0.02,1.66-0.27,2.48
		s-0.72,1.62-1.4,2.39c-0.69,0.77-1.64,1.5-2.84,2.2C243.98,513.23,242.45,513.87,240.61,514.44z M243.06,502.76
		c-1.43,0.13-2.8,0.57-4.1,1.35c-1.3,0.77-2.46,1.73-3.48,2.88c-1.02,1.15-1.88,2.43-2.56,3.84c-0.68,1.41-1.1,2.81-1.27,4.21
		c0.57-0.11,1.23-0.27,1.98-0.46c0.75-0.19,1.55-0.41,2.4-0.64c0.85-0.23,1.71-0.49,2.58-0.78c0.87-0.29,1.7-0.57,2.48-0.87
		c2.33-0.85,4.03-1.85,5.08-3.02c1.05-1.17,1.53-2.36,1.42-3.57c-0.09-1.02-0.53-1.79-1.33-2.32
		C245.47,502.85,244.4,502.65,243.06,502.76z"/>
	<path d="M268.9,501.27c-1.94,0.17-3.65,0.6-5.11,1.29c-1.47,0.69-2.71,1.58-3.74,2.66c-0.24,0.25-0.43,0.5-0.58,0.77
		c-0.15,0.27-0.3,0.6-0.44,0.98c-0.14,0.38-0.26,0.83-0.36,1.36c-0.1,0.52-0.2,1.14-0.3,1.86l-1.63,13.3l-2.06,0.18l2.87-23.33
		l2.06-0.18l-0.48,3.85c1.2-1.29,2.45-2.29,3.74-3c1.29-0.71,2.67-1.24,4.15-1.59c0.66-0.15,1.39-0.27,2.19-0.34L268.9,501.27z"/>
	<path d="M274.42,498.86l2.06-0.18l-0.57,4.48c1.42-1.79,2.94-3.16,4.58-4.11c1.63-0.94,3.2-1.48,4.7-1.62
		c1.91-0.17,3.45,0.18,4.62,1.04c1.17,0.86,1.84,2.3,2.01,4.3c0.07,0.8,0.06,1.57-0.04,2.32l-1.92,15.49l-2.06,0.18l1.89-15.34
		c0.12-0.88,0.14-1.67,0.08-2.37c-0.12-1.34-0.59-2.31-1.41-2.91c-0.82-0.6-1.95-0.84-3.39-0.72c-0.73,0.06-1.47,0.22-2.2,0.48
		c-0.73,0.26-1.43,0.59-2.11,1c-0.67,0.41-1.3,0.89-1.9,1.42c-0.6,0.53-1.12,1.11-1.58,1.73c-0.58,0.76-1.02,1.49-1.32,2.21
		c-0.31,0.72-0.53,1.58-0.66,2.59l-1.6,13.15l-2.06,0.18L274.42,498.86z"/>
</g>
<g>
	<path d="M155.14,136.21l-4.61,37.6l-2.25,0.2l-22.18-32.7l-4.31,35.02l-2.06,0.18l4.61-37.6l2.39-0.21l22.07,32.52l4.28-34.83
		L155.14,136.21z"/>
	<path d="M169.78,172.95c-2.81,0.25-5.09-0.47-6.86-2.15c-1.77-1.68-2.79-4.11-3.07-7.3c-0.18-2.1-0.01-4.06,0.52-5.88
		c0.53-1.81,1.32-3.41,2.38-4.79c1.05-1.38,2.33-2.48,3.83-3.32c1.5-0.84,3.14-1.34,4.93-1.49c1.28-0.11,2.49-0.02,3.64,0.28
		c1.15,0.3,2.16,0.81,3.02,1.52c0.87,0.71,1.58,1.64,2.15,2.8c0.57,1.15,0.92,2.53,1.06,4.12c0.16,1.82,0.02,3.65-0.41,5.5
		c-0.43,1.85-1.14,3.54-2.14,5.05c-0.99,1.52-2.25,2.79-3.76,3.82C173.55,172.17,171.79,172.77,169.78,172.95z M169.65,170.99
		c1.72-0.15,3.21-0.67,4.46-1.57c1.25-0.9,2.29-2.01,3.11-3.33c0.82-1.32,1.4-2.79,1.74-4.39c0.34-1.6,0.44-3.19,0.31-4.75
		c-0.21-2.39-0.99-4.19-2.33-5.41c-1.34-1.22-3.11-1.73-5.31-1.53c-1.59,0.14-3.02,0.6-4.29,1.39c-1.26,0.79-2.32,1.78-3.16,2.97
		c-0.84,1.2-1.46,2.58-1.85,4.14c-0.39,1.56-0.52,3.17-0.37,4.83c0.11,1.21,0.35,2.31,0.72,3.29c0.37,0.98,0.88,1.81,1.52,2.49
		c0.64,0.68,1.41,1.19,2.33,1.53C167.43,170.97,168.47,171.09,169.65,170.99z"/>
	<path d="M124.76,233.89l4.61-37.6l6.07-0.53c3.67-0.32,6.56,0.21,8.69,1.58c2.13,1.37,3.31,3.44,3.56,6.22
		c0.35,4.05-0.74,7.3-3.29,9.76c-2.55,2.46-6.45,3.91-11.71,4.37l-3.97,0.35l-1.9,15.68L124.76,233.89z M128.97,215.98l3.97-0.35
		c4.53-0.4,7.82-1.64,9.89-3.73c2.06-2.09,2.95-4.81,2.66-8.16c-0.19-2.2-1.15-3.81-2.86-4.83c-1.71-1.02-4.11-1.4-7.21-1.13
		l-4.26,0.37L128.97,215.98z"/>
	<path d="M152.36,210.08c1.05-0.86,2.19-1.52,3.44-1.99c1.24-0.46,2.47-0.75,3.68-0.85c2.17-0.19,3.81,0.16,4.94,1.06
		c1.12,0.9,1.76,2.26,1.92,4.07c0.03,0.35,0.04,0.7,0.02,1.03c-0.02,0.34-0.04,0.7-0.07,1.09l-1.95,15.73l-2.05,0.81l0.49-3.8
		c-1.12,1.13-2.45,2.13-3.98,3c-1.53,0.87-3.16,1.38-4.88,1.53c-1.72,0.15-3.11-0.16-4.15-0.94c-1.05-0.78-1.64-1.93-1.77-3.46
		c-0.14-1.56,0.25-3.03,1.16-4.41c0.91-1.38,2.33-2.54,4.27-3.48c1.39-0.67,2.92-1.26,4.61-1.78c1.69-0.52,3.72-1.01,6.09-1.47
		l0.26-2.05c0.05-0.49,0.05-1.03,0-1.64c-0.11-1.21-0.57-2.09-1.39-2.65c-0.82-0.55-1.93-0.77-3.33-0.65
		c-1.34,0.12-2.67,0.47-3.98,1.07c-1.31,0.6-2.53,1.46-3.65,2.58L152.36,210.08z M163.86,218.18c-1.49,0.23-3.03,0.56-4.61,1.01
		c-1.58,0.44-2.93,0.92-4.04,1.44c-2.07,0.92-3.47,1.94-4.19,3.06c-0.72,1.12-1.03,2.28-0.93,3.45c0.08,0.89,0.44,1.6,1.08,2.12
		c0.64,0.52,1.58,0.73,2.83,0.62c1.5-0.13,3.03-0.66,4.58-1.58c1.56-0.92,3.06-2.24,4.52-3.94L163.86,218.18z"/>
	<path d="M176.88,206.25l0.96-7.79l2.11-0.71l-1.05,8.33l7.46-0.65l-0.22,1.9l-7.46,0.65l-1.66,13.49
		c-0.17,1.36-0.22,2.46-0.15,3.29c0.08,0.93,0.38,1.69,0.9,2.31c0.52,0.61,1.31,1.15,2.38,1.6l-0.02,0.29l-2.41,0.55
		c-0.87-0.37-1.53-0.92-2-1.63c-0.46-0.71-0.75-1.69-0.86-2.94c-0.07-0.83-0.02-1.93,0.15-3.29l1.66-13.49l-4.59,0.4l0.22-1.9
		L176.88,206.25z"/>
	<path d="M193.09,204.83l0.96-7.79l2.11-0.71l-1.05,8.33l7.46-0.65l-0.22,1.9l-7.46,0.65l-1.66,13.49
		c-0.17,1.36-0.22,2.46-0.15,3.29c0.08,0.93,0.38,1.69,0.9,2.31c0.52,0.61,1.31,1.15,2.38,1.6l-0.02,0.29l-2.41,0.55
		c-0.87-0.37-1.53-0.92-2-1.63c-0.46-0.71-0.75-1.69-0.86-2.94c-0.07-0.83-0.02-1.93,0.15-3.29l1.66-13.49l-4.59,0.4l0.22-1.9
		L193.09,204.83z"/>
	<path d="M214.46,215.59c-0.62,0.22-1.31,0.43-2.06,0.64c-0.75,0.21-1.53,0.42-2.33,0.64c-0.8,0.21-1.6,0.41-2.41,0.6
		c-0.8,0.18-1.55,0.35-2.24,0.51l0.02,0.24c0.19,2.14,0.97,3.83,2.35,5.07c1.38,1.25,3.29,1.76,5.75,1.54
		c1.53-0.13,3.02-0.59,4.48-1.36c1.46-0.77,2.7-1.76,3.71-2.98l0.14-0.01l-0.41,3.07c-0.95,0.89-2.14,1.64-3.56,2.26
		c-1.42,0.62-2.84,1-4.24,1.12c-1.63,0.14-3.05,0.02-4.27-0.37c-1.22-0.39-2.25-0.97-3.09-1.75c-0.84-0.78-1.49-1.7-1.95-2.77
		c-0.46-1.07-0.75-2.22-0.86-3.47c-0.16-1.85,0.08-3.72,0.74-5.61c0.65-1.89,1.59-3.62,2.8-5.21c1.21-1.58,2.65-2.91,4.33-3.97
		s3.47-1.68,5.38-1.84c2.1-0.18,3.73,0.17,4.89,1.07c1.15,0.89,1.8,2.09,1.93,3.59c0.07,0.83-0.02,1.66-0.27,2.48
		c-0.25,0.83-0.72,1.62-1.4,2.39c-0.69,0.77-1.64,1.5-2.84,2.2C217.83,214.37,216.31,215.01,214.46,215.59z M216.91,203.9
		c-1.43,0.13-2.8,0.57-4.1,1.35c-1.3,0.77-2.46,1.73-3.48,2.88c-1.02,1.15-1.88,2.43-2.56,3.84c-0.68,1.41-1.1,2.81-1.27,4.21
		c0.57-0.11,1.23-0.27,1.98-0.46c0.75-0.19,1.55-0.41,2.4-0.64c0.85-0.23,1.71-0.49,2.58-0.78c0.87-0.29,1.7-0.57,2.48-0.87
		c2.33-0.85,4.03-1.85,5.08-3.02c1.05-1.17,1.53-2.36,1.42-3.57c-0.09-1.02-0.53-1.79-1.33-2.32
		C219.32,203.99,218.25,203.79,216.91,203.9z"/>
	<path d="M242.75,202.41c-1.94,0.17-3.65,0.6-5.11,1.29c-1.47,0.69-2.71,1.58-3.74,2.66c-0.24,0.25-0.43,0.5-0.58,0.77
		c-0.15,0.27-0.3,0.6-0.44,0.98c-0.14,0.38-0.26,0.83-0.36,1.36c-0.1,0.52-0.2,1.14-0.3,1.86l-1.63,13.3l-2.06,0.18l2.87-23.33
		l2.06-0.18l-0.48,3.85c1.2-1.29,2.45-2.29,3.74-3c1.29-0.71,2.67-1.24,4.15-1.59c0.66-0.15,1.39-0.27,2.19-0.34L242.75,202.41z"/>
	<path d="M248.27,200l2.06-0.18l-0.57,4.48c1.42-1.79,2.94-3.16,4.58-4.11c1.63-0.95,3.2-1.48,4.7-1.62
		c1.91-0.17,3.45,0.18,4.62,1.04c1.17,0.86,1.84,2.3,2.01,4.31c0.07,0.8,0.06,1.57-0.04,2.32l-1.92,15.49l-2.06,0.18l1.89-15.34
		c0.12-0.88,0.14-1.67,0.08-2.37c-0.12-1.34-0.59-2.31-1.41-2.91c-0.82-0.6-1.95-0.84-3.39-0.72c-0.73,0.06-1.47,0.22-2.2,0.48
		c-0.73,0.26-1.43,0.59-2.11,1c-0.67,0.41-1.3,0.89-1.9,1.42c-0.6,0.53-1.12,1.11-1.58,1.73c-0.58,0.76-1.02,1.49-1.32,2.21
		c-0.31,0.72-0.53,1.58-0.66,2.59l-1.6,13.15l-2.06,0.18L248.27,200z"/>
</g>
<g>
	<path d="M42.45-4.5l-4.61,37.6l-2.25,0.2L13.41,0.59L9.1,35.62L7.04,35.8l4.61-37.6l2.39-0.21l22.07,32.52l4.28-34.83L42.45-4.5z"
		/>
	<path d="M57.08,32.24c-2.81,0.25-5.09-0.47-6.86-2.15c-1.77-1.68-2.79-4.11-3.07-7.3c-0.18-2.1-0.01-4.06,0.52-5.88
		c0.53-1.81,1.32-3.41,2.38-4.79c1.05-1.38,2.33-2.48,3.83-3.32c1.5-0.84,3.14-1.34,4.93-1.49c1.28-0.11,2.49-0.02,3.64,0.28
		c1.15,0.3,2.16,0.81,3.02,1.52c0.87,0.71,1.58,1.64,2.15,2.8c0.57,1.15,0.92,2.53,1.06,4.12c0.16,1.82,0.02,3.65-0.41,5.5
		c-0.43,1.85-1.14,3.54-2.14,5.05s-2.25,2.79-3.76,3.82C60.85,31.46,59.09,32.06,57.08,32.24z M56.96,30.27
		c1.72-0.15,3.21-0.67,4.46-1.57c1.25-0.9,2.29-2.01,3.11-3.33c0.82-1.32,1.4-2.79,1.74-4.39c0.34-1.6,0.44-3.19,0.31-4.75
		c-0.21-2.39-0.99-4.19-2.33-5.41c-1.34-1.22-3.11-1.73-5.31-1.53c-1.59,0.14-3.02,0.6-4.29,1.39c-1.26,0.79-2.32,1.78-3.16,2.97
		c-0.84,1.2-1.46,2.58-1.85,4.14c-0.39,1.56-0.52,3.17-0.37,4.83c0.11,1.21,0.35,2.31,0.72,3.29c0.37,0.98,0.88,1.81,1.52,2.49
		c0.64,0.68,1.41,1.19,2.33,1.53C54.74,30.26,55.78,30.38,56.96,30.27z"/>
	<path d="M12.06,93.18l4.61-37.6l6.07-0.53c3.67-0.32,6.56,0.21,8.69,1.58c2.13,1.37,3.31,3.44,3.56,6.22
		c0.35,4.05-0.74,7.3-3.29,9.76c-2.55,2.46-6.45,3.91-11.71,4.37l-3.97,0.35L14.12,93L12.06,93.18z M16.28,75.27l3.97-0.35
		c4.53-0.4,7.82-1.64,9.89-3.73c2.06-2.09,2.95-4.81,2.66-8.16c-0.19-2.2-1.15-3.81-2.86-4.83c-1.71-1.02-4.11-1.4-7.21-1.13
		l-4.26,0.37L16.28,75.27z"/>
	<path d="M39.66,69.37c1.05-0.86,2.19-1.52,3.44-1.99c1.24-0.46,2.47-0.75,3.68-0.85c2.17-0.19,3.81,0.16,4.94,1.06
		c1.12,0.9,1.76,2.26,1.92,4.07c0.03,0.35,0.04,0.7,0.02,1.03c-0.02,0.34-0.04,0.7-0.07,1.09l-1.95,15.73l-2.05,0.81l0.49-3.8
		c-1.12,1.13-2.45,2.13-3.98,3c-1.53,0.87-3.16,1.38-4.88,1.53c-1.72,0.15-3.11-0.16-4.15-0.94c-1.05-0.78-1.64-1.93-1.77-3.46
		c-0.14-1.56,0.25-3.03,1.16-4.41c0.91-1.38,2.33-2.54,4.27-3.48c1.39-0.67,2.92-1.26,4.61-1.78c1.69-0.52,3.72-1.01,6.09-1.47
		l0.26-2.05c0.05-0.49,0.05-1.03,0-1.64c-0.11-1.21-0.57-2.09-1.39-2.65c-0.82-0.55-1.93-0.77-3.33-0.65
		c-1.34,0.12-2.67,0.47-3.98,1.07c-1.31,0.6-2.53,1.46-3.65,2.58L39.66,69.37z M51.16,77.47c-1.49,0.23-3.03,0.56-4.61,1.01
		c-1.58,0.44-2.93,0.92-4.04,1.44c-2.07,0.92-3.47,1.94-4.19,3.06c-0.72,1.12-1.03,2.28-0.93,3.45c0.08,0.89,0.44,1.6,1.08,2.12
		c0.64,0.52,1.58,0.73,2.83,0.62c1.5-0.13,3.03-0.66,4.58-1.58c1.56-0.92,3.06-2.24,4.52-3.94L51.16,77.47z"/>
	<path d="M64.19,65.54l0.96-7.79l2.11-0.71l-1.05,8.33l7.46-0.65l-0.22,1.9l-7.46,0.65l-1.66,13.49c-0.17,1.36-0.22,2.46-0.15,3.29
		c0.08,0.93,0.38,1.69,0.9,2.31c0.52,0.61,1.31,1.15,2.38,1.6l-0.02,0.29l-2.41,0.55c-0.87-0.37-1.53-0.92-2-1.63
		c-0.46-0.71-0.75-1.69-0.86-2.94c-0.07-0.83-0.02-1.93,0.15-3.29l1.66-13.49l-4.59,0.4l0.22-1.9L64.19,65.54z"/>
	<path d="M80.4,64.12l0.96-7.79l2.11-0.71l-1.05,8.33l7.46-0.65l-0.22,1.9l-7.46,0.65l-1.66,13.49c-0.17,1.36-0.22,2.46-0.15,3.29
		c0.08,0.93,0.38,1.69,0.9,2.31c0.52,0.61,1.31,1.15,2.38,1.6l-0.02,0.29l-2.41,0.55c-0.87-0.37-1.53-0.92-2-1.63
		c-0.46-0.71-0.75-1.69-0.86-2.94c-0.07-0.83-0.02-1.93,0.15-3.29l1.66-13.49l-4.59,0.4l0.22-1.9L80.4,64.12z"/>
	<path d="M101.77,74.87c-0.62,0.22-1.31,0.43-2.06,0.64c-0.75,0.21-1.53,0.42-2.33,0.64c-0.8,0.21-1.6,0.41-2.41,0.6
		c-0.8,0.18-1.55,0.35-2.24,0.51l0.02,0.24c0.19,2.14,0.97,3.83,2.35,5.07c1.38,1.25,3.29,1.76,5.75,1.54
		c1.53-0.13,3.02-0.59,4.48-1.36c1.46-0.77,2.7-1.76,3.71-2.98l0.14-0.01l-0.41,3.07c-0.95,0.89-2.14,1.64-3.56,2.26
		c-1.42,0.62-2.84,1-4.24,1.12c-1.63,0.14-3.05,0.02-4.27-0.37c-1.22-0.39-2.25-0.97-3.09-1.75c-0.84-0.78-1.49-1.7-1.95-2.77
		c-0.46-1.07-0.75-2.22-0.86-3.47c-0.16-1.85,0.08-3.72,0.74-5.61c0.65-1.89,1.59-3.62,2.8-5.21c1.21-1.58,2.65-2.91,4.33-3.97
		c1.67-1.06,3.47-1.68,5.38-1.84c2.1-0.18,3.73,0.17,4.89,1.07c1.15,0.89,1.8,2.09,1.93,3.59c0.07,0.83-0.02,1.66-0.27,2.48
		c-0.25,0.83-0.72,1.62-1.4,2.39c-0.69,0.77-1.64,1.5-2.84,2.2C105.14,73.65,103.61,74.29,101.77,74.87z M104.22,63.19
		c-1.43,0.13-2.8,0.57-4.1,1.35c-1.3,0.77-2.46,1.73-3.48,2.88c-1.02,1.15-1.88,2.43-2.56,3.84c-0.68,1.41-1.1,2.81-1.27,4.21
		c0.57-0.11,1.23-0.27,1.98-0.46c0.75-0.19,1.55-0.41,2.4-0.64c0.85-0.23,1.71-0.49,2.58-0.78c0.87-0.29,1.7-0.57,2.48-0.87
		c2.33-0.85,4.03-1.85,5.08-3.02c1.05-1.17,1.53-2.36,1.42-3.57c-0.09-1.02-0.53-1.79-1.33-2.32
		C106.63,63.28,105.56,63.07,104.22,63.19z"/>
	<path d="M130.06,61.7c-1.94,0.17-3.65,0.6-5.11,1.29c-1.47,0.69-2.71,1.58-3.74,2.66c-0.24,0.25-0.43,0.5-0.58,0.77
		c-0.15,0.27-0.3,0.6-0.44,0.98c-0.14,0.38-0.26,0.83-0.36,1.36c-0.1,0.52-0.2,1.14-0.3,1.86l-1.63,13.3l-2.06,0.18l2.87-23.33
		l2.06-0.18l-0.48,3.85c1.2-1.29,2.45-2.29,3.74-3c1.29-0.71,2.67-1.24,4.15-1.59c0.66-0.15,1.39-0.27,2.19-0.34L130.06,61.7z"/>
	<path d="M135.58,59.29l2.06-0.18l-0.57,4.48c1.42-1.79,2.94-3.16,4.58-4.11c1.63-0.95,3.2-1.48,4.7-1.62
		c1.91-0.17,3.45,0.18,4.62,1.04c1.17,0.86,1.84,2.3,2.01,4.31c0.07,0.8,0.06,1.57-0.04,2.32l-1.92,15.49l-2.06,0.18l1.89-15.34
		c0.12-0.88,0.14-1.67,0.08-2.37c-0.12-1.34-0.59-2.31-1.41-2.91c-0.82-0.6-1.95-0.84-3.39-0.72c-0.73,0.06-1.47,0.22-2.2,0.48
		c-0.73,0.26-1.43,0.59-2.11,1c-0.67,0.41-1.3,0.89-1.9,1.42c-0.6,0.53-1.12,1.11-1.58,1.73c-0.58,0.76-1.02,1.49-1.32,2.21
		c-0.31,0.72-0.53,1.58-0.66,2.59l-1.6,13.15l-2.06,0.18L135.58,59.29z"/>
</g>
<g>
	<path d="M267.84,276.93l-4.61,37.6l-2.25,0.2l-22.18-32.7l-4.31,35.02l-2.06,0.18l4.61-37.6l2.39-0.21l22.07,32.52l4.28-34.83
		L267.84,276.93z"/>
	<path d="M282.47,313.66c-2.81,0.25-5.09-0.47-6.86-2.15c-1.77-1.68-2.79-4.11-3.07-7.3c-0.18-2.1-0.01-4.06,0.52-5.88
		c0.53-1.81,1.32-3.41,2.38-4.79c1.05-1.38,2.33-2.48,3.83-3.32c1.5-0.84,3.14-1.34,4.93-1.49c1.28-0.11,2.49-0.02,3.64,0.28
		c1.15,0.3,2.16,0.81,3.02,1.52c0.87,0.71,1.58,1.64,2.15,2.8c0.57,1.15,0.92,2.53,1.06,4.12c0.16,1.82,0.02,3.65-0.41,5.5
		c-0.43,1.85-1.14,3.54-2.14,5.05s-2.25,2.79-3.76,3.82C286.24,312.88,284.48,313.49,282.47,313.66z M282.35,311.7
		c1.72-0.15,3.21-0.67,4.46-1.57c1.25-0.9,2.29-2.01,3.11-3.33s1.4-2.79,1.74-4.39c0.34-1.6,0.44-3.19,0.31-4.75
		c-0.21-2.39-0.99-4.19-2.33-5.41c-1.34-1.22-3.11-1.73-5.31-1.53c-1.59,0.14-3.02,0.6-4.29,1.39c-1.26,0.79-2.32,1.78-3.16,2.97
		c-0.84,1.2-1.46,2.58-1.85,4.14c-0.39,1.56-0.52,3.17-0.37,4.83c0.11,1.21,0.35,2.31,0.72,3.29c0.37,0.98,0.88,1.81,1.52,2.49
		c0.64,0.68,1.41,1.19,2.33,1.53C280.12,311.69,281.17,311.8,282.35,311.7z"/>
	<path d="M237.45,374.6l4.61-37.6l6.07-0.53c3.67-0.32,6.56,0.21,8.69,1.58c2.13,1.37,3.31,3.44,3.56,6.22
		c0.35,4.05-0.74,7.3-3.29,9.76c-2.55,2.46-6.45,3.91-11.71,4.37l-3.97,0.35l-1.9,15.68L237.45,374.6z M241.67,356.7l3.97-0.35
		c4.53-0.4,7.82-1.64,9.89-3.73c2.06-2.09,2.95-4.81,2.66-8.16c-0.19-2.2-1.15-3.81-2.86-4.83c-1.71-1.02-4.11-1.4-7.21-1.13
		l-4.26,0.37L241.67,356.7z"/>
	<path d="M265.05,350.8c1.05-0.86,2.19-1.52,3.44-1.99c1.24-0.46,2.47-0.75,3.68-0.85c2.17-0.19,3.81,0.16,4.94,1.06
		c1.12,0.9,1.76,2.26,1.92,4.07c0.03,0.35,0.04,0.7,0.02,1.03c-0.02,0.34-0.04,0.7-0.07,1.09l-1.95,15.73l-2.05,0.81l0.49-3.8
		c-1.12,1.13-2.45,2.13-3.98,3c-1.53,0.87-3.16,1.38-4.88,1.53c-1.72,0.15-3.11-0.16-4.15-0.94c-1.05-0.78-1.64-1.93-1.77-3.46
		c-0.14-1.56,0.25-3.03,1.16-4.41c0.91-1.38,2.33-2.54,4.27-3.48c1.39-0.67,2.92-1.26,4.61-1.78c1.69-0.52,3.72-1.01,6.09-1.47
		l0.26-2.05c0.05-0.49,0.05-1.03,0-1.64c-0.11-1.21-0.57-2.09-1.39-2.65c-0.82-0.55-1.93-0.77-3.33-0.65
		c-1.34,0.12-2.67,0.47-3.98,1.07c-1.31,0.6-2.53,1.46-3.65,2.58L265.05,350.8z M276.55,358.9c-1.49,0.23-3.03,0.56-4.61,1.01
		c-1.58,0.44-2.93,0.92-4.04,1.44c-2.07,0.92-3.47,1.94-4.19,3.06c-0.72,1.12-1.03,2.28-0.93,3.45c0.08,0.89,0.44,1.6,1.08,2.12
		c0.64,0.52,1.58,0.73,2.83,0.62c1.5-0.13,3.03-0.66,4.58-1.58c1.56-0.92,3.06-2.24,4.52-3.94L276.55,358.9z"/>
	<path d="M289.58,346.96l0.96-7.79l2.11-0.71l-1.05,8.33l7.46-0.65l-0.22,1.9l-7.46,0.65l-1.66,13.49
		c-0.17,1.36-0.22,2.46-0.15,3.29c0.08,0.93,0.38,1.69,0.9,2.31c0.52,0.61,1.31,1.15,2.38,1.6l-0.02,0.29l-2.41,0.55
		c-0.87-0.37-1.53-0.92-2-1.63c-0.46-0.71-0.75-1.69-0.86-2.94c-0.07-0.83-0.02-1.93,0.15-3.29l1.66-13.49l-4.59,0.4l0.22-1.9
		L289.58,346.96z"/>
	<path d="M305.79,345.55l0.96-7.79l2.11-0.71l-1.05,8.33l7.46-0.65l-0.22,1.9l-7.46,0.65l-1.66,13.49
		c-0.17,1.36-0.22,2.46-0.15,3.29c0.08,0.93,0.38,1.69,0.9,2.31c0.52,0.61,1.31,1.15,2.38,1.6l-0.02,0.29l-2.41,0.55
		c-0.87-0.37-1.53-0.92-2-1.63c-0.46-0.71-0.75-1.69-0.86-2.94c-0.07-0.83-0.02-1.93,0.15-3.29l1.66-13.49l-4.59,0.4l0.22-1.9
		L305.79,345.55z"/>
	<path d="M327.16,356.3c-0.62,0.22-1.31,0.43-2.06,0.64c-0.75,0.21-1.53,0.42-2.33,0.64c-0.8,0.22-1.6,0.41-2.41,0.6
		c-0.8,0.18-1.55,0.35-2.24,0.51l0.02,0.24c0.19,2.14,0.97,3.83,2.35,5.07c1.38,1.25,3.29,1.76,5.75,1.54
		c1.53-0.13,3.02-0.59,4.48-1.36c1.46-0.77,2.7-1.76,3.71-2.98l0.14-0.01l-0.41,3.07c-0.95,0.89-2.14,1.64-3.56,2.26
		c-1.42,0.62-2.84,1-4.24,1.12c-1.63,0.14-3.05,0.02-4.27-0.37c-1.22-0.39-2.25-0.97-3.09-1.75c-0.84-0.78-1.49-1.7-1.95-2.77
		c-0.46-1.07-0.75-2.22-0.86-3.47c-0.16-1.85,0.08-3.72,0.74-5.61c0.65-1.89,1.59-3.62,2.8-5.21c1.21-1.58,2.65-2.91,4.33-3.97
		c1.67-1.06,3.47-1.68,5.38-1.84c2.1-0.18,3.73,0.17,4.89,1.07c1.15,0.89,1.8,2.09,1.93,3.59c0.07,0.83-0.02,1.66-0.27,2.48
		c-0.25,0.83-0.72,1.62-1.4,2.39c-0.69,0.77-1.64,1.5-2.84,2.2C330.53,355.08,329,355.72,327.16,356.3z M329.6,344.62
		c-1.43,0.13-2.8,0.57-4.1,1.35c-1.3,0.77-2.46,1.73-3.48,2.88c-1.02,1.15-1.88,2.43-2.56,3.84c-0.68,1.41-1.1,2.81-1.27,4.21
		c0.57-0.11,1.23-0.27,1.98-0.46c0.75-0.19,1.55-0.41,2.4-0.64c0.85-0.23,1.71-0.49,2.58-0.78c0.87-0.29,1.7-0.57,2.48-0.87
		c2.33-0.85,4.03-1.85,5.08-3.02c1.05-1.17,1.53-2.36,1.42-3.57c-0.09-1.02-0.53-1.79-1.33-2.32
		C332.01,344.7,330.94,344.5,329.6,344.62z"/>
	<path d="M355.44,343.13c-1.94,0.17-3.65,0.6-5.11,1.29c-1.47,0.69-2.71,1.58-3.74,2.66c-0.24,0.25-0.43,0.5-0.58,0.77
		c-0.15,0.27-0.3,0.6-0.44,0.98c-0.14,0.38-0.26,0.83-0.36,1.36c-0.1,0.52-0.2,1.14-0.3,1.86l-1.63,13.3l-2.06,0.18l2.87-23.33
		l2.06-0.18l-0.48,3.85c1.2-1.29,2.45-2.29,3.74-3c1.29-0.71,2.67-1.24,4.15-1.59c0.66-0.15,1.39-0.27,2.19-0.34L355.44,343.13z"/>
	<path d="M360.97,340.72l2.06-0.18l-0.57,4.48c1.42-1.79,2.94-3.16,4.58-4.11c1.63-0.95,3.2-1.48,4.7-1.62
		c1.91-0.17,3.45,0.18,4.62,1.04c1.17,0.86,1.84,2.3,2.01,4.31c0.07,0.8,0.06,1.57-0.04,2.32l-1.92,15.49l-2.06,0.18l1.89-15.34
		c0.12-0.88,0.14-1.67,0.08-2.37c-0.12-1.34-0.59-2.31-1.41-2.91c-0.82-0.6-1.95-0.84-3.39-0.72c-0.73,0.06-1.47,0.22-2.2,0.48
		c-0.73,0.26-1.43,0.59-2.11,1c-0.67,0.41-1.3,0.89-1.9,1.42c-0.6,0.53-1.12,1.11-1.58,1.73c-0.58,0.76-1.02,1.49-1.32,2.21
		c-0.31,0.72-0.53,1.58-0.66,2.59l-1.6,13.15l-2.06,0.18L360.97,340.72z"/>
</g>
<g>
	<path d="M380.53,417.64l-4.61,37.6l-2.25,0.2l-22.18-32.7l-4.31,35.02l-2.06,0.18l4.61-37.6l2.39-0.21l22.07,32.52l4.28-34.83
		L380.53,417.64z"/>
	<path d="M395.16,454.38c-2.81,0.25-5.09-0.47-6.86-2.15c-1.77-1.68-2.79-4.11-3.07-7.3c-0.18-2.1-0.01-4.06,0.52-5.88
		c0.53-1.81,1.32-3.41,2.38-4.79c1.05-1.38,2.33-2.48,3.83-3.32c1.5-0.84,3.14-1.33,4.93-1.49c1.28-0.11,2.49-0.02,3.64,0.28
		c1.15,0.3,2.16,0.81,3.02,1.52c0.87,0.71,1.58,1.64,2.15,2.8c0.57,1.16,0.92,2.53,1.06,4.12c0.16,1.82,0.02,3.65-0.41,5.5
		c-0.43,1.85-1.14,3.54-2.14,5.05c-0.99,1.52-2.25,2.79-3.76,3.82C398.93,453.6,397.17,454.2,395.16,454.38z M395.04,452.41
		c1.72-0.15,3.21-0.67,4.46-1.57c1.25-0.9,2.29-2.01,3.11-3.33s1.4-2.79,1.74-4.39c0.34-1.6,0.44-3.19,0.31-4.75
		c-0.21-2.39-0.99-4.19-2.33-5.41c-1.34-1.22-3.11-1.73-5.31-1.53c-1.59,0.14-3.02,0.6-4.29,1.39c-1.26,0.79-2.32,1.78-3.16,2.98
		c-0.84,1.2-1.46,2.58-1.85,4.14c-0.39,1.56-0.52,3.17-0.37,4.83c0.11,1.21,0.35,2.31,0.72,3.29c0.37,0.98,0.88,1.81,1.52,2.49
		c0.64,0.68,1.41,1.19,2.33,1.53C392.81,452.4,393.86,452.52,395.04,452.41z"/>
	<path d="M350.14,515.32l4.61-37.6l6.07-0.53c3.67-0.32,6.56,0.21,8.69,1.58c2.13,1.37,3.31,3.45,3.56,6.22
		c0.35,4.05-0.74,7.3-3.29,9.76c-2.55,2.46-6.45,3.91-11.71,4.37l-3.97,0.35l-1.9,15.68L350.14,515.32z M354.36,497.41l3.97-0.35
		c4.53-0.4,7.82-1.64,9.89-3.73c2.06-2.09,2.95-4.81,2.66-8.16c-0.19-2.2-1.15-3.81-2.86-4.83c-1.71-1.02-4.11-1.4-7.21-1.13
		l-4.26,0.37L354.36,497.41z"/>
	<path d="M377.74,491.51c1.05-0.86,2.19-1.52,3.44-1.99c1.24-0.46,2.47-0.75,3.68-0.85c2.17-0.19,3.81,0.17,4.94,1.06
		c1.12,0.9,1.76,2.26,1.92,4.07c0.03,0.35,0.04,0.7,0.02,1.03c-0.02,0.34-0.04,0.7-0.07,1.09l-1.95,15.73l-2.05,0.81l0.49-3.8
		c-1.12,1.13-2.45,2.13-3.98,3c-1.53,0.87-3.16,1.38-4.88,1.53c-1.72,0.15-3.11-0.16-4.15-0.94c-1.05-0.78-1.64-1.93-1.77-3.46
		c-0.14-1.56,0.25-3.03,1.16-4.41c0.91-1.38,2.33-2.54,4.27-3.48c1.39-0.67,2.92-1.26,4.61-1.78c1.69-0.52,3.72-1.01,6.09-1.47
		l0.26-2.05c0.05-0.49,0.05-1.03,0-1.64c-0.11-1.21-0.57-2.09-1.39-2.65c-0.82-0.55-1.93-0.77-3.33-0.65
		c-1.34,0.12-2.67,0.47-3.98,1.07c-1.31,0.6-2.53,1.46-3.65,2.58L377.74,491.51z M389.24,499.61c-1.49,0.23-3.03,0.56-4.61,1.01
		c-1.58,0.44-2.93,0.92-4.04,1.44c-2.07,0.92-3.47,1.94-4.19,3.07c-0.72,1.12-1.03,2.28-0.93,3.45c0.08,0.89,0.44,1.6,1.08,2.12
		c0.64,0.52,1.58,0.73,2.83,0.62c1.5-0.13,3.03-0.66,4.58-1.58c1.56-0.92,3.06-2.24,4.52-3.94L389.24,499.61z"/>
	<path d="M402.27,487.68l0.96-7.79l2.11-0.71l-1.05,8.33l7.46-0.65l-0.22,1.9l-7.46,0.65l-1.66,13.49
		c-0.17,1.36-0.22,2.46-0.15,3.29c0.08,0.93,0.38,1.69,0.9,2.31c0.52,0.61,1.31,1.15,2.38,1.6l-0.02,0.29l-2.41,0.55
		c-0.87-0.37-1.53-0.92-2-1.63c-0.46-0.71-0.75-1.69-0.86-2.94c-0.07-0.83-0.02-1.93,0.15-3.29l1.66-13.49l-4.59,0.4l0.22-1.9
		L402.27,487.68z"/>
	<path d="M418.48,486.26l0.96-7.79l2.11-0.71l-1.05,8.33l7.46-0.65l-0.22,1.9l-7.46,0.65l-1.66,13.49
		c-0.17,1.36-0.22,2.46-0.15,3.29c0.08,0.93,0.38,1.69,0.9,2.31c0.52,0.61,1.31,1.15,2.38,1.6l-0.02,0.29l-2.41,0.55
		c-0.87-0.37-1.53-0.92-2-1.63c-0.46-0.71-0.75-1.69-0.86-2.94c-0.07-0.83-0.02-1.93,0.15-3.29l1.66-13.49l-4.59,0.4l0.22-1.9
		L418.48,486.26z"/>
	<path d="M439.85,497.01c-0.62,0.22-1.31,0.43-2.06,0.64c-0.75,0.21-1.53,0.42-2.33,0.64c-0.8,0.22-1.6,0.41-2.41,0.6
		c-0.8,0.18-1.55,0.35-2.24,0.51l0.02,0.24c0.19,2.14,0.97,3.83,2.35,5.07c1.38,1.25,3.29,1.76,5.75,1.54
		c1.53-0.13,3.02-0.59,4.48-1.36s2.7-1.76,3.71-2.98l0.14-0.01l-0.41,3.07c-0.95,0.89-2.14,1.64-3.56,2.26
		c-1.42,0.62-2.84,1-4.24,1.12c-1.63,0.14-3.05,0.02-4.27-0.37c-1.22-0.39-2.25-0.97-3.09-1.75c-0.84-0.78-1.49-1.7-1.95-2.77
		c-0.46-1.07-0.75-2.22-0.86-3.47c-0.16-1.85,0.08-3.72,0.74-5.61c0.65-1.89,1.59-3.62,2.8-5.21c1.21-1.58,2.65-2.91,4.33-3.97
		s3.47-1.68,5.38-1.84c2.1-0.18,3.73,0.17,4.89,1.07c1.15,0.89,1.8,2.09,1.93,3.59c0.07,0.83-0.02,1.66-0.27,2.48
		c-0.25,0.82-0.72,1.62-1.4,2.39c-0.69,0.77-1.64,1.5-2.84,2.2C443.22,495.8,441.69,496.43,439.85,497.01z M442.3,485.33
		c-1.43,0.13-2.8,0.57-4.1,1.35c-1.3,0.77-2.46,1.73-3.48,2.88c-1.02,1.15-1.88,2.43-2.56,3.84c-0.68,1.41-1.1,2.81-1.27,4.21
		c0.57-0.11,1.23-0.27,1.98-0.46c0.75-0.19,1.55-0.41,2.4-0.64c0.85-0.23,1.71-0.49,2.58-0.78c0.87-0.29,1.7-0.57,2.48-0.87
		c2.33-0.85,4.03-1.85,5.08-3.02c1.05-1.17,1.53-2.36,1.42-3.57c-0.09-1.02-0.53-1.79-1.33-2.32
		C444.7,485.42,443.64,485.21,442.3,485.33z"/>
	<path d="M468.14,483.84c-1.94,0.17-3.65,0.6-5.11,1.29c-1.47,0.69-2.71,1.58-3.74,2.66c-0.24,0.25-0.43,0.5-0.58,0.77
		c-0.15,0.27-0.3,0.6-0.44,0.98c-0.14,0.38-0.26,0.83-0.36,1.36c-0.1,0.52-0.2,1.14-0.3,1.86l-1.63,13.3l-2.06,0.18l2.87-23.33
		l2.06-0.18l-0.48,3.85c1.2-1.29,2.45-2.29,3.74-3c1.29-0.71,2.67-1.24,4.15-1.59c0.66-0.15,1.39-0.27,2.19-0.34L468.14,483.84z"/>
	<path d="M473.66,481.43l2.06-0.18l-0.57,4.48c1.42-1.79,2.94-3.16,4.58-4.11c1.63-0.94,3.2-1.48,4.7-1.62
		c1.91-0.17,3.45,0.18,4.62,1.04c1.17,0.86,1.84,2.3,2.01,4.3c0.07,0.8,0.06,1.57-0.04,2.32l-1.92,15.49l-2.06,0.18l1.89-15.34
		c0.12-0.88,0.14-1.67,0.08-2.37c-0.12-1.34-0.59-2.31-1.41-2.91c-0.82-0.6-1.95-0.84-3.39-0.72c-0.73,0.06-1.47,0.22-2.2,0.48
		c-0.73,0.26-1.43,0.59-2.11,1c-0.67,0.41-1.3,0.89-1.9,1.42c-0.6,0.53-1.12,1.11-1.58,1.73c-0.58,0.76-1.02,1.49-1.32,2.21
		c-0.31,0.72-0.53,1.58-0.66,2.59l-1.6,13.15l-2.06,0.18L473.66,481.43z"/>
</g>
<g>
	<path d="M467.08,259.5l-4.61,37.6l-2.25,0.2l-22.18-32.7l-4.31,35.02l-2.06,0.18l4.61-37.6l2.39-0.21l22.07,32.52l4.28-34.83
		L467.08,259.5z"/>
	<path d="M481.71,296.23c-2.81,0.25-5.09-0.47-6.86-2.15c-1.77-1.68-2.79-4.11-3.07-7.3c-0.18-2.1-0.01-4.06,0.52-5.88
		c0.53-1.81,1.32-3.41,2.38-4.79c1.05-1.38,2.33-2.48,3.83-3.32c1.5-0.84,3.14-1.34,4.93-1.49c1.28-0.11,2.49-0.02,3.64,0.28
		c1.15,0.3,2.16,0.81,3.02,1.52c0.87,0.71,1.58,1.64,2.15,2.8c0.57,1.15,0.92,2.53,1.06,4.12c0.16,1.82,0.02,3.65-0.41,5.5
		c-0.43,1.85-1.14,3.54-2.14,5.05c-0.99,1.52-2.25,2.79-3.76,3.82C485.48,295.45,483.72,296.06,481.71,296.23z M481.59,294.27
		c1.72-0.15,3.21-0.67,4.46-1.57c1.25-0.9,2.29-2.01,3.11-3.33s1.4-2.79,1.74-4.39c0.34-1.6,0.44-3.19,0.31-4.75
		c-0.21-2.39-0.99-4.19-2.33-5.41c-1.34-1.22-3.11-1.73-5.31-1.53c-1.59,0.14-3.02,0.6-4.29,1.39c-1.26,0.79-2.32,1.78-3.16,2.97
		c-0.84,1.2-1.46,2.58-1.85,4.14c-0.39,1.56-0.52,3.17-0.37,4.83c0.11,1.21,0.35,2.31,0.72,3.29c0.37,0.98,0.88,1.81,1.52,2.49
		c0.64,0.68,1.41,1.19,2.33,1.53C479.36,294.25,480.41,294.37,481.59,294.27z"/>
	<path d="M436.69,357.17l4.61-37.6l6.07-0.53c3.67-0.32,6.56,0.21,8.69,1.58c2.13,1.37,3.31,3.44,3.56,6.22
		c0.35,4.05-0.74,7.3-3.29,9.76c-2.55,2.46-6.45,3.91-11.71,4.37l-3.97,0.35l-1.9,15.68L436.69,357.17z M440.9,339.27l3.97-0.35
		c4.53-0.4,7.82-1.64,9.89-3.73c2.06-2.09,2.95-4.81,2.66-8.16c-0.19-2.2-1.15-3.81-2.86-4.83c-1.71-1.02-4.11-1.4-7.21-1.13
		l-4.26,0.37L440.9,339.27z"/>
	<path d="M464.29,333.36c1.05-0.86,2.19-1.52,3.44-1.99c1.24-0.46,2.47-0.75,3.68-0.85c2.17-0.19,3.81,0.16,4.94,1.06
		c1.12,0.9,1.76,2.26,1.92,4.07c0.03,0.35,0.04,0.7,0.02,1.03c-0.02,0.34-0.04,0.7-0.07,1.09l-1.95,15.73l-2.05,0.81l0.49-3.8
		c-1.12,1.13-2.45,2.13-3.98,3c-1.53,0.87-3.16,1.38-4.88,1.53c-1.72,0.15-3.11-0.16-4.15-0.94c-1.05-0.78-1.64-1.93-1.77-3.46
		c-0.14-1.56,0.25-3.03,1.16-4.41c0.91-1.38,2.33-2.54,4.27-3.48c1.39-0.67,2.92-1.26,4.61-1.78c1.69-0.52,3.72-1.01,6.09-1.47
		l0.26-2.05c0.05-0.49,0.05-1.03,0-1.64c-0.11-1.21-0.57-2.09-1.39-2.65c-0.82-0.55-1.93-0.77-3.33-0.65
		c-1.34,0.12-2.67,0.47-3.98,1.07c-1.31,0.6-2.53,1.46-3.65,2.58L464.29,333.36z M475.79,341.46c-1.49,0.23-3.03,0.56-4.61,1.01
		c-1.58,0.44-2.93,0.92-4.04,1.44c-2.07,0.92-3.47,1.94-4.19,3.06c-0.72,1.12-1.03,2.28-0.93,3.45c0.08,0.89,0.44,1.6,1.08,2.12
		c0.64,0.52,1.58,0.73,2.83,0.62c1.5-0.13,3.03-0.66,4.58-1.58c1.56-0.92,3.06-2.24,4.52-3.94L475.79,341.46z"/>
	<path d="M488.81,329.53l0.96-7.79l2.11-0.71l-1.05,8.33l7.46-0.65l-0.22,1.9l-7.46,0.65l-1.66,13.49
		c-0.17,1.36-0.22,2.46-0.15,3.29c0.08,0.93,0.38,1.69,0.9,2.31c0.52,0.61,1.31,1.15,2.38,1.6l-0.02,0.29l-2.41,0.55
		c-0.87-0.37-1.53-0.92-2-1.63c-0.46-0.71-0.75-1.69-0.86-2.94c-0.07-0.83-0.02-1.93,0.15-3.29l1.66-13.49l-4.59,0.4l0.22-1.9
		L488.81,329.53z"/>
	<path d="M505.02,328.11l0.96-7.79l2.11-0.71l-1.05,8.33l7.46-0.65l-0.22,1.9l-7.46,0.65l-1.66,13.49
		c-0.17,1.36-0.22,2.46-0.15,3.29c0.08,0.93,0.38,1.69,0.9,2.31c0.52,0.61,1.31,1.15,2.38,1.6l-0.02,0.29l-2.41,0.55
		c-0.87-0.37-1.53-0.92-2-1.63c-0.46-0.71-0.75-1.69-0.86-2.94c-0.07-0.83-0.02-1.93,0.15-3.29l1.66-13.49l-4.59,0.4l0.22-1.9
		L505.02,328.11z"/>
	<path d="M526.4,338.87c-0.62,0.22-1.31,0.43-2.06,0.64c-0.75,0.21-1.53,0.42-2.33,0.64c-0.8,0.22-1.6,0.41-2.41,0.6
		c-0.8,0.18-1.55,0.35-2.24,0.51l0.02,0.24c0.19,2.14,0.97,3.83,2.35,5.07c1.38,1.25,3.29,1.76,5.75,1.54
		c1.53-0.13,3.02-0.59,4.48-1.36s2.7-1.76,3.71-2.98l0.14-0.01l-0.41,3.07c-0.95,0.89-2.14,1.64-3.56,2.26
		c-1.42,0.62-2.84,1-4.24,1.12c-1.63,0.14-3.05,0.02-4.27-0.37c-1.22-0.39-2.25-0.97-3.09-1.75c-0.84-0.78-1.49-1.7-1.95-2.77
		c-0.46-1.07-0.75-2.22-0.86-3.47c-0.16-1.85,0.08-3.72,0.74-5.61c0.65-1.89,1.59-3.62,2.8-5.21c1.21-1.58,2.65-2.91,4.33-3.97
		s3.47-1.68,5.38-1.84c2.1-0.18,3.73,0.17,4.89,1.07c1.15,0.89,1.8,2.09,1.93,3.59c0.07,0.83-0.02,1.66-0.27,2.48
		c-0.25,0.83-0.72,1.62-1.4,2.39c-0.69,0.77-1.64,1.5-2.84,2.2C529.76,337.65,528.24,338.29,526.4,338.87z M528.84,327.19
		c-1.43,0.13-2.8,0.57-4.1,1.35c-1.3,0.77-2.46,1.73-3.48,2.88c-1.02,1.15-1.88,2.43-2.56,3.84c-0.68,1.41-1.1,2.81-1.27,4.21
		c0.57-0.11,1.23-0.27,1.98-0.46c0.75-0.19,1.55-0.41,2.4-0.64c0.85-0.23,1.71-0.49,2.58-0.78c0.87-0.29,1.7-0.57,2.48-0.87
		c2.33-0.85,4.03-1.85,5.08-3.02c1.05-1.17,1.53-2.36,1.42-3.57c-0.09-1.02-0.53-1.79-1.33-2.32
		C531.25,327.27,530.18,327.07,528.84,327.19z"/>
	<path d="M554.68,325.7c-1.94,0.17-3.65,0.6-5.11,1.29c-1.47,0.69-2.71,1.58-3.74,2.66c-0.24,0.25-0.43,0.5-0.58,0.77
		c-0.15,0.27-0.3,0.6-0.44,0.98c-0.14,0.38-0.26,0.83-0.36,1.36c-0.1,0.52-0.2,1.14-0.3,1.86l-1.63,13.3l-2.06,0.18l2.87-23.33
		l2.06-0.18l-0.48,3.85c1.2-1.29,2.45-2.29,3.74-3c1.29-0.71,2.67-1.24,4.15-1.59c0.66-0.15,1.39-0.27,2.19-0.34L554.68,325.7z"/>
	<path d="M560.2,323.29l2.06-0.18l-0.57,4.48c1.42-1.79,2.94-3.16,4.58-4.11c1.63-0.95,3.2-1.48,4.7-1.62
		c1.91-0.17,3.45,0.18,4.62,1.04c1.17,0.86,1.84,2.3,2.01,4.31c0.07,0.8,0.06,1.57-0.04,2.32l-1.92,15.49l-2.06,0.18l1.89-15.34
		c0.12-0.88,0.14-1.67,0.08-2.37c-0.12-1.34-0.59-2.31-1.41-2.91c-0.82-0.6-1.95-0.84-3.39-0.72c-0.73,0.06-1.47,0.22-2.2,0.48
		c-0.73,0.26-1.43,0.59-2.11,1c-0.67,0.41-1.3,0.89-1.9,1.42c-0.6,0.53-1.12,1.11-1.58,1.73c-0.58,0.76-1.02,1.49-1.32,2.21
		c-0.31,0.72-0.53,1.58-0.66,2.59l-1.6,13.15l-2.06,0.18L560.2,323.29z"/>
</g>
<g>
	<path d="M241.69-21.93l-4.61,37.6l-2.25,0.2l-22.18-32.7l-4.31,35.02l-2.06,0.18l4.61-37.6l2.39-0.21l22.07,32.52l4.28-34.83
		L241.69-21.93z"/>
	<path d="M256.32,14.81c-2.81,0.25-5.09-0.47-6.86-2.15c-1.77-1.68-2.79-4.11-3.07-7.3c-0.18-2.1-0.01-4.06,0.52-5.88
		c0.53-1.81,1.32-3.41,2.38-4.79c1.05-1.38,2.33-2.48,3.83-3.32c1.5-0.84,3.14-1.34,4.93-1.49c1.28-0.11,2.49-0.02,3.64,0.28
		c1.15,0.3,2.16,0.81,3.02,1.52c0.87,0.71,1.58,1.64,2.15,2.8c0.57,1.15,0.92,2.53,1.06,4.12c0.16,1.82,0.02,3.65-0.41,5.5
		c-0.43,1.85-1.14,3.54-2.14,5.05s-2.25,2.79-3.76,3.82C260.09,14.03,258.33,14.63,256.32,14.81z M256.2,12.84
		c1.72-0.15,3.21-0.67,4.46-1.57c1.25-0.9,2.29-2.01,3.11-3.33s1.4-2.79,1.74-4.39c0.34-1.6,0.44-3.19,0.31-4.75
		c-0.21-2.39-0.99-4.19-2.33-5.41c-1.34-1.22-3.11-1.73-5.31-1.53c-1.59,0.14-3.02,0.6-4.29,1.39c-1.26,0.79-2.32,1.78-3.16,2.97
		c-0.84,1.2-1.46,2.58-1.85,4.14c-0.39,1.56-0.52,3.17-0.37,4.83c0.11,1.21,0.35,2.31,0.72,3.29c0.37,0.98,0.88,1.81,1.52,2.49
		c0.64,0.68,1.41,1.19,2.33,1.53C253.97,12.83,255.02,12.94,256.2,12.84z"/>
	<path d="M211.3,75.75l4.61-37.6l6.07-0.53c3.67-0.32,6.56,0.21,8.69,1.58c2.13,1.37,3.31,3.44,3.56,6.22
		c0.35,4.05-0.74,7.3-3.29,9.76c-2.55,2.46-6.45,3.91-11.71,4.37l-3.97,0.35l-1.9,15.68L211.3,75.75z M215.52,57.84l3.97-0.35
		c4.53-0.4,7.82-1.64,9.89-3.73c2.06-2.09,2.95-4.81,2.66-8.16c-0.19-2.2-1.15-3.81-2.86-4.83c-1.71-1.02-4.11-1.4-7.21-1.13
		l-4.26,0.37L215.52,57.84z"/>
	<path d="M238.9,51.94c1.05-0.86,2.19-1.52,3.44-1.99c1.24-0.46,2.47-0.75,3.68-0.85c2.17-0.19,3.81,0.16,4.94,1.06
		c1.12,0.9,1.76,2.26,1.92,4.07c0.03,0.35,0.04,0.7,0.02,1.03c-0.02,0.34-0.04,0.7-0.07,1.09l-1.95,15.73l-2.05,0.81l0.49-3.8
		c-1.12,1.13-2.45,2.13-3.98,3c-1.53,0.87-3.16,1.38-4.88,1.53c-1.72,0.15-3.11-0.16-4.15-0.94c-1.05-0.78-1.64-1.93-1.77-3.46
		c-0.14-1.56,0.25-3.03,1.16-4.41c0.91-1.38,2.33-2.54,4.27-3.48c1.39-0.67,2.92-1.26,4.61-1.78c1.69-0.52,3.72-1.01,6.09-1.47
		l0.26-2.05c0.05-0.49,0.05-1.03,0-1.64c-0.11-1.21-0.57-2.09-1.39-2.65c-0.82-0.55-1.93-0.77-3.33-0.65
		c-1.34,0.12-2.67,0.47-3.98,1.07c-1.31,0.6-2.53,1.46-3.65,2.58L238.9,51.94z M250.4,60.04c-1.49,0.23-3.03,0.56-4.61,1.01
		c-1.58,0.44-2.93,0.92-4.04,1.44c-2.07,0.92-3.47,1.94-4.19,3.06c-0.72,1.12-1.03,2.28-0.93,3.45c0.08,0.89,0.44,1.6,1.08,2.12
		c0.64,0.52,1.58,0.73,2.83,0.62c1.5-0.13,3.03-0.66,4.58-1.58c1.56-0.92,3.06-2.24,4.52-3.94L250.4,60.04z"/>
	<path d="M263.43,48.11l0.96-7.79l2.11-0.71l-1.05,8.33l7.46-0.65l-0.22,1.9l-7.46,0.65l-1.66,13.49c-0.17,1.36-0.22,2.46-0.15,3.29
		c0.08,0.93,0.38,1.69,0.9,2.31c0.52,0.61,1.31,1.15,2.38,1.6l-0.02,0.29l-2.41,0.55c-0.87-0.37-1.53-0.92-2-1.63
		c-0.46-0.71-0.75-1.69-0.86-2.94c-0.07-0.83-0.02-1.93,0.15-3.29L263.21,50l-4.59,0.4l0.22-1.9L263.43,48.11z"/>
	<path d="M279.64,46.69l0.96-7.79l2.11-0.71l-1.05,8.33l7.46-0.65l-0.22,1.9l-7.46,0.65l-1.66,13.49c-0.17,1.36-0.22,2.46-0.15,3.29
		c0.08,0.93,0.38,1.69,0.9,2.31c0.52,0.61,1.31,1.15,2.38,1.6l-0.02,0.29l-2.41,0.55c-0.87-0.37-1.53-0.92-2-1.63
		c-0.46-0.71-0.75-1.69-0.86-2.94c-0.07-0.83-0.02-1.93,0.15-3.29l1.66-13.49l-4.59,0.4l0.22-1.9L279.64,46.69z"/>
	<path d="M301.01,57.44c-0.62,0.22-1.31,0.43-2.06,0.64c-0.75,0.21-1.53,0.42-2.33,0.64s-1.6,0.41-2.41,0.6
		c-0.8,0.18-1.55,0.35-2.24,0.51l0.02,0.24c0.19,2.14,0.97,3.83,2.35,5.07c1.38,1.25,3.29,1.76,5.75,1.54
		c1.53-0.13,3.02-0.59,4.48-1.36c1.46-0.77,2.7-1.76,3.71-2.98l0.14-0.01l-0.41,3.07c-0.95,0.89-2.14,1.64-3.56,2.26
		c-1.42,0.62-2.84,1-4.24,1.12c-1.63,0.14-3.05,0.02-4.27-0.37c-1.22-0.39-2.25-0.97-3.09-1.75c-0.84-0.78-1.49-1.7-1.95-2.77
		c-0.46-1.07-0.75-2.22-0.86-3.47c-0.16-1.85,0.08-3.72,0.74-5.61c0.65-1.89,1.59-3.62,2.8-5.21c1.21-1.58,2.65-2.91,4.33-3.97
		c1.67-1.06,3.47-1.68,5.38-1.84c2.1-0.18,3.73,0.17,4.89,1.07c1.15,0.89,1.8,2.09,1.93,3.59c0.07,0.83-0.02,1.66-0.27,2.48
		c-0.25,0.83-0.72,1.62-1.4,2.39c-0.69,0.77-1.64,1.5-2.84,2.2C304.38,56.22,302.85,56.86,301.01,57.44z M303.46,45.76
		c-1.43,0.13-2.8,0.57-4.1,1.35c-1.3,0.77-2.46,1.73-3.48,2.88c-1.02,1.15-1.88,2.43-2.56,3.84c-0.68,1.41-1.1,2.81-1.27,4.21
		c0.57-0.11,1.23-0.27,1.98-0.46c0.75-0.19,1.55-0.41,2.4-0.64c0.85-0.23,1.71-0.49,2.58-0.78c0.87-0.29,1.7-0.57,2.48-0.87
		c2.33-0.85,4.03-1.85,5.08-3.02c1.05-1.17,1.53-2.36,1.42-3.57c-0.09-1.02-0.53-1.79-1.33-2.32
		C305.87,45.85,304.8,45.64,303.46,45.76z"/>
	<path d="M329.3,44.27c-1.94,0.17-3.65,0.6-5.11,1.29c-1.47,0.69-2.71,1.58-3.74,2.66c-0.24,0.25-0.43,0.5-0.58,0.77
		c-0.15,0.27-0.3,0.6-0.44,0.98c-0.14,0.38-0.26,0.83-0.36,1.36c-0.1,0.52-0.2,1.14-0.3,1.86l-1.63,13.3l-2.06,0.18l2.87-23.33
		l2.06-0.18L319.51,47c1.2-1.29,2.45-2.29,3.74-3c1.29-0.71,2.67-1.24,4.15-1.59c0.66-0.15,1.39-0.27,2.19-0.34L329.3,44.27z"/>
	<path d="M334.82,41.86l2.06-0.18l-0.57,4.48c1.42-1.79,2.94-3.16,4.58-4.11c1.63-0.95,3.2-1.48,4.7-1.62
		c1.91-0.17,3.45,0.18,4.62,1.04c1.17,0.86,1.84,2.3,2.01,4.31c0.07,0.8,0.06,1.57-0.04,2.32l-1.92,15.49l-2.06,0.18l1.89-15.34
		c0.12-0.88,0.14-1.67,0.08-2.37c-0.12-1.34-0.59-2.31-1.41-2.91c-0.82-0.6-1.95-0.84-3.39-0.72c-0.73,0.06-1.47,0.22-2.2,0.48
		c-0.73,0.26-1.43,0.59-2.11,1c-0.67,0.41-1.3,0.89-1.9,1.42c-0.6,0.53-1.12,1.11-1.58,1.73c-0.58,0.76-1.02,1.49-1.32,2.21
		c-0.31,0.72-0.53,1.58-0.66,2.59L334,65.01l-2.06,0.18L334.82,41.86z"/>
</g>
<g>
	<path d="M354.38,118.78l-4.61,37.6l-2.25,0.2l-22.18-32.7l-4.31,35.02l-2.06,0.18l4.61-37.6l2.39-0.21l22.07,32.52l4.28-34.83
		L354.38,118.78z"/>
	<path d="M369.02,155.52c-2.81,0.25-5.09-0.47-6.86-2.15c-1.77-1.68-2.79-4.11-3.07-7.3c-0.18-2.1-0.01-4.06,0.52-5.88
		c0.53-1.81,1.32-3.41,2.38-4.79c1.05-1.38,2.33-2.48,3.83-3.32c1.5-0.84,3.14-1.34,4.93-1.49c1.28-0.11,2.49-0.02,3.64,0.28
		c1.15,0.3,2.16,0.81,3.02,1.52c0.87,0.71,1.58,1.64,2.15,2.8c0.57,1.15,0.92,2.53,1.06,4.12c0.16,1.82,0.02,3.65-0.41,5.5
		c-0.43,1.85-1.14,3.54-2.14,5.05s-2.25,2.79-3.76,3.82C372.79,154.74,371.02,155.34,369.02,155.52z M368.89,153.55
		c1.72-0.15,3.21-0.67,4.46-1.57c1.25-0.9,2.29-2.01,3.11-3.33s1.4-2.79,1.74-4.39c0.34-1.6,0.44-3.19,0.31-4.75
		c-0.21-2.39-0.99-4.19-2.33-5.41c-1.34-1.22-3.11-1.73-5.31-1.53c-1.59,0.14-3.02,0.6-4.29,1.39c-1.26,0.79-2.32,1.78-3.16,2.97
		c-0.84,1.2-1.46,2.58-1.85,4.14c-0.39,1.56-0.52,3.17-0.37,4.83c0.11,1.21,0.35,2.31,0.72,3.29c0.37,0.98,0.88,1.81,1.52,2.49
		c0.64,0.68,1.41,1.19,2.33,1.53C366.67,153.54,367.71,153.66,368.89,153.55z"/>
	<path d="M324,216.46l4.61-37.6l6.07-0.53c3.67-0.32,6.56,0.21,8.69,1.58c2.13,1.37,3.31,3.44,3.56,6.22
		c0.35,4.05-0.74,7.3-3.29,9.76c-2.55,2.46-6.45,3.91-11.71,4.37l-3.97,0.35l-1.9,15.68L324,216.46z M328.21,198.55l3.97-0.35
		c4.53-0.4,7.82-1.64,9.89-3.73c2.06-2.09,2.95-4.81,2.66-8.16c-0.19-2.2-1.15-3.81-2.86-4.83c-1.71-1.02-4.11-1.4-7.21-1.13
		l-4.26,0.37L328.21,198.55z"/>
	<path d="M351.59,192.65c1.05-0.86,2.19-1.52,3.44-1.99c1.24-0.46,2.47-0.75,3.68-0.85c2.17-0.19,3.81,0.16,4.94,1.06
		c1.12,0.9,1.76,2.26,1.92,4.07c0.03,0.35,0.04,0.7,0.02,1.03c-0.02,0.34-0.04,0.7-0.07,1.09l-1.95,15.73l-2.05,0.81l0.49-3.8
		c-1.12,1.13-2.45,2.13-3.98,3c-1.53,0.87-3.16,1.38-4.88,1.53c-1.72,0.15-3.11-0.16-4.15-0.94c-1.05-0.78-1.64-1.93-1.77-3.46
		c-0.14-1.56,0.25-3.03,1.16-4.41c0.91-1.38,2.33-2.54,4.27-3.48c1.39-0.67,2.92-1.26,4.61-1.78c1.69-0.52,3.72-1.01,6.09-1.47
		l0.26-2.05c0.05-0.49,0.05-1.03,0-1.64c-0.11-1.21-0.57-2.09-1.39-2.65c-0.82-0.55-1.93-0.77-3.33-0.65
		c-1.34,0.12-2.67,0.47-3.98,1.07c-1.31,0.6-2.53,1.46-3.65,2.58L351.59,192.65z M363.1,200.75c-1.49,0.23-3.03,0.56-4.61,1.01
		c-1.58,0.44-2.93,0.92-4.04,1.44c-2.07,0.92-3.47,1.94-4.19,3.06c-0.72,1.12-1.03,2.28-0.93,3.45c0.08,0.89,0.44,1.6,1.08,2.12
		c0.64,0.52,1.58,0.73,2.83,0.62c1.5-0.13,3.03-0.66,4.58-1.58c1.56-0.92,3.06-2.24,4.52-3.94L363.1,200.75z"/>
	<path d="M376.12,188.82l0.96-7.79l2.11-0.71l-1.05,8.33l7.46-0.65l-0.22,1.9l-7.46,0.65l-1.66,13.49
		c-0.17,1.36-0.22,2.46-0.15,3.29c0.08,0.93,0.38,1.69,0.9,2.31c0.52,0.61,1.31,1.15,2.38,1.6l-0.02,0.29l-2.41,0.55
		c-0.87-0.37-1.53-0.92-2-1.63c-0.46-0.71-0.75-1.69-0.86-2.94c-0.07-0.83-0.02-1.93,0.15-3.29l1.66-13.49l-4.59,0.4l0.22-1.9
		L376.12,188.82z"/>
	<path d="M392.33,187.4l0.96-7.79l2.11-0.71l-1.05,8.33l7.46-0.65l-0.22,1.9l-7.46,0.65l-1.66,13.49c-0.17,1.36-0.22,2.46-0.15,3.29
		c0.08,0.93,0.38,1.69,0.9,2.31c0.52,0.61,1.31,1.15,2.38,1.6l-0.02,0.29l-2.41,0.55c-0.87-0.37-1.53-0.92-2-1.63
		c-0.46-0.71-0.75-1.69-0.86-2.94c-0.07-0.83-0.02-1.93,0.15-3.29l1.66-13.49l-4.59,0.4l0.22-1.9L392.33,187.4z"/>
	<path d="M413.7,198.16c-0.62,0.22-1.31,0.43-2.06,0.64c-0.75,0.21-1.53,0.42-2.33,0.64s-1.6,0.41-2.41,0.6
		c-0.8,0.18-1.55,0.35-2.24,0.51l0.02,0.24c0.19,2.14,0.97,3.83,2.35,5.07c1.38,1.25,3.29,1.76,5.75,1.54
		c1.53-0.13,3.02-0.59,4.48-1.36c1.46-0.77,2.7-1.76,3.71-2.98l0.14-0.01l-0.41,3.07c-0.95,0.89-2.14,1.64-3.56,2.26
		c-1.42,0.62-2.84,1-4.24,1.12c-1.63,0.14-3.05,0.02-4.27-0.37c-1.22-0.39-2.25-0.97-3.09-1.75c-0.84-0.78-1.49-1.7-1.95-2.77
		c-0.46-1.07-0.75-2.22-0.86-3.47c-0.16-1.85,0.08-3.72,0.74-5.61c0.65-1.89,1.59-3.62,2.8-5.21c1.21-1.58,2.65-2.91,4.33-3.97
		c1.67-1.06,3.47-1.68,5.38-1.84c2.1-0.18,3.73,0.17,4.89,1.07c1.15,0.89,1.8,2.09,1.93,3.59c0.07,0.83-0.02,1.66-0.27,2.48
		c-0.25,0.83-0.72,1.62-1.4,2.39c-0.69,0.77-1.64,1.5-2.84,2.2C417.07,196.94,415.55,197.58,413.7,198.16z M416.15,186.47
		c-1.43,0.13-2.8,0.57-4.1,1.35c-1.3,0.77-2.46,1.73-3.48,2.88c-1.02,1.15-1.88,2.43-2.56,3.84c-0.68,1.41-1.1,2.81-1.27,4.21
		c0.57-0.11,1.23-0.27,1.98-0.46c0.75-0.19,1.55-0.41,2.4-0.64c0.85-0.23,1.71-0.49,2.58-0.78c0.87-0.29,1.7-0.57,2.48-0.87
		c2.33-0.85,4.03-1.85,5.08-3.02c1.05-1.17,1.53-2.36,1.42-3.57c-0.09-1.02-0.53-1.79-1.33-2.32
		C418.56,186.56,417.49,186.36,416.15,186.47z"/>
	<path d="M441.99,184.98c-1.94,0.17-3.65,0.6-5.11,1.29c-1.47,0.69-2.71,1.58-3.74,2.66c-0.24,0.25-0.43,0.5-0.58,0.77
		c-0.15,0.27-0.3,0.6-0.44,0.98c-0.14,0.38-0.26,0.83-0.36,1.36c-0.1,0.52-0.2,1.14-0.3,1.86l-1.63,13.3l-2.06,0.18l2.87-23.33
		l2.06-0.18l-0.48,3.85c1.2-1.29,2.45-2.29,3.74-3c1.29-0.71,2.67-1.24,4.15-1.59c0.66-0.15,1.39-0.27,2.19-0.34L441.99,184.98z"/>
	<path d="M447.51,182.57l2.06-0.18l-0.57,4.48c1.42-1.79,2.94-3.16,4.58-4.11c1.63-0.95,3.2-1.48,4.7-1.62
		c1.91-0.17,3.45,0.18,4.62,1.04c1.17,0.86,1.84,2.3,2.01,4.31c0.07,0.8,0.06,1.57-0.04,2.32l-1.92,15.49l-2.06,0.18l1.89-15.34
		c0.12-0.88,0.14-1.67,0.08-2.37c-0.12-1.34-0.59-2.31-1.41-2.91c-0.82-0.6-1.95-0.84-3.39-0.72c-0.73,0.06-1.47,0.22-2.2,0.48
		c-0.73,0.26-1.43,0.59-2.11,1c-0.67,0.41-1.3,0.89-1.9,1.42c-0.6,0.53-1.12,1.11-1.58,1.73c-0.58,0.76-1.02,1.49-1.32,2.21
		c-0.31,0.72-0.53,1.58-0.66,2.59l-1.6,13.15l-2.06,0.18L447.51,182.57z"/>
</g>
<g>
	<path d="M579.77,400.21l-4.61,37.6l-2.25,0.2l-22.18-32.7l-4.31,35.02l-2.06,0.18l4.61-37.6l2.39-0.21l22.07,32.52l4.28-34.83
		L579.77,400.21z"/>
	<path d="M594.4,436.95c-2.81,0.25-5.09-0.47-6.86-2.15c-1.77-1.68-2.79-4.11-3.07-7.3c-0.18-2.1-0.01-4.06,0.52-5.88
		c0.53-1.81,1.32-3.41,2.38-4.79c1.05-1.38,2.33-2.48,3.83-3.32c1.5-0.84,3.14-1.33,4.93-1.49c1.28-0.11,2.49-0.02,3.64,0.28
		c1.15,0.3,2.16,0.81,3.02,1.52c0.87,0.71,1.58,1.64,2.15,2.8c0.57,1.16,0.92,2.53,1.06,4.12c0.16,1.82,0.02,3.65-0.41,5.5
		c-0.43,1.85-1.14,3.54-2.14,5.05c-0.99,1.52-2.25,2.79-3.76,3.82C598.17,436.17,596.41,436.77,594.4,436.95z M594.28,434.98
		c1.72-0.15,3.21-0.67,4.46-1.57c1.25-0.9,2.29-2.01,3.11-3.33c0.82-1.32,1.4-2.79,1.74-4.39c0.34-1.6,0.44-3.19,0.31-4.75
		c-0.21-2.39-0.99-4.19-2.33-5.41c-1.34-1.22-3.11-1.73-5.31-1.53c-1.59,0.14-3.02,0.6-4.29,1.39c-1.26,0.79-2.32,1.78-3.16,2.98
		c-0.84,1.2-1.46,2.58-1.85,4.14c-0.39,1.56-0.52,3.17-0.37,4.83c0.11,1.21,0.35,2.31,0.72,3.29c0.37,0.98,0.88,1.81,1.52,2.49
		c0.64,0.68,1.41,1.19,2.33,1.53C592.05,434.97,593.1,435.09,594.28,434.98z"/>
	<path d="M549.38,497.89l4.61-37.6l6.07-0.53c3.67-0.32,6.56,0.21,8.69,1.58c2.13,1.37,3.31,3.45,3.56,6.22
		c0.35,4.05-0.74,7.3-3.29,9.76c-2.55,2.46-6.45,3.91-11.71,4.37l-3.97,0.35l-1.9,15.68L549.38,497.89z M553.6,479.98l3.97-0.35
		c4.53-0.4,7.82-1.64,9.89-3.73c2.06-2.09,2.95-4.81,2.66-8.16c-0.19-2.2-1.15-3.81-2.86-4.83c-1.71-1.02-4.11-1.4-7.21-1.13
		l-4.26,0.37L553.6,479.98z"/>
	<path d="M576.98,474.08c1.05-0.86,2.19-1.52,3.44-1.99c1.24-0.46,2.47-0.75,3.68-0.85c2.17-0.19,3.81,0.17,4.94,1.06
		c1.12,0.9,1.76,2.26,1.92,4.07c0.03,0.35,0.04,0.7,0.02,1.03c-0.02,0.34-0.04,0.7-0.07,1.09l-1.95,15.73l-2.05,0.81l0.49-3.8
		c-1.12,1.13-2.45,2.13-3.98,3c-1.53,0.87-3.16,1.38-4.88,1.53c-1.72,0.15-3.11-0.16-4.15-0.94c-1.05-0.78-1.64-1.93-1.77-3.46
		c-0.14-1.56,0.25-3.03,1.16-4.41c0.91-1.38,2.33-2.54,4.27-3.48c1.39-0.67,2.92-1.26,4.61-1.78c1.69-0.52,3.72-1.01,6.09-1.47
		l0.26-2.05c0.05-0.49,0.05-1.03,0-1.64c-0.11-1.21-0.57-2.09-1.39-2.65c-0.82-0.55-1.93-0.77-3.33-0.65
		c-1.34,0.12-2.67,0.47-3.98,1.07c-1.31,0.6-2.53,1.46-3.65,2.58L576.98,474.08z M588.48,482.18c-1.49,0.23-3.03,0.56-4.61,1.01
		c-1.58,0.44-2.93,0.92-4.04,1.44c-2.07,0.92-3.47,1.94-4.19,3.07c-0.72,1.12-1.03,2.28-0.93,3.45c0.08,0.89,0.44,1.6,1.08,2.12
		c0.64,0.52,1.58,0.73,2.83,0.62c1.5-0.13,3.03-0.66,4.58-1.58c1.56-0.92,3.06-2.24,4.52-3.94L588.48,482.18z"/>
	<path d="M601.51,470.25l0.96-7.79l2.11-0.71l-1.05,8.33l7.46-0.65l-0.22,1.9l-7.46,0.65l-1.66,13.49
		c-0.17,1.36-0.22,2.46-0.15,3.29c0.08,0.93,0.38,1.69,0.9,2.31c0.52,0.61,1.31,1.15,2.38,1.6l-0.02,0.29l-2.41,0.55
		c-0.87-0.37-1.53-0.92-2-1.63c-0.46-0.71-0.75-1.69-0.86-2.94c-0.07-0.83-0.02-1.93,0.15-3.29l1.66-13.49l-4.59,0.4l0.22-1.9
		L601.51,470.25z"/>
	<path d="M617.72,468.83l0.96-7.79l2.11-0.71l-1.05,8.33l7.46-0.65l-0.22,1.9l-7.46,0.65l-1.66,13.49
		c-0.17,1.36-0.22,2.46-0.15,3.29c0.08,0.93,0.38,1.69,0.9,2.31c0.52,0.61,1.31,1.15,2.38,1.6l-0.02,0.29l-2.41,0.55
		c-0.87-0.37-1.53-0.92-2-1.63c-0.46-0.71-0.75-1.69-0.86-2.94c-0.07-0.83-0.02-1.93,0.15-3.29l1.66-13.49l-4.59,0.4l0.22-1.9
		L617.72,468.83z"/>
	<path d="M639.09,479.58c-0.62,0.22-1.31,0.43-2.06,0.64c-0.75,0.21-1.53,0.42-2.33,0.64c-0.8,0.22-1.6,0.41-2.41,0.6
		c-0.8,0.18-1.55,0.35-2.24,0.51l0.02,0.24c0.19,2.14,0.97,3.83,2.35,5.07c1.38,1.25,3.29,1.76,5.75,1.54
		c1.53-0.13,3.02-0.59,4.48-1.36s2.7-1.76,3.71-2.98l0.14-0.01l-0.41,3.07c-0.95,0.89-2.14,1.64-3.56,2.26
		c-1.42,0.62-2.84,1-4.24,1.12c-1.63,0.14-3.05,0.02-4.27-0.37c-1.22-0.39-2.25-0.97-3.09-1.75c-0.84-0.78-1.49-1.7-1.95-2.77
		c-0.46-1.07-0.75-2.22-0.86-3.47c-0.16-1.85,0.08-3.72,0.74-5.61c0.65-1.89,1.59-3.62,2.8-5.21c1.21-1.58,2.65-2.91,4.33-3.97
		s3.47-1.68,5.38-1.84c2.1-0.18,3.73,0.17,4.89,1.07c1.15,0.89,1.8,2.09,1.93,3.59c0.07,0.83-0.02,1.66-0.27,2.48
		s-0.72,1.62-1.4,2.39c-0.69,0.77-1.64,1.5-2.84,2.2C642.46,478.36,640.93,479,639.09,479.58z M641.54,467.9
		c-1.43,0.13-2.8,0.57-4.1,1.35c-1.3,0.77-2.46,1.73-3.48,2.88c-1.02,1.15-1.88,2.43-2.56,3.84c-0.68,1.41-1.1,2.81-1.27,4.21
		c0.57-0.11,1.23-0.27,1.98-0.46c0.75-0.19,1.55-0.41,2.4-0.64c0.85-0.23,1.71-0.49,2.58-0.78c0.87-0.29,1.7-0.57,2.48-0.87
		c2.33-0.85,4.03-1.85,5.08-3.02c1.05-1.17,1.53-2.36,1.42-3.57c-0.09-1.02-0.53-1.79-1.33-2.32
		C643.94,467.99,642.87,467.78,641.54,467.9z"/>
	<path d="M667.38,466.41c-1.94,0.17-3.65,0.6-5.11,1.29c-1.47,0.69-2.71,1.58-3.74,2.66c-0.24,0.25-0.43,0.5-0.58,0.77
		c-0.15,0.27-0.3,0.6-0.44,0.98c-0.14,0.38-0.26,0.83-0.36,1.36c-0.1,0.52-0.2,1.14-0.3,1.86l-1.63,13.3l-2.06,0.18l2.87-23.33
		l2.06-0.18l-0.48,3.85c1.2-1.29,2.45-2.29,3.74-3c1.29-0.71,2.67-1.24,4.15-1.59c0.66-0.15,1.39-0.27,2.19-0.34L667.38,466.41z"/>
	<path d="M672.9,464l2.06-0.18l-0.57,4.48c1.42-1.79,2.94-3.16,4.58-4.11c1.63-0.94,3.2-1.48,4.7-1.62
		c1.91-0.17,3.45,0.18,4.62,1.04c1.17,0.86,1.84,2.3,2.01,4.3c0.07,0.8,0.06,1.57-0.04,2.32l-1.92,15.49l-2.06,0.18l1.89-15.34
		c0.12-0.88,0.14-1.67,0.08-2.37c-0.12-1.34-0.59-2.31-1.41-2.91c-0.82-0.6-1.95-0.84-3.39-0.72c-0.73,0.06-1.47,0.22-2.2,0.48
		c-0.73,0.26-1.43,0.59-2.11,1c-0.67,0.41-1.3,0.89-1.9,1.42c-0.6,0.53-1.12,1.11-1.58,1.73c-0.58,0.76-1.02,1.49-1.32,2.21
		c-0.31,0.72-0.53,1.58-0.66,2.59l-1.6,13.15l-2.06,0.18L672.9,464z"/>
</g>
<g>
	<path d="M553.62,101.35l-4.61,37.6l-2.25,0.2l-22.18-32.7l-4.31,35.02l-2.06,0.18l4.61-37.6l2.39-0.21l22.07,32.52l4.28-34.83
		L553.62,101.35z"/>
	<path d="M568.26,138.09c-2.81,0.25-5.09-0.47-6.86-2.15c-1.77-1.68-2.79-4.11-3.07-7.3c-0.18-2.1-0.01-4.06,0.52-5.88
		c0.53-1.81,1.32-3.41,2.38-4.79c1.05-1.38,2.33-2.48,3.83-3.32c1.5-0.84,3.14-1.34,4.93-1.49c1.28-0.11,2.49-0.02,3.64,0.28
		c1.15,0.3,2.16,0.81,3.02,1.52c0.87,0.71,1.58,1.64,2.15,2.8c0.57,1.15,0.92,2.53,1.06,4.12c0.16,1.82,0.02,3.65-0.41,5.5
		c-0.43,1.85-1.14,3.54-2.14,5.05s-2.25,2.79-3.76,3.82C572.03,137.31,570.26,137.91,568.26,138.09z M568.13,136.12
		c1.72-0.15,3.21-0.67,4.46-1.57c1.25-0.9,2.29-2.01,3.11-3.33s1.4-2.79,1.74-4.39c0.34-1.6,0.44-3.19,0.31-4.75
		c-0.21-2.39-0.99-4.19-2.33-5.41c-1.34-1.22-3.11-1.73-5.31-1.53c-1.59,0.14-3.02,0.6-4.29,1.39c-1.26,0.79-2.32,1.78-3.16,2.97
		c-0.84,1.2-1.46,2.58-1.85,4.14c-0.39,1.56-0.52,3.17-0.37,4.83c0.11,1.21,0.35,2.31,0.72,3.29c0.37,0.98,0.88,1.81,1.52,2.49
		c0.64,0.68,1.41,1.19,2.33,1.53C565.91,136.11,566.95,136.23,568.13,136.12z"/>
	<path d="M523.24,199.03l4.61-37.6l6.07-0.53c3.67-0.32,6.56,0.21,8.69,1.58c2.13,1.37,3.31,3.44,3.56,6.22
		c0.35,4.05-0.74,7.3-3.29,9.76c-2.55,2.46-6.45,3.91-11.71,4.37l-3.97,0.35l-1.9,15.68L523.24,199.03z M527.45,181.12l3.97-0.35
		c4.53-0.4,7.82-1.64,9.89-3.73c2.06-2.09,2.95-4.81,2.66-8.16c-0.19-2.2-1.15-3.81-2.86-4.83c-1.71-1.02-4.11-1.4-7.21-1.13
		l-4.26,0.37L527.45,181.12z"/>
	<path d="M550.83,175.22c1.05-0.86,2.19-1.52,3.44-1.99c1.24-0.46,2.47-0.75,3.68-0.85c2.17-0.19,3.81,0.16,4.94,1.06
		c1.12,0.9,1.76,2.26,1.92,4.07c0.03,0.35,0.04,0.7,0.02,1.03c-0.02,0.34-0.04,0.7-0.07,1.09l-1.95,15.73l-2.05,0.81l0.49-3.8
		c-1.12,1.13-2.45,2.13-3.98,3c-1.53,0.87-3.16,1.38-4.88,1.53c-1.72,0.15-3.11-0.16-4.15-0.94c-1.05-0.78-1.64-1.93-1.77-3.46
		c-0.14-1.56,0.25-3.03,1.16-4.41c0.91-1.38,2.33-2.54,4.27-3.48c1.39-0.67,2.92-1.26,4.61-1.78c1.69-0.52,3.72-1.01,6.09-1.47
		l0.26-2.05c0.05-0.49,0.05-1.03,0-1.64c-0.11-1.21-0.57-2.09-1.39-2.65c-0.82-0.55-1.93-0.77-3.33-0.65
		c-1.34,0.12-2.67,0.47-3.98,1.07c-1.31,0.6-2.53,1.46-3.65,2.58L550.83,175.22z M562.34,183.32c-1.49,0.23-3.03,0.56-4.61,1.01
		c-1.58,0.44-2.93,0.92-4.04,1.44c-2.07,0.92-3.47,1.94-4.19,3.06c-0.72,1.12-1.03,2.28-0.93,3.45c0.08,0.89,0.44,1.6,1.08,2.12
		c0.64,0.52,1.58,0.73,2.83,0.62c1.5-0.13,3.03-0.66,4.58-1.58c1.56-0.92,3.06-2.24,4.52-3.94L562.34,183.32z"/>
	<path d="M575.36,171.39l0.96-7.79l2.11-0.71l-1.05,8.33l7.46-0.65l-0.22,1.9l-7.46,0.65l-1.66,13.49
		c-0.17,1.36-0.22,2.46-0.15,3.29c0.08,0.93,0.38,1.69,0.9,2.31c0.52,0.61,1.31,1.15,2.38,1.6l-0.02,0.29l-2.41,0.55
		c-0.87-0.37-1.53-0.92-2-1.63c-0.46-0.71-0.75-1.69-0.86-2.94c-0.07-0.83-0.02-1.93,0.15-3.29l1.66-13.49l-4.59,0.4l0.22-1.9
		L575.36,171.39z"/>
	<path d="M591.57,169.97l0.96-7.79l2.11-0.71l-1.05,8.33l7.46-0.65l-0.22,1.9l-7.46,0.65l-1.66,13.49
		c-0.17,1.36-0.22,2.46-0.15,3.29c0.08,0.93,0.38,1.69,0.9,2.31c0.52,0.61,1.31,1.15,2.38,1.6l-0.02,0.29l-2.41,0.55
		c-0.87-0.37-1.53-0.92-2-1.63c-0.46-0.71-0.75-1.69-0.86-2.94c-0.07-0.83-0.02-1.93,0.15-3.29l1.66-13.49l-4.59,0.4l0.22-1.9
		L591.57,169.97z"/>
	<path d="M612.94,180.72c-0.62,0.22-1.31,0.43-2.06,0.64c-0.75,0.21-1.53,0.42-2.33,0.64c-0.8,0.21-1.6,0.41-2.41,0.6
		c-0.8,0.18-1.55,0.35-2.24,0.51l0.02,0.24c0.19,2.14,0.97,3.83,2.35,5.07c1.38,1.25,3.29,1.76,5.75,1.54
		c1.53-0.13,3.02-0.59,4.48-1.36c1.46-0.77,2.7-1.76,3.71-2.98l0.14-0.01l-0.41,3.07c-0.95,0.89-2.14,1.64-3.56,2.26
		c-1.42,0.62-2.84,1-4.24,1.12c-1.63,0.14-3.05,0.02-4.27-0.37c-1.22-0.39-2.25-0.97-3.09-1.75c-0.84-0.78-1.49-1.7-1.95-2.77
		c-0.46-1.07-0.75-2.22-0.86-3.47c-0.16-1.85,0.08-3.72,0.74-5.61c0.65-1.89,1.59-3.62,2.8-5.21c1.21-1.58,2.65-2.91,4.33-3.97
		s3.47-1.68,5.38-1.84c2.1-0.18,3.73,0.17,4.89,1.07c1.15,0.89,1.8,2.09,1.93,3.59c0.07,0.83-0.02,1.66-0.27,2.48
		c-0.25,0.83-0.72,1.62-1.4,2.39c-0.69,0.77-1.64,1.5-2.84,2.2C616.31,179.51,614.79,180.15,612.94,180.72z M615.39,169.04
		c-1.43,0.13-2.8,0.57-4.1,1.35c-1.3,0.77-2.46,1.73-3.48,2.88c-1.02,1.15-1.88,2.43-2.56,3.84c-0.68,1.41-1.1,2.81-1.27,4.21
		c0.57-0.11,1.23-0.27,1.98-0.46c0.75-0.19,1.55-0.41,2.4-0.64c0.85-0.23,1.71-0.49,2.58-0.78c0.87-0.29,1.7-0.57,2.48-0.87
		c2.33-0.85,4.03-1.85,5.08-3.02c1.05-1.17,1.53-2.36,1.42-3.57c-0.09-1.02-0.53-1.79-1.33-2.32
		C617.8,169.13,616.73,168.93,615.39,169.04z"/>
	<path d="M641.23,167.55c-1.94,0.17-3.65,0.6-5.11,1.29c-1.47,0.69-2.71,1.58-3.74,2.66c-0.24,0.25-0.43,0.5-0.58,0.77
		c-0.15,0.27-0.3,0.6-0.44,0.98c-0.14,0.38-0.26,0.83-0.36,1.36c-0.1,0.52-0.2,1.14-0.3,1.86l-1.63,13.3l-2.06,0.18l2.87-23.33
		l2.06-0.18l-0.48,3.85c1.2-1.29,2.45-2.29,3.74-3c1.29-0.71,2.67-1.24,4.15-1.59c0.66-0.15,1.39-0.27,2.19-0.34L641.23,167.55z"/>
	<path d="M646.75,165.14l2.06-0.18l-0.57,4.48c1.42-1.79,2.94-3.16,4.58-4.11c1.63-0.95,3.2-1.48,4.7-1.62
		c1.91-0.17,3.45,0.18,4.62,1.04c1.17,0.86,1.84,2.3,2.01,4.31c0.07,0.8,0.06,1.57-0.04,2.32l-1.92,15.49l-2.06,0.18l1.89-15.34
		c0.12-0.88,0.14-1.67,0.08-2.37c-0.12-1.34-0.59-2.31-1.41-2.91c-0.82-0.6-1.95-0.84-3.39-0.72c-0.73,0.06-1.47,0.22-2.2,0.48
		c-0.73,0.26-1.43,0.59-2.11,1c-0.67,0.41-1.3,0.89-1.9,1.42c-0.6,0.53-1.12,1.11-1.58,1.73c-0.58,0.76-1.02,1.49-1.32,2.21
		c-0.31,0.72-0.53,1.58-0.66,2.59l-1.6,13.15l-2.06,0.18L646.75,165.14z"/>
</g>
<g>
	<path d="M440.93-39.36l-4.61,37.6l-2.25,0.2l-22.18-32.7l-4.31,35.02l-2.06,0.18l4.61-37.6l2.39-0.21L434.6-4.36l4.28-34.83
		L440.93-39.36z"/>
	<path d="M455.56-2.63c-2.81,0.25-5.09-0.47-6.86-2.15c-1.77-1.68-2.79-4.11-3.07-7.3c-0.18-2.1-0.01-4.06,0.52-5.88
		c0.53-1.81,1.32-3.41,2.38-4.79c1.05-1.38,2.33-2.48,3.83-3.32c1.5-0.84,3.14-1.34,4.93-1.49c1.28-0.11,2.49-0.02,3.64,0.28
		c1.15,0.3,2.16,0.81,3.02,1.52c0.87,0.71,1.58,1.64,2.15,2.8c0.57,1.15,0.92,2.53,1.06,4.12c0.16,1.82,0.02,3.65-0.41,5.5
		c-0.43,1.85-1.14,3.54-2.14,5.05s-2.25,2.79-3.76,3.82C459.33-3.41,457.57-2.8,455.56-2.63z M455.44-4.59
		c1.72-0.15,3.21-0.67,4.46-1.57c1.25-0.9,2.29-2.01,3.11-3.33s1.4-2.79,1.74-4.39c0.34-1.6,0.44-3.19,0.31-4.75
		c-0.21-2.39-0.99-4.19-2.33-5.41c-1.34-1.22-3.11-1.73-5.31-1.53c-1.59,0.14-3.02,0.6-4.29,1.39c-1.26,0.79-2.32,1.78-3.16,2.97
		c-0.84,1.2-1.46,2.58-1.85,4.14c-0.39,1.56-0.52,3.17-0.37,4.83c0.11,1.21,0.35,2.31,0.72,3.29c0.37,0.98,0.88,1.81,1.52,2.49
		c0.64,0.68,1.41,1.19,2.33,1.53C453.21-4.6,454.26-4.49,455.44-4.59z"/>
	<path d="M410.54,58.31l4.61-37.6l6.07-0.53c3.67-0.32,6.56,0.21,8.69,1.58c2.13,1.37,3.31,3.44,3.56,6.22
		c0.35,4.05-0.74,7.3-3.29,9.76c-2.55,2.46-6.45,3.91-11.71,4.37l-3.97,0.35l-1.9,15.68L410.54,58.31z M414.76,40.41l3.97-0.35
		c4.53-0.4,7.82-1.64,9.89-3.73c2.06-2.09,2.95-4.81,2.66-8.16c-0.19-2.2-1.15-3.81-2.86-4.83c-1.71-1.02-4.11-1.4-7.21-1.13
		l-4.26,0.37L414.76,40.41z"/>
	<path d="M438.14,34.51c1.05-0.86,2.19-1.52,3.44-1.99c1.24-0.46,2.47-0.75,3.68-0.85c2.17-0.19,3.81,0.16,4.94,1.06
		c1.12,0.9,1.76,2.26,1.92,4.07c0.03,0.35,0.04,0.7,0.02,1.03c-0.02,0.34-0.04,0.7-0.07,1.09l-1.95,15.73l-2.05,0.81l0.49-3.8
		c-1.12,1.13-2.45,2.13-3.98,3c-1.53,0.87-3.16,1.38-4.88,1.53c-1.72,0.15-3.11-0.16-4.15-0.94c-1.05-0.78-1.64-1.93-1.77-3.46
		c-0.14-1.56,0.25-3.03,1.16-4.41c0.91-1.38,2.33-2.54,4.27-3.48c1.39-0.67,2.92-1.26,4.61-1.78c1.69-0.52,3.72-1.01,6.09-1.47
		l0.26-2.05c0.05-0.49,0.05-1.03,0-1.64c-0.11-1.21-0.57-2.09-1.39-2.65c-0.82-0.55-1.93-0.77-3.33-0.65
		c-1.34,0.12-2.67,0.47-3.98,1.07c-1.31,0.6-2.53,1.46-3.65,2.58L438.14,34.51z M449.64,42.61c-1.49,0.23-3.03,0.56-4.61,1.01
		c-1.58,0.44-2.93,0.92-4.04,1.44c-2.07,0.92-3.47,1.94-4.19,3.06c-0.72,1.12-1.03,2.28-0.93,3.45c0.08,0.89,0.44,1.6,1.08,2.12
		c0.64,0.52,1.58,0.73,2.83,0.62c1.5-0.13,3.03-0.66,4.58-1.58c1.56-0.92,3.06-2.24,4.52-3.94L449.64,42.61z"/>
	<path d="M462.67,30.67l0.96-7.79l2.11-0.71l-1.05,8.33l7.46-0.65l-0.22,1.9l-7.46,0.65l-1.66,13.49c-0.17,1.36-0.22,2.46-0.15,3.29
		c0.08,0.93,0.38,1.69,0.9,2.31c0.52,0.61,1.31,1.15,2.38,1.6l-0.02,0.29l-2.41,0.55c-0.87-0.37-1.53-0.92-2-1.63
		c-0.46-0.71-0.75-1.69-0.86-2.94c-0.07-0.83-0.02-1.93,0.15-3.29l1.66-13.49l-4.59,0.4l0.22-1.9L462.67,30.67z"/>
	<path d="M478.88,29.26l0.96-7.79l2.11-0.71l-1.05,8.33l7.46-0.65l-0.22,1.9l-7.46,0.65L479,44.47c-0.17,1.36-0.22,2.46-0.15,3.29
		c0.08,0.93,0.38,1.69,0.9,2.31c0.52,0.61,1.31,1.15,2.38,1.6l-0.02,0.29l-2.41,0.55c-0.87-0.37-1.53-0.92-2-1.63
		c-0.46-0.71-0.75-1.69-0.86-2.94c-0.07-0.83-0.02-1.93,0.15-3.29l1.66-13.49l-4.59,0.4l0.22-1.9L478.88,29.26z"/>
	<path d="M500.25,40.01c-0.62,0.22-1.31,0.43-2.06,0.64c-0.75,0.21-1.53,0.42-2.33,0.64s-1.6,0.41-2.41,0.6
		c-0.8,0.18-1.55,0.35-2.24,0.51l0.02,0.24c0.19,2.14,0.97,3.83,2.35,5.07c1.38,1.25,3.29,1.76,5.75,1.54
		c1.53-0.13,3.02-0.59,4.48-1.36c1.46-0.77,2.7-1.76,3.71-2.98l0.14-0.01l-0.41,3.07c-0.95,0.89-2.14,1.64-3.56,2.26
		c-1.42,0.62-2.84,1-4.24,1.12c-1.63,0.14-3.05,0.02-4.27-0.37c-1.22-0.39-2.25-0.97-3.09-1.75c-0.84-0.78-1.49-1.7-1.95-2.77
		c-0.46-1.07-0.75-2.22-0.86-3.47c-0.16-1.85,0.08-3.72,0.74-5.61c0.65-1.89,1.59-3.62,2.8-5.21c1.21-1.58,2.65-2.91,4.33-3.97
		c1.67-1.06,3.47-1.68,5.38-1.84c2.1-0.18,3.73,0.17,4.89,1.07c1.15,0.89,1.8,2.09,1.93,3.59c0.07,0.83-0.02,1.66-0.27,2.48
		c-0.25,0.83-0.72,1.62-1.4,2.39c-0.69,0.77-1.64,1.5-2.84,2.2C503.62,38.79,502.09,39.43,500.25,40.01z M502.7,28.33
		c-1.43,0.13-2.8,0.57-4.1,1.35c-1.3,0.77-2.46,1.73-3.48,2.88c-1.02,1.15-1.88,2.43-2.56,3.84c-0.68,1.41-1.1,2.81-1.27,4.21
		c0.57-0.11,1.23-0.27,1.98-0.46c0.75-0.19,1.55-0.41,2.4-0.64c0.85-0.23,1.71-0.49,2.58-0.78c0.87-0.29,1.7-0.57,2.48-0.87
		c2.33-0.85,4.03-1.85,5.08-3.02c1.05-1.17,1.53-2.36,1.42-3.57c-0.09-1.02-0.53-1.79-1.33-2.32
		C505.1,28.42,504.03,28.21,502.7,28.33z"/>
	<path d="M528.54,26.84c-1.94,0.17-3.65,0.6-5.11,1.29c-1.47,0.69-2.71,1.58-3.74,2.66c-0.24,0.25-0.43,0.5-0.58,0.77
		c-0.15,0.27-0.3,0.6-0.44,0.98c-0.14,0.38-0.26,0.83-0.36,1.36c-0.1,0.52-0.2,1.14-0.3,1.86l-1.63,13.3l-2.06,0.18l2.87-23.33
		l2.06-0.18l-0.48,3.85c1.2-1.29,2.45-2.29,3.74-3c1.29-0.71,2.67-1.24,4.15-1.59c0.66-0.15,1.39-0.27,2.19-0.34L528.54,26.84z"/>
	<path d="M534.06,24.43l2.06-0.18l-0.57,4.48c1.42-1.79,2.94-3.16,4.58-4.11c1.63-0.95,3.2-1.48,4.7-1.62
		c1.91-0.17,3.45,0.18,4.62,1.04c1.17,0.86,1.84,2.3,2.01,4.31c0.07,0.8,0.06,1.57-0.04,2.32l-1.92,15.49l-2.06,0.18l1.89-15.34
		c0.12-0.88,0.14-1.67,0.08-2.37c-0.12-1.34-0.59-2.31-1.41-2.91c-0.82-0.6-1.95-0.84-3.39-0.72c-0.73,0.06-1.47,0.22-2.2,0.48
		c-0.73,0.26-1.43,0.59-2.11,1c-0.67,0.41-1.3,0.89-1.9,1.42c-0.6,0.53-1.12,1.11-1.58,1.73c-0.58,0.76-1.02,1.49-1.32,2.21
		c-0.31,0.72-0.53,1.58-0.66,2.59l-1.6,13.15l-2.06,0.18L534.06,24.43z"/>
</g>
</svg>
