<?xml version="1.0" encoding="utf-8"?>
<!-- Generator: Adobe Illustrator 21.1.0, SVG Export Plug-In . SVG Version: 6.00 Build 0)  -->
<svg version="1.1" id="レイヤー_1" xmlns="http://www.w3.org/2000/svg" xmlns:xlink="http://www.w3.org/1999/xlink" x="0px"
	 y="0px" viewBox="0 0 500 500" enable-background="new 0 0 500 500" xml:space="preserve">
<g>
	<rect x="428.8" y="9.9" fill="#B21C34" width="71.2" height="10.2"/>
	<rect x="428.8" y="30.3" fill="#B21C34" width="71.2" height="10.2"/>
	<rect x="428.8" y="50.7" fill="#B21C34" width="71.2" height="10.2"/>
	<rect x="439" y="71.1" fill="#363E73" width="10.2" height="71.4"/>
	<rect x="459.4" y="71.1" fill="#363E73" width="10.2" height="71.4"/>
	<rect x="479.8" y="71.1" fill="#363E73" width="10.2" height="71.4"/>
	<rect x="428.8" y="152.7" fill="#B21C34" width="71.2" height="10.2"/>
	<rect x="428.8" y="173.1" fill="#B21C34" width="71.2" height="10.2"/>
	<rect x="428.8" y="193.5" fill="#B21C34" width="71.2" height="10.2"/>
	<rect x="439" y="213.9" fill="#363E73" width="10.2" height="71.4"/>
	<rect x="459.4" y="213.9" fill="#363E73" width="10.2" height="71.4"/>
	<rect x="479.8" y="213.9" fill="#363E73" width="10.2" height="71.4"/>
	<rect x="428.8" y="295.5" fill="#B21C34" width="71.2" height="10.2"/>
	<rect x="428.8" y="315.9" fill="#B21C34" width="71.2" height="10.2"/>
	<rect x="428.8" y="336.3" fill="#B21C34" width="71.2" height="10.2"/>
	<rect x="439" y="356.7" fill="#363E73" width="10.2" height="71.4"/>
	<rect x="459.4" y="356.7" fill="#363E73" width="10.2" height="71.4"/>
	<rect x="479.8" y="356.7" fill="#363E73" width="10.2" height="71.4"/>
	<rect x="428.8" y="438.3" fill="#B21C34" width="71.2" height="10.2"/>
	<rect x="428.8" y="458.7" fill="#B21C34" width="71.2" height="10.2"/>
	<rect x="428.8" y="479.1" fill="#B21C34" width="71.2" height="10.2"/>
	<rect x="439" y="499.5" fill="#363E73" width="10.2" height="0.5"/>
	<rect x="459.4" y="499.5" fill="#363E73" width="10.2" height="0.5"/>
	<rect x="479.8" y="499.5" fill="#363E73" width="10.2" height="0.5"/>
	<rect x="286" y="9.9" fill="#B21C34" width="71.4" height="10.2"/>
	<rect x="286" y="30.3" fill="#B21C34" width="71.4" height="10.2"/>
	<rect x="286" y="50.7" fill="#B21C34" width="71.4" height="10.2"/>
	<rect x="367.6" fill="#363E73" width="10.2" height="71.1"/>
	<rect x="388" fill="#363E73" width="10.2" height="71.1"/>
	<rect x="408.4" fill="#363E73" width="10.2" height="71.1"/>
	<rect x="357.4" y="81.3" fill="#B21C34" width="71.4" height="10.2"/>
	<rect x="357.4" y="101.7" fill="#B21C34" width="71.4" height="10.2"/>
	<rect x="357.4" y="122.1" fill="#B21C34" width="71.4" height="10.2"/>
	<rect x="296.2" y="71.1" fill="#363E73" width="10.2" height="71.4"/>
	<rect x="316.6" y="71.1" fill="#363E73" width="10.2" height="71.4"/>
	<rect x="337" y="71.1" fill="#363E73" width="10.2" height="71.4"/>
	<rect x="286" y="152.7" fill="#B21C34" width="71.4" height="10.2"/>
	<rect x="286" y="173.1" fill="#B21C34" width="71.4" height="10.2"/>
	<rect x="286" y="193.5" fill="#B21C34" width="71.4" height="10.2"/>
	<rect x="367.6" y="142.5" fill="#363E73" width="10.2" height="71.4"/>
	<rect x="388" y="142.5" fill="#363E73" width="10.2" height="71.4"/>
	<rect x="408.4" y="142.5" fill="#363E73" width="10.2" height="71.4"/>
	<rect x="357.4" y="224.1" fill="#B21C34" width="71.4" height="10.2"/>
	<rect x="357.4" y="244.5" fill="#B21C34" width="71.4" height="10.2"/>
	<rect x="357.4" y="264.9" fill="#B21C34" width="71.4" height="10.2"/>
	<rect x="296.2" y="213.9" fill="#363E73" width="10.2" height="71.4"/>
	<rect x="316.6" y="213.9" fill="#363E73" width="10.2" height="71.4"/>
	<rect x="337" y="213.9" fill="#363E73" width="10.2" height="71.4"/>
	<rect x="286" y="295.5" fill="#B21C34" width="71.4" height="10.2"/>
	<rect x="286" y="315.9" fill="#B21C34" width="71.4" height="10.2"/>
	<rect x="286" y="336.3" fill="#B21C34" width="71.4" height="10.2"/>
	<rect x="367.6" y="285.3" fill="#363E73" width="10.2" height="71.4"/>
	<rect x="388" y="285.3" fill="#363E73" width="10.2" height="71.4"/>
	<rect x="408.4" y="285.3" fill="#363E73" width="10.2" height="71.4"/>
	<rect x="357.4" y="366.9" fill="#B21C34" width="71.4" height="10.2"/>
	<rect x="357.4" y="387.3" fill="#B21C34" width="71.4" height="10.2"/>
	<rect x="357.4" y="407.7" fill="#B21C34" width="71.4" height="10.2"/>
	<rect x="296.2" y="356.7" fill="#363E73" width="10.2" height="71.4"/>
	<rect x="316.6" y="356.7" fill="#363E73" width="10.2" height="71.4"/>
	<rect x="337" y="356.7" fill="#363E73" width="10.2" height="71.4"/>
	<rect x="286" y="438.3" fill="#B21C34" width="71.4" height="10.2"/>
	<rect x="286" y="458.7" fill="#B21C34" width="71.4" height="10.2"/>
	<rect x="286" y="479.1" fill="#B21C34" width="71.4" height="10.2"/>
	<rect x="367.6" y="428.1" fill="#363E73" width="10.2" height="71.4"/>
	<rect x="388" y="428.1" fill="#363E73" width="10.2" height="71.4"/>
	<rect x="408.4" y="428.1" fill="#363E73" width="10.2" height="71.4"/>
	<rect x="296.2" y="499.5" fill="#363E73" width="10.2" height="0.5"/>
	<rect x="316.6" y="499.5" fill="#363E73" width="10.2" height="0.5"/>
	<rect x="337" y="499.5" fill="#363E73" width="10.2" height="0.5"/>
	<rect x="143.2" y="9.9" fill="#B21C34" width="71.4" height="10.2"/>
	<rect x="143.2" y="30.3" fill="#B21C34" width="71.4" height="10.2"/>
	<rect x="143.2" y="50.7" fill="#B21C34" width="71.4" height="10.2"/>
	<rect x="224.8" fill="#363E73" width="10.2" height="71.1"/>
	<rect x="245.2" fill="#363E73" width="10.2" height="71.1"/>
	<rect x="265.6" fill="#363E73" width="10.2" height="71.1"/>
	<rect x="214.6" y="81.3" fill="#B21C34" width="71.4" height="10.2"/>
	<rect x="214.6" y="101.7" fill="#B21C34" width="71.4" height="10.2"/>
	<rect x="214.6" y="122.1" fill="#B21C34" width="71.4" height="10.2"/>
	<rect x="153.4" y="71.1" fill="#363E73" width="10.2" height="71.4"/>
	<rect x="173.8" y="71.1" fill="#363E73" width="10.2" height="71.4"/>
	<rect x="194.2" y="71.1" fill="#363E73" width="10.2" height="71.4"/>
	<rect x="143.2" y="152.7" fill="#B21C34" width="71.4" height="10.2"/>
	<rect x="143.2" y="173.1" fill="#B21C34" width="71.4" height="10.2"/>
	<rect x="143.2" y="193.5" fill="#B21C34" width="71.4" height="10.2"/>
	<rect x="224.8" y="142.5" fill="#363E73" width="10.2" height="71.4"/>
	<rect x="245.2" y="142.5" fill="#363E73" width="10.2" height="71.4"/>
	<rect x="265.6" y="142.5" fill="#363E73" width="10.2" height="71.4"/>
	<rect x="214.6" y="224.1" fill="#B21C34" width="71.4" height="10.2"/>
	<rect x="214.6" y="244.5" fill="#B21C34" width="71.4" height="10.2"/>
	<rect x="214.6" y="264.9" fill="#B21C34" width="71.4" height="10.2"/>
	<rect x="153.4" y="213.9" fill="#363E73" width="10.2" height="71.4"/>
	<rect x="173.8" y="213.9" fill="#363E73" width="10.2" height="71.4"/>
	<rect x="194.2" y="213.9" fill="#363E73" width="10.2" height="71.4"/>
	<rect x="143.2" y="295.5" fill="#B21C34" width="71.4" height="10.2"/>
	<rect x="143.2" y="315.9" fill="#B21C34" width="71.4" height="10.2"/>
	<rect x="143.2" y="336.3" fill="#B21C34" width="71.4" height="10.2"/>
	<rect x="224.8" y="285.3" fill="#363E73" width="10.2" height="71.4"/>
	<rect x="245.2" y="285.3" fill="#363E73" width="10.2" height="71.4"/>
	<rect x="265.6" y="285.3" fill="#363E73" width="10.2" height="71.4"/>
	<rect x="214.6" y="366.9" fill="#B21C34" width="71.4" height="10.2"/>
	<rect x="214.6" y="387.3" fill="#B21C34" width="71.4" height="10.2"/>
	<rect x="214.6" y="407.7" fill="#B21C34" width="71.4" height="10.2"/>
	<rect x="153.4" y="356.7" fill="#363E73" width="10.2" height="71.4"/>
	<rect x="173.8" y="356.7" fill="#363E73" width="10.2" height="71.4"/>
	<rect x="194.2" y="356.7" fill="#363E73" width="10.2" height="71.4"/>
	<rect x="143.2" y="438.3" fill="#B21C34" width="71.4" height="10.2"/>
	<rect x="143.2" y="458.7" fill="#B21C34" width="71.4" height="10.2"/>
	<rect x="143.2" y="479.1" fill="#B21C34" width="71.4" height="10.2"/>
	<rect x="224.8" y="428.1" fill="#363E73" width="10.2" height="71.4"/>
	<rect x="245.2" y="428.1" fill="#363E73" width="10.2" height="71.4"/>
	<rect x="265.6" y="428.1" fill="#363E73" width="10.2" height="71.4"/>
	<rect x="153.4" y="499.5" fill="#363E73" width="10.2" height="0.5"/>
	<rect x="173.8" y="499.5" fill="#363E73" width="10.2" height="0.5"/>
	<rect x="194.2" y="499.5" fill="#363E73" width="10.2" height="0.5"/>
	<rect x="0.4" y="9.9" fill="#B21C34" width="71.4" height="10.2"/>
	<rect x="0.4" y="30.3" fill="#B21C34" width="71.4" height="10.2"/>
	<rect x="0.4" y="50.7" fill="#B21C34" width="71.4" height="10.2"/>
	<rect x="82" fill="#363E73" width="10.2" height="71.1"/>
	<rect x="102.4" fill="#363E73" width="10.2" height="71.1"/>
	<rect x="122.8" fill="#363E73" width="10.2" height="71.1"/>
	<rect x="71.8" y="81.3" fill="#B21C34" width="71.4" height="10.2"/>
	<rect x="71.8" y="101.7" fill="#B21C34" width="71.4" height="10.2"/>
	<rect x="71.8" y="122.1" fill="#B21C34" width="71.4" height="10.2"/>
	<rect x="10.6" y="71.1" fill="#363E73" width="10.2" height="71.4"/>
	<rect x="31" y="71.1" fill="#363E73" width="10.2" height="71.4"/>
	<rect x="51.4" y="71.1" fill="#363E73" width="10.2" height="71.4"/>
	<rect x="0.4" y="152.7" fill="#B21C34" width="71.4" height="10.2"/>
	<rect x="0.4" y="173.1" fill="#B21C34" width="71.4" height="10.2"/>
	<rect x="0.4" y="193.5" fill="#B21C34" width="71.4" height="10.2"/>
	<rect x="82" y="142.5" fill="#363E73" width="10.2" height="71.4"/>
	<rect x="102.4" y="142.5" fill="#363E73" width="10.2" height="71.4"/>
	<rect x="122.8" y="142.5" fill="#363E73" width="10.2" height="71.4"/>
	<rect x="71.8" y="224.1" fill="#B21C34" width="71.4" height="10.2"/>
	<rect x="71.8" y="244.5" fill="#B21C34" width="71.4" height="10.2"/>
	<rect x="71.8" y="264.9" fill="#B21C34" width="71.4" height="10.2"/>
	<rect x="10.6" y="213.9" fill="#363E73" width="10.2" height="71.4"/>
	<rect x="31" y="213.9" fill="#363E73" width="10.2" height="71.4"/>
	<rect x="51.4" y="213.9" fill="#363E73" width="10.2" height="71.4"/>
	<rect x="0.4" y="295.5" fill="#B21C34" width="71.4" height="10.2"/>
	<rect x="0.4" y="315.9" fill="#B21C34" width="71.4" height="10.2"/>
	<rect x="0.4" y="336.3" fill="#B21C34" width="71.4" height="10.2"/>
	<rect x="82" y="285.3" fill="#363E73" width="10.2" height="71.4"/>
	<rect x="102.4" y="285.3" fill="#363E73" width="10.2" height="71.4"/>
	<rect x="122.8" y="285.3" fill="#363E73" width="10.2" height="71.4"/>
	<rect x="71.8" y="366.9" fill="#B21C34" width="71.4" height="10.2"/>
	<rect x="71.8" y="387.3" fill="#B21C34" width="71.4" height="10.2"/>
	<rect x="71.8" y="407.7" fill="#B21C34" width="71.4" height="10.2"/>
	<rect x="10.6" y="356.7" fill="#363E73" width="10.2" height="71.4"/>
	<rect x="31" y="356.7" fill="#363E73" width="10.2" height="71.4"/>
	<rect x="51.4" y="356.7" fill="#363E73" width="10.2" height="71.4"/>
	<rect x="0.4" y="438.3" fill="#B21C34" width="71.4" height="10.2"/>
	<rect x="0.4" y="458.7" fill="#B21C34" width="71.4" height="10.2"/>
	<rect x="0.4" y="479.1" fill="#B21C34" width="71.4" height="10.2"/>
	<rect x="82" y="428.1" fill="#363E73" width="10.2" height="71.4"/>
	<rect x="102.4" y="428.1" fill="#363E73" width="10.2" height="71.4"/>
	<rect x="122.8" y="428.1" fill="#363E73" width="10.2" height="71.4"/>
	<rect x="10.6" y="499.5" fill="#363E73" width="10.2" height="0.5"/>
	<rect x="31" y="499.5" fill="#363E73" width="10.2" height="0.5"/>
	<rect x="51.4" y="499.5" fill="#363E73" width="10.2" height="0.5"/>
	<rect y="81.3" fill="#B21C34" width="0.4" height="10.2"/>
	<rect y="101.7" fill="#B21C34" width="0.4" height="10.2"/>
	<rect y="122.1" fill="#B21C34" width="0.4" height="10.2"/>
	<rect y="224.1" fill="#B21C34" width="0.4" height="10.2"/>
	<rect y="244.5" fill="#B21C34" width="0.4" height="10.2"/>
	<rect y="264.9" fill="#B21C34" width="0.4" height="10.2"/>
	<rect y="366.9" fill="#B21C34" width="0.4" height="10.2"/>
	<rect y="387.3" fill="#B21C34" width="0.4" height="10.2"/>
	<rect y="407.7" fill="#B21C34" width="0.4" height="10.2"/>
</g>
</svg>
