<?xml version="1.0" encoding="utf-8"?>
<!-- Generator: Adobe Illustrator 21.1.0, SVG Export Plug-In . SVG Version: 6.00 Build 0)  -->
<svg version="1.1" id="レイヤー_1" xmlns="http://www.w3.org/2000/svg" xmlns:xlink="http://www.w3.org/1999/xlink" x="0px"
	 y="0px" viewBox="0 0 500 500" enable-background="new 0 0 500 500" xml:space="preserve">
<g>
	<rect fill="#0000FF" width="500" height="12"/>
	<rect y="44.2" fill="#FF3E00" width="500" height="5.9"/>
	<rect y="72.3" fill="#FFBF00" width="500" height="5.9"/>
	<rect y="54.8" fill="#0000FF" width="500" height="12.1"/>
	<rect y="27.4" fill="#0000FF" width="500" height="12.1"/>
	<rect y="83.4" fill="#0000FF" width="500" height="12.1"/>
	<rect y="206.3" fill="#FF3E00" width="500" height="5.9"/>
	<rect y="178.2" fill="#FFBF00" width="500" height="5.9"/>
	<rect y="189.4" fill="#0000FF" width="500" height="12.1"/>
	<rect y="216.8" fill="#0000FF" width="500" height="12.1"/>
	<rect y="244.3" fill="#0000FF" width="500" height="12.1"/>
	<rect y="160.8" fill="#0000FF" width="500" height="12.1"/>
	<rect y="95.6" fill="#FFEF00" width="500" height="64.8"/>
	<rect y="288.5" fill="#FF3E00" width="500" height="5.9"/>
	<rect y="316.6" fill="#FFBF00" width="500" height="5.9"/>
	<rect y="299.2" fill="#0000FF" width="500" height="12.1"/>
	<rect y="271.7" fill="#0000FF" width="500" height="12.1"/>
	<rect y="327.8" fill="#0000FF" width="500" height="12.1"/>
	<rect y="450.6" fill="#FF3E00" width="500" height="5.9"/>
	<rect y="422.5" fill="#FFBF00" width="500" height="5.9"/>
	<rect y="433.7" fill="#0000FF" width="500" height="12.1"/>
	<rect y="461.2" fill="#0000FF" width="500" height="12.1"/>
	<rect y="488.6" fill="#0000FF" width="500" height="11.4"/>
	<rect y="405.1" fill="#0000FF" width="500" height="12.1"/>
	<rect y="340" fill="#FFEF00" width="500" height="64.8"/>
</g>
</svg>
