<?xml version="1.0" encoding="utf-8"?>
<!-- Generator: Adobe Illustrator 21.1.0, SVG Export Plug-In . SVG Version: 6.00 Build 0)  -->
<svg version="1.1" id="レイヤー_1" xmlns="http://www.w3.org/2000/svg" xmlns:xlink="http://www.w3.org/1999/xlink" x="0px"
	 y="0px" viewBox="0 0 500 500" style="enable-background:new 0 0 500 500;" xml:space="preserve">
<style type="text/css">
	.st0{fill:none;}
	.st1{fill:#D4A980;}
	.st2{fill:#F39D4C;}
	.st3{fill:#BE936A;}
	.st4{fill:#A67A51;}
	.st5{fill:#8B5B30;}
</style>
<g>
	<polygon class="st0" points="159.1,218.2 159.1,218.2 141,186.9 141,186.9 	"/>
	<polygon class="st0" points="339.8,343.4 339.8,343.4 357.8,312.1 357.8,312.1 	"/>
	<polygon class="st0" points="285.5,437.3 285.5,437.3 303.6,468.6 303.6,468.6 	"/>
	<polygon class="st0" points="68.7,61.7 68.7,61.7 50.6,93 50.6,93 	"/>
	<polygon class="st0" points="339.8,468.6 339.8,468.6 357.8,437.3 357.8,437.3 	"/>
	<polygon class="st0" points="50.6,468.6 50.6,468.6 68.7,437.3 68.7,437.3 	"/>
	<polygon class="st0" points="303.6,93 303.6,93 285.5,61.7 285.5,61.7 	"/>
	<polygon class="st0" points="213.3,61.7 213.3,61.7 195.2,93 195.2,93 	"/>
	<polygon class="st0" points="159.1,93 159.1,93 141,61.7 141,61.7 	"/>
	<polygon class="st0" points="195.2,468.6 195.2,468.6 213.3,437.3 213.3,437.3 	"/>
	<polygon class="st0" points="448.2,93 448.2,93 430.1,61.7 430.1,61.7 	"/>
	<polygon class="st0" points="141,437.3 141,437.3 159.1,468.6 159.1,468.6 	"/>
	<polygon class="st0" points="357.8,61.7 357.8,61.7 339.8,93 339.8,93 	"/>
	<polygon class="st0" points="195.2,343.4 195.2,343.4 213.3,312.1 213.3,312.1 	"/>
	<polygon class="st0" points="448.2,218.2 448.2,218.2 430.1,186.9 430.1,186.9 	"/>
	<polygon class="st0" points="213.3,186.9 213.3,186.9 195.2,218.2 195.2,218.2 	"/>
	<polygon class="st0" points="448.2,343.4 448.2,343.4 430.1,312.1 430.1,312.1 	"/>
	<polygon class="st0" points="50.6,343.4 50.6,343.4 68.7,312.1 68.7,312.1 	"/>
	<polygon class="st0" points="303.6,343.4 303.6,343.4 285.5,312.1 285.5,312.1 	"/>
	<polygon class="st0" points="50.6,218.2 50.6,218.2 68.7,186.9 68.7,186.9 	"/>
	<polygon class="st0" points="430.1,437.3 430.1,437.3 448.2,468.6 448.2,468.6 	"/>
	<polygon class="st0" points="159.1,343.4 159.1,343.4 141,312.1 141,312.1 	"/>
	<polygon class="st0" points="303.6,218.2 303.6,218.2 285.5,186.9 285.5,186.9 	"/>
	<polygon class="st0" points="357.8,186.9 357.8,186.9 339.8,218.2 339.8,218.2 	"/>
	<polygon class="st1" points="412,30.4 412,30.4 429.6,0 394.5,0 	"/>
	<polygon class="st1" points="394,61.7 430.1,61.7 412,30.4 	"/>
	<polygon class="st2" points="412,30.4 430.1,61.7 412,30.4 429.6,0 429.6,0 	"/>
	<line class="st0" x1="430.1" y1="61.7" x2="430.1" y2="61.7"/>
	<polygon class="st3" points="448.2,30.4 466.2,61.7 466.2,61.7 466.2,61.7 466.2,61.7 466.2,61.7 484.3,30.4 500,3.3 500,0 
		430.6,0 	"/>
	<polygon class="st4" points="412,30.4 430.1,61.7 430.1,61.7 430.1,61.7 448.2,93 466.2,61.7 466.2,61.7 448.2,30.4 430.6,0 
		429.6,0 	"/>
	<polygon class="st1" points="484.3,30.4 466.2,61.7 466.2,61.7 484.3,93 500,65.9 500,3.3 	"/>
	<polygon class="st1" points="394,124.3 412,155.6 412,155.6 430.1,124.3 448.2,93 430.1,61.7 412,93 	"/>
	<polygon class="st2" points="448.2,93 448.2,93 430.1,124.3 448.2,93 430.1,61.7 430.1,61.7 	"/>
	<polygon class="st5" points="466.2,61.7 466.2,61.7 466.2,61.7 448.2,93 484.3,93 	"/>
	<polygon class="st4" points="500,120.2 500,65.9 484.3,93 	"/>
	<polygon class="st1" points="394,186.9 430.1,186.9 412,155.6 	"/>
	<polygon class="st2" points="448.2,93 466.2,124.3 484.3,93 	"/>
	<polygon class="st2" points="412,155.6 430.1,186.9 412,155.6 430.1,124.3 	"/>
	<line class="st0" x1="430.1" y1="186.9" x2="430.1" y2="186.9"/>
	<polygon class="st4" points="430.1,124.3 466.2,124.3 448.2,93 	"/>
	<polygon class="st1" points="466.2,124.3 500,124.3 500,120.2 484.3,93 484.3,93 	"/>
	<polygon class="st3" points="466.2,124.3 430.1,124.3 448.2,155.6 466.2,186.9 466.2,186.9 466.2,186.9 466.2,186.9 466.2,186.9 
		484.3,155.6 500,128.5 500,124.3 	"/>
	<polygon class="st4" points="412,155.6 430.1,186.9 430.1,186.9 430.1,186.9 448.2,218.2 466.2,186.9 466.2,186.9 448.2,155.6 
		430.1,124.3 	"/>
	<polygon class="st1" points="484.3,155.6 466.2,186.9 466.2,186.9 484.3,218.2 500,191 500,128.5 	"/>
	<polygon class="st1" points="448.2,218.2 430.1,186.9 412,218.2 394,249.5 412,280.8 412,280.8 430.1,249.5 	"/>
	<polygon class="st2" points="430.1,186.9 430.1,186.9 448.2,218.2 448.2,218.2 430.1,249.5 448.2,218.2 	"/>
	<polygon class="st5" points="466.2,186.9 466.2,186.9 466.2,186.9 448.2,218.2 484.3,218.2 	"/>
	<polygon class="st4" points="500,245.4 500,191 484.3,218.2 	"/>
	<polygon class="st2" points="375.9,280.8 375.9,280.8 394,312.1 412,280.8 412,280.8 	"/>
	<polygon class="st1" points="394,312.1 430.1,312.1 412,280.8 	"/>
	<polygon class="st2" points="448.2,218.2 466.2,249.5 484.3,218.2 	"/>
	<polygon class="st2" points="412,280.8 430.1,312.1 412,280.8 430.1,249.5 	"/>
	<line class="st0" x1="430.1" y1="312.1" x2="430.1" y2="312.1"/>
	<polygon class="st4" points="430.1,249.5 466.2,249.5 448.2,218.2 	"/>
	<polygon class="st1" points="466.2,249.5 500,249.5 500,245.4 484.3,218.2 484.3,218.2 	"/>
	<polygon class="st3" points="466.2,249.5 430.1,249.5 448.2,280.8 466.2,312.1 466.2,312.1 466.2,312.1 466.2,312.1 466.2,312.1 
		484.3,280.8 500,253.6 500,249.5 	"/>
	<polygon class="st4" points="412,280.8 430.1,312.1 430.1,312.1 430.1,312.1 448.2,343.4 466.2,312.1 466.2,312.1 448.2,280.8 
		430.1,249.5 	"/>
	<polygon class="st1" points="484.3,280.8 466.2,312.1 466.2,312.1 484.3,343.4 500,316.2 500,253.6 	"/>
	<polygon class="st1" points="448.2,343.4 430.1,312.1 412,343.4 394,374.7 412,406 412,406 430.1,374.7 	"/>
	<polygon class="st2" points="430.1,312.1 430.1,312.1 448.2,343.4 448.2,343.4 430.1,374.7 448.2,343.4 	"/>
	<polygon class="st5" points="466.2,312.1 466.2,312.1 466.2,312.1 448.2,343.4 484.3,343.4 	"/>
	<polygon class="st4" points="500,370.6 500,316.2 484.3,343.4 	"/>
	<polygon class="st2" points="375.9,406 375.9,406 394,437.3 412,406 412,406 	"/>
	<polygon class="st1" points="412,406 394,437.3 430.1,437.3 	"/>
	<polygon class="st2" points="412,406 430.1,374.7 412,406 430.1,437.3 	"/>
	<polygon class="st2" points="448.2,343.4 466.2,374.7 484.3,343.4 	"/>
	<polygon class="st4" points="430.1,437.3 448.2,468.6 466.2,437.3 466.2,437.3 448.2,406 430.1,374.7 412,406 430.1,437.3 	"/>
	<line class="st0" x1="430.1" y1="437.3" x2="430.1" y2="437.3"/>
	<polygon class="st4" points="430.1,374.7 466.2,374.7 448.2,343.4 	"/>
	<polygon class="st1" points="466.2,374.7 500,374.7 500,370.6 484.3,343.4 484.3,343.4 	"/>
	<polygon class="st3" points="466.2,374.7 430.1,374.7 448.2,406 466.2,437.3 466.2,437.3 466.2,437.3 466.2,437.3 466.2,437.3 
		484.3,406 500,378.8 500,374.7 	"/>
	<polygon class="st1" points="484.3,406 466.2,437.3 466.2,437.3 484.3,468.6 500,441.4 500,378.8 	"/>
	<polygon class="st1" points="448.2,468.6 430.1,437.3 412,468.6 394,499.9 394,500 430,500 430.1,499.9 	"/>
	<polygon class="st5" points="394,499.9 393.9,500 394,500 	"/>
	<polygon class="st5" points="466.2,437.3 466.2,437.3 466.2,437.3 448.2,468.6 484.3,468.6 	"/>
	<polygon class="st4" points="500,495.8 500,441.4 484.3,468.6 	"/>
	<polygon class="st2" points="448.2,468.6 466.2,499.9 484.3,468.6 	"/>
	<polygon class="st2" points="448.2,468.6 430.1,437.3 430.1,437.3 448.2,468.6 448.2,468.6 430.1,499.9 	"/>
	<polygon class="st2" points="430,500 430,500 430.1,499.9 	"/>
	<polygon class="st4" points="448.2,468.6 430.1,499.9 466.2,499.9 	"/>
	<polygon class="st1" points="466.2,499.9 500,499.9 500,495.8 484.3,468.6 484.3,468.6 	"/>
	<polygon class="st3" points="500,500 500,499.9 466.2,499.9 430.1,499.9 430.2,500 	"/>
	<polygon class="st4" points="430,500 430.2,500 430.1,499.9 	"/>
	<polygon class="st1" points="267.5,30.4 267.5,30.4 285,0 249.9,0 	"/>
	<polygon class="st4" points="375.9,30.4 375.9,30.4 393.5,0 358.3,0 	"/>
	<polygon class="st5" points="375.9,30.4 412,30.4 394.5,0 393.5,0 	"/>
	<polygon class="st1" points="249.4,61.7 285.5,61.7 267.5,30.4 	"/>
	<polygon class="st2" points="267.5,30.4 285.5,61.7 267.5,30.4 285,0 285,0 	"/>
	<line class="st0" x1="357.8" y1="61.7" x2="357.8" y2="61.7"/>
	<line class="st0" x1="285.5" y1="61.7" x2="285.5" y2="61.7"/>
	<polygon class="st3" points="303.6,30.4 321.7,61.7 321.7,61.7 321.7,61.7 321.7,61.7 321.7,61.7 339.8,30.4 357.3,0 286,0 	"/>
	<polygon class="st4" points="267.5,30.4 285.5,61.7 285.5,61.7 285.5,61.7 303.6,93 321.7,61.7 321.7,61.7 303.6,30.4 286,0 285,0 
			"/>
	<polygon class="st1" points="339.8,30.4 321.7,61.7 321.7,61.7 339.8,93 357.8,61.7 357.8,61.7 375.9,30.4 358.3,0 357.3,0 	"/>
	<polygon class="st2" points="394,61.7 412,30.4 412,30.4 375.9,30.4 375.9,30.4 	"/>
	<polygon class="st4" points="375.9,30.4 357.8,61.7 394,61.7 	"/>
	<polygon class="st1" points="249.4,124.3 267.5,155.6 267.5,155.6 285.5,124.3 303.6,93 285.5,61.7 267.5,93 	"/>
	<polygon class="st2" points="303.6,93 303.6,93 285.5,124.3 303.6,93 285.5,61.7 285.5,61.7 	"/>
	<polygon class="st5" points="339.8,93 321.7,61.7 321.7,61.7 321.7,61.7 303.6,93 	"/>
	<polygon class="st3" points="394,124.3 394,124.3 394,124.3 412,93 430.1,61.7 394,61.7 357.8,61.7 375.9,93 	"/>
	<polygon class="st5" points="412,155.6 394,124.3 394,124.3 375.9,155.6 	"/>
	<polygon class="st4" points="339.8,93 357.8,124.3 375.9,155.6 375.9,155.6 394,124.3 394,124.3 375.9,93 357.8,61.7 	"/>
	<polygon class="st1" points="249.4,186.9 285.5,186.9 267.5,155.6 	"/>
	<polygon class="st2" points="285.5,186.9 267.5,155.6 285.5,124.3 267.5,155.6 	"/>
	<polygon class="st2" points="321.7,124.3 339.8,93 303.6,93 	"/>
	<line class="st0" x1="357.8" y1="186.9" x2="357.8" y2="186.9"/>
	<line class="st0" x1="285.5" y1="186.9" x2="285.5" y2="186.9"/>
	<polygon class="st4" points="285.5,124.3 321.7,124.3 303.6,93 	"/>
	<polygon class="st1" points="321.7,124.3 357.8,124.3 339.8,93 339.8,93 	"/>
	<polygon class="st3" points="303.6,155.6 321.7,186.9 321.7,186.9 321.7,186.9 321.7,186.9 321.7,186.9 339.8,155.6 357.8,124.3 
		321.7,124.3 285.5,124.3 	"/>
	<polygon class="st4" points="267.5,155.6 285.5,186.9 285.5,186.9 285.5,186.9 303.6,218.2 321.7,186.9 321.7,186.9 303.6,155.6 
		285.5,124.3 	"/>
	<polygon class="st1" points="339.8,155.6 321.7,186.9 321.7,186.9 339.8,218.2 357.8,186.9 357.8,186.9 375.9,155.6 357.8,124.3 	
		"/>
	<polygon class="st2" points="394,186.9 412,155.6 412,155.6 375.9,155.6 375.9,155.6 	"/>
	<polygon class="st4" points="357.8,186.9 394,186.9 375.9,155.6 	"/>
	<polygon class="st1" points="249.4,249.5 267.5,280.8 267.5,280.8 285.5,249.5 303.6,218.2 285.5,186.9 267.5,218.2 	"/>
	<polygon class="st2" points="303.6,218.2 303.6,218.2 285.5,249.5 303.6,218.2 285.5,186.9 285.5,186.9 	"/>
	<polygon class="st5" points="339.8,218.2 321.7,186.9 321.7,186.9 321.7,186.9 303.6,218.2 	"/>
	<polygon class="st5" points="375.9,280.8 412,280.8 394,249.5 394,249.5 	"/>
	<polygon class="st3" points="357.8,186.9 375.9,218.2 394,249.5 394,249.5 394,249.5 412,218.2 430.1,186.9 394,186.9 	"/>
	<polygon class="st4" points="339.8,218.2 357.8,249.5 375.9,280.8 375.9,280.8 394,249.5 394,249.5 375.9,218.2 357.8,186.9 	"/>
	<polygon class="st2" points="231.3,280.8 231.3,280.8 249.4,312.1 267.5,280.8 267.5,280.8 	"/>
	<polygon class="st1" points="267.5,280.8 249.4,312.1 285.5,312.1 	"/>
	<polygon class="st2" points="267.5,280.8 285.5,249.5 267.5,280.8 285.5,312.1 	"/>
	<polygon class="st2" points="321.7,249.5 339.8,218.2 303.6,218.2 	"/>
	<polygon class="st1" points="375.9,280.8 357.8,249.5 339.8,280.8 321.7,312.1 321.7,312.1 339.8,343.4 357.8,312.1 357.8,312.1 	
		"/>
	<line class="st0" x1="357.8" y1="312.1" x2="357.8" y2="312.1"/>
	<line class="st0" x1="285.5" y1="312.1" x2="285.5" y2="312.1"/>
	<polygon class="st4" points="285.5,249.5 321.7,249.5 303.6,218.2 	"/>
	<polygon class="st1" points="321.7,249.5 357.8,249.5 339.8,218.2 339.8,218.2 	"/>
	<polygon class="st3" points="321.7,249.5 285.5,249.5 303.6,280.8 321.7,312.1 321.7,312.1 321.7,312.1 321.7,312.1 321.7,312.1 
		339.8,280.8 357.8,249.5 	"/>
	<polygon class="st4" points="375.9,280.8 357.8,312.1 394,312.1 	"/>
	<polygon class="st1" points="303.6,343.4 285.5,312.1 267.5,343.4 249.4,374.7 267.5,406 267.5,406 285.5,374.7 	"/>
	<polygon class="st4" points="321.7,312.1 321.7,312.1 303.6,280.8 285.5,249.5 267.5,280.8 285.5,312.1 285.5,312.1 285.5,312.1 
		303.6,343.4 	"/>
	<polygon class="st5" points="321.7,312.1 321.7,312.1 321.7,312.1 303.6,343.4 339.8,343.4 	"/>
	<polygon class="st4" points="394,374.7 394,374.7 375.9,343.4 357.8,312.1 339.8,343.4 357.8,374.7 375.9,406 375.9,406 	"/>
	<polygon class="st5" points="375.9,406 412,406 394,374.7 394,374.7 	"/>
	<polygon class="st3" points="357.8,312.1 375.9,343.4 394,374.7 394,374.7 394,374.7 412,343.4 430.1,312.1 394,312.1 	"/>
	<polygon class="st2" points="231.3,406 231.3,406 249.4,437.3 267.5,406 267.5,406 	"/>
	<polygon class="st1" points="267.5,406 249.4,437.3 285.5,437.3 	"/>
	<polygon class="st2" points="267.5,406 285.5,374.7 267.5,406 285.5,437.3 	"/>
	<polygon class="st2" points="303.6,343.4 321.7,374.7 339.8,343.4 	"/>
	<polygon class="st2" points="303.6,343.4 285.5,312.1 285.5,312.1 303.6,343.4 303.6,343.4 285.5,374.7 	"/>
	<polygon class="st1" points="375.9,406 357.8,374.7 339.8,406 321.7,437.3 321.7,437.3 339.8,468.6 357.8,437.3 357.8,437.3 	"/>
	<polygon class="st4" points="285.5,437.3 303.6,468.6 321.7,437.3 321.7,437.3 303.6,406 285.5,374.7 267.5,406 285.5,437.3 	"/>
	<line class="st0" x1="357.8" y1="437.3" x2="357.8" y2="437.3"/>
	<line class="st0" x1="285.5" y1="437.3" x2="285.5" y2="437.3"/>
	<polygon class="st4" points="321.7,374.7 303.6,343.4 285.5,374.7 	"/>
	<polygon class="st1" points="339.8,343.4 339.8,343.4 321.7,374.7 357.8,374.7 	"/>
	<polygon class="st3" points="321.7,374.7 285.5,374.7 303.6,406 321.7,437.3 321.7,437.3 321.7,437.3 321.7,437.3 321.7,437.3 
		339.8,406 357.8,374.7 	"/>
	<polygon class="st4" points="375.9,406 357.8,437.3 394,437.3 	"/>
	<polygon class="st1" points="303.6,468.6 285.5,437.3 267.5,468.6 249.4,499.9 249.5,500 285.5,500 285.5,499.9 	"/>
	<polygon class="st5" points="249.4,499.9 249.3,500 249.5,500 	"/>
	<polygon class="st5" points="321.7,437.3 321.7,437.3 303.6,468.6 339.8,468.6 	"/>
	<polygon class="st4" points="394,499.9 394,499.9 375.9,468.6 357.8,437.3 339.8,468.6 357.8,499.9 357.9,500 393.9,500 	"/>
	<polygon class="st3" points="357.8,437.3 375.9,468.6 394,499.9 394,499.9 394,499.9 412,468.6 430.1,437.3 394,437.3 	"/>
	<polygon class="st2" points="339.8,468.6 303.6,468.6 321.7,499.9 	"/>
	<polygon class="st2" points="303.6,468.6 285.5,437.3 285.5,437.3 303.6,468.6 303.6,468.6 285.5,499.9 	"/>
	<polygon class="st2" points="285.5,500 285.5,500 285.5,499.9 	"/>
	<polygon class="st4" points="303.6,468.6 285.5,499.9 321.7,499.9 	"/>
	<polygon class="st1" points="321.7,499.9 357.8,499.9 339.8,468.6 339.8,468.6 	"/>
	<polygon class="st3" points="321.7,499.9 285.5,499.9 285.6,500 357.8,500 357.8,499.9 	"/>
	<polygon class="st4" points="285.5,500 285.6,500 285.5,499.9 	"/>
	<polygon class="st1" points="357.8,500 357.9,500 357.8,499.9 	"/>
	<polygon class="st1" points="122.9,30.4 122.9,30.4 140.5,0 105.3,0 	"/>
	<polygon class="st4" points="231.3,30.4 231.3,30.4 248.9,0 213.8,0 	"/>
	<polygon class="st5" points="231.3,30.4 267.5,30.4 249.9,0 248.9,0 	"/>
	<polygon class="st1" points="104.8,61.7 141,61.7 122.9,30.4 	"/>
	<polygon class="st2" points="122.9,30.4 141,61.7 122.9,30.4 140.5,0 140.5,0 	"/>
	<line class="st0" x1="213.3" y1="61.7" x2="213.3" y2="61.7"/>
	<line class="st0" x1="141" y1="61.7" x2="141" y2="61.7"/>
	<polygon class="st3" points="159.1,30.4 177.1,61.7 177.1,61.7 177.1,61.7 177.1,61.7 177.1,61.7 195.2,30.4 212.8,0 141.5,0 	"/>
	<polygon class="st4" points="122.9,30.4 141,61.7 141,61.7 141,61.7 159.1,93 177.1,61.7 177.1,61.7 159.1,30.4 141.5,0 140.5,0 	
		"/>
	<polygon class="st1" points="195.2,30.4 177.1,61.7 177.1,61.7 195.2,93 213.3,61.7 213.3,61.7 231.3,30.4 213.8,0 212.8,0 	"/>
	<polygon class="st2" points="249.4,61.7 267.5,30.4 267.5,30.4 231.3,30.4 231.3,30.4 	"/>
	<polygon class="st4" points="231.3,30.4 213.3,61.7 249.4,61.7 	"/>
	<polygon class="st1" points="104.8,124.3 122.9,155.6 122.9,155.6 141,124.3 159.1,93 141,61.7 122.9,93 	"/>
	<polygon class="st2" points="159.1,93 159.1,93 141,124.3 159.1,93 141,61.7 141,61.7 	"/>
	<polygon class="st5" points="195.2,93 177.1,61.7 177.1,61.7 177.1,61.7 159.1,93 	"/>
	<polygon class="st3" points="249.4,124.3 249.4,124.3 249.4,124.3 267.5,93 285.5,61.7 249.4,61.7 213.3,61.7 231.3,93 	"/>
	<polygon class="st5" points="267.5,155.6 249.4,124.3 249.4,124.3 231.3,155.6 	"/>
	<polygon class="st4" points="195.2,93 213.3,124.3 231.3,155.6 231.3,155.6 249.4,124.3 249.4,124.3 231.3,93 213.3,61.7 	"/>
	<polygon class="st1" points="104.8,186.9 141,186.9 122.9,155.6 	"/>
	<polygon class="st2" points="141,186.9 122.9,155.6 141,124.3 122.9,155.6 	"/>
	<polygon class="st2" points="177.1,124.3 195.2,93 159.1,93 	"/>
	<line class="st0" x1="213.3" y1="186.9" x2="213.3" y2="186.9"/>
	<line class="st0" x1="141" y1="186.9" x2="141" y2="186.9"/>
	<polygon class="st4" points="141,124.3 177.1,124.3 159.1,93 	"/>
	<polygon class="st1" points="177.1,124.3 213.3,124.3 195.2,93 195.2,93 	"/>
	<polygon class="st3" points="159.1,155.6 177.1,186.9 177.1,186.9 177.1,186.9 177.1,186.9 177.1,186.9 195.2,155.6 213.3,124.3 
		177.1,124.3 141,124.3 	"/>
	<polygon class="st4" points="122.9,155.6 141,186.9 141,186.9 141,186.9 159.1,218.2 177.1,186.9 177.1,186.9 159.1,155.6 
		141,124.3 	"/>
	<polygon class="st1" points="195.2,155.6 177.1,186.9 177.1,186.9 195.2,218.2 213.3,186.9 213.3,186.9 231.3,155.6 213.3,124.3 	
		"/>
	<polygon class="st2" points="249.4,186.9 267.5,155.6 267.5,155.6 231.3,155.6 231.3,155.6 	"/>
	<polygon class="st4" points="213.3,186.9 249.4,186.9 231.3,155.6 	"/>
	<polygon class="st1" points="141,249.5 159.1,218.2 141,186.9 122.9,218.2 104.8,249.5 122.9,280.8 122.9,280.8 	"/>
	<polygon class="st3" points="122.9,218.2 141,186.9 104.8,186.9 68.7,186.9 86.8,218.2 104.8,249.5 104.8,249.5 104.8,249.5 	"/>
	<polygon class="st2" points="159.1,218.2 159.1,218.2 141,249.5 159.1,218.2 141,186.9 141,186.9 	"/>
	<polygon class="st5" points="195.2,218.2 177.1,186.9 177.1,186.9 177.1,186.9 159.1,218.2 	"/>
	<polygon class="st3" points="249.4,249.5 249.4,249.5 249.4,249.5 267.5,218.2 285.5,186.9 249.4,186.9 213.3,186.9 231.3,218.2 	
		"/>
	<polygon class="st5" points="267.5,280.8 249.4,249.5 249.4,249.5 231.3,280.8 	"/>
	<polygon class="st4" points="195.2,218.2 213.3,249.5 231.3,280.8 231.3,280.8 249.4,249.5 249.4,249.5 231.3,218.2 213.3,186.9 	
		"/>
	<polygon class="st1" points="122.9,280.8 104.8,312.1 141,312.1 	"/>
	<polygon class="st2" points="122.9,280.8 141,249.5 122.9,280.8 141,312.1 	"/>
	<polygon class="st2" points="177.1,249.5 195.2,218.2 159.1,218.2 	"/>
	<polygon class="st1" points="231.3,280.8 213.3,249.5 195.2,280.8 177.1,312.1 177.1,312.1 195.2,343.4 213.3,312.1 213.3,312.1 	
		"/>
	<line class="st0" x1="213.3" y1="312.1" x2="213.3" y2="312.1"/>
	<line class="st0" x1="141" y1="312.1" x2="141" y2="312.1"/>
	<polygon class="st4" points="141,249.5 177.1,249.5 159.1,218.2 	"/>
	<polygon class="st1" points="177.1,249.5 213.3,249.5 195.2,218.2 195.2,218.2 	"/>
	<polygon class="st3" points="177.1,249.5 141,249.5 159.1,280.8 177.1,312.1 177.1,312.1 177.1,312.1 177.1,312.1 177.1,312.1 
		195.2,280.8 213.3,249.5 	"/>
	<polygon class="st4" points="231.3,280.8 213.3,312.1 249.4,312.1 	"/>
	<polygon class="st1" points="159.1,343.4 141,312.1 122.9,343.4 104.8,374.7 122.9,406 122.9,406 141,374.7 	"/>
	<polygon class="st3" points="122.9,343.4 141,312.1 104.8,312.1 68.7,312.1 86.8,343.4 104.8,374.7 104.8,374.7 104.8,374.7 	"/>
	<polygon class="st4" points="177.1,312.1 177.1,312.1 159.1,280.8 141,249.5 122.9,280.8 141,312.1 141,312.1 141,312.1 
		159.1,343.4 	"/>
	<polygon class="st5" points="177.1,312.1 177.1,312.1 177.1,312.1 159.1,343.4 195.2,343.4 	"/>
	<polygon class="st4" points="249.4,374.7 249.4,374.7 231.3,343.4 213.3,312.1 195.2,343.4 213.3,374.7 231.3,406 231.3,406 	"/>
	<polygon class="st5" points="231.3,406 267.5,406 249.4,374.7 249.4,374.7 	"/>
	<polygon class="st3" points="213.3,312.1 231.3,343.4 249.4,374.7 249.4,374.7 249.4,374.7 267.5,343.4 285.5,312.1 249.4,312.1 	
		"/>
	<polygon class="st2" points="86.8,406 86.8,406 104.8,437.3 122.9,406 122.9,406 	"/>
	<polygon class="st1" points="122.9,406 104.8,437.3 141,437.3 	"/>
	<polygon class="st2" points="122.9,406 141,374.7 122.9,406 141,437.3 	"/>
	<polygon class="st2" points="159.1,343.4 177.1,374.7 195.2,343.4 	"/>
	<polygon class="st2" points="159.1,343.4 141,312.1 141,312.1 159.1,343.4 159.1,343.4 141,374.7 	"/>
	<polygon class="st1" points="231.3,406 213.3,374.7 195.2,406 177.1,437.3 177.1,437.3 195.2,468.6 213.3,437.3 213.3,437.3 	"/>
	<polygon class="st4" points="141,437.3 159.1,468.6 177.1,437.3 177.1,437.3 159.1,406 141,374.7 122.9,406 141,437.3 	"/>
	<line class="st0" x1="213.3" y1="437.3" x2="213.3" y2="437.3"/>
	<line class="st0" x1="141" y1="437.3" x2="141" y2="437.3"/>
	<polygon class="st4" points="177.1,374.7 159.1,343.4 141,374.7 	"/>
	<polygon class="st1" points="195.2,343.4 195.2,343.4 177.1,374.7 213.3,374.7 	"/>
	<polygon class="st3" points="177.1,374.7 141,374.7 159.1,406 177.1,437.3 177.1,437.3 177.1,437.3 177.1,437.3 177.1,437.3 
		195.2,406 213.3,374.7 	"/>
	<polygon class="st4" points="231.3,406 213.3,437.3 249.4,437.3 	"/>
	<polygon class="st1" points="159.1,468.6 141,437.3 122.9,468.6 104.8,499.9 104.9,500 140.9,500 141,499.9 	"/>
	<polygon class="st5" points="104.8,499.9 104.8,500 104.9,500 	"/>
	<polygon class="st5" points="177.1,437.3 177.1,437.3 159.1,468.6 195.2,468.6 	"/>
	<polygon class="st4" points="249.4,499.9 249.4,499.9 231.3,468.6 213.3,437.3 195.2,468.6 213.3,499.9 213.3,500 249.3,500 	"/>
	<polygon class="st3" points="213.3,437.3 231.3,468.6 249.4,499.9 249.4,499.9 249.4,499.9 267.5,468.6 285.5,437.3 249.4,437.3 	
		"/>
	<polygon class="st2" points="195.2,468.6 159.1,468.6 177.1,499.9 	"/>
	<polygon class="st2" points="159.1,468.6 141,437.3 141,437.3 159.1,468.6 159.1,468.6 141,499.9 	"/>
	<polygon class="st2" points="140.9,500 140.9,500 141,499.9 	"/>
	<polygon class="st4" points="159.1,468.6 141,499.9 177.1,499.9 	"/>
	<polygon class="st1" points="177.1,499.9 213.3,499.9 195.2,468.6 195.2,468.6 	"/>
	<polygon class="st3" points="177.1,499.9 141,499.9 141,500 213.2,500 213.3,499.9 	"/>
	<polygon class="st4" points="140.9,500 141,500 141,499.9 	"/>
	<polygon class="st1" points="213.2,500 213.3,500 213.3,499.9 	"/>
	<polygon class="st4" points="86.8,30.4 86.8,30.4 104.3,0 69.2,0 	"/>
	<polygon class="st5" points="86.8,30.4 122.9,30.4 105.3,0 104.3,0 	"/>
	<line class="st0" x1="68.7" y1="61.7" x2="68.7" y2="61.7"/>
	<polygon class="st3" points="14.5,30.4 32.6,61.7 32.6,61.7 32.6,61.7 32.6,61.7 32.6,61.7 50.6,30.4 68.2,0 0,0 0,5.3 	"/>
	<polygon class="st1" points="50.6,30.4 32.6,61.7 32.6,61.7 50.6,93 68.7,61.7 68.7,61.7 86.8,30.4 69.2,0 68.2,0 	"/>
	<polygon class="st2" points="104.8,61.7 122.9,30.4 122.9,30.4 86.8,30.4 86.8,30.4 	"/>
	<polygon class="st4" points="86.8,30.4 68.7,61.7 104.8,61.7 	"/>
	<polygon class="st1" points="14.5,93 0,67.9 0,118.1 	"/>
	<polygon class="st4" points="14.5,93 32.6,61.7 32.6,61.7 14.5,30.4 0,5.3 0,67.9 	"/>
	<polygon class="st5" points="50.6,93 32.6,61.7 32.6,61.7 32.6,61.7 14.5,93 	"/>
	<polygon class="st3" points="104.8,124.3 104.8,124.3 104.8,124.3 122.9,93 141,61.7 104.8,61.7 68.7,61.7 86.8,93 	"/>
	<polygon class="st4" points="86.8,155.6 86.8,155.6 104.8,124.3 104.8,124.3 86.8,93 68.7,61.7 50.6,93 68.7,124.3 	"/>
	<polygon class="st5" points="122.9,155.6 104.8,124.3 104.8,124.3 86.8,155.6 	"/>
	<polygon class="st2" points="50.6,93 14.5,93 32.6,124.3 	"/>
	<polygon class="st2" points="14.5,93 0,67.9 0,67.9 14.5,93 14.5,93 0,118.1 0,118.1 	"/>
	<line class="st0" x1="68.7" y1="186.9" x2="68.7" y2="186.9"/>
	<polygon class="st4" points="32.6,124.3 14.5,93 0,118.1 0,124.3 	"/>
	<polygon class="st1" points="50.6,93 50.6,93 32.6,124.3 68.7,124.3 	"/>
	<polygon class="st3" points="14.5,155.6 32.6,186.9 32.6,186.9 32.6,186.9 32.6,186.9 32.6,186.9 50.6,155.6 68.7,124.3 
		32.6,124.3 0,124.3 0,130.5 	"/>
	<polygon class="st2" points="104.8,186.9 122.9,155.6 122.9,155.6 86.8,155.6 86.8,155.6 	"/>
	<polygon class="st4" points="86.8,155.6 68.7,186.9 104.8,186.9 	"/>
	<polygon class="st1" points="14.5,218.2 0,193.1 0,243.3 	"/>
	<polygon class="st1" points="50.6,218.2 68.7,186.9 68.7,186.9 86.8,155.6 68.7,124.3 50.6,155.6 32.6,186.9 32.6,186.9 	"/>
	<polygon class="st4" points="14.5,218.2 32.6,186.9 32.6,186.9 14.5,155.6 0,130.5 0,193.1 	"/>
	<polygon class="st5" points="50.6,218.2 32.6,186.9 32.6,186.9 32.6,186.9 14.5,218.2 	"/>
	<polygon class="st4" points="86.8,280.8 86.8,280.8 104.8,249.5 104.8,249.5 86.8,218.2 68.7,186.9 50.6,218.2 68.7,249.5 	"/>
	<polygon class="st5" points="122.9,280.8 104.8,249.5 104.8,249.5 86.8,280.8 	"/>
	<polygon class="st2" points="50.6,218.2 14.5,218.2 32.6,249.5 	"/>
	<polygon class="st2" points="14.5,218.2 0,193.1 0,193.1 14.5,218.2 14.5,218.2 0,243.3 0,243.3 	"/>
	<line class="st0" x1="68.7" y1="312.1" x2="68.7" y2="312.1"/>
	<polygon class="st4" points="32.6,249.5 14.5,218.2 0,243.3 0,249.5 	"/>
	<polygon class="st1" points="50.6,218.2 50.6,218.2 32.6,249.5 68.7,249.5 	"/>
	<polygon class="st3" points="14.5,280.8 32.6,312.1 32.6,312.1 32.6,312.1 32.6,312.1 32.6,312.1 50.6,280.8 68.7,249.5 
		32.6,249.5 0,249.5 0,255.7 	"/>
	<polygon class="st2" points="104.8,312.1 122.9,280.8 122.9,280.8 86.8,280.8 86.8,280.8 	"/>
	<polygon class="st4" points="86.8,280.8 68.7,312.1 104.8,312.1 	"/>
	<polygon class="st1" points="14.5,343.4 0,318.3 0,368.5 	"/>
	<polygon class="st1" points="50.6,343.4 68.7,312.1 68.7,312.1 86.8,280.8 68.7,249.5 50.6,280.8 32.6,312.1 32.6,312.1 	"/>
	<polygon class="st4" points="14.5,343.4 32.6,312.1 32.6,312.1 14.5,280.8 0,255.7 0,318.3 	"/>
	<polygon class="st5" points="50.6,343.4 32.6,312.1 32.6,312.1 32.6,312.1 14.5,343.4 	"/>
	<polygon class="st4" points="86.8,406 86.8,406 104.8,374.7 104.8,374.7 86.8,343.4 68.7,312.1 50.6,343.4 68.7,374.7 	"/>
	<polygon class="st5" points="122.9,406 104.8,374.7 104.8,374.7 86.8,406 	"/>
	<polygon class="st2" points="50.6,343.4 14.5,343.4 32.6,374.7 	"/>
	<polygon class="st2" points="14.5,343.4 0,318.3 0,318.3 14.5,343.4 14.5,343.4 0,368.5 0,368.5 	"/>
	<polygon class="st1" points="86.8,406 68.7,374.7 50.6,406 32.6,437.3 32.6,437.3 50.6,468.6 68.7,437.3 68.7,437.3 	"/>
	<line class="st0" x1="68.7" y1="437.3" x2="68.7" y2="437.3"/>
	<polygon class="st4" points="32.6,374.7 14.5,343.4 0,368.5 0,374.7 	"/>
	<polygon class="st1" points="50.6,343.4 50.6,343.4 32.6,374.7 68.7,374.7 	"/>
	<polygon class="st3" points="14.5,406 32.6,437.3 32.6,437.3 32.6,437.3 32.6,437.3 32.6,437.3 50.6,406 68.7,374.7 32.6,374.7 
		0,374.7 0,380.9 	"/>
	<polygon class="st4" points="86.8,406 68.7,437.3 104.8,437.3 	"/>
	<polygon class="st1" points="14.5,468.6 0,443.5 0,493.7 	"/>
	<polygon class="st4" points="14.5,468.6 32.6,437.3 32.6,437.3 14.5,406 0,380.9 0,443.5 	"/>
	<polygon class="st5" points="50.6,468.6 32.6,437.3 32.6,437.3 32.6,437.3 14.5,468.6 	"/>
	<polygon class="st4" points="104.8,499.9 104.8,499.9 86.8,468.6 68.7,437.3 50.6,468.6 68.7,499.9 68.8,500 104.8,500 	"/>
	<polygon class="st3" points="68.7,437.3 86.8,468.6 104.8,499.9 104.8,499.9 104.8,499.9 122.9,468.6 141,437.3 104.8,437.3 	"/>
	<polygon class="st2" points="50.6,468.6 14.5,468.6 32.6,499.9 	"/>
	<polygon class="st2" points="14.5,468.6 0,443.5 0,443.5 14.5,468.6 14.5,468.6 0,493.7 0,493.7 	"/>
	<polygon class="st4" points="14.5,468.6 0,493.7 0,499.9 32.6,499.9 	"/>
	<polygon class="st1" points="32.6,499.9 68.7,499.9 50.6,468.6 50.6,468.6 	"/>
	<polygon class="st3" points="32.6,499.9 0,499.9 0,500 68.6,500 68.7,499.9 	"/>
	<polygon class="st1" points="68.6,500 68.8,500 68.7,499.9 	"/>
</g>
</svg>
