<?xml version="1.0" encoding="utf-8"?>
<!-- Generator: Adobe Illustrator 21.1.0, SVG Export Plug-In . SVG Version: 6.00 Build 0)  -->
<svg version="1.1" id="レイヤー_1" xmlns="http://www.w3.org/2000/svg" xmlns:xlink="http://www.w3.org/1999/xlink" x="0px"
	 y="0px" viewBox="0 0 500 500" style="enable-background:new 0 0 500 500;" xml:space="preserve">
<style type="text/css">
	.st0{fill:#5FB494;}
</style>
<g>
	<rect x="464.2" class="st0" width="35.8" height="30.7"/>
	<polygon class="st0" points="459.3,30.7 459.3,0 420,0 431.1,30.7 	"/>
	<rect x="309.7" class="st0" width="88.7" height="30.7"/>
	<polygon class="st0" points="265.4,0 276.5,30.7 304.8,30.7 304.8,0 	"/>
	<rect x="464.2" y="224" class="st0" width="35.8" height="53.6"/>
	<polygon class="st0" points="431.1,277.6 459.3,277.6 459.3,224 411.8,224 	"/>
	<rect x="464.2" y="100.5" class="st0" width="35.8" height="53.6"/>
	<polygon class="st0" points="459.3,154.2 459.3,100.5 411.8,100.5 431.1,154.2 	"/>
	<rect x="411.8" y="38.1" class="st0" width="88.2" height="53.6"/>
	<rect x="309.7" y="224" class="st0" width="88.7" height="53.6"/>
	<polygon class="st0" points="257.2,224 276.5,277.6 304.8,277.6 304.8,224 257.2,224 	"/>
	<rect x="257.2" y="161.6" class="st0" width="88.7" height="53.6"/>
	<polygon class="st0" points="350.8,215.2 398.4,215.2 379,161.6 350.8,161.6 	"/>
	<rect x="309.7" y="100.5" class="st0" width="88.7" height="53.6"/>
	<polygon class="st0" points="304.8,154.2 304.8,100.5 257.2,100.5 257.2,100.5 276.5,154.2 	"/>
	<path class="st0" d="M500,218.4V160h-83.5v53.6h16.3c1.5,4.4,5.7,7.6,10.6,7.6c4.9,0,9.1-3.2,10.6-7.6h42.7
		C497.4,215.5,498.5,217.2,500,218.4z"/>
	<path class="st0" d="M263.2,38.1v53.6h16.3c1.5,4.4,5.7,7.6,10.6,7.6c4.9,0,9.1-3.2,10.6-7.6h42.7c1.5,4.4,5.7,7.6,10.6,7.6
		c6.2,0,11.2-5,11.2-11.2h36.4l-19.3-42.5H354v31.3c-0.7,0-1.4,0.1-2.1,0.2v-39H263.2z"/>
	<rect x="464.2" y="470.9" class="st0" width="35.8" height="29.1"/>
	<polygon class="st0" points="411.8,470.9 422.3,500 459.3,500 459.3,470.9 	"/>
	<rect x="464.2" y="347.5" class="st0" width="35.8" height="53.6"/>
	<polygon class="st0" points="459.3,401.1 459.3,347.5 411.8,347.5 431.1,401.1 	"/>
	<rect x="411.8" y="285" class="st0" width="88.2" height="53.6"/>
	<rect x="309.7" y="470.9" class="st0" width="88.7" height="29.1"/>
	<polygon class="st0" points="257.2,470.9 257.2,470.9 267.7,500 304.8,500 304.8,470.9 	"/>
	<rect x="257.2" y="408.5" class="st0" width="88.7" height="53.6"/>
	<polygon class="st0" points="350.8,462.1 398.4,462.1 379,408.5 350.8,408.5 	"/>
	<rect x="309.7" y="347.5" class="st0" width="88.7" height="53.6"/>
	<polygon class="st0" points="304.8,401.1 304.8,347.5 257.2,347.5 257.2,347.5 276.5,401.1 	"/>
	<path class="st0" d="M443.5,468.2c4.9,0,9.1-3.2,10.6-7.6h42.7c0.6,1.9,1.8,3.5,3.2,4.8V407h-83.5v53.6h16.3
		C434.4,465,438.5,468.2,443.5,468.2z"/>
	<path class="st0" d="M382.2,292.5H354v31.3c-0.7,0-1.4,0.1-2.1,0.2v-39h-88.7v53.6h16.3c1.5,4.4,5.7,7.6,10.6,7.6
		c4.9,0,9.1-3.2,10.6-7.6h42.7c1.5,4.4,5.7,7.6,10.6,7.6c6.2,0,11.2-5,11.2-11.2h36.4L382.2,292.5z"/>
	<rect x="155.1" class="st0" width="88.7" height="30.7"/>
	<polygon class="st0" points="150.2,30.7 150.2,0 110.9,0 121.9,30.7 	"/>
	<rect x="0.5" class="st0" width="88.7" height="30.7"/>
	<rect x="155.1" y="224" class="st0" width="88.7" height="53.6"/>
	<polygon class="st0" points="150.2,277.6 150.2,224 102.6,224 121.9,277.6 	"/>
	<rect x="155.1" y="100.5" class="st0" width="88.7" height="53.6"/>
	<polygon class="st0" points="150.2,154.2 150.2,100.5 102.6,100.5 121.9,154.2 	"/>
	<rect x="102.6" y="38.1" class="st0" width="88.7" height="53.6"/>
	<polygon class="st0" points="224.5,38.1 196.2,38.1 196.2,91.7 243.8,91.7 	"/>
	<rect x="0.5" y="224" class="st0" width="88.7" height="53.6"/>
	<rect y="161.6" class="st0" width="36.7" height="53.6"/>
	<polygon class="st0" points="41.6,215.2 89.2,215.2 69.9,161.6 41.6,161.6 	"/>
	<rect x="0.5" y="100.5" class="st0" width="88.7" height="53.6"/>
	<path class="st0" d="M198.2,221.2c6.2,0,11.2-5,11.2-11.2h36.4l-19.3-42.5h-28.2v31.3c0,0,0,0,0,0c-0.7,0-1.4,0.1-2.1,0.2v-39
		h-88.7v53.6h16.3c1.5,4.4,5.7,7.6,10.6,7.6c4.9,0,9.1-3.2,10.6-7.6h42.7C189.1,218.1,193.3,221.2,198.2,221.2z"/>
	<path class="st0" d="M73.1,45.6H44.8v31.3c-0.7,0-1.4,0.1-2.1,0.2v-39H0v53.6h34.2c1.5,4.4,5.7,7.6,10.6,7.6
		c6.2,0,11.2-5,11.2-11.2h36.4L73.1,45.6z"/>
	<rect x="155.1" y="470.9" class="st0" width="88.7" height="29.1"/>
	<polygon class="st0" points="102.6,470.9 113.1,500 150.2,500 150.2,470.9 	"/>
	<rect x="155.1" y="347.5" class="st0" width="88.7" height="53.6"/>
	<polygon class="st0" points="150.2,401.1 150.2,347.5 102.6,347.5 121.9,401.1 	"/>
	<rect x="102.6" y="285" class="st0" width="88.7" height="53.6"/>
	<polygon class="st0" points="224.5,285 196.2,285 196.2,338.7 243.8,338.7 	"/>
	<rect x="0.5" y="470.9" class="st0" width="88.7" height="29.1"/>
	<rect y="408.5" class="st0" width="36.7" height="53.6"/>
	<polygon class="st0" points="41.6,462.1 89.2,462.1 69.9,408.5 41.6,408.5 	"/>
	<rect x="0.5" y="347.5" class="st0" width="88.7" height="53.6"/>
	<path class="st0" d="M134.3,468.2c4.9,0,9.1-3.2,10.6-7.6h42.7c1.5,4.4,5.7,7.6,10.6,7.6c6.2,0,11.2-5,11.2-11.2h36.4l-19.3-42.5
		h-28.2v31.3c0,0,0,0,0,0c-0.7,0-1.4,0.1-2.1,0.2v-39h-88.7v53.6h16.3C125.2,465,129.4,468.2,134.3,468.2z"/>
	<path class="st0" d="M73.1,292.5H44.8v31.3c-0.7,0-1.4,0.1-2.1,0.2v-39H0v53.6h34.2c1.5,4.4,5.7,7.6,10.6,7.6
		c6.2,0,11.2-5,11.2-11.2h36.4L73.1,292.5z"/>
</g>
</svg>
