<?xml version="1.0" encoding="utf-8"?>
<!-- Generator: Adobe Illustrator 21.1.0, SVG Export Plug-In . SVG Version: 6.00 Build 0)  -->
<svg version="1.1" id="レイヤー_1" xmlns="http://www.w3.org/2000/svg" xmlns:xlink="http://www.w3.org/1999/xlink" x="0px"
	 y="0px" viewBox="0 0 500 500" style="enable-background:new 0 0 500 500;" xml:space="preserve">
<style type="text/css">
	.st0{fill:#EC80A4;}
	.st1{fill:#FFFBD8;}
</style>
<g>
	<polygon class="st0" points="487.9,7.5 487.9,7.5 494.4,7.5 494.4,0 487.9,0 487.9,7.5 	"/>
	<path class="st1" d="M500,142.1v-0.2c0,0-0.1,0.1-0.1,0.1C499.9,142,500,142.1,500,142.1z"/>
	<path class="st1" d="M498.1,115.5c-1.8,0-3.6,0.2-5.3,0.5c-1.1-5-4.4-21.2-4.4-31.2c0-6.4-0.8-10.8-2.3-13.4
		c-0.5-0.8-1.1-1.5-1.8-1.9c-0.5-0.3-1.1-0.5-1.7-0.6c-1-0.1-2.2,0.2-3.5,0.8c-0.6,0.3-1.1,0.6-1.6,1v0c-6.7,4.6-8.5,14.5-8.1,18.2
		c0,0.2,0,0.4,0.1,0.7c0.2,2.1,0.6,6.3,2.3,11.1c0.2,0.7,0.5,1.4,0.8,2.1c0.3,0.8,0.7,1.6,1,2.3c1.1,2.2,2.4,4.3,3.9,6.3v0
		c2,2.7,4.4,5,7.1,7.1c-1.2,0.6-2.3,1.3-3.4,2c-1.3,0.9-2.5,1.9-3.7,2.9v0c-0.3,0.3-0.6,0.5-0.9,0.8c-1.4,1.4-2.6,2.9-3.7,4.5
		c-0.7,1.1-1.3,2.2-1.9,3.4c-0.6,1.2-1,2.4-1.4,3.7c-0.4,1.3-0.7,2.5-0.9,3.9c-0.2,1.3-0.3,2.7-0.3,4c0,3.1,0.5,6.1,1.5,8.9
		c0.3,0.9,0.7,1.8,1.1,2.7c-1.9,0.1-3.7,0.8-5.1,2c-1.5,1.3-2.3,3.1-2.3,5.1c0,2.2,1,4.3,2.8,5.9c1.8,1.7,4.2,2.5,6.6,2.5
		c1.6,0,3.1-0.4,4.5-1.2c0.5,0.9,1.1,1.7,1.9,2.4c0.2,0.2,0.5,0.4,0.7,0.6c1.7,1.3,3.8,1.9,5.9,1.9c1.7,0,3.4-0.5,4.8-1.4
		c1.2,1.4,3,2.5,5.2,3c0.7,0.1,1.4,0.2,2.2,0.2c0.7,0,1.3-0.1,1.9-0.2v-25.5c-0.9-1.2-2-2.4-3.3-3.6c-1.4-1.3-2.1-1.9-2.3-1.9V159
		h-6.5h0h0v-26.8l6.5,0v7.1c1,0,2.1-0.9,3.3-2.7c0.2-0.3,0.3-0.5,0.5-0.8c0.4-0.8,1-1.9,1.7-3.6h0h0h0.1v-16.6
		C499.4,115.5,498.7,115.5,498.1,115.5z"/>
	<path class="st0" d="M499.9,132.1L499.9,132.1c-0.7,1.6-1.3,2.8-1.7,3.6c-0.2,0.3-0.3,0.6-0.5,0.8c-1.2,1.8-2.3,2.7-3.3,2.7v-7.1
		l-6.5,0V159h0h0h6.5v-13.7c0.2,0,1,0.6,2.3,1.9c1.3,1.2,2.4,2.4,3.3,3.6v-8.7c0,0-0.1-0.1-0.1-0.1c0,0,0.1-0.1,0.1-0.1v-9.8H499.9
		L499.9,132.1z"/>
	<path class="st1" d="M498.1,266.9c-1.8,0-3.6,0.2-5.3,0.5c-1.1-5-4.4-21.2-4.4-31.2c0-6.4-0.8-10.8-2.3-13.4
		c-0.5-0.8-1.1-1.5-1.8-1.9c-0.5-0.3-1.1-0.5-1.7-0.6c-0.8-0.1-1.7,0.1-2.7,0.5c-0.2,0.1-0.5,0.2-0.7,0.3c-0.6,0.3-1.1,0.6-1.6,1v0
		c-0.8,0.6-1.6,1.2-2.3,1.9c-4.8,5-6.2,13.1-5.8,16.3c0,0.2,0,0.4,0.1,0.7c0.2,2.1,0.6,6.3,2.3,11.1c0.2,0.7,0.5,1.4,0.8,2.1
		c0.3,0.8,0.7,1.6,1,2.3c1.1,2.2,2.4,4.3,3.9,6.3v0c2,2.7,4.4,5,7.1,7.1c-2.6,1.3-5,3-7.1,4.9v0c-5.5,5.2-9,12.4-9,20.3
		c0,3.1,0.5,6.1,1.5,8.9c0.3,0.9,0.7,1.8,1.1,2.7c-1.9,0.1-3.7,0.8-5.1,2c-1.5,1.3-2.3,3.1-2.3,5.1c0,2.2,1,4.3,2.8,5.9
		c1.8,1.7,4.2,2.5,6.6,2.5c1.6,0,3.1-0.4,4.5-1.2c0.5,0.9,1.1,1.7,1.9,2.4c1.8,1.7,4.2,2.5,6.6,2.5c1.7,0,3.4-0.5,4.8-1.4
		c1.6,1.9,4.3,3.2,7.4,3.2c0.7,0,1.3-0.1,1.9-0.2v-25.5c-0.9-1.2-2-2.4-3.3-3.6c-1.4-1.3-2.1-1.9-2.3-1.9v13.7h-6.5h0h0v-26.8l6.5,0
		v7.1c0.7,0,1.5-0.5,2.3-1.4c0.3-0.4,0.6-0.8,1-1.3c0.2-0.3,0.3-0.5,0.5-0.8c0.4-0.8,1-1.9,1.7-3.6h0h0h0.1V267
		C499.4,266.9,498.7,266.9,498.1,266.9z"/>
	<path class="st1" d="M500,293.6v-0.2c0,0-0.1,0.1-0.1,0.1C499.9,293.5,500,293.5,500,293.6z"/>
	<path class="st0" d="M499.9,283.6L499.9,283.6c-0.7,1.6-1.3,2.8-1.7,3.6c-0.2,0.3-0.3,0.6-0.5,0.8c-0.3,0.5-0.7,1-1,1.3
		c-0.8,0.9-1.6,1.4-2.3,1.4v-7.1l-6.5,0v26.8h0h0h6.5v-13.7c0.2,0,1,0.6,2.3,1.9c1.3,1.2,2.4,2.4,3.3,3.6v-8.7c0,0-0.1-0.1-0.1-0.1
		c0,0,0.1-0.1,0.1-0.1v-9.8H499.9L499.9,283.6z"/>
	<path class="st1" d="M500,445v-0.2c0,0-0.1,0.1-0.1,0.1C499.9,444.9,500,445,500,445z"/>
	<path class="st1" d="M498.1,418.4c-1.8,0-3.6,0.2-5.3,0.5c-1.1-5-4.4-21.2-4.4-31.2c0-3.7-0.3-6.8-0.8-9.2
		c-0.1-0.7-0.3-1.3-0.5-1.9c-0.3-0.9-0.6-1.6-1-2.3c-0.5-0.8-1.1-1.5-1.8-1.9c-0.4-0.2-0.7-0.4-1.1-0.5c-0.2,0-0.4-0.1-0.6-0.1
		c-0.8-0.1-1.7,0.1-2.7,0.5c-0.2,0.1-0.5,0.2-0.7,0.3c-0.6,0.3-1.1,0.6-1.6,1v0c-6.7,4.6-8.5,14.5-8.1,18.2c0,0.2,0,0.4,0.1,0.7
		c0.2,2.1,0.6,6.3,2.3,11.1c0.2,0.7,0.5,1.4,0.8,2.1c0.3,0.8,0.7,1.6,1,2.3c1.1,2.2,2.4,4.3,3.9,6.3v0c2,2.7,4.4,5,7.1,7.1
		c-2.6,1.3-5,3-7.1,4.9v0c-5.5,5.2-9,12.4-9,20.3c0,1,0.1,2.1,0.2,3.1c0.2,1.5,0.5,3,0.9,4.4c0.1,0.5,0.3,0.9,0.4,1.4
		c0.2,0.5,0.3,0.9,0.5,1.4c0.2,0.5,0.4,0.9,0.6,1.3c-1.9,0.1-3.7,0.8-5.1,2c-1.1,1-1.9,2.3-2.2,3.7c-0.1,0.5-0.2,0.9-0.2,1.4
		c0,2.2,1,4.3,2.8,5.9c1.8,1.7,4.2,2.5,6.6,2.5c1.6,0,3.1-0.4,4.5-1.2c0.5,0.9,1.1,1.7,1.9,2.4c1.8,1.7,4.2,2.5,6.6,2.5
		c1.7,0,3.4-0.5,4.8-1.4c1.6,1.9,4.3,3.2,7.4,3.2c0.7,0,1.3-0.1,1.9-0.2v-25.5c-0.9-1.2-2-2.4-3.3-3.6c-1.4-1.3-2.1-1.9-2.3-1.9
		v13.7h-6.5h0h0v-26.8l6.5,0v0v7.1c1,0,2.1-0.9,3.3-2.7c0.2-0.3,0.3-0.5,0.5-0.8c0.2-0.4,0.5-0.9,0.7-1.5c0.1-0.3,0.3-0.6,0.4-1
		s0.3-0.7,0.5-1.1h0h0h0.1v-16.6C499.4,418.4,498.7,418.4,498.1,418.4z"/>
	<path class="st0" d="M499.9,435L499.9,435c-0.2,0.4-0.3,0.8-0.5,1.1s-0.3,0.7-0.4,1c-0.3,0.6-0.5,1.1-0.7,1.5
		c-0.2,0.3-0.3,0.6-0.5,0.8c-1.2,1.8-2.3,2.7-3.3,2.7V435v0l-6.5,0v26.8h0h0h6.5v-13.7c0.2,0,1,0.6,2.3,1.9c1.3,1.2,2.4,2.4,3.3,3.6
		V445c0,0-0.1-0.1-0.1-0.1c0,0,0.1-0.1,0.1-0.1V435H499.9L499.9,435z"/>
	<path class="st0" d="M500,500v-20.8c-0.6,0.1-1.3,0.2-1.9,0.2c-3,0-5.7-1.3-7.4-3.2c-1.4,0.9-3.1,1.4-4.8,1.4
		c-2.3,0-4.7-0.8-6.6-2.5c-0.8-0.7-1.4-1.5-1.9-2.4c-1.3,0.8-2.9,1.2-4.5,1.2c-2.3,0-4.7-0.8-6.6-2.5c-1.8-1.6-2.8-3.8-2.8-5.9
		c0-0.5,0.1-1,0.2-1.4c0.3-1.4,1-2.7,2.2-3.7c1.4-1.3,3.2-1.9,5.1-2c-0.2-0.4-0.4-0.9-0.6-1.3c-0.2-0.5-0.4-0.9-0.5-1.4
		c-0.2-0.5-0.3-0.9-0.4-1.4c-0.4-1.4-0.7-2.9-0.9-4.4c-0.1-1-0.2-2-0.2-3.1c0-8,3.5-15.2,9-20.3v0c2.1-2,4.5-3.6,7.1-4.9
		c-2.7-2.1-5.1-4.5-7.1-7.1v0c-1.5-2-2.8-4-3.9-6.3c-0.4-0.8-0.7-1.5-1-2.3c-0.3-0.7-0.6-1.4-0.8-2.1c-1.7-4.9-2.1-9-2.3-11.1
		c0-0.3,0-0.5-0.1-0.7c-0.4-3.7,1.4-13.6,8.1-18.2v0c0.5-0.4,1.1-0.7,1.6-1c0.3-0.1,0.5-0.2,0.7-0.3c1-0.4,1.9-0.5,2.7-0.5
		c0.2,0,0.4,0.1,0.6,0.1c0.4,0.1,0.8,0.3,1.1,0.5c0.7,0.4,1.3,1,1.8,1.9c0.4,0.6,0.7,1.4,1,2.3c0.2,0.6,0.4,1.2,0.5,1.9
		c0.5,2.4,0.8,5.5,0.8,9.2c0,10,3.3,26.2,4.4,31.2c1.7-0.3,3.5-0.5,5.3-0.5c0.6,0,1.3,0,1.9,0.1v-90.7c-0.6,0.1-1.3,0.2-1.9,0.2
		c-3,0-5.7-1.3-7.4-3.2c-1.4,0.9-3.1,1.4-4.8,1.4c-2.3,0-4.7-0.8-6.6-2.5c-0.8-0.7-1.4-1.5-1.9-2.4c-1.3,0.8-2.9,1.2-4.5,1.2
		c-2.3,0-4.7-0.8-6.6-2.5c-1.8-1.6-2.8-3.8-2.8-5.9c0-2,0.8-3.8,2.3-5.1c1.4-1.3,3.2-1.9,5.1-2c-0.4-0.9-0.8-1.8-1.1-2.7
		c-1-2.8-1.5-5.8-1.5-8.9c0-8,3.5-15.2,9-20.3v0c2.1-2,4.5-3.6,7.1-4.9c-2.7-2.1-5.1-4.5-7.1-7.1v0c-1.5-2-2.8-4-3.9-6.3
		c-0.4-0.8-0.7-1.5-1-2.3c-0.3-0.7-0.6-1.4-0.8-2.1c-1.7-4.9-2.1-9-2.3-11.1c0-0.3,0-0.5-0.1-0.7c-0.4-3.3,1-11.3,5.8-16.3
		c0.7-0.7,1.4-1.4,2.3-1.9v0c0.5-0.4,1.1-0.7,1.6-1c0.3-0.1,0.5-0.2,0.7-0.3c1-0.4,1.9-0.5,2.7-0.5c0.6,0.1,1.2,0.3,1.7,0.6
		c0.7,0.4,1.3,1,1.8,1.9c1.5,2.5,2.3,7,2.3,13.4c0,10,3.3,26.2,4.4,31.2c1.7-0.3,3.5-0.5,5.3-0.5c0.6,0,1.3,0,1.9,0.1v-90.7
		c-0.6,0.1-1.3,0.2-1.9,0.2c-0.8,0-1.5-0.1-2.2-0.2c-2.1-0.4-3.9-1.5-5.2-3c-1.4,0.9-3.1,1.4-4.8,1.4c-2,0-4.1-0.6-5.9-1.9
		c-0.2-0.2-0.5-0.4-0.7-0.6c-0.8-0.7-1.4-1.5-1.9-2.4c-1.3,0.8-2.9,1.2-4.5,1.2c-2.3,0-4.7-0.8-6.6-2.5c-1.8-1.6-2.8-3.8-2.8-5.9
		c0-2,0.8-3.8,2.3-5.1c1.4-1.3,3.2-1.9,5.1-2c-0.4-0.9-0.8-1.8-1.1-2.7c-1-2.8-1.5-5.8-1.5-8.9c0-1.4,0.1-2.7,0.3-4
		c0.2-1.3,0.5-2.6,0.9-3.9c0.4-1.3,0.9-2.5,1.4-3.7c0.6-1.2,1.2-2.3,1.9-3.4c1.1-1.6,2.3-3.2,3.7-4.5c0.3-0.3,0.6-0.5,0.9-0.8v0
		c1.1-1.1,2.4-2.1,3.7-2.9c1.1-0.7,2.2-1.4,3.4-2c-2.7-2.1-5.1-4.5-7.1-7.1v0c-1.5-2-2.8-4-3.9-6.3c-0.4-0.8-0.7-1.5-1-2.3
		c-0.3-0.7-0.6-1.4-0.8-2.1c-1.7-4.9-2.1-9-2.3-11.1c0-0.3,0-0.5-0.1-0.7c-0.4-3.7,1.4-13.6,8.1-18.2v0c0.5-0.4,1.1-0.7,1.6-1
		c1.3-0.6,2.4-0.9,3.5-0.8c0.6,0.1,1.2,0.3,1.7,0.6c0.7,0.4,1.3,1,1.8,1.9c1.5,2.5,2.3,7,2.3,13.4c0,10,3.3,26.2,4.4,31.2
		c1.7-0.3,3.5-0.5,5.3-0.5c0.6,0,1.3,0,1.9,0.1V24.8c-0.6,0.1-1.3,0.2-1.9,0.2c-0.8,0-1.5-0.1-2.2-0.2c-0.4-0.1-0.7-0.2-1-0.3
		c-0.7-0.2-1.3-0.5-1.9-0.8c-0.9-0.5-1.6-1.1-2.2-1.8c-1.4,0.9-3.1,1.4-4.8,1.4c-2.3,0-4.7-0.8-6.6-2.5c-0.8-0.7-1.4-1.5-1.9-2.4
		c-1.3,0.8-2.9,1.2-4.5,1.2c-2.3,0-4.7-0.8-6.6-2.5c-1.8-1.6-2.8-3.8-2.8-5.9c0-0.7,0.1-1.5,0.3-2.1c0.4-1.1,1-2.2,2-3
		c0.3-0.3,0.7-0.6,1.1-0.8c1.2-0.7,2.6-1.1,4-1.2c-0.4-0.9-0.8-1.8-1.1-2.7c-0.1-0.4-0.3-0.8-0.4-1.3h-43.1c-0.5,2-1.1,4.3-2.1,6.7
		c-1.8,4.4-4.3,8.3-7.5,11.7h0c-0.8,0.8-1.6,1.7-2.5,2.5c-0.6,0.6-1.3,1.1-2,1.6c9.6,4.7,16.1,14.3,16.1,25.2c0,4.4-1.1,8.6-3,12.4
		c0.8,0,1.5,0.1,2.2,0.3c0.2,0.1,0.5,0.1,0.7,0.2c0.9,0.3,1.8,0.8,2.5,1.5c1.5,1.3,2.3,3.1,2.3,5.1c0,1.1-0.3,2.2-0.7,3.2
		c-0.5,1-1.2,2-2.1,2.8c-0.2,0.2-0.5,0.4-0.7,0.6c-0.2,0.2-0.5,0.3-0.8,0.5c-1.6,0.9-3.3,1.4-5.1,1.4c-0.4,0-0.8,0-1.2-0.1
		c-0.8-0.1-1.5-0.3-2.2-0.6c-0.4-0.1-0.7-0.3-1-0.5c-0.1,0.2-0.2,0.4-0.4,0.6c-0.3,0.4-0.6,0.8-0.9,1.2c-0.2,0.2-0.4,0.4-0.6,0.5
		c-1.8,1.7-4.2,2.5-6.6,2.5c-1.9,0-3.8-0.6-5.3-1.7c-1.7,1.7-4.1,2.7-6.9,2.7c-0.4,0-0.8,0-1.1-0.1c-0.7-0.1-1.4-0.2-2.1-0.4
		c-1-0.3-1.9-0.8-2.7-1.4c-0.5-0.4-1-0.8-1.4-1.3c-1.4,0.9-3.1,1.4-4.8,1.4c-2.3,0-4.7-0.8-6.6-2.5c-0.6-0.5-1.1-1.1-1.5-1.7
		c-0.1-0.2-0.3-0.4-0.4-0.6c-1.3,0.8-2.9,1.2-4.5,1.2c-2.3,0-4.7-0.8-6.6-2.5c-1.3-1.2-2.2-2.7-2.6-4.3c-0.1-0.5-0.2-1.1-0.2-1.6
		c0-1.5,0.5-2.9,1.3-4c0.3-0.4,0.6-0.8,1-1.1c1-0.9,2.3-1.6,3.7-1.8c0.5-0.1,0.9-0.2,1.4-0.2c-1.7-3.5-2.6-7.5-2.6-11.6
		c0-11,6.6-20.5,16.1-25.2c-5.4-4.2-9.4-9.4-12-15.7c-0.9-2.2-1.5-4.2-2-6.1c-0.1-0.2-0.1-0.4-0.1-0.6H328c-0.5,1.7-1.1,3.2-1.9,4.8
		c0.8,0,1.5,0.1,2.2,0.3c0.2,0.1,0.5,0.1,0.7,0.2c0.9,0.3,1.8,0.8,2.5,1.5c1.5,1.3,2.3,3.1,2.3,5.1c0,2.2-1,4.3-2.8,5.9
		c-0.2,0.2-0.5,0.4-0.7,0.6c-0.7,0.5-1.5,1-2.4,1.3c-0.6,0.2-1.1,0.4-1.7,0.5c-0.3,0.1-0.6,0.1-0.9,0.1s-0.6,0-0.9,0
		c-0.4,0-0.8,0-1.2-0.1c-0.8-0.1-1.5-0.3-2.2-0.6c-0.4-0.1-0.7-0.3-1-0.5c-0.2,0.4-0.5,0.8-0.8,1.2s-0.7,0.8-1.1,1.1
		c-1.8,1.7-4.2,2.5-6.6,2.5c-1.9,0-3.8-0.6-5.3-1.7c-0.4,0.4-0.9,0.8-1.4,1.1c-1.5,1-3.5,1.6-5.5,1.6c-0.8,0-1.5-0.1-2.2-0.2
		c-0.4-0.1-0.7-0.2-1-0.3c-0.7-0.2-1.3-0.5-1.9-0.8c-0.9-0.5-1.6-1.1-2.2-1.8c-1.4,0.9-3.1,1.4-4.8,1.4c-2.3,0-4.7-0.8-6.6-2.5
		c-0.6-0.5-1.1-1.1-1.5-1.7c-0.1-0.2-0.3-0.4-0.4-0.6c-1.3,0.8-2.9,1.2-4.5,1.2c-2.3,0-4.7-0.8-6.6-2.5c-1.8-1.6-2.8-3.8-2.8-5.9
		c0-0.7,0.1-1.5,0.3-2.1c0.1-0.2,0.2-0.4,0.3-0.7c0.4-0.9,1-1.7,1.7-2.3c0.3-0.3,0.7-0.6,1.1-0.8c1.2-0.7,2.6-1.1,4-1.2
		c-0.6-1.3-1.1-2.6-1.5-4h-43.1c-0.5,2-1.1,4.3-2.1,6.7c-1.8,4.4-4.3,8.3-7.5,11.7h0c-0.8,0.8-1.6,1.7-2.5,2.5
		c-0.6,0.6-1.3,1.1-2,1.6c9.6,4.7,16.1,14.3,16.1,25.2c0,4.4-1.1,8.6-3,12.4c2,0,4,0.7,5.5,2c1.5,1.3,2.3,3.1,2.3,5.1
		c0,1.1-0.3,2.2-0.7,3.2c-0.2,0.5-0.5,1-0.9,1.5c-0.2,0.2-0.4,0.5-0.6,0.7s-0.4,0.4-0.6,0.6c-0.5,0.4-1,0.8-1.5,1.1
		c-1.6,0.9-3.3,1.4-5.1,1.4c-1.6,0-3.1-0.4-4.5-1.2c-0.1,0.2-0.2,0.4-0.4,0.6c-0.3,0.4-0.6,0.8-0.9,1.2c-0.2,0.2-0.4,0.4-0.6,0.5
		c-1.8,1.7-4.2,2.5-6.6,2.5c-1.9,0-3.8-0.6-5.3-1.7c-1.7,1.7-4.1,2.7-6.9,2.7c-0.4,0-0.8,0-1.1-0.1c-0.7-0.1-1.4-0.2-2.1-0.4
		c-1-0.3-1.9-0.8-2.7-1.4c-0.5-0.4-1-0.8-1.4-1.3c-1.4,0.9-3.1,1.4-4.8,1.4c-2.3,0-4.7-0.8-6.6-2.5c-0.8-0.7-1.4-1.5-1.9-2.4
		c-1.3,0.8-2.9,1.2-4.5,1.2c-2.3,0-4.7-0.8-6.6-2.5c-1.3-1.2-2.2-2.7-2.6-4.3c-0.1-0.5-0.2-1.1-0.2-1.6c0-1.5,0.5-2.9,1.3-4
		c0.3-0.4,0.6-0.8,1-1.1c1-0.9,2.3-1.6,3.7-1.8c0.5-0.1,0.9-0.2,1.4-0.2c-1.7-3.5-2.6-7.5-2.6-11.6c0-11,6.6-20.5,16.1-25.2
		c-5.4-4.2-9.4-9.4-12-15.7c-0.7-1.8-1.3-3.5-1.7-5.2c-0.1-0.5-0.3-1.1-0.4-1.6h-43.1c-0.5,1.7-1.1,3.2-1.9,4.8c2,0,4,0.7,5.5,2
		c1.5,1.3,2.3,3.1,2.3,5.1c0,2.2-1,4.3-2.8,5.9c-0.2,0.2-0.5,0.4-0.7,0.6c-0.7,0.5-1.5,1-2.4,1.3c-0.6,0.2-1.1,0.4-1.7,0.5
		c-0.3,0.1-0.6,0.1-0.9,0.1s-0.6,0-0.9,0c-1.2,0-2.4-0.2-3.4-0.7c-0.4-0.1-0.7-0.3-1-0.5c-0.2,0.4-0.5,0.8-0.8,1.2
		c-0.3,0.4-0.7,0.8-1.1,1.1c-1.8,1.7-4.2,2.5-6.6,2.5c-1.9,0-3.8-0.6-5.3-1.7c-0.4,0.4-0.9,0.8-1.4,1.1c-1.5,1-3.5,1.6-5.5,1.6
		c-0.8,0-1.5-0.1-2.2-0.2c-0.4-0.1-0.7-0.2-1-0.3c-0.7-0.2-1.3-0.5-1.9-0.8c-0.6-0.3-1.1-0.7-1.6-1.2c-0.2-0.2-0.5-0.4-0.7-0.7
		c-1.4,0.9-3.1,1.4-4.8,1.4c-2.3,0-4.7-0.8-6.6-2.5c-0.8-0.7-1.4-1.5-1.9-2.4c-1.3,0.8-2.9,1.2-4.5,1.2c-2.3,0-4.7-0.8-6.6-2.5
		c-1.8-1.6-2.8-3.8-2.8-5.9c0-0.7,0.1-1.5,0.3-2.1c0.4-1.1,1-2.2,2-3c0.3-0.3,0.7-0.6,1.1-0.8c1.2-0.7,2.6-1.1,4-1.2
		c-0.6-1.3-1.1-2.6-1.5-4H29.3c-0.5,2-1.1,4.3-2.1,6.7c-1.8,4.4-4.3,8.3-7.5,11.7h0c-0.8,0.8-1.6,1.7-2.5,2.5
		c-0.6,0.6-1.3,1.1-2,1.6c9.6,4.7,16.1,14.3,16.1,25.2c0,4.4-1.1,8.6-3,12.4c2,0,4,0.7,5.5,2c1.5,1.3,2.3,3.1,2.3,5.1
		c0,1.1-0.3,2.2-0.7,3.2c-0.5,1-1.2,2-2.1,2.8c-0.5,0.4-1,0.8-1.5,1.1c-1.6,0.9-3.3,1.4-5.1,1.4c-1.6,0-3.1-0.4-4.5-1.2
		c-0.1,0.2-0.2,0.4-0.4,0.6c-0.3,0.4-0.6,0.8-0.9,1.2c-0.2,0.2-0.4,0.4-0.6,0.5c-1.8,1.7-4.2,2.5-6.6,2.5c-1.9,0-3.8-0.6-5.3-1.7
		c-1.7,1.7-4.1,2.7-6.9,2.7c-0.4,0-0.8,0-1.1-0.1c-0.2,0-0.4-0.1-0.6-0.1v90.6c0.6,0,1.1-0.1,1.7-0.1c1.8,0,3.6,0.2,5.3,0.5
		c1.1-5,4.4-21.2,4.4-31.2c0-8.5,1.4-13.6,4-15.3c1.4-0.9,3.1-0.8,5.2,0.2c6.5,3.3,9.2,11.3,9.7,16.3c0.1,1.2,0.1,2.2,0,2.9
		c0,0.2,0,0.4-0.1,0.7c-0.2,2.4-0.7,7.5-3.1,13.3c-1,2.4-2.1,4.6-3.5,6.6c-0.9,1.4-1.9,2.7-3,3.9c-1.6,1.9-3.5,3.6-5.5,5.2
		c9.6,4.7,16.1,14.3,16.1,25.2c0,2.2-0.3,4.4-0.8,6.5c-0.3,1-0.6,2.1-0.9,3c-0.4,1-0.8,2-1.3,2.9c2,0,4,0.7,5.5,2
		c1.5,1.3,2.3,3.1,2.3,5.1c0,2.2-1,4.3-2.8,5.9c-1.8,1.7-4.2,2.5-6.6,2.5c-1.6,0-3.1-0.4-4.5-1.2c-0.5,0.9-1.1,1.7-1.9,2.4
		c-1.8,1.7-4.2,2.5-6.6,2.5c-1.9,0-3.8-0.6-5.3-1.7c-1.7,1.7-4.1,2.7-6.9,2.7c-0.6,0-1.1-0.1-1.7-0.1v90.6c0.6,0,1.1-0.1,1.7-0.1
		c1.8,0,3.6,0.2,5.3,0.5c1.1-5,4.4-21.2,4.4-31.2c0-8.5,1.4-13.6,4-15.3c1.4-0.9,3.1-0.8,5.2,0.2c6.5,3.3,9.2,11.3,9.7,16.3
		c0.1,1.2,0.1,2.2,0,2.9c0,0.2,0,0.4-0.1,0.7c-0.2,2.4-0.7,7.5-3.1,13.3c-1,2.4-2.1,4.6-3.5,6.6c-0.9,1.4-1.9,2.7-3,3.9
		c-1.6,1.9-3.5,3.6-5.5,5.2c9.6,4.7,16.1,14.3,16.1,25.2c0,4.4-1.1,8.6-3,12.4c2,0,4,0.7,5.5,2c1.5,1.3,2.3,3.1,2.3,5.1
		c0,2.2-1,4.3-2.8,5.9c-1.8,1.7-4.2,2.5-6.6,2.5c-1.6,0-3.1-0.4-4.5-1.2c-0.5,0.9-1.1,1.7-1.9,2.4c-1.8,1.7-4.2,2.5-6.6,2.5
		c-1,0-1.9-0.1-2.8-0.4c-0.9-0.3-1.7-0.7-2.5-1.3c-1.7,1.7-4.1,2.7-6.9,2.7c-0.6,0-1.1-0.1-1.7-0.1v90.6c0.6,0,1.1-0.1,1.7-0.1
		c1.8,0,3.6,0.2,5.3,0.5c0.3-1.4,0.8-3.7,1.3-6.5c0.4-2.2,0.9-4.6,1.3-7.2c0.1-0.4,0.1-0.7,0.2-1.1c0.1-0.7,0.2-1.5,0.3-2.3
		c0.2-1.1,0.3-2.3,0.5-3.4c0.3-2.3,0.5-4.5,0.7-6.7c0-0.4,0-0.7,0.1-1c0-0.7,0.1-1.4,0.1-2c0-0.3,0-0.6,0-1c0-1.1,0-2.1,0.1-3
		c0.2-4.3,0.8-7.5,1.9-9.7c0.1-0.2,0.2-0.5,0.4-0.7c0.3-0.4,0.5-0.8,0.8-1.1c0.3-0.3,0.6-0.6,0.9-0.8c1.4-0.9,3.1-0.8,5.2,0.2
		c6.5,3.3,9.2,11.3,9.7,16.3c0.1,1.2,0.1,2.2,0,2.9c0,0.2,0,0.4-0.1,0.7c-0.2,2.4-0.7,7.5-3.1,13.3c-1,2.4-2.1,4.6-3.5,6.6
		c-0.9,1.4-1.9,2.7-3,3.9c-1.6,1.9-3.5,3.6-5.5,5.2c8.9,4.4,15.3,13.1,16,23.2h139.5c0.8-10.1,7.1-18.7,16-23.2
		c-5.4-4.2-9.4-9.4-12-15.7c-0.7-1.8-1.3-3.5-1.7-5.2c-0.9-3.5-1.2-6.4-1.4-8.1c0-0.3,0-0.5-0.1-0.7c-0.4-3.8,1.5-13.9,8.3-18.4
		c0.5-0.3,0.9-0.6,1.4-0.8c0.5-0.3,1-0.4,1.5-0.6c1.4-0.4,2.7-0.3,3.7,0.4c2.7,1.7,4,6.8,4,15.3c0,10,3.3,26.2,4.4,31.2
		c1.7-0.3,3.5-0.5,5.3-0.5s3.6,0.2,5.3,0.5c0.3-1.4,0.8-3.7,1.3-6.5c0.4-2.2,0.9-4.6,1.3-7.2c0.1-0.4,0.1-0.7,0.2-1.1
		c0.1-0.7,0.2-1.5,0.3-2.3c0.2-1.1,0.3-2.3,0.5-3.4c0.3-2.3,0.5-4.5,0.7-6.7c0-0.4,0-0.7,0.1-1c0-0.7,0.1-1.4,0.1-2c0-0.3,0-0.6,0-1
		c0-1.1,0-2.1,0.1-3c0.2-4.3,0.8-7.5,1.9-9.7c0.1-0.2,0.2-0.5,0.4-0.7c0.3-0.4,0.5-0.8,0.8-1.1c0.3-0.3,0.6-0.6,0.9-0.8
		c1.4-0.9,3.1-0.8,5.2,0.2c7,3.5,9.5,12.5,9.8,17.4c0,0.7,0,1.3,0,1.8c0,0.2,0,0.4-0.1,0.7c-0.2,2.4-0.7,7.5-3.1,13.3
		c-1,2.4-2.1,4.6-3.5,6.6c-0.9,1.4-1.9,2.7-3,3.9c-1.6,1.9-3.5,3.6-5.5,5.2c8.9,4.4,15.3,13.1,16,23.2h139.5
		c0.8-10.1,7.1-18.7,16-23.2c-5.4-4.2-9.4-9.4-12-15.7c-0.9-2.2-1.5-4.2-2-6.1c-0.7-3.1-1-5.6-1.2-7.2c0-0.3,0-0.5-0.1-0.7
		c-0.1-0.8-0.1-1.8,0-2.9c0.5-4.7,2.8-11.8,8.3-15.5c0.5-0.3,0.9-0.6,1.4-0.8c0.5-0.3,1-0.4,1.5-0.6c1.4-0.4,2.7-0.3,3.7,0.4
		c2.7,1.7,4,6.8,4,15.3c0,10,3.3,26.2,4.4,31.2c1.7-0.3,3.5-0.5,5.3-0.5s3.6,0.2,5.3,0.5c0.3-1.4,0.8-3.7,1.3-6.5
		c0.4-2.2,0.9-4.6,1.3-7.2c0.1-0.4,0.1-0.7,0.2-1.1c0.1-0.7,0.2-1.5,0.3-2.3c0.2-1.1,0.3-2.3,0.5-3.4c0.3-2.3,0.5-4.5,0.7-6.7
		c0-0.4,0-0.7,0.1-1c0-0.7,0.1-1.4,0.1-2c0-0.3,0-0.6,0-1c0-1.1,0-2.1,0.1-3c0.2-4.3,0.8-7.5,1.9-9.7c0.1-0.2,0.2-0.5,0.4-0.7
		c0.3-0.4,0.5-0.8,0.8-1.1c0.3-0.3,0.6-0.6,0.9-0.8c1.4-0.9,3.1-0.8,5.2,0.2c8,4,10.2,15.2,9.7,19.2c0,0.2,0,0.4-0.1,0.7
		c-0.2,2.4-0.7,7.5-3.1,13.3c-1,2.4-2.1,4.6-3.5,6.6c-0.9,1.4-1.9,2.7-3,3.9c-1.6,1.9-3.5,3.6-5.5,5.2c8.9,4.4,15.3,13.1,16,23.2
		H500z M423.9,378.6c-0.4,0-0.8,0-1.2-0.1c-0.8-0.1-1.5-0.3-2.2-0.6c-0.4-0.1-0.7-0.3-1-0.5c-0.5,0.9-1.1,1.7-1.9,2.4
		c-1.8,1.7-4.2,2.5-6.6,2.5c-1,0-1.9-0.1-2.8-0.4c-0.9-0.3-1.7-0.7-2.5-1.3c-1.7,1.7-4.1,2.7-6.9,2.7c-3,0-5.7-1.3-7.4-3.2
		c-1.4,0.9-3.1,1.4-4.8,1.4c-2.3,0-4.7-0.8-6.6-2.5c-0.6-0.5-1.1-1.1-1.5-1.7c-0.1-0.2-0.3-0.4-0.4-0.6c-1.3,0.8-2.9,1.2-4.5,1.2
		c-2.3,0-4.7-0.8-6.6-2.5c-1.8-1.6-2.8-3.8-2.8-5.9c0-1.5,0.5-2.9,1.3-4c0.3-0.4,0.6-0.8,1-1.1c1-0.9,2.3-1.6,3.7-1.8
		c0.5-0.1,0.9-0.2,1.4-0.2c-1.7-3.5-2.6-7.5-2.6-11.6c0-11,6.6-20.5,16.1-25.2c-5.4-4.2-9.4-9.4-12-15.7c-0.9-2.2-1.5-4.2-2-6.1
		c-0.7-3.1-1-5.6-1.2-7.2c0-0.3,0-0.5-0.1-0.7c-0.1-0.8-0.1-1.8,0-2.9c0.5-4.7,2.8-11.8,8.3-15.5c0.5-0.3,0.9-0.6,1.4-0.8
		c2-1,3.8-1.1,5.2-0.2c2.7,1.7,4,6.8,4,15.3c0,10,3.3,26.2,4.4,31.2c1.7-0.3,3.5-0.5,5.3-0.5s3.6,0.2,5.3,0.5
		c1.1-5,4.4-21.2,4.4-31.2c0-8.5,1.4-13.6,4-15.3c1.4-0.9,3.1-0.8,5.2,0.2c8,4,10.2,15.2,9.7,19.2c0,0.2,0,0.4-0.1,0.7
		c-0.2,2.4-0.7,7.5-3.1,13.3c-1,2.4-2.1,4.6-3.5,6.6c-0.9,1.4-1.9,2.7-3,3.9c-1.6,1.9-3.5,3.6-5.5,5.2c9.6,4.7,16.1,14.3,16.1,25.2
		c0,4.4-1.1,8.6-3,12.4c0.8,0,1.5,0.1,2.2,0.3c0.2,0.1,0.5,0.1,0.7,0.2c0.9,0.3,1.8,0.8,2.5,1.5c1.5,1.3,2.3,3.1,2.3,5.1
		c0,2.2-1,4.3-2.8,5.9c-0.2,0.2-0.5,0.4-0.7,0.6C428,377.9,425.9,378.6,423.9,378.6z M323.4,323.2c-0.8-0.1-1.5-0.3-2.2-0.6
		c-0.4-0.1-0.7-0.3-1-0.5c-0.2,0.4-0.5,0.8-0.8,1.2s-0.7,0.8-1.1,1.1c-1.8,1.7-4.2,2.5-6.6,2.5c-1.9,0-3.8-0.6-5.3-1.7
		c-1,1-2.4,1.8-4,2.3c-0.9,0.3-1.9,0.4-3,0.4c-1.9,0-3.7-0.5-5.1-1.3c-0.9-0.5-1.6-1.1-2.2-1.8c-1.4,0.9-3.1,1.4-4.8,1.4
		c-2.3,0-4.7-0.8-6.6-2.5c-0.6-0.5-1.1-1.1-1.5-1.7c-0.1-0.2-0.3-0.4-0.4-0.6c-1.3,0.8-2.9,1.2-4.5,1.2c-2.3,0-4.7-0.8-6.6-2.5
		c-1.8-1.6-2.8-3.8-2.8-5.9c0-0.7,0.1-1.5,0.3-2.1c0.1-0.2,0.2-0.4,0.3-0.7c0.4-0.9,1-1.7,1.7-2.3c1.4-1.3,3.2-1.9,5.1-2
		c-1.7-3.5-2.6-7.5-2.6-11.6c0-8,3.5-15.2,9-20.3v0c2.1-2,4.5-3.6,7.1-4.9c-2.7-2.1-5.1-4.5-7.1-7.1v0c-1-1.3-1.9-2.6-2.7-4.1
		c-0.4-0.7-0.8-1.5-1.2-2.2s-0.7-1.5-1-2.3c-2.4-5.8-2.9-10.8-3.1-13.3c0-0.3,0-0.5-0.1-0.7c-0.4-3.3,1-11.3,5.8-16.3
		c0.7-0.7,1.4-1.4,2.3-1.9v0c0.5-0.4,1.1-0.7,1.6-1c0.3-0.1,0.5-0.2,0.7-0.3c1-0.4,1.9-0.5,2.7-0.5c0.6,0.1,1.2,0.3,1.7,0.6
		c0.7,0.4,1.3,1,1.8,1.9c1.5,2.5,2.3,7,2.3,13.4c0,10,3.3,26.2,4.4,31.2c1.7-0.3,3.5-0.5,5.3-0.5s3.6,0.2,5.3,0.5
		c0.1-0.3,0.1-0.7,0.2-1.1s0.2-0.8,0.3-1.3c0.1-0.7,0.3-1.5,0.5-2.3c0.1-0.6,0.2-1.2,0.3-1.8c0.1-0.6,0.2-1.3,0.4-1.9
		c0.1-0.7,0.2-1.4,0.4-2.1c0.3-1.8,0.6-3.6,0.9-5.5c0.1-0.8,0.2-1.5,0.3-2.3c0.6-4.6,1.1-9.2,1.1-12.9c0-5.3,0.5-9.3,1.6-11.9
		c0.6-1.6,1.5-2.7,2.5-3.3c0.4-0.2,0.7-0.4,1.1-0.5c0.6-0.1,1.2-0.2,1.9,0c0.7,0.1,1.4,0.4,2.2,0.7c1,0.5,1.9,1.1,2.7,1.8
		c0.4,0.3,0.8,0.7,1.2,1.1c1.5,1.6,2.6,3.4,3.5,5.3c0.2,0.5,0.4,0.9,0.6,1.4c0.4,1,0.7,1.9,0.9,2.8c0.5,1.8,0.7,3.6,0.8,5
		c0,0.7,0,1.3,0,1.8c0,0.2,0,0.4-0.1,0.7c-0.1,1.2-0.3,3.1-0.8,5.4c-0.4,2-1,4.3-1.9,6.8c-0.1,0.4-0.3,0.7-0.4,1.1
		c-1.6,3.9-3.8,7.5-6.5,10.6c-1.6,1.9-3.5,3.6-5.5,5.2c6.6,3.2,11.7,8.8,14.3,15.5c0.2,0.6,0.4,1.2,0.6,1.9c0.4,1.3,0.7,2.5,0.9,3.9
		c0.2,1.3,0.3,2.7,0.3,4c0,1.1-0.1,2.2-0.2,3.3c-0.4,3.2-1.3,6.3-2.8,9.1c0.8,0,1.5,0.1,2.2,0.3c0.2,0.1,0.5,0.1,0.7,0.2
		c0.9,0.3,1.8,0.8,2.5,1.5c1.5,1.3,2.3,3.1,2.3,5.1c0,2.2-1,4.3-2.8,5.9c-0.2,0.2-0.5,0.4-0.7,0.6c-1.7,1.3-3.8,1.9-5.9,1.9
		C324.2,323.3,323.8,323.2,323.4,323.2z M225.3,378.6c-1.6,0-3.1-0.4-4.5-1.2c-0.5,0.9-1.1,1.7-1.9,2.4c-1.8,1.7-4.2,2.5-6.6,2.5
		c-1,0-1.9-0.1-2.8-0.4c-0.9-0.3-1.7-0.7-2.5-1.3c-1.7,1.7-4.1,2.7-6.9,2.7c-3,0-5.7-1.3-7.4-3.2c-1.4,0.9-3.1,1.4-4.8,1.4
		c-2.3,0-4.7-0.8-6.6-2.5c-0.8-0.7-1.4-1.5-1.9-2.4c-1.3,0.8-2.9,1.2-4.5,1.2c-2.3,0-4.7-0.8-6.6-2.5c-1.8-1.6-2.8-3.8-2.8-5.9
		c0-1.5,0.5-2.9,1.3-4c0.3-0.4,0.6-0.8,1-1.1c1-0.9,2.3-1.6,3.7-1.8c0.5-0.1,0.9-0.2,1.4-0.2c-1.7-3.5-2.6-7.5-2.6-11.6
		c0-11,6.6-20.5,16.1-25.2c-5.4-4.2-9.4-9.4-12-15.7c-0.7-1.8-1.3-3.5-1.7-5.2c-0.9-3.5-1.2-6.4-1.4-8.1c0-0.3,0-0.5-0.1-0.7
		c-0.4-3.8,1.5-13.9,8.3-18.4c0.5-0.3,0.9-0.6,1.4-0.8c2-1,3.8-1.1,5.2-0.2c2.7,1.7,4,6.8,4,15.3c0,10,3.3,26.2,4.4,31.2
		c1.7-0.3,3.5-0.5,5.3-0.5s3.6,0.2,5.3,0.5c1.1-5,4.4-21.2,4.4-31.2c0-8.5,1.4-13.6,4-15.3c1.4-0.9,3.1-0.8,5.2,0.2
		c7,3.5,9.5,12.5,9.8,17.4c0,0.7,0,1.3,0,1.8c0,0.2,0,0.4-0.1,0.7c-0.2,2.4-0.7,7.5-3.1,13.3c-1,2.4-2.1,4.6-3.5,6.6
		c-0.9,1.4-1.9,2.7-3,3.9c-1.6,1.9-3.5,3.6-5.5,5.2c9.6,4.7,16.1,14.3,16.1,25.2c0,4.4-1.1,8.6-3,12.4c2,0,4,0.7,5.5,2
		c1.5,1.3,2.3,3.1,2.3,5.1c0,1.6-0.6,3.3-1.6,4.6c-0.2,0.2-0.4,0.5-0.6,0.7s-0.4,0.4-0.6,0.6C230,377.8,227.6,378.6,225.3,378.6z
		 M126,171.8c-1.6,0-3.1-0.4-4.5-1.2c-0.2,0.4-0.5,0.8-0.8,1.2c-0.3,0.4-0.7,0.8-1.1,1.1c-1.8,1.7-4.2,2.5-6.6,2.5
		c-1.9,0-3.8-0.6-5.3-1.7c-1,1-2.4,1.8-4,2.3c-0.9,0.3-1.9,0.4-3,0.4c-0.8,0-1.5-0.1-2.2-0.2c-1.8-0.4-3.3-1.2-4.5-2.3
		c-0.2-0.2-0.5-0.4-0.7-0.7c-1.4,0.9-3.1,1.4-4.8,1.4c-2,0-4.1-0.6-5.9-1.9c-0.2-0.2-0.5-0.4-0.7-0.6c-0.8-0.7-1.4-1.5-1.9-2.4
		c-1.3,0.8-2.9,1.2-4.5,1.2c-2.3,0-4.7-0.8-6.6-2.5c-1.8-1.6-2.8-3.8-2.8-5.9c0-2,0.8-3.8,2.3-5.1c1.4-1.3,3.2-1.9,5.1-2
		c-1.7-3.5-2.6-7.5-2.6-11.6c0-1.4,0.1-2.7,0.3-4c0.2-1.3,0.5-2.6,0.9-3.9c0.4-1.3,0.9-2.5,1.4-3.7c0.6-1.2,1.2-2.3,1.9-3.4
		c1.1-1.6,2.3-3.2,3.7-4.5c0.3-0.3,0.6-0.5,0.9-0.8v0c1.1-1.1,2.4-2.1,3.7-2.9c1.1-0.7,2.2-1.4,3.4-2c-2.7-2.1-5.1-4.5-7.1-7.1v0
		c-2-2.6-3.6-5.5-4.9-8.6c-0.4-1.1-0.8-2.1-1.2-3.2c-1.4-4.4-1.8-8.1-2-10.1c0-0.3,0-0.5-0.1-0.7c-0.4-3.7,1.4-13.6,8.1-18.2v0
		c0.5-0.4,1.1-0.7,1.6-1c1.3-0.6,2.4-0.9,3.5-0.8c0.6,0.1,1.2,0.3,1.7,0.6c0.7,0.4,1.3,1,1.8,1.9c1.5,2.5,2.3,7,2.3,13.4
		c0,10,3.3,26.2,4.4,31.2c1.7-0.3,3.5-0.5,5.3-0.5s3.6,0.2,5.3,0.5c1.1-5,4.4-21.2,4.4-31.2c0-5.3,0.5-9.3,1.6-11.9
		c0.6-1.6,1.5-2.7,2.5-3.3c0.4-0.2,0.7-0.4,1.1-0.5c0.2,0,0.4-0.1,0.6-0.1c0.4,0,0.8,0,1.3,0.1c0.7,0.1,1.4,0.4,2.2,0.7
		c6.5,3.3,9.2,11.3,9.7,16.3c0.1,1.2,0.1,2.2,0,2.9c0,0.2,0,0.4-0.1,0.7c-0.1,0.8-0.2,1.8-0.4,3c-0.3,2.2-0.9,5-2,8.1
		c-0.2,0.7-0.5,1.4-0.8,2.1c-0.3,0.8-0.7,1.6-1,2.3c-2.6,5.3-6.3,9.8-11,13.4c1.2,0.6,2.3,1.3,3.4,2c1.6,1.1,3.2,2.4,4.5,3.7
		c1.4,1.4,2.6,2.9,3.7,4.5c0.7,1.1,1.3,2.2,1.9,3.4c0.3,0.6,0.5,1.2,0.8,1.8s0.4,1.2,0.6,1.9c0.4,1.3,0.7,2.5,0.9,3.9
		c0.2,1.3,0.3,2.7,0.3,4c0,1.7-0.2,3.3-0.4,4.9c-0.5,2.6-1.3,5.2-2.5,7.5c2,0,4,0.7,5.5,2c1.5,1.3,2.3,3.1,2.3,5.1
		c0,2.2-1,4.3-2.8,5.9c-0.2,0.2-0.5,0.4-0.7,0.6C130.2,171.2,128.1,171.8,126,171.8z M270.9,89.6c0-0.3,0-0.5-0.1-0.7
		c-0.4-3.7,1.4-13.6,8.1-18.2v0c0.5-0.4,1.1-0.7,1.6-1c1.3-0.6,2.4-0.9,3.5-0.8c0.6,0.1,1.2,0.3,1.7,0.6c0.7,0.4,1.3,1,1.8,1.9
		c1.5,2.5,2.3,7,2.3,13.4c0,10,3.3,26.2,4.4,31.2c1.7-0.3,3.5-0.5,5.3-0.5s3.6,0.2,5.3,0.5c1.1-5,4.4-21.2,4.4-31.2
		c0-5.3,0.5-9.3,1.6-11.9c0.6-1.6,1.5-2.7,2.5-3.3c0.4-0.2,0.7-0.4,1.1-0.5c0.2,0,0.4-0.1,0.6-0.1c0.4,0,0.8,0,1.3,0.1
		c0.7,0.1,1.4,0.4,2.2,0.7c7,3.5,9.5,12.5,9.8,17.4c0,0.7,0,1.3,0,1.8c0,0.2,0,0.4-0.1,0.7c-0.1,0.8-0.2,1.8-0.4,3
		c-0.4,2.4-1,5.6-2.3,9.2c-0.1,0.4-0.3,0.7-0.4,1.1c-2.6,6.3-6.6,11.6-12,15.7c1.2,0.6,2.3,1.3,3.4,2c1.6,1.1,3.2,2.4,4.5,3.7
		c1.4,1.4,2.6,2.9,3.7,4.5c0.7,1.1,1.3,2.2,1.9,3.4c0.3,0.6,0.5,1.2,0.8,1.8s0.4,1.2,0.6,1.9c0.4,1.3,0.7,2.5,0.9,3.9
		c0.2,1.3,0.3,2.7,0.3,4c0,1.1-0.1,2.2-0.2,3.3c-0.4,3.2-1.3,6.3-2.8,9.1c0.8,0,1.5,0.1,2.2,0.3c0.2,0.1,0.5,0.1,0.7,0.2
		c0.9,0.3,1.8,0.8,2.5,1.5c1.5,1.3,2.3,3.1,2.3,5.1c0,2.2-1,4.3-2.8,5.9c-0.2,0.2-0.5,0.4-0.7,0.6c-1.7,1.3-3.8,1.9-5.9,1.9
		c-0.4,0-0.8,0-1.2-0.1c-0.8-0.1-1.5-0.3-2.2-0.6c-0.4-0.1-0.7-0.3-1-0.5c-0.2,0.4-0.5,0.8-0.8,1.2s-0.7,0.8-1.1,1.1
		c-1.8,1.7-4.2,2.5-6.6,2.5c-1.9,0-3.8-0.6-5.3-1.7c-1,1-2.4,1.8-4,2.3c-0.9,0.3-1.9,0.4-3,0.4c-0.8,0-1.5-0.1-2.2-0.2
		c-1.1-0.2-2-0.6-2.9-1.1c-0.9-0.5-1.6-1.1-2.2-1.8c-1.4,0.9-3.1,1.4-4.8,1.4c-2,0-4.1-0.6-5.9-1.9c-0.2-0.2-0.5-0.4-0.7-0.6
		c-0.6-0.5-1.1-1.1-1.5-1.7c-0.1-0.2-0.3-0.4-0.4-0.6c-1.3,0.8-2.9,1.2-4.5,1.2c-2.3,0-4.7-0.8-6.6-2.5c-1.8-1.6-2.8-3.8-2.8-5.9
		c0-0.7,0.1-1.5,0.3-2.1c0.1-0.2,0.2-0.4,0.3-0.7c0.4-0.9,1-1.7,1.7-2.3c1.4-1.3,3.2-1.9,5.1-2c-1.7-3.5-2.6-7.5-2.6-11.6
		c0-1.4,0.1-2.7,0.3-4c0.2-1.3,0.5-2.6,0.9-3.9c0.4-1.3,0.9-2.5,1.4-3.7c0.6-1.2,1.2-2.3,1.9-3.4c1.1-1.6,2.3-3.2,3.7-4.5
		c0.3-0.3,0.6-0.5,0.9-0.8v0c1.1-1.1,2.4-2.1,3.7-2.9c1.1-0.7,2.2-1.4,3.4-2c-2.7-2.1-5.1-4.5-7.1-7.1v0c-1-1.3-1.9-2.6-2.7-4.1
		c-0.4-0.7-0.8-1.5-1.2-2.2s-0.7-1.5-1-2.3C271.6,97.1,271.1,92,270.9,89.6z M378.4,125.9c0.5-0.3,0.9-0.6,1.4-0.8
		c0.3-0.1,0.5-0.2,0.7-0.3c1.7-0.7,3.2-0.6,4.4,0.1c2.7,1.7,4,6.8,4,15.3c0,10,3.3,26.2,4.4,31.2c1.7-0.3,3.5-0.5,5.3-0.5
		s3.6,0.2,5.3,0.5c1.1-5,4.4-21.2,4.4-31.2c0-8.5,1.4-13.6,4-15.3c1.4-0.9,3.1-0.8,5.2,0.2c8,4,10.2,15.2,9.7,19.2
		c0,0.2,0,0.4-0.1,0.7c-0.2,2.4-0.7,7.5-3.1,13.3c-1,2.4-2.1,4.6-3.5,6.6c-0.9,1.4-1.9,2.7-3,3.9c-1.6,1.9-3.5,3.6-5.5,5.2
		c9.6,4.7,16.1,14.3,16.1,25.2c0,2.2-0.3,4.4-0.8,6.5c-0.3,1-0.6,2.1-0.9,3c-0.4,1-0.8,2-1.3,2.9c0.8,0,1.5,0.1,2.2,0.3
		c0.2,0.1,0.5,0.1,0.7,0.2c0.9,0.3,1.8,0.8,2.5,1.5c1.5,1.3,2.3,3.1,2.3,5.1c0,2.2-1,4.3-2.8,5.9c-0.2,0.2-0.5,0.4-0.7,0.6
		c-1.7,1.3-3.8,1.9-5.9,1.9c-0.4,0-0.8,0-1.2-0.1c-0.8-0.1-1.5-0.3-2.2-0.6c-0.4-0.1-0.7-0.3-1-0.5c-0.5,0.9-1.1,1.7-1.9,2.4
		c-1.8,1.7-4.2,2.5-6.6,2.5c-1.9,0-3.8-0.6-5.3-1.7c-1.7,1.7-4.1,2.7-6.9,2.7c-3,0-5.7-1.3-7.4-3.2c-1.4,0.9-3.1,1.4-4.8,1.4
		c-1.7,0-3.5-0.5-5.1-1.4c-0.5-0.3-1-0.7-1.5-1.1c-0.4-0.3-0.7-0.7-1.1-1.1c-0.2-0.2-0.3-0.4-0.4-0.6c-0.1-0.2-0.3-0.4-0.4-0.6
		c-0.7,0.4-1.4,0.7-2.1,0.9c-0.7,0.2-1.5,0.3-2.3,0.3c-1.5,0-2.9-0.3-4.3-1c-0.8-0.4-1.6-0.9-2.3-1.5c-1.8-1.6-2.8-3.8-2.8-5.9
		c0-1.5,0.5-2.9,1.3-4c0.3-0.4,0.6-0.8,1-1.1c1-0.9,2.3-1.6,3.7-1.8c0.5-0.1,0.9-0.2,1.4-0.2c-1.7-3.5-2.6-7.5-2.6-11.6
		c0-11,6.6-20.5,16.1-25.2c-5.4-4.2-9.4-9.4-12-15.7c-0.9-2.2-1.5-4.2-2-6.1c-0.7-3.1-1-5.6-1.2-7.2c0-0.3,0-0.5-0.1-0.7
		c-0.1-0.8-0.1-1.8,0-2.9C370.6,136.7,372.9,129.5,378.4,125.9z M219.2,125c7,3.5,9.5,12.5,9.8,17.4c0,0.7,0,1.3,0,1.8
		c0,0.2,0,0.4-0.1,0.7c-0.2,2.4-0.7,7.5-3.1,13.3c-1,2.4-2.1,4.6-3.5,6.6c-0.9,1.4-1.9,2.7-3,3.9c-1.6,1.9-3.5,3.6-5.5,5.2
		c9.6,4.7,16.1,14.3,16.1,25.2c0,2.2-0.3,4.4-0.8,6.5c-0.3,1-0.6,2.1-0.9,3c-0.4,1-0.8,2-1.3,2.9c2,0,4,0.7,5.5,2
		c1.5,1.3,2.3,3.1,2.3,5.1c0,1.6-0.6,3.3-1.6,4.6c-0.2,0.2-0.4,0.5-0.6,0.7s-0.4,0.4-0.6,0.6c-1.8,1.7-4.2,2.5-6.6,2.5
		c-1.6,0-3.1-0.4-4.5-1.2c-0.5,0.9-1.1,1.7-1.9,2.4c-1.8,1.7-4.2,2.5-6.6,2.5c-1.9,0-3.8-0.6-5.3-1.7c-1.7,1.7-4.1,2.7-6.9,2.7
		c-3,0-5.7-1.3-7.4-3.2c-1.4,0.9-3.1,1.4-4.8,1.4c-1.7,0-3.5-0.5-5.1-1.4c-0.5-0.3-1-0.7-1.5-1.1c-0.4-0.3-0.7-0.7-1.1-1.1
		c-0.3-0.4-0.6-0.8-0.8-1.2c-0.7,0.4-1.4,0.7-2.1,0.9c-0.7,0.2-1.5,0.3-2.3,0.3c-1.5,0-2.9-0.3-4.3-1c-0.8-0.4-1.6-0.9-2.3-1.5
		c-1.8-1.6-2.8-3.8-2.8-5.9c0-1.5,0.5-2.9,1.3-4c0.3-0.4,0.6-0.8,1-1.1c1-0.9,2.3-1.6,3.7-1.8c0.5-0.1,0.9-0.2,1.4-0.2
		c-1.7-3.5-2.6-7.5-2.6-11.6c0-11,6.6-20.5,16.1-25.2c-5.4-4.2-9.4-9.4-12-15.7c-0.7-1.8-1.3-3.5-1.7-5.2c-0.9-3.5-1.2-6.4-1.4-8.1
		c0-0.3,0-0.5-0.1-0.7c-0.4-3.8,1.5-13.9,8.3-18.4c0.5-0.3,0.9-0.6,1.4-0.8c0.3-0.1,0.5-0.2,0.7-0.3c1.7-0.7,3.2-0.6,4.4,0.1
		c2.7,1.7,4,6.8,4,15.3c0,10,3.3,26.2,4.4,31.2c1.7-0.3,3.5-0.5,5.3-0.5s3.6,0.2,5.3,0.5c1.1-5,4.4-21.2,4.4-31.2
		c0-8.5,1.4-13.6,4-15.3C215.5,123.9,217.2,124,219.2,125z M126,323.3c-1.6,0-3.1-0.4-4.5-1.2c-0.2,0.4-0.5,0.8-0.8,1.2
		c-0.3,0.4-0.7,0.8-1.1,1.1c-1.8,1.7-4.2,2.5-6.6,2.5c-1.9,0-3.8-0.6-5.3-1.7c-1,1-2.4,1.8-4,2.3c-0.9,0.3-1.9,0.4-3,0.4
		c-2.7,0-5.1-1-6.7-2.5c-0.2-0.2-0.5-0.4-0.7-0.7c-1.4,0.9-3.1,1.4-4.8,1.4c-2.3,0-4.7-0.8-6.6-2.5c-0.8-0.7-1.4-1.5-1.9-2.4
		c-1.3,0.8-2.9,1.2-4.5,1.2c-2.3,0-4.7-0.8-6.6-2.5c-1.8-1.6-2.8-3.8-2.8-5.9c0-2,0.8-3.8,2.3-5.1c1.4-1.3,3.2-1.9,5.1-2
		c-1.7-3.5-2.6-7.5-2.6-11.6c0-8,3.5-15.2,9-20.3v0c2.1-2,4.5-3.6,7.1-4.9c-2.7-2.1-5.1-4.5-7.1-7.1v0c-2-2.6-3.6-5.5-4.9-8.6
		c-0.4-1.1-0.8-2.1-1.2-3.2c-1.4-4.4-1.8-8.1-2-10.1c0-0.3,0-0.5-0.1-0.7c-0.4-3.3,1-11.3,5.8-16.3c0.7-0.7,1.4-1.4,2.3-1.9v0
		c0.5-0.4,1.1-0.7,1.6-1c0.3-0.1,0.5-0.2,0.7-0.3c1-0.4,1.9-0.5,2.7-0.5c0.6,0.1,1.2,0.3,1.7,0.6c0.7,0.4,1.3,1,1.8,1.9
		c1.5,2.5,2.3,7,2.3,13.4c0,10,3.3,26.2,4.4,31.2c1.7-0.3,3.5-0.5,5.3-0.5s3.6,0.2,5.3,0.5c0.1-0.3,0.1-0.7,0.2-1.1s0.2-0.8,0.3-1.3
		c0.1-0.7,0.3-1.5,0.5-2.3c0.1-0.6,0.2-1.2,0.3-1.8c0.1-0.6,0.2-1.3,0.4-1.9c0.1-0.7,0.2-1.4,0.4-2.1c0.3-1.8,0.6-3.6,0.9-5.5
		c0.1-0.8,0.2-1.5,0.3-2.3c0.6-4.6,1.1-9.2,1.1-12.9c0-5.3,0.5-9.3,1.6-11.9c0.6-1.6,1.5-2.7,2.5-3.3c0.4-0.2,0.7-0.4,1.1-0.5
		c0.6-0.1,1.2-0.2,1.9,0c0.7,0.1,1.4,0.4,2.2,0.7c1,0.5,1.9,1.1,2.7,1.8c0.4,0.3,0.8,0.7,1.2,1.1c1.5,1.6,2.6,3.4,3.5,5.3
		c0.2,0.5,0.4,0.9,0.6,1.4c0.4,1,0.7,1.9,0.9,2.8c0.4,1.4,0.6,2.7,0.7,3.9c0.1,1.2,0.1,2.2,0,2.9c0,0.2,0,0.4-0.1,0.7
		c-0.1,1.2-0.3,3.1-0.8,5.4c-0.3,1.7-0.8,3.7-1.6,5.8c-0.2,0.7-0.5,1.4-0.8,2.1c-0.3,0.8-0.7,1.6-1,2.3c-1.5,3-3.3,5.8-5.5,8.3
		c-1.6,1.9-3.5,3.6-5.5,5.2c6.6,3.2,11.7,8.8,14.3,15.5c0.2,0.6,0.4,1.2,0.6,1.9c0.4,1.3,0.7,2.5,0.9,3.9c0.2,1.3,0.3,2.7,0.3,4
		c0,1.7-0.2,3.3-0.4,4.9c-0.5,2.6-1.3,5.2-2.5,7.5c2,0,4,0.7,5.5,2c1.5,1.3,2.3,3.1,2.3,5.1c0,2.2-1,4.3-2.8,5.9
		c-0.2,0.2-0.5,0.4-0.7,0.6C130.2,322.6,128.1,323.3,126,323.3z M126,474.7c-1.6,0-3.1-0.4-4.5-1.2c-0.1,0.2-0.2,0.4-0.4,0.6
		c-0.3,0.4-0.6,0.8-0.9,1.2c-0.2,0.2-0.4,0.4-0.6,0.5c-1.8,1.7-4.2,2.5-6.6,2.5c-1.9,0-3.8-0.6-5.3-1.7c-1,1-2.4,1.8-4,2.3
		c-0.9,0.3-1.9,0.4-3,0.4c-2.7,0-5.1-1-6.7-2.5c-0.2-0.2-0.5-0.4-0.7-0.7c-1.4,0.9-3.1,1.4-4.8,1.4c-2.3,0-4.7-0.8-6.6-2.5
		c-0.8-0.7-1.4-1.5-1.9-2.4c-1.3,0.8-2.9,1.2-4.5,1.2c-2.3,0-4.7-0.8-6.6-2.5c-1.8-1.6-2.8-3.8-2.8-5.9c0-0.5,0.1-1,0.2-1.4
		c0.3-1.4,1-2.7,2.2-3.7c1.4-1.3,3.2-1.9,5.1-2c-0.2-0.4-0.4-0.9-0.6-1.3c-0.4-0.9-0.7-1.8-1-2.8c-0.4-1.4-0.7-2.9-0.9-4.4
		c-0.1-1-0.2-2-0.2-3.1c0-8,3.5-15.2,9-20.3v0c2.1-2,4.5-3.6,7.1-4.9c-2.7-2.1-5.1-4.5-7.1-7.1v0c-2-2.6-3.6-5.5-4.9-8.6
		c-0.4-1.1-0.8-2.1-1.2-3.2c-1.4-4.4-1.8-8.1-2-10.1c0-0.3,0-0.5-0.1-0.7c-0.4-3.7,1.4-13.6,8.1-18.2v0c0.5-0.4,1.1-0.7,1.6-1
		c0.3-0.1,0.5-0.2,0.7-0.3c1-0.4,1.9-0.5,2.7-0.5c0.2,0,0.4,0.1,0.6,0.1c0.4,0.1,0.8,0.3,1.1,0.5c0.7,0.4,1.3,1,1.8,1.9
		c0.4,0.6,0.7,1.4,1,2.3c0.2,0.6,0.4,1.2,0.5,1.9c0.5,2.4,0.8,5.5,0.8,9.2c0,10,3.3,26.2,4.4,31.2c1.7-0.3,3.5-0.5,5.3-0.5
		s3.6,0.2,5.3,0.5c1.1-5,4.4-21.2,4.4-31.2c0-8.5,1.4-13.6,4-15.3c0.7-0.4,1.5-0.6,2.4-0.6c0.4,0,0.9,0.1,1.4,0.2
		c0.5,0.1,1,0.3,1.5,0.6c6.5,3.3,9.2,11.3,9.7,16.3c0.1,1.2,0.1,2.2,0,2.9c0,0.2,0,0.4-0.1,0.7c-0.2,2.1-0.6,6.3-2.3,11.1
		c-0.2,0.7-0.5,1.4-0.8,2.1c-0.3,0.8-0.7,1.6-1,2.3c-2.6,5.3-6.3,9.8-11,13.4c6.6,3.2,11.7,8.8,14.3,15.5c0.2,0.6,0.4,1.2,0.6,1.9
		c0.4,1.3,0.7,2.5,0.9,3.9c0.2,1.3,0.3,2.7,0.3,4c0,1.7-0.2,3.3-0.4,4.9c-0.5,2.6-1.3,5.2-2.5,7.5c2,0,4,0.7,5.5,2
		c1.5,1.3,2.3,3.1,2.3,5.1c0,2.2-1,4.3-2.8,5.9c-0.2,0.2-0.5,0.4-0.7,0.6C130.2,474.1,128.1,474.7,126,474.7z M323.4,474.6
		c-0.8-0.1-1.5-0.3-2.2-0.6c-0.4-0.1-0.7-0.3-1-0.5c-0.1,0.2-0.2,0.4-0.4,0.6c-0.3,0.4-0.6,0.8-0.9,1.2c-0.2,0.2-0.4,0.4-0.6,0.5
		c-1.8,1.7-4.2,2.5-6.6,2.5c-1.9,0-3.8-0.6-5.3-1.7c-1,1-2.4,1.8-4,2.3c-0.9,0.3-1.9,0.4-3,0.4c-1.9,0-3.7-0.5-5.1-1.3
		c-0.9-0.5-1.6-1.1-2.2-1.8c-1.4,0.9-3.1,1.4-4.8,1.4c-2.3,0-4.7-0.8-6.6-2.5c-0.6-0.5-1.1-1.1-1.5-1.7c-0.1-0.2-0.3-0.4-0.4-0.6
		c-1.3,0.8-2.9,1.2-4.5,1.2c-2.3,0-4.7-0.8-6.6-2.5c-1.8-1.6-2.8-3.8-2.8-5.9c0-0.5,0.1-1,0.2-1.4c0.1-0.2,0.1-0.5,0.2-0.7
		s0.2-0.4,0.3-0.7c0.4-0.9,1-1.7,1.7-2.3c1.4-1.3,3.2-1.9,5.1-2c-0.2-0.4-0.4-0.9-0.6-1.3c-0.4-0.9-0.7-1.8-1-2.8
		c-0.4-1.4-0.7-2.9-0.9-4.4c-0.1-1-0.2-2-0.2-3.1c0-8,3.5-15.2,9-20.3v0c2.1-2,4.5-3.6,7.1-4.9c-2.7-2.1-5.1-4.5-7.1-7.1v0
		c-1-1.3-1.9-2.6-2.7-4.1c-0.4-0.7-0.8-1.5-1.2-2.2s-0.7-1.5-1-2.3c-2.4-5.8-2.9-10.8-3.1-13.3c0-0.3,0-0.5-0.1-0.7
		c-0.4-3.7,1.4-13.6,8.1-18.2v0c0.5-0.4,1.1-0.7,1.6-1c0.3-0.1,0.5-0.2,0.7-0.3c1-0.4,1.9-0.5,2.7-0.5c0.2,0,0.4,0.1,0.6,0.1
		c0.4,0.1,0.8,0.3,1.1,0.5c0.7,0.4,1.3,1,1.8,1.9c0.4,0.6,0.7,1.4,1,2.3c0.2,0.6,0.4,1.2,0.5,1.9c0.5,2.4,0.8,5.5,0.8,9.2
		c0,10,3.3,26.2,4.4,31.2c1.7-0.3,3.5-0.5,5.3-0.5s3.6,0.2,5.3,0.5c1.1-5,4.4-21.2,4.4-31.2c0-8.5,1.4-13.6,4-15.3
		c0.7-0.4,1.5-0.6,2.4-0.6c0.4,0,0.9,0.1,1.4,0.2c0.5,0.1,1,0.3,1.5,0.6c7,3.5,9.5,12.5,9.8,17.4c0,0.7,0,1.3,0,1.8
		c0,0.2,0,0.4-0.1,0.7c-0.2,2.3-0.7,6.9-2.7,12.2c-0.1,0.4-0.3,0.7-0.4,1.1c-2.6,6.3-6.6,11.6-12,15.7c6.6,3.2,11.7,8.8,14.3,15.5
		c0.2,0.6,0.4,1.2,0.6,1.9c0.4,1.3,0.7,2.5,0.9,3.9c0.2,1.3,0.3,2.7,0.3,4c0,1.1-0.1,2.2-0.2,3.3c-0.4,3.2-1.3,6.3-2.8,9.1
		c0.8,0,1.5,0.1,2.2,0.3c0.2,0.1,0.5,0.1,0.7,0.2c0.9,0.3,1.8,0.8,2.5,1.5c1.5,1.3,2.3,3.1,2.3,5.1c0,2.2-1,4.3-2.8,5.9
		c-0.2,0.2-0.5,0.4-0.7,0.6c-1.7,1.3-3.8,1.9-5.9,1.9C324.2,474.7,323.8,474.7,323.4,474.6z"/>
	<path class="st0" d="M304.6,6.1c0.1,0.5,0.1,1,0.1,1.4h0h0h6.5h0c0-2.5-0.6-5-1.9-7.5h-7.3C303.4,2.1,304.3,4.1,304.6,6.1z"/>
	<polygon class="st0" points="289.3,7.5 289.3,7.5 295.8,7.5 295.8,7.5 295.8,0 289.3,0 289.3,7.5 	"/>
	<path class="st1" d="M373.3,6.7c2.6,6.3,6.6,11.6,12,15.7c-9.6,4.7-16.1,14.3-16.1,25.2c0,4.1,0.9,8.1,2.6,11.6
		c-0.5,0-0.9,0.1-1.4,0.2c-1.4,0.3-2.7,0.9-3.7,1.8c-0.4,0.3-0.7,0.7-1,1.1c-0.9,1.2-1.3,2.6-1.3,4c0,0.5,0.1,1.1,0.2,1.6
		c0.4,1.6,1.3,3.1,2.6,4.3c1.8,1.7,4.2,2.5,6.6,2.5c1.6,0,3.1-0.4,4.5-1.2c0.1,0.2,0.2,0.4,0.4,0.6c0.4,0.6,0.9,1.2,1.5,1.7
		c1.8,1.7,4.2,2.5,6.6,2.5c1.7,0,3.4-0.5,4.8-1.4c0.4,0.5,0.9,0.9,1.4,1.3c0.8,0.6,1.7,1,2.7,1.4c0.7,0.2,1.4,0.4,2.1,0.4
		c0.4,0,0.7,0.1,1.1,0.1c2.8,0,5.3-1.1,6.9-2.7c1.5,1.1,3.3,1.7,5.3,1.7c2.3,0,4.7-0.8,6.6-2.5c0.2-0.2,0.4-0.4,0.6-0.5
		c0.4-0.4,0.7-0.8,0.9-1.2c0.1-0.2,0.3-0.4,0.4-0.6c0.3,0.2,0.7,0.4,1,0.5c0.7,0.3,1.5,0.5,2.2,0.6c0.4,0,0.8,0.1,1.2,0.1
		c1.7,0,3.5-0.5,5.1-1.4c0.3-0.2,0.5-0.3,0.8-0.5c0.2-0.2,0.5-0.4,0.7-0.6c0.9-0.8,1.6-1.7,2.1-2.8c0.5-1,0.7-2.1,0.7-3.2
		c0-2-0.8-3.8-2.3-5.1c-0.7-0.7-1.6-1.2-2.5-1.5c-0.2-0.1-0.5-0.2-0.7-0.2c-0.7-0.2-1.5-0.3-2.2-0.3c1.9-3.7,3-7.9,3-12.4
		c0-11-6.6-20.5-16.1-25.2c0.7-0.5,1.3-1.1,2-1.6c0.9-0.8,1.7-1.6,2.5-2.5h0c3.2-3.4,5.7-7.3,7.5-11.7c1-2.4,1.7-4.7,2.1-6.7h-18.8
		c-1.1,8.1-2.8,16.5-3.5,19.8c-1.7-0.3-3.5-0.5-5.3-0.5s-3.6,0.2-5.3,0.5c-0.7-3.3-2.5-11.7-3.5-19.8h-18.8c0,0.2,0.1,0.4,0.1,0.6
		C371.7,2.5,372.4,4.6,373.3,6.7z M407.1,36L407.1,36c-0.1,0.6-0.2,1.2-0.3,1.8c-0.1,0.4-0.3,0.9-0.4,1.3c-0.6,1.7-1.5,3.1-2.7,4.4
		c-0.9,0.9-1.9,1.7-3.1,2.4c6.6,5.6,9.9,11.3,9.9,17h0h-6.5h0c0-1-0.1-1.9-0.4-2.9c-0.4-1.4-1.1-2.9-2.1-4.4c-1-1.5-2.3-3-4-4.5
		c-1.4-1.3-2.1-1.9-2.3-1.9v13.7h-6.5h0V36l6.5,0v7.1c0.1,0,0.3,0,0.4-0.1c0.3-0.1,0.6-0.2,0.9-0.4c0.3-0.2,0.6-0.5,0.9-0.9
		c0.5-0.6,1-1.3,1.5-2.2c0.1-0.2,0.2-0.4,0.3-0.6c0.4-0.7,0.8-1.7,1.3-2.9h0H407.1z"/>
	<path class="st1" d="M471,4c-1.4,0.1-2.8,0.5-4,1.2c-0.4,0.2-0.8,0.5-1.1,0.8c-0.9,0.8-1.6,1.9-2,3c-0.2,0.7-0.3,1.4-0.3,2.1
		c0,2.2,1,4.3,2.8,5.9c1.8,1.7,4.2,2.5,6.6,2.5c1.6,0,3.1-0.4,4.5-1.2c0.5,0.9,1.1,1.7,1.9,2.4c1.8,1.7,4.2,2.5,6.6,2.5
		c1.7,0,3.4-0.5,4.8-1.4c0.6,0.7,1.4,1.3,2.2,1.8c0.6,0.3,1.2,0.6,1.9,0.8c0.3,0.1,0.7,0.2,1,0.3c0.7,0.1,1.4,0.2,2.2,0.2
		c0.7,0,1.3-0.1,1.9-0.2V0h-5.6v7.5h-6.5h0h0V0h-18.3c0.1,0.4,0.3,0.8,0.4,1.3C470.3,2.2,470.6,3.1,471,4z"/>
	<path class="st0" d="M393.5,19.8c1.7-0.3,3.5-0.5,5.3-0.5s3.6,0.2,5.3,0.5c0.7-3.3,2.5-11.7,3.5-19.8h-17.7
		C391,8.1,392.7,16.5,393.5,19.8z"/>
	<path class="st0" d="M400.6,36c-0.5,1.2-1,2.2-1.3,2.9c-0.1,0.2-0.2,0.5-0.3,0.6c-0.5,0.9-1,1.6-1.5,2.2c-0.3,0.4-0.6,0.7-0.9,0.9
		c-0.3,0.2-0.6,0.4-0.9,0.4c-0.1,0-0.3,0.1-0.4,0.1V36l-6.5,0v26.8h0h6.5V49.2c0.2,0,1,0.6,2.3,1.9c1.6,1.5,2.9,3,4,4.5
		c1,1.5,1.7,3,2.1,4.4c0.3,1,0.4,1.9,0.4,2.9h0h6.5h0c0-5.7-3.3-11.4-9.9-17c1.2-0.7,2.2-1.5,3.1-2.4c1.2-1.2,2.1-2.7,2.7-4.4
		c0.2-0.4,0.3-0.8,0.4-1.3c0.1-0.6,0.2-1.2,0.3-1.8h0H400.6L400.6,36z"/>
	<path class="st0" d="M301.3,132.1L301.3,132.1c-0.7,1.6-1.3,2.8-1.7,3.6c-1,1.8-2,2.9-2.9,3.3c-0.3,0.1-0.6,0.2-0.9,0.2v-7.1
		l-6.5,0V159h0h0h6.5h0v-13.7c0.2,0,1,0.6,2.3,1.9c1.1,1,2,2,2.8,3c2,2.5,3.2,4.9,3.5,7.3c0.1,0.5,0.1,1,0.1,1.4h0h0h6.5h0
		c0-5.7-3.3-11.4-9.9-17c3.1-1.9,5.2-4.6,6.2-8.1c0.1-0.6,0.2-1.2,0.3-1.8H301.3L301.3,132.1z"/>
	<path class="st1" d="M370.1,144.3c0,0.2,0,0.4,0.1,0.7c0.2,1.5,0.4,4.1,1.2,7.2c0.4,1.9,1.1,3.9,2,6.1c2.6,6.3,6.6,11.6,12,15.7
		c-9.6,4.7-16.1,14.3-16.1,25.2c0,4.1,0.9,8.1,2.6,11.6c-0.5,0-0.9,0.1-1.4,0.2c-1.4,0.3-2.7,0.9-3.7,1.8c-0.4,0.3-0.7,0.7-1,1.1
		c-0.9,1.2-1.3,2.6-1.3,4c0,2.2,1,4.3,2.8,5.9c0.7,0.6,1.5,1.1,2.3,1.5c1.4,0.6,2.8,1,4.3,1c0.8,0,1.6-0.1,2.3-0.3
		c0.7-0.2,1.5-0.5,2.1-0.9c0.1,0.2,0.2,0.4,0.4,0.6c0.1,0.2,0.3,0.4,0.4,0.6c0.3,0.4,0.7,0.8,1.1,1.1c0.5,0.4,1,0.8,1.5,1.1
		c1.6,0.9,3.3,1.4,5.1,1.4c1.7,0,3.4-0.5,4.8-1.4c1.6,1.9,4.3,3.2,7.4,3.2c2.8,0,5.3-1.1,6.9-2.7c1.5,1.1,3.3,1.7,5.3,1.7
		c2.3,0,4.7-0.8,6.6-2.5c0.8-0.7,1.4-1.5,1.9-2.4c0.3,0.2,0.7,0.4,1,0.5c0.7,0.3,1.5,0.5,2.2,0.6c0.4,0,0.8,0.1,1.2,0.1
		c2,0,4.1-0.6,5.9-1.9c0.2-0.2,0.5-0.4,0.7-0.6c1.8-1.6,2.8-3.8,2.8-5.9c0-2-0.8-3.8-2.3-5.1c-0.7-0.7-1.6-1.2-2.5-1.5
		c-0.2-0.1-0.5-0.2-0.7-0.2c-0.7-0.2-1.5-0.3-2.2-0.3c0.5-0.9,0.9-1.9,1.3-2.9c0.4-1,0.7-2,0.9-3c0.5-2.1,0.8-4.2,0.8-6.5
		c0-11-6.6-20.5-16.1-25.2c2-1.6,3.9-3.3,5.5-5.2c1.1-1.2,2.1-2.6,3-3.9c1.4-2.1,2.5-4.3,3.5-6.6c2.4-5.8,2.9-10.8,3.1-13.3
		c0-0.3,0-0.5,0.1-0.7c0.4-4-1.7-15.2-9.7-19.2c-2-1-3.8-1.1-5.2-0.2c-2.7,1.7-4,6.8-4,15.3c0,10-3.3,26.2-4.4,31.2
		c-1.7-0.3-3.5-0.5-5.3-0.5s-3.6,0.2-5.3,0.5c-1.1-5-4.4-21.2-4.4-31.2c0-8.5-1.4-13.6-4-15.3c-1.2-0.8-2.7-0.8-4.4-0.1
		c-0.2,0.1-0.5,0.2-0.7,0.3c-0.5,0.3-1,0.5-1.4,0.8c-5.5,3.6-7.8,10.8-8.3,15.5C370,142.5,370,143.5,370.1,144.3z M407.1,187.5
		L407.1,187.5c-0.1,0.6-0.2,1.2-0.3,1.8c-0.1,0.4-0.3,0.9-0.4,1.3c-0.6,1.7-1.5,3.1-2.7,4.4c-0.9,0.9-1.9,1.7-3.1,2.4
		c6.6,5.6,9.9,11.3,9.9,17h0h-6.5h0c0-1-0.1-1.9-0.4-2.9c-0.8-2.9-2.8-5.9-6.1-8.9c-0.5-0.5-0.9-0.9-1.3-1.2
		c-0.1-0.1-0.2-0.2-0.3-0.3c-0.2-0.2-0.4-0.3-0.5-0.4c-0.1-0.1-0.2-0.1-0.3-0.1v13.7h-6.5h0v-26.8l6.5,0v7.1c0.1,0,0.3,0,0.4-0.1
		c0.3-0.1,0.6-0.2,0.9-0.4c0.3-0.2,0.6-0.5,0.9-0.9c0.5-0.6,1-1.3,1.5-2.2c0.4-0.8,1-1.9,1.7-3.6h0H407.1z"/>
	<path class="st0" d="M400.6,187.5c-0.7,1.6-1.3,2.8-1.7,3.6c-0.5,0.9-1,1.6-1.5,2.2c-0.3,0.4-0.6,0.7-0.9,0.9
		c-0.3,0.2-0.6,0.4-0.9,0.4c-0.1,0-0.3,0.1-0.4,0.1v-7.1l-6.5,0v26.8h0h6.5v-13.7c0.1,0,0.1,0,0.3,0.1c0.1,0.1,0.3,0.2,0.5,0.4
		c0.1,0.1,0.2,0.2,0.3,0.3c0.3,0.3,0.8,0.7,1.3,1.2c3.2,3,5.3,6,6.1,8.9c0.3,1,0.4,1.9,0.4,2.9h0h6.5h0c0-5.7-3.3-11.4-9.9-17
		c1.2-0.7,2.2-1.5,3.1-2.4c1.2-1.2,2.1-2.7,2.7-4.4c0.2-0.4,0.3-0.8,0.4-1.3c0.1-0.6,0.2-1.2,0.3-1.8h0H400.6L400.6,187.5z"/>
	<path class="st0" d="M301.3,283.6L301.3,283.6c-0.7,1.6-1.3,2.8-1.7,3.6c-0.5,0.9-1,1.6-1.5,2.2c-0.5,0.6-1,0.9-1.4,1.2
		c-0.3,0.1-0.6,0.2-0.9,0.2v-7.1l-6.5,0v26.8h0h0h6.5h0v-13.7c0.2,0,1,0.6,2.3,1.9c1.1,1,2,2,2.8,3c2,2.5,3.2,4.9,3.5,7.3
		c0.1,0.5,0.1,1,0.1,1.4h0h0h6.5h0c0-5.7-3.3-11.4-9.9-17c3.1-1.9,5.2-4.6,6.2-8.1c0.1-0.6,0.2-1.2,0.3-1.8H301.3L301.3,283.6z"/>
	<path class="st1" d="M330.4,321.4c0.2-0.2,0.5-0.4,0.7-0.6c1.8-1.6,2.8-3.8,2.8-5.9c0-2-0.8-3.8-2.3-5.1c-0.7-0.7-1.6-1.2-2.5-1.5
		c-0.2-0.1-0.5-0.2-0.7-0.2c-0.7-0.2-1.5-0.3-2.2-0.3c1.4-2.8,2.4-5.9,2.8-9.1c0.1-1.1,0.2-2.2,0.2-3.3c0-1.4-0.1-2.7-0.3-4
		c-0.2-1.3-0.5-2.6-0.9-3.9c-0.2-0.6-0.4-1.2-0.6-1.9c-2.6-6.7-7.7-12.2-14.3-15.5c2-1.6,3.9-3.3,5.5-5.2c2.7-3.1,4.9-6.7,6.5-10.6
		c0.1-0.4,0.3-0.7,0.4-1.1c0.9-2.5,1.5-4.8,1.9-6.8c0.5-2.3,0.6-4.2,0.8-5.4c0-0.3,0-0.5,0.1-0.7c0.1-0.5,0.1-1.1,0-1.8
		c-0.1-1.4-0.3-3.1-0.8-5c-0.2-0.9-0.6-1.9-0.9-2.8c-0.2-0.5-0.4-1-0.6-1.4c-0.9-1.9-2-3.7-3.5-5.3c-0.4-0.4-0.8-0.8-1.2-1.1
		c-0.8-0.7-1.7-1.3-2.7-1.8c-0.8-0.4-1.5-0.6-2.2-0.7c-0.7-0.1-1.3-0.1-1.9,0c-0.4,0.1-0.8,0.3-1.1,0.5c-1,0.6-1.8,1.7-2.5,3.3
		c-1.1,2.7-1.6,6.6-1.6,11.9c0,3.7-0.5,8.4-1.1,12.9c-0.1,0.8-0.2,1.5-0.3,2.3c-0.3,1.9-0.6,3.7-0.9,5.5c-0.1,0.7-0.2,1.4-0.4,2.1
		c-0.1,0.7-0.2,1.3-0.4,1.9c-0.1,0.6-0.2,1.2-0.3,1.8c-0.2,0.8-0.3,1.6-0.5,2.3c-0.1,0.5-0.2,0.9-0.3,1.3s-0.2,0.8-0.2,1.1
		c-1.7-0.3-3.5-0.5-5.3-0.5s-3.6,0.2-5.3,0.5c-1.1-5-4.4-21.2-4.4-31.2c0-6.4-0.8-10.8-2.3-13.4c-0.5-0.8-1.1-1.5-1.8-1.9
		c-0.5-0.3-1.1-0.5-1.7-0.6c-0.8-0.1-1.7,0.1-2.7,0.5c-0.2,0.1-0.5,0.2-0.7,0.3c-0.6,0.3-1.1,0.6-1.6,1v0c-0.8,0.6-1.6,1.2-2.3,1.9
		c-4.8,5-6.2,13.1-5.8,16.3c0,0.2,0,0.4,0.1,0.7c0.2,2.4,0.7,7.5,3.1,13.3c0.3,0.8,0.7,1.6,1,2.3s0.8,1.5,1.2,2.2
		c0.8,1.4,1.7,2.8,2.7,4.1v0c2,2.7,4.4,5,7.1,7.1c-2.6,1.3-5,3-7.1,4.9v0c-5.5,5.2-9,12.4-9,20.3c0,4.1,0.9,8.1,2.6,11.6
		c-1.9,0.1-3.7,0.8-5.1,2c-0.7,0.7-1.3,1.5-1.7,2.3c-0.1,0.2-0.2,0.4-0.3,0.7c-0.2,0.7-0.3,1.4-0.3,2.1c0,2.2,1,4.3,2.8,5.9
		c1.8,1.7,4.2,2.5,6.6,2.5c1.6,0,3.1-0.4,4.5-1.2c0.1,0.2,0.2,0.4,0.4,0.6c0.4,0.6,0.9,1.2,1.5,1.7c1.8,1.7,4.2,2.5,6.6,2.5
		c1.7,0,3.4-0.5,4.8-1.4c0.6,0.7,1.4,1.3,2.2,1.8c1.5,0.8,3.2,1.3,5.1,1.3c1,0,2-0.1,3-0.4c1.6-0.5,2.9-1.3,4-2.3
		c1.5,1.1,3.3,1.7,5.3,1.7c2.3,0,4.7-0.8,6.6-2.5c0.4-0.3,0.7-0.7,1.1-1.1s0.6-0.8,0.8-1.2c0.3,0.2,0.7,0.4,1,0.5
		c0.7,0.3,1.5,0.5,2.2,0.6c0.4,0,0.8,0.1,1.2,0.1C326.6,323.3,328.7,322.6,330.4,321.4z M307.8,283.6c-0.1,0.6-0.2,1.2-0.3,1.8
		c-1,3.6-3.1,6.3-6.2,8.1c6.6,5.6,9.9,11.3,9.9,17h0h-6.5h0h0c0-0.5,0-1-0.1-1.4c-0.3-2.4-1.5-4.8-3.5-7.3c-0.8-1-1.8-2-2.8-3
		c-1.4-1.3-2.1-1.9-2.3-1.9v13.7h0h-6.5h0h0v-26.8l6.5,0v7.1c0.3,0,0.6-0.1,0.9-0.2c0.5-0.2,0.9-0.6,1.4-1.2c0.5-0.6,1-1.3,1.5-2.2
		c0.4-0.8,1-1.9,1.7-3.6h0h0H307.8z"/>
	<path class="st1" d="M433.3,370.2c0-2-0.8-3.8-2.3-5.1c-0.7-0.7-1.6-1.2-2.5-1.5c-0.2-0.1-0.5-0.2-0.7-0.2
		c-0.7-0.2-1.5-0.3-2.2-0.3c1.9-3.7,3-7.9,3-12.4c0-11-6.6-20.5-16.1-25.2c2-1.6,3.9-3.3,5.5-5.2c1.1-1.2,2.1-2.6,3-3.9
		c1.4-2.1,2.5-4.3,3.5-6.6c2.4-5.8,2.9-10.8,3.1-13.3c0-0.3,0-0.5,0.1-0.7c0.4-4-1.7-15.2-9.7-19.2c-2-1-3.8-1.1-5.2-0.2
		c-2.7,1.7-4,6.8-4,15.3c0,10-3.3,26.2-4.4,31.2c-1.7-0.3-3.5-0.5-5.3-0.5s-3.6,0.2-5.3,0.5c-1.1-5-4.4-21.2-4.4-31.2
		c0-8.5-1.4-13.6-4-15.3c-1.4-0.9-3.1-0.8-5.2,0.2c-0.5,0.3-1,0.5-1.4,0.8c-5.5,3.6-7.8,10.8-8.3,15.5c-0.1,1.2-0.1,2.2,0,2.9
		c0,0.2,0,0.4,0.1,0.7c0.2,1.5,0.4,4.1,1.2,7.2c0.4,1.9,1.1,3.9,2,6.1c2.6,6.3,6.6,11.6,12,15.7c-9.6,4.7-16.1,14.3-16.1,25.2
		c0,4.1,0.9,8.1,2.6,11.6c-0.5,0-0.9,0.1-1.4,0.2c-1.4,0.3-2.7,0.9-3.7,1.8c-0.4,0.3-0.7,0.7-1,1.1c-0.9,1.2-1.3,2.6-1.3,4
		c0,2.2,1,4.3,2.8,5.9c1.8,1.7,4.2,2.5,6.6,2.5c1.6,0,3.1-0.4,4.5-1.2c0.1,0.2,0.2,0.4,0.4,0.6c0.4,0.6,0.9,1.2,1.5,1.7
		c1.8,1.7,4.2,2.5,6.6,2.5c1.7,0,3.4-0.5,4.8-1.4c1.6,1.9,4.3,3.2,7.4,3.2c2.8,0,5.3-1.1,6.9-2.7c0.7,0.6,1.6,1,2.5,1.3
		c0.9,0.3,1.8,0.4,2.8,0.4c2.3,0,4.7-0.8,6.6-2.5c0.8-0.7,1.4-1.5,1.9-2.4c0.3,0.2,0.7,0.4,1,0.5c0.7,0.3,1.5,0.5,2.2,0.6
		c0.4,0,0.8,0.1,1.2,0.1c2,0,4.1-0.6,5.9-1.9c0.2-0.2,0.5-0.4,0.7-0.6C432.2,374.5,433.3,372.3,433.3,370.2z M403.9,365.8
		L403.9,365.8c0-1-0.1-1.9-0.4-2.9c-0.5-1.9-1.6-3.9-3.2-5.9c-0.8-1-1.8-2-2.8-3c-1.4-1.3-2.1-1.9-2.3-1.9v13.7h-6.5h0v-26.8l6.5,0
		v7.1c0.1,0,0.3,0,0.4-0.1c0.3-0.1,0.6-0.2,0.9-0.4c0.3-0.2,0.6-0.5,0.9-0.9c0.5-0.6,1-1.3,1.5-2.2c0.4-0.8,1-1.9,1.7-3.6h0h6.5h0
		c-0.1,0.6-0.2,1.2-0.3,1.8c-0.4,1.3-0.9,2.5-1.6,3.6c-1.1,1.8-2.7,3.3-4.6,4.5c6.6,5.6,9.9,11.3,9.9,17h0H403.9z"/>
	<path class="st0" d="M410.5,365.8c0-5.7-3.3-11.4-9.9-17c2-1.2,3.5-2.6,4.6-4.5c0.7-1.1,1.2-2.3,1.6-3.6c0.1-0.6,0.2-1.2,0.3-1.8h0
		h-6.5h0c-0.7,1.6-1.3,2.8-1.7,3.6c-0.5,0.9-1,1.6-1.5,2.2c-0.3,0.4-0.6,0.7-0.9,0.9c-0.3,0.2-0.6,0.4-0.9,0.4
		c-0.1,0-0.3,0.1-0.4,0.1v-7.1l-6.5,0v26.8h0h6.5v-13.7c0.2,0,1,0.6,2.3,1.9c1.1,1,2,2,2.8,3c1.6,2,2.7,4,3.2,5.9
		c0.3,1,0.4,1.9,0.4,2.9h0H410.5L410.5,365.8z"/>
	<path class="st0" d="M301.3,435L301.3,435c-0.2,0.4-0.3,0.8-0.5,1.1s-0.3,0.7-0.4,1c-0.3,0.6-0.5,1.1-0.7,1.5c-1,1.8-2,2.9-2.9,3.3
		c-0.3,0.1-0.6,0.2-0.9,0.2V435v0l-6.5,0v26.8h0h0h6.5h0v-13.7c0.2,0,1,0.6,2.3,1.9c1.1,1,2,2,2.8,3c2,2.5,3.2,4.9,3.5,7.3
		c0.1,0.5,0.1,1,0.1,1.4h0h0h6.5h0c0-5.7-3.3-11.4-9.9-17c3.1-1.9,5.2-4.6,6.2-8.1c0.1-0.6,0.2-1.2,0.3-1.8H301.3L301.3,435z"/>
	<path class="st1" d="M330.4,472.8c0.2-0.2,0.5-0.4,0.7-0.6c1.8-1.6,2.8-3.8,2.8-5.9c0-2-0.8-3.8-2.3-5.1c-0.7-0.7-1.6-1.2-2.5-1.5
		c-0.2-0.1-0.5-0.2-0.7-0.2c-0.7-0.2-1.5-0.3-2.2-0.3c1.4-2.8,2.4-5.9,2.8-9.1c0.1-1.1,0.2-2.2,0.2-3.3c0-1.4-0.1-2.7-0.3-4
		c-0.2-1.3-0.5-2.6-0.9-3.9c-0.2-0.6-0.4-1.2-0.6-1.9c-2.6-6.7-7.7-12.2-14.3-15.5c5.4-4.2,9.4-9.4,12-15.7c0.1-0.4,0.3-0.7,0.4-1.1
		c2-5.3,2.5-9.9,2.7-12.2c0-0.3,0-0.5,0.1-0.7c0.1-0.5,0.1-1.1,0-1.8c-0.2-4.9-2.8-13.9-9.8-17.4c-0.5-0.3-1-0.4-1.5-0.6
		c-0.5-0.1-0.9-0.2-1.4-0.2c-0.9,0-1.7,0.2-2.4,0.6c-2.7,1.7-4,6.8-4,15.3c0,10-3.3,26.2-4.4,31.2c-1.7-0.3-3.5-0.5-5.3-0.5
		s-3.6,0.2-5.3,0.5c-1.1-5-4.4-21.2-4.4-31.2c0-3.7-0.3-6.8-0.8-9.2c-0.1-0.7-0.3-1.3-0.5-1.9c-0.3-0.9-0.6-1.6-1-2.3
		c-0.5-0.8-1.1-1.5-1.8-1.9c-0.4-0.2-0.7-0.4-1.1-0.5c-0.2,0-0.4-0.1-0.6-0.1c-0.8-0.1-1.7,0.1-2.7,0.5c-0.2,0.1-0.5,0.2-0.7,0.3
		c-0.6,0.3-1.1,0.6-1.6,1v0c-6.7,4.6-8.5,14.5-8.1,18.2c0,0.2,0,0.4,0.1,0.7c0.2,2.4,0.7,7.5,3.1,13.3c0.3,0.8,0.7,1.6,1,2.3
		s0.8,1.5,1.2,2.2c0.8,1.4,1.7,2.8,2.7,4.1v0c2,2.7,4.4,5,7.1,7.1c-2.6,1.3-5,3-7.1,4.9v0c-5.5,5.2-9,12.4-9,20.3
		c0,1,0.1,2.1,0.2,3.1c0.2,1.5,0.5,3,0.9,4.4c0.3,1,0.6,1.9,1,2.8c0.2,0.5,0.4,0.9,0.6,1.3c-1.9,0.1-3.7,0.8-5.1,2
		c-0.7,0.7-1.3,1.5-1.7,2.3c-0.1,0.2-0.2,0.4-0.3,0.7s-0.1,0.5-0.2,0.7c-0.1,0.5-0.2,0.9-0.2,1.4c0,2.2,1,4.3,2.8,5.9
		c1.8,1.7,4.2,2.5,6.6,2.5c1.6,0,3.1-0.4,4.5-1.2c0.1,0.2,0.2,0.4,0.4,0.6c0.4,0.6,0.9,1.2,1.5,1.7c1.8,1.7,4.2,2.5,6.6,2.5
		c1.7,0,3.4-0.5,4.8-1.4c0.6,0.7,1.4,1.3,2.2,1.8c1.5,0.8,3.2,1.3,5.1,1.3c1,0,2-0.1,3-0.4c1.6-0.5,2.9-1.3,4-2.3
		c1.5,1.1,3.3,1.7,5.3,1.7c2.3,0,4.7-0.8,6.6-2.5c0.2-0.2,0.4-0.4,0.6-0.5c0.4-0.4,0.7-0.8,0.9-1.2c0.1-0.2,0.3-0.4,0.4-0.6
		c0.3,0.2,0.7,0.4,1,0.5c0.7,0.3,1.5,0.5,2.2,0.6c0.4,0,0.8,0.1,1.2,0.1C326.6,474.7,328.7,474.1,330.4,472.8z M307.8,435
		c-0.1,0.6-0.2,1.2-0.3,1.8c-1,3.6-3.1,6.3-6.2,8.1c6.6,5.6,9.9,11.3,9.9,17h0h-6.5h0h0c0-0.5,0-1-0.1-1.4c-0.3-2.4-1.5-4.8-3.5-7.3
		c-0.8-1-1.8-2-2.8-3c-1.4-1.3-2.1-1.9-2.3-1.9v13.7h0h-6.5h0h0v-26.8l6.5,0v0v7.1c0.3,0,0.6-0.1,0.9-0.2c0.9-0.4,1.9-1.6,2.9-3.3
		c0.2-0.4,0.5-0.9,0.7-1.5c0.1-0.3,0.3-0.6,0.4-1s0.3-0.7,0.5-1.1h0h0H307.8z"/>
	<path class="st1" d="M412.3,476.8c2-1.6,3.9-3.3,5.5-5.2c1.1-1.2,2.1-2.6,3-3.9c1.4-2.1,2.5-4.3,3.5-6.6c2.4-5.8,2.9-10.8,3.1-13.3
		c0-0.3,0-0.5,0.1-0.7c0.4-4-1.7-15.2-9.7-19.2c-2-1-3.8-1.1-5.2-0.2c-0.3,0.2-0.7,0.5-0.9,0.8c-0.3,0.3-0.6,0.7-0.8,1.1
		c-0.1,0.2-0.2,0.4-0.4,0.7c-1,2.1-1.7,5.4-1.9,9.7c0,1-0.1,2-0.1,3c0,0.3,0,0.6,0,1c0,0.6,0,1.3-0.1,2c0,0.3,0,0.7-0.1,1
		c-0.1,2.1-0.4,4.4-0.7,6.7c-0.1,1.1-0.3,2.3-0.5,3.4c-0.1,0.8-0.2,1.5-0.3,2.3c-0.1,0.4-0.1,0.7-0.2,1.1c-0.4,2.6-0.9,5.1-1.3,7.2
		c-0.5,2.8-1,5.1-1.3,6.5c-1.7-0.3-3.5-0.5-5.3-0.5s-3.6,0.2-5.3,0.5c-1.1-5-4.4-21.2-4.4-31.2c0-8.5-1.4-13.6-4-15.3
		c-1.1-0.7-2.3-0.8-3.7-0.4c-0.5,0.1-1,0.3-1.5,0.6c-0.5,0.3-1,0.5-1.4,0.8c-5.5,3.6-7.8,10.8-8.3,15.5c-0.1,1.2-0.1,2.2,0,2.9
		c0,0.2,0,0.4,0.1,0.7c0.2,1.5,0.4,4.1,1.2,7.2c0.4,1.9,1.1,3.9,2,6.1c2.6,6.3,6.6,11.6,12,15.7c-8.9,4.4-15.3,13.1-16,23.2h19.3
		v-9.6l6.5,0v7.1c0.1,0,0.3,0,0.4-0.1c0.3-0.1,0.6-0.2,0.9-0.4c0.3-0.2,0.6-0.5,0.9-0.9c0.5-0.6,1-1.3,1.5-2.2
		c0.4-0.8,1-1.9,1.7-3.6h0h6.5h0c-0.1,0.6-0.2,1.2-0.3,1.8c-0.4,1.3-0.9,2.5-1.6,3.6c-1.1,1.7-2.5,3.1-4.3,4.2h27.4
		C427.6,489.9,421.3,481.3,412.3,476.8z"/>
	<path class="st0" d="M405.2,495.8c0.7-1.1,1.2-2.3,1.6-3.6c0.1-0.6,0.2-1.2,0.3-1.8h0h-6.5h0c-0.7,1.6-1.3,2.8-1.7,3.6
		c-0.5,0.9-1,1.6-1.5,2.2c-0.3,0.4-0.6,0.7-0.9,0.9c-0.3,0.2-0.6,0.4-0.9,0.4c-0.1,0-0.3,0.1-0.4,0.1v-7.1l-6.5,0v9.6H401
		C402.7,498.9,404.2,497.5,405.2,495.8z"/>
	<polygon class="st0" points="90.8,7.5 97.3,7.5 97.3,7.5 97.3,7.5 97.3,0 90.8,0 90.8,7.5 	"/>
	<path class="st0" d="M106.1,7.5h6.5h0h0c0-2.5-0.6-5-1.9-7.5h-7.3C105.2,2.6,106.1,5.1,106.1,7.5L106.1,7.5z"/>
	<path class="st1" d="M174.7,6.7c2.6,6.3,6.6,11.6,12,15.7c-9.6,4.7-16.1,14.3-16.1,25.2c0,4.1,0.9,8.1,2.6,11.6
		c-0.5,0-0.9,0.1-1.4,0.2c-1.4,0.3-2.7,0.9-3.7,1.8c-0.4,0.3-0.7,0.7-1,1.1c-0.9,1.2-1.3,2.6-1.3,4c0,0.5,0.1,1.1,0.2,1.6
		c0.4,1.6,1.3,3.1,2.6,4.3c1.8,1.7,4.2,2.5,6.6,2.5c1.6,0,3.1-0.4,4.5-1.2c0.5,0.9,1.1,1.7,1.9,2.4c1.8,1.7,4.2,2.5,6.6,2.5
		c1.7,0,3.4-0.5,4.8-1.4c0.4,0.5,0.9,0.9,1.4,1.3c0.8,0.6,1.7,1,2.7,1.4c0.7,0.2,1.4,0.4,2.1,0.4c0.4,0,0.7,0.1,1.1,0.1
		c2.8,0,5.3-1.1,6.9-2.7c1.5,1.1,3.3,1.7,5.3,1.7c2.3,0,4.7-0.8,6.6-2.5c0.2-0.2,0.4-0.4,0.6-0.5c0.4-0.4,0.7-0.8,0.9-1.2
		c0.1-0.2,0.3-0.4,0.4-0.6c1.3,0.8,2.9,1.2,4.5,1.2c1.7,0,3.5-0.5,5.1-1.4c0.5-0.3,1-0.7,1.5-1.1c0.2-0.2,0.4-0.4,0.6-0.6
		s0.4-0.4,0.6-0.7c0.3-0.5,0.6-0.9,0.9-1.5c0.5-1,0.7-2.1,0.7-3.2c0-2-0.8-3.8-2.3-5.1c-1.5-1.3-3.5-2-5.5-2c1.9-3.7,3-7.9,3-12.4
		c0-11-6.6-20.5-16.1-25.2c0.7-0.5,1.3-1.1,2-1.6c0.9-0.8,1.7-1.6,2.5-2.5h0c3.2-3.4,5.7-7.3,7.5-11.7c1-2.4,1.7-4.7,2.1-6.7h-18.8
		c-1.1,8.1-2.8,16.5-3.5,19.8c-1.7-0.3-3.5-0.5-5.3-0.5s-3.6,0.2-5.3,0.5c-0.7-3.3-2.5-11.7-3.5-19.8h-18.8c0.1,0.5,0.2,1,0.4,1.6
		C173.4,3.2,174,4.9,174.7,6.7z M208.6,36L208.6,36c-0.1,0.6-0.2,1.2-0.3,1.8c-0.1,0.4-0.3,0.9-0.4,1.3c-0.6,1.7-1.5,3.1-2.7,4.4
		c-0.9,0.9-1.9,1.7-3.1,2.4c6.6,5.6,9.9,11.3,9.9,17h0h0h-6.5h0c0-1-0.1-1.9-0.4-2.9c-0.3-1-0.7-1.9-1.2-2.9c-0.3-0.5-0.6-1-0.9-1.5
		s-0.7-1-1.1-1.5c-0.8-1-1.8-2-2.8-3c-0.2-0.2-0.3-0.3-0.5-0.4c-1.1-1-1.7-1.5-1.8-1.5v13.7h0H190h0V36l6.5,0v7.1
		c0.1,0,0.3,0,0.4-0.1c0.3-0.1,0.6-0.2,0.9-0.4c0.3-0.2,0.6-0.5,0.9-0.9c0.5-0.6,1-1.3,1.5-2.2c0.1-0.2,0.2-0.4,0.3-0.6
		c0.4-0.7,0.8-1.7,1.3-2.9h0H208.6z"/>
	<path class="st1" d="M268.5,5.2c-0.4,0.2-0.8,0.5-1.1,0.8c-0.7,0.7-1.3,1.5-1.7,2.3c-0.1,0.2-0.2,0.4-0.3,0.7
		c-0.2,0.7-0.3,1.4-0.3,2.1c0,2.2,1,4.3,2.8,5.9c1.8,1.7,4.2,2.5,6.6,2.5c1.6,0,3.1-0.4,4.5-1.2c0.1,0.2,0.2,0.4,0.4,0.6
		c0.4,0.6,0.9,1.2,1.5,1.7c1.8,1.7,4.2,2.5,6.6,2.5c1.7,0,3.4-0.5,4.8-1.4c0.6,0.7,1.4,1.3,2.2,1.8c0.6,0.3,1.2,0.6,1.9,0.8
		c0.3,0.1,0.7,0.2,1,0.3c0.7,0.1,1.4,0.2,2.2,0.2c2.1,0,4-0.6,5.5-1.6c0.5-0.3,1-0.7,1.4-1.1c1.5,1.1,3.3,1.7,5.3,1.7
		c2.3,0,4.7-0.8,6.6-2.5c0.4-0.3,0.7-0.7,1.1-1.1s0.6-0.8,0.8-1.2c0.3,0.2,0.7,0.4,1,0.5c0.7,0.3,1.5,0.5,2.2,0.6
		c0.4,0,0.8,0.1,1.2,0.1c0.3,0,0.6,0,0.9,0s0.6-0.1,0.9-0.1c0.6-0.1,1.2-0.3,1.7-0.5c0.8-0.3,1.6-0.7,2.4-1.3
		c0.2-0.2,0.5-0.4,0.7-0.6c1.8-1.6,2.8-3.8,2.8-5.9c0-2-0.8-3.8-2.3-5.1c-0.7-0.7-1.6-1.2-2.5-1.5c-0.2-0.1-0.5-0.2-0.7-0.2
		c-0.7-0.2-1.5-0.3-2.2-0.3c0.8-1.5,1.4-3.1,1.9-4.8h-18.8c1.3,2.5,1.9,5,1.9,7.5h0h-6.5h0h0c0-0.5,0-1-0.1-1.4
		c-0.3-2-1.2-4-2.6-6.1h-6.1v7.5h0h-6.5h0h0V0H271c0.4,1.4,0.9,2.7,1.5,4C271.1,4.1,269.7,4.5,268.5,5.2z"/>
	<path class="st0" d="M194.9,19.8c1.7-0.3,3.5-0.5,5.3-0.5s3.6,0.2,5.3,0.5c0.7-3.3,2.5-11.7,3.5-19.8h-17.7
		C192.4,8.1,194.2,16.5,194.9,19.8z"/>
	<path class="st0" d="M202,36c-0.5,1.2-1,2.2-1.3,2.9c-0.1,0.2-0.2,0.5-0.3,0.6c-0.5,0.9-1,1.6-1.5,2.2c-0.3,0.4-0.6,0.7-0.9,0.9
		c-0.3,0.2-0.6,0.4-0.9,0.4c-0.1,0-0.3,0.1-0.4,0.1V36l-6.5,0v26.8h0h6.5h0V49.2c0.2,0,0.8,0.5,1.8,1.5c0.2,0.1,0.3,0.3,0.5,0.4
		c1.1,1,2,2,2.8,3c0.4,0.5,0.8,1,1.1,1.5s0.6,1,0.9,1.5c0.5,1,0.9,2,1.2,2.9c0.3,1,0.4,1.9,0.4,2.9h0h6.5h0h0c0-5.7-3.3-11.4-9.9-17
		c1.2-0.7,2.2-1.5,3.1-2.4c1.2-1.2,2.1-2.7,2.7-4.4c0.2-0.4,0.3-0.8,0.4-1.3c0.1-0.6,0.2-1.2,0.3-1.8h0H202L202,36z"/>
	<path class="st1" d="M132.6,169.3c1.8-1.6,2.8-3.8,2.8-5.9c0-2-0.8-3.8-2.3-5.1c-1.5-1.3-3.5-2-5.5-2c1.2-2.3,2.1-4.9,2.5-7.5
		c0.3-1.6,0.4-3.2,0.4-4.9c0-1.4-0.1-2.7-0.3-4c-0.2-1.3-0.5-2.6-0.9-3.9c-0.2-0.6-0.4-1.2-0.6-1.9s-0.5-1.2-0.8-1.8
		c-0.6-1.2-1.2-2.3-1.9-3.4c-1.1-1.6-2.3-3.2-3.7-4.5c-1.4-1.4-2.9-2.6-4.5-3.7c-1.1-0.7-2.2-1.4-3.4-2c4.7-3.6,8.4-8.1,11-13.4
		c0.4-0.8,0.7-1.5,1-2.3c0.3-0.7,0.6-1.4,0.8-2.1c1.1-3.1,1.6-6,2-8.1c0.2-1.2,0.3-2.2,0.4-3c0-0.3,0-0.5,0.1-0.7
		c0.1-0.8,0.1-1.8,0-2.9c-0.5-5-3.2-13.1-9.7-16.3c-0.8-0.4-1.5-0.6-2.2-0.7c-0.5-0.1-0.9-0.1-1.3-0.1c-0.2,0-0.4,0.1-0.6,0.1
		c-0.4,0.1-0.8,0.3-1.1,0.5c-1,0.6-1.8,1.7-2.5,3.3c-1.1,2.7-1.6,6.6-1.6,11.9c0,10-3.3,26.2-4.4,31.2c-1.7-0.3-3.5-0.5-5.3-0.5
		s-3.6,0.2-5.3,0.5c-1.1-5-4.4-21.2-4.4-31.2c0-6.4-0.8-10.8-2.3-13.4c-0.5-0.8-1.1-1.5-1.8-1.9c-0.5-0.3-1.1-0.5-1.7-0.6
		c-1-0.1-2.2,0.2-3.5,0.8c-0.6,0.3-1.1,0.6-1.6,1v0c-6.7,4.6-8.5,14.5-8.1,18.2c0,0.2,0,0.4,0.1,0.7c0.2,2,0.6,5.7,2,10.1
		c0.3,1,0.7,2.1,1.2,3.2c1.3,3.1,2.9,6,4.9,8.6v0c2,2.7,4.4,5,7.1,7.1c-1.2,0.6-2.3,1.3-3.4,2c-1.3,0.9-2.5,1.9-3.7,2.9v0
		c-0.3,0.3-0.6,0.5-0.9,0.8c-1.4,1.4-2.6,2.9-3.7,4.5c-0.7,1.1-1.3,2.2-1.9,3.4c-0.6,1.2-1,2.4-1.4,3.7c-0.4,1.3-0.7,2.5-0.9,3.9
		c-0.2,1.3-0.3,2.7-0.3,4c0,4.1,0.9,8.1,2.6,11.6c-1.9,0.1-3.7,0.8-5.1,2c-1.5,1.3-2.3,3.1-2.3,5.1c0,2.2,1,4.3,2.8,5.9
		c1.8,1.7,4.2,2.5,6.6,2.5c1.6,0,3.1-0.4,4.5-1.2c0.5,0.9,1.1,1.7,1.9,2.4c0.2,0.2,0.5,0.4,0.7,0.6c1.7,1.3,3.8,1.9,5.9,1.9
		c1.7,0,3.4-0.5,4.8-1.4c0.2,0.2,0.4,0.5,0.7,0.7c1.2,1.1,2.7,1.9,4.5,2.3c0.7,0.1,1.4,0.2,2.2,0.2c1,0,2-0.1,3-0.4
		c1.6-0.5,2.9-1.3,4-2.3c1.5,1.1,3.3,1.7,5.3,1.7c2.3,0,4.7-0.8,6.6-2.5c0.4-0.3,0.7-0.7,1.1-1.1c0.3-0.4,0.6-0.8,0.8-1.2
		c1.3,0.8,2.9,1.2,4.5,1.2c2,0,4.1-0.6,5.9-1.9C132.1,169.7,132.4,169.5,132.6,169.3z M109.3,132.1L109.3,132.1
		c-0.1,0.6-0.2,1.2-0.3,1.8c-1,3.6-3.1,6.3-6.2,8.1c6.6,5.6,9.9,11.3,9.9,17h0h0h-6.5h0c0-3.8-2.2-7.7-6.5-11.8
		c-1.4-1.3-2.1-1.9-2.3-1.9V159h0h0h-6.5h0v-26.8l6.5,0v7.1c0.3,0,0.6-0.1,0.9-0.2c0.9-0.4,1.9-1.6,2.9-3.3c0.4-0.8,1-1.9,1.7-3.6h0
		H109.3z"/>
	<path class="st0" d="M102.8,132.1c-0.7,1.6-1.3,2.8-1.7,3.6c-1,1.8-2,2.9-2.9,3.3c-0.3,0.1-0.6,0.2-0.9,0.2v-7.1l-6.5,0V159h0h6.5
		h0h0v-13.7c0.2,0,1,0.6,2.3,1.9c4.3,4.1,6.5,8,6.5,11.8h0h6.5h0h0c0-5.7-3.3-11.4-9.9-17c3.1-1.9,5.2-4.6,6.2-8.1
		c0.1-0.6,0.2-1.2,0.3-1.8h0H102.8L102.8,132.1z"/>
	<path class="st1" d="M214,124.8c-2.7,1.7-4,6.8-4,15.3c0,10-3.3,26.2-4.4,31.2c-1.7-0.3-3.5-0.5-5.3-0.5s-3.6,0.2-5.3,0.5
		c-1.1-5-4.4-21.2-4.4-31.2c0-8.5-1.4-13.6-4-15.3c-1.2-0.8-2.7-0.8-4.4-0.1c-0.2,0.1-0.5,0.2-0.7,0.3c-0.5,0.3-1,0.5-1.4,0.8
		c-6.8,4.5-8.7,14.6-8.3,18.4c0,0.2,0,0.4,0.1,0.7c0.2,1.7,0.5,4.6,1.4,8.1c0.4,1.6,1,3.3,1.7,5.2c2.6,6.3,6.6,11.6,12,15.7
		c-9.6,4.7-16.1,14.3-16.1,25.2c0,4.1,0.9,8.1,2.6,11.6c-0.5,0-0.9,0.1-1.4,0.2c-1.4,0.3-2.7,0.9-3.7,1.8c-0.4,0.3-0.7,0.7-1,1.1
		c-0.9,1.2-1.3,2.6-1.3,4c0,2.2,1,4.3,2.8,5.9c0.7,0.6,1.5,1.1,2.3,1.5c1.4,0.6,2.8,1,4.3,1c0.8,0,1.6-0.1,2.3-0.3
		c0.7-0.2,1.5-0.5,2.1-0.9c0.2,0.4,0.5,0.8,0.8,1.2c0.3,0.4,0.7,0.8,1.1,1.1c0.5,0.4,1,0.8,1.5,1.1c1.6,0.9,3.3,1.4,5.1,1.4
		c1.7,0,3.4-0.5,4.8-1.4c1.6,1.9,4.3,3.2,7.4,3.2c2.8,0,5.3-1.1,6.9-2.7c1.5,1.1,3.3,1.7,5.3,1.7c2.3,0,4.7-0.8,6.6-2.5
		c0.8-0.7,1.4-1.5,1.9-2.4c1.3,0.8,2.9,1.2,4.5,1.2c2.3,0,4.7-0.8,6.6-2.5c0.2-0.2,0.4-0.4,0.6-0.6s0.4-0.4,0.6-0.7
		c1-1.4,1.6-3,1.6-4.6c0-2-0.8-3.8-2.3-5.1c-1.5-1.3-3.5-2-5.5-2c0.5-0.9,0.9-1.9,1.3-2.9c0.4-1,0.7-2,0.9-3
		c0.5-2.1,0.8-4.2,0.8-6.5c0-11-6.6-20.5-16.1-25.2c2-1.6,3.9-3.3,5.5-5.2c1.1-1.2,2.1-2.6,3-3.9c1.4-2.1,2.5-4.3,3.5-6.6
		c2.4-5.8,2.9-10.8,3.1-13.3c0-0.3,0-0.5,0.1-0.7c0.1-0.5,0.1-1.1,0-1.8c-0.2-4.9-2.8-13.9-9.8-17.4
		C217.2,124,215.5,123.9,214,124.8z M205.4,214.3L205.4,214.3c0-1-0.1-1.9-0.4-2.9c-0.3-1-0.7-1.9-1.2-2.9c-0.5-1-1.2-2-2-3
		c-0.8-1-1.8-2-2.8-3c-0.2-0.2-0.3-0.3-0.5-0.4c-0.3-0.3-0.6-0.5-0.8-0.7c-0.1-0.1-0.2-0.2-0.3-0.3c-0.2-0.2-0.4-0.3-0.5-0.4
		c-0.1-0.1-0.2-0.1-0.3-0.1v13.7h0H190h0v-26.8l6.5,0v7.1c0.1,0,0.3,0,0.4-0.1c0.3-0.1,0.6-0.2,0.9-0.4c0.3-0.2,0.6-0.5,0.9-0.9
		c0.5-0.6,1-1.3,1.5-2.2c0.4-0.8,1-1.9,1.7-3.6h0h6.5h0c-0.1,0.6-0.2,1.2-0.3,1.8c-0.1,0.4-0.3,0.9-0.4,1.3
		c-0.6,1.7-1.5,3.1-2.7,4.4c-0.9,0.9-1.9,1.7-3.1,2.4c6.6,5.6,9.9,11.3,9.9,17h0h0H205.4z"/>
	<path class="st1" d="M274,102.9c0.3,0.8,0.7,1.6,1,2.3s0.8,1.5,1.2,2.2c0.8,1.4,1.7,2.8,2.7,4.1v0c2,2.7,4.4,5,7.1,7.1
		c-1.2,0.6-2.3,1.3-3.4,2c-1.3,0.9-2.5,1.9-3.7,2.9v0c-0.3,0.3-0.6,0.5-0.9,0.8c-1.4,1.4-2.6,2.9-3.7,4.5c-0.7,1.1-1.3,2.2-1.9,3.4
		c-0.6,1.2-1,2.4-1.4,3.7c-0.4,1.3-0.7,2.5-0.9,3.9c-0.2,1.3-0.3,2.7-0.3,4c0,4.1,0.9,8.1,2.6,11.6c-1.9,0.1-3.7,0.8-5.1,2
		c-0.7,0.7-1.3,1.5-1.7,2.3c-0.1,0.2-0.2,0.4-0.3,0.7c-0.2,0.7-0.3,1.4-0.3,2.1c0,2.2,1,4.3,2.8,5.9c1.8,1.7,4.2,2.5,6.6,2.5
		c1.6,0,3.1-0.4,4.5-1.2c0.1,0.2,0.2,0.4,0.4,0.6c0.4,0.6,0.9,1.2,1.5,1.7c0.2,0.2,0.5,0.4,0.7,0.6c1.7,1.3,3.8,1.9,5.9,1.9
		c1.7,0,3.4-0.5,4.8-1.4c0.6,0.7,1.4,1.3,2.2,1.8c0.9,0.5,1.9,0.9,2.9,1.1c0.7,0.1,1.4,0.2,2.2,0.2c1,0,2-0.1,3-0.4
		c1.6-0.5,2.9-1.3,4-2.3c1.5,1.1,3.3,1.7,5.3,1.7c2.3,0,4.7-0.8,6.6-2.5c0.4-0.3,0.7-0.7,1.1-1.1s0.6-0.8,0.8-1.2
		c0.3,0.2,0.7,0.4,1,0.5c0.7,0.3,1.5,0.5,2.2,0.6c0.4,0,0.8,0.1,1.2,0.1c2,0,4.1-0.6,5.9-1.9c0.2-0.2,0.5-0.4,0.7-0.6
		c1.8-1.6,2.8-3.8,2.8-5.9c0-2-0.8-3.8-2.3-5.1c-0.7-0.7-1.6-1.2-2.5-1.5c-0.2-0.1-0.5-0.2-0.7-0.2c-0.7-0.2-1.5-0.3-2.2-0.3
		c1.4-2.8,2.4-5.9,2.8-9.1c0.1-1.1,0.2-2.2,0.2-3.3c0-1.4-0.1-2.7-0.3-4c-0.2-1.3-0.5-2.6-0.9-3.9c-0.2-0.6-0.4-1.2-0.6-1.9
		s-0.5-1.2-0.8-1.8c-0.6-1.2-1.2-2.3-1.9-3.4c-1.1-1.6-2.3-3.2-3.7-4.5c-1.4-1.4-2.9-2.6-4.5-3.7c-1.1-0.7-2.2-1.4-3.4-2
		c5.4-4.2,9.4-9.4,12-15.7c0.1-0.4,0.3-0.7,0.4-1.1c1.3-3.6,2-6.8,2.3-9.2c0.2-1.2,0.3-2.2,0.4-3c0-0.3,0-0.5,0.1-0.7
		c0.1-0.5,0.1-1.1,0-1.8c-0.2-4.9-2.8-13.9-9.8-17.4c-0.8-0.4-1.5-0.6-2.2-0.7c-0.5-0.1-0.9-0.1-1.3-0.1c-0.2,0-0.4,0.1-0.6,0.1
		c-0.4,0.1-0.8,0.3-1.1,0.5c-1,0.6-1.8,1.7-2.5,3.3c-1.1,2.7-1.6,6.6-1.6,11.9c0,10-3.3,26.2-4.4,31.2c-1.7-0.3-3.5-0.5-5.3-0.5
		s-3.6,0.2-5.3,0.5c-1.1-5-4.4-21.2-4.4-31.2c0-6.4-0.8-10.8-2.3-13.4c-0.5-0.8-1.1-1.5-1.8-1.9c-0.5-0.3-1.1-0.5-1.7-0.6
		c-1-0.1-2.2,0.2-3.5,0.8c-0.6,0.3-1.1,0.6-1.6,1v0c-6.7,4.6-8.5,14.5-8.1,18.2c0,0.2,0,0.4,0.1,0.7C271.1,92,271.6,97.1,274,102.9z
		 M307.8,132.1c-0.1,0.6-0.2,1.2-0.3,1.8c-1,3.6-3.1,6.3-6.2,8.1c6.6,5.6,9.9,11.3,9.9,17h0h-6.5h0h0c0-0.5,0-1-0.1-1.4
		c-0.3-2.4-1.5-4.8-3.5-7.3c-0.8-1-1.8-2-2.8-3c-1.4-1.3-2.1-1.9-2.3-1.9V159h0h-6.5h0h0v-26.8l6.5,0v7.1c0.3,0,0.6-0.1,0.9-0.2
		c0.9-0.4,1.9-1.6,2.9-3.3c0.4-0.8,1-1.9,1.7-3.6h0h0H307.8z"/>
	<path class="st0" d="M211.9,214.3L211.9,214.3c0-5.7-3.3-11.4-9.9-17c1.2-0.7,2.2-1.5,3.1-2.4c1.2-1.2,2.1-2.7,2.7-4.4
		c0.2-0.4,0.3-0.8,0.4-1.3c0.1-0.6,0.2-1.2,0.3-1.8h0H202h0c-0.7,1.6-1.3,2.8-1.7,3.6c-0.5,0.9-1,1.6-1.5,2.2
		c-0.3,0.4-0.6,0.7-0.9,0.9c-0.3,0.2-0.6,0.4-0.9,0.4c-0.1,0-0.3,0.1-0.4,0.1v-7.1l-6.5,0v26.8h0h6.5h0v-13.7c0.1,0,0.1,0,0.3,0.1
		c0.1,0.1,0.3,0.2,0.5,0.4c0.1,0.1,0.2,0.2,0.3,0.3c0.2,0.2,0.5,0.4,0.8,0.7c0.2,0.1,0.3,0.3,0.5,0.4c1.1,1,2,2,2.8,3
		c0.8,1,1.5,2,2,3c0.5,1,0.9,2,1.2,2.9c0.3,1,0.4,1.9,0.4,2.9h0H211.9L211.9,214.3z"/>
	<path class="st1" d="M132.6,320.8c1.8-1.6,2.8-3.8,2.8-5.9c0-2-0.8-3.8-2.3-5.1c-1.5-1.3-3.5-2-5.5-2c1.2-2.3,2.1-4.9,2.5-7.5
		c0.3-1.6,0.4-3.2,0.4-4.9c0-1.4-0.1-2.7-0.3-4c-0.2-1.3-0.5-2.6-0.9-3.9c-0.2-0.6-0.4-1.2-0.6-1.9c-2.6-6.7-7.7-12.2-14.3-15.5
		c2-1.6,3.9-3.3,5.5-5.2c2.2-2.5,4-5.3,5.5-8.3c0.4-0.8,0.7-1.5,1-2.3c0.3-0.7,0.6-1.4,0.8-2.1c0.7-2.1,1.2-4,1.6-5.8
		c0.5-2.3,0.6-4.2,0.8-5.4c0-0.3,0-0.5,0.1-0.7c0.1-0.8,0.1-1.8,0-2.9c-0.1-1.2-0.4-2.5-0.7-3.9c-0.2-0.9-0.6-1.9-0.9-2.8
		c-0.2-0.5-0.4-1-0.6-1.4c-0.9-1.9-2-3.7-3.5-5.3c-0.4-0.4-0.8-0.8-1.2-1.1c-0.8-0.7-1.7-1.3-2.7-1.8c-0.8-0.4-1.5-0.6-2.2-0.7
		c-0.7-0.1-1.3-0.1-1.9,0c-0.4,0.1-0.8,0.3-1.1,0.5c-1,0.6-1.8,1.7-2.5,3.3c-1.1,2.7-1.6,6.6-1.6,11.9c0,3.7-0.5,8.4-1.1,12.9
		c-0.1,0.8-0.2,1.5-0.3,2.3c-0.3,1.9-0.6,3.7-0.9,5.5c-0.1,0.7-0.2,1.4-0.4,2.1c-0.1,0.7-0.2,1.3-0.4,1.9c-0.1,0.6-0.2,1.2-0.3,1.8
		c-0.2,0.8-0.3,1.6-0.5,2.3c-0.1,0.5-0.2,0.9-0.3,1.3s-0.2,0.8-0.2,1.1c-1.7-0.3-3.5-0.5-5.3-0.5s-3.6,0.2-5.3,0.5
		c-1.1-5-4.4-21.2-4.4-31.2c0-6.4-0.8-10.8-2.3-13.4c-0.5-0.8-1.1-1.5-1.8-1.9c-0.5-0.3-1.1-0.5-1.7-0.6c-0.8-0.1-1.7,0.1-2.7,0.5
		c-0.2,0.1-0.5,0.2-0.7,0.3c-0.6,0.3-1.1,0.6-1.6,1v0c-0.8,0.6-1.6,1.2-2.3,1.9c-4.8,5-6.2,13.1-5.8,16.3c0,0.2,0,0.4,0.1,0.7
		c0.2,2,0.6,5.7,2,10.1c0.3,1,0.7,2.1,1.2,3.2c1.3,3.1,2.9,6,4.9,8.6v0c2,2.7,4.4,5,7.1,7.1c-2.6,1.3-5,3-7.1,4.9v0
		c-5.5,5.2-9,12.4-9,20.3c0,4.1,0.9,8.1,2.6,11.6c-1.9,0.1-3.7,0.8-5.1,2c-1.5,1.3-2.3,3.1-2.3,5.1c0,2.2,1,4.3,2.8,5.9
		c1.8,1.7,4.2,2.5,6.6,2.5c1.6,0,3.1-0.4,4.5-1.2c0.5,0.9,1.1,1.7,1.9,2.4c1.8,1.7,4.2,2.5,6.6,2.5c1.7,0,3.4-0.5,4.8-1.4
		c0.2,0.2,0.4,0.5,0.7,0.7c1.7,1.5,4,2.5,6.7,2.5c1,0,2-0.1,3-0.4c1.6-0.5,2.9-1.3,4-2.3c1.5,1.1,3.3,1.7,5.3,1.7
		c2.3,0,4.7-0.8,6.6-2.5c0.4-0.3,0.7-0.7,1.1-1.1c0.3-0.4,0.6-0.8,0.8-1.2c1.3,0.8,2.9,1.2,4.5,1.2c2,0,4.1-0.6,5.9-1.9
		C132.1,321.2,132.4,321,132.6,320.8z M109.3,283.6L109.3,283.6c-0.1,0.6-0.2,1.2-0.3,1.8c-1,3.6-3.1,6.3-6.2,8.1
		c6.6,5.6,9.9,11.3,9.9,17h0h0h-6.5h0c0-3.8-2.2-7.7-6.5-11.8c-1.4-1.3-2.1-1.9-2.3-1.9v13.7h0h0h-6.5h0v-26.8l6.5,0v7.1
		c0.3,0,0.6-0.1,0.9-0.2c0.5-0.2,0.9-0.6,1.4-1.2c0.5-0.6,1-1.3,1.5-2.2c0.4-0.8,1-1.9,1.7-3.6h0H109.3z"/>
	<path class="st0" d="M102.8,283.6c-0.7,1.6-1.3,2.8-1.7,3.6c-0.5,0.9-1,1.6-1.5,2.2c-0.5,0.6-1,0.9-1.4,1.2
		c-0.3,0.1-0.6,0.2-0.9,0.2v-7.1l-6.5,0v26.8h0h6.5h0h0v-13.7c0.2,0,1,0.6,2.3,1.9c4.3,4.1,6.5,8,6.5,11.8h0h6.5h0h0
		c0-5.7-3.3-11.4-9.9-17c3.1-1.9,5.2-4.6,6.2-8.1c0.1-0.6,0.2-1.2,0.3-1.8h0H102.8L102.8,283.6z"/>
	<path class="st1" d="M232.5,375.5c0.2-0.2,0.4-0.4,0.6-0.7c1-1.4,1.6-3,1.6-4.6c0-2-0.8-3.8-2.3-5.1c-1.5-1.3-3.5-2-5.5-2
		c1.9-3.7,3-7.9,3-12.4c0-11-6.6-20.5-16.1-25.2c2-1.6,3.9-3.3,5.5-5.2c1.1-1.2,2.1-2.6,3-3.9c1.4-2.1,2.5-4.3,3.5-6.6
		c2.4-5.8,2.9-10.8,3.1-13.3c0-0.3,0-0.5,0.1-0.7c0.1-0.5,0.1-1.1,0-1.8c-0.2-4.9-2.8-13.9-9.8-17.4c-2-1-3.8-1.1-5.2-0.2
		c-2.7,1.7-4,6.8-4,15.3c0,10-3.3,26.2-4.4,31.2c-1.7-0.3-3.5-0.5-5.3-0.5s-3.6,0.2-5.3,0.5c-1.1-5-4.4-21.2-4.4-31.2
		c0-8.5-1.4-13.6-4-15.3c-1.4-0.9-3.1-0.8-5.2,0.2c-0.5,0.3-1,0.5-1.4,0.8c-6.8,4.5-8.7,14.6-8.3,18.4c0,0.2,0,0.4,0.1,0.7
		c0.2,1.7,0.5,4.6,1.4,8.1c0.4,1.6,1,3.3,1.7,5.2c2.6,6.3,6.6,11.6,12,15.7c-9.6,4.7-16.1,14.3-16.1,25.2c0,4.1,0.9,8.1,2.6,11.6
		c-0.5,0-0.9,0.1-1.4,0.2c-1.4,0.3-2.7,0.9-3.7,1.8c-0.4,0.3-0.7,0.7-1,1.1c-0.9,1.2-1.3,2.6-1.3,4c0,2.2,1,4.3,2.8,5.9
		c1.8,1.7,4.2,2.5,6.6,2.5c1.6,0,3.1-0.4,4.5-1.2c0.5,0.9,1.1,1.7,1.9,2.4c1.8,1.7,4.2,2.5,6.6,2.5c1.7,0,3.4-0.5,4.8-1.4
		c1.6,1.9,4.3,3.2,7.4,3.2c2.8,0,5.3-1.1,6.9-2.7c0.7,0.6,1.6,1,2.5,1.3c0.9,0.3,1.8,0.4,2.8,0.4c2.3,0,4.7-0.8,6.6-2.5
		c0.8-0.7,1.4-1.5,1.9-2.4c1.3,0.8,2.9,1.2,4.5,1.2c2.3,0,4.7-0.8,6.6-2.5C232.1,375.9,232.3,375.7,232.5,375.5z M205.4,365.8
		L205.4,365.8c0-1.9-0.5-3.8-1.6-5.8c-0.5-1-1.2-2-2-3c-0.8-1-1.8-2-2.8-3c-0.2-0.2-0.3-0.3-0.5-0.4c-1.1-1-1.7-1.5-1.8-1.5v13.7h0
		H190h0v-26.8l6.5,0v7.1c0.1,0,0.3,0,0.4-0.1c0.3-0.1,0.6-0.2,0.9-0.4c0.3-0.2,0.6-0.5,0.9-0.9c0.5-0.6,1-1.3,1.5-2.2
		c0.4-0.8,1-1.9,1.7-3.6h0h6.5h0c-0.1,0.6-0.2,1.2-0.3,1.8c-0.4,1.3-0.9,2.5-1.6,3.6c-1.1,1.8-2.7,3.3-4.6,4.5
		c6.6,5.6,9.9,11.3,9.9,17h0h0H205.4z"/>
	<path class="st0" d="M211.9,365.8L211.9,365.8c0-5.7-3.3-11.4-9.9-17c2-1.2,3.5-2.6,4.6-4.5c0.7-1.1,1.2-2.3,1.6-3.6
		c0.1-0.6,0.2-1.2,0.3-1.8h0H202h0c-0.7,1.6-1.3,2.8-1.7,3.6c-0.5,0.9-1,1.6-1.5,2.2c-0.3,0.4-0.6,0.7-0.9,0.9
		c-0.3,0.2-0.6,0.4-0.9,0.4c-0.1,0-0.3,0.1-0.4,0.1v-7.1l-6.5,0v26.8h0h6.5h0v-13.7c0.2,0,0.8,0.5,1.8,1.5c0.2,0.1,0.3,0.3,0.5,0.4
		c1.1,1,2,2,2.8,3c0.8,1,1.5,2,2,3c1.1,2,1.6,3.9,1.6,5.8h0H211.9L211.9,365.8z"/>
	<path class="st1" d="M132.6,472.2c1.8-1.6,2.8-3.8,2.8-5.9c0-2-0.8-3.8-2.3-5.1c-1.5-1.3-3.5-2-5.5-2c1.2-2.3,2.1-4.9,2.5-7.5
		c0.3-1.6,0.4-3.2,0.4-4.9c0-1.4-0.1-2.7-0.3-4c-0.2-1.3-0.5-2.6-0.9-3.9c-0.2-0.6-0.4-1.2-0.6-1.9c-2.6-6.7-7.7-12.2-14.3-15.5
		c4.7-3.6,8.4-8.1,11-13.4c0.4-0.8,0.7-1.5,1-2.3c0.3-0.7,0.6-1.4,0.8-2.1c1.7-4.9,2.1-9,2.3-11.1c0-0.3,0-0.5,0.1-0.7
		c0.1-0.8,0.1-1.8,0-2.9c-0.5-5-3.2-13.1-9.7-16.3c-0.5-0.3-1-0.4-1.5-0.6c-0.5-0.1-0.9-0.2-1.4-0.2c-0.9,0-1.7,0.2-2.4,0.6
		c-2.7,1.7-4,6.8-4,15.3c0,10-3.3,26.2-4.4,31.2c-1.7-0.3-3.5-0.5-5.3-0.5s-3.6,0.2-5.3,0.5c-1.1-5-4.4-21.2-4.4-31.2
		c0-3.7-0.3-6.8-0.8-9.2c-0.1-0.7-0.3-1.3-0.5-1.9c-0.3-0.9-0.6-1.6-1-2.3c-0.5-0.8-1.1-1.5-1.8-1.9c-0.4-0.2-0.7-0.4-1.1-0.5
		c-0.2,0-0.4-0.1-0.6-0.1c-0.8-0.1-1.7,0.1-2.7,0.5c-0.2,0.1-0.5,0.2-0.7,0.3c-0.6,0.3-1.1,0.6-1.6,1v0c-6.7,4.6-8.5,14.5-8.1,18.2
		c0,0.2,0,0.4,0.1,0.7c0.2,2,0.6,5.7,2,10.1c0.3,1,0.7,2.1,1.2,3.2c1.3,3.1,2.9,6,4.9,8.6v0c2,2.7,4.4,5,7.1,7.1
		c-2.6,1.3-5,3-7.1,4.9v0c-5.5,5.2-9,12.4-9,20.3c0,1,0.1,2.1,0.2,3.1c0.2,1.5,0.5,3,0.9,4.4c0.3,1,0.6,1.9,1,2.8
		c0.2,0.5,0.4,0.9,0.6,1.3c-1.9,0.1-3.7,0.8-5.1,2c-1.1,1-1.9,2.3-2.2,3.7c-0.1,0.5-0.2,0.9-0.2,1.4c0,2.2,1,4.3,2.8,5.9
		c1.8,1.7,4.2,2.5,6.6,2.5c1.6,0,3.1-0.4,4.5-1.2c0.5,0.9,1.1,1.7,1.9,2.4c1.8,1.7,4.2,2.5,6.6,2.5c1.7,0,3.4-0.5,4.8-1.4
		c0.2,0.2,0.4,0.5,0.7,0.7c1.7,1.5,4,2.5,6.7,2.5c1,0,2-0.1,3-0.4c1.6-0.5,2.9-1.3,4-2.3c1.5,1.1,3.3,1.7,5.3,1.7
		c2.3,0,4.7-0.8,6.6-2.5c0.2-0.2,0.4-0.4,0.6-0.5c0.4-0.4,0.7-0.8,0.9-1.2c0.1-0.2,0.3-0.4,0.4-0.6c1.3,0.8,2.9,1.2,4.5,1.2
		c2,0,4.1-0.6,5.9-1.9C132.1,472.6,132.4,472.4,132.6,472.2z M109.3,435L109.3,435c-0.1,0.6-0.2,1.2-0.3,1.8c-1,3.6-3.1,6.3-6.2,8.1
		c6.6,5.6,9.9,11.3,9.9,17h0h0h-6.5h0c0-3.8-2.2-7.7-6.5-11.8c-1.4-1.3-2.1-1.9-2.3-1.9v13.7h0h0h-6.5h0v-26.8l6.5,0v0v7.1
		c0.3,0,0.6-0.1,0.9-0.2c0.9-0.4,1.9-1.6,2.9-3.3c0.2-0.4,0.5-0.9,0.7-1.5c0.1-0.3,0.3-0.6,0.4-1s0.3-0.7,0.5-1.1h0H109.3z"/>
	<path class="st0" d="M102.8,435c-0.2,0.4-0.3,0.8-0.5,1.1s-0.3,0.7-0.4,1c-0.3,0.6-0.5,1.1-0.7,1.5c-1,1.8-2,2.9-2.9,3.3
		c-0.3,0.1-0.6,0.2-0.9,0.2V435v0l-6.5,0v26.8h0h6.5h0h0v-13.7c0.2,0,1,0.6,2.3,1.9c4.3,4.1,6.5,8,6.5,11.8h0h6.5h0h0
		c0-5.7-3.3-11.4-9.9-17c3.1-1.9,5.2-4.6,6.2-8.1c0.1-0.6,0.2-1.2,0.3-1.8h0H102.8L102.8,435z"/>
	<path class="st1" d="M213.8,476.8c2-1.6,3.9-3.3,5.5-5.2c1.1-1.2,2.1-2.6,3-3.9c1.4-2.1,2.5-4.3,3.5-6.6c2.4-5.8,2.9-10.8,3.1-13.3
		c0-0.3,0-0.5,0.1-0.7c0.1-0.5,0.1-1.1,0-1.8c-0.2-4.9-2.8-13.9-9.8-17.4c-2-1-3.8-1.1-5.2-0.2c-0.3,0.2-0.7,0.5-0.9,0.8
		c-0.3,0.3-0.6,0.7-0.8,1.1c-0.1,0.2-0.2,0.4-0.4,0.7c-1,2.1-1.7,5.4-1.9,9.7c0,1-0.1,2-0.1,3c0,0.3,0,0.6,0,1c0,0.6,0,1.3-0.1,2
		c0,0.3,0,0.7-0.1,1c-0.1,2.1-0.4,4.4-0.7,6.7c-0.1,1.1-0.3,2.3-0.5,3.4c-0.1,0.8-0.2,1.5-0.3,2.3c-0.1,0.4-0.1,0.7-0.2,1.1
		c-0.4,2.6-0.9,5.1-1.3,7.2c-0.5,2.8-1,5.1-1.3,6.5c-1.7-0.3-3.5-0.5-5.3-0.5s-3.6,0.2-5.3,0.5c-1.1-5-4.4-21.2-4.4-31.2
		c0-8.5-1.4-13.6-4-15.3c-1.1-0.7-2.3-0.8-3.7-0.4c-0.5,0.1-1,0.3-1.5,0.6c-0.5,0.3-1,0.5-1.4,0.8c-6.8,4.5-8.7,14.6-8.3,18.4
		c0,0.2,0,0.4,0.1,0.7c0.2,1.7,0.5,4.6,1.4,8.1c0.4,1.6,1,3.3,1.7,5.2c2.6,6.3,6.6,11.6,12,15.7c-8.9,4.4-15.3,13.1-16,23.2H190
		v-9.6l6.5,0v7.1c0.1,0,0.3,0,0.4-0.1c0.3-0.1,0.6-0.2,0.9-0.4c0.3-0.2,0.6-0.5,0.9-0.9c0.5-0.6,1-1.3,1.5-2.2
		c0.4-0.8,1-1.9,1.7-3.6h0h6.5h0c-0.1,0.6-0.2,1.2-0.3,1.8c-0.4,1.3-0.9,2.5-1.6,3.6c-1.1,1.7-2.5,3.1-4.3,4.2h27.4
		C229,489.9,222.7,481.3,213.8,476.8z"/>
	<path class="st0" d="M206.7,495.8c0.7-1.1,1.2-2.3,1.6-3.6c0.1-0.6,0.2-1.2,0.3-1.8h0H202h0c-0.7,1.6-1.3,2.8-1.7,3.6
		c-0.5,0.9-1,1.6-1.5,2.2c-0.3,0.4-0.6,0.7-0.9,0.9c-0.3,0.2-0.6,0.4-0.9,0.4c-0.1,0-0.3,0.1-0.4,0.1v-7.1l-6.5,0v9.6h12.4
		C204.2,498.9,205.6,497.5,206.7,495.8z"/>
	<path class="st1" d="M69.9,5.2c-0.4,0.2-0.8,0.5-1.1,0.8c-0.9,0.8-1.6,1.9-2,3c-0.2,0.7-0.3,1.4-0.3,2.1c0,2.2,1,4.3,2.8,5.9
		c1.8,1.7,4.2,2.5,6.6,2.5c1.6,0,3.1-0.4,4.5-1.2c0.5,0.9,1.1,1.7,1.9,2.4c1.8,1.7,4.2,2.5,6.6,2.5c1.7,0,3.4-0.5,4.8-1.4
		c0.2,0.2,0.4,0.5,0.7,0.7c0.5,0.4,1,0.8,1.6,1.2c0.6,0.3,1.2,0.6,1.9,0.8c0.3,0.1,0.7,0.2,1,0.3c0.7,0.1,1.4,0.2,2.2,0.2
		c2.1,0,4-0.6,5.5-1.6c0.5-0.3,1-0.7,1.4-1.1c1.5,1.1,3.3,1.7,5.3,1.7c2.3,0,4.7-0.8,6.6-2.5c0.4-0.3,0.7-0.7,1.1-1.1
		c0.3-0.4,0.6-0.8,0.8-1.2c0.3,0.2,0.7,0.4,1,0.5c1.1,0.4,2.2,0.7,3.4,0.7c0.3,0,0.6,0,0.9,0s0.6-0.1,0.9-0.1
		c0.6-0.1,1.2-0.3,1.7-0.5c0.8-0.3,1.6-0.7,2.4-1.3c0.2-0.2,0.5-0.4,0.7-0.6c1.8-1.6,2.8-3.8,2.8-5.9c0-2-0.8-3.8-2.3-5.1
		c-1.5-1.3-3.5-2-5.5-2c0.8-1.5,1.4-3.1,1.9-4.8h-18.8c1.3,2.5,1.9,5,1.9,7.5h0h0h-6.5h0c0-2.5-0.9-5-2.7-7.5h-6.1v7.5h0h0h-6.5h0V0
		H72.4c0.4,1.4,0.9,2.7,1.5,4C72.5,4.1,71.1,4.5,69.9,5.2z"/>
	<path class="st0" d="M1.7,19.3c1.8,0,3.6,0.2,5.3,0.5C7.7,16.5,9.5,8.1,10.5,0H0v19.4C0.6,19.4,1.1,19.3,1.7,19.3z"/>
	<path class="st1" d="M0.6,80.3c0.4,0,0.7,0.1,1.1,0.1c2.8,0,5.3-1.1,6.9-2.7c1.5,1.1,3.3,1.7,5.3,1.7c2.3,0,4.7-0.8,6.6-2.5
		c0.2-0.2,0.4-0.4,0.6-0.5c0.4-0.4,0.7-0.8,0.9-1.2c0.1-0.2,0.3-0.4,0.4-0.6c1.3,0.8,2.9,1.2,4.5,1.2c1.7,0,3.5-0.5,5.1-1.4
		c0.5-0.3,1-0.7,1.5-1.1c0.9-0.8,1.6-1.7,2.1-2.8c0.5-1,0.7-2.1,0.7-3.2c0-2-0.8-3.8-2.3-5.1c-1.5-1.3-3.5-2-5.5-2
		c1.9-3.7,3-7.9,3-12.4c0-11-6.6-20.5-16.1-25.2c0.7-0.5,1.3-1.1,2-1.6c0.9-0.8,1.7-1.6,2.5-2.5h0c3.2-3.4,5.7-7.3,7.5-11.7
		c1-2.4,1.7-4.7,2.1-6.7H10.5C9.5,8.1,7.7,16.5,7,19.8c-1.7-0.3-3.5-0.5-5.3-0.5c-0.6,0-1.1,0-1.7,0.1v22.7c0.1-0.1,0.2-0.2,0.3-0.3
		c0.5-0.6,1-1.3,1.5-2.2c0.1-0.2,0.2-0.4,0.3-0.6C2.5,38.2,3,37.2,3.5,36H10h0c-0.1,0.6-0.2,1.2-0.3,1.8c-0.1,0.4-0.3,0.9-0.4,1.3
		c-0.6,1.7-1.5,3.1-2.7,4.4c-0.9,0.9-1.9,1.7-3.1,2.4c6.6,5.6,9.9,11.3,9.9,17h0h0H6.8c0-1-0.1-1.9-0.4-2.9
		c-0.4-1.4-1.1-2.9-2.1-4.4c-1-1.5-2.3-3-4-4.5C0.2,51,0.1,50.9,0,50.8v29.4C0.2,80.2,0.4,80.3,0.6,80.3z"/>
	<path class="st0" d="M4.3,55.6c1,1.5,1.7,3,2.1,4.4c0.3,1,0.4,1.9,0.4,2.9h6.5h0h0c0-5.7-3.3-11.4-9.9-17c1.2-0.7,2.2-1.5,3.1-2.4
		c1.2-1.2,2.1-2.7,2.7-4.4c0.2-0.4,0.3-0.8,0.4-1.3c0.1-0.6,0.2-1.2,0.3-1.8h0H3.5c-0.5,1.2-1,2.2-1.3,2.9c-0.1,0.2-0.2,0.5-0.3,0.6
		c-0.5,0.9-1,1.6-1.5,2.2C0.2,41.9,0.1,42,0,42.1v8.7c0.1,0.1,0.2,0.2,0.3,0.3C1.9,52.6,3.3,54.1,4.3,55.6z"/>
	<path class="st1" d="M1.7,231.8c2.8,0,5.3-1.1,6.9-2.7c1.5,1.1,3.3,1.7,5.3,1.7c2.3,0,4.7-0.8,6.6-2.5c0.8-0.7,1.4-1.5,1.9-2.4
		c1.3,0.8,2.9,1.2,4.5,1.2c2.3,0,4.7-0.8,6.6-2.5c1.8-1.6,2.8-3.8,2.8-5.9c0-2-0.8-3.8-2.3-5.1c-1.5-1.3-3.5-2-5.5-2
		c0.5-0.9,0.9-1.9,1.3-2.9c0.4-1,0.7-2,0.9-3c0.5-2.1,0.8-4.2,0.8-6.5c0-11-6.6-20.5-16.1-25.2c2-1.6,3.9-3.3,5.5-5.2
		c1.1-1.2,2.1-2.6,3-3.9c1.4-2.1,2.5-4.3,3.5-6.6c2.4-5.8,2.9-10.8,3.1-13.3c0-0.3,0-0.5,0.1-0.7c0.1-0.8,0.1-1.8,0-2.9
		c-0.5-5-3.2-13.1-9.7-16.3c-2-1-3.8-1.1-5.2-0.2c-2.7,1.7-4,6.8-4,15.3c0,10-3.3,26.2-4.4,31.2c-1.7-0.3-3.5-0.5-5.3-0.5
		c-0.6,0-1.1,0-1.7,0.1v22.7c0.1-0.1,0.2-0.2,0.3-0.3c0.5-0.6,1-1.3,1.5-2.2c0.4-0.8,1-1.9,1.7-3.6H10h0c-0.1,0.6-0.2,1.2-0.3,1.8
		c-0.1,0.4-0.3,0.9-0.4,1.3c-0.6,1.7-1.5,3.1-2.7,4.4c-0.9,0.9-1.9,1.7-3.1,2.4c6.6,5.6,9.9,11.3,9.9,17h0h0H6.8
		c0-1-0.1-1.9-0.4-2.9c-0.8-2.9-2.8-5.9-6.1-8.9c-0.1-0.1-0.2-0.2-0.3-0.3v29.4C0.5,231.8,1.1,231.8,1.7,231.8z"/>
	<path class="st0" d="M6.4,211.4c0.3,1,0.4,1.9,0.4,2.9h6.5h0h0c0-5.7-3.3-11.4-9.9-17c1.2-0.7,2.2-1.5,3.1-2.4
		c1.2-1.2,2.1-2.7,2.7-4.4c0.2-0.4,0.3-0.8,0.4-1.3c0.1-0.6,0.2-1.2,0.3-1.8h0H3.5c-0.7,1.6-1.3,2.8-1.7,3.6c-0.5,0.9-1,1.6-1.5,2.2
		c-0.1,0.1-0.2,0.2-0.3,0.3v8.7c0.1,0.1,0.2,0.2,0.3,0.3C3.6,205.6,5.6,208.5,6.4,211.4z"/>
	<path class="st1" d="M1.7,383.3c2.8,0,5.3-1.1,6.9-2.7c0.7,0.6,1.6,1,2.5,1.3c0.9,0.3,1.8,0.4,2.8,0.4c2.3,0,4.7-0.8,6.6-2.5
		c0.8-0.7,1.4-1.5,1.9-2.4c1.3,0.8,2.9,1.2,4.5,1.2c2.3,0,4.7-0.8,6.6-2.5c1.8-1.6,2.8-3.8,2.8-5.9c0-2-0.8-3.8-2.3-5.1
		c-1.5-1.3-3.5-2-5.5-2c1.9-3.7,3-7.9,3-12.4c0-11-6.6-20.5-16.1-25.2c2-1.6,3.9-3.3,5.5-5.2c1.1-1.2,2.1-2.6,3-3.9
		c1.4-2.1,2.5-4.3,3.5-6.6c2.4-5.8,2.9-10.8,3.1-13.3c0-0.3,0-0.5,0.1-0.7c0.1-0.8,0.1-1.8,0-2.9c-0.5-5-3.2-13.1-9.7-16.3
		c-2-1-3.8-1.1-5.2-0.2c-2.7,1.7-4,6.8-4,15.3c0,10-3.3,26.2-4.4,31.2c-1.7-0.3-3.5-0.5-5.3-0.5c-0.6,0-1.1,0-1.7,0.1V345
		c0.1-0.1,0.2-0.2,0.3-0.3c0.5-0.6,1-1.3,1.5-2.2c0.4-0.8,1-1.9,1.7-3.6H10h0c-0.1,0.6-0.2,1.2-0.3,1.8c-0.4,1.3-0.9,2.5-1.6,3.6
		c-1.1,1.8-2.7,3.3-4.6,4.5c6.6,5.6,9.9,11.3,9.9,17h0h0H6.8c0-1-0.1-1.9-0.4-2.9C5.9,361,4.8,359,3.2,357c-0.8-1-1.8-2-2.8-3
		c-0.1-0.1-0.2-0.2-0.3-0.3v29.4C0.5,383.2,1.1,383.3,1.7,383.3z"/>
	<path class="st0" d="M3.2,357c1.6,2,2.7,4,3.2,5.9c0.3,1,0.4,1.9,0.4,2.9h6.5h0h0c0-5.7-3.3-11.4-9.9-17c2-1.2,3.5-2.6,4.6-4.5
		c0.7-1.1,1.2-2.3,1.6-3.6c0.1-0.6,0.2-1.2,0.3-1.8h0H3.5c-0.7,1.6-1.3,2.8-1.7,3.6c-0.5,0.9-1,1.6-1.5,2.2
		c-0.1,0.1-0.2,0.2-0.3,0.3v8.7c0.1,0.1,0.2,0.2,0.3,0.3C1.4,355,2.4,356,3.2,357z"/>
	<path class="st1" d="M15.2,476.8c2-1.6,3.9-3.3,5.5-5.2c1.1-1.2,2.1-2.6,3-3.9c1.4-2.1,2.5-4.3,3.5-6.6c2.4-5.8,2.9-10.8,3.1-13.3
		c0-0.3,0-0.5,0.1-0.7c0.1-0.8,0.1-1.8,0-2.9c-0.5-5-3.2-13.1-9.7-16.3c-2-1-3.8-1.1-5.2-0.2c-0.3,0.2-0.7,0.5-0.9,0.8
		c-0.3,0.3-0.6,0.7-0.8,1.1c-0.1,0.2-0.2,0.4-0.4,0.7c-1,2.1-1.7,5.4-1.9,9.7c0,1-0.1,2-0.1,3c0,0.3,0,0.6,0,1c0,0.6,0,1.3-0.1,2
		c0,0.3,0,0.7-0.1,1c-0.1,2.1-0.4,4.4-0.7,6.7c-0.1,1.1-0.3,2.3-0.5,3.4c-0.1,0.8-0.2,1.5-0.3,2.3c-0.1,0.4-0.1,0.7-0.2,1.1
		c-0.4,2.6-0.9,5.1-1.3,7.2c-0.5,2.8-1,5.1-1.3,6.5c-1.7-0.3-3.5-0.5-5.3-0.5c-0.6,0-1.1,0-1.7,0.1v22.7c0.1-0.1,0.2-0.2,0.3-0.3
		c0.5-0.6,1-1.3,1.5-2.2c0.4-0.8,1-1.9,1.7-3.6H10h0c-0.1,0.6-0.2,1.2-0.3,1.8c-0.4,1.3-0.9,2.5-1.6,3.6c-1.1,1.7-2.5,3.1-4.3,4.2
		h27.4C30.5,489.9,24.1,481.3,15.2,476.8z"/>
	<path class="st0" d="M8.1,495.8c0.7-1.1,1.2-2.3,1.6-3.6c0.1-0.6,0.2-1.2,0.3-1.8h0H3.5c-0.7,1.6-1.3,2.8-1.7,3.6
		c-0.5,0.9-1,1.6-1.5,2.2c-0.1,0.1-0.2,0.2-0.3,0.3v3.6h3.8C5.6,498.9,7,497.5,8.1,495.8z"/>
</g>
</svg>
