<?xml version="1.0" encoding="utf-8"?>
<!-- Generator: Adobe Illustrator 21.1.0, SVG Export Plug-In . SVG Version: 6.00 Build 0)  -->
<svg version="1.1" id="レイヤー_1" xmlns="http://www.w3.org/2000/svg" xmlns:xlink="http://www.w3.org/1999/xlink" x="0px"
	 y="0px" viewBox="0 0 500 500" style="enable-background:new 0 0 500 500;" xml:space="preserve">
<style type="text/css">
	.st0{fill:#FFF000;}
	.st1{fill:#009FE8;}
	.st2{fill:#009600;}
	.st3{fill:#008D00;}
	.st4{fill:#E3007F;}
	.st5{fill:#000074;}
	.st6{fill:#E30000;}
</style>
<g>
	<path class="st0" d="M471.7,0h-36c2.6,2.3,5.7,4.1,9,5.1c3.2,2,6.9,3.1,10.6,3.1c3.8,0,7.7-1.1,11.2-3.5
		C468.4,3.5,470.2,1.8,471.7,0"/>
	<path class="st1" d="M497,28.1c-0.3,0-0.6,0-0.9,0c-2.4,0.1-4.6,0.7-6.7,1.5c2.7,1.1,5.1,2.8,7.2,5.1c1.3,1.4,2.4,2.9,3.4,4.5v-11
		C499,28.1,498,28.1,497,28.1"/>
	<path class="st0" d="M460.8,71.5c-0.1,0.9-0.1,1.8,0,2.7c0.5,10,7.7,18.2,16.7,21c3.2,2,6.9,3.1,10.6,3.1c3.8,0,7.7-1.1,11.2-3.5
		c0.3-0.2,0.5-0.4,0.8-0.6V81.1l0,0c0,0,0,0-0.1,0l0,0c-0.7,0.1-1.5,0.1-2.2,0.1l0,0l0,0l0,0l0,0c-2.7,0-5.5-0.6-8-1.7
		c0,0,0,0-0.1,0l0,0l0,0c-2.6,1.1-5.2,1.7-7.9,1.7l0,0l0,0l0,0l0,0c-3.7,0-7.4-1.1-10.6-3.1l0,0l0,0
		C467.2,76.8,463.6,74.5,460.8,71.5"/>
	<path class="st2" d="M500,70.6c-1.9,2.8-4.3,5.3-7,7.2c-1.1,0.7-2.2,1.3-3.3,1.8l0,0c0,0,0,0,0.1,0c2.5,1.1,5.2,1.7,8,1.7l0,0l0,0
		c0.7,0,1.5,0,2.2-0.1l0,0c0,0,0,0,0.1,0l0,0V70.6"/>
	<path class="st3" d="M497.7,81.3L497.7,81.3L497.7,81.3L497.7,81.3 M499.9,81.1c-0.7,0.1-1.5,0.1-2.2,0.1
		C498.4,81.3,499.2,81.2,499.9,81.1 M500,81.1L500,81.1L500,81.1 M489.7,79.5L489.7,79.5L489.7,79.5"/>
	<path class="st4" d="M481.1,28c-0.3,0-0.6,0-1,0c-4.2,0.2-7.8,1.8-11.4,4c-8.7,5.4-14.8,14.6-14.3,25.1c0.3,5.6,2.7,10.6,6.3,14.5
		l0,0l0,0l0,0l0,0c0.4-7.6,4.3-14.3,9.9-19.2l0,0l0,0c1.2-8.5,6.7-15.7,14.1-20.3c1.5-0.9,3.1-1.8,4.7-2.4
		C486.8,28.6,484,28,481.1,28"/>
	<path class="st5" d="M489.4,29.6L489.4,29.6L489.4,29.6c-1.6,0.7-3.1,1.5-4.7,2.4c-7.4,4.6-12.8,11.8-14.1,20.3
		c1.4-1.2,2.8-2.3,4.4-3.2c3.6-2.2,7.2-3.8,11.4-4l0,0l0,0c0.3,0,0.6,0,0.9,0l0,0l0,0l0,0l0,0c4.6,0,8.9,1.4,12.5,4.1
		c0,0,0,0,0.1,0.1l0,0l0,0v-10l0,0c-1-1.6-2.1-3.1-3.4-4.5C494.5,32.5,492.1,30.8,489.4,29.6L489.4,29.6L489.4,29.6"/>
	<path class="st6" d="M470.7,52.4c-5.6,4.9-9.5,11.6-9.9,19.2c2.8,3,6.5,5.3,10.4,6.5l0,0l0,0c3.2,2,6.9,3.1,10.6,3.1l0,0l0,0
		c2.6,0,5.3-0.5,7.9-1.7l0,0c-0.9-0.4-1.7-0.9-2.6-1.4c-9-2.8-16.2-11-16.7-21c0-0.4,0-0.8,0-1.1l0,0l0,0l0,0
		C470.4,54.8,470.5,53.5,470.7,52.4"/>
	<path class="st6" d="M481.8,81.2L481.8,81.2L481.8,81.2L481.8,81.2 M489.7,79.5c-2.6,1.1-5.2,1.7-7.9,1.7
		C484.4,81.2,487.1,80.6,489.7,79.5 M471.2,78.1L471.2,78.1L471.2,78.1"/>
	<path d="M487.4,45.1L487.4,45.1c-0.3,0-0.6,0-0.9,0l0,0l0,0c-4.2,0.2-7.8,1.8-11.4,4c-1.5,1-3,2-4.4,3.2l0,0l0,0
		c-0.2,1.2-0.3,2.4-0.3,3.6c0,0.4,0,0.8,0,1.1c0.5,10,7.7,18.2,16.7,21c0.8,0.5,1.7,1,2.6,1.4c1.1-0.5,2.2-1.1,3.3-1.8
		c2.8-1.9,5.1-4.3,7-7.2V49.3l0,0l0,0l0,0l0,0c0,0,0,0-0.1-0.1C496.3,46.5,492,45.1,487.4,45.1L487.4,45.1"/>
	<path d="M487.4,45.1c-0.3,0-0.6,0-0.9,0C486.8,45.2,487.1,45.1,487.4,45.1 M487.4,45.1L487.4,45.1L487.4,45.1L487.4,45.1"/>
	<path class="st0" d="M493.5,161.6c-0.1,0.9-0.1,1.8,0,2.7c0.3,5.7,2.8,10.8,6.5,14.7v-12.5C497.6,165.2,495.4,163.6,493.5,161.6"/>
	<path class="st4" d="M500,123.1c-7.9,5.5-13.2,14.2-12.7,24c0.3,5.6,2.7,10.6,6.3,14.5l0,0l0,0l0,0l0,0c0.3-5.9,2.7-11.3,6.5-15.7
		L500,123.1"/>
	<path class="st6" d="M500,145.9L500,145.9c-3.7,4.4-6.1,9.8-6.5,15.7c1.9,2,4.1,3.6,6.5,4.9V145.9"/>
	<path class="st1" d="M397.7,0h-13.8c1.9,3.4,3.1,7.1,3.8,11.1c0.3,1.4,0.4,2.8,0.4,4.2l0,0c0,1.3-0.1,2.7-0.3,4
		C393.4,14.6,397.2,7.4,397.7,0"/>
	<path class="st0" d="M337.9,14.2c-0.1,0.9-0.1,1.8,0,2.7c0.5,10,7.7,18.2,16.7,21c3.2,2,6.9,3.1,10.6,3.1c3.8,0,7.7-1.1,11.2-3.5
		c6-4.1,10.3-11,11.4-18.4c-0.6,0.5-1.1,0.9-1.7,1.3c0,0-0.1,0-0.1,0.1c-3.5,2.3-7.3,3.4-11.1,3.4l0,0l0,0l0,0l0,0
		c-2.8,0-5.5-0.6-8-1.7c0,0,0,0-0.1,0l0,0l0,0c-2.6,1.1-5.2,1.7-7.9,1.7l0,0l0,0l0,0l0,0c-3.7,0-7.4-1.1-10.6-3.1l0,0l0,0
		C344.3,19.5,340.7,17.3,337.9,14.2"/>
	<path class="st2" d="M383.9,0h-2.1c-0.6,8-5,16-11.6,20.4c-1.1,0.7-2.2,1.3-3.3,1.8l0,0c0,0,0,0,0.1,0c2.5,1.1,5.3,1.7,8,1.7l0,0
		l0,0c3.8,0,7.6-1.1,11.1-3.4c0,0,0.1,0,0.1-0.1c0.6-0.4,1.2-0.8,1.7-1.3c0.2-1.3,0.3-2.7,0.3-4c0-1.4-0.1-2.8-0.4-4.2
		C387,7.1,385.8,3.4,383.9,0L383.9,0L383.9,0"/>
	<path class="st3" d="M374.9,24L374.9,24L374.9,24L374.9,24 M366.8,22.2C366.8,22.2,366.8,22.3,366.8,22.2
		C366.8,22.3,366.8,22.2,366.8,22.2 M386,20.6c-3.5,2.3-7.3,3.4-11.1,3.4C378.7,24,382.5,22.9,386,20.6"/>
	<path class="st4" d="M343.2,0h-11.6c0.3,5.5,2.7,10.4,6.2,14.2l0,0l0,0l0,0l0,0C338.2,9,340.1,4.1,343.2,0"/>
	<path class="st6" d="M347.6,0h-4.4l0,0l0,0c-3.1,4.1-5,9-5.3,14.2c2.8,3,6.5,5.3,10.4,6.5l0,0l0,0c3.2,2,6.9,3.1,10.6,3.1l0,0l0,0
		c2.6,0,5.3-0.5,7.9-1.7l0,0c-0.9-0.4-1.7-0.9-2.6-1.4C355.3,18.1,348.1,9.9,347.6,0"/>
	<path class="st6" d="M358.9,23.9L358.9,23.9L358.9,23.9L358.9,23.9 M366.8,22.2c-2.6,1.1-5.2,1.7-7.9,1.7
		C361.6,23.9,364.2,23.4,366.8,22.2 M348.3,20.8L348.3,20.8L348.3,20.8"/>
	<path d="M381.8,0h-34.2c0.6,9.9,7.7,18.1,16.7,20.9c0.8,0.5,1.7,1,2.6,1.4c1.1-0.5,2.2-1.1,3.3-1.8C376.7,16,381.2,8,381.8,0"/>
	<path class="st1" d="M407,60.9c-0.3,0-0.7,0-1,0c-2.4,0.1-4.6,0.7-6.7,1.5c2.7,1.1,5.1,2.8,7.2,5.1c4.3,4.7,6.6,10.3,7.7,16.5
		c0.2,0.9,0.3,1.9,0.3,2.8l0,0l0,0c3.2,4.2,4.9,9,5.9,14.3c0.3,1.4,0.4,2.8,0.4,4.2l0,0c0,1.3-0.1,2.7-0.3,4
		c7.2-5.9,11.3-16,9.6-25.2c-1.1-6.2-3.4-11.8-7.7-16.5C418.4,63.2,412.9,60.9,407,60.9"/>
	<path class="st0" d="M370.7,104.3c-0.1,0.9-0.1,1.8,0,2.7c0.5,10,7.7,18.2,16.7,21c3.2,2,6.9,3.1,10.6,3.1c3.8,0,7.7-1.1,11.2-3.5
		c6-4.1,10.3-11,11.4-18.4c-0.6,0.5-1.1,0.9-1.7,1.3l0,0c-3.5,2.3-7.3,3.4-11.1,3.5l0,0l0,0l0,0l0,0c-2.7,0-5.4-0.6-8-1.7
		c0,0,0,0-0.1,0l0,0c0,0,0,0-0.1,0l0,0c0,0-0.1,0-0.1,0.1l0,0h-0.1c-2.5,1.1-5.1,1.6-7.7,1.6l0,0l0,0l0,0l0,0
		c-3.7,0-7.4-1.1-10.6-3.1C377.1,109.6,373.5,107.3,370.7,104.3"/>
	<path class="st2" d="M414.6,86.8c0,0.5,0,0.9,0,1.4l0,0l0,0l0,0c0,8.7-4.6,17.5-11.7,22.3c-1.1,0.7-2.2,1.3-3.3,1.8l0,0
		c0,0,0,0,0.1,0l0,0c0,0,0,0,0.1,0c2.5,1.1,5.2,1.7,8,1.7l0,0l0,0c3.8,0,7.6-1.1,11.1-3.5l0,0c0.6-0.4,1.2-0.8,1.7-1.3
		c0.2-1.3,0.3-2.7,0.3-4c0-1.4-0.1-2.8-0.4-4.2C419.5,95.9,417.7,91,414.6,86.8"/>
	<path class="st3" d="M407.7,114.1L407.7,114.1L407.7,114.1L407.7,114.1 M399.6,112.3C399.7,112.4,399.7,112.4,399.6,112.3
		C399.7,112.4,399.7,112.4,399.6,112.3 M399.6,112.3L399.6,112.3L399.6,112.3 M418.8,110.6c-3.5,2.3-7.3,3.4-11.1,3.5
		C411.5,114.1,415.3,112.9,418.8,110.6"/>
	<path class="st4" d="M391.1,60.8c-0.3,0-0.6,0-1,0c-4.2,0.2-7.8,1.8-11.4,4c-8.7,5.4-14.8,14.6-14.3,25.1
		c0.3,5.6,2.7,10.6,6.3,14.5l0,0l0,0l0,0l0,0c0.4-7.6,4.3-14.3,9.9-19.2l0,0l0,0c1.2-8.5,6.7-15.7,14.1-20.3
		c1.5-0.9,3.1-1.8,4.7-2.4C396.7,61.3,394,60.8,391.1,60.8"/>
	<path class="st5" d="M399.3,62.4L399.3,62.4L399.3,62.4c-1.6,0.7-3.1,1.5-4.7,2.4c-7.4,4.6-12.8,11.8-14.1,20.3
		c1.4-1.2,2.8-2.3,4.4-3.2c3.6-2.2,7.2-3.8,11.4-4c0.3,0,0.7,0,1,0l0,0l0,0l0,0l0,0c5.9,0,11.3,2.3,15.4,6.7c0,0,0,0,0.1,0.1
		c0.7,0.7,1.2,1.4,1.8,2.2c-0.1-1-0.1-1.9-0.3-2.8c-1.1-6.2-3.4-11.8-7.7-16.5C404.4,65.3,402,63.6,399.3,62.4L399.3,62.4
		L399.3,62.4"/>
	<path class="st6" d="M380.6,85.1c-5.6,4.9-9.5,11.6-9.9,19.2c2.8,3,6.5,5.3,10.4,6.5c3.2,2,6.9,3.1,10.6,3.1l0,0l0,0
		c2.6,0,5.2-0.5,7.7-1.6h0.1l0,0c0,0,0.1,0,0.1-0.1c-0.9-0.4-1.7-0.9-2.6-1.4c-9-2.8-16.2-11-16.7-21c0-0.4,0-0.8,0-1.1l0,0l0,0l0,0
		C380.3,87.5,380.4,86.3,380.6,85.1"/>
	<path class="st6" d="M391.7,114L391.7,114L391.7,114L391.7,114 M399.4,112.4c-2.5,1.1-5.1,1.6-7.7,1.6
		C394.3,114,396.9,113.5,399.4,112.4 M399.5,112.4L399.5,112.4L399.5,112.4"/>
	<path d="M397.3,77.9L397.3,77.9c-0.3,0-0.7,0-1,0c-4.2,0.2-7.8,1.8-11.4,4c-1.5,1-3,2-4.4,3.2l0,0l0,0c-0.2,1.2-0.3,2.4-0.3,3.6
		c0,0.4,0,0.8,0,1.1c0.5,10,7.7,18.2,16.7,21c0.8,0.5,1.7,1,2.6,1.4c1.1-0.5,2.2-1.1,3.3-1.8c7.1-4.8,11.7-13.6,11.7-22.3
		c0-0.5,0-0.9,0-1.4l0,0l0,0c-0.6-0.7-1.2-1.5-1.8-2.2c0,0,0,0-0.1-0.1C408.6,80.2,403.2,77.9,397.3,77.9L397.3,77.9"/>
	<path d="M397.3,77.9c-0.3,0-0.7,0-1,0c-4.2,0.2-7.8,1.8-11.4,4c-1.5,1-3,2-4.4,3.2l0,0c1.4-1.2,2.8-2.3,4.4-3.2
		c3.6-2.2,7.2-3.8,11.4-4C396.7,77.9,397,77.9,397.3,77.9"/>
	<path class="st1" d="M439.8,150.9c-0.3,0-0.7,0-1,0c-2.4,0.1-4.6,0.7-6.7,1.5c2.7,1.1,5.1,2.8,7.2,5.1c4.3,4.7,6.6,10.3,7.7,16.5
		c0.2,0.9,0.3,1.9,0.3,2.8l0,0l0,0c3.2,4.2,4.9,9,5.9,14.3c0.3,1.4,0.4,2.8,0.4,4.2l0,0c0,1.3-0.1,2.7-0.3,4
		c7.2-5.9,11.3-16,9.6-25.2c-1.1-6.2-3.4-11.8-7.7-16.5C451.2,153.3,445.7,150.9,439.8,150.9"/>
	<path class="st0" d="M403.5,194.4c-0.1,0.9-0.1,1.8,0,2.7c0.5,10,7.7,18.2,16.7,21c3.2,2,6.9,3.1,10.6,3.1c3.8,0,7.7-1.1,11.2-3.5
		c6-4.1,10.3-11,11.4-18.4c-0.6,0.5-1.1,0.9-1.7,1.3l0,0c-3.5,2.3-7.3,3.4-11.1,3.5l0,0l0,0l0,0l0,0c-2.7,0-5.4-0.6-8-1.7l0,0l0,0
		c0,0,0,0-0.1,0l0,0l0,0c-2.6,1.1-5.2,1.7-7.9,1.7l0,0l0,0l0,0l0,0c-3.7,0-7.3-1-10.5-3L414,201l0,0
		C409.9,199.7,406.3,197.4,403.5,194.4"/>
	<path class="st2" d="M447.4,176.9c0,0.5,0,0.9,0,1.4l0,0l0,0l0,0c0,8.7-4.6,17.5-11.7,22.3c-1.1,0.7-2.2,1.3-3.3,1.8l0,0
		c0,0,0,0,0.1,0l0,0l0,0c2.5,1.1,5.2,1.7,8,1.7l0,0l0,0c3.8,0,7.6-1.1,11.1-3.5l0,0c0.6-0.4,1.2-0.8,1.7-1.3c0.2-1.3,0.3-2.7,0.3-4
		c0-1.4-0.1-2.8-0.4-4.2C452.3,185.9,450.5,181.1,447.4,176.9"/>
	<path class="st3" d="M440.4,204.1L440.4,204.1L440.4,204.1L440.4,204.1 M432.4,202.4C432.4,202.4,432.5,202.4,432.4,202.4
		C432.5,202.4,432.4,202.4,432.4,202.4 M432.4,202.4L432.4,202.4L432.4,202.4 M451.6,200.7c-3.5,2.3-7.3,3.4-11.1,3.5
		C444.2,204.1,448.1,203,451.6,200.7"/>
	<path class="st4" d="M423.8,150.9c-0.3,0-0.6,0-1,0c-4.2,0.2-7.8,1.8-11.4,4c-8.7,5.4-14.8,14.6-14.3,25.1
		c0.3,5.6,2.7,10.6,6.3,14.5l0,0l0,0l0,0l0,0c0.4-7.6,4.3-14.3,9.9-19.2l0,0l0,0c1.2-8.5,6.7-15.7,14.1-20.3
		c1.5-0.9,3.1-1.8,4.7-2.4C429.5,151.4,426.7,150.9,423.8,150.9"/>
	<path class="st5" d="M432.1,152.5L432.1,152.5L432.1,152.5c-1.6,0.7-3.1,1.5-4.7,2.4c-7.4,4.6-12.8,11.8-14.1,20.3
		c1.4-1.2,2.8-2.3,4.4-3.2c3.6-2.2,7.2-3.8,11.4-4c0.3,0,0.7,0,1,0l0,0l0,0l0,0l0,0c5.9,0,11.3,2.3,15.4,6.6l0.1,0.1
		c0.7,0.7,1.2,1.4,1.8,2.2c-0.1-1-0.1-1.9-0.3-2.8c-1.1-6.2-3.4-11.8-7.7-16.5C437.2,155.3,434.8,153.6,432.1,152.5L432.1,152.5
		L432.1,152.5"/>
	<path class="st6" d="M413.4,175.2c-5.6,4.9-9.5,11.6-9.9,19.2c2.8,3,6.5,5.3,10.4,6.5l0,0l0.1,0.1c3.2,2,6.8,3,10.5,3l0,0l0,0
		c2.6,0,5.3-0.5,7.9-1.7l0,0c-0.9-0.4-1.7-0.9-2.6-1.4c-9-2.8-16.2-11-16.7-21c0-0.4,0-0.8,0-1.1l0,0l0,0l0,0
		C413.1,177.6,413.2,176.4,413.4,175.2"/>
	<path class="st6" d="M424.5,204L424.5,204L424.5,204L424.5,204 M432.4,202.4c-2.6,1.1-5.2,1.7-7.9,1.7
		C427.1,204,429.8,203.5,432.4,202.4 M413.9,200.9l0.1,0.1C414,201,413.9,201,413.9,200.9"/>
	<path d="M430.1,168L430.1,168c-0.3,0-0.7,0-1,0c-4.2,0.2-7.8,1.8-11.4,4c-1.5,1-3,2-4.4,3.2l0,0l0,0c-0.2,1.2-0.3,2.4-0.3,3.6
		c0,0.4,0,0.8,0,1.1c0.5,10,7.7,18.2,16.7,21c0.8,0.5,1.7,1,2.6,1.4c1.1-0.5,2.2-1.1,3.3-1.8c7.1-4.8,11.7-13.6,11.7-22.3
		c0-0.5,0-0.9,0-1.4l0,0l0,0c-0.6-0.7-1.2-1.5-1.8-2.2l-0.1-0.1C441.4,170.3,436,168,430.1,168L430.1,168"/>
	<path d="M445.5,174.6C445.5,174.7,445.5,174.7,445.5,174.6c0.7,0.8,1.3,1.5,1.9,2.3l0,0C446.8,176.2,446.2,175.4,445.5,174.6
		C445.5,174.7,445.5,174.7,445.5,174.6 M430.1,168c-0.3,0-0.7,0-1,0c-4.2,0.2-7.8,1.8-11.4,4c-1.5,1-3,2-4.4,3.2l0,0
		c1.4-1.2,2.8-2.3,4.4-3.2c3.6-2.2,7.2-3.8,11.4-4C429.4,168,429.8,168,430.1,168 M430.1,168L430.1,168L430.1,168L430.1,168"/>
	<path class="st1" d="M472.6,241c-0.3,0-0.7,0-1,0c-2.4,0.1-4.6,0.7-6.7,1.5c2.7,1.1,5.1,2.8,7.2,5.1c4.3,4.7,6.6,10.3,7.7,16.5
		c0.2,0.9,0.3,1.9,0.3,2.8l0,0l0,0c3.2,4.2,4.9,9,5.9,14.3c0.3,1.4,0.4,2.8,0.4,4.2l0,0c0,1.3-0.1,2.7-0.3,4
		c7.2-5.9,11.3-16,9.6-25.2c-1.1-6.2-3.4-11.8-7.7-16.5C483.9,243.3,478.5,241,472.6,241"/>
	<path class="st0" d="M436.3,284.5c-0.1,0.9-0.1,1.8,0,2.7c0.5,10,7.7,18.2,16.7,21c3.2,2,6.9,3.1,10.6,3.1c3.8,0,7.7-1.1,11.2-3.5
		c6-4.1,10.3-11,11.4-18.4c-0.6,0.5-1.1,0.9-1.7,1.3c0,0-0.1,0-0.1,0.1c0,0,0,0-0.1,0l0,0c-3.5,2.3-7.3,3.4-11,3.4l0,0l0,0l0,0l0,0
		c-2.7,0-5.4-0.6-8-1.7c0,0-0.1,0-0.1-0.1l0,0l0,0c-2.6,1.1-5.2,1.7-7.9,1.7l0,0l0,0l0,0l0,0c-3.7,0-7.3-1.1-10.5-3.1h-0.1l0,0
		C442.7,289.8,439.1,287.5,436.3,284.5"/>
	<path class="st2" d="M480.1,267c0,0.5,0,0.9,0,1.4l0,0l0,0l0,0c0,8.7-4.6,17.5-11.7,22.3c-1.1,0.7-2.2,1.3-3.3,1.8l0,0
		c0,0,0.1,0,0.1,0.1c2.5,1.1,5.2,1.7,8,1.7l0,0l0,0c3.7,0,7.5-1.1,11-3.4l0,0c0,0,0,0,0.1,0c0,0,0.1,0,0.1-0.1
		c0.6-0.4,1.2-0.8,1.7-1.3c0.2-1.3,0.3-2.7,0.3-4c0-1.4-0.1-2.8-0.4-4.2C485.1,276,483.3,271.2,480.1,267"/>
	<path class="st3" d="M473.2,294.2L473.2,294.2L473.2,294.2L473.2,294.2 M465.2,292.5c0,0,0.1,0,0.1,0.1
		C465.2,292.5,465.2,292.5,465.2,292.5 M484.2,290.8c-3.5,2.3-7.3,3.4-11,3.4C477,294.2,480.8,293.1,484.2,290.8 M484.3,290.8
		L484.3,290.8L484.3,290.8"/>
	<path class="st4" d="M456.6,240.9c-0.3,0-0.6,0-1,0c-4.2,0.2-7.8,1.8-11.4,4c-8.7,5.4-14.8,14.6-14.3,25.1
		c0.3,5.6,2.7,10.6,6.3,14.5l0,0l0,0l0,0l0,0c0.4-7.6,4.3-14.3,9.9-19.2l0,0l0,0c1.2-8.5,6.7-15.7,14.1-20.3
		c1.5-0.9,3.1-1.8,4.7-2.4C462.3,241.5,459.5,240.9,456.6,240.9"/>
	<path class="st5" d="M464.9,242.6L464.9,242.6L464.9,242.6c-1.6,0.7-3.1,1.5-4.7,2.4c-7.4,4.6-12.8,11.8-14.1,20.3
		c1.4-1.2,2.8-2.3,4.4-3.2c3.6-2.2,7.2-3.8,11.4-4c0.3,0,0.7,0,1,0l0,0l0,0l0,0l0,0c6,0,11.4,2.3,15.5,6.7l0,0
		c0.7,0.7,1.2,1.4,1.8,2.2c-0.1-1-0.1-1.9-0.3-2.8c-1.1-6.2-3.4-11.8-7.7-16.5C470,245.4,467.6,243.7,464.9,242.6L464.9,242.6
		L464.9,242.6"/>
	<path class="st6" d="M446.1,265.3c-5.6,4.9-9.5,11.6-9.9,19.2c2.8,3,6.5,5.3,10.4,6.5l0,0h0.1c3.2,2,6.8,3.1,10.5,3.1l0,0l0,0
		c2.6,0,5.3-0.5,7.9-1.7l0,0c-0.9-0.4-1.7-0.9-2.6-1.4c-9-2.8-16.2-11-16.7-21c0-0.4,0-0.8,0-1.1l0,0l0,0l0,0
		C445.9,267.7,446,266.5,446.1,265.3"/>
	<path class="st6" d="M457.3,294.1L457.3,294.1L457.3,294.1L457.3,294.1 M465.2,292.5c-2.6,1.1-5.2,1.7-7.9,1.7
		C459.9,294.1,462.6,293.6,465.2,292.5 M446.7,291L446.7,291L446.7,291"/>
	<path d="M462.9,258.1L462.9,258.1c-0.3,0-0.7,0-1,0c-4.2,0.2-7.8,1.8-11.4,4c-1.5,1-3,2-4.4,3.2l0,0l0,0c-0.2,1.2-0.3,2.4-0.3,3.6
		c0,0.4,0,0.8,0,1.1c0.5,10,7.7,18.2,16.7,21c0.8,0.5,1.7,1,2.6,1.4c1.1-0.5,2.2-1.1,3.3-1.8c7.1-4.8,11.7-13.6,11.7-22.3
		c0-0.5,0-0.9,0-1.4l0,0l0,0c-0.6-0.7-1.2-1.5-1.8-2.2l0,0C474.3,260.4,468.8,258.1,462.9,258.1L462.9,258.1"/>
	<path d="M462.9,258.1c-0.3,0-0.6,0-1,0c-4.2,0.2-7.8,1.8-11.4,4c-1.5,1-3,2-4.4,3.2l0,0c1.4-1.2,2.8-2.3,4.4-3.2
		c3.6-2.2,7.2-3.8,11.4-4C462.2,258.1,462.5,258.1,462.9,258.1"/>
	<path class="st1" d="M500,331.8c-0.8,0.2-1.6,0.5-2.3,0.8c0.8,0.3,1.6,0.7,2.3,1.2V331.8"/>
	<path class="st0" d="M469,374.5c-0.1,0.9-0.1,1.8,0,2.7c0.5,10,7.7,18.2,16.7,21c3.2,2,6.9,3.1,10.6,3.1c1.2,0,2.5-0.1,3.7-0.4
		v-17.7c-0.7-0.2-1.4-0.5-2.1-0.8l0,0c-2.6,1.1-5.2,1.7-7.9,1.7l0,0l0,0l0,0l0,0c-3.7,0-7.3-1.1-10.5-3.1h-0.1l0,0
		C475.5,379.8,471.9,377.6,469,374.5"/>
	<path class="st2" d="M500,381.5c-0.7,0.4-1.4,0.7-2.1,1c0.7,0.3,1.4,0.6,2.1,0.8V381.5"/>
	<path class="st4" d="M489.4,331c-0.3,0-0.6,0-1,0c-4.2,0.2-7.8,1.8-11.4,4c-8.7,5.4-14.8,14.6-14.3,25.1c0.3,5.6,2.7,10.6,6.3,14.5
		l0,0l0,0l0,0l0,0c0.4-7.6,4.3-14.3,9.9-19.2l0,0l0,0c1.2-8.5,6.7-15.7,14.1-20.3c1.5-0.9,3.1-1.8,4.7-2.4
		C495.1,331.6,492.3,331,489.4,331"/>
	<path class="st5" d="M497.7,332.7L497.7,332.7L497.7,332.7c-1.6,0.7-3.1,1.5-4.7,2.4c-7.4,4.6-12.8,11.8-14.1,20.3
		c1.4-1.2,2.8-2.3,4.4-3.2c3.6-2.2,7.2-3.8,11.4-4c0.3,0,0.6,0,1,0l0,0l0,0l0,0l0,0c1.4,0,2.8,0.1,4.2,0.4l0,0c0.1,0,0.1,0,0.2,0
		l0,0v-14.8l0,0C499.2,333.4,498.5,333,497.7,332.7L497.7,332.7L497.7,332.7"/>
	<path class="st6" d="M478.9,355.4c-5.6,4.9-9.5,11.6-9.9,19.2c2.8,3,6.5,5.3,10.4,6.5l0,0h0.1c3.2,2,6.8,3.1,10.5,3.1l0,0l0,0
		c2.6,0,5.3-0.5,7.9-1.7l0,0c-0.9-0.4-1.7-0.9-2.6-1.4c-9-2.8-16.2-11-16.7-21c0-0.4,0-0.8,0-1.1l0,0l0,0l0,0
		C478.7,357.8,478.8,356.6,478.9,355.4"/>
	<path class="st6" d="M490.1,384.2L490.1,384.2L490.1,384.2L490.1,384.2 M497.9,382.5c-2.6,1.1-5.2,1.7-7.9,1.7
		C492.7,384.2,495.4,383.7,497.9,382.5 M479.4,381.1C479.5,381.1,479.5,381.1,479.4,381.1C479.5,381.1,479.5,381.1,479.4,381.1"/>
	<path d="M495.6,348.2L495.6,348.2c-0.3,0-0.6,0-1,0c-4.2,0.2-7.8,1.8-11.4,4c-1.5,1-3,2-4.4,3.2l0,0l0,0c-0.2,1.2-0.3,2.4-0.3,3.6
		c0,0.4,0,0.8,0,1.1c0.5,10,7.7,18.2,16.7,21c0.8,0.5,1.7,1,2.6,1.4c0.7-0.3,1.4-0.6,2.1-1v-32.9l0,0l0,0l0,0c-0.1,0-0.1,0-0.2,0
		l0,0C498.5,348.3,497.1,348.2,495.6,348.2L495.6,348.2"/>
	<path d="M500,348.6L500,348.6L500,348.6L500,348.6 M499.8,348.6L499.8,348.6L499.8,348.6 M495.6,348.2c-0.3,0-0.6,0-1,0
		c-4.2,0.2-7.8,1.8-11.4,4c-1.5,1-3,2-4.4,3.2l0,0c1.4-1.2,2.8-2.3,4.4-3.2c3.6-2.2,7.2-3.8,11.4-4
		C495,348.2,495.3,348.2,495.6,348.2 M495.6,348.2L495.6,348.2L495.6,348.2L495.6,348.2"/>
	<path class="st4" d="M500,434.5c-3,4.6-4.7,9.9-4.4,15.7c0.2,4.6,1.9,8.8,4.4,12.3V434.5"/>
	<path class="st1" d="M284.1,3.6c-0.3,0-0.7,0-1,0c-2.4,0.1-4.6,0.7-6.7,1.5c2.7,1.1,5.1,2.8,7.2,5.1c4.3,4.7,6.6,10.3,7.7,16.5
		c0.2,0.9,0.3,1.9,0.3,2.8l0,0l0,0c3.2,4.2,4.9,9,5.9,14.3c0.3,1.4,0.4,2.8,0.4,4.2l0,0c0,1.3-0.1,2.7-0.3,4
		c7.2-5.9,11.3-16,9.6-25.2c-1.1-6.2-3.4-11.8-7.7-16.5C295.5,5.9,290.1,3.6,284.1,3.6"/>
	<path class="st0" d="M247.8,47c-0.1,0.9-0.1,1.8,0,2.7c0.5,10,7.7,18.2,16.7,21c3.2,2,6.9,3.1,10.6,3.1c3.8,0,7.7-1.1,11.2-3.5
		c6-4.1,10.3-11,11.4-18.4c-0.6,0.5-1.1,0.9-1.7,1.3l0,0c-3.5,2.3-7.3,3.4-11.1,3.5l0,0l0,0l0,0l0,0c-2.7,0-5.4-0.6-8-1.7
		c0,0,0,0-0.1,0l0,0c0,0,0,0-0.1,0l0,0c0,0-0.1,0-0.1,0.1l0,0h-0.1c-2.5,1.1-5.1,1.6-7.6,1.6l0,0l0,0l0,0l0,0c-3.7,0-7.3-1-10.5-3
		c-0.1,0-0.1-0.1-0.2-0.1l0,0C254.3,52.3,250.7,50,247.8,47"/>
	<path class="st2" d="M291.7,29.5c0,0.5,0,0.9,0,1.4l0,0l0,0l0,0c0,8.7-4.6,17.5-11.7,22.3c-1.1,0.7-2.2,1.3-3.3,1.8l0,0
		c0,0,0,0,0.1,0l0,0c0,0,0,0,0.1,0c2.5,1.1,5.2,1.7,8,1.7l0,0l0,0c3.8,0,7.6-1.1,11.1-3.5l0,0c0.6-0.4,1.2-0.8,1.7-1.3
		c0.2-1.3,0.3-2.7,0.3-4c0-1.4-0.1-2.8-0.4-4.2C296.7,38.6,294.9,33.7,291.7,29.5"/>
	<path class="st3" d="M284.8,56.8L284.8,56.8L284.8,56.8L284.8,56.8 M276.8,55.1L276.8,55.1L276.8,55.1 M276.7,55
		C276.7,55,276.8,55,276.7,55C276.8,55,276.7,55,276.7,55 M295.9,53.3c-3.5,2.3-7.3,3.4-11.1,3.5C288.6,56.8,292.4,55.7,295.9,53.3"
		/>
	<path class="st4" d="M268.2,3.5c-0.3,0-0.6,0-1,0c-4.2,0.2-7.8,1.8-11.4,4c-8.7,5.4-14.8,14.6-14.3,25.1c0.3,5.6,2.7,10.6,6.3,14.5
		l0,0l0,0l0,0l0,0c0.4-7.6,4.3-14.3,9.9-19.2l0,0l0,0c1.2-8.5,6.7-15.7,14.1-20.3c1.5-0.9,3.1-1.8,4.7-2.4
		C273.9,4.1,271.1,3.5,268.2,3.5"/>
	<path class="st5" d="M276.4,5.1L276.4,5.1L276.4,5.1c-1.6,0.7-3.1,1.5-4.7,2.4c-7.4,4.6-12.8,11.8-14.1,20.3
		c1.4-1.2,2.8-2.3,4.4-3.2c3.6-2.2,7.2-3.8,11.4-4c0.3,0,0.7,0,1,0l0,0l0,0l0,0l0,0c5.9,0,11.3,2.3,15.4,6.6l0.1,0.1
		c0.7,0.7,1.2,1.4,1.8,2.2c-0.1-1-0.1-1.9-0.3-2.8c-1.1-6.2-3.4-11.8-7.7-16.5C281.6,8,279.1,6.3,276.4,5.1L276.4,5.1L276.4,5.1"/>
	<path class="st6" d="M257.7,27.8c-5.6,4.9-9.5,11.6-9.9,19.2c2.8,3,6.5,5.3,10.4,6.5l0,0c0.1,0,0.1,0.1,0.2,0.1c3.2,2,6.8,3,10.5,3
		l0,0l0,0c2.6,0,5.2-0.5,7.6-1.6h0.1l0,0c0,0,0.1,0,0.1-0.1c-0.9-0.4-1.7-0.9-2.6-1.4c-9-2.8-16.2-11-16.7-21c0-0.4,0-0.8,0-1.1l0,0
		l0,0l0,0C257.4,30.3,257.5,29,257.7,27.8"/>
	<path class="st6" d="M268.8,56.7L268.8,56.7L268.8,56.7L268.8,56.7 M276.5,55.1c-2.5,1.1-5.1,1.6-7.6,1.6
		C271.4,56.7,274,56.2,276.5,55.1 M276.6,55.1L276.6,55.1L276.6,55.1 M258.2,53.6c0.1,0,0.1,0.1,0.2,0.1
		C258.3,53.6,258.3,53.6,258.2,53.6"/>
	<path d="M274.4,20.6L274.4,20.6c-0.3,0-0.7,0-1,0c-4.2,0.2-7.8,1.8-11.4,4c-1.5,1-3,2-4.4,3.2l0,0l0,0c-0.2,1.2-0.3,2.4-0.3,3.6
		c0,0.4,0,0.8,0,1.1c0.5,10,7.7,18.2,16.7,21c0.8,0.5,1.7,1,2.6,1.4c1.1-0.5,2.2-1.1,3.3-1.8c7.1-4.8,11.7-13.6,11.7-22.3
		c0-0.5,0-0.9,0-1.4l0,0l0,0c-0.6-0.7-1.2-1.5-1.8-2.2l-0.1-0.1C285.7,22.9,280.4,20.6,274.4,20.6L274.4,20.6"/>
	<path d="M274.4,20.6c-0.3,0-0.7,0-1,0c-4.2,0.2-7.8,1.8-11.4,4c-1.5,1-3,2-4.4,3.2l0,0c1.4-1.2,2.8-2.3,4.4-3.2
		c3.6-2.2,7.2-3.8,11.4-4C273.8,20.6,274.1,20.6,274.4,20.6"/>
	<path class="st1" d="M316.9,93.6c-0.3,0-0.7,0-1,0c-2.4,0.1-4.6,0.7-6.7,1.5c2.7,1.1,5.1,2.8,7.2,5.1c4.3,4.7,6.6,10.3,7.7,16.5
		c0.2,0.9,0.3,1.9,0.3,2.8l0,0l0,0c3.2,4.2,4.9,9,5.9,14.3c0.3,1.4,0.4,2.8,0.4,4.2l0,0c0,1.3-0.1,2.7-0.3,4
		c7.2-5.9,11.3-16,9.6-25.2c-1.1-6.2-3.4-11.8-7.7-16.5C328.3,96,322.9,93.6,316.9,93.6"/>
	<path class="st0" d="M280.6,137.1c-0.1,0.9-0.1,1.8,0,2.7c0.5,10,7.7,18.2,16.7,21c3.2,2,6.9,3.1,10.6,3.1c3.8,0,7.7-1.1,11.2-3.5
		c6-4.1,10.3-11,11.4-18.4c-0.6,0.5-1.1,0.9-1.7,1.3l0,0c0,0,0,0-0.1,0l0,0c-3.5,2.3-7.3,3.4-11,3.4l0,0l0,0l0,0l0,0
		c-2.8,0-5.5-0.6-8-1.7l0,0l0,0l0,0c0,0-0.1,0-0.1,0.1l0,0c-2.5,1.1-5.1,1.6-7.7,1.6l0,0l0,0l0,0l0,0c-3.7,0-7.4-1.1-10.6-3.1
		C287.1,142.4,283.4,140.1,280.6,137.1"/>
	<path class="st2" d="M324.5,119.6c0,0.5,0,0.9,0,1.4l0,0l0,0l0,0c0,8.7-4.6,17.5-11.7,22.3c-1.1,0.7-2.2,1.3-3.3,1.8l0,0l0,0
		c2.5,1.1,5.3,1.7,8,1.7l0,0l0,0c3.8,0,7.6-1.1,11-3.4l0,0c0,0,0,0,0.1,0l0,0c0.6-0.4,1.2-0.8,1.7-1.3c0.2-1.3,0.3-2.7,0.3-4
		c0-1.4-0.1-2.8-0.4-4.2C329.4,128.6,327.7,123.8,324.5,119.6"/>
	<path class="st3" d="M317.6,146.8L317.6,146.8L317.6,146.8L317.6,146.8 M309.5,145.1L309.5,145.1L309.5,145.1 M328.6,143.5
		c-3.5,2.3-7.3,3.4-11,3.4C321.3,146.8,325.2,145.8,328.6,143.5 M328.7,143.4L328.7,143.4L328.7,143.4"/>
	<path class="st4" d="M301,93.6c-0.3,0-0.6,0-1,0c-4.2,0.2-7.8,1.8-11.4,4c-8.7,5.4-14.8,14.6-14.3,25.1c0.3,5.6,2.7,10.6,6.3,14.5
		l0,0l0,0l0,0l0,0c0.4-7.6,4.3-14.3,9.9-19.2l0,0l0,0c1.2-8.5,6.7-15.7,14.1-20.3c1.5-0.9,3.1-1.8,4.7-2.4
		C306.7,94.1,303.9,93.6,301,93.6"/>
	<path class="st5" d="M309.2,95.2L309.2,95.2L309.2,95.2c-1.6,0.7-3.1,1.5-4.7,2.4c-7.4,4.6-12.8,11.8-14.1,20.3
		c1.4-1.2,2.8-2.3,4.4-3.2c3.6-2.2,7.2-3.8,11.4-4c0.3,0,0.7,0,1,0l0,0l0,0l0,0l0,0c5.9,0,11.3,2.3,15.4,6.6l0.1,0.1
		c0.7,0.7,1.2,1.4,1.8,2.2c-0.1-1-0.1-1.9-0.3-2.8c-1.1-6.2-3.4-11.8-7.7-16.5C314.4,98,311.9,96.3,309.2,95.2L309.2,95.2
		L309.2,95.2"/>
	<path class="st6" d="M290.5,117.9c-5.6,4.9-9.5,11.6-9.9,19.2c2.8,3,6.5,5.3,10.4,6.5c3.2,2,6.9,3.1,10.6,3.1l0,0l0,0
		c2.6,0,5.2-0.5,7.7-1.6l0,0c0,0,0.1,0,0.1-0.1l0,0c-0.9-0.4-1.7-0.9-2.6-1.4c-9-2.8-16.2-11-16.7-21c0-0.4,0-0.8,0-1.1l0,0l0,0l0,0
		C290.2,120.3,290.3,119.1,290.5,117.9"/>
	<path class="st6" d="M301.6,146.8L301.6,146.8L301.6,146.8L301.6,146.8 M309.4,145.2c-2.5,1.1-5.1,1.6-7.7,1.6
		C304.2,146.8,306.9,146.2,309.4,145.2 M309.5,145.1c0,0-0.1,0-0.1,0.1C309.4,145.1,309.5,145.1,309.5,145.1"/>
	<path d="M307.2,110.7L307.2,110.7c-0.3,0-0.7,0-1,0c-4.2,0.2-7.8,1.8-11.4,4c-1.5,1-3,2-4.4,3.2l0,0l0,0c-0.2,1.2-0.3,2.4-0.3,3.6
		c0,0.4,0,0.8,0,1.1c0.5,10,7.7,18.2,16.7,21c0.8,0.5,1.7,1,2.6,1.4c1.1-0.5,2.2-1.1,3.3-1.8c7.1-4.8,11.7-13.6,11.7-22.3
		c0-0.5,0-0.9,0-1.4l0,0l0,0c-0.6-0.7-1.2-1.5-1.8-2.2l-0.1-0.1C318.5,113,313.1,110.7,307.2,110.7L307.2,110.7"/>
	<path d="M322.6,117.4C322.6,117.4,322.7,117.4,322.6,117.4c0.7,0.8,1.3,1.5,1.9,2.3l0,0C323.9,118.9,323.4,118.2,322.6,117.4
		C322.7,117.4,322.6,117.4,322.6,117.4 M307.2,110.7c-0.3,0-0.7,0-1,0c-4.2,0.2-7.8,1.8-11.4,4c-1.5,1-3,2-4.4,3.2l0,0
		c1.4-1.2,2.8-2.3,4.4-3.2c3.6-2.2,7.2-3.8,11.4-4C306.6,110.7,306.9,110.7,307.2,110.7 M307.2,110.7L307.2,110.7L307.2,110.7
		L307.2,110.7"/>
	<path class="st1" d="M349.7,183.7c-0.3,0-0.6,0-1,0c-2.4,0.1-4.6,0.7-6.7,1.5c2.7,1.1,5.1,2.8,7.2,5.1c4.3,4.7,6.6,10.3,7.7,16.5
		c0.2,0.9,0.3,1.9,0.3,2.8l0,0l0,0c3.2,4.2,4.9,9,5.9,14.3c0.3,1.4,0.4,2.8,0.4,4.2l0,0c0,1.3-0.1,2.7-0.3,4
		c7.2-5.9,11.3-16,9.6-25.2c-1.1-6.2-3.4-11.8-7.7-16.5C361.1,186.1,355.7,183.7,349.7,183.7"/>
	<path class="st0" d="M313.4,227.2c-0.1,0.9-0.1,1.8,0,2.7c0.5,10,7.7,18.2,16.7,21c3.2,2,6.9,3.1,10.6,3.1c3.8,0,7.7-1.1,11.2-3.5
		c6-4.1,10.3-11,11.4-18.4c-0.6,0.5-1.1,0.9-1.7,1.3c0,0-0.1,0-0.1,0.1l0,0c0,0-0.1,0-0.1,0.1c-3.5,2.3-7.3,3.4-11,3.4l0,0l0,0l0,0
		l0,0c-2.8,0-5.5-0.6-8-1.7c0,0,0,0-0.1,0l0,0l0,0c-2.6,1.1-5.2,1.7-7.9,1.7l0,0l0,0l0,0l0,0c-3.7,0-7.4-1.1-10.6-3.1l0,0l0,0
		C319.8,232.5,316.2,230.2,313.4,227.2"/>
	<path class="st2" d="M357.3,209.7c0,0.5,0,0.9,0,1.4l0,0l0,0l0,0c0,8.7-4.6,17.5-11.7,22.3c-1.1,0.7-2.2,1.3-3.3,1.8l0,0
		c0,0,0,0,0.1,0c2.5,1.1,5.3,1.7,8,1.7l0,0l0,0c3.7,0,7.5-1.1,11-3.4c0,0,0.1,0,0.1-0.1l0,0c0,0,0.1,0,0.1-0.1
		c0.6-0.4,1.2-0.8,1.7-1.3c0.2-1.3,0.3-2.7,0.3-4c0-1.4-0.1-2.8-0.4-4.2C362.2,218.7,360.5,213.9,357.3,209.7"/>
	<path class="st3" d="M350.4,236.9L350.4,236.9L350.4,236.9L350.4,236.9 M342.3,235.2L342.3,235.2L342.3,235.2 M361.4,233.6
		c-3.5,2.3-7.3,3.4-11,3.4C354.1,236.9,357.9,235.8,361.4,233.6 M361.5,233.5L361.5,233.5L361.5,233.5"/>
	<path class="st4" d="M333.8,183.6c-0.3,0-0.6,0-1,0c-4.2,0.2-7.8,1.8-11.4,4c-8.7,5.4-14.8,14.6-14.3,25.1
		c0.3,5.6,2.7,10.6,6.3,14.5l0,0l0,0l0,0l0,0c0.4-7.6,4.3-14.3,9.9-19.2l0,0l0,0c1.2-8.5,6.7-15.7,14.1-20.3
		c1.5-0.9,3.1-1.8,4.7-2.4C339.5,184.2,336.7,183.6,333.8,183.6"/>
	<path class="st5" d="M342,185.3L342,185.3L342,185.3c-1.6,0.7-3.1,1.5-4.7,2.4c-7.4,4.6-12.8,11.8-14.1,20.3
		c1.4-1.2,2.8-2.3,4.4-3.2c3.6-2.2,7.2-3.8,11.4-4c0.3,0,0.7,0,1,0l0,0l0,0l0,0l0,0c5.9,0,11.3,2.3,15.4,6.6l0.1,0.1
		c0.7,0.7,1.2,1.4,1.8,2.2c-0.1-1-0.1-1.9-0.3-2.8c-1.1-6.2-3.4-11.8-7.7-16.5C347.1,188.1,344.7,186.4,342,185.3L342,185.3
		L342,185.3"/>
	<path class="st6" d="M323.3,208c-5.6,4.9-9.5,11.6-9.9,19.2c2.8,3,6.5,5.3,10.4,6.5l0,0l0,0c3.2,2,6.9,3.1,10.6,3.1l0,0l0,0
		c2.6,0,5.3-0.5,7.9-1.7l0,0c-0.9-0.4-1.7-0.9-2.6-1.4c-9-2.8-16.2-11-16.7-21c0-0.4,0-0.8,0-1.1l0,0l0,0l0,0
		C323,210.4,323.1,209.2,323.3,208"/>
	<path class="st6" d="M334.4,236.8L334.4,236.8L334.4,236.8L334.4,236.8 M342.3,235.2c-2.6,1.1-5.2,1.7-7.9,1.7
		C337.1,236.8,339.7,236.3,342.3,235.2 M323.8,233.7L323.8,233.7L323.8,233.7"/>
	<path d="M340,200.8L340,200.8c-0.3,0-0.7,0-1,0c-4.2,0.2-7.8,1.8-11.4,4c-1.5,1-3,2-4.4,3.2l0,0l0,0c-0.2,1.2-0.3,2.4-0.3,3.6
		c0,0.4,0,0.8,0,1.1c0.5,10,7.7,18.2,16.7,21c0.8,0.5,1.7,1,2.6,1.4c1.1-0.5,2.2-1.1,3.3-1.8c7.1-4.8,11.7-13.6,11.7-22.3
		c0-0.5,0-0.9,0-1.4l0,0l0,0c-0.6-0.7-1.2-1.5-1.8-2.2l-0.1-0.1C351.3,203.1,345.9,200.8,340,200.8L340,200.8"/>
	<path d="M340,200.8c-0.3,0-0.7,0-1,0c-4.2,0.2-7.8,1.8-11.4,4c-1.5,1-3,2-4.4,3.2l0,0c1.4-1.2,2.8-2.3,4.4-3.2
		c3.6-2.2,7.2-3.8,11.4-4C339.4,200.8,339.7,200.8,340,200.8"/>
	<path class="st1" d="M382.5,273.8c-0.3,0-0.6,0-1,0c-2.4,0.1-4.6,0.7-6.7,1.5c2.7,1.1,5.1,2.8,7.2,5.1c4.3,4.7,6.6,10.3,7.7,16.5
		c0.2,0.9,0.3,1.9,0.3,2.8l0,0l0,0c3.2,4.2,4.9,9,5.9,14.3c0.3,1.4,0.4,2.8,0.4,4.2l0,0c0,1.3-0.1,2.7-0.3,4
		c7.2-5.9,11.3-16,9.6-25.2c-1.1-6.2-3.4-11.8-7.7-16.5C393.9,276.1,388.4,273.8,382.5,273.8"/>
	<path class="st0" d="M346.2,317.2c-0.1,0.9-0.1,1.8,0,2.7c0.5,10,7.7,18.2,16.7,21c3.2,2,6.9,3.1,10.6,3.1c3.8,0,7.7-1.1,11.2-3.5
		c6-4.1,10.3-11,11.4-18.4c-0.6,0.5-1.1,0.9-1.7,1.3l0,0c0,0,0,0-0.1,0l0,0c-3.5,2.3-7.3,3.4-11,3.4l0,0l0,0l0,0l0,0
		c-2.7,0-5.4-0.6-8-1.7l0,0l0,0c0,0,0,0-0.1,0l0,0c0,0,0,0-0.1,0H375l0,0c-2.5,1.1-5.1,1.6-7.7,1.6l0,0l0,0l0,0l0,0
		c-3.7,0-7.4-1.1-10.6-3.1l0,0l0,0C352.6,322.6,349,320.3,346.2,317.2"/>
	<path class="st2" d="M390.1,299.8c0,0.5,0,0.9,0,1.4l0,0l0,0l0,0c0,8.7-4.6,17.5-11.7,22.3c-1.1,0.7-2.2,1.3-3.3,1.8l0,0
		c0,0,0,0,0.1,0l0,0l0,0c2.5,1.1,5.2,1.7,8,1.7l0,0l0,0c3.8,0,7.6-1.1,11-3.4l0,0c0,0,0,0,0.1,0l0,0c0.6-0.4,1.2-0.8,1.7-1.3
		c0.2-1.3,0.3-2.7,0.3-4c0-1.4-0.1-2.8-0.4-4.2C395,308.8,393.2,304,390.1,299.8"/>
	<path class="st3" d="M383.2,327L383.2,327L383.2,327L383.2,327 M375.1,325.3C375.2,325.3,375.2,325.3,375.1,325.3
		C375.2,325.3,375.2,325.3,375.1,325.3 M375.1,325.3L375.1,325.3L375.1,325.3 M394.2,323.6c-3.5,2.3-7.3,3.4-11,3.4
		C386.9,327,390.7,325.9,394.2,323.6 M394.3,323.5C394.3,323.6,394.2,323.6,394.3,323.5C394.2,323.6,394.3,323.6,394.3,323.5"/>
	<path class="st4" d="M366.5,273.7c-0.3,0-0.6,0-1,0c-4.2,0.2-7.8,1.8-11.4,4c-8.7,5.4-14.8,14.6-14.3,25.1
		c0.3,5.6,2.7,10.6,6.3,14.5l0,0l0,0l0,0l0,0c0.4-7.6,4.3-14.3,9.9-19.2l0,0l0,0c1.2-8.5,6.7-15.7,14.1-20.3
		c1.5-0.9,3.1-1.8,4.7-2.4C372.2,274.3,369.5,273.7,366.5,273.7"/>
	<path class="st5" d="M374.8,275.4L374.8,275.4L374.8,275.4c-1.6,0.7-3.1,1.5-4.7,2.4c-7.4,4.6-12.8,11.8-14.1,20.3
		c1.4-1.2,2.8-2.3,4.4-3.2c3.6-2.2,7.2-3.8,11.4-4c0.3,0,0.7,0,1,0l0,0l0,0l0,0l0,0c6,0,11.4,2.3,15.5,6.7l0,0
		c0.7,0.7,1.2,1.4,1.8,2.2c-0.1-1-0.1-1.9-0.3-2.8c-1.1-6.2-3.4-11.8-7.7-16.5C379.9,278.2,377.5,276.5,374.8,275.4L374.8,275.4
		L374.8,275.4"/>
	<path class="st6" d="M356.1,298.1c-5.6,4.9-9.5,11.6-9.9,19.2c2.8,3,6.5,5.3,10.4,6.5l0,0l0,0c3.2,2,6.9,3.1,10.6,3.1l0,0l0,0
		c2.6,0,5.2-0.5,7.7-1.6l0,0h0.1c0,0,0,0,0.1,0c-0.9-0.4-1.7-0.9-2.6-1.4c-9-2.8-16.2-11-16.7-21c0-0.4,0-0.8,0-1.1l0,0l0,0l0,0
		C355.8,300.5,355.9,299.3,356.1,298.1"/>
	<path class="st6" d="M367.2,326.9L367.2,326.9L367.2,326.9L367.2,326.9 M374.9,325.3c-2.5,1.1-5.1,1.6-7.7,1.6
		C369.8,326.9,372.4,326.4,374.9,325.3 M375,325.3L375,325.3L375,325.3 M356.6,323.8L356.6,323.8L356.6,323.8"/>
	<path d="M372.8,290.9L372.8,290.9c-0.3,0-0.6,0-1,0c-4.2,0.2-7.8,1.8-11.4,4c-1.5,1-3,2-4.4,3.2l0,0l0,0c-0.2,1.2-0.3,2.4-0.3,3.6
		c0,0.4,0,0.8,0,1.1c0.5,10,7.7,18.2,16.7,21c0.8,0.5,1.7,1,2.6,1.4c1.1-0.5,2.2-1.1,3.3-1.8c7.1-4.8,11.7-13.6,11.7-22.3
		c0-0.5,0-0.9,0-1.4l0,0l0,0c-0.6-0.7-1.2-1.5-1.8-2.2l0,0C384.2,293.2,378.8,290.9,372.8,290.9L372.8,290.9"/>
	<path d="M388.3,297.6L388.3,297.6c0.7,0.7,1.2,1.4,1.8,2.2l0,0C389.5,299,388.9,298.3,388.3,297.6L388.3,297.6 M372.8,290.9
		c-0.3,0-0.6,0-1,0c-4.2,0.2-7.8,1.8-11.4,4c-1.5,1-3,2-4.4,3.2l0,0c1.4-1.2,2.8-2.3,4.4-3.2c3.6-2.2,7.2-3.8,11.4-4
		C372.1,290.9,372.5,290.9,372.8,290.9 M372.8,290.9L372.8,290.9L372.8,290.9L372.8,290.9"/>
	<path class="st1" d="M415.3,363.9c-0.3,0-0.7,0-1,0c-2.4,0.1-4.6,0.7-6.7,1.5c2.7,1.1,5.1,2.8,7.2,5.1c4.3,4.7,6.6,10.3,7.7,16.5
		c0.2,0.9,0.3,1.9,0.3,2.8l0,0l0,0c3.2,4.2,4.9,9,5.9,14.3c0.3,1.4,0.4,2.8,0.4,4.2l0,0c0,1.3-0.1,2.7-0.3,4
		c7.2-5.9,11.3-16,9.6-25.2c-1.1-6.2-3.4-11.8-7.7-16.5C426.6,366.2,421.2,363.9,415.3,363.9"/>
	<path class="st0" d="M379,407.3c-0.1,0.9-0.1,1.8,0,2.7c0.5,10,7.7,18.2,16.7,21c3.2,2,6.9,3.1,10.6,3.1c3.8,0,7.7-1.1,11.2-3.5
		c6-4.1,10.3-11,11.4-18.4c-0.6,0.5-1.1,0.9-1.7,1.3l0,0c-3.5,2.4-7.4,3.5-11.2,3.5l0,0l0,0l0,0l0,0c-2.8,0-5.5-0.6-8-1.7l0,0
		c0,0,0,0-0.1,0l0,0c0,0-0.1,0-0.1,0.1l0,0c-2.5,1.1-5.1,1.6-7.7,1.6l0,0l0,0l0,0l0,0c-3.7,0-7.4-1.1-10.6-3.1l0,0l0,0
		C385.4,412.6,381.8,410.3,379,407.3"/>
	<path class="st2" d="M422.9,389.9c0,0.5,0,0.9,0,1.4l0,0l0,0l0,0c0,8.7-4.6,17.5-11.7,22.3c-1.1,0.7-2.2,1.3-3.3,1.8c0,0,0,0,0.1,0
		l0,0c2.5,1.1,5.3,1.7,8,1.7l0,0l0,0c3.8,0,7.7-1.1,11.2-3.5l0,0c0.6-0.4,1.2-0.8,1.7-1.3c0.2-1.3,0.3-2.7,0.3-4
		c0-1.4-0.1-2.8-0.4-4.2C427.8,398.9,426,394,422.9,389.9"/>
	<path class="st3" d="M415.9,417.1L415.9,417.1L415.9,417.1L415.9,417.1 M407.9,415.4L407.9,415.4L407.9,415.4 M427.1,413.6
		c-3.5,2.4-7.4,3.5-11.2,3.5C419.7,417.1,423.6,416,427.1,413.6"/>
	<path class="st4" d="M399.3,363.8c-0.3,0-0.6,0-1,0c-4.2,0.2-7.8,1.8-11.4,4c-8.7,5.4-14.8,14.6-14.3,25.1
		c0.3,5.6,2.7,10.6,6.3,14.5l0,0l0,0l0,0l0,0c0.4-7.6,4.3-14.3,9.9-19.2l0,0l0,0c1.2-8.5,6.7-15.7,14.1-20.3
		c1.5-0.9,3.1-1.8,4.7-2.4C405,364.4,402.2,363.8,399.3,363.8"/>
	<path class="st5" d="M407.6,365.4L407.6,365.4L407.6,365.4c-1.6,0.7-3.1,1.5-4.7,2.4c-7.4,4.6-12.8,11.8-14.1,20.3
		c1.4-1.2,2.8-2.3,4.4-3.2c3.6-2.2,7.2-3.8,11.4-4c0.3,0,0.7,0,1,0l0,0l0,0l0,0l0,0c6,0,11.4,2.3,15.5,6.7l0,0
		c0.7,0.7,1.2,1.4,1.8,2.2c-0.1-1-0.1-1.9-0.3-2.8c-1.1-6.2-3.4-11.8-7.7-16.5C412.7,368.3,410.3,366.6,407.6,365.4L407.6,365.4
		L407.6,365.4"/>
	<path class="st6" d="M388.9,388.2c-5.6,4.9-9.5,11.6-9.9,19.2c2.8,3,6.5,5.3,10.4,6.5l0,0l0,0c3.2,2,6.9,3.1,10.6,3.1l0,0l0,0
		c2.6,0,5.2-0.5,7.7-1.6l0,0c0,0,0.1,0,0.1-0.1l0,0c-0.9-0.4-1.7-0.9-2.6-1.4c-9-2.8-16.2-11-16.7-21c0-0.4,0-0.8,0-1.1l0,0l0,0l0,0
		C388.6,390.6,388.7,389.3,388.9,388.2"/>
	<path class="st6" d="M400,417L400,417L400,417L400,417 M407.7,415.4c-2.5,1.1-5.1,1.6-7.7,1.6C402.6,417,405.2,416.5,407.7,415.4
		 M407.9,415.3c0,0-0.1,0-0.1,0.1C407.8,415.4,407.8,415.3,407.9,415.3 M389.4,413.9L389.4,413.9L389.4,413.9"/>
	<path d="M405.6,380.9L405.6,380.9c-0.3,0-0.7,0-1,0c-4.2,0.2-7.8,1.8-11.4,4c-1.5,1-3,2-4.4,3.2l0,0l0,0c-0.2,1.2-0.3,2.4-0.3,3.6
		c0,0.4,0,0.8,0,1.1c0.5,10,7.7,18.2,16.7,21c0.8,0.5,1.7,1,2.6,1.4c1.1-0.5,2.2-1.1,3.3-1.8c7.1-4.8,11.7-13.6,11.7-22.3
		c0-0.5,0-0.9,0-1.4l0,0l0,0c-0.6-0.7-1.2-1.5-1.8-2.2l0,0C417,383.3,411.5,380.9,405.6,380.9L405.6,380.9"/>
	<path d="M405.6,380.9c-0.3,0-0.6,0-1,0c-4.2,0.2-7.8,1.8-11.4,4c-1.5,1-3,2-4.4,3.2l0,0c1.4-1.2,2.8-2.3,4.4-3.2
		c3.6-2.2,7.2-3.8,11.4-4C404.9,381,405.3,380.9,405.6,380.9"/>
	<path class="st1" d="M448.1,454c-0.3,0-0.7,0-1,0c-2.4,0.1-4.6,0.7-6.7,1.5c2.7,1.1,5.1,2.8,7.2,5.1c4.3,4.7,6.6,10.3,7.7,16.5
		c0.2,0.9,0.3,1.9,0.3,2.8l0,0l0,0c3.2,4.2,4.9,9,5.9,14.3c0.3,1.4,0.4,2.8,0.4,4.2l0,0c0,0.5,0,1,0,1.5h2.3
		c5.6-6,8.5-14.8,7.1-22.8c-1.1-6.2-3.4-11.8-7.7-16.5C459.4,456.3,454,454,448.1,454"/>
	<path class="st0" d="M411.7,497.4c0,0.9-0.1,1.7,0,2.6h2.9C413.6,499.2,412.6,498.3,411.7,497.4"/>
	<path class="st2" d="M455.6,479.9c0,0.5,0,0.9,0,1.4l0,0l0,0l0,0c0,6.8-2.8,13.7-7.5,18.7h13.7c0-0.5,0-1,0-1.5
		c0-1.4-0.1-2.8-0.4-4.2C460.6,488.9,458.8,484.1,455.6,479.9"/>
	<path class="st4" d="M432.1,453.9c-0.3,0-0.6,0-1,0c-4.2,0.2-7.8,1.8-11.4,4c-8.7,5.4-14.8,14.6-14.3,25.1
		c0.3,5.6,2.7,10.6,6.3,14.5l0,0l0,0l0,0l0,0c0.4-7.6,4.3-14.3,9.9-19.2l0,0l0,0c1.2-8.5,6.7-15.7,14.1-20.3
		c1.5-0.9,3.1-1.8,4.7-2.4C437.8,454.4,435,453.9,432.1,453.9"/>
	<path class="st5" d="M440.4,455.5L440.4,455.5L440.4,455.5c-1.6,0.7-3.1,1.5-4.7,2.4c-7.4,4.6-12.8,11.8-14.1,20.3
		c1.4-1.2,2.8-2.3,4.4-3.2c3.6-2.2,7.2-3.8,11.4-4c0.3,0,0.7,0,1,0l0,0l0,0l0,0l0,0c6,0,11.4,2.3,15.5,6.7l0,0
		c0.7,0.7,1.2,1.4,1.8,2.2c-0.1-1-0.1-1.9-0.3-2.8c-1.1-6.2-3.4-11.8-7.7-16.5C445.5,458.4,443.1,456.6,440.4,455.5L440.4,455.5
		L440.4,455.5"/>
	<path class="st6" d="M421.6,478.2c-5.6,4.9-9.5,11.6-9.9,19.2c0.9,0.9,1.9,1.8,2.9,2.6h15.8c-5.1-4-8.7-10.1-9-17
		c0-0.4,0-0.8,0-1.1l0,0l0,0l0,0C421.4,480.6,421.5,479.4,421.6,478.2"/>
	<path d="M438.4,471L438.4,471c-0.3,0-0.7,0-1,0c-4.2,0.2-7.8,1.8-11.4,4c-1.5,1-3,2-4.4,3.2l0,0l0,0c-0.2,1.2-0.3,2.4-0.3,3.6
		c0,0.4,0,0.8,0,1.1c0.3,6.9,3.9,13,9,17H448c4.7-5,7.5-11.9,7.5-18.7c0-0.5,0-0.9,0-1.4l0,0l0,0c-0.6-0.7-1.2-1.5-1.8-2.2l0,0
		C449.7,473.4,444.3,471,438.4,471L438.4,471"/>
	<path d="M438.4,471c-0.3,0-0.6,0-1,0c-4.2,0.2-7.8,1.8-11.4,4c-1.5,1-3,2-4.4,3.2l0,0c1.4-1.2,2.8-2.3,4.4-3.2
		c3.6-2.2,7.2-3.8,11.4-4C437.7,471,438,471,438.4,471"/>
	<path class="st0" d="M173.5,0h-46.8c2.7,6.4,8.3,11.4,14.9,13.4c3.2,2,6.9,3.1,10.6,3.1c3.8,0,7.7-1.1,11.2-3.5
		C168,10,171.5,5.3,173.5,0"/>
	<path class="st1" d="M194,36.4c-0.3,0-0.7,0-1,0c-2.4,0.1-4.6,0.7-6.7,1.5c2.7,1.1,5.1,2.8,7.2,5.1c4.3,4.7,6.6,10.3,7.7,16.5
		c0.2,0.9,0.3,1.9,0.3,2.8l0,0l0,0c3.2,4.2,4.9,9,5.9,14.3c0.3,1.4,0.4,2.8,0.4,4.2l0,0c0,1.3-0.1,2.7-0.3,4
		c7.2-5.9,11.3-16,9.6-25.2c-1.1-6.2-3.4-11.8-7.7-16.5C205.4,38.7,200,36.4,194,36.4"/>
	<path class="st0" d="M157.7,79.8c-0.1,0.9-0.1,1.8,0,2.7c0.5,10,7.7,18.2,16.7,21c3.2,2,6.9,3.1,10.6,3.1c3.8,0,7.7-1.1,11.2-3.5
		c6-4.1,10.3-11,11.4-18.4c-0.6,0.5-1.1,0.9-1.7,1.3c0,0-0.1,0-0.1,0.1c-3.5,2.3-7.3,3.4-11.1,3.4l0,0l0,0l0,0l0,0
		c-2.7,0-5.4-0.6-7.9-1.7c0,0,0,0-0.1,0l0,0c0,0,0,0-0.1,0l0,0c0,0,0,0-0.1,0l0,0h-0.1l0,0c0,0,0,0-0.1,0c-2.5,1.1-5.1,1.6-7.7,1.6
		l0,0l0,0l0,0l0,0c-3.7,0-7.4-1.1-10.6-3.1C164.2,85.1,160.6,82.8,157.7,79.8"/>
	<path class="st2" d="M201.6,62.3c0,0.5,0,0.9,0,1.4l0,0l0,0l0,0c0,8.7-4.6,17.5-11.7,22.3c-1.1,0.7-2.2,1.3-3.3,1.8l0,0
		c0,0,0,0,0.1,0l0,0c0,0,0,0,0.1,0l0,0c0,0,0,0,0.1,0c2.5,1.1,5.2,1.7,7.9,1.7l0,0l0,0c3.8,0,7.6-1.1,11.1-3.4c0,0,0.1,0,0.1-0.1
		c0.6-0.4,1.2-0.8,1.7-1.3c0.2-1.3,0.3-2.7,0.3-4c0-1.4-0.1-2.8-0.4-4.2C206.6,71.3,204.8,66.5,201.6,62.3"/>
	<path class="st3" d="M194.7,89.6L194.7,89.6L194.7,89.6L194.7,89.6 M186.8,87.9L186.8,87.9L186.8,87.9 M186.7,87.8
		C186.7,87.8,186.7,87.9,186.7,87.8C186.7,87.9,186.7,87.8,186.7,87.8 M186.6,87.8C186.7,87.8,186.7,87.8,186.6,87.8
		C186.7,87.8,186.7,87.8,186.6,87.8 M205.8,86.1c-3.5,2.3-7.3,3.4-11.1,3.4C198.5,89.6,202.3,88.4,205.8,86.1"/>
	<path class="st4" d="M178.1,36.3c-0.3,0-0.6,0-1,0c-4.2,0.2-7.8,1.8-11.4,4c-8.7,5.4-14.8,14.6-14.3,25.1
		c0.3,5.6,2.7,10.6,6.3,14.5l0,0l0,0l0,0l0,0c0.4-7.6,4.3-14.3,9.9-19.2l0,0l0,0c1.2-8.5,6.7-15.7,14.1-20.3
		c1.5-0.9,3.1-1.8,4.7-2.4C183.8,36.8,181,36.3,178.1,36.3"/>
	<path class="st5" d="M186.4,37.9L186.4,37.9L186.4,37.9c-1.6,0.7-3.1,1.5-4.7,2.4c-7.4,4.6-12.8,11.8-14.1,20.3
		c1.4-1.2,2.8-2.3,4.4-3.2c3.6-2.2,7.2-3.8,11.4-4c0.3,0,0.7,0,1,0l0,0l0,0l0,0l0,0c5.9,0,11.3,2.3,15.4,6.6l0.1,0.1
		c0.7,0.7,1.2,1.4,1.8,2.2c-0.1-1-0.1-1.9-0.3-2.8c-1.1-6.2-3.4-11.8-7.7-16.5C191.5,40.8,189.1,39,186.4,37.9L186.4,37.9
		L186.4,37.9"/>
	<path class="st6" d="M167.6,60.6c-5.6,4.9-9.5,11.6-9.9,19.2c2.8,3,6.5,5.3,10.4,6.5c3.2,2,6.9,3.1,10.6,3.1l0,0l0,0
		c2.6,0,5.2-0.5,7.7-1.6c0,0,0,0,0.1,0l0,0h0.1c-0.9-0.4-1.7-0.9-2.6-1.4c-9-2.8-16.2-11-16.7-21c0-0.4,0-0.8,0-1.1l0,0l0,0l0,0
		C167.4,63,167.5,61.8,167.6,60.6"/>
	<path class="st6" d="M178.8,89.5L178.8,89.5L178.8,89.5L178.8,89.5 M186.4,87.9c-2.5,1.1-5.1,1.6-7.7,1.6
		C181.3,89.5,183.9,89,186.4,87.9 M186.5,87.9L186.5,87.9L186.5,87.9"/>
	<path d="M184.4,53.4L184.4,53.4c-0.3,0-0.7,0-1,0c-4.2,0.2-7.8,1.8-11.4,4c-1.5,1-3,2-4.4,3.2l0,0l0,0c-0.2,1.2-0.3,2.4-0.3,3.6
		c0,0.4,0,0.8,0,1.1c0.5,10,7.7,18.2,16.7,21c0.8,0.5,1.7,1,2.6,1.4c1.1-0.5,2.2-1.1,3.3-1.8c7.1-4.8,11.7-13.6,11.7-22.3
		c0-0.5,0-0.9,0-1.4l0,0l0,0c-0.6-0.7-1.2-1.5-1.8-2.2l-0.1-0.1C195.7,55.7,190.3,53.4,184.4,53.4L184.4,53.4"/>
	<path d="M184.4,53.4c-0.3,0-0.7,0-1,0c-4.2,0.2-7.8,1.8-11.4,4c-1.5,1-3,2-4.4,3.2l0,0c1.4-1.2,2.8-2.3,4.4-3.2
		c3.6-2.2,7.2-3.8,11.4-4C183.7,53.4,184,53.4,184.4,53.4"/>
	<path class="st1" d="M226.8,126.4c-0.3,0-0.7,0-1,0c-2.4,0.1-4.6,0.7-6.7,1.5c2.7,1.1,5.1,2.8,7.2,5.1c4.3,4.7,6.6,10.3,7.7,16.5
		c0.2,0.9,0.3,1.9,0.3,2.8l0,0l0,0c3.2,4.2,4.9,9,5.9,14.3c0.3,1.4,0.4,2.8,0.4,4.2l0,0c0,1.3-0.1,2.7-0.3,4
		c7.2-5.9,11.3-16,9.6-25.2c-1.1-6.2-3.4-11.8-7.7-16.5C238.2,128.8,232.8,126.4,226.8,126.4"/>
	<path class="st0" d="M190.5,169.9c-0.1,0.9-0.1,1.8,0,2.7c0.5,10,7.7,18.2,16.7,21c3.2,2,6.9,3.1,10.6,3.1c3.8,0,7.7-1.1,11.2-3.5
		c6-4.1,10.3-11,11.4-18.4c-0.6,0.5-1.1,0.9-1.7,1.3c0,0-0.1,0-0.1,0.1c-3.5,2.3-7.3,3.4-11.1,3.4l0,0l0,0l0,0l0,0
		c-2.7,0-5.4-0.6-7.9-1.6l0,0c0,0,0,0-0.1,0c0,0,0,0-0.1,0l0,0c0,0,0,0-0.1,0l0,0c0,0-0.1,0-0.1,0.1l0,0c0,0,0,0-0.1,0
		c-2.5,1.1-5.1,1.6-7.6,1.6l0,0l0,0l0,0l0,0c-3.7,0-7.3-1-10.4-3c-0.1,0-0.1-0.1-0.2-0.1l0,0C197,175.2,193.4,172.9,190.5,169.9"/>
	<path class="st2" d="M234.4,152.4c0,0.5,0,0.9,0,1.4l0,0l0,0l0,0c0,8.7-4.6,17.5-11.7,22.3c-1.1,0.7-2.2,1.3-3.3,1.8l0,0
		c0,0,0,0,0.1,0l0,0c0,0,0,0,0.1,0c0,0,0,0,0.1,0l0,0c2.5,1.1,5.2,1.6,7.9,1.6l0,0l0,0c3.8,0,7.6-1.1,11.1-3.4c0,0,0.1,0,0.1-0.1
		c0.6-0.4,1.2-0.8,1.7-1.3c0.2-1.3,0.3-2.7,0.3-4c0-1.4-0.1-2.8-0.4-4.2C239.4,161.4,237.6,156.6,234.4,152.4"/>
	<path class="st3" d="M227.5,179.6L227.5,179.6L227.5,179.6L227.5,179.6 M219.6,178L219.6,178L219.6,178 M219.5,177.9L219.5,177.9
		L219.5,177.9 M219.4,177.9C219.5,177.9,219.5,177.9,219.4,177.9C219.5,177.9,219.5,177.9,219.4,177.9 M238.6,176.2
		c-3.5,2.3-7.3,3.4-11.1,3.4C231.3,179.6,235.1,178.5,238.6,176.2"/>
	<path class="st4" d="M210.9,126.4c-0.3,0-0.6,0-1,0c-4.2,0.2-7.8,1.8-11.4,4c-8.7,5.4-14.8,14.6-14.3,25.1
		c0.3,5.6,2.7,10.6,6.3,14.5l0,0l0,0l0,0l0,0c0.4-7.6,4.3-14.3,9.9-19.2l0,0l0,0c1.2-8.5,6.7-15.7,14.1-20.3
		c1.5-0.9,3.1-1.8,4.7-2.4C216.6,126.9,213.8,126.4,210.9,126.4"/>
	<path class="st5" d="M219.1,128L219.1,128L219.1,128c-1.6,0.7-3.1,1.5-4.7,2.4c-7.4,4.6-12.8,11.8-14.1,20.3
		c1.4-1.2,2.8-2.3,4.4-3.2c3.6-2.2,7.2-3.8,11.4-4c0.3,0,0.7,0,1,0l0,0l0,0l0,0l0,0c5.9,0,11.3,2.3,15.4,6.7c0,0,0,0,0.1,0.1
		c0.7,0.7,1.2,1.4,1.8,2.2c-0.1-1-0.1-1.9-0.3-2.8c-1.1-6.2-3.4-11.8-7.7-16.5C224.3,130.8,221.8,129.1,219.1,128L219.1,128
		L219.1,128"/>
	<path class="st6" d="M200.4,150.7c-5.6,4.9-9.5,11.6-9.9,19.2c2.8,3,6.5,5.3,10.4,6.5l0,0c0.1,0,0.1,0.1,0.2,0.1
		c3.2,2,6.8,3,10.4,3l0,0l0,0c2.6,0,5.2-0.5,7.6-1.6c0,0,0,0,0.1,0l0,0c0,0,0.1,0,0.1-0.1c-0.9-0.4-1.7-0.9-2.6-1.4
		c-9-2.8-16.2-11-16.7-21c0-0.4,0-0.8,0-1.1l0,0l0,0l0,0C200.2,153.1,200.2,151.9,200.4,150.7"/>
	<path class="st6" d="M211.6,179.5L211.6,179.5L211.6,179.5L211.6,179.5 M219.2,178c-2.5,1.1-5.1,1.6-7.6,1.6
		C214.1,179.5,216.7,179,219.2,178 M219.3,177.9L219.3,177.9L219.3,177.9 M200.9,176.4c0.1,0,0.1,0.1,0.2,0.1
		C201,176.5,201,176.5,200.9,176.4"/>
	<path d="M217.1,143.5L217.1,143.5c-0.3,0-0.7,0-1,0c-4.2,0.2-7.8,1.8-11.4,4c-1.5,1-3,2-4.4,3.2l0,0l0,0c-0.2,1.2-0.3,2.4-0.3,3.6
		c0,0.4,0,0.8,0,1.1c0.5,10,7.7,18.2,16.7,21c0.8,0.5,1.7,1,2.6,1.4c1.1-0.5,2.2-1.1,3.3-1.8c7.1-4.8,11.7-13.6,11.7-22.3
		c0-0.5,0-0.9,0-1.4l0,0l0,0c-0.6-0.7-1.2-1.5-1.8-2.2c0,0,0,0-0.1-0.1C228.5,145.8,223.1,143.5,217.1,143.5
		C217.2,143.5,217.2,143.5,217.1,143.5"/>
	<path d="M232.6,150.2L232.6,150.2c0.7,0.8,1.3,1.5,1.9,2.2l0,0C233.9,151.7,233.3,150.9,232.6,150.2L232.6,150.2 M217.1,143.5
		c-0.3,0-0.7,0-1,0c-4.2,0.2-7.8,1.8-11.4,4c-1.5,1-3,2-4.4,3.2l0,0c1.4-1.2,2.8-2.3,4.4-3.2c3.6-2.2,7.2-3.8,11.4-4
		C216.5,143.5,216.8,143.5,217.1,143.5 M217.1,143.5L217.1,143.5C217.2,143.5,217.2,143.5,217.1,143.5
		C217.2,143.5,217.2,143.5,217.1,143.5"/>
	<path class="st1" d="M259.6,216.5c-0.3,0-0.7,0-1,0c-2.4,0.1-4.6,0.7-6.7,1.5c2.7,1.1,5.1,2.8,7.2,5.1c4.3,4.7,6.6,10.3,7.7,16.5
		c0.2,0.9,0.3,1.9,0.3,2.8l0,0l0,0c3.2,4.2,4.9,9,5.9,14.3c0.3,1.4,0.4,2.8,0.4,4.2l0,0c0,1.3-0.1,2.7-0.3,4
		c7.2-5.9,11.3-16,9.6-25.2c-1.1-6.2-3.4-11.8-7.7-16.5C271,218.8,265.6,216.5,259.6,216.5"/>
	<path class="st0" d="M223.3,260c-0.1,0.9-0.1,1.8,0,2.7c0.5,10,7.7,18.2,16.7,21c3.2,2,6.9,3.1,10.6,3.1c3.8,0,7.7-1.1,11.2-3.5
		c6-4.1,10.3-11,11.4-18.4c-0.6,0.5-1.1,0.9-1.7,1.3l0,0c0,0,0,0-0.1,0l0,0c-3.5,2.3-7.3,3.4-11,3.4l0,0l0,0l0,0l0,0
		c-2.7,0-5.4-0.6-8-1.7l0,0l0,0c0,0,0,0-0.1,0l0,0h-0.1c-2.5,1.1-5.2,1.6-7.8,1.6l0,0l0,0l0,0l0,0c-3.7,0-7.4-1.1-10.6-3.1l0,0l0,0
		C229.8,265.3,226.2,263,223.3,260"/>
	<path class="st2" d="M267.2,242.5c0,0.5,0,0.9,0,1.4l0,0l0,0l0,0c0,8.7-4.6,17.5-11.7,22.3c-1.1,0.7-2.2,1.3-3.3,1.8l0,0
		c0,0,0,0,0.1,0l0,0l0,0c2.5,1.1,5.2,1.7,8,1.7l0,0l0,0c3.8,0,7.6-1.1,11-3.4l0,0c0,0,0,0,0.1,0l0,0c0.6-0.4,1.2-0.8,1.7-1.3
		c0.2-1.3,0.3-2.7,0.3-4c0-1.4-0.1-2.8-0.4-4.2C272.2,251.5,270.4,246.7,267.2,242.5"/>
	<path class="st3" d="M260.3,269.7L260.3,269.7L260.3,269.7L260.3,269.7 M252.3,268L252.3,268L252.3,268 M252.2,268
		C252.2,268,252.3,268,252.2,268C252.3,268,252.2,268,252.2,268 M271.3,266.3c-3.5,2.3-7.3,3.4-11,3.4
		C264.1,269.7,267.9,268.6,271.3,266.3 M271.4,266.3L271.4,266.3L271.4,266.3"/>
	<path class="st4" d="M243.7,216.4c-0.3,0-0.6,0-1,0c-4.2,0.2-7.8,1.8-11.4,4c-8.7,5.4-14.8,14.6-14.3,25.1
		c0.3,5.6,2.7,10.6,6.3,14.5l0,0l0,0l0,0l0,0c0.4-7.6,4.3-14.3,9.9-19.2l0,0l0,0c1.2-8.5,6.7-15.7,14.1-20.3
		c1.5-0.9,3.1-1.8,4.7-2.4C249.4,217,246.6,216.4,243.7,216.4"/>
	<path class="st5" d="M251.9,218.1L251.9,218.1L251.9,218.1c-1.6,0.7-3.1,1.5-4.7,2.4c-7.4,4.6-12.8,11.8-14.1,20.3
		c1.4-1.2,2.8-2.3,4.4-3.2c3.6-2.2,7.2-3.8,11.4-4c0.3,0,0.7,0,1,0l0,0l0,0l0,0l0,0c5.9,0,11.3,2.3,15.4,6.6l0.1,0.1
		c0.7,0.7,1.2,1.4,1.8,2.2c-0.1-1-0.1-1.9-0.3-2.8c-1.1-6.2-3.4-11.8-7.7-16.5C257.1,220.9,254.6,219.2,251.9,218.1L251.9,218.1
		L251.9,218.1"/>
	<path class="st6" d="M233.2,240.8c-5.6,4.9-9.5,11.6-9.9,19.2c2.8,3,6.5,5.3,10.4,6.5l0,0l0,0c3.2,2,6.9,3.1,10.6,3.1l0,0l0,0
		c2.6,0,5.2-0.5,7.8-1.6h0.1c-0.9-0.4-1.7-0.9-2.6-1.4c-9-2.8-16.2-11-16.7-21c0-0.4,0-0.8,0-1.1l0,0l0,0l0,0
		C232.9,243.2,233,242,233.2,240.8"/>
	<path class="st6" d="M244.3,269.6L244.3,269.6L244.3,269.6L244.3,269.6 M252.1,268c-2.5,1.1-5.2,1.6-7.8,1.6
		C246.9,269.6,249.6,269.1,252.1,268 M233.7,266.5L233.7,266.5L233.7,266.5"/>
	<path d="M249.9,233.6L249.9,233.6c-0.3,0-0.7,0-1,0c-4.2,0.2-7.8,1.8-11.4,4c-1.5,1-3,2-4.4,3.2l0,0l0,0c-0.2,1.2-0.3,2.4-0.3,3.6
		c0,0.4,0,0.8,0,1.1c0.5,10,7.7,18.2,16.7,21c0.8,0.5,1.7,1,2.6,1.4c1.1-0.5,2.2-1.1,3.3-1.8c7.1-4.8,11.7-13.6,11.7-22.3
		c0-0.5,0-0.9,0-1.4l0,0l0,0c-0.6-0.7-1.2-1.5-1.8-2.2l-0.1-0.1C261.2,235.9,255.9,233.6,249.9,233.6L249.9,233.6"/>
	<path d="M249.9,233.6c-0.3,0-0.7,0-1,0c-4.2,0.2-7.8,1.8-11.4,4c-1.5,1-3,2-4.4,3.2l0,0c1.4-1.2,2.8-2.3,4.4-3.2
		c3.6-2.2,7.2-3.8,11.4-4C249.3,233.6,249.6,233.6,249.9,233.6"/>
	<path class="st1" d="M292.4,306.6c-0.3,0-0.6,0-1,0c-2.4,0.1-4.6,0.7-6.7,1.5c2.7,1.1,5.1,2.8,7.2,5.1c4.3,4.7,6.6,10.3,7.7,16.5
		c0.2,0.9,0.3,1.9,0.3,2.8l0,0l0,0c3.2,4.2,4.9,9,5.9,14.3c0.3,1.4,0.4,2.8,0.4,4.2l0,0c0,1.3-0.1,2.7-0.3,4
		c7.2-5.9,11.3-16,9.6-25.2c-1.1-6.2-3.4-11.8-7.7-16.5C303.8,308.9,298.4,306.6,292.4,306.6"/>
	<path class="st0" d="M256.1,350c-0.1,0.9-0.1,1.8,0,2.7c0.5,10,7.7,18.2,16.7,21c3.2,2,6.9,3.1,10.6,3.1c3.8,0,7.7-1.1,11.2-3.5
		c6-4.1,10.3-11,11.4-18.4c-0.6,0.5-1.1,0.9-1.7,1.3c0,0-0.1,0-0.1,0.1c-3.5,2.3-7.3,3.4-11.1,3.4l0,0l0,0l0,0l0,0
		c-2.8,0-5.5-0.6-8-1.7c0,0,0,0-0.1,0l0,0l0,0h-0.1l0,0l0,0l0,0c-2.5,1.1-5.1,1.6-7.7,1.6l0,0l0,0l0,0l0,0c-3.7,0-7.3-1.1-10.5-3.1
		h-0.1l0,0C262.6,355.3,258.9,353.1,256.1,350"/>
	<path class="st2" d="M300,332.6c0,0.5,0,0.9,0,1.4l0,0l0,0l0,0c0,8.7-4.6,17.5-11.7,22.3c-1.1,0.7-2.2,1.3-3.3,1.8l0,0
		c0,0,0,0,0.1,0c2.5,1.1,5.3,1.7,8,1.7l0,0l0,0c3.8,0,7.6-1.1,11.1-3.4c0,0,0.1,0,0.1-0.1c0.6-0.4,1.2-0.8,1.7-1.3
		c0.2-1.3,0.3-2.7,0.3-4c0-1.4-0.1-2.8-0.4-4.2C304.9,341.6,303.2,336.8,300,332.6"/>
	<path class="st3" d="M293.1,359.8L293.1,359.8L293.1,359.8L293.1,359.8 M285,358C285,358,285,358.1,285,358
		C285,358.1,285,358,285,358 M304.2,356.4c-3.5,2.3-7.3,3.4-11.1,3.4C296.9,359.8,300.7,358.7,304.2,356.4"/>
	<path class="st4" d="M276.5,306.5c-0.3,0-0.6,0-1,0c-4.2,0.2-7.8,1.8-11.4,4c-8.7,5.4-14.8,14.6-14.3,25.1
		c0.3,5.6,2.7,10.6,6.3,14.5l0,0l0,0l0,0l0,0c0.4-7.6,4.3-14.3,9.9-19.2l0,0l0,0c1.2-8.5,6.7-15.7,14.1-20.3
		c1.5-0.9,3.1-1.8,4.7-2.4C282.2,307.1,279.4,306.5,276.5,306.5"/>
	<path class="st5" d="M284.7,308.1L284.7,308.1L284.7,308.1c-1.6,0.7-3.1,1.5-4.7,2.4c-7.4,4.6-12.8,11.8-14.1,20.3
		c1.4-1.2,2.8-2.3,4.4-3.2c3.6-2.2,7.2-3.8,11.4-4c0.3,0,0.7,0,1,0l0,0l0,0l0,0l0,0c5.9,0,11.2,2.3,15.3,6.5
		c0.1,0.1,0.1,0.1,0.2,0.2c0.7,0.7,1.2,1.4,1.8,2.2c-0.1-1-0.1-1.9-0.3-2.8c-1.1-6.2-3.4-11.8-7.7-16.5
		C289.9,311,287.4,309.3,284.7,308.1L284.7,308.1L284.7,308.1"/>
	<path class="st6" d="M266,330.9c-5.6,4.9-9.5,11.6-9.9,19.2c2.8,3,6.5,5.3,10.4,6.5l0,0h0.1c3.2,2,6.8,3.1,10.5,3.1l0,0l0,0
		c2.6,0,5.2-0.5,7.7-1.6l0,0l0,0l0,0h0.1l0,0c-0.9-0.4-1.7-0.9-2.6-1.4c-9-2.8-16.2-11-16.7-21c0-0.4,0-0.8,0-1.1l0,0l0,0l0,0
		C265.7,333.3,265.8,332.1,266,330.9"/>
	<path class="st6" d="M277.1,359.7L277.1,359.7L277.1,359.7L277.1,359.7 M284.8,358.1c-2.5,1.1-5.1,1.6-7.7,1.6
		C279.7,359.7,282.3,359.2,284.8,358.1 M284.9,358.1L284.9,358.1L284.9,358.1 M285,358.1C284.9,358.1,284.9,358.1,285,358.1
		C284.9,358.1,284.9,358.1,285,358.1 M266.5,356.6C266.5,356.6,266.6,356.6,266.5,356.6C266.6,356.6,266.5,356.6,266.5,356.6"/>
	<path d="M282.7,323.7L282.7,323.7c-0.3,0-0.7,0-1,0c-4.2,0.2-7.8,1.8-11.4,4c-1.5,1-3,2-4.4,3.2l0,0l0,0c-0.2,1.2-0.3,2.4-0.3,3.6
		c0,0.4,0,0.8,0,1.1c0.5,10,7.7,18.2,16.7,21c0.8,0.5,1.7,1,2.6,1.4c1.1-0.5,2.2-1.1,3.3-1.8c7.1-4.8,11.7-13.6,11.7-22.3
		c0-0.5,0-0.9,0-1.4l0,0l0,0c-0.6-0.7-1.2-1.5-1.8-2.2c-0.1-0.1-0.1-0.1-0.2-0.2C293.9,325.9,288.6,323.7,282.7,323.7L282.7,323.7"
		/>
	<path d="M298,330.2c0.1,0.1,0.1,0.1,0.2,0.2c0.7,0.7,1.2,1.4,1.8,2.2l0,0c-0.6-0.7-1.2-1.5-1.8-2.2
		C298.1,330.3,298.1,330.3,298,330.2 M282.7,323.7c-0.3,0-0.7,0-1,0c-4.2,0.2-7.8,1.8-11.4,4c-1.5,1-3,2-4.4,3.2l0,0
		c1.4-1.2,2.8-2.3,4.4-3.2c3.6-2.2,7.2-3.8,11.4-4C282.1,323.7,282.4,323.7,282.7,323.7 M282.7,323.7L282.7,323.7L282.7,323.7
		L282.7,323.7"/>
	<path class="st1" d="M325.2,396.7c-0.3,0-0.6,0-1,0c-2.4,0.1-4.6,0.7-6.7,1.5c2.7,1.1,5.1,2.8,7.2,5.1c4.3,4.7,6.6,10.3,7.7,16.5
		c0.2,0.9,0.3,1.9,0.3,2.8l0,0l0,0c3.2,4.2,4.9,9,5.9,14.3c0.3,1.4,0.4,2.8,0.4,4.2l0,0c0,1.3-0.1,2.7-0.3,4
		c7.2-5.9,11.3-16,9.6-25.2c-1.1-6.2-3.4-11.8-7.7-16.5C336.6,399,331.1,396.7,325.2,396.7"/>
	<path class="st0" d="M288.9,440.1c-0.1,0.9-0.1,1.8,0,2.7c0.5,10,7.7,18.2,16.7,21c3.2,2,6.9,3.1,10.6,3.1c3.8,0,7.7-1.1,11.2-3.5
		c6-4.1,10.3-11,11.4-18.4c-0.6,0.5-1.1,0.9-1.7,1.3l0,0c0,0,0,0-0.1,0c0,0-0.1,0-0.1,0.1c-3.4,2.3-7.2,3.3-11,3.3l0,0l0,0l0,0l0,0
		c-2.7,0-5.4-0.6-7.9-1.7l0,0l0,0l0,0l0,0c0,0,0,0-0.1,0l0,0c0,0,0,0-0.1,0c-2.5,1.1-5.2,1.6-7.8,1.6l0,0l0,0l0,0l0,0
		c-3.7,0-7.4-1.1-10.6-3.1l0,0l0,0C295.3,445.4,291.7,443.1,288.9,440.1"/>
	<path class="st2" d="M332.8,422.6c0,0.5,0,0.9,0,1.4l0,0l0,0l0,0c0,8.7-4.6,17.5-11.7,22.3c-1.1,0.7-2.2,1.3-3.3,1.8l0,0
		c0,0,0,0,0.1,0l0,0l0,0l0,0l0,0c2.5,1.1,5.2,1.7,7.9,1.7l0,0l0,0c3.7,0,7.5-1.1,11-3.3c0,0,0.1,0,0.1-0.1c0,0,0,0,0.1,0l0,0
		c0.6-0.4,1.2-0.8,1.7-1.3c0.2-1.3,0.3-2.7,0.3-4c0-1.4-0.1-2.8-0.4-4.2C337.7,431.7,335.9,426.8,332.8,422.6"/>
	<path class="st3" d="M325.9,449.9L325.9,449.9L325.9,449.9L325.9,449.9 M317.9,448.2L317.9,448.2L317.9,448.2 M317.8,448.1
		C317.9,448.2,317.9,448.2,317.8,448.1C317.9,448.2,317.9,448.2,317.8,448.1 M317.8,448.1L317.8,448.1L317.8,448.1 M336.8,446.5
		c-3.4,2.3-7.2,3.3-11,3.3C329.6,449.9,333.4,448.8,336.8,446.5 M337,446.4C337,446.4,336.9,446.4,337,446.4
		C336.9,446.4,337,446.4,337,446.4"/>
	<path class="st4" d="M309.3,396.6c-0.3,0-0.6,0-1,0c-4.2,0.2-7.8,1.8-11.4,4c-8.7,5.4-14.8,14.6-14.3,25.1
		c0.3,5.6,2.7,10.6,6.3,14.5l0,0l0,0l0,0l0,0c0.4-7.6,4.3-14.3,9.9-19.2l0,0l0,0c1.2-8.5,6.7-15.7,14.1-20.3
		c1.5-0.9,3.1-1.8,4.7-2.4C314.9,397.1,312.2,396.6,309.3,396.6"/>
	<path class="st5" d="M317.5,398.2L317.5,398.2L317.5,398.2c-1.6,0.7-3.1,1.5-4.7,2.4c-7.4,4.6-12.8,11.8-14.1,20.3
		c1.4-1.2,2.8-2.3,4.4-3.2c3.6-2.2,7.2-3.8,11.4-4c0.3,0,0.7,0,1,0l0,0l0,0l0,0l0,0c6,0,11.4,2.3,15.5,6.7l0,0
		c0.7,0.7,1.2,1.4,1.8,2.2c-0.1-1-0.1-1.9-0.3-2.8c-1.1-6.2-3.4-11.8-7.7-16.5C322.6,401.1,320.2,399.4,317.5,398.2L317.5,398.2
		L317.5,398.2"/>
	<path class="st6" d="M298.8,420.9c-5.6,4.9-9.5,11.6-9.9,19.2c2.8,3,6.5,5.3,10.4,6.5l0,0l0,0c3.2,2,6.9,3.1,10.6,3.1l0,0l0,0
		c2.6,0,5.3-0.5,7.8-1.6c0,0,0,0,0.1,0c-0.9-0.4-1.7-0.9-2.6-1.4c-9-2.8-16.2-11-16.7-21c0-0.4,0-0.8,0-1.1l0,0l0,0l0,0
		C298.5,423.3,298.6,422.1,298.8,420.9"/>
	<path class="st6" d="M309.9,449.8L309.9,449.8L309.9,449.8L309.9,449.8 M317.7,448.1c-2.5,1.1-5.2,1.6-7.8,1.6
		C312.5,449.8,315.2,449.2,317.7,448.1 M299.3,446.7L299.3,446.7L299.3,446.7"/>
	<path d="M315.5,413.7L315.5,413.7c-0.3,0-0.7,0-1,0c-4.2,0.2-7.8,1.8-11.4,4c-1.5,1-3,2-4.4,3.2l0,0l0,0c-0.2,1.2-0.3,2.4-0.3,3.6
		c0,0.4,0,0.8,0,1.1c0.5,10,7.7,18.2,16.7,21c0.8,0.5,1.7,1,2.6,1.4c1.1-0.5,2.2-1.1,3.3-1.8c7.1-4.8,11.7-13.6,11.7-22.3
		c0-0.5,0-0.9,0-1.4l0,0l0,0c-0.6-0.7-1.2-1.5-1.8-2.2l0,0C326.9,416.1,321.5,413.7,315.5,413.7L315.5,413.7"/>
	<path d="M315.5,413.7c-0.3,0-0.6,0-1,0c-4.2,0.2-7.8,1.8-11.4,4c-1.5,1-3,2-4.4,3.2l0,0c1.4-1.2,2.8-2.3,4.4-3.2
		c3.6-2.2,7.2-3.8,11.4-4C314.9,413.7,315.2,413.7,315.5,413.7"/>
	<path class="st1" d="M358,486.7c-0.3,0-0.7,0-1,0c-2.4,0.1-4.6,0.7-6.7,1.5c2.7,1.1,5.1,2.8,7.2,5.1c1.9,2,3.4,4.2,4.5,6.6l0,0l0,0
		l0,0h15.9c-1.2-2.3-2.6-4.5-4.5-6.5C369.4,489.1,363.9,486.7,358,486.7"/>
	<path class="st4" d="M342,486.7c-0.3,0-0.6,0-1,0c-4.2,0.2-7.8,1.8-11.4,4c-3.9,2.4-7.3,5.6-9.8,9.4h16l0,0l0,0
		c2.5-3.7,5.9-6.9,9.8-9.3c1.5-0.9,3.1-1.8,4.7-2.4C347.7,487.2,345,486.7,342,486.7"/>
	<path class="st5" d="M350.3,488.3L350.3,488.3L350.3,488.3c-1.6,0.7-3.1,1.5-4.7,2.4c-3.9,2.4-7.3,5.6-9.8,9.3H362
		c-1.2-2.4-2.6-4.6-4.5-6.6C355.4,491.1,353,489.4,350.3,488.3L350.3,488.3L350.3,488.3"/>
	<path class="st1" d="M93.9,0H78c0.2,0.7,0.3,1.5,0.5,2.2c0.2,0.9,0.3,1.9,0.3,2.8l0,0l0,0c3.2,4.2,4.9,9,5.9,14.3
		c0.3,1.4,0.4,2.8,0.4,4.2l0,0c0,1.3-0.1,2.7-0.3,4c7.2-5.9,11.3-16,9.6-25.2C94.2,1.5,94.1,0.7,93.9,0"/>
	<path class="st0" d="M34.9,22.5c-0.1,0.9-0.1,1.8,0,2.7c0.5,10,7.7,18.2,16.7,21c3.2,2,6.9,3.1,10.6,3.1c3.8,0,7.7-1.1,11.2-3.5
		c6-4.1,10.3-11,11.4-18.4c-0.6,0.5-1.1,0.9-1.7,1.3c0,0-0.1,0-0.1,0.1c-3.5,2.3-7.3,3.4-11.1,3.4l0,0l0,0l0,0l0,0
		c-2.7,0-5.4-0.6-8-1.7c0,0,0,0-0.1,0l0,0c0,0,0,0-0.1,0l0,0h-0.1l0,0c0,0,0,0-0.1,0c-2.5,1.1-5.1,1.6-7.7,1.6l0,0l0,0l0,0l0,0
		c-3.7,0-7.3-1-10.5-3c-0.1,0-0.1-0.1-0.2-0.1l0,0C41.3,27.8,37.7,25.5,34.9,22.5"/>
	<path class="st2" d="M78.8,5c0,0.5,0,0.9,0,1.4l0,0l0,0l0,0c0,8.7-4.6,17.5-11.7,22.3c-1.1,0.7-2.2,1.3-3.3,1.8l0,0c0,0,0,0,0.1,0
		l0,0c0,0,0,0,0.1,0c2.5,1.1,5.2,1.7,8,1.7l0,0l0,0c3.8,0,7.6-1.1,11.1-3.4c0,0,0.1,0,0.1-0.1c0.6-0.4,1.2-0.8,1.7-1.3
		c0.2-1.3,0.3-2.7,0.3-4c0-1.4-0.1-2.8-0.4-4.2C83.7,14.1,81.9,9.2,78.8,5"/>
	<path class="st3" d="M71.9,32.3L71.9,32.3L71.9,32.3L71.9,32.3 M63.8,30.5C63.9,30.6,63.9,30.6,63.8,30.5
		C63.9,30.6,63.9,30.6,63.8,30.5 M63.8,30.5L63.8,30.5L63.8,30.5 M83,28.8c-3.5,2.3-7.3,3.4-11.1,3.4C75.6,32.3,79.5,31.2,83,28.8"
		/>
	<path class="st4" d="M45.5,0h-16c-0.7,2.6-1.1,5.3-0.9,8.1c0.3,5.6,2.7,10.6,6.3,14.5l0,0l0,0l0,0l0,0c0.4-7.6,4.3-14.3,9.9-19.2
		l0,0l0,0C44.9,2.2,45.2,1.1,45.5,0"/>
	<path class="st5" d="M78,0h-4.3C74.9,0.8,76,1.8,77,2.9c0.7,0.7,1.2,1.4,1.8,2.2c-0.1-1-0.1-1.9-0.3-2.8C78.3,1.5,78.2,0.7,78,0
		L78,0L78,0"/>
	<path class="st5" d="M49.3,0h-3.9l0,0l0,0c-0.3,1.1-0.5,2.2-0.7,3.3c1.4-1.2,2.8-2.3,4.4-3.2L49.3,0"/>
	<path class="st6" d="M44.8,3.3c-5.6,4.9-9.5,11.6-9.9,19.2c2.8,3,6.5,5.3,10.4,6.5l0,0c0.1,0,0.1,0.1,0.2,0.1c3.2,2,6.8,3,10.5,3
		l0,0l0,0c2.6,0,5.2-0.5,7.7-1.6c0,0,0,0,0.1,0l0,0h0.1c-0.9-0.4-1.7-0.9-2.6-1.4c-9-2.8-16.2-11-16.7-21c0-0.4,0-0.8,0-1.1l0,0l0,0
		l0,0C44.5,5.7,44.6,4.5,44.8,3.3"/>
	<path class="st6" d="M55.9,32.2L55.9,32.2L55.9,32.2L55.9,32.2 M63.6,30.6c-2.5,1.1-5.1,1.6-7.7,1.6C58.5,32.2,61.1,31.7,63.6,30.6
		 M63.7,30.6C63.7,30.6,63.6,30.6,63.7,30.6C63.6,30.6,63.7,30.6,63.7,30.6 M45.3,29.1c0.1,0,0.1,0.1,0.2,0.1
		C45.4,29.1,45.3,29.1,45.3,29.1"/>
	<path d="M73.7,0H49.3l-0.2,0.1c-1.5,1-3,2-4.4,3.2l0,0l0,0c-0.2,1.2-0.3,2.4-0.3,3.6c0,0.4,0,0.8,0,1.1c0.5,10,7.7,18.2,16.7,21
		c0.8,0.5,1.7,1,2.6,1.4c1.1-0.5,2.2-1.1,3.3-1.8C74.1,23.8,78.7,15,78.7,6.3c0-0.5,0-0.9,0-1.4l0,0l0,0c-0.6-0.7-1.2-1.5-1.8-2.2
		C76,1.8,74.9,0.8,73.7,0L73.7,0L73.7,0L73.7,0"/>
	<path class="st1" d="M104,69.1c-0.3,0-0.7,0-1,0c-2.4,0.1-4.6,0.7-6.7,1.5c2.7,1.1,5.1,2.8,7.2,5.1c4.3,4.7,6.6,10.3,7.7,16.5
		c0.2,0.9,0.3,1.9,0.3,2.8l0,0l0,0c3.2,4.2,4.9,9,5.9,14.3c0.3,1.4,0.4,2.8,0.4,4.2l0,0c0,1.3-0.1,2.7-0.3,4
		c7.2-5.9,11.3-16,9.6-25.2c-1.1-6.2-3.4-11.8-7.7-16.5C115.4,71.5,109.9,69.1,104,69.1"/>
	<path class="st0" d="M67.7,112.6c-0.1,0.9-0.1,1.8,0,2.7c0.5,10,7.7,18.2,16.7,21c3.2,2,6.9,3.1,10.6,3.1c3.8,0,7.7-1.1,11.2-3.5
		c6-4.1,10.3-11,11.4-18.4c-0.6,0.5-1.1,0.9-1.7,1.3c0,0-0.1,0-0.1,0.1c-3.5,2.3-7.3,3.4-11.1,3.4l0,0l0,0l0,0l0,0
		c-2.7,0-5.4-0.6-8-1.7h-0.1l0,0l0,0c0,0-0.1,0-0.1,0.1l0,0c-2.5,1.1-5.1,1.6-7.7,1.6l0,0l0,0l0,0l0,0c-3.7,0-7.3-1-10.5-3l-0.1-0.1
		l0,0C74.1,117.9,70.5,115.6,67.7,112.6"/>
	<path class="st2" d="M111.6,95.1c0,0.5,0,0.9,0,1.4l0,0l0,0l0,0c0,8.7-4.6,17.5-11.7,22.3c-1.1,0.7-2.2,1.3-3.3,1.8l0,0h0.1
		c2.5,1.1,5.2,1.7,8,1.7l0,0l0,0c3.8,0,7.6-1.1,11.1-3.4c0,0,0.1,0,0.1-0.1c0.6-0.4,1.2-0.8,1.7-1.3c0.2-1.3,0.3-2.7,0.3-4
		c0-1.4-0.1-2.8-0.4-4.2C116.5,104.1,114.7,99.3,111.6,95.1"/>
	<path class="st3" d="M104.6,122.3L104.6,122.3L104.6,122.3L104.6,122.3 M96.6,120.6L96.6,120.6C96.6,120.6,96.6,120.6,96.6,120.6
		 M115.7,118.9c-3.5,2.3-7.3,3.4-11.1,3.4C108.4,122.3,112.3,121.2,115.7,118.9"/>
	<path class="st4" d="M88,69.1c-0.3,0-0.6,0-1,0c-4.2,0.2-7.8,1.8-11.4,4c-8.6,5.3-14.7,14.5-14.2,25c0.3,5.6,2.7,10.6,6.3,14.5l0,0
		l0,0l0,0l0,0c0.4-7.6,4.3-14.3,9.9-19.2l0,0l0,0c1.2-8.5,6.7-15.7,14.1-20.3c1.5-0.9,3.1-1.8,4.7-2.4C93.7,69.6,90.9,69.1,88,69.1"
		/>
	<path class="st5" d="M96.3,70.7L96.3,70.7L96.3,70.7c-1.6,0.7-3.1,1.5-4.7,2.4c-7.4,4.6-12.8,11.8-14.1,20.3
		c1.4-1.2,2.8-2.3,4.4-3.2c3.6-2.2,7.2-3.8,11.4-4c0.3,0,0.7,0,1,0l0,0l0,0l0,0l0,0c5.9,0,11.3,2.3,15.4,6.6l0.1,0.1
		c0.7,0.7,1.2,1.4,1.8,2.2c-0.1-1-0.1-1.9-0.3-2.8c-1.1-6.2-3.4-11.8-7.7-16.5C101.4,73.5,99,71.8,96.3,70.7L96.3,70.7L96.3,70.7"/>
	<path class="st6" d="M77.6,93.4c-5.6,4.9-9.5,11.6-9.9,19.2c2.8,3,6.5,5.3,10.4,6.5l0,0l0.1,0.1c3.2,2,6.8,3,10.5,3l0,0l0,0
		c2.6,0,5.2-0.5,7.7-1.6l0,0c0,0,0.1,0,0.1-0.1l0,0c-0.9-0.4-1.7-0.9-2.6-1.4c-9-2.8-16.2-11-16.7-21c0-0.4,0-0.8,0-1.1l0,0l0,0l0,0
		C77.3,95.8,77.4,94.6,77.6,93.4"/>
	<path class="st6" d="M88.7,122.3L88.7,122.3L88.7,122.3L88.7,122.3 M96.4,120.6c-2.5,1.1-5.1,1.6-7.7,1.6
		C91.3,122.3,93.9,121.7,96.4,120.6 M96.6,120.6C96.6,120.6,96.5,120.6,96.6,120.6C96.5,120.6,96.5,120.6,96.6,120.6 M78.1,119.1
		L78.1,119.1C78.2,119.2,78.1,119.2,78.1,119.1"/>
	<path d="M94.3,86.2L94.3,86.2c-0.3,0-0.7,0-1,0c-4.2,0.2-7.8,1.8-11.4,4c-1.5,1-3,2-4.4,3.2l0,0l0,0c-0.2,1.2-0.3,2.4-0.3,3.6
		c0,0.4,0,0.8,0,1.1c0.5,10,7.7,18.2,16.7,21c0.8,0.5,1.7,1,2.6,1.4c1.1-0.5,2.2-1.1,3.3-1.8c7.1-4.8,11.7-13.6,11.7-22.3
		c0-0.5,0-0.9,0-1.4l0,0l0,0c-0.6-0.7-1.2-1.5-1.8-2.2l-0.1-0.1C105.6,88.5,100.2,86.2,94.3,86.2L94.3,86.2"/>
	<path d="M94.3,86.2c-0.3,0-0.7,0-1,0c-4.2,0.2-7.8,1.8-11.4,4c-1.5,1-3,2-4.4,3.2l0,0c1.4-1.2,2.8-2.3,4.4-3.2
		c3.6-2.2,7.2-3.8,11.4-4C93.6,86.2,94,86.2,94.3,86.2"/>
	<path class="st1" d="M136.8,159.2c-0.3,0-0.6,0-1,0c-2.4,0.1-4.6,0.7-6.7,1.5c2.7,1.1,5.1,2.8,7.2,5.1c4.3,4.7,6.6,10.3,7.7,16.5
		c0.2,0.9,0.3,1.9,0.3,2.8l0,0l0,0c3.2,4.2,4.9,9,5.9,14.3c0.3,1.4,0.4,2.8,0.4,4.2l0,0c0,1.3-0.1,2.7-0.3,4
		c7.2-5.9,11.3-16,9.6-25.2c-1.1-6.2-3.4-11.8-7.7-16.5C148.1,161.5,142.7,159.2,136.8,159.2"/>
	<path class="st0" d="M100.4,202.7c-0.1,0.9-0.1,1.8,0,2.7c0.5,10,7.7,18.2,16.7,21c3.2,2,6.9,3.1,10.6,3.1c3.8,0,7.7-1.1,11.2-3.5
		c6-4.1,10.3-11,11.4-18.4c-0.6,0.5-1.1,0.9-1.7,1.3c0,0-0.1,0-0.1,0.1c-3.5,2.3-7.3,3.4-11.1,3.4l0,0l0,0l0,0l0,0
		c-2.7,0-5.4-0.6-7.9-1.7l0,0l0,0l0,0l0,0c0,0,0,0-0.1,0l0,0c0,0,0,0-0.1,0l0,0c0,0-0.1,0-0.1,0.1l0,0h-0.1
		c-2.5,1.1-5.1,1.6-7.7,1.6l0,0l0,0l0,0l0,0c-3.6,0-7.2-1-10.4-3c0,0-0.1,0-0.1-0.1c0,0,0,0-0.1,0h-0.1l0,0
		C106.9,208,103.3,205.7,100.4,202.7"/>
	<path class="st2" d="M144.3,185.2c0,0.5,0,0.9,0,1.4l0,0l0,0l0,0c0,8.7-4.6,17.5-11.7,22.3c-1.1,0.7-2.2,1.3-3.3,1.8l0,0
		c0,0,0,0,0.1,0l0,0c0,0,0,0,0.1,0l0,0l0,0l0,0l0,0c2.5,1.1,5.2,1.7,7.9,1.7l0,0l0,0c3.8,0,7.6-1.1,11.1-3.4c0,0,0.1,0,0.1-0.1
		c0.6-0.4,1.2-0.8,1.7-1.3c0.2-1.3,0.3-2.7,0.3-4c0-1.4-0.1-2.8-0.4-4.2C149.3,194.2,147.5,189.4,144.3,185.2"/>
	<path class="st3" d="M137.4,212.4L137.4,212.4L137.4,212.4L137.4,212.4 M129.5,210.7C129.5,210.7,129.5,210.8,129.5,210.7
		C129.5,210.8,129.5,210.7,129.5,210.7 M129.5,210.7L129.5,210.7L129.5,210.7 M129.4,210.7C129.4,210.7,129.5,210.7,129.4,210.7
		C129.5,210.7,129.4,210.7,129.4,210.7 M129.4,210.7L129.4,210.7L129.4,210.7 M148.5,209c-3.5,2.3-7.3,3.4-11.1,3.4
		C141.2,212.4,145,211.3,148.5,209"/>
	<path class="st4" d="M120.8,159.1c-0.3,0-0.6,0-1,0c-4.2,0.2-7.8,1.8-11.4,4c-8.7,5.4-14.8,14.6-14.3,25.1
		c0.3,5.6,2.7,10.6,6.3,14.5l0,0l0,0l0,0l0,0c0.4-7.6,4.3-14.3,9.9-19.2l0,0l0,0c1.2-8.5,6.7-15.7,14.1-20.3
		c1.5-0.9,3.1-1.8,4.7-2.4C126.5,159.7,123.7,159.1,120.8,159.1"/>
	<path class="st5" d="M129.1,160.8L129.1,160.8L129.1,160.8c-1.6,0.7-3.1,1.5-4.7,2.4c-7.4,4.6-12.8,11.8-14.1,20.3
		c1.4-1.2,2.8-2.3,4.4-3.2c3.6-2.2,7.2-3.8,11.4-4c0.3,0,0.7,0,1,0l0,0l0,0l0,0l0,0c5.9,0,11.3,2.3,15.4,6.6l0.1,0.1
		c0.7,0.7,1.2,1.4,1.8,2.2c-0.1-1-0.1-1.9-0.3-2.8c-1.1-6.2-3.4-11.8-7.7-16.5C134.2,163.6,131.8,161.9,129.1,160.8L129.1,160.8
		L129.1,160.8"/>
	<path class="st6" d="M110.3,183.5c-5.6,4.9-9.5,11.6-9.9,19.2c2.8,3,6.5,5.3,10.4,6.5l0,0h0.1c0,0,0,0,0.1,0c0,0,0.1,0,0.1,0.1
		c3.2,1.9,6.8,3,10.4,3l0,0l0,0c2.6,0,5.2-0.5,7.7-1.6h0.1l0,0c0,0,0.1,0,0.1-0.1c-0.9-0.4-1.7-0.9-2.6-1.4c-9-2.8-16.2-11-16.7-21
		c0-0.4,0-0.8,0-1.1l0,0l0,0l0,0C110.1,185.9,110.2,184.7,110.3,183.5"/>
	<path class="st6" d="M121.5,212.3L121.5,212.3L121.5,212.3L121.5,212.3 M129.1,210.8c-2.5,1.1-5.1,1.6-7.7,1.6
		C124.1,212.3,126.6,211.8,129.1,210.8 M129.2,210.7L129.2,210.7L129.2,210.7 M111,209.3C111,209.3,111.1,209.3,111,209.3
		C111.1,209.3,111,209.3,111,209.3 M110.9,209.2L110.9,209.2L110.9,209.2"/>
	<path d="M127.1,176.3L127.1,176.3c-0.3,0-0.7,0-1,0c-4.2,0.2-7.8,1.8-11.4,4c-1.5,1-3,2-4.4,3.2l0,0l0,0c-0.2,1.2-0.3,2.4-0.3,3.6
		c0,0.4,0,0.8,0,1.1c0.5,10,7.7,18.2,16.7,21c0.8,0.5,1.7,1,2.6,1.4c1.1-0.5,2.2-1.1,3.3-1.8c7.1-4.8,11.7-13.6,11.7-22.3
		c0-0.5,0-0.9,0-1.4l0,0l0,0c-0.6-0.7-1.2-1.5-1.8-2.2l-0.1-0.1C138.4,178.6,133,176.3,127.1,176.3L127.1,176.3"/>
	<path d="M142.5,182.9C142.5,183,142.5,183,142.5,182.9c0.7,0.8,1.3,1.5,1.9,2.3l0,0C143.8,184.5,143.2,183.7,142.5,182.9
		C142.5,183,142.5,183,142.5,182.9 M127.1,176.3c-0.3,0-0.7,0-1,0c-4.2,0.2-7.8,1.8-11.4,4c-1.5,1-3,2-4.4,3.2l0,0
		c1.4-1.2,2.8-2.3,4.4-3.2c3.6-2.2,7.2-3.8,11.4-4C126.4,176.3,126.7,176.3,127.1,176.3 M127.1,176.3L127.1,176.3L127.1,176.3
		L127.1,176.3"/>
	<path class="st1" d="M169.5,249.3c-0.3,0-0.7,0-1,0c-2.4,0.1-4.6,0.7-6.7,1.5c2.7,1.1,5.1,2.8,7.2,5.1c4.3,4.7,6.6,10.3,7.7,16.5
		c0.2,0.9,0.3,1.9,0.3,2.8l0,0l0,0c3.2,4.2,4.9,9,5.9,14.3c0.3,1.4,0.4,2.8,0.4,4.2l0,0c0,1.3-0.1,2.7-0.3,4
		c7.2-5.9,11.3-16,9.6-25.2c-1.1-6.2-3.4-11.8-7.7-16.5C180.9,251.6,175.5,249.3,169.5,249.3"/>
	<path class="st0" d="M133.2,292.7c-0.1,0.9-0.1,1.8,0,2.7c0.5,10,7.7,18.2,16.7,21c3.2,2,6.9,3.1,10.6,3.1c3.8,0,7.7-1.1,11.2-3.5
		c6-4.1,10.3-11,11.4-18.4c-0.6,0.5-1.1,0.9-1.7,1.3l0,0c-3.5,2.3-7.3,3.5-11.1,3.5l0,0l0,0l0,0l0,0c-2.8,0-5.5-0.6-8-1.7
		c0,0,0,0-0.1,0l0,0l0,0c0,0-0.1,0-0.1,0.1l0,0c-2.5,1.1-5.1,1.6-7.7,1.6l0,0l0,0l0,0l0,0c-3.7,0-7.3-1.1-10.5-3.1
		c0,0-0.1,0-0.1-0.1l0,0C139.7,298,136.1,295.8,133.2,292.7"/>
	<path class="st2" d="M177.1,275.3c0,0.5,0,0.9,0,1.4l0,0l0,0l0,0c0,8.7-4.6,17.5-11.7,22.3c-1.1,0.7-2.2,1.3-3.3,1.8l0,0
		c0,0,0,0,0.1,0c2.5,1.1,5.3,1.7,8,1.7l0,0l0,0c3.8,0,7.6-1.1,11.1-3.5l0,0c0.6-0.4,1.2-0.8,1.7-1.3c0.2-1.3,0.3-2.7,0.3-4
		c0-1.4-0.1-2.8-0.4-4.2C182.1,284.3,180.3,279.5,177.1,275.3"/>
	<path class="st3" d="M170.2,302.5L170.2,302.5L170.2,302.5L170.2,302.5 M162.1,300.7C162.2,300.8,162.2,300.8,162.1,300.7
		C162.2,300.8,162.2,300.8,162.1,300.7 M181.3,299c-3.5,2.3-7.3,3.5-11.1,3.5C174,302.5,177.9,301.4,181.3,299"/>
	<path class="st4" d="M153.6,249.2c-0.3,0-0.6,0-1,0c-4.2,0.2-7.8,1.8-11.4,4c-8.7,5.4-14.8,14.6-14.3,25.1
		c0.3,5.6,2.7,10.6,6.3,14.5l0,0l0,0l0,0l0,0c0.4-7.6,4.3-14.3,9.9-19.2l0,0l0,0c1.2-8.5,6.7-15.7,14.1-20.3
		c1.5-0.9,3.1-1.8,4.7-2.4C159.3,249.8,156.5,249.2,153.6,249.2"/>
	<path class="st5" d="M161.9,250.9L161.9,250.9L161.9,250.9c-1.6,0.7-3.1,1.5-4.7,2.4c-7.4,4.6-12.8,11.8-14.1,20.3
		c1.4-1.2,2.8-2.3,4.4-3.2c3.6-2.2,7.2-3.8,11.4-4c0.3,0,0.7,0,1,0l0,0l0,0l0,0l0,0c6,0,11.4,2.3,15.5,6.7l0,0
		c0.7,0.7,1.2,1.4,1.8,2.2c-0.1-1-0.1-1.9-0.3-2.8c-1.1-6.2-3.4-11.8-7.7-16.5C167,253.7,164.5,252,161.9,250.9L161.9,250.9
		L161.9,250.9"/>
	<path class="st6" d="M143.1,273.6c-5.6,4.9-9.5,11.6-9.9,19.2c2.8,3,6.5,5.3,10.4,6.5l0,0c0,0,0.1,0,0.1,0.1
		c3.2,2,6.8,3.1,10.5,3.1l0,0l0,0c2.6,0,5.2-0.5,7.7-1.6l0,0c0,0,0.1,0,0.1-0.1l0,0c-0.9-0.4-1.7-0.9-2.6-1.4
		c-9-2.8-16.2-11-16.7-21c0-0.4,0-0.8,0-1.1l0,0l0,0l0,0C142.9,276,143,274.8,143.1,273.6"/>
	<path class="st6" d="M154.3,302.4L154.3,302.4L154.3,302.4L154.3,302.4 M162,300.8c-2.5,1.1-5.1,1.6-7.7,1.6
		C156.9,302.4,159.5,301.9,162,300.8 M162.1,300.7c0,0-0.1,0-0.1,0.1C162.1,300.8,162.1,300.8,162.1,300.7 M143.6,299.3
		c0,0,0.1,0,0.1,0.1C143.7,299.3,143.7,299.3,143.6,299.3"/>
	<path d="M159.9,266.4L159.9,266.4c-0.3,0-0.7,0-1,0c-4.2,0.2-7.8,1.8-11.4,4c-1.5,1-3,2-4.4,3.2l0,0l0,0c-0.2,1.2-0.3,2.4-0.3,3.6
		c0,0.4,0,0.8,0,1.1c0.5,10,7.7,18.2,16.7,21c0.8,0.5,1.7,1,2.6,1.4c1.1-0.5,2.2-1.1,3.3-1.8c7.1-4.8,11.7-13.6,11.7-22.3
		c0-0.5,0-0.9,0-1.4l0,0l0,0c-0.6-0.7-1.2-1.5-1.8-2.2l0,0C171.2,268.7,165.8,266.4,159.9,266.4L159.9,266.4"/>
	<path d="M159.9,266.4c-0.3,0-0.6,0-1,0c-4.2,0.2-7.8,1.8-11.4,4c-1.5,1-3,2-4.4,3.2l0,0c1.4-1.2,2.8-2.3,4.4-3.2
		c3.6-2.2,7.2-3.8,11.4-4C159.2,266.4,159.5,266.4,159.9,266.4"/>
	<path class="st1" d="M202.3,339.4c-0.3,0-0.6,0-1,0c-2.4,0.1-4.6,0.7-6.7,1.5c2.7,1.1,5.1,2.8,7.2,5.1c4.3,4.7,6.6,10.3,7.7,16.5
		c0.2,0.9,0.3,1.9,0.3,2.8l0,0l0,0c3.2,4.2,4.9,9,5.9,14.3c0.3,1.4,0.4,2.8,0.4,4.2l0,0c0,1.3-0.1,2.7-0.3,4
		c7.2-5.9,11.3-16,9.6-25.2c-1.1-6.2-3.4-11.8-7.7-16.5C213.7,341.7,208.3,339.4,202.3,339.4"/>
	<path class="st0" d="M166,382.8c-0.1,0.9-0.1,1.8,0,2.7c0.5,10,7.7,18.2,16.7,21c3.2,2,6.9,3.1,10.6,3.1c3.8,0,7.7-1.1,11.2-3.5
		c6-4.1,10.3-11,11.4-18.4c-0.6,0.5-1.1,0.9-1.7,1.3l0,0c0,0,0,0-0.1,0l0,0c-3.5,2.3-7.3,3.4-11,3.4l0,0l0,0l0,0l0,0
		c-2.7,0-5.4-0.6-8-1.7c0,0,0,0-0.1,0l0,0c0,0,0,0-0.1,0l0,0h-0.1c-2.5,1.1-5.2,1.6-7.8,1.6l0,0l0,0l0,0l0,0
		c-3.7,0-7.4-1.1-10.6-3.1l0,0l0,0C172.5,388.1,168.9,385.8,166,382.8"/>
	<path class="st2" d="M209.9,365.3c0,0.5,0,0.9,0,1.4l0,0l0,0l0,0c0,8.7-4.6,17.5-11.7,22.3c-1.1,0.7-2.2,1.3-3.3,1.8l0,0
		c0,0,0,0,0.1,0l0,0c0,0,0,0,0.1,0c2.5,1.1,5.2,1.7,8,1.7l0,0l0,0c3.8,0,7.6-1.1,11-3.4l0,0c0,0,0,0,0.1,0l0,0
		c0.6-0.4,1.2-0.8,1.7-1.3c0.2-1.3,0.3-2.7,0.3-4c0-1.4-0.1-2.8-0.4-4.2C214.9,374.4,213.1,369.5,209.9,365.3"/>
	<path class="st3" d="M203,392.6L203,392.6L203,392.6L203,392.6 M195,390.9L195,390.9L195,390.9 M194.9,390.8
		C194.9,390.8,195,390.8,194.9,390.8C195,390.8,194.9,390.8,194.9,390.8 M214,389.2c-3.5,2.3-7.3,3.4-11,3.4
		C206.8,392.6,210.6,391.5,214,389.2 M214.1,389.1L214.1,389.1L214.1,389.1"/>
	<path class="st4" d="M186.4,339.3c-0.3,0-0.6,0-1,0c-4.2,0.2-7.8,1.8-11.4,4c-8.7,5.4-14.8,14.6-14.3,25.1
		c0.3,5.6,2.7,10.6,6.3,14.5l0,0l0,0l0,0l0,0c0.4-7.6,4.3-14.3,9.9-19.2l0,0l0,0c1.2-8.5,6.7-15.7,14.1-20.3
		c1.5-0.9,3.1-1.8,4.7-2.4C192.1,339.9,189.3,339.3,186.4,339.3"/>
	<path class="st5" d="M194.6,340.9L194.6,340.9L194.6,340.9c-1.6,0.7-3.1,1.5-4.7,2.4c-7.4,4.6-12.8,11.8-14.1,20.3
		c1.4-1.2,2.8-2.3,4.4-3.2c3.6-2.2,7.2-3.8,11.4-4c0.3,0,0.7,0,1,0l0,0l0,0l0,0l0,0c5.9,0,11.2,2.3,15.3,6.6l0,0l0.1,0.1
		c0,0,0,0,0.1,0.1c0.7,0.7,1.2,1.4,1.8,2.2c-0.1-1-0.1-1.9-0.3-2.8c-1.1-6.2-3.4-11.8-7.7-16.5C199.8,343.8,197.3,342.1,194.6,340.9
		L194.6,340.9L194.6,340.9"/>
	<path class="st6" d="M175.9,363.6c-5.6,4.9-9.5,11.6-9.9,19.2c2.8,3,6.5,5.3,10.4,6.5l0,0l0,0c3.2,2,6.9,3.1,10.6,3.1l0,0l0,0
		c2.6,0,5.2-0.5,7.8-1.6h0.1c-0.9-0.4-1.7-0.9-2.6-1.4c-9-2.8-16.2-11-16.7-21c0-0.4,0-0.8,0-1.1l0,0l0,0l0,0
		C175.6,366.1,175.7,364.8,175.9,363.6"/>
	<path class="st6" d="M187,392.5L187,392.5L187,392.5L187,392.5 M194.8,390.9c-2.5,1.1-5.2,1.6-7.8,1.6
		C189.7,392.5,192.3,392,194.8,390.9 M176.4,389.4C176.4,389.4,176.5,389.4,176.4,389.4C176.5,389.4,176.4,389.4,176.4,389.4"/>
	<path d="M192.6,356.4L192.6,356.4c-0.3,0-0.7,0-1,0c-4.2,0.2-7.8,1.8-11.4,4c-1.5,1-3,2-4.4,3.2l0,0l0,0c-0.2,1.2-0.3,2.4-0.3,3.6
		c0,0.4,0,0.8,0,1.1c0.5,10,7.7,18.2,16.7,21c0.8,0.5,1.7,1,2.6,1.4c1.1-0.5,2.2-1.1,3.3-1.8c7.1-4.8,11.7-13.6,11.7-22.3
		c0-0.5,0-0.9,0-1.4l0,0l0,0c-0.6-0.7-1.2-1.5-1.8-2.2c0,0,0,0-0.1-0.1l-0.1-0.1l0,0C203.9,358.7,198.5,356.4,192.6,356.4
		L192.6,356.4"/>
	<path d="M208.1,363.1C208.1,363.1,208.1,363.2,208.1,363.1c0.7,0.8,1.3,1.5,1.9,2.2l0,0C209.4,364.6,208.8,363.9,208.1,363.1
		C208.1,363.2,208.1,363.1,208.1,363.1 M208,363L208,363L208,363 M192.6,356.4c-0.3,0-0.7,0-1,0c-4.2,0.2-7.8,1.8-11.4,4
		c-1.5,1-3,2-4.4,3.2l0,0c1.4-1.2,2.8-2.3,4.4-3.2c3.6-2.2,7.2-3.8,11.4-4C192,356.4,192.3,356.4,192.6,356.4 M192.6,356.4
		L192.6,356.4L192.6,356.4L192.6,356.4"/>
	<path class="st1" d="M235.1,429.5c-0.3,0-0.6,0-1,0c-2.4,0.1-4.6,0.7-6.7,1.5c2.7,1.1,5.1,2.8,7.2,5.1c4.3,4.7,6.6,10.3,7.7,16.5
		c0.2,0.9,0.3,1.9,0.3,2.8l0,0l0,0c3.2,4.2,4.9,9,5.9,14.3c0.3,1.4,0.4,2.8,0.4,4.2l0,0c0,1.3-0.1,2.7-0.3,4
		c7.2-5.9,11.3-16,9.6-25.2c-1.1-6.2-3.4-11.8-7.7-16.5C246.5,431.8,241.1,429.5,235.1,429.5"/>
	<path class="st0" d="M198.8,472.9c-0.1,0.9-0.1,1.8,0,2.7c0.5,10,7.7,18.2,16.7,21c3.2,2,6.9,3.1,10.6,3.1c3.8,0,7.7-1.1,11.2-3.5
		c6-4.1,10.3-11,11.4-18.4c-0.6,0.5-1.1,0.9-1.7,1.3l0,0c-3.5,2.3-7.3,3.5-11.1,3.5l0,0l0,0l0,0l0,0c-2.8,0-5.5-0.6-8-1.7
		c0,0,0,0-0.1,0l0,0h-0.1c-2.5,1.1-5.2,1.6-7.8,1.6l0,0l0,0l0,0l0,0c-3.7,0-7.4-1.1-10.6-3.1l0,0l0,0
		C205.3,478.2,201.7,475.9,198.8,472.9"/>
	<path class="st2" d="M242.7,455.4c0,0.5,0,0.9,0,1.4l0,0l0,0l0,0c0,8.7-4.6,17.5-11.7,22.3c-1.1,0.7-2.2,1.3-3.3,1.8l0,0
		c0,0,0,0,0.1,0c2.5,1.1,5.3,1.7,8,1.7l0,0l0,0c3.8,0,7.6-1.1,11.1-3.5l0,0c0.6-0.4,1.2-0.8,1.7-1.3c0.2-1.3,0.3-2.7,0.3-4
		c0-1.4-0.1-2.8-0.4-4.2C247.6,464.4,245.9,459.6,242.7,455.4"/>
	<path class="st3" d="M235.8,482.6L235.8,482.6L235.8,482.6L235.8,482.6 M227.7,480.9L227.7,480.9L227.7,480.9 M246.9,479.2
		c-3.5,2.3-7.3,3.5-11.1,3.5C239.6,482.6,243.4,481.5,246.9,479.2"/>
	<path class="st4" d="M219.2,429.4c-0.3,0-0.6,0-1,0c-4.2,0.2-7.8,1.8-11.4,4c-8.7,5.4-14.8,14.6-14.3,25.1
		c0.3,5.6,2.7,10.6,6.3,14.5l0,0l0,0l0,0l0,0c0.4-7.6,4.3-14.3,9.9-19.2l0,0l0,0c1.2-8.5,6.7-15.7,14.1-20.3
		c1.5-0.9,3.1-1.8,4.7-2.4C224.9,429.9,222.1,429.4,219.2,429.4"/>
	<path class="st5" d="M227.4,431L227.4,431L227.4,431c-1.6,0.7-3.1,1.5-4.7,2.4c-7.4,4.6-12.8,11.8-14.1,20.3
		c1.4-1.2,2.8-2.3,4.4-3.2c3.6-2.2,7.2-3.8,11.4-4c0.3,0,0.7,0,1,0l0,0l0,0l0,0l0,0c5.9,0,11.2,2.3,15.3,6.5
		c0.1,0.1,0.1,0.1,0.2,0.2c0.7,0.7,1.2,1.4,1.8,2.2c-0.1-1-0.1-1.9-0.3-2.8c-1.1-6.2-3.4-11.8-7.7-16.5
		C232.6,433.8,230.1,432.1,227.4,431L227.4,431L227.4,431"/>
	<path class="st6" d="M208.7,453.7c-5.6,4.9-9.5,11.6-9.9,19.2c2.8,3,6.5,5.3,10.4,6.5l0,0l0,0c3.2,2,6.9,3.1,10.6,3.1l0,0l0,0
		c2.6,0,5.2-0.5,7.8-1.6h0.1c-0.9-0.4-1.7-0.9-2.6-1.4c-9-2.8-16.2-11-16.7-21c0-0.4,0-0.8,0-1.1l0,0l0,0l0,0
		C208.4,456.1,208.5,454.9,208.7,453.7"/>
	<path class="st6" d="M219.8,482.6L219.8,482.6L219.8,482.6L219.8,482.6 M227.6,481c-2.5,1.1-5.2,1.6-7.8,1.6
		C222.4,482.6,225.1,482,227.6,481 M209.2,479.4C209.2,479.4,209.2,479.5,209.2,479.4C209.2,479.5,209.2,479.4,209.2,479.4"/>
	<path d="M225.4,446.5L225.4,446.5c-0.3,0-0.7,0-1,0c-4.2,0.2-7.8,1.8-11.4,4c-1.5,1-3,2-4.4,3.2l0,0l0,0c-0.2,1.2-0.3,2.4-0.3,3.6
		c0,0.4,0,0.8,0,1.1c0.5,10,7.7,18.2,16.7,21c0.8,0.5,1.7,1,2.6,1.4c1.1-0.5,2.2-1.1,3.3-1.8c7.1-4.8,11.7-13.6,11.7-22.3
		c0-0.5,0-0.9,0-1.4l0,0l0,0c-0.6-0.7-1.2-1.5-1.8-2.2c-0.1-0.1-0.1-0.1-0.2-0.2C236.6,448.8,231.3,446.5,225.4,446.5L225.4,446.5"
		/>
	<path d="M225.4,446.5c-0.3,0-0.7,0-1,0c-4.2,0.2-7.8,1.8-11.4,4c-1.5,1-3,2-4.4,3.2l0,0c1.4-1.2,2.8-2.3,4.4-3.2
		c3.6-2.2,7.2-3.8,11.4-4C224.8,446.5,225.1,446.5,225.4,446.5"/>
	<path class="st1" d="M0,23.2v31.2c3.7-5.6,5.5-12.7,4.3-19.3C3.5,30.8,2.2,26.8,0,23.2"/>
	<path class="st1" d="M13.9,101.9c-0.3,0-0.7,0-1,0c-2.4,0.1-4.6,0.7-6.7,1.5c2.7,1.1,5.1,2.8,7.2,5.1c4.3,4.7,6.6,10.3,7.7,16.5
		c0.2,0.9,0.3,1.9,0.3,2.8l0,0l0,0c3.2,4.2,4.9,9,5.9,14.3c0.3,1.4,0.4,2.8,0.4,4.2l0,0c0,1.3-0.1,2.7-0.3,4
		c7.2-5.9,11.3-16,9.6-25.2c-1.1-6.2-3.4-11.8-7.7-16.5C25.3,104.3,19.9,101.9,13.9,101.9"/>
	<path class="st0" d="M27.5,150.4c-0.6,0.5-1.1,0.9-1.7,1.3l0,0c-3.5,2.3-7.3,3.4-11.1,3.5l0,0l0,0l0,0l0,0c-2.7,0-5.4-0.6-7.9-1.6
		l0,0c0,0,0,0-0.1,0c0,0,0,0-0.1,0l0,0c0,0,0,0-0.1,0l0,0c-2.1,0.9-4.3,1.5-6.5,1.6v16.6c1.6,0.4,3.2,0.6,4.9,0.6
		c3.8,0,7.7-1.1,11.2-3.5C22.1,164.6,26.3,157.7,27.5,150.4"/>
	<path class="st2" d="M21.5,127.9c0,0.5,0,0.9,0,1.4l0,0l0,0l0,0c0,8.7-4.6,17.5-11.7,22.3c-1.1,0.7-2.2,1.3-3.3,1.8l0,0
		c0,0,0,0,0.1,0l0,0c0,0,0,0,0.1,0c0,0,0,0,0.1,0l0,0c2.5,1.1,5.2,1.6,7.9,1.6l0,0l0,0c3.8,0,7.6-1.1,11.1-3.5l0,0
		c0.6-0.4,1.2-0.8,1.7-1.3c0.2-1.3,0.3-2.7,0.3-4c0-1.4-0.1-2.8-0.4-4.2C26.4,136.9,24.7,132.1,21.5,127.9"/>
	<path class="st3" d="M14.6,155.1L14.6,155.1L14.6,155.1L14.6,155.1 M6.7,153.5L6.7,153.5L6.7,153.5 M6.6,153.4L6.6,153.4L6.6,153.4
		 M6.5,153.4L6.5,153.4L6.5,153.4 M25.7,151.7c-3.5,2.3-7.3,3.4-11.1,3.5C18.4,155.1,22.2,154,25.7,151.7"/>
	<path class="st4" d="M0,101.9v5l0,0l0,0c0.5-0.3,1-0.7,1.5-1c1.5-0.9,3.1-1.8,4.7-2.4C4.3,102.7,2.2,102.1,0,101.9"/>
	<path class="st5" d="M6.2,103.5L6.2,103.5L6.2,103.5c-1.6,0.7-3.1,1.5-4.7,2.4c-0.5,0.3-1,0.7-1.5,1v12.5l0,0l0,0l0,0
		c1-0.2,2.1-0.4,3.2-0.4c0.3,0,0.7,0,1,0l0,0l0,0l0,0l0,0c5.9,0,11.3,2.3,15.4,6.7c0,0,0,0,0.1,0.1c0.7,0.7,1.2,1.4,1.8,2.2
		c-0.1-1-0.1-1.9-0.3-2.8c-1.1-6.2-3.4-11.8-7.7-16.5C11.3,106.3,8.9,104.6,6.2,103.5L6.2,103.5L6.2,103.5"/>
	<path class="st6" d="M0,150.4v4.6c2.2-0.2,4.4-0.7,6.5-1.6c-0.9-0.4-1.7-0.9-2.6-1.4C2.6,151.6,1.3,151,0,150.4"/>
	<path d="M4.2,119L4.2,119c-0.3,0-0.7,0-1,0c-1.1,0-2.2,0.2-3.2,0.4v30.9c1.3,0.7,2.6,1.2,3.9,1.6c0.8,0.5,1.7,1,2.6,1.4
		c1.1-0.5,2.2-1.1,3.3-1.8c7.1-4.8,11.7-13.6,11.7-22.3c0-0.5,0-0.9,0-1.4l0,0l0,0c-0.6-0.7-1.2-1.5-1.8-2.2c0,0,0,0-0.1-0.1
		C15.5,121.3,10.1,119,4.2,119L4.2,119"/>
	<path d="M19.6,125.7C19.6,125.7,19.7,125.7,19.6,125.7c0.7,0.8,1.3,1.5,1.9,2.2l0,0C20.9,127.2,20.3,126.4,19.6,125.7
		C19.7,125.7,19.6,125.7,19.6,125.7 M4.2,119c-0.3,0-0.7,0-1,0c-1.1,0-2.2,0.2-3.2,0.4l0,0c1-0.2,2.1-0.4,3.2-0.4
		C3.6,119,3.9,119,4.2,119 M4.2,119L4.2,119L4.2,119L4.2,119"/>
	<path class="st1" d="M46.7,192c-0.3,0-0.7,0-1,0c-2.4,0.1-4.6,0.7-6.7,1.5c2.7,1.1,5.1,2.8,7.2,5.1c4.3,4.7,6.6,10.3,7.7,16.5
		c0.2,0.9,0.3,1.9,0.3,2.8l0,0l0,0c3.2,4.2,4.9,9,5.9,14.3c0.3,1.4,0.4,2.8,0.4,4.2l0,0c0,1.3-0.1,2.7-0.3,4
		c7.2-5.9,11.3-16,9.6-25.2c-1.1-6.2-3.4-11.8-7.7-16.5C58.1,194.3,52.6,192,46.7,192"/>
	<path class="st0" d="M10.4,235.4c-0.1,0.9-0.1,1.8,0,2.7c0.5,10,7.7,18.2,16.7,21c3.2,2,6.9,3.1,10.6,3.1c3.8,0,7.7-1.1,11.2-3.5
		c6-4.1,10.3-11,11.4-18.4c-0.6,0.5-1.1,0.9-1.7,1.3c0,0-0.1,0-0.1,0.1c-3.5,2.3-7.3,3.4-11.1,3.4l0,0l0,0l0,0l0,0
		c-2.7,0-5.4-0.6-8-1.7c0,0,0,0-0.1,0l0,0c0,0,0,0-0.1,0l0,0l0,0c-2.6,1.1-5.2,1.7-7.9,1.7l0,0l0,0l0,0l0,0c-3.7,0-7.3-1-10.5-3
		l-0.1-0.1l0,0C16.8,240.8,13.2,238.5,10.4,235.4"/>
	<path class="st2" d="M54.3,218c0,0.5,0,0.9,0,1.4l0,0l0,0l0,0c0,8.7-4.6,17.5-11.7,22.3c-1.1,0.7-2.2,1.3-3.3,1.8l0,0
		c0,0,0,0,0.1,0l0,0c0,0,0,0,0.1,0c2.5,1.1,5.2,1.7,8,1.7l0,0l0,0c3.8,0,7.6-1.1,11.1-3.4c0,0,0.1,0,0.1-0.1
		c0.6-0.4,1.2-0.8,1.7-1.3c0.2-1.3,0.3-2.7,0.3-4c0-1.4-0.1-2.8-0.4-4.2C59.2,227,57.4,222.2,54.3,218"/>
	<path class="st3" d="M47.3,245.2C47.3,245.2,47.4,245.2,47.3,245.2L47.3,245.2C47.4,245.2,47.3,245.2,47.3,245.2 M39.3,243.5
		C39.4,243.5,39.4,243.5,39.3,243.5C39.4,243.5,39.4,243.5,39.3,243.5 M39.3,243.5L39.3,243.5L39.3,243.5 M58.4,241.8
		c-3.5,2.3-7.3,3.4-11.1,3.4C51.1,245.2,55,244.1,58.4,241.8"/>
	<path class="st4" d="M30.8,191.9c-0.3,0-0.6,0-1,0c-4.2,0.2-7.8,1.8-11.4,4C9.7,201.3,3.6,210.5,4.1,221c0.3,5.6,2.7,10.6,6.3,14.5
		l0,0l0,0l0,0l0,0c0.4-7.6,4.3-14.3,9.9-19.2l0,0l0,0c1.2-8.5,6.7-15.7,14.1-20.3c1.5-0.9,3.1-1.8,4.7-2.4
		C36.4,192.5,33.7,191.9,30.8,191.9"/>
	<path class="st5" d="M39,193.6L39,193.6L39,193.6c-1.6,0.7-3.1,1.5-4.7,2.4c-7.4,4.6-12.8,11.8-14.1,20.3c1.4-1.2,2.8-2.3,4.4-3.2
		c3.6-2.2,7.2-3.8,11.4-4c0.3,0,0.7,0,1,0l0,0l0,0l0,0l0,0c5.9,0,11.3,2.3,15.4,6.6l0.1,0.1c0.7,0.7,1.2,1.4,1.8,2.2
		c-0.1-1-0.1-1.9-0.3-2.8c-1.1-6.2-3.4-11.8-7.7-16.5C44.1,196.4,41.7,194.7,39,193.6L39,193.6L39,193.6"/>
	<path class="st6" d="M20.3,216.3c-5.6,4.9-9.5,11.6-9.9,19.2c2.8,3,6.5,5.3,10.4,6.5l0,0l0.1,0.1c3.2,2,6.8,3,10.5,3l0,0l0,0
		c2.6,0,5.3-0.5,7.9-1.7l0,0c-0.9-0.4-1.7-0.9-2.6-1.4c-9-2.8-16.2-11-16.7-21c0-0.4,0-0.8,0-1.1l0,0l0,0l0,0
		C20,218.7,20.1,217.5,20.3,216.3"/>
	<path class="st6" d="M31.4,245.1L31.4,245.1L31.4,245.1L31.4,245.1 M39.3,243.5c-2.6,1.1-5.2,1.7-7.9,1.7
		C34,245.1,36.7,244.6,39.3,243.5 M20.8,242l0.1,0.1C20.9,242,20.8,242,20.8,242"/>
	<path d="M37,209.1L37,209.1c-0.3,0-0.7,0-1,0c-4.2,0.2-7.8,1.8-11.4,4c-1.5,1-3,2-4.4,3.2l0,0l0,0c-0.2,1.2-0.3,2.4-0.3,3.6
		c0,0.4,0,0.8,0,1.1c0.5,10,7.7,18.2,16.7,21c0.8,0.5,1.7,1,2.6,1.4c1.1-0.5,2.2-1.1,3.3-1.8c7.1-4.8,11.7-13.6,11.7-22.3
		c0-0.5,0-0.9,0-1.4l0,0l0,0c-0.6-0.7-1.2-1.5-1.8-2.2l-0.1-0.1C48.3,211.4,42.9,209.1,37,209.1L37,209.1"/>
	<path d="M37,209.1c-0.3,0-0.7,0-1,0c-4.2,0.2-7.8,1.8-11.4,4c-1.5,1-3,2-4.4,3.2l0,0c1.4-1.2,2.8-2.3,4.4-3.2
		c3.6-2.2,7.2-3.8,11.4-4C36.3,209.1,36.7,209.1,37,209.1"/>
	<path class="st1" d="M79.5,282.1c-0.3,0-0.7,0-1,0c-2.4,0.1-4.6,0.7-6.7,1.5c2.7,1.1,5.1,2.8,7.2,5.1c4.3,4.7,6.6,10.3,7.7,16.5
		c0.2,0.9,0.3,1.9,0.3,2.8l0,0l0,0c3.2,4.2,4.9,9,5.9,14.3c0.3,1.4,0.4,2.8,0.4,4.2l0,0c0,1.3-0.1,2.7-0.3,4
		c7.2-5.9,11.3-16,9.6-25.2c-1.1-6.2-3.4-11.8-7.7-16.5C90.8,284.4,85.4,282.1,79.5,282.1"/>
	<path class="st0" d="M43.2,325.5c-0.1,0.9-0.1,1.8,0,2.7c0.5,10,7.7,18.2,16.7,21c3.2,2,6.9,3.1,10.6,3.1c3.8,0,7.7-1.1,11.2-3.5
		c6-4.1,10.3-11,11.4-18.4c-0.6,0.5-1.1,0.9-1.7,1.3l0,0l-0.1,0.1l0,0c-3.5,2.3-7.3,3.4-11,3.4l0,0l0,0l0,0l0,0
		c-2.7,0-5.4-0.6-8-1.7c0,0-0.1,0-0.1-0.1l0,0l0,0c-2.6,1.1-5.2,1.7-7.9,1.7l0,0l0,0l0,0l0,0c-3.6,0-7.2-1-10.4-3
		c-0.1,0-0.1-0.1-0.2-0.1l0,0C49.6,330.8,46,328.5,43.2,325.5"/>
	<path class="st2" d="M87.1,308.1c0,0.5,0,0.9,0,1.4l0,0l0,0l0,0c0,8.7-4.6,17.5-11.7,22.3c-1.1,0.7-2.2,1.3-3.3,1.8l0,0
		c0,0,0.1,0,0.1,0.1c2.5,1.1,5.2,1.7,8,1.7l0,0l0,0c3.7,0,7.5-1.1,11-3.4l0,0l0.1-0.1l0,0c0.6-0.4,1.2-0.8,1.7-1.3
		c0.2-1.3,0.3-2.7,0.3-4c0-1.4-0.1-2.8-0.4-4.2C92,317.1,90.2,312.3,87.1,308.1"/>
	<path class="st3" d="M80.1,335.3L80.1,335.3L80.1,335.3L80.1,335.3 M72.1,333.5c0,0,0.1,0,0.1,0.1
		C72.1,333.6,72.1,333.6,72.1,333.5 M91.1,331.9c-3.5,2.3-7.3,3.4-11,3.4C83.9,335.3,87.7,334.2,91.1,331.9 M91.3,331.8l-0.1,0.1
		C91.2,331.9,91.3,331.8,91.3,331.8"/>
	<path class="st4" d="M63.5,282c-0.3,0-0.6,0-1,0c-4.2,0.2-7.8,1.8-11.4,4c-8.7,5.4-14.8,14.6-14.3,25.1c0.3,5.6,2.7,10.6,6.3,14.5
		l0,0l0,0l0,0l0,0c0.4-7.6,4.3-14.3,9.9-19.2l0,0l0,0c1.2-8.5,6.7-15.7,14.1-20.3c1.5-0.9,3.1-1.8,4.7-2.4
		C69.2,282.6,66.4,282,63.5,282"/>
	<path class="st5" d="M71.8,283.6L71.8,283.6L71.8,283.6c-1.6,0.7-3.1,1.5-4.7,2.4c-7.4,4.6-12.8,11.8-14.1,20.3
		c1.4-1.2,2.8-2.3,4.4-3.2c3.6-2.2,7.2-3.8,11.4-4c0.3,0,0.7,0,1,0l0,0l0,0l0,0l0,0c6,0,11.4,2.3,15.5,6.7l0,0
		c0.7,0.7,1.2,1.4,1.8,2.2c-0.1-1-0.1-1.9-0.3-2.8c-1.1-6.2-3.4-11.8-7.7-16.5C76.9,286.5,74.5,284.8,71.8,283.6L71.8,283.6
		L71.8,283.6"/>
	<path class="st6" d="M53.1,306.4c-5.6,4.9-9.5,11.6-9.9,19.2c2.8,3,6.5,5.3,10.4,6.5l0,0c0.1,0,0.1,0.1,0.2,0.1c3.2,2,6.8,3,10.4,3
		l0,0l0,0c2.6,0,5.3-0.5,7.9-1.7l0,0c-0.9-0.4-1.7-0.9-2.6-1.4c-9-2.8-16.2-11-16.7-21c0-0.4,0-0.8,0-1.1l0,0l0,0l0,0
		C52.8,308.8,52.9,307.5,53.1,306.4"/>
	<path class="st6" d="M64.2,335.2L64.2,335.2L64.2,335.2L64.2,335.2 M72.1,333.5c-2.6,1.1-5.2,1.7-7.9,1.7
		C66.8,335.2,69.5,334.7,72.1,333.5 M53.6,332.1c0.1,0,0.1,0.1,0.2,0.1C53.7,332.2,53.6,332.1,53.6,332.1"/>
	<path d="M69.8,299.1L69.8,299.1c-0.3,0-0.7,0-1,0c-4.2,0.2-7.8,1.8-11.4,4c-1.5,1-3,2-4.4,3.2l0,0l0,0c-0.2,1.2-0.3,2.4-0.3,3.6
		c0,0.4,0,0.8,0,1.1c0.5,10,7.7,18.2,16.7,21c0.8,0.5,1.7,1,2.6,1.4c1.1-0.5,2.2-1.1,3.3-1.8C82.4,326.8,87,318,87,309.3
		c0-0.5,0-0.9,0-1.4l0,0l0,0c-0.6-0.7-1.2-1.5-1.8-2.2l0,0C81.2,301.5,75.7,299.1,69.8,299.1L69.8,299.1"/>
	<path d="M85.3,305.9L85.3,305.9c0.7,0.7,1.2,1.4,1.8,2.2l0,0C86.5,307.3,85.9,306.6,85.3,305.9L85.3,305.9 M69.8,299.1
		c-0.3,0-0.6,0-1,0c-4.2,0.2-7.8,1.8-11.4,4c-1.5,1-3,2-4.4,3.2l0,0c1.4-1.2,2.8-2.3,4.4-3.2c3.6-2.2,7.2-3.8,11.4-4
		C69.1,299.2,69.5,299.1,69.8,299.1 M69.8,299.1L69.8,299.1L69.8,299.1L69.8,299.1"/>
	<path class="st1" d="M112.3,372.2c-0.3,0-0.7,0-1,0c-2.4,0.1-4.6,0.7-6.7,1.5c2.7,1.1,5.1,2.8,7.2,5.1c4.3,4.7,6.6,10.3,7.7,16.5
		c0.2,0.9,0.3,1.9,0.3,2.8l0,0l0,0c3.2,4.2,4.9,9,5.9,14.3c0.3,1.4,0.4,2.8,0.4,4.2l0,0c0,1.3-0.1,2.7-0.3,4
		c7.2-5.9,11.3-16,9.6-25.2c-1.1-6.2-3.4-11.8-7.7-16.5C123.6,374.5,118.2,372.2,112.3,372.2"/>
	<path class="st0" d="M75.9,415.6c-0.1,0.9-0.1,1.8,0,2.7c0.5,10,7.7,18.2,16.7,21c3.2,2,6.9,3.1,10.6,3.1c3.8,0,7.7-1.1,11.2-3.5
		c6-4.1,10.3-11,11.4-18.4c-0.6,0.5-1.1,0.9-1.7,1.3c0,0-0.1,0-0.1,0.1c-3.5,2.3-7.3,3.4-11.1,3.4l0,0l0,0l0,0l0,0
		c-2.7,0-5.4-0.6-8-1.7h-0.1l0,0l0,0c-2.6,1.1-5.2,1.7-7.9,1.7l0,0l0,0l0,0l0,0c-3.7,0-7.3-1.1-10.5-3.1h-0.1l0,0
		C82.4,420.9,78.8,418.6,75.9,415.6"/>
	<path class="st2" d="M119.8,398.1c0,0.5,0,0.9,0,1.4l0,0l0,0l0,0c0,8.7-4.6,17.5-11.7,22.3c-1.1,0.7-2.2,1.3-3.3,1.8l0,0h0.1
		c2.5,1.1,5.2,1.7,8,1.7l0,0l0,0c3.8,0,7.6-1.1,11.1-3.4c0,0,0.1,0,0.1-0.1c0.6-0.4,1.2-0.8,1.7-1.3c0.2-1.3,0.3-2.7,0.3-4
		c0-1.4-0.1-2.8-0.4-4.2C124.8,407.1,123,402.3,119.8,398.1"/>
	<path class="st3" d="M112.9,425.4L112.9,425.4L112.9,425.4L112.9,425.4 M104.8,423.6L104.8,423.6
		C104.9,423.6,104.9,423.6,104.8,423.6 M124,421.9c-3.5,2.3-7.3,3.4-11.1,3.4C116.7,425.4,120.5,424.3,124,421.9"/>
	<path class="st4" d="M96.3,372.1c-0.3,0-0.6,0-1,0c-4.2,0.2-7.8,1.8-11.4,4c-8.7,5.4-14.8,14.6-14.3,25.1
		c0.3,5.6,2.7,10.6,6.3,14.5l0,0l0,0l0,0l0,0c0.4-7.6,4.3-14.3,9.9-19.2l0,0l0,0c1.2-8.5,6.7-15.7,14.1-20.3
		c1.5-0.9,3.1-1.8,4.7-2.4C102,372.6,99.2,372.1,96.3,372.1"/>
	<path class="st5" d="M104.6,373.7L104.6,373.7L104.6,373.7c-1.6,0.7-3.1,1.5-4.7,2.4c-7.4,4.6-12.8,11.8-14.1,20.3
		c1.4-1.2,2.8-2.3,4.4-3.2c3.6-2.2,7.2-3.8,11.4-4c0.3,0,0.7,0,1,0l0,0l0,0l0,0l0,0c5.9,0,11.3,2.3,15.4,6.7c0,0,0,0,0.1,0.1
		c0.7,0.7,1.2,1.4,1.8,2.2c-0.1-1-0.1-1.9-0.3-2.8c-1.1-6.2-3.4-11.8-7.7-16.5C109.7,376.6,107.3,374.8,104.6,373.7L104.6,373.7
		L104.6,373.7"/>
	<path class="st6" d="M85.8,396.4c-5.6,4.9-9.5,11.6-9.9,19.2c2.8,3,6.5,5.3,10.4,6.5l0,0h0.1c3.2,2,6.8,3.1,10.5,3.1l0,0l0,0
		c2.6,0,5.3-0.5,7.9-1.7l0,0c-0.9-0.4-1.7-0.9-2.6-1.4c-9-2.8-16.2-11-16.7-21c0-0.4,0-0.8,0-1.1l0,0l0,0l0,0
		C85.6,398.8,85.7,397.6,85.8,396.4"/>
	<path class="st6" d="M97,425.3L97,425.3L97,425.3L97,425.3 M104.8,423.6c-2.6,1.1-5.2,1.7-7.9,1.7
		C99.6,425.3,102.3,424.7,104.8,423.6 M86.3,422.1C86.4,422.2,86.4,422.2,86.3,422.1C86.4,422.2,86.4,422.2,86.3,422.1"/>
	<path d="M102.6,389.2L102.6,389.2c-0.3,0-0.7,0-1,0c-4.2,0.2-7.8,1.8-11.4,4c-1.5,1-3,2-4.4,3.2l0,0l0,0c-0.2,1.2-0.3,2.4-0.3,3.6
		c0,0.4,0,0.8,0,1.1c0.5,10,7.7,18.2,16.7,21c0.8,0.5,1.7,1,2.6,1.4c1.1-0.5,2.2-1.1,3.3-1.8c7.1-4.8,11.7-13.6,11.7-22.3
		c0-0.5,0-0.9,0-1.4l0,0l0,0c-0.6-0.7-1.2-1.5-1.8-2.2c0,0,0,0-0.1-0.1C113.9,391.5,108.5,389.2,102.6,389.2L102.6,389.2"/>
	<path d="M102.6,389.2c-0.3,0-0.6,0-1,0c-4.2,0.2-7.8,1.8-11.4,4c-1.5,1-3,2-4.4,3.2l0,0c1.4-1.2,2.8-2.3,4.4-3.2
		c3.6-2.2,7.2-3.8,11.4-4C101.9,389.2,102.2,389.2,102.6,389.2"/>
	<path class="st1" d="M145,462.2c-0.3,0-0.6,0-1,0c-2.4,0.1-4.6,0.7-6.7,1.5c2.7,1.1,5.1,2.8,7.2,5.1c4.3,4.7,6.6,10.3,7.7,16.5
		c0.2,0.9,0.3,1.9,0.3,2.8l0,0l0,0c2.7,3.5,4.3,7.5,5.4,11.8l0,0l0,0l0,0h8.5c1.9-4.6,2.6-9.7,1.8-14.6c-1.1-6.2-3.4-11.8-7.7-16.5
		C156.4,464.6,151,462.2,145,462.2"/>
	<path class="st2" d="M152.6,488.2c0,0.5,0,0.9,0,1.4l0,0l0,0l0,0c0,3.5-0.8,7.1-2.2,10.4h7.5C157,495.7,155.3,491.7,152.6,488.2"/>
	<path class="st4" d="M129.1,462.2c-0.3,0-0.6,0-1,0c-4.2,0.2-7.8,1.8-11.4,4c-8.7,5.4-14.8,14.6-14.3,25.1c0.2,3.1,1,6.1,2.3,8.8h5
		l0,0l0,0c1.5-5.2,4.7-9.9,8.9-13.5l0,0l0,0c1.2-8.5,6.7-15.7,14.1-20.3c1.5-0.9,3.1-1.8,4.7-2.4C134.8,462.7,132,462.2,129.1,462.2
		"/>
	<path class="st5" d="M137.3,463.8L137.3,463.8L137.3,463.8c-1.6,0.7-3.1,1.5-4.7,2.4c-7.4,4.6-12.8,11.8-14.1,20.3
		c1.4-1.2,2.8-2.3,4.4-3.2c3.6-2.2,7.2-3.8,11.4-4c0.3,0,0.7,0,1,0l0,0l0,0l0,0l0,0c5.9,0,11.3,2.3,15.4,6.7c0,0,0,0,0.1,0.1
		c0.7,0.7,1.2,1.4,1.8,2.2c-0.1-1-0.1-1.9-0.3-2.8c-1.1-6.2-3.4-11.8-7.7-16.5C142.5,466.6,140,464.9,137.3,463.8L137.3,463.8
		L137.3,463.8"/>
	<path class="st6" d="M118.6,486.5c-4.2,3.6-7.4,8.3-8.9,13.5h10.9c-1.3-2.7-2.1-5.6-2.3-8.7c0-0.4,0-0.8,0-1.1l0,0l0,0l0,0
		C118.4,488.9,118.5,487.7,118.6,486.5"/>
	<path d="M135.4,479.3L135.4,479.3c-0.3,0-0.7,0-1,0c-4.2,0.2-7.8,1.8-11.4,4c-1.5,1-3,2-4.4,3.2l0,0l0,0c-0.2,1.2-0.3,2.4-0.3,3.6
		c0,0.4,0,0.8,0,1.1c0.2,3.1,1,6,2.3,8.7h29.9c1.4-3.3,2.1-6.9,2.2-10.4c0-0.5,0-0.9,0-1.4l0,0l0,0c-0.6-0.7-1.2-1.5-1.8-2.2
		c0,0,0,0-0.1-0.1C146.7,481.6,141.3,479.3,135.4,479.3L135.4,479.3"/>
	<path d="M135.4,479.3c-0.3,0-0.7,0-1,0c-4.2,0.2-7.8,1.8-11.4,4c-1.5,1-3,2-4.4,3.2l0,0c1.4-1.2,2.8-2.3,4.4-3.2
		c3.6-2.2,7.2-3.8,11.4-4C134.7,479.3,135,479.3,135.4,479.3"/>
	<path class="st1" d="M0,317.7v28.2l0,0l0,0c1.4,2.9,2.3,6,2.9,9.3c0.3,1.4,0.4,2.8,0.4,4.2l0,0c0,1.3-0.1,2.7-0.3,4
		c7.2-5.9,11.3-16,9.6-25.2c-1.1-6.2-3.4-11.8-7.7-16.5C3.4,320,1.8,318.7,0,317.7"/>
	<path class="st0" d="M3,363.3c-0.6,0.5-1.1,0.9-1.7,1.3c-0.4,0.3-0.8,0.5-1.2,0.8v6.8C1.5,369.3,2.5,366.4,3,363.3"/>
	<path class="st2" d="M0,345.9v19.5c0.4-0.2,0.8-0.5,1.2-0.8c0.6-0.4,1.2-0.8,1.7-1.3c0.2-1.3,0.3-2.7,0.3-4c0-1.4-0.1-2.8-0.4-4.2
		C2.3,351.9,1.4,348.7,0,345.9"/>
	<path class="st1" d="M22.2,404.9c-0.3,0-0.7,0-1,0c-2.4,0.1-4.6,0.7-6.7,1.5c2.7,1.1,5.1,2.8,7.2,5.1c4.3,4.7,6.6,10.3,7.7,16.5
		c0.2,0.9,0.3,1.9,0.3,2.8l0,0l0,0c3.2,4.2,4.9,9,5.9,14.3c0.3,1.4,0.4,2.8,0.4,4.2l0,0c0,1.3-0.1,2.7-0.3,4
		c7.2-5.9,11.3-16,9.6-25.2c-1.1-6.2-3.4-11.8-7.7-16.5C33.6,407.3,28.1,404.9,22.2,404.9"/>
	<path class="st0" d="M35.7,453.4c-0.6,0.5-1.1,0.9-1.7,1.3l0,0c-3.5,2.3-7.3,3.4-11.1,3.5l0,0l0,0l0,0l0,0c-2.8,0-5.5-0.6-8-1.7
		l0,0c0,0,0,0-0.1,0l0,0c-2.5,1.1-5.2,1.6-7.8,1.6l0,0l0,0l0,0l0,0c-2.3,0-4.6-0.4-6.7-1.2l0,0H0.2l0,0l0,0v14.3
		c0.8,0.4,1.7,0.7,2.5,1c3.2,2,6.9,3.1,10.6,3.1c3.8,0,7.7-1.1,11.2-3.5C30.4,467.7,34.6,460.7,35.7,453.4"/>
	<path class="st2" d="M29.8,430.9c0,0.5,0,0.9,0,1.4l0,0l0,0l0,0c0,8.7-4.6,17.5-11.7,22.3c-1.1,0.7-2.2,1.3-3.3,1.8c0,0,0,0,0.1,0
		l0,0c2.5,1.1,5.3,1.7,8,1.7l0,0l0,0c3.8,0,7.6-1.1,11.1-3.5l0,0c0.6-0.4,1.2-0.8,1.7-1.3c0.2-1.3,0.3-2.7,0.3-4
		c0-1.4-0.1-2.8-0.4-4.2C34.7,439.9,32.9,435.1,29.8,430.9"/>
	<path class="st3" d="M22.8,458.1L22.8,458.1L22.8,458.1L22.8,458.1 M14.8,456.4L14.8,456.4L14.8,456.4 M34,454.7
		c-3.5,2.3-7.3,3.4-11.1,3.5C26.6,458.1,30.5,457,34,454.7"/>
	<path class="st4" d="M6.2,404.9c-0.3,0-0.6,0-1,0c-1.9,0.1-3.6,0.4-5.3,1v12.4l0,0l0,0c2.5-3.7,5.9-6.9,9.8-9.4
		c1.5-0.9,3.1-1.8,4.7-2.4C11.9,405.4,9.1,404.9,6.2,404.9"/>
	<path class="st5" d="M14.5,406.5L14.5,406.5L14.5,406.5c-1.6,0.7-3.1,1.5-4.7,2.4c-3.9,2.4-7.3,5.6-9.8,9.4v7.8l0.1-0.1
		c3.6-2.2,7.2-3.8,11.4-4c0.3,0,0.7,0,1,0l0,0l0,0l0,0l0,0c6,0,11.4,2.3,15.5,6.7l0,0c0.7,0.7,1.2,1.4,1.8,2.2
		c-0.1-1-0.1-1.9-0.3-2.8c-1.1-6.2-3.4-11.8-7.7-16.5C19.6,409.3,17.2,407.6,14.5,406.5L14.5,406.5L14.5,406.5"/>
	<path class="st6" d="M0,446.3v10.5l0,0l0,0h0.1l0,0c2.2,0.8,4.4,1.2,6.7,1.2l0,0l0,0c2.6,0,5.3-0.5,7.8-1.6l0,0
		c-0.9-0.4-1.7-0.9-2.6-1.4C7.4,453.5,3,450.4,0,446.3"/>
	<path class="st6" d="M6.9,458.1L6.9,458.1L6.9,458.1L6.9,458.1 M0.1,456.8C0.1,456.8,0.2,456.8,0.1,456.8
		C0.2,456.8,0.1,456.8,0.1,456.8 M0,456.8L0,456.8L0,456.8 M14.7,456.4c-2.5,1.1-5.2,1.6-7.8,1.6C9.5,458.1,12.2,457.5,14.7,456.4"
		/>
	<path d="M12.5,422L12.5,422c-0.3,0-0.7,0-1,0c-4.2,0.2-7.8,1.8-11.4,4L0,426.1v20.2c3,4.1,7.4,7.2,12.2,8.7c0.8,0.5,1.7,1,2.6,1.4
		c1.1-0.5,2.2-1.1,3.3-1.8c7.1-4.8,11.7-13.6,11.7-22.3c0-0.5,0-0.9,0-1.4l0,0l0,0c-0.6-0.7-1.2-1.5-1.8-2.2l0,0
		C23.9,424.3,18.5,422,12.5,422L12.5,422"/>
	<path d="M12.5,422c-0.3,0-0.6,0-1,0c-4.2,0.2-7.8,1.8-11.4,4L0,426.1l0.1-0.1c3.6-2.2,7.2-3.8,11.4-4C11.8,422,12.2,422,12.5,422
		 M12.5,422L12.5,422L12.5,422L12.5,422"/>
	<path class="st1" d="M55,495c-0.3,0-0.7,0-1,0c-2.4,0.1-4.6,0.7-6.7,1.5c2,0.8,3.8,2,5.5,3.4l0,0l0,0l0,0h15.8
		C64.8,496.7,60.1,495,55,495"/>
	<path class="st4" d="M39,494.9c-0.3,0-0.6,0-1,0c-4.2,0.2-7.8,1.8-11.4,4c-0.6,0.3-1.1,0.7-1.6,1.1h16l0,0l0,0c0.5-0.3,1-0.7,1.5-1
		c1.5-0.9,3.1-1.8,4.7-2.4C44.7,495.5,41.9,494.9,39,494.9"/>
	<path class="st5" d="M47.3,496.6L47.3,496.6L47.3,496.6c-1.6,0.7-3.1,1.5-4.7,2.4c-0.5,0.3-1,0.7-1.5,1h11.7
		C51.1,498.6,49.3,497.4,47.3,496.6L47.3,496.6L47.3,496.6"/>
</g>
</svg>
