<?xml version="1.0" encoding="utf-8"?>
<!-- Generator: Adobe Illustrator 21.1.0, SVG Export Plug-In . SVG Version: 6.00 Build 0)  -->
<svg version="1.1" id="レイヤー_1" xmlns="http://www.w3.org/2000/svg" xmlns:xlink="http://www.w3.org/1999/xlink" x="0px"
	 y="0px" viewBox="0 0 500 500" style="enable-background:new 0 0 500 500;" xml:space="preserve">
<style type="text/css">
	.st0{fill:none;}
	.st1{fill:#D7E595;}
	.st2{fill:#FFFFFF;}
	.st3{fill:#EABF43;}
	.st4{fill:url(#SVGID_1_);}
</style>
<pattern  width="131.9" height="72.7" patternUnits="userSpaceOnUse" id="新規パターンスウォッチ_4" viewBox="164.7 -205.5 131.9 72.7" style="overflow:visible;">
	<g>
		<rect x="164.7" y="-205.5" class="st0" width="131.9" height="72.7"/>
		
			<rect x="85.6" y="-350.9" transform="matrix(0.7071 -0.7071 0.7071 0.7071 212.9806 103.1153)" class="st1" width="290.7" height="290.7"/>
		<g>
			<path class="st2" d="M198.1-387.4c0-10-4.7-18.2-10.5-18.2l-44.7,0c-5.8,0-10.5,8.1-10.5,18.2c0,10,4.7,18.2,10.5,18.2l44.7,0
				C193.4-369.2,198.1-377.3,198.1-387.4z"/>
			<path class="st3" d="M197.6-351c0-10-4.7-18.2-10.5-18.2l-44.7,0c-5.8,0-10.5,8.1-10.5,18.2c0,10,4.7,18.2,10.5,18.2l44.7,0
				C192.9-332.8,197.6-341,197.6-351z"/>
			<path class="st2" d="M198.1-314.6c0-10-4.7-18.2-10.5-18.2h-44.7c-5.8,0-10.5,8.1-10.5,18.2c0,10,4.7,18.2,10.5,18.2h44.7
				C193.4-296.5,198.1-304.6,198.1-314.6z"/>
			<path class="st3" d="M197.6-278.3c0-10-4.7-18.2-10.5-18.2l-44.7,0c-5.8,0-10.5,8.1-10.5,18.2c0,10,4.7,18.2,10.5,18.2l44.7,0
				C192.9-260.1,197.6-268.2,197.6-278.3z"/>
			<path class="st2" d="M198.1-241.9c0-10-4.7-18.2-10.5-18.2l-44.7,0c-5.8,0-10.5,8.1-10.5,18.2c0,10,4.7,18.2,10.5,18.2l44.7,0
				C193.4-223.7,198.1-231.9,198.1-241.9z"/>
			<path class="st3" d="M197.6-205.5c0-10-4.7-18.2-10.5-18.2l-44.7,0c-5.8,0-10.5,8.1-10.5,18.2c0,10,4.7,18.2,10.5,18.2l44.7,0
				C192.9-187.3,197.6-195.5,197.6-205.5z"/>
			<path class="st2" d="M198.1-169.2c0-10-4.7-18.2-10.5-18.2l-44.7,0c-5.8,0-10.5,8.1-10.5,18.2c0,10,4.7,18.2,10.5,18.2h44.7
				C193.4-151,198.1-159.1,198.1-169.2z"/>
			<path class="st3" d="M197.6-132.8c0-10-4.7-18.2-10.5-18.2l-44.7,0c-5.8,0-10.5,8.1-10.5,18.2c0,10,4.7,18.2,10.5,18.2l44.7,0
				C192.9-114.6,197.6-122.7,197.6-132.8z"/>
			<path class="st2" d="M198.1-96.4c0-10-4.7-18.2-10.5-18.2l-44.7,0c-5.8,0-10.5,8.1-10.5,18.2c0,10,4.7,18.2,10.5,18.2l44.7,0
				C193.4-78.2,198.1-86.4,198.1-96.4z"/>
			<path class="st3" d="M65.7-351c0-10-4.7-18.2-10.5-18.2l-44.7,0C4.7-369.2,0-361.1,0-351c0,10,4.7,18.2,10.5,18.2l44.7,0
				C61-332.8,65.7-341,65.7-351z"/>
			<path class="st3" d="M197.6-60.1c0-10-4.7-18.2-10.5-18.2l-44.7,0c-5.8,0-10.5,8.1-10.5,18.2c0,10,4.7,18.2,10.5,18.2l44.7,0
				C192.9-41.9,197.6-50,197.6-60.1z"/>
			<path class="st2" d="M198.1-23.7c0-10-4.7-18.2-10.5-18.2l-44.7,0c-5.8,0-10.5,8.1-10.5,18.2c0,10,4.7,18.2,10.5,18.2l44.7,0
				C193.4-5.5,198.1-13.6,198.1-23.7z"/>
			<g>
				<path class="st2" d="M330-387.4c0-10-4.7-18.2-10.5-18.2l-44.7,0c-5.8,0-10.5,8.1-10.5,18.2c0,10,4.7,18.2,10.5,18.2l44.7,0
					C325.3-369.2,330-377.3,330-387.4z"/>
				<path class="st3" d="M329.5-351c0-10-4.7-18.2-10.5-18.2l-44.7,0c-5.8,0-10.5,8.1-10.5,18.2c0,10,4.7,18.2,10.5,18.2l44.7,0
					C324.8-332.8,329.5-341,329.5-351z"/>
				<path class="st2" d="M330-314.6c0-10-4.7-18.2-10.5-18.2l-44.7,0c-5.8,0-10.5,8.1-10.5,18.2c0,10,4.7,18.2,10.5,18.2l44.7,0
					C325.3-296.5,330-304.6,330-314.6z"/>
				<path class="st3" d="M329.5-278.3c0-10-4.7-18.2-10.5-18.2l-44.7,0c-5.8,0-10.5,8.1-10.5,18.2c0,10,4.7,18.2,10.5,18.2l44.7,0
					C324.8-260.1,329.5-268.2,329.5-278.3z"/>
				<path class="st2" d="M330-241.9c0-10-4.7-18.2-10.5-18.2l-44.7,0c-5.8,0-10.5,8.1-10.5,18.2c0,10,4.7,18.2,10.5,18.2l44.7,0
					C325.3-223.7,330-231.9,330-241.9z"/>
				<path class="st3" d="M329.5-205.5c0-10-4.7-18.2-10.5-18.2l-44.7,0c-5.8,0-10.5,8.1-10.5,18.2c0,10,4.7,18.2,10.5,18.2l44.7,0
					C324.8-187.3,329.5-195.5,329.5-205.5z"/>
				<path class="st2" d="M330-169.2c0-10-4.7-18.2-10.5-18.2l-44.7,0c-5.8,0-10.5,8.1-10.5,18.2c0,10,4.7,18.2,10.5,18.2l44.7,0
					C325.3-151,330-159.1,330-169.2z"/>
				<path class="st3" d="M329.5-132.8c0-10-4.7-18.2-10.5-18.2l-44.7,0c-5.8,0-10.5,8.1-10.5,18.2c0,10,4.7,18.2,10.5,18.2l44.7,0
					C324.8-114.6,329.5-122.7,329.5-132.8z"/>
				<path class="st2" d="M330-96.4c0-10-4.7-18.2-10.5-18.2l-44.7,0c-5.8,0-10.5,8.1-10.5,18.2c0,10,4.7,18.2,10.5,18.2l44.7,0
					C325.3-78.2,330-86.4,330-96.4z"/>
				<path class="st3" d="M263.8-387.4c0-10-4.7-18.2-10.5-18.2l-44.7,0c-5.8,0-10.5,8.1-10.5,18.2c0,10,4.7,18.2,10.5,18.2l44.7,0
					C259.1-369.2,263.8-377.3,263.8-387.4z"/>
				<path class="st2" d="M263.2-351c0-10-4.7-18.2-10.5-18.2l-44.7,0c-5.8,0-10.5,8.1-10.5,18.2c0,10,4.7,18.2,10.5,18.2l44.7,0
					C258.6-332.8,263.2-341,263.2-351z"/>
				<path class="st3" d="M263.8-314.6c0-10-4.7-18.2-10.5-18.2l-44.7,0c-5.8,0-10.5,8.1-10.5,18.2c0,10,4.7,18.2,10.5,18.2h44.7
					C259.1-296.5,263.8-304.6,263.8-314.6z"/>
				<path class="st2" d="M263.2-278.3c0-10-4.7-18.2-10.5-18.2H208c-5.8,0-10.5,8.1-10.5,18.2c0,10,4.7,18.2,10.5,18.2l44.7,0
					C258.6-260.1,263.2-268.2,263.2-278.3z"/>
				<path class="st3" d="M263.8-241.9c0-10-4.7-18.2-10.5-18.2l-44.7,0c-5.8,0-10.5,8.1-10.5,18.2c0,10,4.7,18.2,10.5,18.2l44.7,0
					C259.1-223.7,263.8-231.9,263.8-241.9z"/>
				<path class="st2" d="M263.2-205.5c0-10-4.7-18.2-10.5-18.2l-44.7,0c-5.8,0-10.5,8.1-10.5,18.2c0,10,4.7,18.2,10.5,18.2h44.7
					C258.6-187.3,263.2-195.5,263.2-205.5z"/>
				<path class="st3" d="M263.8-169.2c0-10-4.7-18.2-10.5-18.2l-44.7,0c-5.8,0-10.5,8.1-10.5,18.2c0,10,4.7,18.2,10.5,18.2l44.7,0
					C259.1-151,263.8-159.1,263.8-169.2z"/>
				<path class="st2" d="M263.2-132.8c0-10-4.7-18.2-10.5-18.2l-44.7,0c-5.8,0-10.5,8.1-10.5,18.2c0,10,4.7,18.2,10.5,18.2l44.7,0
					C258.6-114.6,263.2-122.7,263.2-132.8z"/>
				<path class="st3" d="M263.8-96.4c0-10-4.7-18.2-10.5-18.2l-44.7,0c-5.8,0-10.5,8.1-10.5,18.2c0,10,4.7,18.2,10.5,18.2l44.7,0
					C259.1-78.2,263.8-86.4,263.8-96.4z"/>
				<path class="st2" d="M461.9-387.4c0-10-4.7-18.2-10.5-18.2l-44.7,0c-5.8,0-10.5,8.1-10.5,18.2c0,10,4.7,18.2,10.5,18.2l44.7,0
					C457.2-369.2,461.9-377.3,461.9-387.4z"/>
				<path class="st3" d="M461.4-351c0-10-4.7-18.2-10.5-18.2l-44.7,0c-5.8,0-10.5,8.1-10.5,18.2c0,10,4.7,18.2,10.5,18.2l44.7,0
					C456.7-332.8,461.4-341,461.4-351z"/>
				<path class="st2" d="M461.9-314.6c0-10-4.7-18.2-10.5-18.2h-44.7c-5.8,0-10.5,8.1-10.5,18.2c0,10,4.7,18.2,10.5,18.2h44.7
					C457.2-296.5,461.9-304.6,461.9-314.6z"/>
				<path class="st3" d="M461.4-278.3c0-10-4.7-18.2-10.5-18.2l-44.7,0c-5.8,0-10.5,8.1-10.5,18.2c0,10,4.7,18.2,10.5,18.2l44.7,0
					C456.7-260.1,461.4-268.2,461.4-278.3z"/>
				<path class="st2" d="M461.9-241.9c0-10-4.7-18.2-10.5-18.2l-44.7,0c-5.8,0-10.5,8.1-10.5,18.2c0,10,4.7,18.2,10.5,18.2l44.7,0
					C457.2-223.7,461.9-231.9,461.9-241.9z"/>
				<path class="st3" d="M461.4-205.5c0-10-4.7-18.2-10.5-18.2l-44.7,0c-5.8,0-10.5,8.1-10.5,18.2c0,10,4.7,18.2,10.5,18.2h44.7
					C456.7-187.3,461.4-195.5,461.4-205.5z"/>
				<path class="st2" d="M461.9-169.2c0-10-4.7-18.2-10.5-18.2h-44.7c-5.8,0-10.5,8.1-10.5,18.2c0,10,4.7,18.2,10.5,18.2h44.7
					C457.2-151,461.9-159.1,461.9-169.2z"/>
				<path class="st3" d="M461.4-132.8c0-10-4.7-18.2-10.5-18.2l-44.7,0c-5.8,0-10.5,8.1-10.5,18.2c0,10,4.7,18.2,10.5,18.2l44.7,0
					C456.7-114.6,461.4-122.7,461.4-132.8z"/>
				<path class="st2" d="M461.9-96.4c0-10-4.7-18.2-10.5-18.2l-44.7,0c-5.8,0-10.5,8.1-10.5,18.2c0,10,4.7,18.2,10.5,18.2h44.7
					C457.2-78.2,461.9-86.4,461.9-96.4z"/>
				<path class="st3" d="M395.7-387.4c0-10-4.7-18.2-10.5-18.2l-44.7,0c-5.8,0-10.5,8.1-10.5,18.2c0,10,4.7,18.2,10.5,18.2l44.7,0
					C391-369.2,395.7-377.3,395.7-387.4z"/>
				<path class="st2" d="M395.2-351c0-10-4.7-18.2-10.5-18.2l-44.7,0c-5.8,0-10.5,8.1-10.5,18.2s4.7,18.2,10.5,18.2l44.7,0
					C390.5-332.8,395.2-341,395.2-351z"/>
				<path class="st3" d="M395.7-314.6c0-10-4.7-18.2-10.5-18.2h-44.7c-5.8,0-10.5,8.1-10.5,18.2c0,10,4.7,18.2,10.5,18.2l44.7,0
					C391-296.5,395.7-304.6,395.7-314.6z"/>
				<path class="st2" d="M395.2-278.3c0-10-4.7-18.2-10.5-18.2l-44.7,0c-5.8,0-10.5,8.1-10.5,18.2c0,10,4.7,18.2,10.5,18.2l44.7,0
					C390.5-260.1,395.2-268.2,395.2-278.3z"/>
				<path class="st3" d="M395.7-241.9c0-10-4.7-18.2-10.5-18.2l-44.7,0c-5.8,0-10.5,8.1-10.5,18.2c0,10,4.7,18.2,10.5,18.2l44.7,0
					C391-223.7,395.7-231.9,395.7-241.9z"/>
				<path class="st2" d="M395.2-205.5c0-10-4.7-18.2-10.5-18.2l-44.7,0c-5.8,0-10.5,8.1-10.5,18.2c0,10,4.7,18.2,10.5,18.2l44.7,0
					C390.5-187.3,395.1-195.5,395.2-205.5z"/>
				<path class="st3" d="M395.7-169.2c0-10-4.7-18.2-10.5-18.2h-44.7c-5.8,0-10.5,8.1-10.5,18.2c0,10,4.7,18.2,10.5,18.2h44.7
					C391-151,395.7-159.1,395.7-169.2z"/>
				<path class="st2" d="M395.1-132.8c0-10-4.7-18.2-10.5-18.2l-44.7,0c-5.8,0-10.5,8.1-10.5,18.2c0,10,4.7,18.2,10.5,18.2l44.7,0
					C390.5-114.6,395.2-122.7,395.1-132.8z"/>
				<path class="st3" d="M395.7-96.4c0-10-4.7-18.2-10.5-18.2l-44.7,0c-5.8,0-10.5,8.1-10.5,18.2c0,10,4.7,18.2,10.5,18.2l44.7,0
					C391-78.2,395.7-86.4,395.7-96.4z"/>
				<path class="st2" d="M66.2-387.4c0-10-4.7-18.2-10.5-18.2l-44.7,0c-5.8,0-10.5,8.1-10.5,18.2c0,10,4.7,18.2,10.5,18.2l44.7,0
					C61.5-369.2,66.2-377.3,66.2-387.4z"/>
				<path class="st2" d="M66.2-314.6c0-10-4.7-18.2-10.5-18.2H11c-5.8,0-10.5,8.1-10.5,18.2c0,10,4.7,18.2,10.5,18.2l44.7,0
					C61.5-296.5,66.2-304.6,66.2-314.6z"/>
				<path class="st3" d="M65.7-278.3c0-10-4.7-18.2-10.5-18.2l-44.7,0c-5.8,0-10.5,8.1-10.5,18.2c0,10,4.7,18.2,10.5,18.2l44.7,0
					C61-260.1,65.7-268.2,65.7-278.3z"/>
				<path class="st2" d="M66.2-241.9c0-10-4.7-18.2-10.5-18.2l-44.7,0c-5.8,0-10.5,8.1-10.5,18.2c0,10,4.7,18.2,10.5,18.2l44.7,0
					C61.5-223.7,66.2-231.9,66.2-241.9z"/>
				<path class="st3" d="M65.7-205.5c0-10-4.7-18.2-10.5-18.2l-44.7,0c-5.8,0-10.5,8.1-10.5,18.2c0,10,4.7,18.2,10.5,18.2l44.7,0
					C61-187.3,65.7-195.5,65.7-205.5z"/>
				<path class="st2" d="M66.2-169.2c0-10-4.7-18.2-10.5-18.2l-44.7,0c-5.8,0-10.5,8.1-10.5,18.2c0,10,4.7,18.2,10.5,18.2l44.7,0
					C61.5-151,66.2-159.1,66.2-169.2z"/>
				<path class="st3" d="M65.7-132.8c0-10-4.7-18.2-10.5-18.2H10.5C4.7-151,0-142.8,0-132.8c0,10,4.7,18.2,10.5,18.2l44.7,0
					C61-114.6,65.7-122.7,65.7-132.8z"/>
				<path class="st2" d="M66.2-96.4c0-10-4.7-18.2-10.5-18.2l-44.7,0c-5.8,0-10.5,8.1-10.5,18.2c0,10,4.7,18.2,10.5,18.2h44.7
					C61.5-78.2,66.2-86.4,66.2-96.4z"/>
				<path class="st3" d="M131.9-387.4c0-10-4.7-18.2-10.5-18.2H76.7c-5.8,0-10.5,8.1-10.5,18.2c0,10,4.7,18.2,10.5,18.2l44.7,0
					C127.2-369.2,131.9-377.3,131.9-387.4z"/>
				<path class="st2" d="M131.3-351c0-10-4.7-18.2-10.5-18.2l-44.7,0c-5.8,0-10.5,8.1-10.5,18.2c0,10,4.7,18.2,10.5,18.2h44.7
					C126.6-332.8,131.3-341,131.3-351z"/>
				<path class="st3" d="M131.9-314.6c0-10-4.7-18.2-10.5-18.2l-44.7,0c-5.8,0-10.5,8.1-10.5,18.2c0,10,4.7,18.2,10.5,18.2l44.7,0
					C127.2-296.5,131.9-304.6,131.9-314.6z"/>
				<path class="st2" d="M131.3-278.3c0-10-4.7-18.2-10.5-18.2l-44.7,0c-5.8,0-10.5,8.1-10.5,18.2c0,10,4.7,18.2,10.5,18.2l44.7,0
					C126.6-260.1,131.3-268.2,131.3-278.3z"/>
				<path class="st3" d="M131.9-241.9c0-10-4.7-18.2-10.5-18.2l-44.7,0c-5.8,0-10.5,8.1-10.5,18.2c0,10,4.7,18.2,10.5,18.2h44.7
					C127.2-223.7,131.9-231.9,131.9-241.9z"/>
				<path class="st2" d="M131.3-205.5c0-10-4.7-18.2-10.5-18.2l-44.7,0c-5.8,0-10.5,8.1-10.5,18.2c0,10,4.7,18.2,10.5,18.2h44.7
					C126.6-187.3,131.3-195.5,131.3-205.5z"/>
				<path class="st3" d="M131.9-169.2c0-10-4.7-18.2-10.5-18.2l-44.7,0c-5.8,0-10.5,8.1-10.5,18.2c0,10,4.7,18.2,10.5,18.2l44.7,0
					C127.2-151,131.9-159.1,131.9-169.2z"/>
				<path class="st2" d="M131.3-132.8c0-10-4.7-18.2-10.5-18.2l-44.7,0c-5.8,0-10.5,8.1-10.5,18.2c0,10,4.7,18.2,10.5,18.2h44.7
					C126.6-114.6,131.3-122.7,131.3-132.8z"/>
				<path class="st3" d="M131.9-96.4c0-10-4.7-18.2-10.5-18.2l-44.7,0c-5.8,0-10.5,8.1-10.5,18.2c0,10,4.7,18.2,10.5,18.2h44.7
					C127.2-78.2,131.9-86.4,131.9-96.4z"/>
				<path class="st3" d="M329.5-60.1c0-10-4.7-18.2-10.5-18.2l-44.7,0c-5.8,0-10.5,8.1-10.5,18.2c0,10,4.7,18.2,10.5,18.2l44.7,0
					C324.8-41.9,329.5-50,329.5-60.1z"/>
				<path class="st2" d="M330-23.7c0-10-4.7-18.2-10.5-18.2l-44.7,0c-5.8,0-10.5,8.1-10.5,18.2c0,10,4.7,18.2,10.5,18.2l44.7,0
					C325.3-5.5,330-13.6,330-23.7z"/>
				<path class="st2" d="M263.2-60c0-10-4.7-18.2-10.5-18.2l-44.7,0c-5.8,0-10.5,8.1-10.5,18.2c0,10,4.7,18.2,10.5,18.2l44.7,0
					C258.6-41.9,263.2-50,263.2-60z"/>
				<path class="st3" d="M263.8-23.7c0-10-4.7-18.2-10.5-18.2l-44.7,0c-5.8,0-10.5,8.1-10.5,18.2c0,10,4.7,18.2,10.5,18.2l44.7,0
					C259.1-5.5,263.8-13.6,263.8-23.7z"/>
				<path class="st3" d="M461.4-60c0-10-4.7-18.2-10.5-18.2l-44.7,0c-5.8,0-10.5,8.1-10.5,18.2c0,10,4.7,18.2,10.5,18.2l44.7,0
					C456.7-41.9,461.4-50,461.4-60z"/>
				<path class="st2" d="M461.9-23.7c0-10-4.7-18.2-10.5-18.2l-44.7,0c-5.8,0-10.5,8.1-10.5,18.2c0,10,4.7,18.2,10.5,18.2l44.7,0
					C457.2-5.5,461.9-13.6,461.9-23.7z"/>
				<path class="st2" d="M395.2-60.1c0-10-4.7-18.2-10.5-18.2l-44.7,0c-5.8,0-10.5,8.1-10.5,18.2c0,10,4.7,18.2,10.5,18.2l44.7,0
					C390.5-41.9,395.2-50,395.2-60.1z"/>
				<path class="st3" d="M395.7-23.7c0-10-4.7-18.2-10.5-18.2l-44.7,0c-5.8,0-10.5,8.1-10.5,18.2c0,10,4.7,18.2,10.5,18.2l44.7,0
					C391-5.5,395.7-13.6,395.7-23.7z"/>
				<path class="st3" d="M65.7-60c0-10-4.7-18.2-10.5-18.2l-44.7,0C4.7-78.2,0-70.1,0-60c0,10,4.7,18.2,10.5,18.2l44.7,0
					C61-41.9,65.7-50,65.7-60z"/>
				<path class="st2" d="M66.2-23.7c0-10-4.7-18.2-10.5-18.2H11c-5.8,0-10.5,8.1-10.5,18.2c0,10,4.7,18.2,10.5,18.2l44.7,0
					C61.5-5.5,66.2-13.6,66.2-23.7z"/>
				<path class="st2" d="M131.3-60c0-10-4.7-18.2-10.5-18.2H76.1c-5.8,0-10.5,8.1-10.5,18.2c0,10,4.7,18.2,10.5,18.2h44.7
					C126.6-41.9,131.3-50,131.3-60z"/>
				<path class="st3" d="M131.9-23.7c0-10-4.7-18.2-10.5-18.2l-44.7,0c-5.8,0-10.5,8.1-10.5,18.2c0,10,4.7,18.2,10.5,18.2l44.7,0
					C127.2-5.5,131.9-13.6,131.9-23.7z"/>
			</g>
		</g>
		
			<rect x="85.6" y="-350.9" transform="matrix(0.7071 -0.7071 0.7071 0.7071 212.9806 103.1153)" class="st0" width="290.7" height="290.7"/>
	</g>
</pattern>
<g>
	<ellipse transform="matrix(0.7071 -0.7071 0.7071 0.7071 97.0428 289.9103)" class="st1" cx="398.5" cy="27.8" rx="0" ry="0"/>
	<path class="st3" d="M398.5,27.8c-10.2-10.2-23.3-13.7-29.2-7.9l-22.8,22.8l0,0l-22.8,22.8c-5.9,5.9-2.4,19,7.9,29.2l0,0
		c10.2,10.2,23.3,13.7,29.2,7.9l22.8-22.8l0,0L406.3,57C412.2,51.1,408.7,38,398.5,27.8L398.5,27.8
		C398.5,27.8,398.5,27.8,398.5,27.8z"/>
	<path class="st3" d="M388.3,0h-10.7C381.6,1.2,385.3,1.2,388.3,0z"/>
	<path class="st2" d="M398.5,27.8C398.5,27.8,398.5,27.8,398.5,27.8L398.5,27.8c10.2,10.2,23.3,13.7,29.2,7.9l24.8-24.8L463.3,0
		h-73.8C385.3,6.4,389,18.3,398.5,27.8z"/>
	<polygon class="st1" points="472.5,101.9 472.5,101.9 472.5,101.9 	"/>
	<path class="st2" d="M406.9,56.4l-23.3,23.3l0,0L361.3,102c-5.9,5.9-2.4,19,7.9,29.2c10.2,10.2,23.3,13.7,29.2,7.9l22.2-22.2v0
		l23.3-23.3c5.9-5.9,2.4-18.9-7.9-29.2C425.8,54.1,412.8,50.6,406.9,56.4z"/>
	<path class="st3" d="M472.5,101.9L472.5,101.9C472.5,101.9,472.5,101.9,472.5,101.9c-10.2-10.2-23.3-13.7-29.2-7.9l-22.8,22.8l0,0
		l-22.8,22.8c-5.9,5.9-2.4,19,7.9,29.2l0,0c10.2,10.2,23.3,13.7,29.2,7.9l22.8-22.8l0,0l22.8-22.8
		C486.3,125.2,482.8,112.1,472.5,101.9L472.5,101.9L472.5,101.9z"/>
	<path class="st3" d="M452.5,10.8l-24.3,24.3c-5.9,5.9-2.4,19,7.9,29.2c10.2,10.2,23.3,13.7,29.2,7.9L500,37.4V0h-36.7L452.5,10.8z"
		/>
	<path class="st2" d="M464.7,72.7c-5.9,5.9-2.4,19,7.9,29.2c0,0,0,0,0,0l0,0l0,0v0c9.3,9.3,21,13.1,27.5,9.2V37.4L464.7,72.7z"/>
	<polygon class="st1" points="472.5,101.9 472.5,101.9 472.5,101.9 	"/>
	<path class="st2" d="M481,130.5l-23.3,23.3l0,0l-22.2,22.2c-5.9,5.9-2.4,19,7.9,29.2c10.2,10.2,23.3,13.7,29.2,7.9l22.2-22.2v0
		l5.3-5.3v-54.7C492.4,126.9,485,126.5,481,130.5z"/>
	<path class="st3" d="M494.7,190.9L494.7,190.9l-22.8,22.8c-5.9,5.9-2.4,19,7.9,29.2l0,0c6.5,6.5,14.1,10.2,20.3,10.7v-68
		L494.7,190.9z"/>
	<path class="st3" d="M500,121.4V113C499.2,115.4,499.3,118.3,500,121.4z"/>
	<polygon class="st1" points="116,14 116,14 116,14 	"/>
	<path class="st2" d="M116,14C116,14,116,14,116,14L116,14L116,14L116,14c10.2,10.2,23.3,13.7,29.2,7.9l0.6-0.6L167.1,0h-60.3
		C108.5,4.7,111.6,9.6,116,14z"/>
	<polygon class="st1" points="116,14 116,14 116,14 	"/>
	<ellipse transform="matrix(0.7071 -0.7071 0.7071 0.7071 -6.5931 160.2074)" class="st1" cx="190.1" cy="88.1" rx="0" ry="0"/>
	<path class="st3" d="M116,14L116,14C116,14,116,14,116,14C105.8,3.8,92.7,0.2,86.8,6.1L64.1,28.9l0,0L41.3,51.7
		c-5.9,5.9-2.4,19,7.9,29.2l0,0c10.2,10.2,23.3,13.7,29.2,7.9L101.1,66l0,0l22.8-22.8C129.8,37.3,126.2,24.2,116,14L116,14L116,14z"
		/>
	<path class="st2" d="M124.4,42.6L101.1,66l0,0L78.9,88.2c-5.9,5.9-2.4,19,7.9,29.2c10.2,10.2,23.3,13.7,29.2,7.9l22.2-22.2l0,0
		l23.3-23.3c5.9-5.9,2.4-18.9-7.9-29.2C143.4,40.3,130.3,36.7,124.4,42.6z"/>
	<path class="st3" d="M190.1,88.1c-10.2-10.2-23.3-13.7-29.2-7.9L138.1,103l0,0l-22.8,22.8c-5.9,5.9-2.4,19,7.9,29.2l0,0
		c10.2,10.2,23.3,13.7,29.2,7.9l22.8-22.8l0,0l22.8-22.8C203.8,111.3,200.3,98.3,190.1,88.1L190.1,88.1
		C190.1,88.1,190.1,88.1,190.1,88.1z"/>
	<path class="st3" d="M257.5,20.6L257.5,20.6c10.2,10.2,23.3,13.7,29.2,7.9l22.8-22.8l0,0l5.7-5.7h-68.3
		C247.1,6.3,250.9,14,257.5,20.6z"/>
	<path class="st3" d="M145.8,21.3c-5.9,5.9-2.4,19,7.9,29.2c10.2,10.2,23.3,13.7,29.2,7.9l45.6-45.6c2.9-2.9,3.5-7.6,2.2-12.8h-63.5
		L145.8,21.3z"/>
	<path class="st2" d="M182.2,58.9c-5.9,5.9-2.4,19,7.9,29.2c0,0,0,0,0,0l0,0c10.2,10.2,23.3,13.7,29.2,7.9l0.6-0.6l24.3-24.3
		l20.7-20.7c5.9-5.9,2.4-18.9-7.9-29.2c0,0,0,0,0,0l0,0c-10.2-10.2-23.3-13.7-29.2-7.9L182.2,58.9z"/>
	<polygon class="st1" points="264.2,162.1 264.2,162.1 264.2,162.1 	"/>
	<path class="st2" d="M198.5,116.7L175.2,140l0,0l-22.2,22.2c-5.9,5.9-2.4,19,7.9,29.2c10.2,10.2,23.3,13.7,29.2,7.9l22.2-22.2v0
		l23.3-23.3c5.9-5.9,2.4-18.9-7.9-29.2C217.5,114.3,204.4,110.8,198.5,116.7z"/>
	<path class="st3" d="M264.2,162.1L264.2,162.1C264.2,162.1,264.2,162.1,264.2,162.1c-10.2-10.2-23.3-13.7-29.2-7.9l-22.8,22.8l0,0
		l-22.8,22.8c-5.9,5.9-2.4,19,7.9,29.2l0,0c10.2,10.2,23.3,13.7,29.2,7.9l22.8-22.8l0,0l22.8-22.8
		C277.9,185.4,274.4,172.4,264.2,162.1L264.2,162.1L264.2,162.1z"/>
	<path class="st2" d="M309.5,5.7l-22.2,22.2c-5.9,5.9-2.4,19,7.9,29.2c10.2,10.2,23.3,13.7,29.2,7.9l22.2-22.2v0l23.3-23.3
		c4.1-4.1,3.6-11.7-0.5-19.4h-54.2L309.5,5.7L309.5,5.7z"/>
	<path class="st3" d="M244.1,71.1l-24.3,24.3c-5.9,5.9-2.4,19,7.9,29.2c10.2,10.2,23.3,13.7,29.2,7.9l45.6-45.6
		c5.9-5.9,2.4-18.9-7.9-29.2c-10.2-10.2-23.3-13.7-29.2-7.9l-0.5,0.5L244.1,71.1z"/>
	<polygon class="st1" points="338.2,236.2 338.2,236.2 338.2,236.2 	"/>
	<polygon class="st1" points="264.2,162.1 264.2,162.1 264.2,162.1 	"/>
	<path class="st2" d="M272.6,190.8l-23.3,23.3l0,0L227,236.3c-5.9,5.9-2.4,19,7.9,29.2c10.2,10.2,23.3,13.7,29.2,7.9l22.2-22.2v0
		l23.3-23.3c5.9-5.9,2.4-18.9-7.9-29.2C291.5,188.4,278.5,184.9,272.6,190.8z"/>
	<path class="st3" d="M338.2,236.2L338.2,236.2C338.2,236.2,338.2,236.2,338.2,236.2c-10.2-10.2-23.3-13.7-29.2-7.9l-22.8,22.8l0,0
		l-22.8,22.8c-5.9,5.9-2.4,19,7.9,29.2l0,0c10.2,10.2,23.3,13.7,29.2,7.9l22.8-22.8l0,0l22.8-22.8
		C352,259.5,348.5,246.4,338.2,236.2L338.2,236.2L338.2,236.2z"/>
	<path class="st2" d="M331,95.2C331,95.2,331,95.2,331,95.2L331,95.2c-10.2-10.2-23.3-13.7-29.2-7.9L256.3,133
		c-5.9,5.9-2.4,19,7.9,29.2c0,0,0,0,0,0l0,0l0,0v0c10.2,10.2,23.3,13.7,29.2,7.9l24.8-24.8l20.7-20.7
		C344.8,118.5,341.3,105.5,331,95.2z"/>
	<path class="st3" d="M318.2,145.1l-24.3,24.3c-5.9,5.9-2.4,19,7.9,29.2c10.2,10.2,23.3,13.7,29.2,7.9l45.6-45.6
		c5.9-5.9,2.4-18.9-7.9-29.2c-10.2-10.2-23.3-13.7-29.2-7.9l-0.5,0.5L318.2,145.1z"/>
	<polygon class="st1" points="338.2,236.2 338.2,236.2 338.2,236.2 	"/>
	<polygon class="st1" points="412.3,310.3 412.3,310.3 412.3,310.3 	"/>
	<path class="st2" d="M346.6,264.8l-23.3,23.3l0,0l-22.2,22.2c-5.9,5.9-2.4,19,7.9,29.2c10.2,10.2,23.3,13.7,29.2,7.9l22.2-22.2v0
		l23.3-23.3c5.9-5.9,2.4-18.9-7.9-29.2C365.6,262.5,352.5,258.9,346.6,264.8z"/>
	<path class="st3" d="M412.3,310.3L412.3,310.3C412.3,310.3,412.3,310.3,412.3,310.3c-10.2-10.2-23.3-13.7-29.2-7.9l-22.8,22.8l0,0
		L337.6,348c-5.9,5.9-2.4,19,7.9,29.2l0,0c10.2,10.2,23.3,13.7,29.2,7.9l22.8-22.8l0,0l22.8-22.8C426,333.6,422.5,320.5,412.3,310.3
		L412.3,310.3L412.3,310.3z"/>
	<path class="st2" d="M405.1,169.3C405.1,169.3,405.1,169.3,405.1,169.3L405.1,169.3c-10.2-10.2-23.3-13.7-29.2-7.9L330.4,207
		c-5.9,5.9-2.4,19,7.9,29.2c0,0,0,0,0,0l0,0l0,0v0c10.2,10.2,23.3,13.7,29.2,7.9l24.8-24.8l20.7-20.7
		C418.8,192.6,415.3,179.5,405.1,169.3z"/>
	<path class="st3" d="M392.2,219.2L368,243.5c-5.9,5.9-2.4,19,7.9,29.2c10.2,10.2,23.3,13.7,29.2,7.9l45.6-45.6
		c5.9-5.9,2.4-18.9-7.9-29.2c-10.2-10.2-23.3-13.7-29.2-7.9l-0.5,0.5L392.2,219.2z"/>
	<polygon class="st1" points="486.4,384.3 486.4,384.3 486.4,384.3 	"/>
	<polygon class="st1" points="412.3,310.3 412.3,310.3 412.3,310.3 	"/>
	<path class="st2" d="M420.7,338.9l-23.3,23.3l0,0l-22.2,22.2c-5.9,5.9-2.4,19,7.9,29.2c10.2,10.2,23.3,13.7,29.2,7.9l22.2-22.2l0,0
		l23.3-23.3c5.9-5.9,2.4-18.9-7.9-29.2C439.7,336.5,426.6,333,420.7,338.9z"/>
	<path class="st2" d="M487,272.5c5.9-5.9,2.4-18.9-7.9-29.2c0,0,0,0,0,0l0,0c-10.2-10.2-23.3-13.7-29.2-7.9l-45.6,45.6
		c-5.9,5.9-2.4,19,7.9,29.2c0,0,0,0,0,0l0,0l0,0v0c10.2,10.2,23.3,13.7,29.2,7.9l24.8-24.8L487,272.5z"/>
	<path class="st3" d="M487.6,272l-0.5,0.5l-20.7,20.7L442,317.6c-5.9,5.9-2.4,19,7.9,29.2c10.2,10.2,23.3,13.7,29.2,7.9l20.9-20.9
		v-63.9C494.9,268.5,490.4,269.2,487.6,272z"/>
	<path class="st2" d="M478.5,355.2c-5.9,5.9-2.4,19,7.9,29.2c0,0,0,0,0,0l0,0l0,0l0,0c4.3,4.3,9.1,7.4,13.6,9.1v-59.8L478.5,355.2z"
		/>
	<polygon class="st1" points="486.4,384.3 486.4,384.3 486.4,384.3 	"/>
	<path class="st3" d="M486.4,384.3L486.4,384.3C486.4,384.3,486.4,384.3,486.4,384.3c-10.2-10.2-23.3-13.7-29.2-7.9l-22.8,22.8l0,0
		L411.6,422c-5.9,5.9-2.4,19,7.9,29.2l0,0c10.2,10.2,23.3,13.7,29.2,7.9l22.8-22.8l0,0l22.8-22.8
		C500.1,407.6,496.6,394.6,486.4,384.3L486.4,384.3L486.4,384.3z"/>
	<path class="st2" d="M494.8,413l-23.3,23.3l0,0l-22.2,22.2c-5.9,5.9-2.4,19,7.9,29.2c10.2,10.2,23.3,13.7,29.2,7.9l13.8-13.8v-71.4
		C498,410.7,496.2,411.6,494.8,413z"/>
	<path class="st3" d="M4.3,14.7L18.9,0H0v17.1C1.6,16.6,3.1,15.8,4.3,14.7z"/>
	<path class="st2" d="M4.8,14.1c-5.9,5.9-2.4,19,7.9,29.2C22.9,53.5,35.9,57,41.8,51.1l22.2-22.2v0L87.4,5.6
		c1.5-1.5,2.3-3.4,2.7-5.6H18.9L4.8,14.1z"/>
	<path class="st3" d="M20,73c5.9-5.9,2.4-18.9-7.9-29.2C8.3,40,4.1,37.1,0,35.3V93L20,73z"/>
	<path class="st1" d="M19.3,184.8c-10.2-10.2-13.7-23.3-7.9-29.2l23.8-23.8l-23.8,23.8l-0.6,0.6c-2.6,2.6-6.5,3.3-10.9,2.6v15.5
		C6,175,13.2,178.7,19.3,184.8z"/>
	<polygon class="st1" points="55.8,222.4 55.8,222.4 55.8,222.4 55.8,222.4 55.8,222.4 55.8,222.4 	"/>
	<path class="st2" d="M10.9,156.2l0.6-0.6l23.8-23.8l21.2-21.2c5.9-5.9,2.4-18.9-7.9-29.2c0,0,0,0,0,0l0,0
		c-10.2-10.2-23.3-13.7-29.2-7.9L0,93v65.8C4.4,159.5,8.3,158.7,10.9,156.2z"/>
	<path class="st3" d="M35.2,131.8l-23.8,23.8c-5.9,5.9-2.4,19,7.9,29.2c10.2,10.2,23.3,13.7,29.2,7.9L94,147.1
		c5.9-5.9,2.4-18.9-7.9-29.2C76,107.7,62.9,104.2,57,110l-0.5,0.5L35.2,131.8z"/>
	<path class="st2" d="M55.8,222.4L55.8,222.4L55.8,222.4c10.2,10.2,23.3,13.7,29.2,7.9l0.6-0.6l24.3-24.3l20.7-20.7
		c5.9-5.9,2.4-18.9-7.9-29.2c0,0,0,0,0,0l0,0c-10.2-10.2-23.3-13.7-29.2-7.9l-45.6,45.6C42,199.1,45.5,212.2,55.8,222.4
		C55.8,222.4,55.8,222.4,55.8,222.4z"/>
	<polygon class="st1" points="129.8,296.4 129.8,296.4 129.8,296.4 	"/>
	<path class="st2" d="M64.2,251l-23.3,23.3l0,0l-22.2,22.2c-5.9,5.9-2.4,19,7.9,29.2c10.2,10.2,23.3,13.7,29.2,7.9l22.2-22.2l0,0
		l23.3-23.3c5.9-5.9,2.4-18.9-7.9-29.2C83.1,248.6,70.1,245.1,64.2,251z"/>
	<path class="st3" d="M77.9,311.4L77.9,311.4l-22.8,22.8c-5.9,5.9-2.4,19,7.9,29.2l0,0c10.2,10.2,23.3,13.7,29.2,7.9l22.8-22.8l0,0
		l22.8-22.8c5.9-5.9,2.4-18.9-7.9-29.2h0l0,0l0,0c0,0,0,0,0,0c-10.2-10.2-23.3-13.7-29.2-7.9L77.9,311.4z"/>
	<path class="st3" d="M109.8,205.4l-24.3,24.3c-5.9,5.9-2.4,19,7.9,29.2c10.2,10.2,23.3,13.7,29.2,7.9l45.6-45.6
		c5.9-5.9,2.4-18.9-7.9-29.2c-10.2-10.2-23.3-13.7-29.2-7.9l-0.5,0.5L109.8,205.4z"/>
	<polygon class="st1" points="203.9,370.5 203.9,370.5 203.9,370.5 	"/>
	<polygon class="st1" points="129.8,296.4 129.8,296.4 129.8,296.4 	"/>
	<path class="st2" d="M138.3,325.1l-23.3,23.3l0,0l-22.2,22.2c-5.9,5.9-2.4,19,7.9,29.2c10.2,10.2,23.3,13.7,29.2,7.9l22.2-22.2v0
		l23.3-23.3c5.9-5.9,2.4-18.9-7.9-29.2C157.2,322.7,144.1,319.2,138.3,325.1z"/>
	<path class="st3" d="M203.9,370.5L203.9,370.5C203.9,370.5,203.9,370.5,203.9,370.5c-10.2-10.2-23.3-13.7-29.2-7.9L152,385.4l0,0
		l-22.8,22.8c-5.9,5.9-2.4,19,7.9,29.2l0,0c10.2,10.2,23.3,13.7,29.2,7.9l22.8-22.8l0,0l22.8-22.8
		C217.7,393.8,214.1,380.7,203.9,370.5L203.9,370.5L203.9,370.5z"/>
	<path class="st2" d="M129.8,296.4L129.8,296.4L129.8,296.4c10.2,10.2,23.3,13.7,29.2,7.9l0.6-0.6l24.9-24.9l20.2-20.2
		c5.9-5.9,2.4-18.9-7.9-29.2c0,0,0,0,0,0l0,0c-10.2-10.2-23.3-13.7-29.2-7.9L122,267.3C116.1,273.2,119.6,286.2,129.8,296.4
		C129.8,296.4,129.8,296.4,129.8,296.4L129.8,296.4z"/>
	<path class="st3" d="M184.4,278.9l-24.9,24.9c-5.9,5.9-2.4,19,7.9,29.2c10.2,10.2,23.3,13.7,29.2,7.9l45.6-45.6
		c5.9-5.9,2.4-18.9-7.9-29.2c-10.2-10.2-23.3-13.7-29.2-7.9l-0.5,0.5L184.4,278.9z"/>
	<polygon class="st1" points="278,444.6 278,444.6 278,444.6 278,444.6 278,444.6 278,444.6 	"/>
	<polygon class="st1" points="203.9,370.5 203.9,370.5 203.9,370.5 	"/>
	<path class="st2" d="M249.4,436.2c5.9-5.9,2.4-18.9-7.9-29.2c-10.2-10.2-23.3-13.7-29.2-7.9L189,422.5l0,0l-22.2,22.2
		c-5.9,5.9-2.4,19,7.9,29.2c10.2,10.2,23.3,13.7,29.2,7.9l22.2-22.2l0,0L249.4,436.2z"/>
	<path class="st2" d="M278.7,332.8c5.9-5.9,2.4-18.9-7.9-29.2c0,0,0,0,0,0l0,0c-10.2-10.2-23.3-13.7-29.2-7.9l-45.6,45.6
		c-5.9,5.9-2.4,19,7.9,29.2c0,0,0,0,0,0l0,0l0,0v0c10.2,10.2,23.3,13.7,29.2,7.9l24.8-24.8L278.7,332.8z"/>
	<path class="st3" d="M270.7,414.8l45.6-45.6c5.9-5.9,2.4-18.9-7.9-29.2c-10.2-10.2-23.3-13.7-29.2-7.9l-0.5,0.5l-20.7,20.7
		l-24.3,24.3c-5.9,5.9-2.4,19,7.9,29.2C251.7,417.2,264.8,420.7,270.7,414.8z"/>
	<path class="st2" d="M278,444.6L278,444.6L278,444.6c10.2,10.2,23.3,13.7,29.2,7.9l0.6-0.6l23.8-23.8l21.2-21.2
		c5.9-5.9,2.4-18.9-7.9-29.2c0,0,0,0,0,0l0,0c-10.2-10.2-23.3-13.7-29.2-7.9l-45.6,45.6C264.2,421.3,267.8,434.4,278,444.6
		C278,444.6,278,444.6,278,444.6z"/>
	<path class="st1" d="M263.1,496.5l23.3-23.3c5.9-5.9,19-2.4,29.2,7.9c-10.2-10.2-13.7-23.3-7.9-29.2l23.8-23.8l-23.8,23.8l-0.6,0.6
		c-5.9,5.9-19,2.4-29.2-7.9c10.2,10.2,13.7,23.3,7.9,29.2L263.1,496.5L263.1,496.5l-3.5,3.5h0L263.1,496.5L263.1,496.5z"/>
	<path class="st3" d="M263.1,496.5l22.8-22.8c5.9-5.9,2.4-18.9-7.9-29.2h0l0,0c0,0,0,0,0,0c-10.2-10.2-23.3-13.7-29.2-7.9L226,459.5
		l0,0l-22.8,22.8c-3.8,3.8-3.7,10.6-0.3,17.7h56.7L263.1,496.5L263.1,496.5z"/>
	<path class="st2" d="M315.6,481.1c-10.2-10.2-23.3-13.7-29.2-7.9l-23.3,23.3l0,0l-3.5,3.5h66.5
		C325.2,494.1,321.6,487.1,315.6,481.1z"/>
	<path class="st3" d="M331.5,428.1l-23.8,23.8c-5.9,5.9-2.4,19,7.9,29.2c10.2,10.2,23.3,13.7,29.2,7.9l45.6-45.6
		c5.9-5.9,2.4-18.9-7.9-29.2c-10.2-10.2-23.3-13.7-29.2-7.9l-0.5,0.5L331.5,428.1z"/>
	<path class="st1" d="M483.4,500c0.5-1.5,1.2-2.8,2.3-3.9l14.3-14.3v0l-13.8,13.8c-5.9,5.9-19,2.4-29.2-7.9
		c-10.2-10.2-13.7-23.3-7.9-29.2l22.2-22.2l0,0l23.3-23.3c1.4-1.4,3.2-2.2,5.2-2.6v-16.9c-4.6-1.7-9.3-4.8-13.6-9.1
		c10.2,10.2,13.7,23.3,7.9,29.2l-22.8,22.8l0,0l-22.8,22.8c-5.9,5.9-19,2.4-29.2-7.9l0,0c-10.2-10.2-13.7-23.3-7.9-29.2l22.8-22.8
		l0,0l22.8-22.8c5.9-5.9,18.9-2.4,29.2,7.9c-10.2-10.2-13.7-23.3-7.9-29.2l21.5-21.5v0l-20.9,20.9c-5.9,5.9-19,2.4-29.2-7.9
		c10.2,10.2,13.7,23.3,7.9,29.2l-23.3,23.3l0,0l-22.2,22.2c-5.9,5.9-19,2.4-29.2-7.9c-10.2-10.2-13.7-23.3-7.9-29.2l22.2-22.2l0,0
		l23.3-23.3c5.9-5.9,19-2.4,29.2,7.9c-10.2-10.2-13.7-23.3-7.9-29.2l24.3-24.3l-24.8,24.8c-5.9,5.9-19,2.4-29.2-7.9
		c10.2,10.2,13.7,23.3,7.9,29.2l-22.8,22.8l0,0L374.6,385c-5.9,5.9-19,2.4-29.2-7.9l0,0c-10.2-10.2-13.7-23.3-7.9-29.2l22.8-22.8
		l0,0l22.8-22.8c5.9-5.9,18.9-2.4,29.2,7.9c-10.2-10.2-13.7-23.3-7.9-29.2l45.6-45.6c5.9-5.9,18.9-2.4,29.2,7.9l0,0c0,0,0,0,0,0
		c10.2,10.2,13.7,23.3,7.9,29.2l0.5-0.5c2.8-2.8,7.4-3.5,12.4-2.2v-16.3c-6.2-0.4-13.8-4.2-20.3-10.7l0,0
		c-10.2-10.2-13.7-23.3-7.9-29.2l22.8-22.8l0,0l5.3-5.3v0l-5.3,5.3v0l-22.2,22.2c-5.9,5.9-19,2.4-29.2-7.9
		c-10.2-10.2-13.7-23.3-7.9-29.2l22.2-22.2l0,0l23.3-23.3c4-4,11.5-3.6,19,0.3v-9.4c-0.7-3.1-0.8-6,0-8.4v-2
		c-6.5,3.9-18.1,0.2-27.5-9.2c10.2,10.2,13.7,23.3,7.9,29.2l-22.8,22.8l0,0l-22.8,22.8c-5.9,5.9-19,2.4-29.2-7.9l0,0
		c-10.2-10.2-13.7-23.3-7.9-29.2l22.8-22.8l0,0L443.4,94c5.9-5.9,18.9-2.4,29.2,7.9c-10.2-10.2-13.7-23.3-7.9-29.2L500,37.4v0
		l-34.8,34.8c-5.9,5.9-19,2.4-29.2-7.9c10.2,10.2,13.7,23.3,7.9,29.2l-23.3,23.3v0L398.4,139c-5.9,5.9-19,2.4-29.2-7.9
		c-10.2-10.2-13.7-23.3-7.9-29.2l22.2-22.2l0,0l23.3-23.3c5.9-5.9,19-2.4,29.2,7.9c-10.2-10.2-13.7-23.3-7.9-29.2l24.3-24.3
		l-24.8,24.8c-5.9,5.9-19,2.4-29.2-7.9c10.2,10.2,13.7,23.3,7.9,29.2l-22.8,22.8l0,0l-22.8,22.8c-5.9,5.9-19,2.4-29.2-7.9l0,0
		c-10.2-10.2-13.7-23.3-7.9-29.2l22.8-22.8l0,0L369.3,20c5.9-5.9,18.9-2.4,29.2,7.9c-9.5-9.5-13.2-21.4-9-27.8h-1.3
		c-2.9,1.2-6.7,1.2-10.7,0h-8.2c4.1,7.7,4.6,15.3,0.5,19.4l-23.3,23.3v0L324.3,65c-5.9,5.9-19,2.4-29.2-7.9
		c-10.2-10.2-13.7-23.3-7.9-29.2l22.2-22.2l0,0l5.7-5.7h0l-5.7,5.7l0,0l-22.8,22.8c-5.9,5.9-19,2.4-29.2-7.9l0,0
		C250.9,14,247.1,6.3,246.9,0h-16.3c1.4,5.2,0.8,9.9-2.2,12.8l-45.6,45.6c-5.9,5.9-19,2.4-29.2-7.9c10.2,10.2,13.7,23.3,7.9,29.2
		L138.1,103l0,0l-22.2,22.2c-5.9,5.9-19,2.4-29.2-7.9C76.5,107.1,73,94.1,78.9,88.2L101.1,66l0,0l23.3-23.3c5.9-5.9,19-2.4,29.2,7.9
		c-10.2-10.2-13.7-23.3-7.9-29.2L167.1,0h0l-21.3,21.3l-0.6,0.6c-5.9,5.9-19,2.4-29.2-7.9c10.2,10.2,13.7,23.3,7.9,29.2L101.1,66
		l0,0L78.3,88.7c-5.9,5.9-19,2.4-29.2-7.9l0,0c-10.2-10.2-13.7-23.3-7.9-29.2l22.8-22.8l0,0L86.8,6.1c5.9-5.9,18.9-2.4,29.2,7.9
		c-4.4-4.4-7.6-9.3-9.3-14H90.1c-0.3,2.2-1.2,4.1-2.7,5.6L64.1,28.9v0L41.8,51.1c-5.9,5.9-19,2.4-29.2-7.9C2.4,33.1-1.1,20,4.8,14.1
		L18.9,0h0L4.3,14.7c-1.2,1.2-2.6,1.9-4.3,2.4v18.3c4.1,1.8,8.3,4.7,12.1,8.5C22.3,54.1,25.9,67.1,20,73L0,93v0l19.4-19.4
		c5.9-5.9,18.9-2.4,29.2,7.9l0,0c0,0,0,0,0,0c10.2,10.2,13.7,23.3,7.9,29.2L57,110c5.9-5.9,19-2.4,29.2,7.9
		c10.2,10.2,13.7,23.3,7.9,29.2l-45.6,45.6c-5.9,5.9-19,2.4-29.2-7.9C29.5,195,33,208.1,27.2,214L3.8,237.3l0,0L0,241.1v0l3.8-3.8h0
		l22.8-22.8c5.9-5.9,18.9-2.4,29.2,7.9c-10.2-10.2-13.7-23.3-7.9-29.2l45.6-45.6c5.9-5.9,18.9-2.4,29.2,7.9l0,0c0,0,0,0,0,0
		c10.2,10.2,13.7,23.3,7.9,29.2l0.5-0.5c5.9-5.9,19-2.4,29.2,7.9c10.2,10.2,13.7,23.3,7.9,29.2l-45.6,45.6c-5.9,5.9-19,2.4-29.2-7.9
		c10.2,10.2,13.7,23.3,7.9,29.2l-23.3,23.3l0,0l-22.2,22.2c-5.9,5.9-19,2.4-29.2-7.9c-10.2-10.2-13.7-23.3-7.9-29.2l22.2-22.2l0,0
		L64.2,251c5.9-5.9,19-2.4,29.2,7.9c-10.2-10.2-13.7-23.3-7.9-29.2l24.3-24.3l-24.3,24.3l-0.6,0.6c-5.9,5.9-19,2.4-29.2-7.9
		c10.2,10.2,13.7,23.3,7.9,29.2l-22.8,22.8l0,0l-22.8,22.8c-3.9,3.9-10.8,3.7-18.1,0.2v19.1c6.7-2.6,17.3,1.3,25.9,9.9
		c10.2,10.2,13.7,23.3,7.9,29.2L0,389.3v0L33.2,356c5.9-5.9,18.9-2.4,29.2,7.9l0,0c0,0,0,0,0,0c10.2,10.2,13.7,23.3,7.9,29.2
		l0.5-0.5c5.9-5.9,19-2.4,29.2,7.9c10.2,10.2,13.7,23.3,7.9,29.2l-45.6,45.6c-5.9,5.9-19,2.4-29.2-7.9c10.2,10.2,13.7,23.3,7.9,29.2
		l-3.6,3.6h0l3-3c4.8-4.8,14.5-3.3,23.5,3h1.5c-6.9-9.2-8.7-19.4-3.7-24.3l45.6-45.6c5.9-5.9,18.9-2.4,29.2,7.9l0,0c0,0,0,0,0,0
		c10.2,10.2,13.7,23.3,7.9,29.2l0.5-0.5c5.9-5.9,19-2.4,29.2,7.9c8.5,8.5,12.3,18.9,10,25.6h18.8c-3.3-7.1-3.5-13.9,0.3-17.7
		l22.8-22.8l0,0l22.8-22.8c5.9-5.9,18.9-2.4,29.2,7.9c-10.2-10.2-13.7-23.3-7.9-29.2l45.6-45.6c5.9-5.9,18.9-2.4,29.2,7.9l0,0
		c0,0,0,0,0,0c10.2,10.2,13.7,23.3,7.9,29.2l0.5-0.5c5.9-5.9,19-2.4,29.2,7.9c10.2,10.2,13.7,23.3,7.9,29.2l-45.6,45.6
		c-5.9,5.9-19,2.4-29.2-7.9c6,6,9.7,13,10.5,18.9h15.5c-0.7-4.3,0.1-8,2.6-10.5l45.6-45.6c5.9-5.9,18.9-2.4,29.2,7.9l0,0
		c0,0,0,0,0,0c10.2,10.2,13.7,23.3,7.9,29.2l0.5-0.5c5.9-5.9,19-2.4,29.2,7.9c3.7,3.7,6.5,7.8,8.3,11.8H483.4z M226,459.5L226,459.5
		l-22.2,22.2c-5.9,5.9-19,2.4-29.2-7.9c-10.2-10.2-13.7-23.3-7.9-29.2l22.2-22.2l0,0l23.3-23.3c5.9-5.9,19-2.4,29.2,7.9
		c-10.2-10.2-13.7-23.3-7.9-29.2l24.3-24.3l-24.8,24.8c-5.9,5.9-19,2.4-29.2-7.9c10.2,10.2,13.7,23.3,7.9,29.2L189,422.5l0,0
		l-22.8,22.8c-5.9,5.9-19,2.4-29.2-7.9l0,0c-10.2-10.2-13.7-23.3-7.9-29.2l22.8-22.8l0,0l22.8-22.8c5.9-5.9,18.9-2.4,29.2,7.9
		c-10.2-10.2-13.7-23.3-7.9-29.2l45.6-45.6c5.9-5.9,18.9-2.4,29.2,7.9l0,0c0,0,0,0,0,0c10.2,10.2,13.7,23.3,7.9,29.2l0.5-0.5
		c5.9-5.9,19-2.4,29.2,7.9c10.2,10.2,13.7,23.3,7.9,29.2l-45.6,45.6c-5.9,5.9-19,2.4-29.2-7.9c10.2,10.2,13.7,23.3,7.9,29.2
		L226,459.5z M413,198.5l0.5-0.5c5.9-5.9,19-2.4,29.2,7.9c10.2,10.2,13.7,23.3,7.9,29.2L405,280.5c-5.9,5.9-19,2.4-29.2-7.9
		c10.2,10.2,13.7,23.3,7.9,29.2l-23.3,23.3v0l-22.2,22.2c-5.9,5.9-19,2.4-29.2-7.9c-10.2-10.2-13.7-23.3-7.9-29.2l22.2-22.2l0,0
		l23.3-23.3c5.9-5.9,19-2.4,29.2,7.9c-10.2-10.2-13.7-23.3-7.9-29.2l24.3-24.3l-24.8,24.8c-5.9,5.9-19,2.4-29.2-7.9
		c10.2,10.2,13.7,23.3,7.9,29.2l-22.8,22.8l0,0l-22.8,22.8c-5.9,5.9-19,2.4-29.2-7.9l0,0c-10.2-10.2-13.7-23.3-7.9-29.2l22.8-22.8
		l0,0l22.8-22.8c5.9-5.9,18.9-2.4,29.2,7.9c-10.2-10.2-13.7-23.3-7.9-29.2l45.6-45.6c5.9-5.9,18.9-2.4,29.2,7.9l0,0c0,0,0,0,0,0
		C415.3,179.5,418.8,192.6,413,198.5z M338.9,124.4l0.5-0.5c5.9-5.9,19-2.4,29.2,7.9c10.2,10.2,13.7,23.3,7.9,29.2l-45.6,45.6
		c-5.9,5.9-19,2.4-29.2-7.9c10.2,10.2,13.7,23.3,7.9,29.2l-23.3,23.3v0L264,273.3c-5.9,5.9-19,2.4-29.2-7.9
		c-10.2-10.2-13.7-23.3-7.9-29.2l22.2-22.2l0,0l23.3-23.3c5.9-5.9,19-2.4,29.2,7.9c-10.2-10.2-13.7-23.3-7.9-29.2l24.3-24.3
		L293.3,170c-5.9,5.9-19,2.4-29.2-7.9c10.2,10.2,13.7,23.3,7.9,29.2l-22.8,22.8l0,0l-22.8,22.8c-5.9,5.9-19,2.4-29.2-7.9l0,0
		c-10.2-10.2-13.7-23.3-7.9-29.2l22.8-22.8l0,0l22.8-22.8c5.9-5.9,18.9-2.4,29.2,7.9c-10.2-10.2-13.7-23.3-7.9-29.2l45.6-45.6
		c5.9-5.9,18.9-2.4,29.2,7.9l0,0c0,0,0,0,0,0C341.3,105.5,344.8,118.5,338.9,124.4z M257,21.2L257,21.2C257,21.2,257,21.2,257,21.2
		c10.2,10.2,13.7,23.3,7.9,29.2l0.5-0.5c5.9-5.9,19-2.4,29.2,7.9c10.2,10.2,13.7,23.3,7.9,29.2l-45.6,45.6c-5.9,5.9-19,2.4-29.2-7.9
		c10.2,10.2,13.7,23.3,7.9,29.2l-23.3,23.3v0L190,199.3c-5.9,5.9-19,2.4-29.2-7.9c-10.2-10.2-13.7-23.3-7.9-29.2l22.2-22.2l0,0
		l23.3-23.3c5.9-5.9,19-2.4,29.2,7.9c-10.2-10.2-13.7-23.3-7.9-29.2l24.3-24.3l-24.3,24.3l-0.6,0.6c-5.9,5.9-19,2.4-29.2-7.9
		c10.2,10.2,13.7,23.3,7.9,29.2L175.2,140l0,0l-22.8,22.8c-5.9,5.9-19,2.4-29.2-7.9l0,0c-10.2-10.2-13.7-23.3-7.9-29.2l22.8-22.8
		l0,0l22.8-22.8c5.9-5.9,18.9-2.4,29.2,7.9c-10.2-10.2-13.7-23.3-7.9-29.2l45.6-45.6C233.7,7.4,246.7,11,257,21.2z M129.8,296.4
		c-10.2-10.2-13.7-23.3-7.9-29.2l45.6-45.6c5.9-5.9,18.9-2.4,29.2,7.9l0,0c0,0,0,0,0,0c10.2,10.2,13.7,23.3,7.9,29.2l0.5-0.5
		c5.9-5.9,19-2.4,29.2,7.9c10.2,10.2,13.7,23.3,7.9,29.2l-45.6,45.6c-5.9,5.9-19,2.4-29.2-7.9c10.2,10.2,13.7,23.3,7.9,29.2
		L152,385.4v0l-22.2,22.2c-5.9,5.9-19,2.4-29.2-7.9c-10.2-10.2-13.7-23.3-7.9-29.2l22.2-22.2l0,0l23.3-23.3c5.9-5.9,19-2.4,29.2,7.9
		c-10.2-10.2-13.7-23.3-7.9-29.2l24.9-24.9l-24.9,24.9l-0.6,0.6C153.1,310.2,140.1,306.7,129.8,296.4c10.2,10.2,13.7,23.3,7.9,29.2
		l-22.8,22.8l0,0l-22.8,22.8c-5.9,5.9-19,2.4-29.2-7.9l0,0c-10.2-10.2-13.7-23.3-7.9-29.2l22.8-22.8l0,0l22.8-22.8
		C106.6,282.7,119.6,286.2,129.8,296.4z"/>
	<path class="st3" d="M485.7,496.1c-1.1,1.1-1.8,2.4-2.3,3.9H500v-18.2L485.7,496.1z"/>
	<path class="st2" d="M426.8,480.9c5.9-5.9,2.4-18.9-7.9-29.2c0,0,0,0,0,0l0,0c-10.2-10.2-23.3-13.7-29.2-7.9l-45.6,45.6
		c-2.5,2.5-3.3,6.2-2.6,10.5h66.2L426.8,480.9z"/>
	<path class="st3" d="M456.5,488.2c-10.2-10.2-23.3-13.7-29.2-7.9l-0.5,0.5L407.7,500h57.1C463,496,460.2,492,456.5,488.2z"/>
	<path class="st2" d="M3.8,237.3L27.2,214c5.9-5.9,2.4-18.9-7.9-29.2C13.2,178.7,6,175,0,174.2v66.9L3.8,237.3L3.8,237.3z"/>
	<path class="st3" d="M18.1,297.1l22.8-22.8l0,0l22.8-22.8c5.9-5.9,2.4-18.9-7.9-29.2l0,0l0,0c0,0,0,0,0,0
		c-10.2-10.2-23.3-13.7-29.2-7.9L3.8,237.3h0L0,241.1v56.2C7.2,300.8,14.2,301,18.1,297.1z"/>
	<path class="st3" d="M33.8,355.5c5.9-5.9,2.4-18.9-7.9-29.2c-8.6-8.6-19.3-12.5-25.9-9.9v72.9L33.8,355.5z"/>
	<path class="st1" d="M3.9,459.4c5.9-5.9,19-2.4,29.2,7.9C22.9,457,19.4,444,25.3,438.1l24.3-24.3l-24.9,24.9
		c-5.1,5.1-15.4,3.2-24.7-3.9v1.3c6.6,9.1,8.3,19,3.4,23.9L0,463.3v0L3.9,459.4z"/>
	<path class="st3" d="M0,436v27.3l3.4-3.4C8.3,455,6.6,445.1,0,436z"/>
	<path class="st2" d="M41,496.4c5.9-5.9,2.4-18.9-7.9-29.2C22.9,457,9.8,453.5,3.9,459.4L0,463.3V500h37.4L41,496.4z"/>
	<path class="st3" d="M40.4,497l-3,3h26.5C54.9,493.7,45.2,492.1,40.4,497z"/>
	<path class="st2" d="M24.7,438.6l24.9-24.9L70.3,393c5.9-5.9,2.4-18.9-7.9-29.2c0,0,0,0,0,0l0,0c-10.2-10.2-23.3-13.7-29.2-7.9
		L0,389.3v45.4C9.3,441.8,19.6,443.7,24.7,438.6z"/>
	<path class="st3" d="M49.6,413.8l-24.3,24.3c-5.9,5.9-2.4,19,7.9,29.2c10.2,10.2,23.3,13.7,29.2,7.9l45.6-45.6
		c5.9-5.9,2.4-18.9-7.9-29.2c-10.2-10.2-23.3-13.7-29.2-7.9l-0.5,0.5L49.6,413.8z"/>
	<polygon class="st1" points="123.7,487.7 111.5,500 111.5,500 	"/>
	<path class="st2" d="M123.7,487.7l20.6-20.6c5.9-5.9,2.4-18.9-7.9-29.2c0,0,0,0,0,0l0,0c-10.2-10.2-23.3-13.7-29.2-7.9l-45.6,45.6
		c-5,5-3.2,15.1,3.7,24.3h46L123.7,487.7z"/>
	<path class="st3" d="M174.1,474.4c-10.2-10.2-23.3-13.7-29.2-7.9l-0.5,0.5l-20.6,20.6L111.5,500h72.6
		C186.4,493.3,182.5,482.9,174.1,474.4z"/>
</g>
<pattern  id="SVGID_1_" xlink:href="#譁ｰ隕上ヱ繧ｿ繝ｼ繝ｳ繧ｹ繧ｦ繧ｩ繝メ_4" patternTransform="matrix(1.0182 -1.0182 1.0182 1.0182 7866.3203 -7866.5957)">
</pattern>
<rect y="-582.3" class="st4" width="500" height="500"/>
<g>
</g>
<g>
</g>
<g>
</g>
<g>
</g>
<g>
</g>
<g>
</g>
</svg>
