<?xml version="1.0" encoding="utf-8"?>
<!-- Generator: Adobe Illustrator 21.1.0, SVG Export Plug-In . SVG Version: 6.00 Build 0)  -->
<svg version="1.1" id="レイヤー_1" xmlns="http://www.w3.org/2000/svg" xmlns:xlink="http://www.w3.org/1999/xlink" x="0px"
	 y="0px" viewBox="0 0 768.6 216.5" style="enable-background:new 0 0 768.6 216.5;" xml:space="preserve">
<style type="text/css">
	.st0{fill:#E8E8E8;}
	.st1{fill:#EFEFEF;}
	.st2{fill:#F7F8F8;}
	.st3{fill:#BB9361;}
	.st4{fill:#FFFFFF;}
</style>
<g>
	<g>
		<rect x="41.7" y="45" class="st0" width="104.9" height="104.9"/>
	</g>
	<g>
		<rect x="41.7" y="43.5" class="st1" width="104.9" height="104.9"/>
	</g>
	<g>
		<rect x="41.7" y="42.1" class="st2" width="104.9" height="104.9"/>
	</g>
	<g>
		<rect x="41.7" y="30.8" class="st3" width="104.9" height="14.2"/>
	</g>
	<g>
		<path d="M86.4,51v13.2h-2V54.2L82,55.7l-0.3-1.9L86.4,51z"/>
		<path d="M93.4,51v13.2h-2V54.2l-2.5,1.4l-0.3-1.9L93.4,51z"/>
		<path d="M104.1,62.7h0.8c1.8,0,2,0,2-1v-1.6h-7.3c-0.3,1.8-0.8,3.7-1.6,5l-2.1-1.4c1.3-1.9,1.8-4.5,1.8-8.2v-5.2H109v11
			c0,3.1-0.2,3.5-4,3.5L104.1,62.7z M106.8,56.2h-7.1v0.6c0,0.4,0,0.9-0.1,1.3h7.2V56.2z M106.8,52.4h-7.1v1.8h7.1V52.4z"/>
		<path d="M116.2,117h-6.9v12.8H101V117H72.1l37.2-48.6v41h6.9V117z M101,109.5V91.9l-13.3,17.6H101z"/>
		<path d="M84.9,147c-0.6-0.2-1.1-0.4-1.6-0.7l0.3-1.9c0.5,0.3,1,0.6,1.5,0.8c0.5,0.2,0.9,0.3,1.4,0.3s0.8-0.1,1.1-0.3
			c0.3-0.2,0.4-0.5,0.4-0.9c0-0.3-0.1-0.6-0.3-0.8s-0.6-0.4-1.2-0.6l-0.4-0.1c-0.8-0.3-1.4-0.7-1.8-1.2s-0.6-1.2-0.6-1.9
			c0-0.6,0.1-1.1,0.4-1.5c0.3-0.5,0.7-0.8,1.2-1.1s1.1-0.4,1.8-0.4c0.5,0,0.9,0.1,1.4,0.2c0.5,0.1,1,0.3,1.5,0.6l-0.3,1.9
			c-0.4-0.3-0.9-0.5-1.3-0.6c-0.5-0.1-0.8-0.2-1.2-0.2c-0.4,0-0.7,0.1-1,0.3c-0.2,0.2-0.3,0.5-0.3,0.8c0,0.3,0.1,0.5,0.3,0.7
			c0.2,0.2,0.6,0.4,1.1,0.6l0.5,0.2c0.9,0.3,1.6,0.7,2,1.2c0.5,0.5,0.7,1.2,0.7,2c0,0.6-0.1,1.2-0.4,1.7c-0.3,0.5-0.7,0.9-1.3,1.1
			s-1.2,0.4-1.9,0.4C86,147.2,85.4,147.1,84.9,147z"/>
		<path d="M98.4,147l-0.1-0.7c-0.4,0.3-0.7,0.5-1.2,0.7c-0.4,0.2-0.9,0.2-1.4,0.2c-0.7,0-1.4-0.2-1.9-0.5c-0.6-0.3-1.1-0.8-1.4-1.3
			c-0.3-0.6-0.5-1.2-0.5-1.9s0.2-1.3,0.5-1.9c0.3-0.6,0.8-1,1.4-1.3c0.6-0.3,1.3-0.5,2-0.5c0.9,0,1.7,0.3,2.4,0.9v-0.5
			c0-0.6-0.2-1.1-0.5-1.4c-0.3-0.3-0.9-0.5-1.7-0.5c-0.8,0-1.6,0.2-2.5,0.5l0.3-1.9c0.8-0.2,1.7-0.4,2.5-0.4c1.3,0,2.4,0.3,3.1,0.9
			c0.7,0.6,1,1.5,1,2.6v5.1l0.1,1.9H98.4z M97.3,145.2c0.3-0.2,0.6-0.4,0.8-0.7c0.2-0.3,0.3-0.6,0.3-1c0-0.4-0.1-0.7-0.3-1
			c-0.2-0.3-0.4-0.5-0.8-0.7c-0.3-0.2-0.7-0.3-1.1-0.3s-0.7,0.1-1.1,0.3s-0.6,0.4-0.8,0.7c-0.2,0.3-0.3,0.6-0.3,1
			c0,0.4,0.1,0.7,0.3,1c0.2,0.3,0.4,0.5,0.8,0.7c0.3,0.2,0.7,0.3,1.1,0.3C96.6,145.5,96.9,145.4,97.3,145.2z"/>
		<path d="M106.1,138.7v4.9c0,0.5,0.1,0.8,0.4,1.1c0.3,0.3,0.6,0.4,1,0.4c0.2,0,0.5,0,0.7-0.1s0.5-0.1,0.7-0.2v2
			c-0.2,0.1-0.5,0.2-0.8,0.2c-0.3,0.1-0.7,0.1-1,0.1c-1,0-1.9-0.3-2.4-0.9c-0.6-0.6-0.9-1.4-0.9-2.5v-5.1h-1.6l0.3-2h1.2v-2.1
			l2.3-1.3v3.4h2.8v2H106.1z"/>
	</g>
</g>
<g>
	<g>
		<rect x="151.2" y="45" class="st0" width="104.9" height="104.9"/>
	</g>
	<g>
		<rect x="151.2" y="43.5" class="st1" width="104.9" height="104.9"/>
	</g>
	<g>
		<rect x="151.2" y="42.1" class="st2" width="104.9" height="104.9"/>
	</g>
	<g>
		<rect x="151.2" y="30.8" class="st3" width="104.9" height="14.2"/>
	</g>
	<g>
		<path d="M194.1,51v13.2h-2V54.2l-2.5,1.4l-0.3-1.9L194.1,51z"/>
		<path d="M201.1,51v13.2h-2V54.2l-2.5,1.4l-0.3-1.9L201.1,51z"/>
		<path d="M211.7,62.7h0.8c1.8,0,2,0,2-1v-1.6h-7.3c-0.3,1.8-0.8,3.7-1.6,5l-2.1-1.4c1.3-1.9,1.8-4.5,1.8-8.2v-5.2h11.5v11
			c0,3.1-0.2,3.5-4,3.5L211.7,62.7z M214.5,56.2h-7.1v0.6c0,0.4,0,0.9-0.1,1.3h7.2V56.2z M214.5,52.4h-7.1v1.8h7.1V52.4z"/>
		<path d="M212.3,95.2c2.9,1.7,5.2,4,6.9,6.8c1.7,2.9,2.5,6.1,2.5,9.6c0,3.5-0.9,6.7-2.6,9.6s-4.2,5.2-7.3,6.9
			c-3.1,1.7-6.7,2.6-10.6,2.6c-3,0-5.8-0.5-8.4-1.4c-2.7-0.9-5.1-2.1-7.2-3.7l2.2-8.1c1.8,1.5,3.9,2.7,6.2,3.7s4.6,1.5,7,1.5
			c2.3,0,4.4-0.5,6.2-1.5c1.8-1,3.2-2.4,4.2-4.1c1-1.7,1.5-3.7,1.5-5.8c0-2-0.5-3.9-1.5-5.6c-1-1.7-2.4-3.1-4.3-4.1s-4-1.5-6.4-1.5
			c-2.1,0-4.3,0.4-6.5,1.2c-2.2,0.8-4.4,1.8-6.6,3.2l1.7-32.6h30.3l-1.4,8h-20.9l-1,13.9c2-0.8,4.2-1.2,6.5-1.2
			C206.2,92.6,209.4,93.5,212.3,95.2z"/>
		<path d="M189.5,147c-0.6-0.2-1.1-0.4-1.6-0.7l0.3-1.9c0.5,0.3,1,0.6,1.5,0.8c0.5,0.2,0.9,0.3,1.4,0.3s0.8-0.1,1.1-0.3
			c0.3-0.2,0.4-0.5,0.4-0.9c0-0.3-0.1-0.6-0.3-0.8s-0.6-0.4-1.2-0.6l-0.4-0.1c-0.8-0.3-1.4-0.7-1.8-1.2s-0.6-1.2-0.6-1.9
			c0-0.6,0.1-1.1,0.4-1.5c0.3-0.5,0.7-0.8,1.2-1.1s1.1-0.4,1.8-0.4c0.5,0,0.9,0.1,1.4,0.2c0.5,0.1,1,0.3,1.5,0.6L194,139
			c-0.4-0.3-0.9-0.5-1.3-0.6c-0.5-0.1-0.8-0.2-1.2-0.2c-0.4,0-0.7,0.1-1,0.3c-0.2,0.2-0.3,0.5-0.3,0.8c0,0.3,0.1,0.5,0.3,0.7
			c0.2,0.2,0.6,0.4,1.1,0.6l0.5,0.2c0.9,0.3,1.6,0.7,2,1.2c0.5,0.5,0.7,1.2,0.7,2c0,0.6-0.1,1.2-0.4,1.7c-0.3,0.5-0.7,0.9-1.3,1.1
			s-1.2,0.4-1.9,0.4C190.6,147.2,190.1,147.1,189.5,147z"/>
		<path d="M206.4,136.5V147h-2.2v-1.2c-0.4,0.4-0.8,0.8-1.4,1c-0.5,0.2-1.1,0.4-1.8,0.4c-0.8,0-1.5-0.2-2.1-0.5
			c-0.6-0.3-1.1-0.8-1.4-1.5c-0.3-0.6-0.5-1.4-0.5-2.3v-6.1l2.3-0.3v6.2c0,0.8,0.2,1.4,0.6,1.8c0.4,0.4,0.9,0.7,1.6,0.7
			c0.5,0,0.9-0.1,1.3-0.3c0.4-0.2,0.7-0.5,0.9-0.9c0.2-0.4,0.3-0.9,0.3-1.4v-5.7L206.4,136.5z"/>
		<path d="M217.1,136.9c0.6,0.3,1.1,0.8,1.4,1.5s0.5,1.4,0.5,2.3v6.3h-2.3v-6c0-0.8-0.2-1.4-0.6-1.9s-1-0.7-1.6-0.7
			c-0.5,0-0.9,0.1-1.3,0.3c-0.4,0.2-0.7,0.5-0.9,0.9c-0.2,0.4-0.3,0.9-0.3,1.4v5.8h-2.3v-10.1l2.2-0.3v1.3c0.4-0.4,0.8-0.8,1.4-1
			c0.5-0.2,1.1-0.4,1.8-0.4C215.8,136.4,216.5,136.6,217.1,136.9z"/>
	</g>
</g>
<g>
	<g>
		<rect x="278.7" y="45" class="st0" width="104.9" height="104.9"/>
	</g>
	<g>
		<rect x="278.7" y="43.5" class="st1" width="104.9" height="104.9"/>
	</g>
	<g>
		<rect x="278.7" y="42.1" class="st2" width="104.9" height="104.9"/>
	</g>
	<g>
		<rect x="278.7" y="30.8" class="st3" width="104.9" height="14.2"/>
	</g>
	<g>
		<path d="M319.9,51v13.2h-2V54.2l-2.5,1.4l-0.3-1.9L319.9,51z"/>
		<path d="M326,62.5h4.5l-0.3,1.8h-8l4.4-5.3c0.7-0.9,1.2-1.6,1.5-2.2c0.3-0.6,0.5-1.1,0.5-1.6c0-0.4-0.1-0.8-0.3-1.1
			c-0.2-0.3-0.5-0.6-0.8-0.8c-0.3-0.2-0.7-0.3-1.1-0.3c-0.4,0-0.8,0.1-1.1,0.3c-0.3,0.2-0.6,0.5-0.8,0.8c-0.2,0.3-0.3,0.7-0.3,1.1
			c0,0.3,0,0.5,0.1,0.7s0.2,0.5,0.3,0.7l-1.9,0.3c-0.3-0.6-0.4-1.2-0.4-1.8c0-0.7,0.2-1.4,0.5-2c0.4-0.6,0.9-1.1,1.5-1.4
			s1.3-0.5,2.1-0.5s1.5,0.2,2.1,0.5c0.6,0.3,1.1,0.8,1.5,1.4c0.4,0.6,0.6,1.3,0.6,2.1c0,0.5-0.1,0.9-0.2,1.4c-0.2,0.5-0.4,1-0.8,1.5
			c-0.4,0.6-0.9,1.2-1.5,1.9L326,62.5z"/>
		<path d="M340.9,62.7h0.8c1.8,0,2,0,2-1v-1.6h-7.3c-0.3,1.8-0.8,3.7-1.6,5l-2.1-1.4c1.3-1.9,1.8-4.5,1.8-8.2v-5.2h11.5v11
			c0,3.1-0.2,3.5-4,3.5L340.9,62.7z M343.6,56.2h-7.1v0.6c0,0.4,0,0.9-0.1,1.3h7.2V56.2z M343.6,52.4h-7.1v1.8h7.1V52.4z"/>
		<path d="M341.5,73.7c3.1,1.8,5.5,4.4,7.2,7.6c1.7,3.2,2.6,6.8,2.6,10.8c0,5-1.3,10-3.8,15c-2.5,5-6,9.6-10.3,13.9
			c-4.3,4.3-9.1,7.8-14.2,10.5l-5.1-6.7c10-5.5,17.1-11.7,21.2-18.6c-3,2-6.4,3.1-10,3.1c-3.4,0-6.4-0.8-9.2-2.5
			c-2.8-1.7-4.9-3.9-6.5-6.8s-2.4-6-2.4-9.5c0-3.6,0.9-6.9,2.7-9.9c1.8-3,4.2-5.3,7.3-7.1c3.1-1.7,6.5-2.6,10.2-2.6
			C335,70.9,338.4,71.8,341.5,73.7z M321.3,96.2c1,1.7,2.4,3.1,4.1,4.1s3.6,1.5,5.7,1.5c2.1,0,4-0.5,5.8-1.5c1.8-1,3.1-2.4,4.1-4.1
			c1-1.7,1.5-3.6,1.5-5.7c0-2.1-0.5-4-1.5-5.8c-1-1.8-2.4-3.2-4.1-4.2c-1.8-1-3.7-1.5-5.8-1.5c-2,0-3.9,0.5-5.7,1.5
			s-3.1,2.4-4.1,4.2c-1,1.8-1.5,3.7-1.5,5.8C319.8,92.6,320.3,94.5,321.3,96.2z"/>
		<path d="M320,147c-0.6-0.2-1.1-0.4-1.6-0.7l0.3-1.9c0.5,0.3,1,0.6,1.5,0.8s0.9,0.3,1.4,0.3s0.8-0.1,1.1-0.3
			c0.3-0.2,0.4-0.5,0.4-0.9c0-0.3-0.1-0.6-0.3-0.8c-0.2-0.2-0.6-0.4-1.2-0.6l-0.4-0.1c-0.8-0.3-1.4-0.7-1.8-1.2
			c-0.4-0.5-0.6-1.2-0.6-1.9c0-0.6,0.1-1.1,0.4-1.5c0.3-0.5,0.7-0.8,1.2-1.1s1.1-0.4,1.8-0.4c0.5,0,0.9,0.1,1.4,0.2
			c0.5,0.1,1,0.3,1.5,0.6l-0.3,1.9c-0.4-0.3-0.9-0.5-1.3-0.6c-0.5-0.1-0.8-0.2-1.2-0.2c-0.4,0-0.7,0.1-1,0.3
			c-0.2,0.2-0.3,0.5-0.3,0.8c0,0.3,0.1,0.5,0.3,0.7c0.2,0.2,0.6,0.4,1.1,0.6l0.5,0.2c0.9,0.3,1.6,0.7,2,1.2c0.5,0.5,0.7,1.2,0.7,2
			c0,0.6-0.1,1.2-0.4,1.7s-0.7,0.9-1.3,1.1c-0.5,0.3-1.2,0.4-1.9,0.4C321.2,147.2,320.6,147.1,320,147z"/>
		<path d="M333.5,147l-0.1-0.7c-0.4,0.3-0.7,0.5-1.2,0.7c-0.4,0.2-0.9,0.2-1.4,0.2c-0.7,0-1.4-0.2-1.9-0.5c-0.6-0.3-1.1-0.8-1.4-1.3
			c-0.3-0.6-0.5-1.2-0.5-1.9s0.2-1.3,0.5-1.9c0.3-0.6,0.8-1,1.4-1.3c0.6-0.3,1.3-0.5,2-0.5c0.9,0,1.7,0.3,2.4,0.9v-0.5
			c0-0.6-0.2-1.1-0.5-1.4c-0.3-0.3-0.9-0.5-1.7-0.5c-0.8,0-1.6,0.2-2.5,0.5l0.3-1.9c0.8-0.2,1.7-0.4,2.5-0.4c1.3,0,2.4,0.3,3.1,0.9
			c0.7,0.6,1,1.5,1,2.6v5.1l0.1,1.9H333.5z M332.4,145.2c0.3-0.2,0.6-0.4,0.8-0.7c0.2-0.3,0.3-0.6,0.3-1c0-0.4-0.1-0.7-0.3-1
			c-0.2-0.3-0.4-0.5-0.8-0.7c-0.3-0.2-0.7-0.3-1.1-0.3c-0.4,0-0.7,0.1-1.1,0.3c-0.3,0.2-0.6,0.4-0.8,0.7c-0.2,0.3-0.3,0.6-0.3,1
			c0,0.4,0.1,0.7,0.3,1c0.2,0.3,0.4,0.5,0.8,0.7c0.3,0.2,0.7,0.3,1.1,0.3C331.7,145.5,332.1,145.4,332.4,145.2z"/>
		<path d="M341.3,138.7v4.9c0,0.5,0.1,0.8,0.4,1.1c0.3,0.3,0.6,0.4,1,0.4c0.2,0,0.5,0,0.7-0.1s0.5-0.1,0.7-0.2v2
			c-0.2,0.1-0.5,0.2-0.8,0.2c-0.3,0.1-0.7,0.1-1,0.1c-1,0-1.9-0.3-2.4-0.9c-0.6-0.6-0.9-1.4-0.9-2.5v-5.1h-1.6l0.3-2h1.2v-2.1
			l2.3-1.3v3.4h2.8v2H341.3z"/>
	</g>
</g>
<g>
	<g>
		<rect x="385.7" y="45" class="st0" width="104.9" height="104.9"/>
	</g>
	<g>
		<rect x="385.7" y="43.5" class="st1" width="104.9" height="104.9"/>
	</g>
	<g>
		<rect x="385.7" y="42.1" class="st2" width="104.9" height="104.9"/>
	</g>
	<g>
		<rect x="385.7" y="30.8" class="st3" width="104.9" height="14.2"/>
	</g>
	<g>
		<path d="M427.6,51v13.2h-2V54.2l-2.5,1.4l-0.3-1.9L427.6,51z"/>
		<path d="M433.7,62.5h4.5l-0.3,1.8h-8l4.4-5.3c0.7-0.9,1.2-1.6,1.5-2.2c0.3-0.6,0.5-1.1,0.5-1.6c0-0.4-0.1-0.8-0.3-1.1
			c-0.2-0.3-0.5-0.6-0.8-0.8c-0.3-0.2-0.7-0.3-1.1-0.3c-0.4,0-0.8,0.1-1.1,0.3c-0.3,0.2-0.6,0.5-0.8,0.8c-0.2,0.3-0.3,0.7-0.3,1.1
			c0,0.3,0,0.5,0.1,0.7c0.1,0.2,0.2,0.5,0.3,0.7l-1.9,0.3c-0.3-0.6-0.4-1.2-0.4-1.8c0-0.7,0.2-1.4,0.5-2c0.4-0.6,0.9-1.1,1.5-1.4
			c0.6-0.4,1.3-0.5,2.1-0.5c0.8,0,1.5,0.2,2.1,0.5c0.6,0.3,1.1,0.8,1.5,1.4c0.4,0.6,0.6,1.3,0.6,2.1c0,0.5-0.1,0.9-0.2,1.4
			c-0.2,0.5-0.4,1-0.8,1.5c-0.4,0.6-0.9,1.2-1.5,1.9L433.7,62.5z"/>
		<path d="M448.5,62.7h0.8c1.8,0,2,0,2-1v-1.6h-7.3c-0.3,1.8-0.8,3.7-1.6,5l-2.1-1.4c1.3-1.9,1.8-4.5,1.8-8.2v-5.2h11.5v11
			c0,3.1-0.2,3.5-4,3.5L448.5,62.7z M451.3,56.2h-7.1v0.6c0,0.4,0,0.9-0.1,1.3h7.2V56.2z M451.3,52.4h-7.1v1.8h7.1V52.4z"/>
		<path d="M422.7,70.2v59.6h-8.9V84.5L402.7,91l-1.5-8.5L422.7,70.2z"/>
		<path d="M441.3,126.8c-3.3-2.6-5.9-6.2-7.6-10.8c-1.8-4.6-2.6-9.6-2.6-15.2s0.9-10.6,2.6-15.2c1.8-4.6,4.3-8.1,7.6-10.8
			c3.3-2.6,7.2-3.9,11.8-3.9c4.5,0,8.4,1.3,11.7,3.9c3.3,2.6,5.9,6.2,7.6,10.8c1.8,4.6,2.6,9.6,2.6,15.2s-0.9,10.6-2.6,15.2
			c-1.8,4.6-4.3,8.1-7.6,10.8c-3.3,2.6-7.2,3.9-11.7,3.9C448.5,130.7,444.6,129.4,441.3,126.8z M460.2,119.5c1.9-2,3.4-4.6,4.3-7.8
			c0.9-3.3,1.4-6.9,1.4-10.9c0-4-0.5-7.6-1.4-10.9c-0.9-3.3-2.4-5.9-4.3-7.8c-1.9-2-4.3-2.9-7.1-2.9c-2.9,0-5.3,1-7.2,2.9
			c-1.9,2-3.4,4.6-4.3,7.8c-0.9,3.3-1.4,6.9-1.4,10.9c0,4,0.5,7.6,1.4,10.9c0.9,3.3,2.4,5.9,4.3,7.8c1.9,2,4.3,2.9,7.2,2.9
			C455.9,122.5,458.2,121.5,460.2,119.5z"/>
		<path d="M424.6,147c-0.6-0.2-1.1-0.4-1.6-0.7l0.3-1.9c0.5,0.3,1,0.6,1.5,0.8s0.9,0.3,1.4,0.3s0.8-0.1,1.1-0.3
			c0.3-0.2,0.4-0.5,0.4-0.9c0-0.3-0.1-0.6-0.3-0.8c-0.2-0.2-0.6-0.4-1.2-0.6l-0.4-0.1c-0.8-0.3-1.4-0.7-1.8-1.2
			c-0.4-0.5-0.6-1.2-0.6-1.9c0-0.6,0.1-1.1,0.4-1.5c0.3-0.5,0.7-0.8,1.2-1.1s1.1-0.4,1.8-0.4c0.5,0,0.9,0.1,1.4,0.2
			c0.5,0.1,1,0.3,1.5,0.6l-0.3,1.9c-0.4-0.3-0.9-0.5-1.3-0.6c-0.5-0.1-0.8-0.2-1.2-0.2c-0.4,0-0.7,0.1-1,0.3
			c-0.2,0.2-0.3,0.5-0.3,0.8c0,0.3,0.1,0.5,0.3,0.7c0.2,0.2,0.6,0.4,1.1,0.6l0.5,0.2c0.9,0.3,1.6,0.7,2,1.2c0.5,0.5,0.7,1.2,0.7,2
			c0,0.6-0.1,1.2-0.4,1.7s-0.7,0.9-1.3,1.1c-0.5,0.3-1.2,0.4-1.9,0.4C425.7,147.2,425.2,147.1,424.6,147z"/>
		<path d="M441.6,136.5V147h-2.2v-1.2c-0.4,0.4-0.8,0.8-1.4,1s-1.1,0.4-1.8,0.4c-0.8,0-1.5-0.2-2.1-0.5c-0.6-0.3-1.1-0.8-1.4-1.5
			c-0.3-0.6-0.5-1.4-0.5-2.3v-6.1l2.3-0.3v6.2c0,0.8,0.2,1.4,0.6,1.8c0.4,0.4,0.9,0.7,1.6,0.7c0.5,0,0.9-0.1,1.3-0.3
			c0.4-0.2,0.7-0.5,0.9-0.9s0.3-0.9,0.3-1.4v-5.7L441.6,136.5z"/>
		<path d="M452.2,136.9c0.6,0.3,1.1,0.8,1.4,1.5c0.3,0.6,0.5,1.4,0.5,2.3v6.3h-2.3v-6c0-0.8-0.2-1.4-0.6-1.9s-1-0.7-1.6-0.7
			c-0.5,0-0.9,0.1-1.3,0.3c-0.4,0.2-0.7,0.5-0.9,0.9c-0.2,0.4-0.3,0.9-0.3,1.4v5.8h-2.3v-10.1l2.2-0.3v1.3c0.4-0.4,0.8-0.8,1.4-1
			c0.5-0.2,1.1-0.4,1.8-0.4C450.9,136.4,451.6,136.6,452.2,136.9z"/>
	</g>
</g>
<g>
	<g>
		<rect x="512" y="45" class="st0" width="104.9" height="104.9"/>
	</g>
	<g>
		<rect x="512" y="43.5" class="st1" width="104.9" height="104.9"/>
	</g>
	<g>
		<rect x="512" y="42.1" class="st2" width="104.9" height="104.9"/>
	</g>
	<g>
		<rect x="512" y="30.8" class="st3" width="104.9" height="14.2"/>
	</g>
	<g>
		<path d="M560.4,56.9c0.5,0.4,0.9,0.8,1.2,1.4c0.3,0.6,0.5,1.2,0.5,1.9c0,0.8-0.2,1.5-0.6,2.2c-0.4,0.7-0.9,1.2-1.6,1.5
			c-0.7,0.4-1.5,0.6-2.3,0.6c-0.7,0-1.4-0.1-2-0.4c-0.6-0.3-1.2-0.7-1.7-1.3l0.9-1.6c0.4,0.5,0.8,0.8,1.3,1.1c0.5,0.3,1,0.4,1.6,0.4
			c0.5,0,0.9-0.1,1.3-0.3c0.4-0.2,0.7-0.5,0.9-0.9c0.2-0.4,0.3-0.8,0.3-1.3c0-0.5-0.1-0.9-0.3-1.3c-0.2-0.4-0.6-0.7-1-0.9
			c-0.4-0.2-0.9-0.3-1.5-0.3c-0.5,0-1,0.1-1.6,0.2l2.9-4.7h-4.5l0.3-1.8h7.5l-3.3,4.9C559.3,56.3,559.9,56.5,560.4,56.9z"/>
		<path d="M572.3,62.7h0.8c1.8,0,2,0,2-1v-1.6h-7.3c-0.3,1.8-0.8,3.7-1.6,5l-2.1-1.4c1.3-1.9,1.8-4.5,1.8-8.2v-5.2h11.5v11
			c0,3.1-0.2,3.5-4,3.5L572.3,62.7z M575,56.2h-7.1v0.6c0,0.4,0,0.9-0.1,1.3h7.2V56.2z M575,52.4h-7.1v1.8h7.1V52.4z"/>
		<path d="M586.4,117h-6.9v12.8h-8.4V117h-28.8l37.2-48.6v41h6.9V117z M571.2,109.5V91.9l-13.3,17.6H571.2z"/>
		<path d="M555.1,147c-0.6-0.2-1.1-0.4-1.6-0.7l0.3-1.9c0.5,0.3,1,0.6,1.5,0.8s0.9,0.3,1.4,0.3s0.8-0.1,1.1-0.3
			c0.3-0.2,0.4-0.5,0.4-0.9c0-0.3-0.1-0.6-0.3-0.8c-0.2-0.2-0.6-0.4-1.2-0.6l-0.4-0.1c-0.8-0.3-1.4-0.7-1.8-1.2
			c-0.4-0.5-0.6-1.2-0.6-1.9c0-0.6,0.1-1.1,0.4-1.5c0.3-0.5,0.7-0.8,1.2-1.1s1.1-0.4,1.8-0.4c0.5,0,0.9,0.1,1.4,0.2
			c0.5,0.1,1,0.3,1.5,0.6l-0.3,1.9c-0.4-0.3-0.9-0.5-1.3-0.6c-0.5-0.1-0.8-0.2-1.2-0.2c-0.4,0-0.7,0.1-1,0.3
			c-0.2,0.2-0.3,0.5-0.3,0.8c0,0.3,0.1,0.5,0.3,0.7c0.2,0.2,0.6,0.4,1.1,0.6l0.5,0.2c0.9,0.3,1.6,0.7,2,1.2c0.5,0.5,0.7,1.2,0.7,2
			c0,0.6-0.1,1.2-0.4,1.7s-0.7,0.9-1.3,1.1c-0.5,0.3-1.2,0.4-1.9,0.4C556.2,147.2,555.7,147.1,555.1,147z"/>
		<path d="M568.6,147l-0.1-0.7c-0.4,0.3-0.7,0.5-1.2,0.7c-0.4,0.2-0.9,0.2-1.4,0.2c-0.7,0-1.4-0.2-1.9-0.5c-0.6-0.3-1.1-0.8-1.4-1.3
			c-0.3-0.6-0.5-1.2-0.5-1.9s0.2-1.3,0.5-1.9c0.3-0.6,0.8-1,1.4-1.3c0.6-0.3,1.3-0.5,2-0.5c0.9,0,1.7,0.3,2.4,0.9v-0.5
			c0-0.6-0.2-1.1-0.5-1.4c-0.3-0.3-0.9-0.5-1.7-0.5c-0.8,0-1.6,0.2-2.5,0.5l0.3-1.9c0.8-0.2,1.7-0.4,2.5-0.4c1.3,0,2.4,0.3,3.1,0.9
			c0.7,0.6,1,1.5,1,2.6v5.1l0.1,1.9H568.6z M567.5,145.2c0.3-0.2,0.6-0.4,0.8-0.7c0.2-0.3,0.3-0.6,0.3-1c0-0.4-0.1-0.7-0.3-1
			c-0.2-0.3-0.4-0.5-0.8-0.7c-0.3-0.2-0.7-0.3-1.1-0.3c-0.4,0-0.7,0.1-1.1,0.3c-0.3,0.2-0.6,0.4-0.8,0.7c-0.2,0.3-0.3,0.6-0.3,1
			c0,0.4,0.1,0.7,0.3,1c0.2,0.3,0.4,0.5,0.8,0.7c0.3,0.2,0.7,0.3,1.1,0.3C566.8,145.5,567.2,145.4,567.5,145.2z"/>
		<path d="M576.3,138.7v4.9c0,0.5,0.1,0.8,0.4,1.1c0.3,0.3,0.6,0.4,1,0.4c0.2,0,0.5,0,0.7-0.1s0.5-0.1,0.7-0.2v2
			c-0.2,0.1-0.5,0.2-0.8,0.2c-0.3,0.1-0.7,0.1-1,0.1c-1,0-1.9-0.3-2.4-0.9c-0.6-0.6-0.9-1.4-0.9-2.5v-5.1h-1.6l0.3-2h1.2v-2.1
			l2.3-1.3v3.4h2.8v2H576.3z"/>
	</g>
</g>
<g>
	<g>
		<rect x="621.4" y="45" class="st0" width="104.9" height="104.9"/>
	</g>
	<g>
		<rect x="621.4" y="43.5" class="st1" width="104.9" height="104.9"/>
	</g>
	<g>
		<rect x="621.4" y="42.1" class="st2" width="104.9" height="104.9"/>
	</g>
	<g>
		<rect x="621.4" y="30.8" class="st3" width="104.9" height="14.2"/>
	</g>
	<g>
		<path d="M668.2,56.9c0.5,0.4,0.9,0.8,1.2,1.4c0.3,0.6,0.5,1.2,0.5,1.9c0,0.8-0.2,1.5-0.6,2.2c-0.4,0.7-0.9,1.2-1.6,1.5
			c-0.7,0.4-1.5,0.6-2.3,0.6c-0.7,0-1.4-0.1-2-0.4c-0.6-0.3-1.2-0.7-1.7-1.3l0.9-1.6c0.4,0.5,0.8,0.8,1.3,1.1c0.5,0.3,1,0.4,1.6,0.4
			c0.5,0,0.9-0.1,1.3-0.3c0.4-0.2,0.7-0.5,0.9-0.9c0.2-0.4,0.3-0.8,0.3-1.3c0-0.5-0.1-0.9-0.3-1.3c-0.2-0.4-0.6-0.7-1-0.9
			c-0.4-0.2-0.9-0.3-1.5-0.3c-0.5,0-1,0.1-1.6,0.2l2.9-4.7H662l0.3-1.8h7.5l-3.3,4.9C667.1,56.3,667.6,56.5,668.2,56.9z"/>
		<path d="M680,62.7h0.8c1.8,0,2,0,2-1v-1.6h-7.3c-0.3,1.8-0.8,3.7-1.6,5l-2.1-1.4c1.3-1.9,1.8-4.5,1.8-8.2v-5.2h11.5v11
			c0,3.1-0.2,3.5-4,3.5L680,62.7z M682.7,56.2h-7.1v0.6c0,0.4,0,0.9-0.1,1.3h7.2V56.2z M682.7,52.4h-7.1v1.8h7.1V52.4z"/>
		<path d="M682.6,95.2c2.9,1.7,5.2,4,6.9,6.8c1.7,2.9,2.5,6.1,2.5,9.6c0,3.5-0.9,6.7-2.6,9.6s-4.2,5.2-7.3,6.9
			c-3.1,1.7-6.7,2.6-10.6,2.6c-3,0-5.8-0.5-8.4-1.4c-2.7-0.9-5.1-2.1-7.2-3.7l2.2-8.1c1.8,1.5,3.9,2.7,6.2,3.7c2.3,1,4.6,1.5,7,1.5
			c2.3,0,4.4-0.5,6.2-1.5c1.8-1,3.2-2.4,4.2-4.1c1-1.7,1.5-3.7,1.5-5.8c0-2-0.5-3.9-1.5-5.6c-1-1.7-2.4-3.1-4.3-4.1s-4-1.5-6.4-1.5
			c-2.1,0-4.3,0.4-6.5,1.2c-2.2,0.8-4.4,1.8-6.6,3.2l1.7-32.6h30.3l-1.4,8h-20.9l-1,13.9c2-0.8,4.2-1.2,6.5-1.2
			C676.4,92.6,679.7,93.5,682.6,95.2z"/>
		<path d="M659.8,147c-0.6-0.2-1.1-0.4-1.6-0.7l0.3-1.9c0.5,0.3,1,0.6,1.5,0.8s0.9,0.3,1.4,0.3s0.8-0.1,1.1-0.3
			c0.3-0.2,0.4-0.5,0.4-0.9c0-0.3-0.1-0.6-0.3-0.8c-0.2-0.2-0.6-0.4-1.2-0.6l-0.4-0.1c-0.8-0.3-1.4-0.7-1.8-1.2
			c-0.4-0.5-0.6-1.2-0.6-1.9c0-0.6,0.1-1.1,0.4-1.5c0.3-0.5,0.7-0.8,1.2-1.1s1.1-0.4,1.8-0.4c0.5,0,0.9,0.1,1.4,0.2
			c0.5,0.1,1,0.3,1.5,0.6l-0.3,1.9c-0.4-0.3-0.9-0.5-1.3-0.6c-0.5-0.1-0.8-0.2-1.2-0.2c-0.4,0-0.7,0.1-1,0.3
			c-0.2,0.2-0.3,0.5-0.3,0.8c0,0.3,0.1,0.5,0.3,0.7c0.2,0.2,0.6,0.4,1.1,0.6l0.5,0.2c0.9,0.3,1.6,0.7,2,1.2c0.5,0.5,0.7,1.2,0.7,2
			c0,0.6-0.1,1.2-0.4,1.7s-0.7,0.9-1.3,1.1c-0.5,0.3-1.2,0.4-1.9,0.4C660.9,147.2,660.3,147.1,659.8,147z"/>
		<path d="M676.7,136.5V147h-2.2v-1.2c-0.4,0.4-0.8,0.8-1.4,1s-1.1,0.4-1.8,0.4c-0.8,0-1.5-0.2-2.1-0.5c-0.6-0.3-1.1-0.8-1.4-1.5
			c-0.3-0.6-0.5-1.4-0.5-2.3v-6.1l2.3-0.3v6.2c0,0.8,0.2,1.4,0.6,1.8c0.4,0.4,0.9,0.7,1.6,0.7c0.5,0,0.9-0.1,1.3-0.3
			c0.4-0.2,0.7-0.5,0.9-0.9s0.3-0.9,0.3-1.4v-5.7L676.7,136.5z"/>
		<path d="M687.4,136.9c0.6,0.3,1.1,0.8,1.4,1.5c0.3,0.6,0.5,1.4,0.5,2.3v6.3h-2.3v-6c0-0.8-0.2-1.4-0.6-1.9s-1-0.7-1.6-0.7
			c-0.5,0-0.9,0.1-1.3,0.3c-0.4,0.2-0.7,0.5-0.9,0.9c-0.2,0.4-0.3,0.9-0.3,1.4v5.8h-2.3v-10.1l2.2-0.3v1.3c0.4-0.4,0.8-0.8,1.4-1
			c0.5-0.2,1.1-0.4,1.8-0.4C686.1,136.4,686.8,136.6,687.4,136.9z"/>
	</g>
</g>
<g>
	<g>
		<rect x="82" y="167.6" class="st4" width="135.5" height="7.9"/>
	</g>
	<g>
		<path d="M94.5,173.8H95c1.8,0,2.1,0,2.1-0.3v-0.4h-6.2v2.4H89v-7.7h9.9c-0.3-0.3-0.6-0.7-0.8-0.8c-2.8,0.2-6.3,0.3-10.2,0.4
			l-0.3-1.6c0.3,0,0.7,0,1,0c0.2,0,0.8,0,1.1,0c0.3-0.3,0.5-0.6,0.6-0.9h-2.7v-1.6H93v-0.9H95v0.9h5.2v1.6h-2.1
			c0.7,0.5,1.6,1.3,2.4,2l-1.5,1.2c0,0-0.1-0.1-0.1-0.1v5.7c0,1.9-1.3,1.9-3.7,1.9L94.5,173.8z M97.1,169.2h-6.2v0.6h6.2V169.2z
			 M97.1,171.1h-6.2v0.7h6.2V171.1z M92.7,164.7c-0.2,0.3-0.4,0.7-0.7,1c1.4,0,3.3-0.1,4.7-0.1c-0.2-0.2-0.6-0.4-0.6-0.4l1-0.4H92.7
			z"/>
		<path d="M113.7,175.4c-2.4-0.4-4.2-1.7-5.4-3.7c-1,2-3,3.3-5.9,3.8l-0.9-1.9c2.3-0.1,4-0.8,4.9-1.9h-4.8v-1.6h1.7v-3.6h4v-1.1h1.8
			v1.1h4v3.6h1.6v1.6h-4.3c1.2,1.3,2.7,1.8,4.4,1.9L113.7,175.4z M111.1,164.7v1h-1.9v-1h-2.5v1h-1.9v-1h-3.1V163h3.1v-0.8h1.9v0.8
			h2.5v-0.8h1.9v0.8h3.2v1.7H111.1z M107.1,168.1h-2.2v1.9h2c0.1-0.4,0.1-1.2,0.1-1.5V168.1z M111.1,168.1h-2.2v0.5
			c0,0.3,0,1-0.1,1.5h2.4V168.1z"/>
		<path d="M127.7,169.4c-0.8-0.3-1.6-0.7-2.2-1.1v0.8h-6.4v-0.8c-0.9,0.7-1.8,1.1-2.8,1.4l-0.8-1.7c0.6-0.1,1.3-0.3,1.8-0.6
			c-0.4-0.3-1-0.5-1-0.5l1.1-1.1c0,0,0.6,0.3,1.2,0.8l0.4-0.3c-0.5-0.4-1.1-0.7-1.1-0.7l1.1-1c0,0,0.6,0.3,1.1,0.7
			c0.3-0.3,0.5-0.6,0.7-0.9h-2.1c-0.6,0.6-1.3,1.2-2.2,1.7l-1-1.5c2-0.9,2.9-2.4,2.9-2.4l1.8,0.2c0,0-0.2,0.3-0.4,0.5h2.8
			c0,0,1,1.8,2.5,2.9c0.5-0.5,0.8-0.9,0.9-1.2H124V163h4.1v1.4c0,0-0.5,1.3-1.4,2.4c0.6,0.3,1.2,0.6,1.9,0.9L127.7,169.4z
			 M115.5,173.6c0,0,1.7-0.5,3.4-1.9l1.5,1c-1.7,1.7-3.6,2.5-3.6,2.5L115.5,173.6z M123.1,171.6v1.2c0,2.1-0.2,2.6-3,2.6l-0.7-1.8
			c0.3,0,0.5,0,0.8,0c0.9,0,1.1-0.1,1.1-0.6v-1.4h-5.4V170h12.2v1.7H123.1z M124.5,167.6c-0.9-0.8-1.7-1.6-2.3-2.4
			c-0.5,0.8-1.2,1.6-2.2,2.4H124.5z M127.2,175.2c0,0-1.6-0.7-3.4-2.4l1.4-1.1c1.7,1.3,3.4,1.9,3.4,1.9L127.2,175.2z"/>
		<path d="M140.2,172.2V171h-3.3v4.5H135V171h-3.2v1.2H130v-7.9h5v-2h1.9v2h5.1v7.9H140.2z M135,166h-3.2v3.2h3.2V166z M140.2,166
			h-3.3v3.2h3.3V166z"/>
		<path d="M143.9,175.5v-12.8h5.7v5.3h-3.9v7.5H143.9z M147.8,164h-2.1v0.7h2.1V164z M147.8,165.9h-2.1v0.7h2.1V165.9z M152.8,174.4
			h-6v-5.8h6.3v5c1.2,0,1.2-0.1,1.2-0.7v-4.9h-4v-5.3h5.8v10.3c0,2-0.1,2.5-2.9,2.5L152.8,174.4z M151.4,170h-2.9v0.9h2.9V170z
			 M151.4,172.1h-2.9v0.9h2.9V172.1z M154.3,164H152v0.7h2.3V164z M154.3,165.9H152v0.7h2.3V165.9z"/>
		<path d="M169.5,164.7L169.5,164.7c-0.5,6.4-4.6,9.6-9.7,10.2v-1.8c4.5-0.9,7.1-3.8,7.5-8.1h-9.1v-1.8h9.9c0-0.8,0.7-1.4,1.4-1.4
			c0.8,0,1.4,0.6,1.4,1.4C171,164.1,170.3,164.7,169.5,164.7z M169.5,162.6c-0.4,0-0.7,0.3-0.7,0.7c0,0.4,0.3,0.7,0.7,0.7
			c0.4,0,0.7-0.3,0.7-0.7C170.2,163,169.9,162.6,169.5,162.6z"/>
		<path d="M173.6,174.9H173v-12h2v10c3.9-0.5,6.3-2.5,7.2-6.2h2C183.3,171.1,180.3,174.7,173.6,174.9z"/>
		<path d="M192.5,171.1v-1.8c1.1-0.4,2.4-1.4,3-2.7h-6v4.9c0,1,0.4,1.6,1.8,1.6h6.5v1.8H191c-2.7,0-3.5-1-3.5-3.1v-5.2h-2.1v-1.8
			h2.1v-2.2h1.9v2.2h8.5C197.6,168.3,195.3,170.5,192.5,171.1z M195.1,164.2v-2.1h1.2v2.1H195.1z M196.9,164.2v-2.1h1.2v2.1H196.9z"
			/>
		<path d="M200.5,165.2v-1.9c1.9,0.1,4.1,0.4,6,0.8v2C204.6,165.7,202.4,165.3,200.5,165.2z M200.7,174.8v-1.9
			c5.1-0.4,8.5-1.9,9.1-7.7h2.1C211.2,172,207.2,174.6,200.7,174.8z"/>
	</g>
</g>
<g>
	<g>
		<rect x="294.2" y="167.8" class="st4" width="178.6" height="7.8"/>
	</g>
	<g>
		<path d="M312,175.4c-2.5-1.3-4.2-3.1-5.4-5.8c-1,2.5-2.6,4.4-5.5,5.8l-1.3-1.7c3.7-1.5,5.1-3.8,5.6-6.3h-5.2v-1.8h5.4v-3.3h1.8
			v3.3h5.3v1.8h-5.1c0.8,3,3,5.2,5.5,6.3L312,175.4z"/>
		<path d="M321.7,172.2v0.9c0,2.2-0.1,2.5-3.6,2.5l-0.8-1.9h1.3c1.2,0,1.2-0.1,1.2-0.8v-0.7H314v-1.7h5.9v-0.9h0.5
			c0.6-0.3,1.3-0.6,1.3-0.6h-5.2v-1.6h8v1.3c0,0-1.4,0.9-2.9,1.7v0.1h5.3v1.7H321.7z M325,168.2v-1.8H316v1.8h-1.8v-3.4h2.1
			c-0.3-0.6-0.7-1.2-1.2-1.8l1.6-1c0.7,1,1.4,2.1,1.4,2.1l-1,0.6h2.7c-0.3-0.6-0.7-1.3-1.2-1.9l1.6-0.9c0.7,1,1.2,2.1,1.2,2.1
			l-1.1,0.6h1.7c0.7-0.8,1.3-1.7,1.8-2.7l1.8,0.8c-0.4,0.8-0.9,1.4-1.3,1.9h2.5v3.4H325z"/>
		<path d="M329.1,174.5v-1.8h8.8v-7.3h-8.8v-1.8H340v10.9H329.1z"/>
		<path d="M343,165.2v-1.9c1.9,0.1,4.1,0.4,6,0.8v2C347.1,165.7,344.9,165.3,343,165.2z M343.2,174.8v-1.9c5.1-0.4,8.5-1.9,9.1-7.7
			h2.1C353.7,172,349.7,174.6,343.2,174.8z"/>
		<path d="M358.4,169c-0.5-1.8-1.3-3.9-2.1-5.7h2.1c0.8,1.8,1.5,3.6,2.1,5.7H358.4z M358.9,175v-1.9c4.5-1,7.2-3.7,7.5-10h2
			C368.2,170.6,364.6,174,358.9,175z"/>
		<path d="M370.4,169.2v-1.8h12.1v1.8H370.4z"/>
		<path d="M384.8,168.9v-1.8c1.9,0.1,4.3,0.3,6.2,0.5v1.8C389.1,169.2,386.6,169,384.8,168.9z M385,164.8v-1.8
			c1.9,0.1,4.3,0.3,6.2,0.5v1.8C389.3,165.2,386.7,164.9,385,164.8z M385.2,174.9V173c6-0.2,8.9-2.3,9.5-7.9h2
			C396.1,172.2,391.8,174.8,385.2,174.9z"/>
		<path d="M404.3,170.8c-0.9,2.3-2.8,3.6-5.1,4.2v-1.8c2.5-1,3.8-2.7,3.8-6.1v-0.8h1.9v0.9c0,0.6,0,1.2-0.1,1.7
			c2.1-0.5,3.2-1.9,3.6-3.9h-9.6v-1.8h11.8v0.4C410.4,168.3,407.5,170.3,404.3,170.8z"/>
		<path d="M412.4,174.8v-1.7c1.2-2.4,2.9-7,3.7-10.1h2.1c-1.1,3.9-2.4,7-3.7,10h7.8c-0.6-1.9-1.8-4.2-2.8-6h2.1
			c1.2,2.2,2.5,4.9,3.4,7.8H412.4z"/>
		<path d="M425.6,173.9c1.9-2.5,2.9-5.9,3-10.3l1.9,0.2c-0.2,4.4-1,8.4-3.4,11.6L425.6,173.9z M437.8,175.4c-2-3.2-3-6.9-3.5-10.9
			h-3.1v-1.8h4.8c0.2,4.3,1.3,8.3,3.2,11.2L437.8,175.4z"/>
		<path d="M439.9,174.9v-1.8h5.6v-3.6h-4.2v-1.8h4.2v-3.1h-4.8v-1.8h11.6v1.8h-4.9v3.1h4.4v1.8h-4.4v3.6h5.8v1.8L439.9,174.9z"/>
		<path d="M461.8,169.5v2.7c0,2.9,0,3.2-4,3.2l-0.8-2h1.8c1,0,1.1-0.1,1.1-1v-3h-6v-1.9h6v-1.8h0.9c1.2-0.6,2.3-1.4,2.3-1.4h-7.7
			v-1.8h10.5v1.6c0,0-1.8,1.8-4,3.1v0.4h5.3v1.9H461.8z"/>
	</g>
</g>
<g>
	<g>
		<rect x="565.5" y="167.9" class="st4" width="108.6" height="7.6"/>
	</g>
	<g>
		<path d="M576.3,169.6c-0.9-0.4-1.5-1.1-1.9-1.7c-0.5,0.8-1.2,1.5-2.2,2.1l-1.1-1.6c2.4-1.2,2.7-3.3,2.7-3.3l1.7,0.5
			c0,0-0.1,0.3-0.3,0.9c0.3,0.5,0.9,1.2,2,1.6L576.3,169.6z M578.6,172v3.4h-1.8V172h-5.6v-1.8h5.6v-0.9h1.8v0.9h5.7v1.8H578.6z
			 M571.6,165v-1.8h5.2v-1h2v1h5.2v1.8H571.6z M583.3,169.7c-1-0.3-1.7-1.1-2.4-1.9c-0.4,0.6-1.1,1.3-1.9,1.8l-1.1-1.6
			c2.3-1.1,2.4-3,2.4-3l1.7,0.5c0,0-0.1,0.4-0.2,0.9c0.3,0.4,1.1,1.3,2.5,1.8L583.3,169.7z"/>
		<path d="M597.4,175.2c-2-0.6-3.4-1.4-4.7-2.5v2.8h-1.8v-2.8c-1.2,1-2.7,2-4.7,2.5l-1-1.7c1.7-0.2,3-0.6,4.1-1.2h-3.6v-1.5h5.2
			v-0.6h-4.3v-1.4h4.3v-0.6h-4.8v-1.5h2.8c-0.1-0.3-0.3-0.7-0.4-1h-2.9v-1.6h1.4c-0.2-0.4-0.4-0.7-0.7-1.1l1.6-0.7
			c0.4,0.5,0.7,1.2,1,1.8h0.7v-1.9h1.8v1.9h1.3v-1.9h1.8v1.9h0.8c0.3-0.5,0.6-1.1,0.8-1.8l1.6,0.6c-0.2,0.4-0.4,0.8-0.6,1.2h1.2v1.6
			h-2.9c-0.1,0.3-0.2,0.6-0.4,1h2.6v1.5h-4.8v0.6h4.3v1.4h-4.3v0.6h5.2v1.5h-3.6c1,0.6,2.4,1,4.1,1.2L597.4,175.2z M590.3,165.7
			c0.1,0.3,0.3,0.6,0.3,1h2.3c0.2-0.3,0.3-0.7,0.3-1H590.3z"/>
		<path d="M609.2,175.5v-6h-1.4c-0.1,2.4-0.5,4.6-2,6l-1.3-1.4v0.3H602v0.8h-1.8v-4.9c-0.3,0.5-0.6,0.9-0.6,0.9l-0.5-2.4
			c0,0,1.5-1.6,1.8-4.5h-1.4v-1.7h5.2v1.7h-2c-0.1,0.9-0.4,1.8-0.6,2.6h2.5v7c1.1-1.1,1.5-2.4,1.6-4.4h-1.2v-1.8h1.2v-3.1h-1v-1.8
			h6.9v1.8H611v3.1h1.4v1.8H611v6H609.2z M602.8,168.5h-0.9v4.2h0.9V168.5z M609.2,164.5h-1.4v3.1h1.4V164.5z"/>
		<path d="M622.4,175.2c-0.9,0-1.4-0.2-1.4-1.1c0-0.1,0-0.2,0-0.3l0.3-3h-1.9c-0.4,2.2-1.8,3.8-5,4.6l-1.3-1.6
			c2.6-0.5,3.9-1.4,4.4-3h-3.5v-1.7h3.7l0-1.5h1.8l0,1.5h3.7l-0.4,4.1c0,0.2,0.1,0.2,0.3,0.2h1c0.3,0,0.4,0,0.7-2.4l1.6,0.9
			c-0.3,2.6-0.7,3.2-2.1,3.2H622.4z M624.5,165.9l1,0.3c-0.4,1.8-0.6,2.1-2,2.1h-2.2c-0.9,0-1.3-0.4-1.3-1.1v-1.9h1.8v1.3
			c0,0.2,0.1,0.2,0.3,0.2h0.7c0.6,0,0.7-0.2,0.8-1.1l0.5,0.2V165h-6.5l1.5,0.5c-0.6,1.8-2.4,2.8-4.5,3.2l-1.1-1.7c2.6-0.2,3.5-1,4-2
			h-2.3v1.3h-1.8v-3h5.2v-1.1h2v1.1h5.3v2.6H624.5z"/>
		<path d="M628.8,175.5v-7.4c-0.3,0.5-0.7,1-1.1,1.4l-0.5-2.4c1.1-1.1,2.2-2.7,2.8-4.8l1.9,0.5c-0.3,1.3-0.8,2.4-1.3,3.3v9.5H628.8z
			 M635.5,172.3v3.2h-1.8V166c-0.5,1.3-1.1,2.5-1.7,3.3l-1.2-1.8c1.2-1.7,2-3.4,2.4-5.3l1.8,0.4c-0.1,0.5-0.3,1-0.5,1.6h5.9v1.8
			h-4.8v1.4h4.4v1.7h-4.4v1.5h4.4v1.7H635.5z"/>
		<path d="M643.3,174.7v0.7h-1.8v-6.6h5.7v5.9L643.3,174.7z M642.9,167.9v-5.3h9.7v5.3H642.9z M645.4,170.6h-2.1v2.5h2.1V170.6z
			 M650.8,164.3h-6v1.8h6V164.3z M652.2,175.5v-0.8h-2.4v0.8H648v-6.6h6v6.6L652.2,175.5z M652.2,170.6h-2.4v2.4h2.4V170.6z"/>
		<path d="M667.4,175.4c-2.3-0.8-3.6-1.8-4.5-2.8v1.6c-2.2,0.7-5.1,1-5.1,1l-0.4-1.7c0,0,1.1-0.1,1.8-0.2v-2.1h-1.6
			c-0.2,1.4-0.5,2.7-1,3.7l-1.6-1.1c0.8-1.9,1-3.6,1-6.8v-4.4h11.5v3.8h-2.3v0.9h2.2v1.5h-2.2v0.9h2.8v1.5h-4.3
			c0.3,0.4,0.8,0.8,1.4,1.2c0.4-0.3,0.9-0.7,1.2-1.1l1.5,0.8c-0.4,0.5-0.8,0.8-1.3,1.1c0.5,0.2,1.2,0.4,1.9,0.6L667.4,175.4z
			 M659.9,168.9h-1.7v-1.5h1.7v-0.9h-2.1v0.6c0,0.9,0,1.9,0,2.6h2.1V168.9z M665.8,164.2h-7.9v0.8h7.9V164.2z M661,171.3v1.8
			c0.6-0.1,1.2-0.3,1.9-0.5c-0.4-0.5-0.8-0.9-1.1-1.3H661z M663.5,166.5h-1.9v0.9h1.9V166.5z M663.5,168.9h-1.9v0.9h1.9V168.9z"/>
	</g>
</g>
<g>
</g>
<g>
</g>
<g>
</g>
<g>
</g>
<g>
</g>
<g>
</g>
</svg>
