<?xml version="1.0" encoding="utf-8"?>
<!-- Generator: Adobe Illustrator 21.1.0, SVG Export Plug-In . SVG Version: 6.00 Build 0)  -->
<svg version="1.1" id="レイヤー_1" xmlns="http://www.w3.org/2000/svg" xmlns:xlink="http://www.w3.org/1999/xlink" x="0px"
	 y="0px" viewBox="0 0 200 100" style="enable-background:new 0 0 200 100;" xml:space="preserve">
<style type="text/css">
	.st0{fill:#D24D8A;}
	.st1{fill:#FFFFFF;}
</style>
<rect class="st0" width="200" height="100"/>
<g>
	<path class="st1" d="M24.05,72.61c2.09,0.82,4.38,1.12,6.89,0.9c2.79-0.24,4.92-1.12,6.4-2.64s2.13-3.41,1.93-5.68
		c-0.14-1.62-0.86-3.13-2.15-4.49c-1.29-1.36-3.51-2.92-6.66-4.65c-1.67-0.89-3.09-1.79-4.24-2.72s-2.12-1.91-2.89-2.95
		c-0.77-1.04-1.36-2.14-1.77-3.32s-0.68-2.47-0.8-3.86c-0.2-2.32,0.08-4.5,0.83-6.54c0.76-2.03,1.88-3.82,3.36-5.35
		c1.48-1.53,3.27-2.8,5.36-3.77c2.09-0.98,4.37-1.58,6.84-1.79c4.88-0.43,9.41,0.18,13.58,1.83l-1.32,10.66
		c-2.28-1.44-4.33-2.44-6.14-3.02c-1.81-0.56-3.57-0.77-5.28-0.62c-2.37,0.21-4.16,1-5.37,2.37c-1.22,1.37-1.75,2.96-1.59,4.78
		c0.06,0.7,0.24,1.33,0.52,1.92c0.28,0.59,0.75,1.19,1.39,1.81c0.64,0.63,1.51,1.29,2.61,2.02c1.1,0.73,2.5,1.55,4.22,2.47
		c3.39,1.81,5.86,3.79,7.41,5.96c1.54,2.16,2.46,4.77,2.72,7.84c0.23,2.6-0.1,5.01-0.99,7.21s-2.21,4.14-3.96,5.79
		c-1.75,1.65-3.84,3-6.28,4.02c-2.44,1.04-5.12,1.68-8.05,1.94c-2.74,0.24-5.25,0.19-7.53-0.14c-2.28-0.34-4.31-1.04-6.09-2.1
		l0.52-11.78l0.21-0.02C19.86,70.48,21.96,71.78,24.05,72.61z"/>
	<path class="st1" d="M70.04,42.41l-4.43,36.15l-9.55,0.84l4.18-34.16L70.04,42.41z M66.82,25.68c1.53-0.13,2.78,0.21,3.74,1.04
		s1.51,1.99,1.64,3.47c0.07,0.84-0.02,1.63-0.28,2.38c-0.27,0.75-0.64,1.41-1.12,2c-0.49,0.59-1.09,1.06-1.81,1.42
		c-0.72,0.36-1.49,0.59-2.33,0.67c-1.58,0.14-2.84-0.19-3.77-1.01c-0.93-0.81-1.46-1.93-1.59-3.37c-0.15-1.76,0.31-3.27,1.39-4.52
		C63.76,26.52,65.14,25.83,66.82,25.68z"/>
</g>
<g>
	<path class="st1" d="M84.12,44.85c0.76,0.24,1.69,0.31,2.78,0.22c0.92-0.08,1.74-0.27,2.47-0.58c0.74-0.31,1.34-0.71,1.84-1.21
		s0.87-1.06,1.13-1.69s0.34-1.34,0.28-2.08c-0.08-0.92-0.44-1.72-1.1-2.42c-0.64-0.71-1.65-1.34-3-1.91
		c-0.73-0.32-1.37-0.63-1.93-0.95s-1.01-0.65-1.37-1.01c-0.36-0.37-0.65-0.78-0.87-1.24c-0.21-0.46-0.35-1-0.4-1.63
		c-0.07-0.77,0.03-1.51,0.28-2.22s0.65-1.34,1.16-1.91c0.52-0.56,1.15-1.01,1.89-1.37s1.57-0.57,2.47-0.65
		c0.86-0.07,1.64-0.04,2.34,0.11s1.36,0.38,1.99,0.71l-0.19,1.53c-0.57-0.51-1.2-0.86-1.88-1.04c-0.68-0.18-1.41-0.24-2.15-0.17
		c-0.81,0.07-1.51,0.24-2.12,0.53c-0.61,0.28-1.12,0.64-1.52,1.08s-0.69,0.94-0.87,1.51c-0.18,0.57-0.24,1.17-0.18,1.79
		c0.04,0.43,0.14,0.82,0.3,1.18c0.17,0.36,0.41,0.69,0.72,0.98c0.32,0.29,0.71,0.58,1.2,0.86c0.49,0.28,1.06,0.55,1.74,0.84
		c1.54,0.66,2.68,1.43,3.44,2.3c0.75,0.88,1.18,1.87,1.28,3c0.08,0.97-0.03,1.85-0.35,2.65c-0.32,0.8-0.78,1.48-1.4,2.07
		c-0.62,0.59-1.36,1.06-2.24,1.42c-0.88,0.36-1.84,0.58-2.85,0.67c-1.06,0.09-2.03,0.05-2.94-0.13c-0.91-0.18-1.61-0.48-2.11-0.89
		l0.08-1.55l0.08-0.01C82.7,44.2,83.37,44.61,84.12,44.85z"/>
	<path class="st1" d="M99.69,31.67l0.54-4.38l1.18-0.4l-0.59,4.69l4.19-0.37l-0.13,1.07l-4.19,0.37l-0.93,7.59
		c-0.09,0.77-0.12,1.39-0.08,1.85c0.05,0.52,0.21,0.95,0.51,1.3c0.29,0.35,0.74,0.65,1.34,0.9l-0.02,0.16l-1.36,0.31
		c-0.49-0.21-0.86-0.52-1.12-0.92c-0.27-0.4-0.42-0.96-0.49-1.65c-0.04-0.47-0.01-1.08,0.08-1.85l0.93-7.59l-2.58,0.23l0.13-1.07
		L99.69,31.67z"/>
	<path class="st1" d="M108.92,30.86l-1.04,8.52c-0.05,0.46-0.05,0.88-0.02,1.28c0.07,0.86,0.35,1.46,0.81,1.79
		c0.46,0.33,1.09,0.46,1.9,0.39c0.94-0.08,1.8-0.4,2.62-0.96c0.8-0.56,1.52-1.27,2.1-2.13c0.36-0.5,0.57-1.07,0.63-1.71l0.97-7.86
		l1.16-0.1l-1.6,13.02l-1.2,0.46l0.34-2.71c-0.63,0.87-1.4,1.59-2.29,2.15c-0.9,0.57-1.82,0.89-2.75,0.97
		c-2.37,0.21-3.65-0.86-3.85-3.19c-0.03-0.4-0.03-0.8,0.02-1.22l1.07-8.58L108.92,30.86L108.92,30.86z"/>
	<path class="st1" d="M130.77,41.18c-0.66,0.51-1.34,0.88-2.03,1.12c-0.69,0.24-1.35,0.39-1.98,0.44c-0.86,0.07-1.63,0-2.28-0.22
		c-0.65-0.22-1.22-0.56-1.7-1.01c-0.47-0.45-0.85-0.98-1.11-1.61s-0.44-1.31-0.5-2.03c-0.11-1.26,0.03-2.42,0.42-3.51
		c0.39-1.08,0.93-2.03,1.64-2.84c0.7-0.81,1.53-1.47,2.46-1.96c0.93-0.49,1.9-0.79,2.9-0.88c0.72-0.06,1.37-0.05,1.95,0.05
		c0.58,0.1,1.16,0.28,1.72,0.55l1.02-8.44l1.19-0.38l-2.62,21.26l-1.22,0.62L130.77,41.18z M126.66,41.64
		c0.81-0.07,1.57-0.26,2.31-0.56c0.74-0.31,1.39-0.73,1.98-1.27l1.14-9.26c-0.39-0.29-0.89-0.5-1.49-0.63
		c-0.6-0.13-1.26-0.16-1.96-0.1c-0.9,0.08-1.75,0.33-2.55,0.77c-0.81,0.43-1.5,0.99-2.07,1.7c-0.58,0.7-1.02,1.51-1.32,2.44
		c-0.3,0.93-0.4,1.93-0.31,3.01c0.05,0.61,0.18,1.17,0.39,1.67c0.2,0.5,0.49,0.93,0.85,1.28c0.36,0.35,0.8,0.6,1.3,0.78
		C125.45,41.64,126.02,41.69,126.66,41.64z"/>
	<path class="st1" d="M142.73,35c-0.35,0.12-0.74,0.25-1.16,0.36c-0.42,0.12-0.86,0.24-1.31,0.36c-0.45,0.12-0.9,0.23-1.36,0.34
		c-0.45,0.1-0.88,0.2-1.26,0.29l0.01,0.13c0.11,1.21,0.55,2.15,1.32,2.86c0.77,0.71,1.85,0.99,3.24,0.87
		c0.86-0.07,1.7-0.33,2.52-0.76c0.82-0.43,1.52-0.99,2.09-1.67l0.08-0.01l-0.23,1.73c-0.54,0.5-1.2,0.92-2.01,1.27
		c-0.8,0.35-1.6,0.56-2.38,0.63c-0.92,0.08-1.72,0.01-2.41-0.21s-1.26-0.55-1.74-0.98c-0.47-0.44-0.84-0.96-1.1-1.56
		c-0.26-0.6-0.42-1.25-0.48-1.95c-0.09-1.04,0.05-2.09,0.42-3.15c0.37-1.06,0.9-2.04,1.57-2.93c0.68-0.89,1.49-1.64,2.43-2.23
		c0.94-0.59,1.96-0.94,3.03-1.04c1.19-0.1,2.1,0.1,2.75,0.6c0.65,0.51,1.02,1.18,1.09,2.02c0.04,0.47-0.01,0.93-0.15,1.4
		c-0.14,0.46-0.4,0.91-0.79,1.34c-0.38,0.44-0.92,0.84-1.6,1.23C144.63,34.32,143.76,34.68,142.73,35z M144.11,28.44
		c-0.81,0.07-1.58,0.33-2.3,0.75c-0.72,0.43-1.38,0.97-1.96,1.62c-0.58,0.64-1.05,1.37-1.44,2.15c-0.38,0.8-0.62,1.58-0.72,2.37
		c0.32-0.07,0.69-0.15,1.11-0.26c0.42-0.11,0.87-0.23,1.35-0.36c0.48-0.13,0.96-0.27,1.46-0.44c0.49-0.16,0.96-0.32,1.39-0.48
		c1.31-0.48,2.27-1.04,2.86-1.7c0.6-0.65,0.86-1.33,0.8-2.01c-0.05-0.58-0.3-1.01-0.75-1.3C145.46,28.48,144.86,28.37,144.11,28.44z
		"/>
	<path class="st1" d="M152.25,27.07l1.16-0.1l-0.32,2.52c0.79-1.01,1.65-1.78,2.58-2.31c0.92-0.53,1.8-0.84,2.64-0.91
		c1.08-0.09,1.95,0.1,2.6,0.59c0.65,0.48,1.04,1.29,1.14,2.42c0.04,0.45,0.04,0.88-0.02,1.31l-1.08,8.72l-1.16,0.1l1.06-8.63
		c0.07-0.5,0.08-0.94,0.04-1.33c-0.07-0.76-0.33-1.3-0.8-1.64c-0.46-0.34-1.1-0.48-1.9-0.41c-0.41,0.04-0.82,0.12-1.23,0.27
		s-0.8,0.33-1.19,0.57c-0.38,0.23-0.73,0.5-1.06,0.8c-0.34,0.3-0.63,0.63-0.89,0.97c-0.32,0.43-0.57,0.84-0.74,1.24
		c-0.18,0.41-0.29,0.89-0.37,1.46l-0.9,7.4l-1.16,0.1L152.25,27.07z"/>
	<path class="st1" d="M168.01,25.69l0.54-4.38l1.18-0.4l-0.59,4.69l4.19-0.37l-0.13,1.07l-4.19,0.37l-0.93,7.59
		c-0.09,0.77-0.12,1.39-0.08,1.85c0.05,0.52,0.21,0.95,0.51,1.3c0.29,0.35,0.74,0.65,1.34,0.9l-0.02,0.16l-1.36,0.31
		c-0.49-0.21-0.86-0.52-1.12-0.92s-0.42-0.96-0.49-1.65c-0.04-0.47-0.01-1.08,0.08-1.85l0.93-7.59l-2.58,0.23l0.13-1.07
		L168.01,25.69z"/>
	<path class="st1" d="M85.66,75.99l2.6-21.15l1.16-0.1l-2.6,21.15L85.66,75.99z"/>
	<path class="st1" d="M93.95,62.29l1.16-0.1l-0.32,2.52c0.79-1.01,1.65-1.78,2.58-2.31c0.92-0.53,1.8-0.83,2.64-0.9
		c1.08-0.09,1.95,0.1,2.6,0.59c0.65,0.48,1.04,1.29,1.14,2.42c0.04,0.45,0.04,0.88-0.02,1.31l-1.08,8.72l-1.16,0.1l1.06-8.63
		c0.07-0.5,0.08-0.94,0.04-1.33c-0.07-0.76-0.33-1.3-0.8-1.64c-0.46-0.34-1.1-0.48-1.9-0.41c-0.41,0.04-0.82,0.12-1.23,0.27
		c-0.41,0.15-0.8,0.33-1.19,0.57c-0.38,0.23-0.73,0.5-1.06,0.8c-0.34,0.3-0.63,0.63-0.89,0.97c-0.32,0.43-0.57,0.84-0.74,1.24
		c-0.18,0.41-0.29,0.89-0.37,1.46l-0.9,7.4l-1.18,0.1L93.95,62.29z"/>
	<path class="st1" d="M109.71,60.91l0.54-4.38l1.18-0.4l-0.59,4.69l4.19-0.37l-0.13,1.07l-4.19,0.37l-0.93,7.59
		c-0.09,0.77-0.12,1.39-0.08,1.85c0.05,0.52,0.21,0.95,0.51,1.3s0.74,0.65,1.34,0.9l-0.02,0.16l-1.36,0.31
		c-0.49-0.21-0.86-0.52-1.12-0.92c-0.27-0.4-0.42-0.96-0.49-1.65c-0.04-0.47-0.01-1.08,0.08-1.85l0.93-7.59l-2.58,0.23l0.13-1.07
		C107.12,61.13,109.71,60.91,109.71,60.91z"/>
	<path class="st1" d="M122.13,66.92c-0.35,0.12-0.74,0.25-1.16,0.36c-0.42,0.12-0.86,0.24-1.31,0.36c-0.45,0.12-0.9,0.23-1.36,0.34
		c-0.45,0.1-0.88,0.2-1.26,0.29l0.01,0.13c0.11,1.21,0.55,2.15,1.32,2.86s1.85,0.99,3.24,0.87c0.86-0.07,1.7-0.33,2.52-0.76
		c0.82-0.43,1.52-1,2.09-1.68l0.08-0.01l-0.23,1.73c-0.54,0.5-1.2,0.92-2.01,1.27s-1.6,0.56-2.38,0.63
		c-0.92,0.08-1.72,0.01-2.41-0.21c-0.69-0.22-1.26-0.55-1.74-0.98c-0.47-0.44-0.84-0.96-1.1-1.56s-0.42-1.25-0.48-1.95
		c-0.09-1.04,0.05-2.09,0.42-3.16c0.37-1.07,0.9-2.04,1.57-2.93c0.68-0.89,1.49-1.64,2.43-2.23c0.94-0.59,1.96-0.94,3.03-1.04
		c1.19-0.1,2.1,0.1,2.75,0.6c0.65,0.51,1.02,1.18,1.09,2.02c0.04,0.47-0.01,0.93-0.15,1.4c-0.14,0.46-0.4,0.91-0.79,1.34
		c-0.38,0.44-0.92,0.84-1.6,1.23C124.03,66.24,123.17,66.6,122.13,66.92z M123.51,60.35c-0.81,0.07-1.58,0.32-2.3,0.75
		s-1.38,0.97-1.96,1.62c-0.58,0.64-1.05,1.37-1.44,2.16s-0.62,1.58-0.72,2.36c0.32-0.07,0.69-0.15,1.11-0.26
		c0.42-0.11,0.87-0.23,1.35-0.36c0.48-0.13,0.96-0.27,1.46-0.44c0.49-0.16,0.96-0.32,1.39-0.48c1.31-0.48,2.27-1.04,2.86-1.7
		c0.6-0.65,0.86-1.33,0.8-2.01c-0.05-0.58-0.3-1.01-0.75-1.3C124.88,60.41,124.26,60.29,123.51,60.35z"/>
	<path class="st1" d="M138.05,59.51c-1.1,0.1-2.06,0.34-2.88,0.72c-0.83,0.39-1.53,0.89-2.11,1.5c-0.13,0.14-0.25,0.28-0.32,0.44
		c-0.09,0.15-0.17,0.34-0.25,0.55c-0.08,0.22-0.15,0.47-0.2,0.76c-0.05,0.3-0.11,0.64-0.17,1.05l-0.92,7.48l-1.16,0.1L131.65,59
		l1.16-0.1l-0.27,2.16c0.68-0.73,1.37-1.29,2.1-1.69c0.73-0.39,1.51-0.69,2.33-0.9c0.37-0.08,0.78-0.15,1.23-0.19L138.05,59.51z"/>
	<path class="st1" d="M140.23,58.24l2.59,11.05l6.09-11.81l1.39-0.12l-7.21,13.61l-0.89,0.08l-3.23-12.7
		C138.99,58.35,140.23,58.24,140.23,58.24z"/>
	<path class="st1" d="M154.45,56.85l-1.63,13.26l-1.16,0.1l1.6-13.02L154.45,56.85z M154.53,50.97c0.27-0.02,0.49,0.04,0.65,0.17
		c0.16,0.14,0.26,0.34,0.28,0.59c0.03,0.34-0.07,0.63-0.28,0.85c-0.21,0.23-0.47,0.35-0.78,0.38c-0.29,0.03-0.5-0.03-0.67-0.16
		c-0.15-0.13-0.25-0.32-0.27-0.57c-0.03-0.34,0.06-0.63,0.25-0.86C153.93,51.13,154.2,51,154.53,50.97z"/>
	<path class="st1" d="M163.69,63.28c-0.35,0.12-0.74,0.25-1.16,0.36c-0.42,0.12-0.86,0.24-1.31,0.36c-0.45,0.12-0.9,0.23-1.36,0.34
		c-0.45,0.1-0.88,0.2-1.26,0.29l0.01,0.13c0.11,1.21,0.55,2.15,1.32,2.86s1.85,0.99,3.24,0.87c0.86-0.07,1.7-0.33,2.52-0.76
		c0.82-0.43,1.52-1,2.09-1.68l0.08-0.01l-0.23,1.73c-0.54,0.5-1.2,0.92-2.01,1.27c-0.8,0.35-1.6,0.56-2.38,0.63
		c-0.92,0.08-1.72,0.01-2.41-0.21c-0.69-0.22-1.26-0.55-1.74-0.98c-0.47-0.44-0.84-0.96-1.1-1.56c-0.26-0.6-0.42-1.25-0.48-1.95
		c-0.09-1.04,0.05-2.09,0.42-3.16c0.37-1.07,0.9-2.04,1.57-2.93c0.68-0.89,1.49-1.64,2.43-2.23c0.94-0.59,1.96-0.94,3.03-1.04
		c1.19-0.1,2.1,0.1,2.75,0.6c0.65,0.51,1.02,1.18,1.09,2.02c0.04,0.47-0.01,0.93-0.15,1.4c-0.14,0.46-0.4,0.91-0.79,1.34
		c-0.38,0.44-0.92,0.84-1.6,1.23C165.58,62.61,164.73,62.96,163.69,63.28z M165.06,56.72c-0.81,0.07-1.58,0.32-2.3,0.75
		c-0.72,0.43-1.38,0.97-1.96,1.62c-0.58,0.64-1.05,1.37-1.44,2.16s-0.62,1.58-0.72,2.36c0.32-0.07,0.69-0.15,1.11-0.26
		s0.87-0.23,1.35-0.36c0.48-0.13,0.96-0.27,1.46-0.44c0.49-0.16,0.96-0.32,1.39-0.48c1.31-0.48,2.27-1.04,2.86-1.7
		c0.6-0.65,0.86-1.33,0.8-2.01c-0.05-0.58-0.3-1.01-0.75-1.3S165.82,56.65,165.06,56.72z"/>
	<path class="st1" d="M180.96,54.67l1.65,11.21l5.87-11.87l1.39-0.12l-7.02,13.59l-0.94,0.08l-1.73-10.8l-5.16,11.4l-0.97,0.08
		l-3.01-12.72l1.24-0.11l2.41,11.14l5.17-11.81C179.87,54.77,180.96,54.67,180.96,54.67z"/>
</g>
</svg>
