<?xml version="1.0" encoding="utf-8"?>
<!-- Generator: Adobe Illustrator 21.1.0, SVG Export Plug-In . SVG Version: 6.00 Build 0)  -->
<svg version="1.1" id="レイヤー_1" xmlns="http://www.w3.org/2000/svg" xmlns:xlink="http://www.w3.org/1999/xlink" x="0px"
	 y="0px" viewBox="0 0 345.34 140.96" style="enable-background:new 0 0 345.34 140.96;" xml:space="preserve">
<style type="text/css">
	.st0{fill:none;stroke:#C9CACA;stroke-linecap:round;stroke-miterlimit:10;}
	.st1{fill:none;stroke:#C9CACA;stroke-linecap:round;stroke-miterlimit:10;stroke-dasharray:7.9229,7.9229;}
	.st2{fill:#C9CACA;}
	.st3{fill:none;stroke:#000000;stroke-width:1.3;stroke-miterlimit:10;}
</style>
<g>
	<g>
		<line class="st0" x1="14.24" y1="120.94" x2="18.24" y2="120.94"/>
		<line class="st1" x1="26.17" y1="120.94" x2="323.28" y2="120.94"/>
		<line class="st0" x1="327.24" y1="120.94" x2="331.24" y2="120.94"/>
	</g>
</g>
<g>
	<g>
		<g>
			<path class="st2" d="M281.62,120.94c0-2.4-0.04-4.8-0.11-7.21l-0.14-3.6l-0.18-3.25l2.89-0.18c-1.21-1.86-2.45-3.68-3.7-5.48
				c-0.93,1.99-1.88,3.95-2.86,5.88l2.89-0.18l0.18,3.24l0.14,3.59c0.08,2.39,0.11,4.79,0.11,7.18H281.62z"/>
		</g>
	</g>
</g>
<g>
	<path class="st2" d="M293.82,106.91h-4.17l-0.87,2.51c0.04-0.01,0.07-0.04,0.1-0.09c0.03-0.05,0.08-0.08,0.15-0.08
		c0.61,0,1.14,0.07,1.61,0.22c0.47,0.15,0.86,0.35,1.18,0.61c0.32,0.26,0.56,0.58,0.72,0.95c0.16,0.37,0.24,0.78,0.24,1.23
		c0,0.66-0.14,1.27-0.42,1.81c-0.28,0.55-0.69,1.01-1.22,1.4s-1.18,0.69-1.95,0.9c-0.77,0.21-1.64,0.32-2.62,0.32
		c-0.19,0-0.37-0.01-0.55-0.04c-0.18-0.02-0.34-0.06-0.48-0.1l0.43-1.47c0.29,0.06,0.63,0.08,1.02,0.08c0.67,0,1.27-0.07,1.8-0.2
		s0.97-0.33,1.34-0.57c0.36-0.25,0.64-0.54,0.83-0.89c0.19-0.35,0.28-0.73,0.28-1.15c0-0.52-0.22-0.95-0.66-1.29
		c-0.44-0.34-1.12-0.51-2.06-0.51c-0.25,0-0.52,0.01-0.8,0.04c-0.28,0.03-0.55,0.07-0.8,0.11l1.75-5.19h5.66L293.82,106.91z"/>
	<path class="st2" d="M299.21,115.6c-0.32,0.22-0.65,0.39-1,0.5c-0.35,0.11-0.69,0.16-1.03,0.16c-0.47,0-0.87-0.07-1.22-0.22
		c-0.35-0.15-0.63-0.36-0.86-0.62s-0.4-0.58-0.52-0.94c-0.12-0.36-0.18-0.75-0.18-1.17c0-0.62,0.12-1.19,0.37-1.73s0.58-1,0.99-1.39
		s0.89-0.7,1.43-0.92c0.54-0.22,1.09-0.34,1.67-0.34c0.6,0,1.11,0.12,1.54,0.36l0.83-3.88l1.61-0.31l-2.3,10.78l-1.51,0.36
		L299.21,115.6z M297.64,114.98c0.31,0,0.61-0.05,0.9-0.15c0.29-0.1,0.55-0.24,0.78-0.43l0.81-3.84c-0.31-0.25-0.74-0.38-1.29-0.38
		c-0.39,0-0.76,0.08-1.11,0.22c-0.34,0.15-0.65,0.36-0.9,0.63c-0.26,0.27-0.46,0.6-0.62,0.97s-0.23,0.79-0.23,1.24
		c0,0.52,0.14,0.94,0.43,1.25C296.7,114.83,297.11,114.98,297.64,114.98z"/>
	<path class="st2" d="M306.63,112.98c-0.17,0.05-0.35,0.09-0.55,0.13c-0.2,0.04-0.4,0.07-0.61,0.11c-0.21,0.04-0.42,0.07-0.64,0.1
		s-0.42,0.06-0.6,0.09c0.04,0.44,0.2,0.8,0.48,1.08c0.28,0.28,0.71,0.42,1.28,0.42c0.46,0,0.91-0.1,1.35-0.29
		c0.44-0.19,0.84-0.46,1.2-0.79h0.04l-0.46,1.68c-0.31,0.24-0.67,0.43-1.08,0.55c-0.42,0.13-0.83,0.19-1.24,0.19
		c-0.51,0-0.96-0.08-1.32-0.23c-0.37-0.15-0.67-0.36-0.91-0.62c-0.24-0.26-0.42-0.56-0.53-0.91c-0.12-0.35-0.17-0.71-0.17-1.09
		c0-0.53,0.12-1.06,0.36-1.6c0.24-0.53,0.57-1.01,0.99-1.44c0.42-0.42,0.89-0.77,1.43-1.04c0.54-0.27,1.1-0.4,1.69-0.4
		c0.68,0,1.19,0.16,1.53,0.48c0.34,0.32,0.51,0.73,0.51,1.23c0,0.52-0.21,0.98-0.62,1.39C308.34,112.43,307.63,112.75,306.63,112.98
		z M306.97,110.08c-0.28,0-0.56,0.07-0.84,0.21c-0.28,0.14-0.54,0.32-0.78,0.55c-0.24,0.23-0.46,0.49-0.64,0.8
		c-0.18,0.3-0.31,0.62-0.4,0.94c0.3-0.05,0.63-0.11,0.99-0.19c0.36-0.08,0.69-0.17,0.99-0.26c0.53-0.16,0.92-0.35,1.16-0.58
		c0.24-0.23,0.36-0.48,0.36-0.76c0-0.22-0.08-0.4-0.22-0.52C307.45,110.15,307.24,110.08,306.97,110.08z"/>
	<path class="st2" d="M313.76,108.98c0.35,0,0.67,0.04,0.94,0.12s0.52,0.18,0.74,0.31c0.32-0.33,0.63-0.58,0.95-0.75
		s0.7-0.26,1.15-0.26l-0.27,1.32c-0.42,0-0.81,0.12-1.18,0.36c0.18,0.3,0.27,0.64,0.27,1.02c0,0.63-0.23,1.16-0.68,1.59
		c-0.45,0.42-1.11,0.74-1.98,0.95c-0.29,0.07-0.57,0.13-0.84,0.17s-0.5,0.08-0.7,0.13c-0.21,0.05-0.37,0.1-0.47,0.15
		c-0.1,0.06-0.15,0.14-0.15,0.24c0,0.16,0.21,0.28,0.64,0.36c0.13,0.02,0.29,0.04,0.47,0.06c0.18,0.02,0.37,0.05,0.56,0.08
		s0.38,0.05,0.55,0.08s0.33,0.05,0.45,0.08c0.51,0.1,0.89,0.29,1.12,0.55s0.35,0.6,0.35,1c0,0.39-0.11,0.76-0.33,1.1
		c-0.22,0.34-0.52,0.64-0.89,0.89s-0.8,0.45-1.28,0.6c-0.48,0.14-0.98,0.22-1.5,0.22c-0.41,0-0.77-0.05-1.07-0.15
		c-0.3-0.1-0.56-0.24-0.77-0.41s-0.37-0.37-0.47-0.6s-0.15-0.47-0.15-0.72c0-0.35,0.1-0.68,0.3-1.02c0.2-0.33,0.58-0.64,1.13-0.92
		c-0.51-0.24-0.77-0.56-0.77-0.95c0-0.29,0.16-0.54,0.48-0.76c0.32-0.21,0.76-0.41,1.32-0.59c-0.33-0.17-0.58-0.39-0.76-0.67
		c-0.18-0.28-0.27-0.59-0.27-0.93s0.08-0.68,0.25-1c0.17-0.32,0.39-0.6,0.68-0.85c0.28-0.24,0.61-0.44,0.99-0.58
		C312.94,109.05,313.34,108.98,313.76,108.98z M313.48,116.12c-0.23-0.06-0.52-0.11-0.86-0.15c-0.34-0.05-0.7-0.11-1.07-0.2
		c-0.34,0.13-0.6,0.31-0.81,0.55c-0.2,0.24-0.3,0.51-0.3,0.81c0,0.27,0.12,0.5,0.36,0.7c0.24,0.2,0.59,0.29,1.07,0.29
		c0.32,0,0.61-0.04,0.89-0.12c0.28-0.08,0.52-0.18,0.72-0.31s0.37-0.27,0.48-0.43c0.12-0.16,0.17-0.33,0.17-0.51
		c0-0.14-0.05-0.27-0.15-0.38C313.89,116.26,313.72,116.17,313.48,116.12z M312.01,111.65c0,0.21,0.06,0.42,0.17,0.6
		c0.12,0.19,0.28,0.34,0.5,0.45c0.07,0.05,0.16,0.07,0.25,0.07c0.1,0,0.24-0.02,0.42-0.06c0.47-0.13,0.83-0.32,1.11-0.57
		c0.27-0.25,0.41-0.56,0.41-0.92c0-0.29-0.1-0.54-0.3-0.75c-0.2-0.21-0.5-0.32-0.89-0.32c-0.22,0-0.44,0.04-0.64,0.11
		c-0.2,0.07-0.38,0.18-0.53,0.31c-0.15,0.14-0.28,0.29-0.36,0.48S312.01,111.44,312.01,111.65z"/>
</g>
<g>
	<path d="M62.61,105.6l6.73-54.83l7.81-0.68c5.21-0.46,9.32,0.29,12.35,2.22c3.03,1.94,4.71,4.83,5.05,8.69
		c0.51,5.81-1.08,10.46-4.75,13.94c-3.68,3.48-9.28,5.55-16.81,6.21l-6.07,0.53L64,105.48L62.61,105.6z M67.07,80.33l5.79-0.51
		c7.16-0.63,12.44-2.55,15.83-5.78c3.4-3.22,4.86-7.53,4.38-12.93c-0.3-3.49-1.82-6.08-4.55-7.79c-2.73-1.7-6.48-2.35-11.27-1.93
		l-6.69,0.59L67.07,80.33z"/>
	<path d="M100.04,71.69c1.39-1.2,2.97-2.18,4.73-2.94c1.76-0.76,3.62-1.23,5.57-1.4c2.93-0.26,5.15,0.21,6.66,1.38
		c1.51,1.18,2.37,3.02,2.59,5.54c0.09,0.98,0.08,1.94-0.03,2.88l-2.93,23.58l-1.47,0.83l0.79-6.25c-1.79,1.98-3.81,3.7-6.05,5.13
		c-2.24,1.44-4.69,2.27-7.33,2.5c-2.51,0.22-4.53-0.26-6.06-1.44c-1.53-1.18-2.4-2.88-2.59-5.11c-0.19-2.23,0.4-4.32,1.77-6.27
		s3.79-3.75,7.26-5.41c4.14-1.95,9.09-3.42,14.86-4.39l0.37-3.05c0.1-0.95,0.11-1.91,0.03-2.88c-0.18-2.09-0.89-3.61-2.12-4.56
		c-1.23-0.95-3.1-1.31-5.61-1.09c-1.77,0.15-3.58,0.61-5.43,1.35c-1.86,0.75-3.52,1.87-4.98,3.35l-0.21,0.02L100.04,71.69z
		 M117.58,81.82c-2.41,0.35-4.87,0.92-7.4,1.7c-2.53,0.78-4.74,1.61-6.63,2.48c-3.33,1.56-5.56,3.2-6.7,4.94
		c-1.14,1.74-1.62,3.52-1.47,5.33c0.16,1.81,0.85,3.19,2.08,4.14c1.23,0.95,2.89,1.33,4.98,1.15c2.37-0.21,4.73-1.03,7.09-2.48
		c2.36-1.45,4.58-3.39,6.66-5.82L117.58,81.82z"/>
	<path d="M135.37,65.86l1.5-11.8l1.49-0.62l-1.59,12.29l11.3-0.99l-0.16,1.35l-11.3,0.99l-2.53,20.88c-0.15,1-0.23,1.85-0.23,2.55
		c-0.01,0.7,0.01,1.38,0.07,2.03c0.14,1.63,0.58,2.89,1.31,3.79c0.73,0.9,1.92,1.65,3.57,2.25l-0.05,0.22l-1.78,0.51
		c-1.37-0.63-2.41-1.45-3.13-2.47c-0.72-1.01-1.16-2.4-1.31-4.17c-0.06-0.65-0.07-1.36-0.05-2.14c0.03-0.78,0.11-1.71,0.25-2.8
		l2.49-20.52l-6.76,0.59l0.16-1.35L135.37,65.86z"/>
	<path d="M157.96,63.88l1.5-11.8l1.49-0.62l-1.59,12.29l11.3-0.99l-0.16,1.35l-11.3,0.99l-2.53,20.88c-0.15,1-0.22,1.85-0.23,2.55
		c-0.01,0.7,0.01,1.38,0.07,2.03c0.14,1.63,0.58,2.89,1.31,3.79c0.73,0.9,1.92,1.65,3.57,2.25l-0.05,0.22l-1.78,0.51
		c-1.37-0.63-2.41-1.45-3.13-2.47c-0.72-1.01-1.16-2.4-1.31-4.17c-0.06-0.65-0.07-1.36-0.05-2.14c0.03-0.78,0.11-1.71,0.25-2.8
		l2.49-20.52l-6.76,0.59l0.16-1.35L157.96,63.88z"/>
	<path d="M187.95,78.96c-0.91,0.31-1.95,0.63-3.12,0.94c-1.17,0.31-2.37,0.64-3.6,0.98c-1.23,0.34-2.47,0.66-3.71,0.96
		c-1.24,0.3-2.39,0.56-3.44,0.79c-0.03,0.24-0.03,0.44-0.02,0.6c0.01,0.16,0.03,0.36,0.05,0.59c0.14,1.58,0.49,3.06,1.06,4.44
		c0.56,1.38,1.37,2.56,2.42,3.55c1.05,0.99,2.35,1.73,3.92,2.22c1.56,0.5,3.42,0.65,5.56,0.46c2.14-0.19,4.23-0.81,6.27-1.88
		c2.04-1.07,3.78-2.46,5.22-4.18l0.21-0.02l-0.17,2.05c-1.38,1.39-3.03,2.58-4.96,3.6c-1.93,1.01-4.08,1.62-6.45,1.83
		c-2.33,0.2-4.35,0.03-6.09-0.52c-1.73-0.55-3.2-1.38-4.4-2.5c-1.2-1.11-2.13-2.44-2.81-3.97c-0.67-1.53-1.09-3.18-1.24-4.95
		c-0.24-2.69,0.11-5.42,1.04-8.17c0.93-2.75,2.28-5.28,4.04-7.59c1.77-2.31,3.85-4.24,6.24-5.78s4.96-2.44,7.71-2.68
		c2.97-0.26,5.27,0.23,6.87,1.47c1.61,1.24,2.5,2.91,2.69,5c0.11,1.21,0,2.39-0.32,3.54c-0.32,1.15-0.97,2.26-1.96,3.33
		c-0.99,1.07-2.37,2.1-4.16,3.1C193.02,77.18,190.73,78.11,187.95,78.96z M191.8,61.13c-2.32,0.2-4.52,0.92-6.59,2.16
		c-2.07,1.24-3.9,2.8-5.49,4.7c-1.59,1.9-2.89,4-3.91,6.31c-1.02,2.31-1.59,4.62-1.71,6.93c1.88-0.4,4.02-0.91,6.4-1.54
		c2.38-0.63,4.76-1.33,7.12-2.1c2.64-0.84,4.78-1.69,6.42-2.56c1.63-0.87,2.89-1.77,3.77-2.72c0.88-0.94,1.45-1.91,1.71-2.89
		c0.27-0.98,0.35-2.01,0.26-3.08c-0.15-1.67-0.86-3.02-2.14-4.03C196.34,61.29,194.4,60.9,191.8,61.13z"/>
	<path d="M228.77,58.88c-2.46,0.22-4.71,0.74-6.75,1.57c-2.03,0.83-3.82,1.9-5.34,3.21c-0.65,0.57-1.19,1.11-1.62,1.62
		c-0.42,0.51-0.76,1.04-1.02,1.6c-0.26,0.56-0.46,1.22-0.6,1.98c-0.14,0.76-0.29,1.69-0.42,2.78l-2.59,21.03l-1.39,0.12l4.14-33.74
		l1.4-0.12l-0.74,6.04c0.29-0.45,0.63-0.9,1.04-1.36c0.41-0.46,0.78-0.84,1.13-1.15c1.48-1.3,3.35-2.42,5.61-3.37
		c2.26-0.95,4.71-1.54,7.36-1.77L228.77,58.88z"/>
	<path d="M237.04,56.96l1.4-0.12l-1.04,8.24c0.32-0.59,0.8-1.29,1.43-2.09c1.46-2.09,3.29-3.88,5.5-5.37
		c2.21-1.48,4.6-2.33,7.15-2.56c2.79-0.24,5.02,0.23,6.7,1.42c1.67,1.19,2.63,3.18,2.88,5.97c0.06,0.65,0.08,1.33,0.07,2.03
		c-0.01,0.7-0.07,1.44-0.2,2.19l-2.66,21.8l-1.39,0.12l2.7-22.16c0.16-1.42,0.19-2.71,0.08-3.87c-0.21-2.37-1.01-4.03-2.4-4.99
		c-1.4-0.96-3.28-1.33-5.65-1.12c-2.51,0.22-4.77,1.04-6.78,2.46c-2.01,1.42-3.77,3.13-5.28,5.13c-0.88,1.16-1.54,2.28-1.95,3.37
		c-0.42,1.09-0.73,2.37-0.93,3.84l-2.39,19.32l-1.39,0.12L237.04,56.96z"/>
</g>
<line class="st3" x1="55.05" y1="120.94" x2="309.58" y2="98.67"/>
<g>
	<path class="st2" d="M15.59,19.15h1.79l4.14,8.44l4.23-8.44h1.79v10.81h-1.57V22l-3.96,7.95h-0.95l-3.89-7.94v7.94h-1.58V19.15z"/>
	<path class="st2" d="M33.2,26.9c-0.31,0.09-0.67,0.18-1.1,0.26c-0.42,0.08-0.82,0.14-1.18,0.19c0.1,0.45,0.32,0.81,0.64,1.1
		c0.33,0.28,0.78,0.43,1.37,0.43c0.46,0,0.89-0.1,1.29-0.29c0.4-0.19,0.74-0.45,1.02-0.79h0.04l-0.1,1.61
		c-0.3,0.24-0.66,0.43-1.07,0.57c-0.42,0.14-0.85,0.21-1.29,0.21c-0.56,0-1.05-0.09-1.47-0.27c-0.42-0.18-0.77-0.42-1.04-0.72
		c-0.28-0.3-0.48-0.65-0.62-1.04c-0.14-0.4-0.2-0.81-0.2-1.24c0-0.51,0.09-1.02,0.28-1.5c0.19-0.49,0.45-0.92,0.78-1.3
		c0.34-0.38,0.74-0.68,1.2-0.92c0.47-0.23,0.98-0.35,1.54-0.35c0.7,0,1.24,0.17,1.62,0.52c0.38,0.35,0.57,0.78,0.57,1.3
		c0,0.52-0.18,0.97-0.53,1.34C34.6,26.38,34.01,26.68,33.2,26.9z M32.94,23.98c-0.27,0-0.53,0.07-0.77,0.21
		c-0.24,0.14-0.46,0.33-0.64,0.56c-0.19,0.23-0.34,0.5-0.46,0.81s-0.18,0.63-0.2,0.97c0.3-0.05,0.61-0.11,0.94-0.18
		c0.33-0.07,0.63-0.15,0.9-0.24c0.43-0.13,0.74-0.3,0.94-0.51c0.2-0.21,0.29-0.45,0.29-0.71c0-0.28-0.09-0.5-0.27-0.67
		S33.25,23.98,32.94,23.98z"/>
	<path class="st2" d="M37.67,23.1v-2.02l1.54-0.29v2.31h1.96v1.29h-1.96v3.26c0,0.33,0.02,0.6,0.05,0.82
		c0.03,0.22,0.09,0.41,0.17,0.57s0.2,0.3,0.34,0.42c0.15,0.12,0.33,0.24,0.55,0.36v0.11l-1.69,0.2c-0.16-0.07-0.3-0.17-0.42-0.29
		c-0.12-0.12-0.22-0.26-0.3-0.43c-0.08-0.17-0.14-0.39-0.18-0.64c-0.04-0.26-0.06-0.56-0.06-0.92v-3.46h-1.29V23.1H37.67z"/>
	<path class="st2" d="M46.63,24.62c-0.06-0.01-0.11-0.01-0.17-0.01s-0.11,0-0.17,0c-0.28,0-0.55,0.03-0.8,0.08
		c-0.25,0.05-0.49,0.13-0.7,0.23c-0.3,0.15-0.5,0.31-0.6,0.48c-0.1,0.17-0.15,0.4-0.15,0.69v3.86h-1.54V23.1h1.54v1.13
		c0.26-0.35,0.57-0.65,0.92-0.89c0.35-0.24,0.77-0.36,1.25-0.36c0.06,0,0.14,0,0.22,0.01c0.08,0,0.14,0.01,0.19,0.02V24.62z"/>
	<path class="st2" d="M50.87,30.19c-0.5,0-0.97-0.08-1.41-0.25c-0.43-0.17-0.81-0.41-1.12-0.73c-0.31-0.32-0.56-0.71-0.74-1.17
		c-0.18-0.46-0.27-0.98-0.27-1.57c0-0.56,0.09-1.06,0.27-1.51c0.18-0.45,0.42-0.83,0.74-1.14c0.32-0.31,0.69-0.55,1.12-0.71
		c0.43-0.16,0.9-0.25,1.4-0.25c0.49,0,0.96,0.08,1.39,0.23c0.43,0.15,0.81,0.39,1.13,0.69c0.32,0.31,0.57,0.69,0.75,1.13
		c0.18,0.45,0.27,0.97,0.27,1.55c0,0.63-0.1,1.17-0.29,1.64c-0.19,0.47-0.45,0.85-0.78,1.16s-0.7,0.54-1.13,0.69
		C51.79,30.12,51.34,30.19,50.87,30.19z M50.87,28.92c0.6,0,1.07-0.21,1.42-0.63s0.52-1.03,0.52-1.82c0-0.72-0.17-1.29-0.52-1.72
		c-0.35-0.42-0.82-0.64-1.42-0.64c-0.6,0-1.07,0.21-1.41,0.64c-0.35,0.42-0.52,1-0.52,1.72c0,0.36,0.04,0.7,0.13,0.99
		c0.08,0.3,0.21,0.56,0.37,0.77c0.16,0.21,0.37,0.38,0.61,0.5C50.29,28.86,50.56,28.92,50.87,28.92z"/>
	<path class="st2" d="M69.08,19.15v10.81h-1.36l-6.69-8.23v8.23h-1.58V19.15h1.37l6.68,8.19v-8.19H69.08z"/>
	<path class="st2" d="M74.57,30.19c-0.5,0-0.97-0.08-1.41-0.25c-0.43-0.17-0.81-0.41-1.12-0.73c-0.31-0.32-0.56-0.71-0.74-1.17
		c-0.18-0.46-0.27-0.98-0.27-1.57c0-0.56,0.09-1.06,0.27-1.51c0.18-0.45,0.42-0.83,0.74-1.14c0.32-0.31,0.69-0.55,1.12-0.71
		c0.43-0.16,0.9-0.25,1.4-0.25c0.49,0,0.96,0.08,1.39,0.23c0.43,0.15,0.81,0.39,1.13,0.69c0.32,0.31,0.57,0.69,0.75,1.13
		c0.18,0.45,0.27,0.97,0.27,1.55c0,0.63-0.1,1.17-0.29,1.64c-0.19,0.47-0.45,0.85-0.78,1.16s-0.7,0.54-1.13,0.69
		C75.5,30.12,75.05,30.19,74.57,30.19z M74.57,28.92c0.6,0,1.07-0.21,1.42-0.63s0.52-1.03,0.52-1.82c0-0.72-0.17-1.29-0.52-1.72
		c-0.35-0.42-0.82-0.64-1.42-0.64c-0.6,0-1.07,0.21-1.41,0.64c-0.35,0.42-0.52,1-0.52,1.72c0,0.36,0.04,0.7,0.13,0.99
		c0.08,0.3,0.21,0.56,0.37,0.77c0.16,0.21,0.37,0.38,0.61,0.5C73.99,28.86,74.26,28.92,74.57,28.92z"/>
	<path class="st2" d="M80.31,23.1l1.72,5.18l2.03-5.18h1.67l-2.97,6.86h-1.54l-2.58-6.86H80.31z"/>
	<path class="st2" d="M86.83,23.59c0.33-0.23,0.69-0.41,1.09-0.52c0.4-0.11,0.81-0.17,1.22-0.17c0.88,0,1.52,0.22,1.92,0.65
		c0.41,0.43,0.61,1.05,0.61,1.84v4.42l-1.5,0.32v-0.97c-0.32,0.27-0.67,0.5-1.05,0.68s-0.81,0.27-1.27,0.27
		c-0.56,0-1-0.14-1.33-0.42c-0.33-0.28-0.49-0.68-0.49-1.19c0-0.48,0.14-0.88,0.41-1.22c0.27-0.34,0.66-0.62,1.18-0.85
		c0.35-0.16,0.74-0.29,1.15-0.4c0.41-0.11,0.88-0.19,1.41-0.26v-0.39c0-0.38-0.11-0.68-0.32-0.89s-0.54-0.31-0.98-0.31
		c-0.35,0-0.71,0.06-1.06,0.19s-0.67,0.31-0.94,0.57h-0.04V23.59z M90.18,26.6c-0.32,0.05-0.63,0.11-0.95,0.19s-0.6,0.18-0.84,0.3
		c-0.5,0.25-0.76,0.6-0.76,1.04c0,0.25,0.07,0.45,0.22,0.6c0.15,0.14,0.37,0.22,0.67,0.22c0.28,0,0.57-0.07,0.86-0.22
		c0.29-0.15,0.56-0.37,0.79-0.67V26.6z"/>
	<path class="st2" d="M97.12,29.96V19.15h2.66c0.63,0,1.19,0.07,1.68,0.22c0.49,0.15,0.91,0.36,1.26,0.64
		c0.35,0.28,0.61,0.62,0.8,1.03c0.19,0.41,0.28,0.87,0.28,1.39c0,1.19-0.37,2.09-1.11,2.67c-0.74,0.59-1.81,0.88-3.21,0.88h-0.74
		v3.96H97.12z M98.75,24.58h0.88c1.72,0,2.58-0.69,2.58-2.07c0-0.62-0.21-1.11-0.64-1.45c-0.43-0.34-1.05-0.51-1.85-0.51h-0.97
		V24.58z"/>
	<path class="st2" d="M109.51,24.62c-0.06-0.01-0.11-0.01-0.17-0.01s-0.11,0-0.17,0c-0.28,0-0.55,0.03-0.8,0.08
		c-0.25,0.05-0.49,0.13-0.7,0.23c-0.3,0.15-0.5,0.31-0.6,0.48c-0.1,0.17-0.15,0.4-0.15,0.69v3.86h-1.54V23.1h1.54v1.13
		c0.26-0.35,0.57-0.65,0.92-0.89c0.35-0.24,0.77-0.36,1.25-0.36c0.06,0,0.14,0,0.22,0.01c0.08,0,0.14,0.01,0.19,0.02V24.62z"/>
	<path class="st2" d="M113.76,30.19c-0.5,0-0.97-0.08-1.41-0.25c-0.43-0.17-0.81-0.41-1.12-0.73c-0.31-0.32-0.56-0.71-0.74-1.17
		c-0.18-0.46-0.27-0.98-0.27-1.57c0-0.56,0.09-1.06,0.27-1.51c0.18-0.45,0.42-0.83,0.74-1.14c0.32-0.31,0.69-0.55,1.12-0.71
		c0.43-0.16,0.9-0.25,1.4-0.25c0.49,0,0.96,0.08,1.39,0.23c0.43,0.15,0.81,0.39,1.13,0.69c0.32,0.31,0.57,0.69,0.75,1.13
		c0.18,0.45,0.27,0.97,0.27,1.55c0,0.63-0.1,1.17-0.29,1.64c-0.19,0.47-0.45,0.85-0.78,1.16s-0.7,0.54-1.13,0.69
		C114.68,30.12,114.23,30.19,113.76,30.19z M113.76,28.92c0.6,0,1.07-0.21,1.42-0.63s0.52-1.03,0.52-1.82
		c0-0.72-0.17-1.29-0.52-1.72c-0.35-0.42-0.82-0.64-1.42-0.64c-0.6,0-1.07,0.21-1.41,0.64c-0.35,0.42-0.52,1-0.52,1.72
		c0,0.36,0.04,0.7,0.13,0.99c0.08,0.3,0.21,0.56,0.37,0.77c0.16,0.21,0.37,0.38,0.61,0.5C113.17,28.86,113.45,28.92,113.76,28.92z"
		/>
	<path class="st2" d="M124.6,29.96v-9.31h-3.68v-1.5h8.96v1.5h-3.67v9.31H124.6z"/>
	<path class="st2" d="M131.24,19.34l1.54-0.31v5.14c0.39-0.45,0.78-0.77,1.16-0.97c0.38-0.2,0.8-0.29,1.25-0.29
		c0.7,0,1.24,0.2,1.63,0.59s0.58,0.98,0.58,1.75v4.7h-1.54v-4.17c0-0.5-0.1-0.87-0.3-1.11c-0.2-0.23-0.51-0.35-0.93-0.35
		c-0.3,0-0.57,0.07-0.83,0.2c-0.25,0.13-0.46,0.3-0.62,0.52c-0.14,0.18-0.24,0.35-0.31,0.52s-0.1,0.4-0.1,0.7v3.7h-1.54V19.34z"/>
	<path class="st2" d="M140.34,19.64c0.28,0,0.51,0.09,0.68,0.26c0.17,0.17,0.26,0.4,0.26,0.68c0,0.27-0.09,0.49-0.26,0.67
		c-0.17,0.17-0.39,0.26-0.67,0.26c-0.28,0-0.5-0.08-0.67-0.25s-0.25-0.39-0.25-0.67c0-0.28,0.08-0.51,0.25-0.68
		C139.85,19.73,140.07,19.64,140.34,19.64z M141.11,22.93v7.03h-1.54v-6.71L141.11,22.93z"/>
	<path class="st2" d="M143.39,23.1h1.54v1.08c0.39-0.45,0.78-0.77,1.16-0.97c0.38-0.2,0.8-0.29,1.25-0.29c0.7,0,1.24,0.2,1.63,0.59
		s0.58,0.98,0.58,1.75v4.7h-1.54v-4.17c0-0.5-0.1-0.87-0.3-1.11c-0.2-0.23-0.51-0.35-0.93-0.35c-0.3,0-0.57,0.07-0.83,0.2
		c-0.25,0.14-0.46,0.31-0.62,0.51c-0.14,0.18-0.24,0.35-0.31,0.52s-0.1,0.4-0.1,0.7v3.7h-1.54V23.1z"/>
	<path class="st2" d="M155.01,29.96V19.15h1.62v10.81H155.01z"/>
	<path class="st2" d="M159.51,23.1v-2.02l1.54-0.29v2.31h1.96v1.29h-1.96v3.26c0,0.33,0.02,0.6,0.05,0.82
		c0.03,0.22,0.09,0.41,0.17,0.57s0.2,0.3,0.34,0.42s0.33,0.24,0.55,0.36v0.11l-1.69,0.2c-0.16-0.07-0.3-0.17-0.42-0.29
		c-0.12-0.12-0.22-0.26-0.3-0.43c-0.08-0.17-0.14-0.39-0.18-0.64c-0.04-0.26-0.06-0.56-0.06-0.92v-3.46h-1.29V23.1H159.51z"/>
	<path class="st2" d="M164.49,23.59c0.33-0.23,0.69-0.41,1.09-0.52c0.4-0.11,0.81-0.17,1.22-0.17c0.88,0,1.52,0.22,1.92,0.65
		c0.41,0.43,0.61,1.05,0.61,1.84v4.42l-1.5,0.32v-0.97c-0.32,0.27-0.67,0.5-1.05,0.68c-0.38,0.18-0.81,0.27-1.27,0.27
		c-0.56,0-1-0.14-1.33-0.42c-0.33-0.28-0.49-0.68-0.49-1.19c0-0.48,0.14-0.88,0.41-1.22s0.66-0.62,1.18-0.85
		c0.35-0.16,0.74-0.29,1.15-0.4c0.41-0.11,0.88-0.19,1.41-0.26v-0.39c0-0.38-0.11-0.68-0.32-0.89s-0.54-0.31-0.98-0.31
		c-0.36,0-0.71,0.06-1.06,0.19s-0.67,0.31-0.94,0.57h-0.04V23.59z M167.84,26.6c-0.32,0.05-0.63,0.11-0.95,0.19s-0.6,0.18-0.84,0.3
		c-0.5,0.25-0.76,0.6-0.76,1.04c0,0.25,0.07,0.45,0.22,0.6c0.15,0.14,0.37,0.22,0.67,0.22c0.28,0,0.57-0.07,0.86-0.22
		c0.29-0.15,0.56-0.37,0.79-0.67V26.6z"/>
	<path class="st2" d="M173.03,29.96h-1.54v-10.6l1.54-0.32V29.96z"/>
	<path class="st2" d="M176.08,19.64c0.28,0,0.51,0.09,0.68,0.26c0.17,0.17,0.26,0.4,0.26,0.68c0,0.27-0.09,0.49-0.26,0.67
		s-0.39,0.26-0.67,0.26c-0.28,0-0.5-0.08-0.67-0.25s-0.25-0.39-0.25-0.67c0-0.28,0.08-0.51,0.25-0.68
		C175.59,19.73,175.81,19.64,176.08,19.64z M176.85,22.93v7.03h-1.54v-6.71L176.85,22.93z"/>
	<path class="st2" d="M184.34,29.59c-0.24,0.16-0.56,0.3-0.95,0.42c-0.39,0.12-0.81,0.18-1.26,0.18c-0.54,0-1.03-0.08-1.46-0.24
		c-0.43-0.16-0.8-0.4-1.11-0.71c-0.3-0.31-0.54-0.68-0.7-1.12c-0.16-0.44-0.25-0.93-0.25-1.48c0-0.54,0.08-1.04,0.25-1.51
		c0.17-0.46,0.41-0.86,0.73-1.2c0.32-0.34,0.72-0.6,1.2-0.79c0.48-0.19,1.02-0.29,1.62-0.29c0.39,0,0.76,0.04,1.11,0.13
		c0.35,0.09,0.65,0.22,0.9,0.38l-0.21,1.5c-0.23-0.2-0.49-0.35-0.78-0.46c-0.29-0.11-0.61-0.17-0.99-0.17
		c-0.71,0-1.26,0.22-1.66,0.65s-0.59,1.02-0.59,1.74c0,0.31,0.05,0.59,0.14,0.86c0.09,0.27,0.23,0.49,0.41,0.69
		c0.18,0.19,0.4,0.34,0.67,0.46c0.27,0.11,0.57,0.17,0.92,0.17c0.46,0,0.86-0.08,1.2-0.23c0.34-0.15,0.67-0.39,0.99-0.72h0.04
		L184.34,29.59z"/>
</g>
<g>
	<g>
		<g>
			<path class="st2" d="M191.24,25.25h21.33h2.46h1.17c0.08,0.02,0.24-0.04,0.25,0.04v0.29v0.59v5.06v9.18h-2.89l0.82,1.42
				l2.47,4.28l2.47-4.28l0.82-1.42h-2.89v-9.18v-5.6v-0.75v-0.37c0.03-0.09-0.09-0.04-0.13-0.05h-0.19h-1.49h-2.87h-21.33V25.25z"/>
		</g>
	</g>
</g>
<g>
</g>
<g>
</g>
<g>
</g>
<g>
</g>
<g>
</g>
<g>
</g>
</svg>
