<?xml version="1.0" encoding="utf-8"?>
<!-- Generator: Adobe Illustrator 21.1.0, SVG Export Plug-In . SVG Version: 6.00 Build 0)  -->
<svg version="1.1" id="レイヤー_1" xmlns="http://www.w3.org/2000/svg" xmlns:xlink="http://www.w3.org/1999/xlink" x="0px"
	 y="0px" viewBox="0 0 500 150" style="enable-background:new 0 0 500 150;" xml:space="preserve">
<style type="text/css">
	.st0{fill:#35467F;}
	.st1{fill:#FFFFFF;}
</style>
<path class="st0" d="M470.7,67.2c0-1.6,0.4-3,1.1-4.3c-1.5,2.6-4.3,4.3-7.5,4.3c-3.1,0-5.9-1.7-7.4-4.2c0.7,1.2,1.1,2.7,1.1,4.2
	c0,4.8-3.9,8.7-8.7,8.7c4.8,0,8.7,3.9,8.7,8.7c0,1.5-0.4,2.9-1.1,4.2c1.5-2.5,4.3-4.2,7.4-4.2c3.2,0,6,1.7,7.5,4.3
	c-0.7-1.3-1.1-2.7-1.1-4.3c0-4.8,3.9-8.7,8.7-8.7C474.6,75.8,470.7,72,470.7,67.2z"/>
<path class="st0" d="M498.6,16.4c-1.5,2.6-4.3,4.3-7.5,4.3c-3.1,0-5.9-1.7-7.4-4.2c0.7,1.2,1.1,2.7,1.1,4.2c0,4.8-3.9,8.7-8.7,8.7
	c4.8,0,8.7,3.9,8.7,8.7c0,1.5-0.4,2.9-1.1,4.2c1.5-2.5,4.3-4.2,7.4-4.2c3.2,0,6,1.7,7.5,4.3c-0.7-1.3-1.1-2.7-1.1-4.3
	c0-2.4,1-4.5,2.5-6.1v-5.2c-1.5-1.6-2.5-3.7-2.5-6.1C497.5,19.2,497.9,17.7,498.6,16.4z"/>
<path class="st1" d="M471.8,62.8l-7.5-4.3l-7.5,4.3c0,0,0,0.1,0.1,0.1l-0.1-0.1l-7.5,4.3v8.7c4.8,0,8.7-3.9,8.7-8.7
	c0-1.5-0.4-2.9-1.1-4.2c1.5,2.5,4.3,4.2,7.4,4.2C467.5,67.2,470.3,65.5,471.8,62.8c-0.8,1.3-1.2,2.8-1.2,4.3c0,4.8,3.9,8.7,8.7,8.7
	v-8.7L471.8,62.8z"/>
<path d="M471.8,88.8l-7.5,4.3l-7.5-4.3c0,0,0-0.1,0.1-0.1l-0.1,0.1l-7.5-4.3v-8.7c-4.8,0-8.7,3.9-8.7,8.7c0,4.8,3.9,8.7,8.7,8.7
	c3.1,0,5.9-1.7,7.4-4.2c-0.7,1.2-1.1,2.7-1.1,4.2c0,4.8,3.9,8.7,8.7,8.7s8.7-3.9,8.7-8.7C473,91.6,472.6,90.1,471.8,88.8
	c1.5,2.6,4.3,4.3,7.5,4.3c4.8,0,8.7-3.9,8.7-8.7c0-4.8-3.9-8.7-8.7-8.7v8.7L471.8,88.8z"/>
<path class="st1" d="M470.7,84.5c0,1.6,0.4,3,1.1,4.3c-1.5-2.6-4.3-4.3-7.5-4.3c-3.1,0-5.9,1.7-7.4,4.2c0.7-1.2,1.1-2.7,1.1-4.2
	c0-4.8-3.9-8.7-8.7-8.7v8.7l7.5,4.3c0,0,0-0.1,0.1-0.1c0,0,0,0.1-0.1,0.1l7.5,4.3l7.5-4.3l7.5-4.3v-8.7
	C474.6,75.8,470.7,79.7,470.7,84.5z"/>
<path d="M455.7,58.5c0,1.5,0.4,2.9,1.1,4.2c-1.5-2.5-4.3-4.2-7.4-4.2c-4.8,0-8.7,3.9-8.7,8.7s3.9,8.7,8.7,8.7v-8.7l7.5-4.3
	c0,0,0,0.1,0.1,0.1c0,0,0-0.1-0.1-0.1l7.5-4.3l7.5,4.3l7.5,4.3v8.7c4.8,0,8.7-3.9,8.7-8.7s-3.9-8.7-8.7-8.7c-3.2,0-6,1.7-7.5,4.3
	c0.7-1.3,1.1-2.7,1.1-4.3c0-4.8-3.9-8.7-8.7-8.7S455.7,53.7,455.7,58.5z"/>
<path class="st1" d="M494.3,84.5c0,3.7,2.4,6.9,5.7,8.1V76.4C496.7,77.6,494.3,80.8,494.3,84.5z"/>
<path class="st1" d="M494.3,67.2c0,3.7,2.4,6.9,5.7,8.1V59.1C496.7,60.3,494.3,63.5,494.3,67.2z"/>
<path d="M498.6,42.3c-1.5-2.6-4.3-4.3-7.5-4.3c-3.1,0-5.9,1.7-7.4,4.2c0.7-1.2,1.1-2.7,1.1-4.2c0-4.8-3.9-8.7-8.7-8.7V38l7.5,4.3
	c0,0,0,0.1-0.1,0.1l0.1-0.1l7.5,4.3L498.6,42.3l1.4-0.7V32c-1.5,1.6-2.5,3.7-2.5,6.1C497.5,39.6,497.9,41,498.6,42.3z"/>
<path class="st1" d="M491.2,46.7l-7.5-4.3c0,0,0,0.1-0.1,0.1c0,0,0-0.1,0.1-0.1l-7.5-4.3v-8.7c-4.8,0-8.7,3.9-8.7,8.7
	s3.9,8.7,8.7,8.7c3.1,0,5.9-1.7,7.4-4.2c-0.7,1.2-1.1,2.7-1.1,4.2c0,4.8,3.9,8.7,8.7,8.7c4.8,0,8.7-3.9,8.7-8.7c0-1.6-0.4-3-1.1-4.3
	c0.4,0.6,0.8,1.2,1.3,1.7v-2.5l-1.3,0.8L491.2,46.7z"/>
<path class="st1" d="M499.8,12c0-4.8-3.9-8.7-8.7-8.7c-4.8,0-8.7,3.9-8.7,8.7c0,1.5,0.4,2.9,1.1,4.2c-1.5-2.5-4.3-4.2-7.4-4.2
	c-4.8,0-8.7,3.9-8.7,8.7s3.9,8.7,8.7,8.7v-8.7l7.5-4.3c0,0,0-0.1-0.1-0.1l0.1,0.1l7.5-4.3l7.5,4.3l1.3,0.8v-2.5
	c-0.5,0.5-0.9,1.1-1.3,1.7C499.4,15.1,499.8,13.6,499.8,12z"/>
<path d="M491.2,12l-7.5,4.3c0,0,0-0.1-0.1-0.1c0,0,0,0.1,0.1,0.1l-7.5,4.3v8.7c4.8,0,8.7-3.9,8.7-8.7c0-1.5-0.4-2.9-1.1-4.2
	c1.5,2.5,4.3,4.2,7.4,4.2c3.2,0,6-1.7,7.5-4.3c-0.7,1.3-1.1,2.7-1.1,4.3c0,2.4,1,4.5,2.5,6.1v-9.6l-1.3-0.8L491.2,12z"/>
<path class="st1" d="M481.2,0h-3.7c0.6,0.1,1.2,0.2,1.8,0.2C480,0.2,480.6,0.1,481.2,0z"/>
<path class="st1" d="M464.3,8.9c4.8,0,8.7-3.9,8.7-8.7c0-0.1,0-0.1,0-0.2h-8.3l-0.4,0.2L464,0h-8.3c0,0.1,0,0.1,0,0.2
	C455.7,5,459.6,8.9,464.3,8.9z"/>
<polygon points="464.7,0 464,0 464.3,0.2 "/>
<path class="st1" d="M449.3,0.2c0.6,0,1.3-0.1,1.8-0.2h-3.7C448.1,0.1,448.7,0.2,449.3,0.2z"/>
<path class="st0" d="M498.6,109.4c-0.2,0.3-0.4,0.6-0.6,0.9c-0.5,0.6-1,1.1-1.6,1.6c-0.3,0.2-0.6,0.4-0.9,0.6
	c-1.3,0.7-2.8,1.2-4.4,1.2c-2.4,0-4.5-0.9-6-2.5c-0.5-0.5-1-1.1-1.4-1.7c0.7,1.2,1.1,2.7,1.1,4.2c0,4.8-3.9,8.7-8.7,8.7
	c4.8,0,8.7,3.9,8.7,8.7c0,1.5-0.4,2.9-1.1,4.2c0.4-0.6,0.8-1.2,1.4-1.7c1.6-1.5,3.7-2.5,6-2.5c1.6,0,3.1,0.4,4.4,1.2
	c0.3,0.2,0.6,0.4,0.9,0.6c0.6,0.5,1.1,1,1.6,1.6c0.2,0.3,0.4,0.6,0.6,0.9c-0.7-1.3-1.1-2.7-1.1-4.3c0-2.4,1-4.5,2.5-6.1v-5.2
	c-1.5-1.6-2.5-3.7-2.5-6.1C497.5,112.1,497.9,110.6,498.6,109.4z"/>
<path class="st0" d="M447,120.3c-0.6-0.5-1.2-1.1-1.7-1.8c-0.3-0.5-0.6-1-0.8-1.5c-0.4-1-0.7-2.2-0.7-3.4c0-1.6,0.4-3,1.1-4.3
	c-1.5,2.6-4.3,4.3-7.5,4.3c-3.1,0-5.9-1.7-7.4-4.2c0.7,1.2,1.1,2.7,1.1,4.2c0,4.8-3.9,8.7-8.7,8.7c4.8,0,8.7,3.9,8.7,8.7
	c0,1.5-0.4,2.9-1.1,4.2c1.5-2.5,4.3-4.2,7.4-4.2c3.2,0,6,1.7,7.5,4.3c-0.7-1.3-1.1-2.7-1.1-4.3c0-1.2,0.2-2.3,0.7-3.4
	c0.2-0.5,0.5-1,0.8-1.5c0.5-0.7,1-1.3,1.7-1.8c1.3-1.1,2.9-1.8,4.6-1.9c0.3,0,0.6,0,0.9,0c-0.3,0-0.6,0-0.9,0
	C449.9,122.1,448.3,121.4,447,120.3z"/>
<path class="st1" d="M464.3,142.8c-4.3,0-7.8,3.1-8.5,7.2h17.1C472.2,145.9,468.6,142.8,464.3,142.8z"/>
<path class="st1" d="M447.2,106.8c-0.9,0.7-1.6,1.5-2.2,2.5c0.7-1.3,1.1-2.7,1.1-4.3c0-4.8-3.9-8.7-8.7-8.7c-1.8,0-3.5,0.5-4.8,1.5
	c-2.3,1.6-3.8,4.2-3.8,7.2l0,0c0,1.1,0.2,2.2,0.6,3.2c0.1,0.3,0.3,0.7,0.5,1c-1.5-2.5-4.3-4.2-7.4-4.2c-4.8,0-8.7,3.9-8.7,8.7
	c0,4.8,3.9,8.7,8.7,8.7v-8.7l7.5-4.3c0,0,0-0.1-0.1-0.1l0.1,0.1l7.5-4.3l7.5,4.3l7.5,4.3v8.7c1.2,0,2.3-0.2,3.4-0.7s2-1.1,2.8-1.9
	c0.2-0.2,0.4-0.4,0.6-0.6c0.4-0.4,0.7-0.9,0.9-1.4c0.7-1.2,1-2.6,1-4.1s-0.4-2.9-1-4.1c-0.3-0.5-0.6-1-0.9-1.4
	c-0.2-0.2-0.4-0.4-0.6-0.6c-0.8-0.8-1.7-1.4-2.8-1.9c-1-0.4-2.2-0.7-3.4-0.7c-1.2,0-2.3,0.2-3.4,0.7
	C448.5,106,447.8,106.3,447.2,106.8z"/>
<path d="M445,109.3l-7.5-4.3l-7.5,4.3c0,0,0-0.1-0.1-0.1c0,0,0,0.1,0.1,0.1l-7.5,4.3v8.7c4.8,0,8.7-3.9,8.7-8.7
	c0-1.5-0.4-2.9-1.1-4.2c1.5,2.5,4.3,4.2,7.4,4.2C440.7,113.6,443.5,111.9,445,109.3c-0.8,1.3-1.2,2.8-1.2,4.3c0,1.2,0.2,2.3,0.7,3.4
	c0.2,0.5,0.5,1,0.8,1.5c0.5,0.7,1,1.3,1.7,1.8c1.3,1.1,2.9,1.8,4.6,1.9c0.3,0,0.6,0,0.9,0v-8.7L445,109.3z"/>
<path class="st1" d="M445,135.3l-7.5,4.3l-7.5-4.3c0,0,0,0.1-0.1,0.1c0,0,0-0.1,0.1-0.1l-7.5-4.3v-8.7c-4.8,0-8.7,3.9-8.7,8.7
	c0,4.8,3.9,8.7,8.7,8.7c3.1,0,5.9-1.7,7.4-4.2c-0.2,0.3-0.3,0.6-0.5,1c-0.4,1-0.6,2.1-0.6,3.2c0,3,1.5,5.6,3.8,7.2
	c1.4,0.9,3,1.5,4.8,1.5c4.8,0,8.7-3.9,8.7-8.7C446.2,138.1,445.8,136.6,445,135.3c0.6,1,1.3,1.9,2.2,2.5c0.6,0.5,1.2,0.8,1.9,1.1
	c1,0.4,2.2,0.7,3.4,0.7c1.2,0,2.3-0.2,3.4-0.7s2-1.1,2.8-1.9c0.2-0.2,0.4-0.4,0.6-0.6c0.4-0.4,0.7-0.9,0.9-1.4c0.7-1.2,1-2.6,1-4.1
	s-0.4-2.9-1-4.1c-0.3-0.5-0.6-1-0.9-1.4c-0.2-0.2-0.4-0.4-0.6-0.6c-0.8-0.8-1.7-1.4-2.8-1.9c-1-0.4-2.2-0.7-3.4-0.7v8.7L445,135.3z"
	/>
<path d="M447,124.3c-0.6,0.5-1.2,1.1-1.7,1.8c-0.3,0.5-0.6,1-0.8,1.5c-0.4,1-0.7,2.2-0.7,3.4c0,1.6,0.4,3,1.1,4.3
	c-1.5-2.6-4.3-4.3-7.5-4.3c-3.1,0-5.9,1.7-7.4,4.2c0.7-1.2,1.1-2.7,1.1-4.2c0-4.8-3.9-8.7-8.7-8.7v8.7l7.5,4.3c0,0,0,0.1-0.1,0.1
	l0.1-0.1l7.5,4.3l7.5-4.3l7.5-4.3v-8.7c-0.3,0-0.6,0-0.9,0C449.9,122.5,448.3,123.2,447,124.3z"/>
<path class="st1" d="M498.6,135.2c-0.2-0.3-0.4-0.6-0.6-0.9c-0.5-0.6-1-1.1-1.6-1.6c-0.3-0.2-0.6-0.4-0.9-0.6
	c-1.3-0.7-2.8-1.2-4.4-1.2c-2.4,0-4.5,0.9-6,2.5c-0.5,0.5-1,1.1-1.4,1.7c0.7-1.2,1.1-2.7,1.1-4.2c0-4.8-3.9-8.7-8.7-8.7v8.7l7.5,4.3
	c0,0,0-0.1,0.1-0.1c0,0,0,0.1-0.1,0.1l7.5,4.3L498.6,135.2l1.4-0.7v-9.6c-1.5,1.6-2.5,3.7-2.5,6.1
	C497.5,132.5,497.9,134,498.6,135.2z"/>
<path d="M491.2,139.6l-7.5-4.3c0,0,0-0.1,0.1-0.1l-0.1,0.1l-7.5-4.3v-8.7c-4.8,0-8.7,3.9-8.7,8.7c0,4.8,3.9,8.7,8.7,8.7
	c2.4,0,4.5-0.9,6-2.5c0.5-0.5,1-1.1,1.4-1.7c-0.2,0.3-0.3,0.6-0.5,1c-0.4,1-0.6,2.1-0.6,3.2c0,1.8,0.5,3.5,1.5,4.8
	c0.3,0.5,0.7,0.9,1.1,1.3c0.4,0.4,0.8,0.7,1.3,1.1c1.4,0.9,3,1.5,4.8,1.5s3.5-0.5,4.8-1.5c0.5-0.3,0.9-0.7,1.3-1.1
	c0.4-0.4,0.7-0.8,1.1-1.3c0.9-1.4,1.5-3,1.5-4.8c0-1.6-0.4-3-1.1-4.3c0.4,0.6,0.8,1.2,1.3,1.7v-2.5l-1.3,0.8L491.2,139.6z"/>
<path d="M499.8,105c0-1.8-0.5-3.5-1.5-4.8c-0.3-0.5-0.7-0.9-1.1-1.3s-0.8-0.7-1.3-1.1c-1.4-0.9-3-1.5-4.8-1.5s-3.5,0.5-4.8,1.5
	c-0.5,0.3-0.9,0.7-1.3,1.1s-0.7,0.8-1.1,1.3c-0.9,1.4-1.5,3-1.5,4.8c0,1.1,0.2,2.2,0.6,3.2c0.1,0.3,0.3,0.7,0.5,1
	c-0.4-0.6-0.8-1.2-1.4-1.7c-1.6-1.5-3.7-2.5-6-2.5c-4.8,0-8.7,3.9-8.7,8.7c0,4.8,3.9,8.7,8.7,8.7v-8.7l7.5-4.3c0,0,0,0.1,0.1,0.1
	c0,0,0-0.1-0.1-0.1l7.5-4.3l7.5,4.3l1.3,0.8v-2.5c-0.5,0.5-0.9,1.1-1.3,1.7C499.4,108,499.8,106.5,499.8,105z"/>
<path class="st1" d="M491.2,105l-7.5,4.3c0,0,0,0.1,0.1,0.1l-0.1-0.1l-7.5,4.3v8.7c4.8,0,8.7-3.9,8.7-8.7c0-1.5-0.4-2.9-1.1-4.2
	c0.4,0.6,0.8,1.2,1.4,1.7c1.6,1.5,3.7,2.5,6,2.5c1.6,0,3.1-0.4,4.4-1.2c0.3-0.2,0.6-0.4,0.9-0.6c0.6-0.5,1.1-1,1.6-1.6
	c0.2-0.3,0.4-0.6,0.6-0.9c-0.7,1.3-1.1,2.7-1.1,4.3c0,2.4,1,4.5,2.5,6.1v-9.6l-1.3-0.8L491.2,105z"/>
<path class="st0" d="M363.4,67.2c0-1.6,0.4-3,1.1-4.3c-1.5,2.6-4.3,4.3-7.5,4.3c-3.1,0-5.9-1.7-7.4-4.2c0.7,1.2,1.1,2.7,1.1,4.2
	c0,4.8-3.9,8.7-8.7,8.7c4.8,0,8.7,3.9,8.7,8.7c0,1.5-0.4,2.9-1.1,4.2c1.5-2.5,4.3-4.2,7.4-4.2c3.2,0,6,1.7,7.5,4.3
	c-0.7-1.3-1.1-2.7-1.1-4.3c0-4.8,3.9-8.7,8.7-8.7C367.2,75.8,363.4,72,363.4,67.2z"/>
<path class="st0" d="M431.2,38c0,1.5-0.4,2.9-1.1,4.2c1.5-2.5,4.3-4.2,7.4-4.2c3.2,0,6,1.7,7.5,4.3c-0.7-1.3-1.1-2.7-1.1-4.3
	c0-4.8,3.9-8.7,8.7-8.7c-4.8,0-8.7-3.9-8.7-8.7c0-1.6,0.4-3,1.1-4.3c-1.5,2.6-4.3,4.3-7.5,4.3c-3.1,0-5.9-1.7-7.4-4.2
	c0.7,1.2,1.1,2.7,1.1,4.2c0,4.8-3.9,8.7-8.7,8.7C427.3,29.4,431.2,33.2,431.2,38z"/>
<path class="st0" d="M417,67.2c0-1.6,0.4-3,1.1-4.3c-1.5,2.6-4.3,4.3-7.5,4.3c-3.1,0-5.9-1.7-7.4-4.2c0.7,1.2,1.1,2.7,1.1,4.2
	c0,4.8-3.9,8.7-8.7,8.7c4.8,0,8.7,3.9,8.7,8.7c0,1.5-0.4,2.9-1.1,4.2c1.5-2.5,4.3-4.2,7.4-4.2c3.2,0,6,1.7,7.5,4.3
	c-0.7-1.3-1.1-2.7-1.1-4.3c0-4.8,3.9-8.7,8.7-8.7C420.9,75.8,417,72,417,67.2z"/>
<path class="st0" d="M377.5,38c0,1.5-0.4,2.9-1.1,4.2c1.5-2.5,4.3-4.2,7.4-4.2c3.2,0,6,1.7,7.5,4.3c-0.7-1.3-1.1-2.7-1.1-4.3
	c0-4.8,3.9-8.7,8.7-8.7c-4.8,0-8.7-3.9-8.7-8.7c0-1.6,0.4-3,1.1-4.3c-1.5,2.6-4.3,4.3-7.5,4.3c-3.1,0-5.9-1.7-7.4-4.2
	c0.7,1.2,1.1,2.7,1.1,4.2c0,4.8-3.9,8.7-8.7,8.7C373.6,29.4,377.5,33.2,377.5,38z"/>
<path class="st1" d="M364.5,62.8l-7.5-4.3l-7.5,4.3c0,0,0,0.1,0.1,0.1l-0.1-0.1l-7.5,4.3v8.7c4.8,0,8.7-3.9,8.7-8.7
	c0-1.5-0.4-2.9-1.1-4.2c1.5,2.5,4.3,4.2,7.4,4.2C360.2,67.2,363,65.5,364.5,62.8c-0.8,1.3-1.2,2.8-1.2,4.3c0,4.8,3.9,8.7,8.7,8.7
	v-8.7L364.5,62.8z"/>
<path d="M364.5,88.8l-7.5,4.3l-7.5-4.3c0,0,0-0.1,0.1-0.1l-0.1,0.1l-7.5-4.3v-8.7c-4.8,0-8.7,3.9-8.7,8.7c0,4.8,3.9,8.7,8.7,8.7
	c3.1,0,5.9-1.7,7.4-4.2c-0.7,1.2-1.1,2.7-1.1,4.2c0,4.8,3.9,8.7,8.7,8.7s8.7-3.9,8.7-8.7C365.7,91.6,365.3,90.1,364.5,88.8
	c1.5,2.6,4.3,4.3,7.5,4.3c4.8,0,8.7-3.9,8.7-8.7c0-4.8-3.9-8.7-8.7-8.7v8.7L364.5,88.8z"/>
<path class="st1" d="M363.4,84.5c0,1.6,0.4,3,1.1,4.3c-1.5-2.6-4.3-4.3-7.5-4.3c-3.1,0-5.9,1.7-7.4,4.2c0.7-1.2,1.1-2.7,1.1-4.2
	c0-4.8-3.9-8.7-8.7-8.7v8.7l7.5,4.3c0,0,0-0.1,0.1-0.1c0,0,0,0.1-0.1,0.1l7.5,4.3l7.5-4.3l7.5-4.3v-8.7
	C367.2,75.8,363.4,79.7,363.4,84.5z"/>
<path d="M348.4,58.5c0,1.5,0.4,2.9,1.1,4.2c-1.5-2.5-4.3-4.2-7.4-4.2c-4.8,0-8.7,3.9-8.7,8.7s3.9,8.7,8.7,8.7v-8.7l7.5-4.3
	c0,0,0,0.1,0.1,0.1c0,0,0-0.1-0.1-0.1l7.5-4.3l7.5,4.3l7.5,4.3v8.7c4.8,0,8.7-3.9,8.7-8.7s-3.9-8.7-8.7-8.7c-3.2,0-6,1.7-7.5,4.3
	c0.7-1.3,1.1-2.7,1.1-4.3c0-4.8-3.9-8.7-8.7-8.7S348.4,53.7,348.4,58.5z"/>
<path d="M418.2,62.8l-7.5-4.3l-7.5,4.3c0,0,0-0.1-0.1-0.1c0,0,0,0.1,0.1,0.1l-7.5,4.3v8.7c4.8,0,8.7-3.9,8.7-8.7
	c0-1.5-0.4-2.9-1.1-4.2c1.5,2.5,4.3,4.2,7.4,4.2C413.9,67.2,416.6,65.5,418.2,62.8c-0.8,1.3-1.2,2.8-1.2,4.3c0,4.8,3.9,8.7,8.7,8.7
	v-8.7L418.2,62.8z"/>
<path class="st1" d="M418.2,88.8l-7.5,4.3l-7.5-4.3c0,0,0,0.1-0.1,0.1c0,0,0-0.1,0.1-0.1l-7.5-4.3v-8.7c-4.8,0-8.7,3.9-8.7,8.7
	c0,4.8,3.9,8.7,8.7,8.7c3.1,0,5.9-1.7,7.4-4.2c-0.7,1.2-1.1,2.7-1.1,4.2c0,4.8,3.9,8.7,8.7,8.7c4.8,0,8.7-3.9,8.7-8.7
	C419.3,91.6,418.9,90.1,418.2,88.8c1.5,2.6,4.3,4.3,7.5,4.3c4.8,0,8.7-3.9,8.7-8.7c0-4.8-3.9-8.7-8.7-8.7v8.7L418.2,88.8z"/>
<path d="M417,84.5c0,1.6,0.4,3,1.1,4.3c-1.5-2.6-4.3-4.3-7.5-4.3c-3.1,0-5.9,1.7-7.4,4.2c0.7-1.2,1.1-2.7,1.1-4.2
	c0-4.8-3.9-8.7-8.7-8.7v8.7l7.5,4.3c0,0,0,0.1-0.1,0.1l0.1-0.1l7.5,4.3l7.5-4.3l7.5-4.3v-8.7C420.9,75.8,417,79.7,417,84.5z"/>
<path class="st1" d="M402,58.5c0,1.5,0.4,2.9,1.1,4.2c-1.5-2.5-4.3-4.2-7.4-4.2c-4.8,0-8.7,3.9-8.7,8.7s3.9,8.7,8.7,8.7v-8.7
	l7.5-4.3c0,0,0-0.1-0.1-0.1l0.1,0.1l7.5-4.3l7.5,4.3l7.5,4.3v8.7c4.8,0,8.7-3.9,8.7-8.7s-3.9-8.7-8.7-8.7c-3.2,0-6,1.7-7.5,4.3
	c0.7-1.3,1.1-2.7,1.1-4.3c0-4.8-3.9-8.7-8.7-8.7C405.9,49.9,402,53.7,402,58.5z"/>
<path class="st1" d="M360.2,38c0,4.8,3.9,8.7,8.7,8.7c3.1,0,5.9-1.7,7.4-4.2c-0.7,1.2-1.1,2.7-1.1,4.2c0,4.8,3.9,8.7,8.7,8.7
	s8.7-3.9,8.7-8.7c0-1.6-0.4-3-1.1-4.3c1.5,2.6,4.3,4.3,7.5,4.3c4.8,0,8.7-3.9,8.7-8.7s-3.9-8.7-8.7-8.7V38l-7.5,4.3l-7.5,4.3
	l-7.5-4.3c0,0,0,0.1-0.1,0.1c0,0,0-0.1,0.1-0.1L369,38v-8.7C364.1,29.4,360.2,33.2,360.2,38z"/>
<path d="M376.4,42.4c0,0,0,0.1-0.1,0.1C376.3,42.4,376.3,42.4,376.4,42.4l7.5,4.3l7.5-4.3l7.5-4.3v-8.7c-4.8,0-8.7,3.9-8.7,8.7
	c0,1.6,0.4,3,1.1,4.3c-1.5-2.6-4.3-4.3-7.5-4.3C380.7,38.1,377.9,39.8,376.4,42.4c0.7-1.3,1.1-2.8,1.1-4.3c0-4.8-3.9-8.7-8.7-8.7V38
	L376.4,42.4z"/>
<path class="st1" d="M376.4,16.4c0,0,0-0.1-0.1-0.1C376.3,16.3,376.3,16.3,376.4,16.4l7.5-4.3l7.5,4.3l7.5,4.3v8.7
	c4.8,0,8.7-3.9,8.7-8.7s-3.9-8.7-8.7-8.7c-3.2,0-6,1.7-7.5,4.3c0.7-1.3,1.1-2.7,1.1-4.3c0-4.8-3.9-8.7-8.7-8.7s-8.7,3.9-8.7,8.7
	c0,1.5,0.4,2.9,1.1,4.2c-1.5-2.5-4.3-4.2-7.4-4.2c-4.8,0-8.7,3.9-8.7,8.7s3.9,8.7,8.7,8.7v-8.7L376.4,16.4z"/>
<path d="M377.5,20.7c0-1.5-0.4-2.9-1.1-4.2c1.5,2.5,4.3,4.2,7.4,4.2c3.2,0,6-1.7,7.5-4.3c-0.7,1.3-1.1,2.7-1.1,4.3
	c0,4.8,3.9,8.7,8.7,8.7v-8.7l-7.5-4.3l-7.5-4.3l-7.5,4.3c0,0,0-0.1-0.1-0.1c0,0,0,0.1,0.1,0.1l-7.5,4.3v8.7
	C373.6,29.4,377.5,25.5,377.5,20.7z"/>
<path d="M413.9,38c0,4.8,3.9,8.7,8.7,8.7c3.1,0,5.9-1.7,7.4-4.2c-0.7,1.2-1.1,2.7-1.1,4.2c0,4.8,3.9,8.7,8.7,8.7s8.7-3.9,8.7-8.7
	c0-1.6-0.4-3-1.1-4.3c1.5,2.6,4.3,4.3,7.5,4.3c4.8,0,8.7-3.9,8.7-8.7s-3.9-8.7-8.7-8.7V38l-7.5,4.3l-7.5,4.3l-7.5-4.3
	c0,0,0-0.1,0.1-0.1l-0.1,0.1l-7.5-4.3v-8.7C417.7,29.4,413.9,33.2,413.9,38z"/>
<path class="st1" d="M430,42.4c0,0,0-0.1,0.1-0.1C430.1,42.3,430,42.3,430,42.4l7.5,4.3l7.5-4.3l7.5-4.3v-8.7
	c-4.8,0-8.7,3.9-8.7,8.7c0,1.6,0.4,3,1.1,4.3c-1.5-2.6-4.3-4.3-7.5-4.3C434.3,38.1,431.5,39.8,430,42.4c0.7-1.3,1.1-2.8,1.1-4.3
	c0-4.8-3.9-8.7-8.7-8.7V38L430,42.4z"/>
<path d="M430,16.4c0,0,0,0.1,0.1,0.1L430,16.4l7.5-4.3l7.5,4.3l7.5,4.3v8.7c4.8,0,8.7-3.9,8.7-8.7s-3.9-8.7-8.7-8.7
	c-3.2,0-6,1.7-7.5,4.3c0.7-1.3,1.1-2.7,1.1-4.3c0-4.8-3.9-8.7-8.7-8.7s-8.7,3.9-8.7,8.7c0,1.5,0.4,2.9,1.1,4.2
	c-1.5-2.5-4.3-4.2-7.4-4.2c-4.8,0-8.7,3.9-8.7,8.7s3.9,8.7,8.7,8.7v-8.7L430,16.4z"/>
<path class="st1" d="M431.2,20.7c0-1.5-0.4-2.9-1.1-4.2c1.5,2.5,4.3,4.2,7.4,4.2c3.2,0,6-1.7,7.5-4.3c-0.7,1.3-1.1,2.7-1.1,4.3
	c0,4.8,3.9,8.7,8.7,8.7v-8.7l-7.5-4.3l-7.5-4.3l-7.5,4.3c0,0,0,0.1,0.1,0.1l-0.1-0.1l-7.5,4.3v8.7C427.3,29.4,431.2,25.5,431.2,20.7
	z"/>
<path class="st1" d="M373.9,0h-3.7c0.6,0.1,1.2,0.2,1.8,0.2C372.7,0.2,373.3,0.1,373.9,0z"/>
<path class="st1" d="M357,8.9c4.8,0,8.7-3.9,8.7-8.7c0-0.1,0-0.1,0-0.2h-8.3L357,0.2L356.7,0h-8.3c0,0.1,0,0.1,0,0.2
	C348.4,5,352.2,8.9,357,8.9z"/>
<polygon points="357.4,0 356.7,0 357,0.2 "/>
<path class="st1" d="M342,0.2c0.6,0,1.3-0.1,1.8-0.2h-3.7C340.7,0.1,341.4,0.2,342,0.2z"/>
<path d="M427.6,0h-3.7c0.6,0.1,1.2,0.2,1.8,0.2C426.3,0.2,427,0.1,427.6,0z"/>
<path d="M410.7,8.9c4.8,0,8.7-3.9,8.7-8.7c0-0.1,0-0.1,0-0.2h-8.3l-0.4,0.2L410.3,0H402c0,0.1,0,0.1,0,0.2
	C402,5,405.9,8.9,410.7,8.9z"/>
<polygon class="st1" points="411.1,0 410.3,0 410.7,0.2 "/>
<path d="M397.5,0h-3.7c0.6,0.1,1.2,0.2,1.9,0.2C396.3,0.2,396.9,0.1,397.5,0z"/>
<path class="st0" d="M390.2,113.6c0-1.2,0.2-2.3,0.6-3.3c0.1-0.3,0.3-0.7,0.5-1c-0.9,1.6-2.4,2.9-4.1,3.6c-1,0.4-2.2,0.7-3.4,0.7
	c-3.1,0-5.9-1.7-7.4-4.2c0.7,1.2,1.1,2.7,1.1,4.2c0,4.8-3.9,8.7-8.7,8.7c4.8,0,8.7,3.9,8.7,8.7c0,1.5-0.4,2.9-1.1,4.2
	c1.5-2.5,4.3-4.2,7.4-4.2c1.2,0,2.3,0.2,3.4,0.7c1.7,0.7,3.2,2,4.1,3.6c-0.2-0.3-0.3-0.6-0.5-1c-0.4-1-0.6-2.1-0.6-3.3
	c0-4.8,3.9-8.7,8.7-8.7C394.1,122.3,390.2,118.4,390.2,113.6z"/>
<path class="st0" d="M336.5,113.6c0-1.6,0.4-3,1.1-4.3c-1.5,2.6-4.3,4.3-7.5,4.3c-3.1,0-5.9-1.7-7.4-4.2c0.7,1.2,1.1,2.7,1.1,4.2
	c0,3-1.5,5.6-3.8,7.2c-1.4,0.9-3,1.5-4.8,1.5c1.8,0,3.5,0.5,4.8,1.5c2.3,1.6,3.8,4.2,3.8,7.2c0,1.5-0.4,2.9-1.1,4.2
	c1.5-2.5,4.3-4.2,7.4-4.2c3.2,0,6,1.7,7.5,4.3c-0.7-1.3-1.1-2.7-1.1-4.3c0-4.8,3.9-8.7,8.7-8.7C340.4,122.3,336.5,118.4,336.5,113.6
	z"/>
<path class="st1" d="M357,142.8c-4.3,0-7.8,3.1-8.5,7.2h17.1C364.9,145.9,361.3,142.8,357,142.8z"/>
<path d="M410.7,142.8c-4.3,0-7.8,3.1-8.5,7.2h17.1C418.5,145.9,415,142.8,410.7,142.8z"/>
<path class="st1" d="M353.9,113.6c0-4.8-3.9-8.7-8.7-8.7c-3.2,0-6,1.7-7.5,4.3c0.7-1.3,1.1-2.7,1.1-4.3c0-4.8-3.9-8.7-8.7-8.7
	c-4.8,0-8.7,3.9-8.7,8.7c0,1.5,0.4,2.9,1.1,4.2c-1.5-2.5-4.3-4.2-7.4-4.2c-4.8,0-8.7,3.9-8.7,8.7c0,4.8,3.9,8.7,8.7,8.7v-8.7
	l7.5-4.3c0,0,0-0.1-0.1-0.1l0.1,0.1l7.5-4.3l7.5,4.3l7.5,4.3v8.7C350,122.3,353.9,118.4,353.9,113.6z"/>
<path d="M337.7,109.3l-7.5-4.3l-7.5,4.3c0,0,0-0.1-0.1-0.1c0,0,0,0.1,0.1,0.1l-7.5,4.3v8.7c1.8,0,3.5-0.5,4.8-1.5
	c2.3-1.6,3.8-4.2,3.8-7.2c0-1.5-0.4-2.9-1.1-4.2c1.5,2.5,4.3,4.2,7.4,4.2C333.4,113.6,336.2,111.9,337.7,109.3
	c-0.8,1.3-1.2,2.8-1.2,4.3c0,4.8,3.9,8.7,8.7,8.7v-8.7L337.7,109.3z"/>
<path class="st1" d="M337.7,135.3l-7.5,4.3l-7.5-4.3c0,0,0,0.1-0.1,0.1c0,0,0-0.1,0.1-0.1l-7.5-4.3v-8.7c-4.8,0-8.7,3.9-8.7,8.7
	c0,4.8,3.9,8.7,8.7,8.7c3.1,0,5.9-1.7,7.4-4.2c-0.7,1.2-1.1,2.7-1.1,4.2c0,4.8,3.9,8.7,8.7,8.7c4.8,0,8.7-3.9,8.7-8.7
	C338.9,138.1,338.4,136.6,337.7,135.3c1.5,2.6,4.3,4.3,7.5,4.3c4.8,0,8.7-3.9,8.7-8.7s-3.9-8.7-8.7-8.7v8.7L337.7,135.3z"/>
<path d="M336.5,131c0,1.6,0.4,3,1.1,4.3c-1.5-2.6-4.3-4.3-7.5-4.3c-3.1,0-5.9,1.7-7.4,4.2c0.7-1.2,1.1-2.7,1.1-4.2
	c0-3-1.5-5.6-3.8-7.2c-1.4-0.9-3-1.5-4.8-1.5v8.7l7.5,4.3c0,0,0,0.1-0.1,0.1l0.1-0.1l7.5,4.3l7.5-4.3l7.5-4.3v-8.7
	C340.4,122.3,336.5,126.2,336.5,131z"/>
<path d="M407.5,113.6c0-4.8-3.9-8.7-8.7-8.7c-3.2,0-6,1.7-7.5,4.3c0.4-0.6,0.6-1.3,0.8-2s0.3-1.5,0.3-2.2l0,0c0-3-1.5-5.6-3.8-7.2
	c-1.4-0.9-3-1.5-4.8-1.5c-4.8,0-8.7,3.9-8.7,8.7c0,0.8,0.1,1.5,0.3,2.2c0.2,0.7,0.4,1.4,0.8,2c-1.5-2.5-4.3-4.2-7.4-4.2
	c-0.3,0-0.6,0-0.9,0c-4.4,0.4-7.8,4.1-7.8,8.6s3.4,8.2,7.8,8.6c0.3,0,0.6,0,0.9,0v-8.7l7.5-4.3c0,0,0,0.1,0.1,0.1c0,0,0-0.1-0.1-0.1
	l7.5-4.3l7.5,4.3l7.5,4.3v8.7C403.6,122.3,407.5,118.4,407.5,113.6z"/>
<path class="st1" d="M391.4,109.3l-7.5-4.3l-7.5,4.3c0,0,0,0.1,0.1,0.1l-0.1-0.1l-7.5,4.3v8.7c4.8,0,8.7-3.9,8.7-8.7
	c0-1.5-0.4-2.9-1.1-4.2c1.5,2.5,4.3,4.2,7.4,4.2c1.2,0,2.3-0.2,3.4-0.7C388.9,112.2,390.4,111,391.4,109.3c-0.2,0.4-0.4,0.7-0.5,1
	c-0.4,1-0.6,2.1-0.6,3.3c0,4.8,3.9,8.7,8.7,8.7v-8.7L391.4,109.3z"/>
<path d="M391.4,135.3l-7.5,4.3l-7.5-4.3c0,0,0-0.1,0.1-0.1l-0.1,0.1l-7.5-4.3v-8.7c-0.3,0-0.6,0-0.9,0c-4.4,0.4-7.8,4.1-7.8,8.6
	c0,4.5,3.4,8.2,7.8,8.6c0.3,0,0.6,0,0.9,0c3.1,0,5.9-1.7,7.4-4.2c-0.3,0.6-0.6,1.3-0.8,2c-0.2,0.7-0.3,1.4-0.3,2.2
	c0,4.8,3.9,8.7,8.7,8.7c1.8,0,3.5-0.5,4.8-1.5c2.3-1.6,3.8-4.2,3.8-7.2c0-0.8-0.1-1.5-0.3-2.2C392,136.7,391.7,136,391.4,135.3
	c1.5,2.6,4.3,4.3,7.5,4.3c4.8,0,8.7-3.9,8.7-8.7s-3.9-8.7-8.7-8.7v8.7L391.4,135.3z"/>
<path class="st1" d="M390.2,131c0,1.2,0.2,2.3,0.6,3.3c0.1,0.3,0.3,0.7,0.5,1c-0.9-1.6-2.4-2.9-4.1-3.6c-1-0.4-2.2-0.7-3.4-0.7
	c-3.1,0-5.9,1.7-7.4,4.2c0.7-1.2,1.1-2.7,1.1-4.2c0-4.8-3.9-8.7-8.7-8.7v8.7l7.5,4.3c0,0,0-0.1,0.1-0.1c0,0,0,0.1-0.1,0.1l7.5,4.3
	l7.5-4.3l7.5-4.3v-8.7C394.1,122.3,390.2,126.2,390.2,131z"/>
<path class="st0" d="M323.9,38c0,1.5-0.4,2.9-1.1,4.2c1.5-2.5,4.3-4.2,7.4-4.2c3.2,0,6,1.7,7.5,4.3c-0.7-1.3-1.1-2.7-1.1-4.3
	c0-4.8,3.9-8.7,8.7-8.7c-4.8,0-8.7-3.9-8.7-8.7c0-1.6,0.4-3,1.1-4.3c-1.5,2.6-4.3,4.3-7.5,4.3c-3.1,0-5.9-1.7-7.4-4.2
	c0.7,1.2,1.1,2.7,1.1,4.2c0,4.8-3.9,8.7-8.7,8.7C320,29.4,323.9,33.2,323.9,38z"/>
<path class="st0" d="M270.2,38c0,1.5-0.4,2.9-1.1,4.2c1.5-2.5,4.3-4.2,7.4-4.2c3.2,0,6,1.7,7.5,4.3c-0.7-1.3-1.1-2.7-1.1-4.3
	c0-4.8,3.9-8.7,8.7-8.7c-4.8,0-8.7-3.9-8.7-8.7c0-1.6,0.4-3,1.1-4.3c-1.5,2.6-4.3,4.3-7.5,4.3c-3.1,0-5.9-1.7-7.4-4.2
	c0.7,1.2,1.1,2.7,1.1,4.2c0,4.8-3.9,8.7-8.7,8.7C266.3,29.4,270.2,33.2,270.2,38z"/>
<path class="st0" d="M309.7,67.2c0-1.6,0.4-3,1.1-4.3c-1.5,2.6-4.3,4.3-7.5,4.3c-3.1,0-5.9-1.7-7.4-4.2c0.7,1.2,1.1,2.7,1.1,4.2
	c0,4.8-3.9,8.7-8.7,8.7c4.8,0,8.7,3.9,8.7,8.7c0,1.5-0.4,2.9-1.1,4.2c1.5-2.5,4.3-4.2,7.4-4.2c3.2,0,6,1.7,7.5,4.3
	c-0.7-1.3-1.1-2.7-1.1-4.3c0-4.8,3.9-8.7,8.7-8.7C313.6,75.8,309.7,72,309.7,67.2z"/>
<path class="st0" d="M256,67.2c0-1.6,0.4-3,1.1-4.3c-1.5,2.6-4.3,4.3-7.5,4.3c-3.1,0-5.9-1.7-7.4-4.2c0.7,1.2,1.1,2.7,1.1,4.2
	c0,4.8-3.9,8.7-8.7,8.7c4.8,0,8.7,3.9,8.7,8.7c0,1.5-0.4,2.9-1.1,4.2c1.5-2.5,4.3-4.2,7.4-4.2c3.2,0,6,1.7,7.5,4.3
	c-0.7-1.3-1.1-2.7-1.1-4.3c0-4.8,3.9-8.7,8.7-8.7C259.9,75.8,256,72,256,67.2z"/>
<path class="st1" d="M257.2,62.8l-7.5-4.3l-7.5,4.3c0,0,0,0.1,0.1,0.1l-0.1-0.1l-7.5,4.3v8.7c4.8,0,8.7-3.9,8.7-8.7
	c0-1.5-0.4-2.9-1.1-4.2c1.5,2.5,4.3,4.2,7.4,4.2C252.9,67.2,255.7,65.5,257.2,62.8c-0.8,1.3-1.2,2.8-1.2,4.3c0,4.8,3.9,8.7,8.7,8.7
	v-8.7L257.2,62.8z"/>
<path d="M257.2,88.8l-7.5,4.3l-7.5-4.3c0,0,0-0.1,0.1-0.1l-0.1,0.1l-7.5-4.3v-8.7c-4.8,0-8.7,3.9-8.7,8.7c0,4.8,3.9,8.7,8.7,8.7
	c3.1,0,5.9-1.7,7.4-4.2c-0.7,1.2-1.1,2.7-1.1,4.2c0,4.8,3.9,8.7,8.7,8.7s8.7-3.9,8.7-8.7C258.4,91.6,258,90.1,257.2,88.8
	c1.5,2.6,4.3,4.3,7.5,4.3c4.8,0,8.7-3.9,8.7-8.7c0-4.8-3.9-8.7-8.7-8.7v8.7L257.2,88.8z"/>
<path class="st1" d="M256,84.5c0,1.6,0.4,3,1.1,4.3c-1.5-2.6-4.3-4.3-7.5-4.3c-3.1,0-5.9,1.7-7.4,4.2c0.7-1.2,1.1-2.7,1.1-4.2
	c0-4.8-3.9-8.7-8.7-8.7v8.7l7.5,4.3c0,0,0-0.1,0.1-0.1c0,0,0,0.1-0.1,0.1l7.5,4.3l7.5-4.3l7.5-4.3v-8.7
	C259.9,75.8,256,79.7,256,84.5z"/>
<path d="M241,58.5c0,1.5,0.4,2.9,1.1,4.2c-1.5-2.5-4.3-4.2-7.4-4.2c-4.8,0-8.7,3.9-8.7,8.7s3.9,8.7,8.7,8.7v-8.7l7.5-4.3
	c0,0,0,0.1,0.1,0.1c0,0,0-0.1-0.1-0.1l7.5-4.3l7.5,4.3l7.5,4.3v8.7c4.8,0,8.7-3.9,8.7-8.7s-3.9-8.7-8.7-8.7c-3.2,0-6,1.7-7.5,4.3
	c0.7-1.3,1.1-2.7,1.1-4.3c0-4.8-3.9-8.7-8.7-8.7C244.9,49.9,241,53.7,241,58.5z"/>
<path d="M310.9,62.8l-7.5-4.3l-7.5,4.3c0,0,0-0.1-0.1-0.1c0,0,0,0.1,0.1,0.1l-7.5,4.3v8.7c4.8,0,8.7-3.9,8.7-8.7
	c0-1.5-0.4-2.9-1.1-4.2c1.5,2.5,4.3,4.2,7.4,4.2C306.5,67.2,309.3,65.5,310.9,62.8c-0.8,1.3-1.2,2.8-1.2,4.3c0,4.8,3.9,8.7,8.7,8.7
	v-8.7L310.9,62.8z"/>
<path class="st1" d="M310.9,88.8l-7.5,4.3l-7.5-4.3c0,0,0,0.1-0.1,0.1c0,0,0-0.1,0.1-0.1l-7.5-4.3v-8.7c-4.8,0-8.7,3.9-8.7,8.7
	c0,4.8,3.9,8.7,8.7,8.7c3.1,0,5.9-1.7,7.4-4.2c-0.7,1.2-1.1,2.7-1.1,4.2c0,4.8,3.9,8.7,8.7,8.7s8.7-3.9,8.7-8.7
	C312,91.6,311.6,90.1,310.9,88.8c1.5,2.6,4.3,4.3,7.5,4.3c4.8,0,8.7-3.9,8.7-8.7c0-4.8-3.9-8.7-8.7-8.7v8.7L310.9,88.8z"/>
<path d="M309.7,84.5c0,1.6,0.4,3,1.1,4.3c-1.5-2.6-4.3-4.3-7.5-4.3c-3.1,0-5.9,1.7-7.4,4.2c0.7-1.2,1.1-2.7,1.1-4.2
	c0-4.8-3.9-8.7-8.7-8.7v8.7l7.5,4.3c0,0,0,0.1-0.1,0.1l0.1-0.1l7.5,4.3l7.5-4.3l7.5-4.3v-8.7C313.6,75.8,309.7,79.7,309.7,84.5z"/>
<path class="st1" d="M294.7,58.5c0,1.5,0.4,2.9,1.1,4.2c-1.5-2.5-4.3-4.2-7.4-4.2c-4.8,0-8.7,3.9-8.7,8.7s3.9,8.7,8.7,8.7v-8.7
	l7.5-4.3c0,0,0-0.1-0.1-0.1l0.1,0.1l7.5-4.3l7.5,4.3l7.5,4.3v8.7c4.8,0,8.7-3.9,8.7-8.7s-3.9-8.7-8.7-8.7c-3.2,0-6,1.7-7.5,4.3
	c0.7-1.3,1.1-2.7,1.1-4.3c0-4.8-3.9-8.7-8.7-8.7S294.7,53.7,294.7,58.5z"/>
<path class="st1" d="M252.9,38c0,4.8,3.9,8.7,8.7,8.7c3.1,0,5.9-1.7,7.4-4.2c-0.7,1.2-1.1,2.7-1.1,4.2c0,4.8,3.9,8.7,8.7,8.7
	s8.7-3.9,8.7-8.7c0-1.6-0.4-3-1.1-4.3c1.5,2.6,4.3,4.3,7.5,4.3c4.8,0,8.7-3.9,8.7-8.7s-3.9-8.7-8.7-8.7V38l-7.5,4.3l-7.5,4.3
	l-7.5-4.3c0,0,0,0.1-0.1,0.1c0,0,0-0.1,0.1-0.1l-7.5-4.3v-8.7C256.8,29.4,252.9,33.2,252.9,38z"/>
<path d="M269,42.4c0,0,0,0.1-0.1,0.1C269,42.4,269,42.4,269,42.4l7.5,4.3l7.5-4.3l7.5-4.3v-8.7c-4.8,0-8.7,3.9-8.7,8.7
	c0,1.6,0.4,3,1.1,4.3c-1.5-2.6-4.3-4.3-7.5-4.3C273.3,38.1,270.5,39.8,269,42.4c0.7-1.3,1.1-2.8,1.1-4.3c0-4.8-3.9-8.7-8.7-8.7V38
	L269,42.4z"/>
<path class="st1" d="M269,16.4c0,0,0-0.1-0.1-0.1C269,16.3,269,16.3,269,16.4l7.5-4.3l7.5,4.3l7.5,4.3v8.7c4.8,0,8.7-3.9,8.7-8.7
	s-3.9-8.7-8.7-8.7c-3.2,0-6,1.7-7.5,4.3c0.7-1.3,1.1-2.7,1.1-4.3c0-4.8-3.9-8.7-8.7-8.7s-8.7,3.9-8.7,8.7c0,1.5,0.4,2.9,1.1,4.2
	c-1.5-2.5-4.3-4.2-7.4-4.2c-4.8,0-8.7,3.9-8.7,8.7s3.9,8.7,8.7,8.7v-8.7L269,16.4z"/>
<path d="M270.2,20.7c0-1.5-0.4-2.9-1.1-4.2c1.5,2.5,4.3,4.2,7.4,4.2c3.2,0,6-1.7,7.5-4.3c-0.7,1.3-1.1,2.7-1.1,4.3
	c0,4.8,3.9,8.7,8.7,8.7v-8.7l-7.5-4.3l-7.5-4.3l-7.5,4.3c0,0,0-0.1-0.1-0.1c0,0,0,0.1,0.1,0.1l-7.5,4.3v8.7
	C266.3,29.4,270.2,25.5,270.2,20.7z"/>
<path d="M306.5,38c0,4.8,3.9,8.7,8.7,8.7c3.1,0,5.9-1.7,7.4-4.2c-0.7,1.2-1.1,2.7-1.1,4.2c0,4.8,3.9,8.7,8.7,8.7
	c4.8,0,8.7-3.9,8.7-8.7c0-1.6-0.4-3-1.1-4.3c1.5,2.6,4.3,4.3,7.5,4.3c4.8,0,8.7-3.9,8.7-8.7s-3.9-8.7-8.7-8.7V38l-7.5,4.3l-7.5,4.3
	l-7.5-4.3c0,0,0-0.1,0.1-0.1l-0.1,0.1l-7.5-4.3v-8.7C310.4,29.4,306.5,33.2,306.5,38z"/>
<path class="st1" d="M322.7,42.4c0,0,0-0.1,0.1-0.1C322.7,42.3,322.7,42.3,322.7,42.4l7.5,4.3l7.5-4.3l7.5-4.3v-8.7
	c-4.8,0-8.7,3.9-8.7,8.7c0,1.6,0.4,3,1.1,4.3c-1.5-2.6-4.3-4.3-7.5-4.3C327,38.1,324.2,39.8,322.7,42.4c0.7-1.3,1.1-2.8,1.1-4.3
	c0-4.8-3.9-8.7-8.7-8.7V38L322.7,42.4z"/>
<path d="M322.7,16.4c0,0,0,0.1,0.1,0.1C322.7,16.5,322.7,16.4,322.7,16.4l7.5-4.3l7.5,4.3l7.5,4.3v8.7c4.8,0,8.7-3.9,8.7-8.7
	S350,12,345.2,12c-3.2,0-6,1.7-7.5,4.3c0.7-1.3,1.1-2.7,1.1-4.3c0-4.8-3.9-8.7-8.7-8.7c-4.8,0-8.7,3.9-8.7,8.7
	c0,1.5,0.4,2.9,1.1,4.2c-1.5-2.5-4.3-4.2-7.4-4.2c-4.8,0-8.7,3.9-8.7,8.7s3.9,8.7,8.7,8.7v-8.7L322.7,16.4z"/>
<path class="st1" d="M323.9,20.7c0-1.5-0.4-2.9-1.1-4.2c1.5,2.5,4.3,4.2,7.4,4.2c3.2,0,6-1.7,7.5-4.3c-0.7,1.3-1.1,2.7-1.1,4.3
	c0,4.8,3.9,8.7,8.7,8.7v-8.7l-7.5-4.3l-7.5-4.3l-7.5,4.3c0,0,0,0.1,0.1,0.1l-0.1-0.1l-7.5,4.3v8.7C320,29.4,323.9,25.5,323.9,20.7z"
	/>
<path class="st1" d="M266.6,0h-3.7c0.6,0.1,1.2,0.2,1.8,0.2C265.4,0.2,266,0.1,266.6,0z"/>
<path class="st1" d="M249.7,8.9c4.8,0,8.7-3.9,8.7-8.7c0-0.1,0-0.1,0-0.2h-8.3l-0.4,0.2L249.3,0H241c0,0.1,0,0.1,0,0.2
	C241,5,244.9,8.9,249.7,8.9z"/>
<polygon points="250.1,0 249.3,0 249.7,0.2 "/>
<path class="st1" d="M234.7,0.2c0.6,0,1.3-0.1,1.8-0.2h-3.7C233.4,0.1,234.1,0.2,234.7,0.2z"/>
<path d="M320.3,0h-3.7c0.6,0.1,1.2,0.2,1.8,0.2C319,0.2,319.7,0.1,320.3,0z"/>
<path d="M303.4,8.9c4.8,0,8.7-3.9,8.7-8.7c0-0.1,0-0.1,0-0.2h-8.3l-0.4,0.2L303,0h-8.3c0,0.1,0,0.1,0,0.2
	C294.7,5,298.6,8.9,303.4,8.9z"/>
<polygon class="st1" points="303.7,0 303,0 303.4,0.2 "/>
<path d="M290.2,0h-3.7c0.6,0.1,1.2,0.2,1.9,0.2C289,0.2,289.6,0.1,290.2,0z"/>
<path class="st0" d="M282.9,113.6c0-1.2,0.2-2.3,0.6-3.3c0.1-0.3,0.3-0.7,0.5-1c-1.5,2.6-4.3,4.3-7.5,4.3c-2,0-3.8-0.7-5.2-1.8
	c-0.9-0.7-1.6-1.5-2.2-2.4c0.2,0.3,0.3,0.6,0.5,1c0.4,1,0.6,2.1,0.6,3.2c0,1.8-0.5,3.5-1.5,4.8c-0.3,0.5-0.7,0.9-1.1,1.3
	s-0.8,0.7-1.3,1.1c-1.4,0.9-3,1.5-4.8,1.5c1.8,0,3.5,0.5,4.8,1.5c0.5,0.3,0.9,0.7,1.3,1.1s0.7,0.8,1.1,1.3c0.9,1.4,1.5,3,1.5,4.8
	c0,1.1-0.2,2.2-0.6,3.2c-0.1,0.3-0.3,0.7-0.5,1c0.6-0.9,1.3-1.8,2.2-2.4c1.5-1.1,3.3-1.8,5.2-1.8c3.2,0,6,1.7,7.5,4.3
	c-0.2-0.3-0.3-0.6-0.5-1c-0.4-1-0.6-2.1-0.6-3.3c0-3,1.5-5.6,3.8-7.2c1.4-0.9,3-1.5,4.8-1.5c-1.8,0-3.5-0.5-4.8-1.5
	C284.4,119.3,282.9,116.6,282.9,113.6z"/>
<path class="st0" d="M229.2,113.6c0-1.6,0.4-3,1.1-4.3c-0.6,1-1.3,1.8-2.2,2.5c-0.6,0.5-1.2,0.8-1.9,1.1c-1,0.4-2.2,0.7-3.4,0.7
	c-3.1,0-5.9-1.7-7.4-4.2c0.7,1.2,1.1,2.7,1.1,4.2c0,4.8-3.9,8.7-8.7,8.7c4.8,0,8.7,3.9,8.7,8.7c0,1.5-0.4,2.9-1.1,4.2
	c1.5-2.5,4.3-4.2,7.4-4.2c1.2,0,2.3,0.2,3.4,0.7c0.7,0.3,1.3,0.7,1.9,1.1c0.9,0.7,1.6,1.5,2.2,2.5c-0.7-1.3-1.1-2.7-1.1-4.3
	c0-4.8,3.9-8.7,8.7-8.7C233.1,122.3,229.2,118.4,229.2,113.6z"/>
<path class="st1" d="M249.7,142.8c-4.3,0-7.8,3.1-8.5,7.2h17.1C257.5,145.9,254,142.8,249.7,142.8z"/>
<path d="M303.4,142.8c-4.3,0-7.8,3.1-8.5,7.2H312C311.2,145.9,307.7,142.8,303.4,142.8z"/>
<path class="st1" d="M246.5,113.6c0-4.8-3.9-8.7-8.7-8.7c-3.2,0-6,1.7-7.5,4.3c0.7-1.3,1.1-2.7,1.1-4.3c0-1.2-0.2-2.3-0.7-3.4
	c-0.2-0.5-0.5-1-0.8-1.5c-0.5-0.7-1-1.3-1.7-1.8c-1.3-1.1-2.9-1.8-4.6-1.9c-0.3,0-0.6,0-0.9,0c-4.8,0-8.7,3.9-8.7,8.7
	c0,1.5,0.4,2.9,1.1,4.2c-1.5-2.5-4.3-4.2-7.4-4.2c-1.8,0-3.5,0.5-4.8,1.5c-2.3,1.6-3.8,4.2-3.8,7.2s1.5,5.6,3.8,7.2
	c1.4,0.9,3,1.5,4.8,1.5v-8.7l7.5-4.3c0,0,0-0.1-0.1-0.1l0.1,0.1l7.5-4.3l7.5,4.3l7.5,4.3v8.7C242.7,122.3,246.5,118.4,246.5,113.6z"
	/>
<path d="M230.4,109.3l-7.5-4.3l-7.5,4.3c0,0,0-0.1-0.1-0.1c0,0,0,0.1,0.1,0.1l-7.5,4.3v8.7c4.8,0,8.7-3.9,8.7-8.7
	c0-1.5-0.4-2.9-1.1-4.2c1.5,2.5,4.3,4.2,7.4,4.2c1.2,0,2.3-0.2,3.4-0.7c0.7-0.3,1.3-0.7,1.9-1.1C229,111.2,229.8,110.3,230.4,109.3
	c-0.8,1.3-1.2,2.8-1.2,4.3c0,4.8,3.9,8.7,8.7,8.7v-8.7L230.4,109.3z"/>
<path class="st1" d="M230.4,135.3l-7.5,4.3l-7.5-4.3c0,0,0,0.1-0.1,0.1c0,0,0-0.1,0.1-0.1l-7.5-4.3v-8.7c-1.8,0-3.5,0.5-4.8,1.5
	c-2.3,1.6-3.8,4.2-3.8,7.2s1.5,5.6,3.8,7.2c1.4,0.9,3,1.5,4.8,1.5c3.1,0,5.9-1.7,7.4-4.2c-0.7,1.2-1.1,2.7-1.1,4.2
	c0,4.8,3.9,8.7,8.7,8.7c0.3,0,0.6,0,0.9,0c1.7-0.2,3.3-0.9,4.6-1.9c0.6-0.5,1.2-1.1,1.7-1.8c0.3-0.5,0.6-1,0.8-1.5
	c0.4-1,0.7-2.2,0.7-3.4C231.5,138.1,231.1,136.6,230.4,135.3c1.5,2.6,4.3,4.3,7.5,4.3c4.8,0,8.7-3.9,8.7-8.7s-3.9-8.7-8.7-8.7v8.7
	L230.4,135.3z"/>
<path d="M229.2,131c0,1.6,0.4,3,1.1,4.3c-0.6-1-1.3-1.8-2.2-2.5c-0.6-0.5-1.2-0.8-1.9-1.1c-1-0.4-2.2-0.7-3.4-0.7
	c-3.1,0-5.9,1.7-7.4,4.2c0.7-1.2,1.1-2.7,1.1-4.2c0-4.8-3.9-8.7-8.7-8.7v8.7l7.5,4.3c0,0,0,0.1-0.1,0.1l0.1-0.1l7.5,4.3l7.5-4.3
	l7.5-4.3v-8.7C233.1,122.3,229.2,126.2,229.2,131z"/>
<path d="M300.2,113.6c0-4.8-3.9-8.7-8.7-8.7c-1.2,0-2.3,0.2-3.4,0.7c-1.7,0.7-3.2,2-4.1,3.6c0.2-0.3,0.3-0.6,0.5-1
	c0.4-1,0.6-2.1,0.6-3.3c0-4.8-3.9-8.7-8.7-8.7s-8.7,3.9-8.7,8.7c0,1.5,0.4,2.9,1.1,4.2c-0.2-0.3-0.4-0.6-0.6-0.9
	c-1.6-2-4-3.3-6.8-3.3c-1.8,0-3.5,0.5-4.8,1.5c-0.5,0.3-0.9,0.7-1.3,1.1c-0.4,0.4-0.7,0.8-1.1,1.3c-0.9,1.4-1.5,3-1.5,4.8
	s0.5,3.5,1.5,4.8c0.3,0.5,0.7,0.9,1.1,1.3c0.4,0.4,0.8,0.7,1.3,1.1c1.4,0.9,3,1.5,4.8,1.5v-8.7l7.5-4.3c0,0,0,0.1,0.1,0.1
	c0,0,0-0.1-0.1-0.1l7.5-4.3l7.5,4.3l7.5,4.3v8.7C296.3,122.3,300.2,118.4,300.2,113.6z"/>
<path class="st1" d="M284,109.3l-7.5-4.3l-7.5,4.3c0,0,0,0.1,0.1,0.1l-0.1-0.1l-7.5,4.3v8.7c1.8,0,3.5-0.5,4.8-1.5
	c0.5-0.3,0.9-0.7,1.3-1.1s0.7-0.8,1.1-1.3c0.9-1.4,1.5-3,1.5-4.8c0-1.1-0.2-2.2-0.6-3.2c-0.1-0.3-0.3-0.7-0.5-1
	c0.6,0.9,1.3,1.8,2.2,2.4c1.5,1.1,3.3,1.8,5.2,1.8C279.7,113.6,282.5,111.9,284,109.3c-0.2,0.4-0.4,0.7-0.5,1
	c-0.4,1-0.6,2.1-0.6,3.3c0,3,1.5,5.6,3.8,7.2c1.4,0.9,3,1.5,4.8,1.5v-8.7L284,109.3z"/>
<path d="M284,135.3l-7.5,4.3l-7.5-4.3c0,0,0-0.1,0.1-0.1l-0.1,0.1l-7.5-4.3v-8.7c-1.8,0-3.5,0.5-4.8,1.5c-0.5,0.3-0.9,0.7-1.3,1.1
	c-0.4,0.4-0.7,0.8-1.1,1.3c-0.9,1.4-1.5,3-1.5,4.8s0.5,3.5,1.5,4.8c0.3,0.5,0.7,0.9,1.1,1.3c0.4,0.4,0.8,0.7,1.3,1.1
	c1.4,0.9,3,1.5,4.8,1.5c2.7,0,5.2-1.3,6.8-3.3c0.2-0.3,0.4-0.6,0.6-0.9c-0.7,1.2-1.1,2.7-1.1,4.2c0,4.8,3.9,8.7,8.7,8.7
	s8.7-3.9,8.7-8.7c0-1.2-0.2-2.3-0.6-3.3C284.4,136,284.3,135.7,284,135.3c1,1.7,2.4,2.9,4.1,3.7c1,0.4,2.2,0.7,3.4,0.7
	c4.8,0,8.7-3.9,8.7-8.7s-3.9-8.7-8.7-8.7v8.7L284,135.3z"/>
<path class="st1" d="M282.9,131c0,1.2,0.2,2.3,0.6,3.3c0.1,0.3,0.3,0.7,0.5,1c-1.5-2.6-4.3-4.3-7.5-4.3c-2,0-3.8,0.7-5.2,1.8
	c-0.9,0.7-1.6,1.5-2.2,2.4c0.2-0.3,0.3-0.6,0.5-1c0.4-1,0.6-2.1,0.6-3.2c0-1.8-0.5-3.5-1.5-4.8c-0.3-0.5-0.7-0.9-1.1-1.3
	s-0.8-0.7-1.3-1.1c-1.4-0.9-3-1.5-4.8-1.5v8.7l7.5,4.3c0,0,0-0.1,0.1-0.1c0,0,0,0.1-0.1,0.1l7.5,4.3l7.5-4.3l7.5-4.3v-8.7
	c-1.8,0-3.5,0.5-4.8,1.5C284.4,125.3,282.9,128,282.9,131z"/>
<path class="st0" d="M162.9,38c0,1.5-0.4,2.9-1.1,4.2c1.5-2.5,4.3-4.2,7.4-4.2c3.2,0,6,1.7,7.5,4.3c-0.7-1.3-1.1-2.7-1.1-4.3
	c0-4.8,3.9-8.7,8.7-8.7c-4.8,0-8.7-3.9-8.7-8.7c0-1.6,0.4-3,1.1-4.3c-1.5,2.6-4.3,4.3-7.5,4.3c-3.1,0-5.9-1.7-7.4-4.2
	c0.7,1.2,1.1,2.7,1.1,4.2c0,4.8-3.9,8.7-8.7,8.7C159,29.4,162.9,33.2,162.9,38z"/>
<path class="st0" d="M202.4,67.2c0-1.6,0.4-3,1.1-4.3c-1.5,2.6-4.3,4.3-7.5,4.3c-3.1,0-5.9-1.7-7.4-4.2c0.7,1.2,1.1,2.7,1.1,4.2
	c0,4.8-3.9,8.7-8.7,8.7c4.8,0,8.7,3.9,8.7,8.7c0,1.5-0.4,2.9-1.1,4.2c1.5-2.5,4.3-4.2,7.4-4.2c3.2,0,6,1.7,7.5,4.3
	c-0.7-1.3-1.1-2.7-1.1-4.3c0-4.8,3.9-8.7,8.7-8.7C206.3,75.8,202.4,72,202.4,67.2z"/>
<path class="st0" d="M216.5,38c0,1.5-0.4,2.9-1.1,4.2c1.5-2.5,4.3-4.2,7.4-4.2c3.2,0,6,1.7,7.5,4.3c-0.7-1.3-1.1-2.7-1.1-4.3
	c0-4.8,3.9-8.7,8.7-8.7c-4.8,0-8.7-3.9-8.7-8.7c0-1.6,0.4-3,1.1-4.3c-1.5,2.6-4.3,4.3-7.5,4.3c-3.1,0-5.9-1.7-7.4-4.2
	c0.7,1.2,1.1,2.7,1.1,4.2c0,4.8-3.9,8.7-8.7,8.7C212.7,29.4,216.5,33.2,216.5,38z"/>
<path class="st0" d="M148.7,67.2c0-1.6,0.4-3,1.1-4.3c-1.5,2.6-4.3,4.3-7.5,4.3c-3.1,0-5.9-1.7-7.4-4.2c0.7,1.2,1.1,2.7,1.1,4.2
	c0,4.8-3.9,8.7-8.7,8.7c4.8,0,8.7,3.9,8.7,8.7c0,1.5-0.4,2.9-1.1,4.2c1.5-2.5,4.3-4.2,7.4-4.2c3.2,0,6,1.7,7.5,4.3
	c-0.7-1.3-1.1-2.7-1.1-4.3c0-4.8,3.9-8.7,8.7-8.7C152.6,75.8,148.7,72,148.7,67.2z"/>
<path class="st1" d="M149.9,62.8l-7.5-4.3l-7.5,4.3c0,0,0,0.1,0.1,0.1l-0.1-0.1l-7.5,4.3v8.7c4.8,0,8.7-3.9,8.7-8.7
	c0-1.5-0.4-2.9-1.1-4.2c1.5,2.5,4.3,4.2,7.4,4.2C145.6,67.2,148.4,65.5,149.9,62.8c-0.8,1.3-1.2,2.8-1.2,4.3c0,4.8,3.9,8.7,8.7,8.7
	v-8.7L149.9,62.8z"/>
<path d="M149.9,88.8l-7.5,4.3l-7.5-4.3c0,0,0-0.1,0.1-0.1l-0.1,0.1l-7.5-4.3v-8.7c-4.8,0-8.7,3.9-8.7,8.7c0,4.8,3.9,8.7,8.7,8.7
	c3.1,0,5.9-1.7,7.4-4.2c-0.7,1.2-1.1,2.7-1.1,4.2c0,4.8,3.9,8.7,8.7,8.7s8.7-3.9,8.7-8.7C151.1,91.6,150.6,90.1,149.9,88.8
	c1.5,2.6,4.3,4.3,7.5,4.3c4.8,0,8.7-3.9,8.7-8.7c0-4.8-3.9-8.7-8.7-8.7v8.7L149.9,88.8z"/>
<path class="st1" d="M148.7,84.5c0,1.6,0.4,3,1.1,4.3c-1.5-2.6-4.3-4.3-7.5-4.3c-3.1,0-5.9,1.7-7.4,4.2c0.7-1.2,1.1-2.7,1.1-4.2
	c0-4.8-3.9-8.7-8.7-8.7v8.7l7.5,4.3c0,0,0-0.1,0.1-0.1c0,0,0,0.1-0.1,0.1l7.5,4.3l7.5-4.3l7.5-4.3v-8.7
	C152.6,75.8,148.7,79.7,148.7,84.5z"/>
<path d="M133.7,58.5c0,1.5,0.4,2.9,1.1,4.2c-1.5-2.5-4.3-4.2-7.4-4.2c-4.8,0-8.7,3.9-8.7,8.7s3.9,8.7,8.7,8.7v-8.7l7.5-4.3
	c0,0,0,0.1,0.1,0.1c0,0,0-0.1-0.1-0.1l7.5-4.3l7.5,4.3l7.5,4.3v8.7c4.8,0,8.7-3.9,8.7-8.7s-3.9-8.7-8.7-8.7c-3.2,0-6,1.7-7.5,4.3
	c0.7-1.3,1.1-2.7,1.1-4.3c0-4.8-3.9-8.7-8.7-8.7C137.6,49.9,133.7,53.7,133.7,58.5z"/>
<path d="M203.6,62.8l-7.5-4.3l-7.5,4.3c0,0,0-0.1-0.1-0.1c0,0,0,0.1,0.1,0.1l-7.5,4.3v8.7c4.8,0,8.7-3.9,8.7-8.7
	c0-1.5-0.4-2.9-1.1-4.2c1.5,2.5,4.3,4.2,7.4,4.2C199.2,67.2,202,65.5,203.6,62.8c-0.8,1.3-1.2,2.8-1.2,4.3c0,4.8,3.9,8.7,8.7,8.7
	v-8.7L203.6,62.8z"/>
<path class="st1" d="M203.6,88.8l-7.5,4.3l-7.5-4.3c0,0,0,0.1-0.1,0.1c0,0,0-0.1,0.1-0.1l-7.5-4.3v-8.7c-4.8,0-8.7,3.9-8.7,8.7
	c0,4.8,3.9,8.7,8.7,8.7c3.1,0,5.9-1.7,7.4-4.2c-0.7,1.2-1.1,2.7-1.1,4.2c0,4.8,3.9,8.7,8.7,8.7s8.7-3.9,8.7-8.7
	C204.7,91.6,204.3,90.1,203.6,88.8c1.5,2.6,4.3,4.3,7.5,4.3c4.8,0,8.7-3.9,8.7-8.7c0-4.8-3.9-8.7-8.7-8.7v8.7L203.6,88.8z"/>
<path d="M202.4,84.5c0,1.6,0.4,3,1.1,4.3c-1.5-2.6-4.3-4.3-7.5-4.3c-3.1,0-5.9,1.7-7.4,4.2c0.7-1.2,1.1-2.7,1.1-4.2
	c0-4.8-3.9-8.7-8.7-8.7v8.7l7.5,4.3c0,0,0,0.1-0.1,0.1l0.1-0.1l7.5,4.3l7.5-4.3l7.5-4.3v-8.7C206.3,75.8,202.4,79.7,202.4,84.5z"/>
<path class="st1" d="M187.4,58.5c0,1.5,0.4,2.9,1.1,4.2c-1.5-2.5-4.3-4.2-7.4-4.2c-4.8,0-8.7,3.9-8.7,8.7s3.9,8.7,8.7,8.7v-8.7
	l7.5-4.3c0,0,0-0.1-0.1-0.1l0.1,0.1l7.5-4.3l7.5,4.3l7.5,4.3v8.7c4.8,0,8.7-3.9,8.7-8.7s-3.9-8.7-8.7-8.7c-3.2,0-6,1.7-7.5,4.3
	c0.7-1.3,1.1-2.7,1.1-4.3c0-4.8-3.9-8.7-8.7-8.7S187.4,53.7,187.4,58.5z"/>
<path class="st1" d="M145.6,38c0,4.8,3.9,8.7,8.7,8.7c3.1,0,5.9-1.7,7.4-4.2c-0.7,1.2-1.1,2.7-1.1,4.2c0,4.8,3.9,8.7,8.7,8.7
	s8.7-3.9,8.7-8.7c0-1.6-0.4-3-1.1-4.3c1.5,2.6,4.3,4.3,7.5,4.3c4.8,0,8.7-3.9,8.7-8.7s-3.9-8.7-8.7-8.7V38l-7.5,4.3l-7.5,4.3
	l-7.5-4.3c0,0,0,0.1-0.1,0.1c0,0,0-0.1,0.1-0.1l-7.5-4.3v-8.7C149.4,29.4,145.6,33.2,145.6,38z"/>
<path d="M161.7,42.4c0,0,0,0.1-0.1,0.1C161.7,42.4,161.7,42.4,161.7,42.4l7.5,4.3l7.5-4.3l7.5-4.3v-8.7c-4.8,0-8.7,3.9-8.7,8.7
	c0,1.6,0.4,3,1.1,4.3c-1.5-2.6-4.3-4.3-7.5-4.3C166,38.1,163.2,39.8,161.7,42.4c0.7-1.3,1.1-2.8,1.1-4.3c0-4.8-3.9-8.7-8.7-8.7V38
	L161.7,42.4z"/>
<path class="st1" d="M161.7,16.4c0,0,0-0.1-0.1-0.1C161.7,16.3,161.7,16.3,161.7,16.4l7.5-4.3l7.5,4.3l7.5,4.3v8.7
	c4.8,0,8.7-3.9,8.7-8.7S189,12,184.2,12c-3.2,0-6,1.7-7.5,4.3c0.7-1.3,1.1-2.7,1.1-4.3c0-4.8-3.9-8.7-8.7-8.7s-8.7,3.9-8.7,8.7
	c0,1.5,0.4,2.9,1.1,4.2c-1.5-2.5-4.3-4.2-7.4-4.2c-4.8,0-8.7,3.9-8.7,8.7s3.9,8.7,8.7,8.7v-8.7L161.7,16.4z"/>
<path d="M162.9,20.7c0-1.5-0.4-2.9-1.1-4.2c1.5,2.5,4.3,4.2,7.4,4.2c3.2,0,6-1.7,7.5-4.3c-0.7,1.3-1.1,2.7-1.1,4.3
	c0,4.8,3.9,8.7,8.7,8.7v-8.7l-7.5-4.3l-7.5-4.3l-7.5,4.3c0,0,0-0.1-0.1-0.1c0,0,0,0.1,0.1,0.1l-7.5,4.3v8.7
	C159,29.4,162.9,25.5,162.9,20.7z"/>
<path d="M199.2,38c0,4.8,3.9,8.7,8.7,8.7c3.1,0,5.9-1.7,7.4-4.2c-0.7,1.2-1.1,2.7-1.1,4.2c0,4.8,3.9,8.7,8.7,8.7s8.7-3.9,8.7-8.7
	c0-1.6-0.4-3-1.1-4.3c1.5,2.6,4.3,4.3,7.5,4.3c4.8,0,8.7-3.9,8.7-8.7s-3.9-8.7-8.7-8.7V38l-7.5,4.3l-7.5,4.3l-7.5-4.3
	c0,0,0-0.1,0.1-0.1l-0.1,0.1L208,38v-8.7C203.1,29.4,199.2,33.2,199.2,38z"/>
<path class="st1" d="M215.4,42.4c0,0,0-0.1,0.1-0.1C215.4,42.3,215.4,42.3,215.4,42.4l7.5,4.3l7.5-4.3l7.5-4.3v-8.7
	c-4.8,0-8.7,3.9-8.7,8.7c0,1.6,0.4,3,1.1,4.3c-1.5-2.6-4.3-4.3-7.5-4.3C219.7,38.1,216.9,39.8,215.4,42.4c0.7-1.3,1.1-2.8,1.1-4.3
	c0-4.8-3.9-8.7-8.7-8.7V38L215.4,42.4z"/>
<path d="M215.4,16.4c0,0,0,0.1,0.1,0.1C215.4,16.5,215.4,16.4,215.4,16.4l7.5-4.3l7.5,4.3l7.5,4.3v8.7c4.8,0,8.7-3.9,8.7-8.7
	s-3.9-8.7-8.7-8.7c-3.2,0-6,1.7-7.5,4.3c0.7-1.3,1.1-2.7,1.1-4.3c0-4.8-3.9-8.7-8.7-8.7s-8.7,3.9-8.7,8.7c0,1.5,0.4,2.9,1.1,4.2
	c-1.5-2.5-4.3-4.2-7.4-4.2c-4.8,0-8.7,3.9-8.7,8.7s3.9,8.7,8.7,8.7v-8.7L215.4,16.4z"/>
<path class="st1" d="M216.5,20.7c0-1.5-0.4-2.9-1.1-4.2c1.5,2.5,4.3,4.2,7.4,4.2c3.2,0,6-1.7,7.5-4.3c-0.7,1.3-1.1,2.7-1.1,4.3
	c0,4.8,3.9,8.7,8.7,8.7v-8.7l-7.5-4.3l-7.5-4.3l-7.5,4.3c0,0,0,0.1,0.1,0.1l-0.1-0.1l-7.5,4.3v8.7C212.7,29.4,216.5,25.5,216.5,20.7
	z"/>
<path class="st1" d="M159.3,0h-3.7c0.6,0.1,1.2,0.2,1.8,0.2C158,0.2,158.7,0.1,159.3,0z"/>
<path class="st1" d="M142.4,8.9c4.8,0,8.7-3.9,8.7-8.7c0-0.1,0-0.1,0-0.2h-8.3l-0.4,0.2L142,0h-8.3c0,0.1,0,0.1,0,0.2
	C133.7,5,137.6,8.9,142.4,8.9z"/>
<polygon points="142.8,0 142,0 142.4,0.2 "/>
<path class="st1" d="M127.4,0.2c0.6,0,1.3-0.1,1.8-0.2h-3.7C126.1,0.1,126.7,0.2,127.4,0.2z"/>
<path d="M212.9,0h-3.7c0.6,0.1,1.2,0.2,1.8,0.2C211.7,0.2,212.3,0.1,212.9,0z"/>
<path d="M196.1,8.9c4.8,0,8.7-3.9,8.7-8.7c0-0.1,0-0.1,0-0.2h-8.3l-0.4,0.2L195.7,0h-8.3c0,0.1,0,0.1,0,0.2
	C187.4,5,191.3,8.9,196.1,8.9z"/>
<polygon class="st1" points="196.4,0 195.7,0 196.1,0.2 "/>
<path d="M182.9,0h-3.7c0.6,0.1,1.2,0.2,1.9,0.2C181.7,0.2,182.3,0.1,182.9,0z"/>
<path class="st0" d="M121.9,113.6c0-0.8,0.1-1.5,0.3-2.2c0.2-0.7,0.5-1.4,0.8-2c-1.5,2.6-4.3,4.3-7.5,4.3c-3.1,0-5.9-1.7-7.4-4.2
	c0.7,1.2,1.1,2.7,1.1,4.2c0,4.8-3.9,8.7-8.7,8.7c4.8,0,8.7,3.9,8.7,8.7c0,1.5-0.4,2.9-1.1,4.2c1.5-2.5,4.3-4.2,7.4-4.2
	c3.2,0,6,1.7,7.5,4.3c-0.4-0.6-0.6-1.3-0.8-2s-0.3-1.5-0.3-2.2c0-4.8,3.9-8.7,8.7-8.7C125.8,122.3,121.9,118.4,121.9,113.6z"/>
<path class="st0" d="M179.4,120.8c-0.5-0.3-0.9-0.7-1.3-1.1c-0.4-0.4-0.7-0.8-1.1-1.3c-0.9-1.4-1.5-3-1.5-4.8c0-1.6,0.4-3,1.1-4.3
	c-1.5,2.6-4.3,4.3-7.5,4.3c-3.1,0-5.9-1.7-7.4-4.2c0.7,1.2,1.1,2.7,1.1,4.2c0,3-1.5,5.6-3.8,7.2c-1.4,0.9-3,1.5-4.8,1.5
	c1.8,0,3.5,0.5,4.8,1.5c2.3,1.6,3.8,4.2,3.8,7.2c0,1.5-0.4,2.9-1.1,4.2c1.5-2.5,4.3-4.2,7.4-4.2c3.2,0,6,1.7,7.5,4.3
	c-0.7-1.3-1.1-2.7-1.1-4.3c0-1.8,0.5-3.5,1.5-4.8c0.3-0.5,0.7-0.9,1.1-1.3c0.4-0.4,0.8-0.7,1.3-1.1c1.4-0.9,3-1.5,4.8-1.5
	C182.4,122.3,180.8,121.8,179.4,120.8z"/>
<path class="st1" d="M142.4,142.8c-4.3,0-7.8,3.1-8.5,7.2H151C150.2,145.9,146.7,142.8,142.4,142.8z"/>
<path d="M196.1,142.8c-4.3,0-7.8,3.1-8.5,7.2h17.1C203.9,145.9,200.3,142.8,196.1,142.8z"/>
<path class="st1" d="M139.2,113.6c0-4.8-3.9-8.7-8.7-8.7c-3.2,0-6,1.7-7.5,4.3c0.7-1.3,1.1-2.7,1.1-4.3c0-4.8-3.9-8.7-8.7-8.7
	s-8.7,3.9-8.7,8.7c0,1.5,0.4,2.9,1.1,4.2c-1.5-2.5-4.3-4.2-7.4-4.2c-4.8,0-8.7,3.9-8.7,8.7c0,4.8,3.9,8.7,8.7,8.7v-8.7l7.5-4.3
	c0,0,0-0.1-0.1-0.1l0.1,0.1l7.5-4.3l7.5,4.3l7.5,4.3v8.7C135.3,122.3,139.2,118.4,139.2,113.6z"/>
<path d="M123.1,109.3l-7.5-4.3l-7.5,4.3c0,0,0-0.1-0.1-0.1c0,0,0,0.1,0.1,0.1l-7.5,4.3v8.7c4.8,0,8.7-3.9,8.7-8.7
	c0-1.5-0.4-2.9-1.1-4.2c1.5,2.5,4.3,4.2,7.4,4.2C118.7,113.6,121.5,111.9,123.1,109.3c-0.4,0.7-0.7,1.4-0.9,2.1
	c-0.2,0.7-0.3,1.5-0.3,2.2c0,4.8,3.9,8.7,8.7,8.7v-8.7L123.1,109.3z"/>
<path class="st1" d="M123.1,135.3l-7.5,4.3l-7.5-4.3c0,0,0,0.1-0.1,0.1c0,0,0-0.1,0.1-0.1l-7.5-4.3v-8.7c-4.8,0-8.7,3.9-8.7,8.7
	c0,4.8,3.9,8.7,8.7,8.7c3.1,0,5.9-1.7,7.4-4.2c-0.7,1.2-1.1,2.7-1.1,4.2c0,4.8,3.9,8.7,8.7,8.7s8.7-3.9,8.7-8.7
	C124.2,138.1,123.8,136.6,123.1,135.3c1.5,2.6,4.3,4.3,7.5,4.3c4.8,0,8.7-3.9,8.7-8.7s-3.9-8.7-8.7-8.7v8.7L123.1,135.3z"/>
<path d="M121.9,131c0,0.8,0.1,1.5,0.3,2.2s0.5,1.4,0.8,2c-1.5-2.6-4.3-4.3-7.5-4.3c-3.1,0-5.9,1.7-7.4,4.2c0.7-1.2,1.1-2.7,1.1-4.2
	c0-4.8-3.9-8.7-8.7-8.7v8.7l7.5,4.3c0,0,0,0.1-0.1,0.1l0.1-0.1l7.5,4.3l7.5-4.3l7.5-4.3v-8.7C125.8,122.3,121.9,126.2,121.9,131z"/>
<path d="M189.7,120.3c1.9-1.6,3.2-4,3.2-6.7s-1.2-5.1-3.2-6.7c-0.4-0.4-0.9-0.7-1.4-0.9c-1.2-0.7-2.6-1-4.1-1
	c-1.6,0-3.1,0.4-4.4,1.2c-0.3,0.2-0.6,0.4-0.9,0.6c-0.6,0.5-1.1,1-1.6,1.6c-0.2,0.3-0.4,0.6-0.6,0.9c0.7-1.3,1.1-2.7,1.1-4.3
	c0-4.8-3.9-8.7-8.7-8.7c-0.3,0-0.6,0-0.9,0c-1.7,0.2-3.3,0.9-4.6,1.9c-0.6,0.5-1.2,1.1-1.7,1.8c-0.3,0.5-0.6,1-0.8,1.5
	c-0.4,1-0.7,2.2-0.7,3.4c0,1.5,0.4,2.9,1.1,4.2c-1.5-2.5-4.3-4.2-7.4-4.2c-4.8,0-8.7,3.9-8.7,8.7c0,4.8,3.9,8.7,8.7,8.7v-8.7
	l7.5-4.3c0,0,0,0.1,0.1,0.1c0,0,0-0.1-0.1-0.1l7.5-4.3l7.5,4.3l7.5,4.3v8.7c1.5,0,2.9-0.4,4.1-1C188.8,121,189.3,120.7,189.7,120.3z
	"/>
<path class="st1" d="M184.2,113.6l-7.5-4.3l-7.5-4.3l-7.5,4.3c0,0,0,0.1,0.1,0.1l-0.1-0.1l-7.5,4.3v8.7c1.8,0,3.5-0.5,4.8-1.5
	c2.3-1.6,3.8-4.2,3.8-7.2c0-1.5-0.4-2.9-1.1-4.2c1.5,2.5,4.3,4.2,7.4,4.2c3.2,0,6-1.7,7.5-4.3c-0.7,1.3-1.1,2.7-1.1,4.3
	c0,1.8,0.5,3.5,1.5,4.8c0.3,0.5,0.7,0.9,1.1,1.3c0.4,0.4,0.8,0.7,1.3,1.1c1.4,0.9,3,1.5,4.8,1.5V113.6z"/>
<path d="M184.2,131l-7.5,4.3l-7.5,4.3l-7.5-4.3c0,0,0-0.1,0.1-0.1l-0.1,0.1l-7.5-4.3v-8.7c-4.8,0-8.7,3.9-8.7,8.7
	c0,4.8,3.9,8.7,8.7,8.7c3.1,0,5.9-1.7,7.4-4.2c-0.7,1.2-1.1,2.7-1.1,4.2c0,1.2,0.2,2.3,0.7,3.4c0.2,0.5,0.5,1,0.8,1.5
	c0.5,0.7,1,1.3,1.7,1.8c1.3,1.1,2.9,1.8,4.6,1.9c0.3,0,0.6,0,0.9,0c4.8,0,8.7-3.9,8.7-8.7c0-1.6-0.4-3-1.1-4.3
	c0.2,0.3,0.4,0.6,0.6,0.9c0.5,0.6,1,1.1,1.6,1.6c0.3,0.2,0.6,0.4,0.9,0.6c1.3,0.7,2.8,1.2,4.4,1.2c1.5,0,2.9-0.4,4.1-1
	c0.5-0.3,1-0.6,1.4-0.9c1.9-1.6,3.2-4,3.2-6.7s-1.2-5.1-3.2-6.7c-0.4-0.4-0.9-0.7-1.4-0.9c-1.2-0.7-2.6-1-4.1-1L184.2,131L184.2,131
	z"/>
<path class="st1" d="M179.4,123.8c-0.5,0.3-0.9,0.7-1.3,1.1c-0.4,0.4-0.7,0.8-1.1,1.3c-0.9,1.4-1.5,3-1.5,4.8c0,1.6,0.4,3,1.1,4.3
	c-1.5-2.6-4.3-4.3-7.5-4.3c-3.1,0-5.9,1.7-7.4,4.2c0.7-1.2,1.1-2.7,1.1-4.2c0-3-1.5-5.6-3.8-7.2c-1.4-0.9-3-1.5-4.8-1.5v8.7l7.5,4.3
	c0,0,0-0.1,0.1-0.1c0,0,0,0.1-0.1,0.1l7.5,4.3l7.5-4.3l7.5-4.3v-8.7C182.4,122.3,180.8,122.9,179.4,123.8z"/>
<path class="st0" d="M35.1,8.9c-4.8,0-8.7-3.9-8.7-8.7c0-0.1,0-0.1,0-0.2h-4.5c-0.6,0.1-1.2,0.2-1.8,0.2c-0.7,0-1.3-0.1-1.9-0.2H0
	v9.4c1.1-3.5,4.4-6,8.2-6c4.8,0,8.7,3.9,8.7,8.7c0,1.6-0.4,3-1.1,4.3c1.5-2.6,4.3-4.3,7.5-4.3c4.8,0,8.7,3.9,8.7,8.7
	s-3.9,8.7-8.7,8.7c4.8,0,8.7,3.9,8.7,8.7s-3.9,8.7-8.7,8.7c-3.2,0-6-1.7-7.5-4.3c0.7,1.3,1.1,2.7,1.1,4.3c0,4.8-3.9,8.7-8.7,8.7
	c-3.9,0-7.1-2.5-8.2-6v10C3,61,5.1,64,5.1,67.5S3,73.7,0,75.1v1.6C3,78,5.1,81,5.1,84.5S3,91,0,92.4v10c0.6-1.9,1.8-3.5,3.4-4.5
	c1.4-0.9,3-1.5,4.8-1.5c4.8,0,8.7,3.9,8.7,8.7c0,1.6-0.4,3-1.1,4.3c1.5-2.6,4.3-4.3,7.5-4.3c1.2,0,2.3,0.2,3.4,0.7
	c3.1,1.3,5.3,4.4,5.3,8s-2.2,6.7-5.3,8c-1,0.4-2.2,0.7-3.4,0.7c1.2,0,2.3,0.2,3.4,0.7c3.1,1.3,5.3,4.4,5.3,8c0,3.6-2.2,6.7-5.3,8
	c-1,0.4-2.2,0.7-3.4,0.7c-3.2,0-6-1.7-7.5-4.3c0.7,1.3,1.1,2.7,1.1,4.3c0,4.8-3.9,8.7-8.7,8.7c-1.8,0-3.5-0.5-4.8-1.5
	c-1.6-1.1-2.8-2.7-3.4-4.5v7.7h26.5c0.7-4.1,4.2-7.2,8.5-7.2s7.8,3.1,8.5,7.2h36.6c0.7-4.1,4.2-7.2,8.5-7.2s7.8,3.1,8.5,7.2h36.6
	c0.7-4.1,4.2-7.2,8.5-7.2s7.8,3.1,8.5,7.2h36.6c0.7-4.1,4.2-7.2,8.5-7.2s7.8,3.1,8.5,7.2h36.6c0.7-4.1,4.2-7.2,8.5-7.2
	s7.8,3.1,8.5,7.2h36.6c0.7-4.1,4.2-7.2,8.5-7.2s7.8,3.1,8.5,7.2h36.6c0.7-4.1,4.2-7.2,8.5-7.2s7.8,3.1,8.5,7.2h36.6
	c0.7-4.1,4.2-7.2,8.5-7.2s7.8,3.1,8.5,7.2h36.6c0.7-4.1,4.2-7.2,8.5-7.2s7.8,3.1,8.5,7.2H500v-13c-0.5-0.5-0.9-1.1-1.3-1.7
	c0.7,1.3,1.1,2.7,1.1,4.3c0,1.8-0.5,3.5-1.5,4.8c-0.3,0.5-0.7,0.9-1.1,1.3c-0.4,0.4-0.8,0.7-1.3,1.1c-1.4,0.9-3,1.5-4.8,1.5
	s-3.5-0.5-4.8-1.5c-0.5-0.3-0.9-0.7-1.3-1.1c-0.4-0.4-0.7-0.8-1.1-1.3c-0.9-1.4-1.5-3-1.5-4.8c0-1.1,0.2-2.2,0.6-3.2
	c0.1-0.3,0.3-0.7,0.5-1c-0.4,0.6-0.8,1.2-1.4,1.7c-1.6,1.5-3.7,2.5-6,2.5c-4.8,0-8.7-3.9-8.7-8.7s3.9-8.7,8.7-8.7
	c-4.8,0-8.7-3.9-8.7-8.7c0-4.8,3.9-8.7,8.7-8.7c2.4,0,4.5,0.9,6,2.5c0.5,0.5,1,1.1,1.4,1.7c-0.2-0.3-0.3-0.6-0.5-1
	c-0.4-1-0.6-2.1-0.6-3.2c0-1.8,0.5-3.5,1.5-4.8c0.3-0.5,0.7-0.9,1.1-1.3s0.8-0.7,1.3-1.1c1.4-0.9,3-1.5,4.8-1.5s3.5,0.5,4.8,1.5
	c0.5,0.3,0.9,0.7,1.3,1.1s0.7,0.8,1.1,1.3c0.9,1.4,1.5,3,1.5,4.8c0,1.6-0.4,3-1.1,4.3c0.4-0.6,0.8-1.2,1.3-1.7v-15
	c-3.3-1.2-5.7-4.4-5.7-8.1s2.4-6.9,5.7-8.1v-1.1c-3.3-1.2-5.7-4.4-5.7-8.1s2.4-6.9,5.7-8.1v-15c-0.5-0.5-0.9-1.1-1.3-1.7
	c0.7,1.3,1.1,2.7,1.1,4.3c0,4.8-3.9,8.7-8.7,8.7c-4.8,0-8.7-3.9-8.7-8.7c0-1.5,0.4-2.9,1.1-4.2c-1.5,2.5-4.3,4.2-7.4,4.2
	c-4.8,0-8.7-3.9-8.7-8.7s3.9-8.7,8.7-8.7c-4.8,0-8.7-3.9-8.7-8.7s3.9-8.7,8.7-8.7c3.1,0,5.9,1.7,7.4,4.2c-0.7-1.2-1.1-2.7-1.1-4.2
	c0-4.8,3.9-8.7,8.7-8.7c4.8,0,8.7,3.9,8.7,8.7c0,1.6-0.4,3-1.1,4.3c0.4-0.6,0.8-1.2,1.3-1.7V0h-18.8c-0.6,0.1-1.2,0.2-1.9,0.2
	c-0.6,0-1.2-0.1-1.8-0.2H473c0,0.1,0,0.1,0,0.2c0,4.8-3.9,8.7-8.7,8.7s-8.7-3.9-8.7-8.7c0-0.1,0-0.1,0-0.2h-4.5
	c-0.6,0.1-1.2,0.2-1.8,0.2c-0.7,0-1.3-0.1-1.9-0.2h-19.9c-0.6,0.1-1.2,0.2-1.9,0.2c-0.6,0-1.2-0.1-1.8-0.2h-4.5c0,0.1,0,0.1,0,0.2
	c0,4.8-3.9,8.7-8.7,8.7c-4.8,0-8.7-3.9-8.7-8.7c0-0.1,0-0.1,0-0.2h-4.5c-0.6,0.1-1.2,0.2-1.8,0.2c-0.7,0-1.3-0.1-1.9-0.2h-19.9
	c-0.6,0.1-1.2,0.2-1.9,0.2c-0.6,0-1.2-0.1-1.8-0.2h-4.5c0,0.1,0,0.1,0,0.2c0,4.8-3.9,8.7-8.7,8.7s-8.7-3.9-8.7-8.7
	c0-0.1,0-0.1,0-0.2h-4.5c-0.6,0.1-1.2,0.2-1.8,0.2c-0.7,0-1.3-0.1-1.9-0.2h-19.9c-0.6,0.1-1.2,0.2-1.9,0.2c-0.6,0-1.2-0.1-1.8-0.2
	H312c0,0.1,0,0.1,0,0.2c0,4.8-3.9,8.7-8.7,8.7c-4.8,0-8.7-3.9-8.7-8.7c0-0.1,0-0.1,0-0.2h-4.5c-0.6,0.1-1.2,0.2-1.8,0.2
	c-0.7,0-1.3-0.1-1.9-0.2h-19.9c-0.6,0.1-1.2,0.2-1.9,0.2c-0.6,0-1.2-0.1-1.8-0.2h-4.5c0,0.1,0,0.1,0,0.2c0,4.8-3.9,8.7-8.7,8.7
	s-8.7-3.9-8.7-8.7c0-0.1,0-0.1,0-0.2h-4.5c-0.6,0.1-1.2,0.2-1.8,0.2c-0.7,0-1.3-0.1-1.9-0.2h-19.9c-0.6,0.1-1.2,0.2-1.9,0.2
	c-0.6,0-1.2-0.1-1.8-0.2h-4.5c0,0.1,0,0.1,0,0.2c0,4.8-3.9,8.7-8.7,8.7s-8.7-3.9-8.7-8.7c0-0.1,0-0.1,0-0.2h-4.5
	c-0.6,0.1-1.2,0.2-1.8,0.2c-0.7,0-1.3-0.1-1.9-0.2h-19.9c-0.6,0.1-1.2,0.2-1.9,0.2c-0.6,0-1.2-0.1-1.8-0.2H151c0,0.1,0,0.1,0,0.2
	c0,4.8-3.9,8.7-8.7,8.7s-8.7-3.9-8.7-8.7c0-0.1,0-0.1,0-0.2h-4.5c-0.6,0.1-1.2,0.2-1.8,0.2c-0.7,0-1.3-0.1-1.9-0.2h-19.9
	c-0.6,0.1-1.2,0.2-1.9,0.2c-0.6,0-1.2-0.1-1.8-0.2h-4.5c0,0.1,0,0.1,0,0.2c0,4.8-3.9,8.7-8.7,8.7S80.1,5,80.1,0.2c0-0.1,0-0.1,0-0.2
	h-4.5c-0.6,0.1-1.2,0.2-1.8,0.2c-0.7,0-1.3-0.1-1.9-0.2H52c-0.6,0.1-1.2,0.2-1.9,0.2c-0.6,0-1.2-0.1-1.8-0.2h-4.5c0,0.1,0,0.1,0,0.2
	C43.7,5,39.9,8.9,35.1,8.9z M20.1,93.2c-4.8,0-8.7-3.9-8.7-8.7c0-4.8,3.9-8.7,8.7-8.7c-4.8,0-8.7-3.9-8.7-8.7s3.9-8.7,8.7-8.7
	c3.1,0,5.9,1.7,7.4,4.2c-0.7-1.2-1.1-2.7-1.1-4.2c0-4.8,3.9-8.7,8.7-8.7s8.7,3.9,8.7,8.7c0,1.6-0.4,3-1.1,4.3
	c1.5-2.6,4.3-4.3,7.5-4.3c4.8,0,8.7,3.9,8.7,8.7s-3.9,8.7-8.7,8.7c4.8,0,8.7,3.9,8.7,8.7c0,4.8-3.9,8.7-8.7,8.7
	c-3.2,0-6-1.7-7.5-4.3c0.7,1.3,1.1,2.7,1.1,4.3c0,4.8-3.9,8.7-8.7,8.7s-8.7-3.9-8.7-8.7c0-1.5,0.4-2.9,1.1-4.2
	C26,91.5,23.2,93.2,20.1,93.2z M85.6,131c0,4.8-3.9,8.7-8.7,8.7c-3.2,0-6-1.7-7.5-4.3c0.7,1.3,1.1,2.7,1.1,4.3
	c0,1.8-0.5,3.5-1.5,4.8c-0.3,0.5-0.7,0.9-1.1,1.3c-0.4,0.4-0.8,0.7-1.3,1.1c-1.4,0.9-3,1.5-4.8,1.5s-3.5-0.5-4.8-1.5
	c-0.5-0.3-0.9-0.7-1.3-1.1c-0.4-0.4-0.7-0.8-1.1-1.3c-0.9-1.4-1.5-3-1.5-4.8c0-1.1,0.2-2.2,0.6-3.2c0.1-0.3,0.3-0.7,0.5-1
	c-0.4,0.6-0.8,1.2-1.4,1.7c-1.6,1.5-3.7,2.5-6,2.5c-4.8,0-8.7-3.9-8.7-8.7s3.9-8.7,8.7-8.7c-4.8,0-8.7-3.9-8.7-8.7
	c0-4.8,3.9-8.7,8.7-8.7c2.4,0,4.5,0.9,6,2.5c0.5,0.5,1,1.1,1.4,1.7c-0.2-0.3-0.3-0.6-0.5-1c-0.4-1-0.6-2.1-0.6-3.2
	c0-1.8,0.5-3.5,1.5-4.8c0.3-0.5,0.7-0.9,1.1-1.3c0.4-0.4,0.8-0.7,1.3-1.1c1.4-0.9,3-1.5,4.8-1.5s3.5,0.5,4.8,1.5
	c0.5,0.3,0.9,0.7,1.3,1.1s0.7,0.8,1.1,1.3c0.9,1.4,1.5,3,1.5,4.8c0,1.6-0.4,3-1.1,4.3c1.5-2.6,4.3-4.3,7.5-4.3
	c4.8,0,8.7,3.9,8.7,8.7c0,4.8-3.9,8.7-8.7,8.7C81.7,122.3,85.6,126.2,85.6,131z M139.2,131c0,4.8-3.9,8.7-8.7,8.7
	c-3.2,0-6-1.7-7.5-4.3c0.7,1.3,1.1,2.7,1.1,4.3c0,4.8-3.9,8.7-8.7,8.7s-8.7-3.9-8.7-8.7c0-1.5,0.4-2.9,1.1-4.2
	c-1.5,2.5-4.3,4.2-7.4,4.2c-4.8,0-8.7-3.9-8.7-8.7s3.9-8.7,8.7-8.7c-4.8,0-8.7-3.9-8.7-8.7c0-4.8,3.9-8.7,8.7-8.7
	c3.1,0,5.9,1.7,7.4,4.2c-0.7-1.2-1.1-2.7-1.1-4.2c0-4.8,3.9-8.7,8.7-8.7s8.7,3.9,8.7,8.7c0,1.6-0.4,3-1.1,4.3
	c1.5-2.6,4.3-4.3,7.5-4.3c4.8,0,8.7,3.9,8.7,8.7c0,4.8-3.9,8.7-8.7,8.7C135.3,122.3,139.2,126.2,139.2,131z M188.3,123.3
	c0.5,0.3,1,0.6,1.4,0.9c1.9,1.6,3.2,4,3.2,6.7s-1.2,5.1-3.2,6.7c-0.4,0.4-0.9,0.7-1.4,0.9c-1.2,0.7-2.6,1-4.1,1
	c-1.6,0-3.1-0.4-4.4-1.2c-0.3-0.2-0.6-0.4-0.9-0.6c-0.6-0.5-1.1-1-1.6-1.6c-0.2-0.3-0.4-0.6-0.6-0.9c0.7,1.3,1.1,2.7,1.1,4.3
	c0,4.8-3.9,8.7-8.7,8.7c-0.3,0-0.6,0-0.9,0c-1.7-0.2-3.3-0.9-4.6-1.9c-0.6-0.5-1.2-1.1-1.7-1.8c-0.3-0.5-0.6-1-0.8-1.5
	c-0.4-1-0.7-2.2-0.7-3.4c0-1.5,0.4-2.9,1.1-4.2c-1.5,2.5-4.3,4.2-7.4,4.2c-4.8,0-8.7-3.9-8.7-8.7s3.9-8.7,8.7-8.7
	c-4.8,0-8.7-3.9-8.7-8.7c0-4.8,3.9-8.7,8.7-8.7c3.1,0,5.9,1.7,7.4,4.2c-0.7-1.2-1.1-2.7-1.1-4.2c0-1.2,0.2-2.3,0.7-3.4
	c0.2-0.5,0.5-1,0.8-1.5c0.5-0.7,1-1.3,1.7-1.8c1.3-1.1,2.9-1.8,4.6-1.9c0.3,0,0.6,0,0.9,0c4.8,0,8.7,3.9,8.7,8.7
	c0,1.6-0.4,3-1.1,4.3c0.2-0.3,0.4-0.6,0.6-0.9c0.5-0.6,1-1.1,1.6-1.6c0.3-0.2,0.6-0.4,0.9-0.6c1.3-0.7,2.8-1.2,4.4-1.2
	c1.5,0,2.9,0.4,4.1,1c0.5,0.3,1,0.6,1.4,0.9c1.9,1.6,3.2,4,3.2,6.7s-1.2,5.1-3.2,6.7c-0.4,0.4-0.9,0.7-1.4,0.9c-1.2,0.7-2.6,1-4.1,1
	C185.7,122.3,187.1,122.7,188.3,123.3z M246.5,131c0,4.8-3.9,8.7-8.7,8.7c-3.2,0-6-1.7-7.5-4.3c0.7,1.3,1.1,2.7,1.1,4.3
	c0,1.2-0.2,2.3-0.7,3.4c-0.2,0.5-0.5,1-0.8,1.5c-0.5,0.7-1,1.3-1.7,1.8c-1.3,1.1-2.9,1.8-4.6,1.9c-0.3,0-0.6,0-0.9,0
	c-4.8,0-8.7-3.9-8.7-8.7c0-1.5,0.4-2.9,1.1-4.2c-1.5,2.5-4.3,4.2-7.4,4.2c-1.8,0-3.5-0.5-4.8-1.5c-2.3-1.6-3.8-4.2-3.8-7.2
	s1.5-5.6,3.8-7.2c1.4-0.9,3-1.5,4.8-1.5c-1.8,0-3.5-0.5-4.8-1.5c-2.3-1.6-3.8-4.2-3.8-7.2s1.5-5.6,3.8-7.2c1.4-0.9,3-1.5,4.8-1.5
	c3.1,0,5.9,1.7,7.4,4.2c-0.7-1.2-1.1-2.7-1.1-4.2c0-4.8,3.9-8.7,8.7-8.7c0.3,0,0.6,0,0.9,0c1.7,0.2,3.3,0.9,4.6,1.9
	c0.6,0.5,1.2,1.1,1.7,1.8c0.3,0.5,0.6,1,0.8,1.5c0.4,1,0.7,2.2,0.7,3.4c0,1.6-0.4,3-1.1,4.3c1.5-2.6,4.3-4.3,7.5-4.3
	c4.8,0,8.7,3.9,8.7,8.7c0,4.8-3.9,8.7-8.7,8.7C242.7,122.3,246.5,126.2,246.5,131z M300.2,131c0,4.8-3.9,8.7-8.7,8.7
	c-1.2,0-2.3-0.2-3.4-0.7c-1.7-0.7-3.2-2-4.1-3.6c0.2,0.3,0.3,0.6,0.5,1c0.4,1,0.6,2.1,0.6,3.3c0,4.8-3.9,8.7-8.7,8.7
	s-8.7-3.9-8.7-8.7c0-1.5,0.4-2.9,1.1-4.2c-0.2,0.3-0.4,0.6-0.6,0.9c-1.6,2-4,3.3-6.8,3.3c-1.8,0-3.5-0.5-4.8-1.5
	c-0.5-0.3-0.9-0.7-1.3-1.1c-0.4-0.4-0.7-0.8-1.1-1.3c-0.9-1.4-1.5-3-1.5-4.8s0.5-3.5,1.5-4.8c0.3-0.5,0.7-0.9,1.1-1.3
	c0.4-0.4,0.8-0.7,1.3-1.1c1.4-0.9,3-1.5,4.8-1.5c-1.8,0-3.5-0.5-4.8-1.5c-0.5-0.3-0.9-0.7-1.3-1.1c-0.4-0.4-0.7-0.8-1.1-1.3
	c-0.9-1.4-1.5-3-1.5-4.8s0.5-3.5,1.5-4.8c0.3-0.5,0.7-0.9,1.1-1.3c0.4-0.4,0.8-0.7,1.3-1.1c1.4-0.9,3-1.5,4.8-1.5
	c2.7,0,5.2,1.3,6.8,3.3c0.2,0.3,0.4,0.6,0.6,0.9c-0.7-1.2-1.1-2.7-1.1-4.2c0-4.8,3.9-8.7,8.7-8.7s8.7,3.9,8.7,8.7
	c0,1.2-0.2,2.3-0.6,3.3c-0.1,0.3-0.3,0.7-0.5,1c0.9-1.6,2.4-2.9,4.1-3.6c1-0.4,2.2-0.7,3.4-0.7c4.8,0,8.7,3.9,8.7,8.7
	c0,4.8-3.9,8.7-8.7,8.7C296.3,122.3,300.2,126.2,300.2,131z M353.9,131c0,4.8-3.9,8.7-8.7,8.7c-3.2,0-6-1.7-7.5-4.3
	c0.7,1.3,1.1,2.7,1.1,4.3c0,4.8-3.9,8.7-8.7,8.7c-4.8,0-8.7-3.9-8.7-8.7c0-1.5,0.4-2.9,1.1-4.2c-1.5,2.5-4.3,4.2-7.4,4.2
	c-4.8,0-8.7-3.9-8.7-8.7s3.9-8.7,8.7-8.7c-4.8,0-8.7-3.9-8.7-8.7c0-4.8,3.9-8.7,8.7-8.7c3.1,0,5.9,1.7,7.4,4.2
	c-0.7-1.2-1.1-2.7-1.1-4.2c0-4.8,3.9-8.7,8.7-8.7c4.8,0,8.7,3.9,8.7,8.7c0,1.6-0.4,3-1.1,4.3c1.5-2.6,4.3-4.3,7.5-4.3
	c4.8,0,8.7,3.9,8.7,8.7c0,4.8-3.9,8.7-8.7,8.7C350,122.3,353.9,126.2,353.9,131z M407.5,131c0,4.8-3.9,8.7-8.7,8.7
	c-3.2,0-6-1.7-7.5-4.3c0.4,0.6,0.6,1.3,0.8,2c0.2,0.7,0.3,1.5,0.3,2.2c0,3-1.5,5.6-3.8,7.2c-1.4,0.9-3,1.5-4.8,1.5
	c-4.8,0-8.7-3.9-8.7-8.7c0-0.8,0.1-1.5,0.3-2.2c0.2-0.7,0.4-1.4,0.8-2c-1.5,2.5-4.3,4.2-7.4,4.2c-0.3,0-0.6,0-0.9,0
	c-4.4-0.4-7.8-4.1-7.8-8.6s3.4-8.2,7.8-8.6c0.3,0,0.6,0,0.9,0c-0.3,0-0.6,0-0.9,0c-4.4-0.4-7.8-4.1-7.8-8.6s3.4-8.2,7.8-8.6
	c0.3,0,0.6,0,0.9,0c3.1,0,5.9,1.7,7.4,4.2c-0.3-0.6-0.6-1.3-0.8-2c-0.2-0.7-0.3-1.4-0.3-2.2c0-4.8,3.9-8.7,8.7-8.7
	c1.8,0,3.5,0.5,4.8,1.5c2.3,1.6,3.8,4.2,3.8,7.2l0,0c0,0.8-0.1,1.5-0.3,2.2s-0.5,1.4-0.8,2c1.5-2.6,4.3-4.3,7.5-4.3
	c4.8,0,8.7,3.9,8.7,8.7c0,4.8-3.9,8.7-8.7,8.7C403.6,122.3,407.5,126.2,407.5,131z M455.9,105.7c1,0.4,2,1.1,2.8,1.9
	c0.2,0.2,0.4,0.4,0.6,0.6c0.4,0.4,0.7,0.9,0.9,1.4c0.7,1.2,1,2.6,1,4.1s-0.4,2.9-1,4.1c-0.3,0.5-0.6,1-0.9,1.4
	c-0.2,0.2-0.4,0.4-0.6,0.6c-0.8,0.8-1.7,1.4-2.8,1.9s-2.2,0.7-3.4,0.7c1.2,0,2.3,0.2,3.4,0.7c1,0.4,2,1.1,2.8,1.9
	c0.2,0.2,0.4,0.4,0.6,0.6c0.4,0.4,0.7,0.9,0.9,1.4c0.7,1.2,1,2.6,1,4.1s-0.4,2.9-1,4.1c-0.3,0.5-0.6,1-0.9,1.4
	c-0.2,0.2-0.4,0.4-0.6,0.6c-0.8,0.8-1.7,1.4-2.8,1.9s-2.2,0.7-3.4,0.7c-1.2,0-2.3-0.2-3.4-0.7c-0.7-0.3-1.3-0.7-1.9-1.1
	c-0.9-0.7-1.6-1.5-2.2-2.5c0.7,1.3,1.1,2.7,1.1,4.3c0,4.8-3.9,8.7-8.7,8.7c-1.8,0-3.5-0.5-4.8-1.5c-2.3-1.6-3.8-4.2-3.8-7.2
	c0-1.1,0.2-2.2,0.6-3.2c0.1-0.3,0.3-0.7,0.5-1c-1.5,2.5-4.3,4.2-7.4,4.2c-4.8,0-8.7-3.9-8.7-8.7s3.9-8.7,8.7-8.7
	c-4.8,0-8.7-3.9-8.7-8.7c0-4.8,3.9-8.7,8.7-8.7c3.1,0,5.9,1.7,7.4,4.2c-0.2-0.3-0.3-0.6-0.5-1c-0.4-1-0.6-2.1-0.6-3.2l0,0
	c0-3,1.5-5.6,3.8-7.2c1.4-0.9,3-1.5,4.8-1.5c4.8,0,8.7,3.9,8.7,8.7c0,1.6-0.4,3-1.1,4.3c0.6-1,1.3-1.8,2.2-2.5
	c0.6-0.5,1.2-0.8,1.9-1.1c1-0.4,2.2-0.7,3.4-0.7C453.7,105,454.8,105.2,455.9,105.7z M473,58.5c0,1.6-0.4,3-1.1,4.3
	c1.5-2.6,4.3-4.3,7.5-4.3c4.8,0,8.7,3.9,8.7,8.7s-3.9,8.7-8.7,8.7c4.8,0,8.7,3.9,8.7,8.7c0,4.8-3.9,8.7-8.7,8.7
	c-3.2,0-6-1.7-7.5-4.3c0.7,1.3,1.1,2.7,1.1,4.3c0,4.8-3.9,8.7-8.7,8.7s-8.7-3.9-8.7-8.7c0-1.5,0.4-2.9,1.1-4.2
	c-1.5,2.5-4.3,4.2-7.4,4.2c-4.8,0-8.7-3.9-8.7-8.7c0-4.8,3.9-8.7,8.7-8.7c-4.8,0-8.7-3.9-8.7-8.7s3.9-8.7,8.7-8.7
	c3.1,0,5.9,1.7,7.4,4.2c-0.7-1.2-1.1-2.7-1.1-4.2c0-4.8,3.9-8.7,8.7-8.7S473,53.7,473,58.5z M413.9,20.7c0-4.8,3.9-8.7,8.7-8.7
	c3.1,0,5.9,1.7,7.4,4.2c-0.7-1.2-1.1-2.7-1.1-4.2c0-4.8,3.9-8.7,8.7-8.7s8.7,3.9,8.7,8.7c0,1.6-0.4,3-1.1,4.3
	c1.5-2.6,4.3-4.3,7.5-4.3c4.8,0,8.7,3.9,8.7,8.7s-3.9,8.7-8.7,8.7c4.8,0,8.7,3.9,8.7,8.7s-3.9,8.7-8.7,8.7c-3.2,0-6-1.7-7.5-4.3
	c0.7,1.3,1.1,2.7,1.1,4.3c0,4.8-3.9,8.7-8.7,8.7s-8.7-3.9-8.7-8.7c0-1.5,0.4-2.9,1.1-4.2c-1.5,2.5-4.3,4.2-7.4,4.2
	c-4.8,0-8.7-3.9-8.7-8.7s3.9-8.7,8.7-8.7C417.7,29.4,413.9,25.5,413.9,20.7z M419.3,58.5c0,1.6-0.4,3-1.1,4.3
	c1.5-2.6,4.3-4.3,7.5-4.3c4.8,0,8.7,3.9,8.7,8.7s-3.9,8.7-8.7,8.7c4.8,0,8.7,3.9,8.7,8.7c0,4.8-3.9,8.7-8.7,8.7
	c-3.2,0-6-1.7-7.5-4.3c0.7,1.3,1.1,2.7,1.1,4.3c0,4.8-3.9,8.7-8.7,8.7c-4.8,0-8.7-3.9-8.7-8.7c0-1.5,0.4-2.9,1.1-4.2
	c-1.5,2.5-4.3,4.2-7.4,4.2c-4.8,0-8.7-3.9-8.7-8.7c0-4.8,3.9-8.7,8.7-8.7c-4.8,0-8.7-3.9-8.7-8.7s3.9-8.7,8.7-8.7
	c3.1,0,5.9,1.7,7.4,4.2c-0.7-1.2-1.1-2.7-1.1-4.2c0-4.8,3.9-8.7,8.7-8.7C415.5,49.9,419.3,53.7,419.3,58.5z M360.2,20.7
	c0-4.8,3.9-8.7,8.7-8.7c3.1,0,5.9,1.7,7.4,4.2c-0.7-1.2-1.1-2.7-1.1-4.2c0-4.8,3.9-8.7,8.7-8.7s8.7,3.9,8.7,8.7c0,1.6-0.4,3-1.1,4.3
	c1.5-2.6,4.3-4.3,7.5-4.3c4.8,0,8.7,3.9,8.7,8.7s-3.9,8.7-8.7,8.7c4.8,0,8.7,3.9,8.7,8.7s-3.9,8.7-8.7,8.7c-3.2,0-6-1.7-7.5-4.3
	c0.7,1.3,1.1,2.7,1.1,4.3c0,4.8-3.9,8.7-8.7,8.7s-8.7-3.9-8.7-8.7c0-1.5,0.4-2.9,1.1-4.2c-1.5,2.5-4.3,4.2-7.4,4.2
	c-4.8,0-8.7-3.9-8.7-8.7s3.9-8.7,8.7-8.7C364.1,29.4,360.2,25.5,360.2,20.7z M365.7,58.5c0,1.6-0.4,3-1.1,4.3
	c1.5-2.6,4.3-4.3,7.5-4.3c4.8,0,8.7,3.9,8.7,8.7s-3.9,8.7-8.7,8.7c4.8,0,8.7,3.9,8.7,8.7c0,4.8-3.9,8.7-8.7,8.7
	c-3.2,0-6-1.7-7.5-4.3c0.7,1.3,1.1,2.7,1.1,4.3c0,4.8-3.9,8.7-8.7,8.7s-8.7-3.9-8.7-8.7c0-1.5,0.4-2.9,1.1-4.2
	c-1.5,2.5-4.3,4.2-7.4,4.2c-4.8,0-8.7-3.9-8.7-8.7c0-4.8,3.9-8.7,8.7-8.7c-4.8,0-8.7-3.9-8.7-8.7s3.9-8.7,8.7-8.7
	c3.1,0,5.9,1.7,7.4,4.2c-0.7-1.2-1.1-2.7-1.1-4.2c0-4.8,3.9-8.7,8.7-8.7S365.7,53.7,365.7,58.5z M306.5,20.7c0-4.8,3.9-8.7,8.7-8.7
	c3.1,0,5.9,1.7,7.4,4.2c-0.7-1.2-1.1-2.7-1.1-4.2c0-4.8,3.9-8.7,8.7-8.7c4.8,0,8.7,3.9,8.7,8.7c0,1.6-0.4,3-1.1,4.3
	c1.5-2.6,4.3-4.3,7.5-4.3c4.8,0,8.7,3.9,8.7,8.7s-3.9,8.7-8.7,8.7c4.8,0,8.7,3.9,8.7,8.7s-3.9,8.7-8.7,8.7c-3.2,0-6-1.7-7.5-4.3
	c0.7,1.3,1.1,2.7,1.1,4.3c0,4.8-3.9,8.7-8.7,8.7c-4.8,0-8.7-3.9-8.7-8.7c0-1.5,0.4-2.9,1.1-4.2c-1.5,2.5-4.3,4.2-7.4,4.2
	c-4.8,0-8.7-3.9-8.7-8.7s3.9-8.7,8.7-8.7C310.4,29.4,306.5,25.5,306.5,20.7z M312,58.5c0,1.6-0.4,3-1.1,4.3c1.5-2.6,4.3-4.3,7.5-4.3
	c4.8,0,8.7,3.9,8.7,8.7s-3.9,8.7-8.7,8.7c4.8,0,8.7,3.9,8.7,8.7c0,4.8-3.9,8.7-8.7,8.7c-3.2,0-6-1.7-7.5-4.3
	c0.7,1.3,1.1,2.7,1.1,4.3c0,4.8-3.9,8.7-8.7,8.7s-8.7-3.9-8.7-8.7c0-1.5,0.4-2.9,1.1-4.2c-1.5,2.5-4.3,4.2-7.4,4.2
	c-4.8,0-8.7-3.9-8.7-8.7c0-4.8,3.9-8.7,8.7-8.7c-4.8,0-8.7-3.9-8.7-8.7s3.9-8.7,8.7-8.7c3.1,0,5.9,1.7,7.4,4.2
	c-0.7-1.2-1.1-2.7-1.1-4.2c0-4.8,3.9-8.7,8.7-8.7S312,53.7,312,58.5z M252.9,20.7c0-4.8,3.9-8.7,8.7-8.7c3.1,0,5.9,1.7,7.4,4.2
	c-0.7-1.2-1.1-2.7-1.1-4.2c0-4.8,3.9-8.7,8.7-8.7s8.7,3.9,8.7,8.7c0,1.6-0.4,3-1.1,4.3c1.5-2.6,4.3-4.3,7.5-4.3
	c4.8,0,8.7,3.9,8.7,8.7s-3.9,8.7-8.7,8.7c4.8,0,8.7,3.9,8.7,8.7s-3.9,8.7-8.7,8.7c-3.2,0-6-1.7-7.5-4.3c0.7,1.3,1.1,2.7,1.1,4.3
	c0,4.8-3.9,8.7-8.7,8.7s-8.7-3.9-8.7-8.7c0-1.5,0.4-2.9,1.1-4.2c-1.5,2.5-4.3,4.2-7.4,4.2c-4.8,0-8.7-3.9-8.7-8.7s3.9-8.7,8.7-8.7
	C256.8,29.4,252.9,25.5,252.9,20.7z M258.4,58.5c0,1.6-0.4,3-1.1,4.3c1.5-2.6,4.3-4.3,7.5-4.3c4.8,0,8.7,3.9,8.7,8.7
	s-3.9,8.7-8.7,8.7c4.8,0,8.7,3.9,8.7,8.7c0,4.8-3.9,8.7-8.7,8.7c-3.2,0-6-1.7-7.5-4.3c0.7,1.3,1.1,2.7,1.1,4.3
	c0,4.8-3.9,8.7-8.7,8.7s-8.7-3.9-8.7-8.7c0-1.5,0.4-2.9,1.1-4.2c-1.5,2.5-4.3,4.2-7.4,4.2c-4.8,0-8.7-3.9-8.7-8.7
	c0-4.8,3.9-8.7,8.7-8.7c-4.8,0-8.7-3.9-8.7-8.7s3.9-8.7,8.7-8.7c3.1,0,5.9,1.7,7.4,4.2c-0.7-1.2-1.1-2.7-1.1-4.2
	c0-4.8,3.9-8.7,8.7-8.7C254.5,49.9,258.4,53.7,258.4,58.5z M199.2,20.7c0-4.8,3.9-8.7,8.7-8.7c3.1,0,5.9,1.7,7.4,4.2
	c-0.7-1.2-1.1-2.7-1.1-4.2c0-4.8,3.9-8.7,8.7-8.7s8.7,3.9,8.7,8.7c0,1.6-0.4,3-1.1,4.3c1.5-2.6,4.3-4.3,7.5-4.3
	c4.8,0,8.7,3.9,8.7,8.7s-3.9,8.7-8.7,8.7c4.8,0,8.7,3.9,8.7,8.7s-3.9,8.7-8.7,8.7c-3.2,0-6-1.7-7.5-4.3c0.7,1.3,1.1,2.7,1.1,4.3
	c0,4.8-3.9,8.7-8.7,8.7s-8.7-3.9-8.7-8.7c0-1.5,0.4-2.9,1.1-4.2c-1.5,2.5-4.3,4.2-7.4,4.2c-4.8,0-8.7-3.9-8.7-8.7s3.9-8.7,8.7-8.7
	C203.1,29.4,199.2,25.5,199.2,20.7z M204.7,58.5c0,1.6-0.4,3-1.1,4.3c1.5-2.6,4.3-4.3,7.5-4.3c4.8,0,8.7,3.9,8.7,8.7
	s-3.9,8.7-8.7,8.7c4.8,0,8.7,3.9,8.7,8.7c0,4.8-3.9,8.7-8.7,8.7c-3.2,0-6-1.7-7.5-4.3c0.7,1.3,1.1,2.7,1.1,4.3
	c0,4.8-3.9,8.7-8.7,8.7s-8.7-3.9-8.7-8.7c0-1.5,0.4-2.9,1.1-4.2c-1.5,2.5-4.3,4.2-7.4,4.2c-4.8,0-8.7-3.9-8.7-8.7
	c0-4.8,3.9-8.7,8.7-8.7c-4.8,0-8.7-3.9-8.7-8.7s3.9-8.7,8.7-8.7c3.1,0,5.9,1.7,7.4,4.2c-0.7-1.2-1.1-2.7-1.1-4.2
	c0-4.8,3.9-8.7,8.7-8.7S204.7,53.7,204.7,58.5z M145.6,20.7c0-4.8,3.9-8.7,8.7-8.7c3.1,0,5.9,1.7,7.4,4.2c-0.7-1.2-1.1-2.7-1.1-4.2
	c0-4.8,3.9-8.7,8.7-8.7S178,7.2,178,12c0,1.6-0.4,3-1.1,4.3c1.5-2.6,4.3-4.3,7.5-4.3c4.8,0,8.7,3.9,8.7,8.7s-3.9,8.7-8.7,8.7
	c4.8,0,8.7,3.9,8.7,8.7s-3.9,8.7-8.7,8.7c-3.2,0-6-1.7-7.5-4.3c0.7,1.3,1.1,2.7,1.1,4.3c0,4.8-3.9,8.7-8.7,8.7s-8.7-3.9-8.7-8.7
	c0-1.5,0.4-2.9,1.1-4.2c-1.5,2.5-4.3,4.2-7.4,4.2c-4.8,0-8.7-3.9-8.7-8.7s3.9-8.7,8.7-8.7C149.4,29.4,145.6,25.5,145.6,20.7z
	 M151.1,58.5c0,1.6-0.4,3-1.1,4.3c1.5-2.6,4.3-4.3,7.5-4.3c4.8,0,8.7,3.9,8.7,8.7s-3.9,8.7-8.7,8.7c4.8,0,8.7,3.9,8.7,8.7
	c0,4.8-3.9,8.7-8.7,8.7c-3.2,0-6-1.7-7.5-4.3c0.7,1.3,1.1,2.7,1.1,4.3c0,4.8-3.9,8.7-8.7,8.7s-8.7-3.9-8.7-8.7
	c0-1.5,0.4-2.9,1.1-4.2c-1.5,2.5-4.3,4.2-7.4,4.2c-4.8,0-8.7-3.9-8.7-8.7c0-4.8,3.9-8.7,8.7-8.7c-4.8,0-8.7-3.9-8.7-8.7
	s3.9-8.7,8.7-8.7c3.1,0,5.9,1.7,7.4,4.2c-0.7-1.2-1.1-2.7-1.1-4.2c0-4.8,3.9-8.7,8.7-8.7C147.2,49.9,151.1,53.7,151.1,58.5z
	 M91.9,20.7c0-4.8,3.9-8.7,8.7-8.7c3.1,0,5.9,1.7,7.4,4.2c-0.7-1.2-1.1-2.7-1.1-4.2c0-4.8,3.9-8.7,8.7-8.7s8.7,3.9,8.7,8.7
	c0,1.6-0.4,3-1.1,4.3c1.5-2.6,4.3-4.3,7.5-4.3c4.8,0,8.7,3.9,8.7,8.7s-3.9,8.7-8.7,8.7c4.8,0,8.7,3.9,8.7,8.7s-3.9,8.7-8.7,8.7
	c-3.2,0-6-1.7-7.5-4.3c0.7,1.3,1.1,2.7,1.1,4.3c0,4.8-3.9,8.7-8.7,8.7s-8.7-3.9-8.7-8.7c0-1.5,0.4-2.9,1.1-4.2
	c-1.5,2.5-4.3,4.2-7.4,4.2c-4.8,0-8.7-3.9-8.7-8.7s3.9-8.7,8.7-8.7C95.8,29.4,91.9,25.5,91.9,20.7z M97.4,58.5c0,1.6-0.4,3-1.1,4.3
	c1.5-2.6,4.3-4.3,7.5-4.3c4.8,0,8.7,3.9,8.7,8.7s-3.9,8.7-8.7,8.7c4.8,0,8.7,3.9,8.7,8.7c0,4.8-3.9,8.7-8.7,8.7
	c-3.2,0-6-1.7-7.5-4.3c0.7,1.3,1.1,2.7,1.1,4.3c0,4.8-3.9,8.7-8.7,8.7S80,98.1,80,93.3c0-1.5,0.4-2.9,1.1-4.2
	c-1.5,2.5-4.3,4.2-7.4,4.2c-4.8,0-8.7-3.9-8.7-8.7c0-4.8,3.9-8.7,8.7-8.7c-4.8,0-8.7-3.9-8.7-8.7s3.9-8.7,8.7-8.7
	c3.1,0,5.9,1.7,7.4,4.2C80.4,61.5,80,60,80,58.5c0-4.8,3.9-8.7,8.7-8.7S97.4,53.7,97.4,58.5z M54.3,16.2c-0.7-1.2-1.1-2.7-1.1-4.2
	c0-4.8,3.9-8.7,8.7-8.7s8.7,3.9,8.7,8.7c0,1.6-0.4,3-1.1,4.3C71,13.7,73.8,12,77,12c4.8,0,8.7,3.9,8.7,8.7s-3.9,8.7-8.7,8.7
	c4.8,0,8.7,3.9,8.7,8.7s-3.9,8.7-8.7,8.7c-3.2,0-6-1.7-7.5-4.3c0.7,1.3,1.1,2.7,1.1,4.3c0,4.8-3.9,8.7-8.7,8.7s-8.7-3.9-8.7-8.7
	c0-1.5,0.4-2.9,1.1-4.2c-1.5,2.5-4.3,4.2-7.4,4.2c-4.8,0-8.7-3.9-8.7-8.7s3.9-8.7,8.7-8.7c-4.8,0-8.7-3.9-8.7-8.7s3.9-8.7,8.7-8.7
	C50,12,52.8,13.7,54.3,16.2z"/>
<path class="st0" d="M28.7,84.5c0,1.5-0.4,2.9-1.1,4.2c1.5-2.5,4.3-4.2,7.4-4.2c3.2,0,6,1.7,7.5,4.3c-0.7-1.3-1.1-2.7-1.1-4.3
	c0-4.8,3.9-8.7,8.7-8.7c-4.8,0-8.7-3.9-8.7-8.7c0-1.6,0.4-3,1.1-4.3c-1.5,2.6-4.3,4.3-7.5,4.3c-3.1,0-5.9-1.7-7.4-4.2
	c0.7,1.2,1.1,2.7,1.1,4.2c0,4.8-3.9,8.7-8.7,8.7C24.9,75.8,28.7,79.7,28.7,84.5z"/>
<path class="st0" d="M109.2,38c0,1.5-0.4,2.9-1.1,4.2c1.5-2.5,4.3-4.2,7.4-4.2c3.2,0,6,1.7,7.5,4.3c-0.7-1.3-1.1-2.7-1.1-4.3
	c0-4.8,3.9-8.7,8.7-8.7c-4.8,0-8.7-3.9-8.7-8.7c0-1.6,0.4-3,1.1-4.3c-1.5,2.6-4.3,4.3-7.5,4.3c-3.1,0-5.9-1.7-7.4-4.2
	c0.7,1.2,1.1,2.7,1.1,4.2c0,4.8-3.9,8.7-8.7,8.7C105.3,29.4,109.2,33.2,109.2,38z"/>
<path class="st0" d="M68.2,20.7c0-1.6,0.4-3,1.1-4.3c-1.5,2.6-4.3,4.3-7.5,4.3c-3.1,0-5.9-1.7-7.4-4.2c0.7,1.2,1.1,2.7,1.1,4.2
	c0,4.8-3.9,8.7-8.7,8.7c4.8,0,8.7,3.9,8.7,8.7c0,1.5-0.4,2.9-1.1,4.2c1.5-2.5,4.3-4.2,7.4-4.2c3.2,0,6,1.7,7.5,4.3
	c-0.7-1.3-1.1-2.7-1.1-4.3c0-4.8,3.9-8.7,8.7-8.7C72.1,29.4,68.2,25.5,68.2,20.7z"/>
<path class="st0" d="M95.1,67.2c0-1.6,0.4-3,1.1-4.3c-1.5,2.6-4.3,4.3-7.5,4.3c-3.1,0-5.9-1.7-7.4-4.2c0.7,1.2,1.1,2.7,1.1,4.2
	c0,4.8-3.9,8.7-8.7,8.7c4.8,0,8.7,3.9,8.7,8.7c0,1.5-0.4,2.9-1.1,4.2c1.5-2.5,4.3-4.2,7.4-4.2c3.2,0,6,1.7,7.5,4.3
	c-0.7-1.3-1.1-2.7-1.1-4.3c0-4.8,3.9-8.7,8.7-8.7C99,75.8,95.1,72,95.1,67.2z"/>
<path d="M27.5,89c-0.7,1.2-1.1,2.7-1.1,4.2c0,4.8,3.9,8.7,8.7,8.7s8.7-3.9,8.7-8.7c0-1.6-0.4-3-1.1-4.3c1.5,2.6,4.3,4.3,7.5,4.3
	c4.8,0,8.7-3.9,8.7-8.7c0-4.8-3.9-8.7-8.7-8.7v8.7l-7.5,4.3l-7.5,4.3l-7.5-4.3c0,0,0-0.1,0.1-0.1l-0.1,0.1l-7.5-4.3v-8.7
	c-4.8,0-8.7,3.9-8.7,8.7c0,4.8,3.9,8.7,8.7,8.7C23.2,93.2,26,91.5,27.5,89z"/>
<path class="st1" d="M27.6,88.8c0,0,0-0.1,0.1-0.1C27.6,88.7,27.6,88.8,27.6,88.8l7.5,4.3l7.5-4.3l7.5-4.3v-8.7
	c-4.8,0-8.7,3.9-8.7,8.7c0,1.6,0.4,3,1.1,4.3c-1.5-2.6-4.3-4.3-7.5-4.3c-3.1,0-5.9,1.7-7.4,4.2c0.7-1.2,1.1-2.7,1.1-4.2
	c0-4.8-3.9-8.7-8.7-8.7v8.7L27.6,88.8z"/>
<path d="M27.6,62.8c0,0,0,0.1,0.1,0.1C27.6,62.9,27.6,62.9,27.6,62.8l7.5-4.3l7.5,4.3l7.5,4.3v8.7c4.8,0,8.7-3.9,8.7-8.7
	s-3.9-8.7-8.7-8.7c-3.2,0-6,1.7-7.5,4.3c0.7-1.3,1.1-2.7,1.1-4.3c0-4.8-3.9-8.7-8.7-8.7s-8.7,3.9-8.7,8.7c0,1.5,0.4,2.9,1.1,4.2
	c-1.5-2.5-4.3-4.2-7.4-4.2c-4.8,0-8.7,3.9-8.7,8.7s3.9,8.7,8.7,8.7v-8.7L27.6,62.8z"/>
<path class="st1" d="M28.7,67.2c0-1.5-0.4-2.9-1.1-4.2c1.5,2.5,4.3,4.2,7.4,4.2c3.2,0,6-1.7,7.5-4.3c-0.7,1.3-1.1,2.7-1.1,4.3
	c0,4.8,3.9,8.7,8.7,8.7v-8.7l-7.5-4.3l-7.5-4.3l-7.5,4.3c0,0,0,0.1,0.1,0.1l-0.1-0.1l-7.5,4.3v8.7C24.9,75.8,28.7,72,28.7,67.2z"/>
<path d="M96.2,62.8l-7.5-4.3l-7.5,4.3c0,0,0-0.1-0.1-0.1c0,0,0,0.1,0.1,0.1l-7.5,4.3v8.7c4.8,0,8.7-3.9,8.7-8.7
	c0-1.5-0.4-2.9-1.1-4.2c1.5,2.5,4.3,4.2,7.4,4.2C91.9,67.2,94.7,65.5,96.2,62.8c-0.8,1.3-1.2,2.8-1.2,4.3c0,4.8,3.9,8.7,8.7,8.7
	v-8.7L96.2,62.8z"/>
<path class="st1" d="M96.2,88.8l-7.5,4.3l-7.5-4.3c0,0,0,0.1-0.1,0.1c0,0,0-0.1,0.1-0.1l-7.5-4.3v-8.7c-4.8,0-8.7,3.9-8.7,8.7
	c0,4.8,3.9,8.7,8.7,8.7c3.1,0,5.9-1.7,7.4-4.2c-0.7,1.2-1.1,2.7-1.1,4.2c0,4.8,3.9,8.7,8.7,8.7s8.7-3.9,8.7-8.7
	C97.4,91.6,97,90.1,96.2,88.8c1.5,2.6,4.3,4.3,7.5,4.3c4.8,0,8.7-3.9,8.7-8.7c0-4.8-3.9-8.7-8.7-8.7v8.7L96.2,88.8z"/>
<path d="M95.1,84.5c0,1.6,0.4,3,1.1,4.3c-1.5-2.6-4.3-4.3-7.5-4.3c-3.1,0-5.9,1.7-7.4,4.2c0.7-1.2,1.1-2.7,1.1-4.2
	c0-4.8-3.9-8.7-8.7-8.7v8.7l7.5,4.3c0,0,0,0.1-0.1,0.1l0.1-0.1l7.5,4.3l7.5-4.3l7.5-4.3v-8.7C99,75.8,95.1,79.7,95.1,84.5z"/>
<path class="st1" d="M80.1,58.5c0,1.5,0.4,2.9,1.1,4.2c-1.5-2.5-4.3-4.2-7.4-4.2c-4.8,0-8.7,3.9-8.7,8.7s3.9,8.7,8.7,8.7v-8.7
	l7.5-4.3c0,0,0-0.1-0.1-0.1l0.1,0.1l7.5-4.3l7.5,4.3l7.5,4.3v8.7c4.8,0,8.7-3.9,8.7-8.7s-3.9-8.7-8.7-8.7c-3.2,0-6,1.7-7.5,4.3
	c0.7-1.3,1.1-2.7,1.1-4.3c0-4.8-3.9-8.7-8.7-8.7S80.1,53.7,80.1,58.5z"/>
<path d="M69.4,16.4L61.9,12l-7.5,4.3c0,0,0-0.1-0.1-0.1c0,0,0,0.1,0.1,0.1l-7.5,4.3v8.7c4.8,0,8.7-3.9,8.7-8.7
	c0-1.5-0.4-2.9-1.1-4.2c1.5,2.5,4.3,4.2,7.4,4.2C65.1,20.7,67.9,19,69.4,16.4c-0.8,1.3-1.2,2.8-1.2,4.3c0,4.8,3.9,8.7,8.7,8.7v-8.7
	L69.4,16.4z"/>
<path class="st1" d="M69.4,42.4l-7.5,4.3l-7.5-4.3c0,0,0,0.1-0.1,0.1c0,0,0-0.1,0.1-0.1L46.9,38v-8.7c-4.8,0-8.7,3.9-8.7,8.7
	s3.9,8.7,8.7,8.7c3.1,0,5.9-1.7,7.4-4.2c-0.7,1.2-1.1,2.7-1.1,4.2c0,4.8,3.9,8.7,8.7,8.7s8.7-3.9,8.7-8.7
	C70.6,45.1,70.2,43.7,69.4,42.4c1.5,2.6,4.3,4.3,7.5,4.3c4.8,0,8.7-3.9,8.7-8.7s-3.9-8.7-8.7-8.7V38L69.4,42.4z"/>
<path d="M68.2,38c0,1.6,0.4,3,1.1,4.3C67.8,39.7,65,38,61.8,38c-3.1,0-5.9,1.7-7.4,4.2c0.7-1.2,1.1-2.7,1.1-4.2
	c0-4.8-3.9-8.7-8.7-8.7V38l7.5,4.3c0,0,0,0.1-0.1,0.1l0.1-0.1l7.5,4.3l7.5-4.3l7.5-4.3v-8.7C72.1,29.4,68.2,33.2,68.2,38z"/>
<path class="st1" d="M38.2,20.7c0,4.8,3.9,8.7,8.7,8.7v-8.7l7.5-4.3c0,0,0-0.1-0.1-0.1l0.1,0.1l7.5-4.3l7.5,4.3l7.5,4.3v8.7
	c4.8,0,8.7-3.9,8.7-8.7S81.7,12,76.9,12c-3.2,0-6,1.7-7.5,4.3c0.7-1.3,1.1-2.7,1.1-4.3c0-4.8-3.9-8.7-8.7-8.7s-8.7,3.9-8.7,8.7
	c0,1.5,0.4,2.9,1.1,4.2C52.8,13.7,50,12,46.9,12C42.1,12,38.2,15.9,38.2,20.7z"/>
<path d="M91.9,38c0,4.8,3.9,8.7,8.7,8.7c3.1,0,5.9-1.7,7.4-4.2c-0.7,1.2-1.1,2.7-1.1,4.2c0,4.8,3.9,8.7,8.7,8.7s8.7-3.9,8.7-8.7
	c0-1.6-0.4-3-1.1-4.3c1.5,2.6,4.3,4.3,7.5,4.3c4.8,0,8.7-3.9,8.7-8.7s-3.9-8.7-8.7-8.7V38l-7.5,4.3l-7.5,4.3l-7.5-4.3
	c0,0,0-0.1,0.1-0.1l-0.1,0.1l-7.5-4.3v-8.7C95.8,29.4,91.9,33.2,91.9,38z"/>
<path class="st1" d="M108.1,42.4C108.1,42.4,108.1,42.3,108.1,42.4C108.1,42.3,108.1,42.3,108.1,42.4l7.5,4.3l7.5-4.3l7.5-4.3v-8.7
	c-4.8,0-8.7,3.9-8.7,8.7c0,1.6,0.4,3,1.1,4.3c-1.5-2.6-4.3-4.3-7.5-4.3C112.4,38.1,109.6,39.8,108.1,42.4c0.7-1.3,1.1-2.8,1.1-4.3
	c0-4.8-3.9-8.7-8.7-8.7V38L108.1,42.4z"/>
<path d="M108.1,16.4c0,0,0,0.1,0.1,0.1C108.1,16.5,108.1,16.4,108.1,16.4l7.5-4.3l7.5,4.3l7.5,4.3v8.7c4.8,0,8.7-3.9,8.7-8.7
	s-3.9-8.7-8.7-8.7c-3.2,0-6,1.7-7.5,4.3c0.7-1.3,1.1-2.7,1.1-4.3c0-4.8-3.9-8.7-8.7-8.7s-8.7,3.9-8.7,8.7c0,1.5,0.4,2.9,1.1,4.2
	c-1.5-2.5-4.3-4.2-7.4-4.2c-4.8,0-8.7,3.9-8.7,8.7s3.9,8.7,8.7,8.7v-8.7L108.1,16.4z"/>
<path class="st1" d="M109.2,20.7c0-1.5-0.4-2.9-1.1-4.2c1.5,2.5,4.3,4.2,7.4,4.2c3.2,0,6-1.7,7.5-4.3c-0.7,1.3-1.1,2.7-1.1,4.3
	c0,4.8,3.9,8.7,8.7,8.7v-8.7l-7.5-4.3l-7.5-4.3l-7.5,4.3c0,0,0,0.1,0.1,0.1l-0.1-0.1l-7.5,4.3v8.7C105.3,29.4,109.2,25.5,109.2,20.7
	z"/>
<path class="st1" d="M52,0h-3.7c0.6,0.1,1.2,0.2,1.8,0.2C50.7,0.2,51.4,0.1,52,0z"/>
<path class="st1" d="M34.7,0h-8.3c0,0.1,0,0.1,0,0.2c0,4.8,3.9,8.7,8.7,8.7s8.7-3.9,8.7-8.7c0-0.1,0-0.1,0-0.2h-8.3l-0.4,0.2L34.7,0
	z"/>
<polygon points="35.1,0.2 35.4,0 34.7,0 "/>
<path class="st1" d="M21.9,0h-3.7c0.6,0.1,1.2,0.2,1.9,0.2C20.7,0.2,21.3,0.1,21.9,0z"/>
<path d="M105.6,0h-3.7c0.6,0.1,1.2,0.2,1.8,0.2C104.4,0.2,105,0.1,105.6,0z"/>
<path d="M88.7,8.9c4.8,0,8.7-3.9,8.7-8.7c0-0.1,0-0.1,0-0.2h-8.3l-0.4,0.2L88.4,0h-8.3c0,0.1,0,0.1,0,0.2C80.1,5,84,8.9,88.7,8.9z"
	/>
<polygon class="st1" points="89.1,0 88.4,0 88.7,0.2 "/>
<path d="M75.6,0h-3.7c0.6,0.1,1.2,0.2,1.9,0.2C74.4,0.2,75,0.1,75.6,0z"/>
<path class="st0" d="M68.2,113.6c0-1.6,0.4-3,1.1-4.3c-0.2,0.3-0.4,0.6-0.6,0.9c-0.5,0.6-1,1.1-1.6,1.6c-0.3,0.2-0.6,0.4-0.9,0.6
	c-1.3,0.7-2.8,1.2-4.4,1.2c-2.4,0-4.5-0.9-6-2.5c-0.5-0.5-1-1.1-1.4-1.7c0.7,1.2,1.1,2.7,1.1,4.2c0,4.8-3.9,8.7-8.7,8.7
	c4.8,0,8.7,3.9,8.7,8.7c0,1.5-0.4,2.9-1.1,4.2c0.4-0.6,0.8-1.2,1.4-1.7c1.6-1.5,3.7-2.5,6-2.5c1.6,0,3.1,0.4,4.4,1.2
	c0.3,0.2,0.6,0.4,0.9,0.6c0.6,0.5,1.1,1,1.6,1.6c0.2,0.3,0.4,0.6,0.6,0.9c-0.7-1.3-1.1-2.7-1.1-4.3c0-4.8,3.9-8.7,8.7-8.7
	C72.1,122.3,68.2,118.4,68.2,113.6z"/>
<path class="st1" d="M35.1,142.8c-4.3,0-7.8,3.1-8.5,7.2h17.1C42.9,145.9,39.4,142.8,35.1,142.8z"/>
<path d="M88.7,142.8c-4.3,0-7.8,3.1-8.5,7.2h17.1C96.6,145.9,93,142.8,88.7,142.8z"/>
<path d="M85.6,113.6c0-4.8-3.9-8.7-8.7-8.7c-3.2,0-6,1.7-7.5,4.3c0.7-1.3,1.1-2.7,1.1-4.3c0-1.8-0.5-3.5-1.5-4.8
	c-0.3-0.5-0.7-0.9-1.1-1.3s-0.8-0.7-1.3-1.1c-1.4-0.9-3-1.5-4.8-1.5s-3.5,0.5-4.8,1.5c-0.5,0.3-0.9,0.7-1.3,1.1
	c-0.4,0.4-0.7,0.8-1.1,1.3c-0.9,1.4-1.5,3-1.5,4.8c0,1.1,0.2,2.2,0.6,3.2c0.1,0.3,0.3,0.7,0.5,1c-0.4-0.6-0.8-1.2-1.4-1.7
	c-1.6-1.5-3.7-2.5-6-2.5c-4.8,0-8.7,3.9-8.7,8.7c0,4.8,3.9,8.7,8.7,8.7v-8.7l7.5-4.3c0,0,0,0.1,0.1,0.1c0,0,0-0.1-0.1-0.1l7.5-4.3
	l7.5,4.3l7.5,4.3v8.7C81.7,122.3,85.6,118.4,85.6,113.6z"/>
<path class="st1" d="M69.4,109.3l-7.5-4.3l-7.5,4.3c0,0,0,0.1,0.1,0.1l-0.1-0.1l-7.5,4.3v8.7c4.8,0,8.7-3.9,8.7-8.7
	c0-1.5-0.4-2.9-1.1-4.2c0.4,0.6,0.8,1.2,1.4,1.7c1.6,1.5,3.7,2.5,6,2.5c1.6,0,3.1-0.4,4.4-1.2c0.3-0.2,0.6-0.4,0.9-0.6
	c0.6-0.5,1.1-1,1.6-1.6C69,110,69.2,109.7,69.4,109.3c-0.8,1.3-1.2,2.8-1.2,4.3c0,4.8,3.9,8.7,8.7,8.7v-8.7L69.4,109.3z"/>
<path d="M69.4,135.3l-7.5,4.3l-7.5-4.3c0,0,0-0.1,0.1-0.1l-0.1,0.1l-7.5-4.3v-8.7c-4.8,0-8.7,3.9-8.7,8.7c0,4.8,3.9,8.7,8.7,8.7
	c2.4,0,4.5-0.9,6-2.5c0.5-0.5,1-1.1,1.4-1.7c-0.2,0.3-0.3,0.6-0.5,1c-0.4,1-0.6,2.1-0.6,3.2c0,1.8,0.5,3.5,1.5,4.8
	c0.3,0.5,0.7,0.9,1.1,1.3c0.4,0.4,0.8,0.7,1.3,1.1c1.4,0.9,3,1.5,4.8,1.5s3.5-0.5,4.8-1.5c0.5-0.3,0.9-0.7,1.3-1.1
	c0.4-0.4,0.7-0.8,1.1-1.3c0.9-1.4,1.5-3,1.5-4.8C70.6,138.1,70.2,136.6,69.4,135.3c1.5,2.6,4.3,4.3,7.5,4.3c4.8,0,8.7-3.9,8.7-8.7
	s-3.9-8.7-8.7-8.7v8.7L69.4,135.3z"/>
<path class="st1" d="M68.2,131c0,1.6,0.4,3,1.1,4.3c-0.2-0.3-0.4-0.6-0.6-0.9c-0.5-0.6-1-1.1-1.6-1.6c-0.3-0.2-0.6-0.4-0.9-0.6
	c-1.3-0.7-2.8-1.2-4.4-1.2c-2.4,0-4.5,0.9-6,2.5c-0.5,0.5-1,1.1-1.4,1.7c0.7-1.2,1.1-2.7,1.1-4.2c0-4.8-3.9-8.7-8.7-8.7v8.7l7.5,4.3
	c0,0,0-0.1,0.1-0.1c0,0,0,0.1-0.1,0.1l7.5,4.3l7.5-4.3l7.5-4.3v-8.7C72.1,122.3,68.2,126.2,68.2,131z"/>
<path class="st0" d="M0.8,42.2C2.4,39.7,5.1,38,8.2,38c3.2,0,6,1.7,7.5,4.3C15,41,14.6,39.6,14.6,38c0-4.8,3.9-8.7,8.7-8.7
	c-4.8,0-8.7-3.9-8.7-8.7c0-1.6,0.4-3,1.1-4.3c-1.5,2.6-4.3,4.3-7.5,4.3c-3.1,0-5.9-1.7-7.4-4.2c0.7,1.2,1.1,2.7,1.1,4.2
	c0,2.1-0.7,3.9-1.9,5.4v6.5C1.2,34.1,1.9,36,1.9,38C1.9,39.5,1.5,41,0.8,42.2z"/>
<path class="st0" d="M0,14.6v0.6c0.2,0.3,0.5,0.6,0.7,0.9C0.4,15.7,0.2,15.2,0,14.6z"/>
<path class="st0" d="M0,43.4V44c0.2-0.5,0.4-1.1,0.7-1.6C0.5,42.8,0.2,43.2,0,43.4z"/>
<path class="st1" d="M5.1,67.2c0-3.5-2.1-6.5-5.1-7.9v15.8C3,73.7,5.1,70.7,5.1,67.2z"/>
<path class="st1" d="M5.1,84.5C5.1,81,3,78,0,76.6v15.8C3,91,5.1,88,5.1,84.5z"/>
<path d="M8.2,55.3c4.8,0,8.7-3.9,8.7-8.7c0-1.6-0.4-3-1.1-4.3c1.5,2.6,4.3,4.3,7.5,4.3c4.8,0,8.7-3.9,8.7-8.7s-3.9-8.7-8.7-8.7V38
	l-7.5,4.3l-7.5,4.3l-7.5-4.3c0,0,0-0.1,0.1-0.1l-0.1,0.1L0,41.9v1.5c0.2-0.3,0.5-0.6,0.7-0.9c-0.3,0.5-0.5,1-0.7,1.6v5.2
	C1.1,52.8,4.4,55.3,8.2,55.3z"/>
<path class="st1" d="M0.8,42.2c0,0,0,0.1-0.1,0.1l7.5,4.3l7.5-4.3l7.5-4.3v-8.7c-4.8,0-8.7,3.9-8.7,8.7c0,1.6,0.4,3,1.1,4.3
	c-1.5-2.6-4.3-4.3-7.5-4.3C5.1,38,2.4,39.7,0.8,42.2C1.5,41,1.9,39.5,1.9,38c0-2.1-0.7-3.9-1.9-5.4v9.3l0.7,0.4
	C0.8,42.3,0.8,42.3,0.8,42.2z"/>
<path class="st1" d="M0.8,16.5c1.5,2.5,4.3,4.2,7.4,4.2c3.2,0,6-1.7,7.5-4.3c-0.7,1.3-1.1,2.7-1.1,4.3c0,4.8,3.9,8.7,8.7,8.7v-8.7
	l-7.5-4.3L8.2,12l-7.5,4.3C0.8,16.4,0.8,16.5,0.8,16.5c0-0.1-0.1-0.1-0.1-0.2L0,16.8v9.3c1.2-1.5,1.9-3.4,1.9-5.4
	C1.9,19.2,1.5,17.8,0.8,16.5z"/>
<path d="M0.8,16.5c0,0,0-0.1-0.1-0.1L8.2,12l7.5,4.3l7.5,4.3v8.7c4.8,0,8.7-3.9,8.7-8.7s-3.9-8.7-8.7-8.7c-3.2,0-6,1.7-7.5,4.3
	c0.7-1.3,1.1-2.7,1.1-4.3c0-4.8-3.9-8.7-8.7-8.7c-3.9,0-7.1,2.5-8.2,6v5.2c0.2,0.5,0.4,1.1,0.7,1.6c-0.2-0.3-0.4-0.6-0.7-0.9v1.5
	l0.7-0.4C0.8,16.4,0.8,16.5,0.8,16.5z"/>
<path class="st0" d="M1.2,127.6c0.4,1,0.7,2.2,0.7,3.4c0,1.5-0.4,2.9-1.1,4.2c1.5-2.5,4.3-4.2,7.4-4.2c3.2,0,6,1.7,7.5,4.3
	c-0.7-1.3-1.1-2.7-1.1-4.3c0-1.2,0.2-2.3,0.7-3.4c0.2-0.5,0.5-1,0.8-1.5c0.5-0.7,1-1.3,1.7-1.8c1.3-1.1,2.9-1.8,4.6-1.9
	c0.3,0,0.6,0,0.9,0c-0.3,0-0.6,0-0.9,0c-1.7-0.2-3.3-0.9-4.6-1.9c-0.6-0.5-1.2-1.1-1.7-1.8c-0.3-0.5-0.6-1-0.8-1.5
	c-0.4-1-0.7-2.2-0.7-3.4c0-1.6,0.4-3,1.1-4.3c-1.5,2.6-4.3,4.3-7.5,4.3c-3.1,0-5.9-1.7-7.4-4.2c0.7,1.2,1.1,2.7,1.1,4.2
	c0,1.2-0.2,2.3-0.7,3.4c-0.2,0.5-0.5,1-0.8,1.5c-0.1,0.2-0.3,0.4-0.4,0.6v6.5c0.2,0.2,0.3,0.4,0.4,0.6C0.7,126.6,1,127.1,1.2,127.6z
	"/>
<path class="st0" d="M0.2,108.2c-0.1-0.2-0.1-0.4-0.2-0.6v0.6c0.2,0.3,0.5,0.6,0.7,0.9C0.5,108.8,0.3,108.5,0.2,108.2z"/>
<path class="st0" d="M0.7,135.5c-0.2,0.3-0.4,0.6-0.7,0.9v0.6c0.1-0.2,0.1-0.4,0.2-0.6C0.3,136.1,0.5,135.8,0.7,135.5z"/>
<path class="st1" d="M3.4,146.8c1.4,0.9,3,1.5,4.8,1.5c4.8,0,8.7-3.9,8.7-8.7c0-1.6-0.4-3-1.1-4.3c1.5,2.6,4.3,4.3,7.5,4.3
	c1.2,0,2.3-0.2,3.4-0.7c3.1-1.3,5.3-4.4,5.3-8c0-3.6-2.2-6.7-5.3-8c-1-0.4-2.2-0.7-3.4-0.7v8.7l-7.5,4.3l-7.5,4.3l-7.5-4.3
	c0,0,0,0.1-0.1,0.1c0,0,0-0.1,0.1-0.1L0,134.9v1.5c0.2-0.3,0.5-0.6,0.7-0.9c-0.2,0.3-0.3,0.6-0.5,1c-0.1,0.2-0.1,0.4-0.2,0.6v5.2
	C0.6,144.1,1.8,145.7,3.4,146.8z"/>
<path d="M0.7,135.4l0.1-0.1l7.5,4.3l7.5-4.3l7.5-4.3v-8.7c-0.3,0-0.6,0-0.9,0c-1.7,0.2-3.3,0.9-4.6,1.9c-0.6,0.5-1.2,1.1-1.7,1.8
	c-0.3,0.5-0.6,1-0.8,1.5c-0.4,1-0.7,2.2-0.7,3.4c0,1.6,0.4,3,1.1,4.3c-1.5-2.6-4.3-4.3-7.5-4.3c-3.1,0-5.9,1.7-7.4,4.2
	c0.7-1.2,1.1-2.7,1.1-4.2c0-1.2-0.2-2.3-0.7-3.4c-0.2-0.5-0.5-1-0.8-1.5c-0.1-0.2-0.3-0.4-0.4-0.6v9.3l0.7,0.4
	C0.7,135.3,0.7,135.4,0.7,135.4z"/>
<path class="st1" d="M0.7,109.2l0.1,0.1l7.5-4.3l7.5,4.3l7.5,4.3v8.7c1.2,0,2.3-0.2,3.4-0.7c3.1-1.3,5.3-4.4,5.3-8s-2.2-6.7-5.3-8
	c-1-0.4-2.2-0.7-3.4-0.7c-3.2,0-6,1.7-7.5,4.3c0.7-1.3,1.1-2.7,1.1-4.3c0-4.8-3.9-8.7-8.7-8.7c-1.8,0-3.5,0.5-4.8,1.5
	c-1.6,1.1-2.8,2.7-3.4,4.5v5.2c0.1,0.2,0.1,0.4,0.2,0.6C0.3,108.5,0.5,108.8,0.7,109.2c-0.2-0.4-0.4-0.7-0.7-1v1.5L0.7,109.2
	C0.7,109.3,0.7,109.2,0.7,109.2z"/>
<path d="M1.2,117c0.4-1,0.7-2.2,0.7-3.4c0-1.5-0.4-2.9-1.1-4.2c1.5,2.5,4.3,4.2,7.4,4.2c3.2,0,6-1.7,7.5-4.3
	c-0.7,1.3-1.1,2.7-1.1,4.3c0,1.2,0.2,2.3,0.7,3.4c0.2,0.5,0.5,1,0.8,1.5c0.5,0.7,1,1.3,1.7,1.8c1.3,1.1,2.9,1.8,4.6,1.9
	c0.3,0,0.6,0,0.9,0v-8.7l-7.5-4.3L8.2,105l-7.5,4.3c0,0,0-0.1-0.1-0.1c0,0,0,0.1,0.1,0.1L0,109.7v9.3c0.2-0.2,0.3-0.4,0.4-0.6
	C0.7,118,1,117.5,1.2,117z"/>
</svg>
