<?xml version="1.0" encoding="utf-8"?>
<!-- Generator: Adobe Illustrator 21.1.0, SVG Export Plug-In . SVG Version: 6.00 Build 0)  -->
<svg version="1.1" id="レイヤー_1" xmlns="http://www.w3.org/2000/svg" xmlns:xlink="http://www.w3.org/1999/xlink" x="0px"
	 y="0px" viewBox="0 0 500 150" style="enable-background:new 0 0 500 150;" xml:space="preserve">
<style type="text/css">
	.st0{fill:none;}
	.st1{clip-path:url(#SVGID_2_);fill:#13848F;}
	.st2{clip-path:url(#SVGID_2_);}
	.st3{fill:#FFFFFF;}
	.st4{clip-path:url(#SVGID_2_);fill:#FFFFFF;}
	.st5{clip-path:url(#SVGID_2_);fill:none;}
	.st6{fill:#13848F;}
	.st7{fill:url(#SVGID_3_);}
</style>
<pattern  x="-250" y="-75" width="177.3" height="90.6" patternUnits="userSpaceOnUse" id="新規パターンスウォッチ_6" viewBox="265.3 -136 177.3 90.6" style="overflow:visible;">
	<g>
		<rect x="265.3" y="-136" class="st0" width="177.3" height="90.6"/>
		<g>
			<defs>
				<rect id="SVGID_1_" x="265.3" y="-136" width="177.3" height="90.6"/>
			</defs>
			<clipPath id="SVGID_2_">
				<use xlink:href="#SVGID_1_"  style="overflow:visible;"/>
			</clipPath>
			<rect x="239.7" y="-158.7" class="st1" width="219.4" height="152.7"/>
			<g class="st2">
				<path class="st3" d="M176-2.2h-43.2c-0.6-23.9-20.2-43.2-44.2-43.2S44.8-26.1,44.3-2.2H1.1C0.5-2.2,0-1.7,0-1.1
					C0-0.5,0.5,0,1.1,0h43.2h88.5H176c0.6,0,1.1-0.5,1.1-1.1C177-1.7,176.6-2.2,176-2.2z"/>
				<path class="st3" d="M353-2.2h-43.2c-0.6-23.9-20.2-43.2-44.2-43.2c-24.1,0-43.7,19.2-44.2,43.2h-43.2c-0.6,0-1.1,0.5-1.1,1.1
					c0,0.6,0.5,1.1,1.1,1.1h43.2h88.5H353c0.6,0,1.1-0.5,1.1-1.1C354.1-1.7,353.6-2.2,353-2.2z"/>
			</g>
			<path class="st4" d="M264.5-47.5h-43.2c-0.6-23.9-20.2-43.2-44.2-43.2s-43.7,19.2-44.2,43.2H89.6c-0.6,0-1.1,0.5-1.1,1.1
				c0,0.6,0.5,1.1,1.1,1.1h43.2h88.5h43.2c0.6,0,1.1-0.5,1.1-1.1C265.6-47,265.1-47.5,264.5-47.5z"/>
			<g class="st2">
				<path class="st3" d="M176-92.8h-43.2c-0.6-23.9-20.2-43.2-44.2-43.2s-43.7,19.2-44.2,43.2H1.1c-0.6,0-1.1,0.5-1.1,1.1
					c0,0.6,0.5,1.1,1.1,1.1h43.2h88.5H176c0.6,0,1.1-0.5,1.1-1.1C177-92.4,176.6-92.8,176-92.8z"/>
				<path class="st3" d="M353-92.8h-43.2c-0.6-23.9-20.2-43.2-44.2-43.2c-24.1,0-43.7,19.2-44.2,43.2h-43.2c-0.6,0-1.1,0.5-1.1,1.1
					c0,0.6,0.5,1.1,1.1,1.1h43.2h88.5H353c0.6,0,1.1-0.5,1.1-1.1C354.1-92.4,353.6-92.8,353-92.8z"/>
			</g>
			<path class="st4" d="M264.5-138.2h-43.2c-0.6-23.9-20.2-43.2-44.2-43.2s-43.7,19.2-44.2,43.2H89.6c-0.6,0-1.1,0.5-1.1,1.1
				c0,0.6,0.5,1.1,1.1,1.1h43.2h88.5h43.2c0.6,0,1.1-0.5,1.1-1.1C265.6-137.7,265.1-138.2,264.5-138.2z"/>
			<path class="st4" d="M441.5-47.5h-43.2c-0.6-23.9-20.2-43.2-44.2-43.2c-24.1,0-43.7,19.2-44.2,43.2h-43.2c-0.6,0-1.1,0.5-1.1,1.1
				c0,0.6,0.5,1.1,1.1,1.1h43.2h88.5h43.2c0.6,0,1.1-0.5,1.1-1.1C442.6-47,442.1-47.5,441.5-47.5z"/>
			<path class="st4" d="M441.5-138.2h-43.2c-0.6-23.9-20.2-43.2-44.2-43.2c-24.1,0-43.7,19.2-44.2,43.2h-43.2
				c-0.6,0-1.1,0.5-1.1,1.1c0,0.6,0.5,1.1,1.1,1.1h43.2h88.5h43.2c0.6,0,1.1-0.5,1.1-1.1C442.6-137.7,442.1-138.2,441.5-138.2z"/>
			<g class="st2">
				<path class="st3" d="M530.1-2.2h-43.2c-0.6-23.9-20.2-43.2-44.2-43.2c-24.1,0-43.7,19.2-44.2,43.2h-43.2c-0.6,0-1.1,0.5-1.1,1.1
					c0,0.6,0.5,1.1,1.1,1.1h43.2h88.5h43.2c0.6,0,1.1-0.5,1.1-1.1C531.1-1.7,530.7-2.2,530.1-2.2z"/>
				<path class="st3" d="M707.1-2.2h-43.2c-0.6-23.9-20.2-43.2-44.2-43.2S576-26.1,575.4-2.2h-43.2c-0.6,0-1.1,0.5-1.1,1.1
					c0,0.6,0.5,1.1,1.1,1.1h43.2h88.5h43.2c0.6,0,1.1-0.5,1.1-1.1C708.2-1.7,707.7-2.2,707.1-2.2z"/>
			</g>
			<path class="st4" d="M618.6-47.5h-43.2c-0.6-23.9-20.2-43.2-44.2-43.2c-24.1,0-43.7,19.2-44.2,43.2h-43.2c-0.6,0-1.1,0.5-1.1,1.1
				c0,0.6,0.5,1.1,1.1,1.1h43.2h88.5h43.2c0.6,0,1.1-0.5,1.1-1.1C619.7-47,619.2-47.5,618.6-47.5z"/>
			<g class="st2">
				<path class="st3" d="M530.1-92.8h-43.2c-0.6-23.9-20.2-43.2-44.2-43.2c-24.1,0-43.7,19.2-44.2,43.2h-43.2
					c-0.6,0-1.1,0.5-1.1,1.1c0,0.6,0.5,1.1,1.1,1.1h43.2h88.5h43.2c0.6,0,1.1-0.5,1.1-1.1C531.1-92.4,530.7-92.8,530.1-92.8z"/>
				<path class="st3" d="M707.1-92.8h-43.2c-0.6-23.9-20.2-43.2-44.2-43.2s-43.7,19.2-44.2,43.2h-43.2c-0.6,0-1.1,0.5-1.1,1.1
					c0,0.6,0.5,1.1,1.1,1.1h43.2h88.5h43.2c0.6,0,1.1-0.5,1.1-1.1C708.2-92.4,707.7-92.8,707.1-92.8z"/>
			</g>
			<path class="st4" d="M618.6-138.2h-43.2c-0.6-23.9-20.2-43.2-44.2-43.2c-24.1,0-43.7,19.2-44.2,43.2h-43.2
				c-0.6,0-1.1,0.5-1.1,1.1c0,0.6,0.5,1.1,1.1,1.1h43.2h88.5h43.2c0.6,0,1.1-0.5,1.1-1.1C619.7-137.7,619.2-138.2,618.6-138.2z"/>
			<rect x="85.6" y="-540.3" class="st5" width="534.3" height="534.3"/>
			<rect x="84.7" y="-138.2" class="st4" width="556" height="2.2"/>
			<rect x="84.7" y="-92.8" class="st4" width="556" height="2.2"/>
			<rect x="84.7" y="-47.5" class="st4" width="556" height="2.2"/>
			<rect x="85.6" y="-540.3" class="st5" width="534.3" height="534.3"/>
		</g>
	</g>
</pattern>
<g>
	<path class="st6" d="M498.4,29.7h-0.1h-0.1h-17.1h-0.1h-0.1h-9.3h-26h-0.1h-0.1h-17.1h-0.1H428h-0.3c9.7,0,17.5,7.7,17.8,17.3h0.1
		h17.1h0.1h0.1h0.7h0.1h7.8h9.4h0.1c0.2-9.6,8.1-17.3,17.8-17.3H498.4z"/>
	<path class="st6" d="M481,11.5h-9.4h-7.8h-0.1h0c9.5,0.2,17.2,7.8,17.5,17.3h17.1h0.1h0.1h0.7h0.1h0.7V11.5h-18.9H481z"/>
	<path class="st6" d="M499.1,29.7h-0.3c0.4,0,0.8,0,1.2,0.1v-0.1h-0.7H499.1z"/>
	<path class="st6" d="M498.4,66.1h-0.1h-0.1h-17.1h-0.1h-0.1h-9.3h-26h-0.1h-0.1h-17.1h-0.1H428h-0.3c9.7,0,17.5,7.7,17.8,17.3h0.1
		h17.1h0.1h0.1h0.7h0.1h7.8h9.4h0.1c0.2-9.6,8.1-17.3,17.8-17.3H498.4z"/>
	<path class="st6" d="M499.1,66.1h-0.3c0.4,0,0.8,0,1.2,0.1v-0.1h-0.7H499.1z"/>
	<path class="st6" d="M481,47.9h-9.4h-7.8h-0.1h0c9.5,0.2,17.2,7.8,17.5,17.3h17.1h0.1h0.1h0.7h0.1h0.7V47.9h-18.9H481z"/>
	<path class="st6" d="M481,84.3h-9.4h-7.8h-0.1h0c9.5,0.2,17.2,7.8,17.5,17.3h17.1h0.1h0.1h0.7h0.1h0.7V84.3h-18.9H481z"/>
	<path class="st6" d="M499.1,102.4h-0.3c0.4,0,0.8,0,1.2,0.1v-0.1h-0.7H499.1z"/>
	<path class="st6" d="M498.4,102.4h-0.1h-0.1h-17.1h-0.1h-0.1h-9.3h-26h-0.1h-0.1h-17.1h-0.1H428h-0.3c9.7,0,17.5,7.7,17.8,17.3h0.1
		h17.1h0.1h0.1h0.7h0.1h7.8h9.4h0.1c0.2-9.6,8.1-17.3,17.8-17.3H498.4z"/>
	<path class="st6" d="M499.1,138.8h-0.3c0.4,0,0.8,0,1.2,0.1v-0.1h-0.7H499.1z"/>
	<path class="st6" d="M481,120.6h-9.4h-7.8h-0.1h0c9.5,0.2,17.2,7.8,17.5,17.3h17.1h0.1h0.1h0.7h0.1h0.7v-17.3h-18.9H481z"/>
	<path class="st6" d="M482.3,150c2.6-6.6,9-11.2,16.5-11.2h-0.4h-0.1h-0.1h-17.1h-0.1h-0.1h-9.3h-26h-0.1h-0.1h-17.1h-0.1H428h-0.3
		c7.5,0,13.9,4.6,16.5,11.2H482.3z"/>
	<path class="st3" d="M482.3,150H500v-11.1c-0.4,0-0.8-0.1-1.2-0.1C491.3,138.8,485,143.4,482.3,150z"/>
	<path class="st6" d="M445.4,10.7h0.1h17.1h0.1h0.1h0.7h0.1h7.8h9.4h0.1c0.1-4,1.6-7.7,3.9-10.7h-43.5
		C443.9,2.9,445.3,6.6,445.4,10.7z"/>
	<path class="st6" d="M427.4,29.7h-0.1h-0.1H427h-17h-0.1h-0.1h-0.1h-9.3h-9.6h-16.2h-0.1h-0.1h-0.1h-17h-0.1H357h-0.1h-0.3
		c9.7,0,17.5,7.7,17.8,17.3h0.1h16.4h0.7h0.1h0.1h0.7h0.1h0.1h7.7h9.4h0.1c0.2-9.6,8.1-17.3,17.8-17.3H427.4z"/>
	<path class="st6" d="M409.8,11.5h-9.4h-7.7h-0.1h-0.1h0c9.5,0.2,17.2,7.8,17.5,17.3h0.1h17h0.1h0.1h0.1h0.6h0.1h0.1h17.1h0.1
		c0.2-9.5,7.9-17.2,17.5-17.3h0h-0.1h-0.1h-17.1h-0.1h-0.1H410h-0.1H409.8z"/>
	<path class="st6" d="M427.4,66.1h-0.1h-0.1H427h-17h-0.1h-0.1h-0.1h-9.3h-9.6h-16.2h-0.1h-0.1h-0.1h-17h-0.1H357h-0.1h-0.3
		c9.7,0,17.5,7.7,17.8,17.3h0.1h16.4h0.7h0.1h0.1h0.7h0.1h0.1h7.7h9.4h0.1c0.2-9.6,8.1-17.3,17.8-17.3H427.4z"/>
	<path class="st6" d="M409.8,47.9h-9.4h-7.7h-0.1h-0.1h0c9.5,0.2,17.2,7.8,17.5,17.3h0.1h17h0.1h0.1h0.1h0.6h0.1h0.1h17.1h0.1
		c0.2-9.5,7.9-17.2,17.5-17.3h0h-0.1h-0.1h-17.1h-0.1h-0.1H410h-0.1H409.8z"/>
	<path class="st6" d="M409.8,84.3h-9.4h-7.7h-0.1h-0.1h0c9.5,0.2,17.2,7.8,17.5,17.3h0.1h17h0.1h0.1h0.1h0.6h0.1h0.1h17.1h0.1
		c0.2-9.5,7.9-17.2,17.5-17.3h0h-0.1h-0.1h-17.1h-0.1h-0.1H410h-0.1H409.8z"/>
	<path class="st6" d="M427.4,102.4h-0.1h-0.1H427h-17h-0.1h-0.1h-0.1h-9.3h-9.6h-16.2h-0.1h-0.1h-0.1h-17h-0.1H357h-0.1h-0.3
		c9.7,0,17.5,7.7,17.8,17.3h0.1h16.4h0.7h0.1h0.1h0.7h0.1h0.1h7.7h9.4h0.1c0.2-9.6,8.1-17.3,17.8-17.3H427.4z"/>
	<path class="st6" d="M409.8,120.6h-9.4h-7.7h-0.1h-0.1h0c9.5,0.2,17.2,7.8,17.5,17.3h0.1h17h0.1h0.1h0.1h0.6h0.1h0.1h17.1h0.1
		c0.2-9.5,7.9-17.2,17.5-17.3h0h-0.1h-0.1h-17.1h-0.1h-0.1H410h-0.1H409.8z"/>
	<path class="st6" d="M427.7,138.8h-0.3h-0.1h-0.1H427h-17h-0.1h-0.1h-0.1h-9.3h-9.6h-16.2h-0.1h-0.1h-0.1h-17h-0.1H357h-0.1h-0.3
		c7.5,0,13.9,4.6,16.5,11.2h38.2C413.8,143.4,420.2,138.8,427.7,138.8z"/>
	<path class="st3" d="M427.7,138.8c-7.5,0-13.9,4.6-16.5,11.2h33C441.5,143.4,435.2,138.8,427.7,138.8z"/>
	<path class="st6" d="M374.3,10.7h0.1h16.4h0.7h0.1h0.1h0.7h0.1h0.1h7.7h9.4h0.1c0.1-4,1.6-7.7,3.9-10.7h-43.5
		C372.7,2.9,374.2,6.6,374.3,10.7z"/>
	<path class="st6" d="M338.7,11.5h-9.4h-7.7h-0.1h-0.1h0c9.5,0.2,17.2,7.8,17.5,17.3h0.1h17h0.1h0.1h0.1h0.6h0.1h0.1h0.1h17h0.1
		c0.2-9.5,7.9-17.2,17.5-17.3h0h-0.1h-0.1h-0.7h-16.4h-0.1h-0.1h-35.3h-0.1H338.7z"/>
	<path class="st6" d="M356.2,29.7h-0.1H356h-0.1h-17h-0.1h-0.1h-0.1h-9.3h-9.6h-16.2h-0.1h-0.1H303h-17h-0.1h-0.1h-0.1h-0.3
		c9.7,0,17.5,7.7,17.8,17.3h0.1h16.4h0.7h0.1h0.1h0.7h0.1h0.1h7.7h9.4h0.1c0.2-9.6,8.1-17.3,17.8-17.3H356.2z"/>
	<path class="st6" d="M338.7,47.9h-9.4h-7.7h-0.1h-0.1h0c9.5,0.2,17.2,7.8,17.5,17.3h0.1h17h0.1h0.1h0.1h0.6h0.1h0.1h0.1h17h0.1
		c0.2-9.5,7.9-17.2,17.5-17.3h0h-0.1h-0.1h-0.7h-16.4h-0.1h-0.1h-35.3h-0.1H338.7z"/>
	<path class="st6" d="M356.2,66.1h-0.1H356h-0.1h-17h-0.1h-0.1h-0.1h-9.3h-9.6h-16.2h-0.1h-0.1H303h-17h-0.1h-0.1h-0.1h-0.3
		c9.7,0,17.5,7.7,17.8,17.3h0.1h16.4h0.7h0.1h0.1h0.7h0.1h0.1h7.7h9.4h0.1c0.2-9.6,8.1-17.3,17.8-17.3H356.2z"/>
	<path class="st6" d="M338.7,84.3h-9.4h-7.7h-0.1h-0.1h0c9.5,0.2,17.2,7.8,17.5,17.3h0.1h17h0.1h0.1h0.1h0.6h0.1h0.1h0.1h17h0.1
		c0.2-9.5,7.9-17.2,17.5-17.3h0h-0.1h-0.1h-0.7h-16.4h-0.1h-0.1h-35.3h-0.1H338.7z"/>
	<path class="st6" d="M356.2,102.4h-0.1H356h-0.1h-17h-0.1h-0.1h-0.1h-9.3h-9.6h-16.2h-0.1h-0.1H303h-17h-0.1h-0.1h-0.1h-0.3
		c9.7,0,17.5,7.7,17.8,17.3h0.1h16.4h0.7h0.1h0.1h0.7h0.1h0.1h7.7h9.4h0.1c0.2-9.6,8.1-17.3,17.8-17.3H356.2z"/>
	<path class="st6" d="M338.7,120.6h-9.4h-7.7h-0.1h-0.1h0c9.5,0.2,17.2,7.8,17.5,17.3h0.1h17h0.1h0.1h0.1h0.6h0.1h0.1h0.1h17h0.1
		c0.2-9.5,7.9-17.2,17.5-17.3h0h-0.1h-0.1h-0.7h-16.4h-0.1h-0.1h-35.3h-0.1H338.7z"/>
	<path class="st6" d="M356.5,138.8h-0.3h-0.1H356h-0.1h-17h-0.1h-0.1h-0.1h-9.3h-9.6h-16.2h-0.1h-0.1H303h-17h-0.1h-0.1h-0.1h-0.3
		c7.5,0,13.9,4.6,16.5,11.2H340C342.7,143.4,349,138.8,356.5,138.8z"/>
	<path class="st3" d="M356.5,138.8c-7.5,0-13.9,4.6-16.5,11.2h33C370.4,143.4,364,138.8,356.5,138.8z"/>
	<path class="st6" d="M303.1,10.7h0.1h16.4h0.7h0.1h0.1h0.7h0.1h0.1h7.7h9.4h0.1c0.1-4,1.6-7.7,3.9-10.7h-43.5
		C301.6,2.9,303,6.6,303.1,10.7z"/>
	<path class="st6" d="M267.5,11.5h-9.4h-7.7h-0.1h-0.1h0c9.5,0.2,17.2,7.8,17.5,17.3h0.1h17h0.1h0.1h0.1h0.6h0.1h0.1h0.1h17h0.1
		c0.2-9.5,7.9-17.2,17.5-17.3h0h-0.1h-0.1h-0.7h-16.4h-0.1H303h-35.3h-0.1H267.5z"/>
	<path class="st6" d="M285.1,29.7h-0.1h-0.1h-0.1h-17h-0.1h-0.1h-0.1h-9.3h-9.6h-16.2h-0.1H232h-0.1h-17h-0.1h-0.1h-0.1h-0.3
		c9.7,0,17.5,7.7,17.8,17.3h0.1h16.4h0.7h0.1h0.1h0.7h0.1h0.1h7.7h9.4h0.1c0.2-9.6,8.1-17.3,17.8-17.3H285.1z"/>
	<path class="st6" d="M285.1,66.1h-0.1h-0.1h-0.1h-17h-0.1h-0.1h-0.1h-9.3h-9.6h-16.2h-0.1H232h-0.1h-17h-0.1h-0.1h-0.1h-0.3
		c9.7,0,17.5,7.7,17.8,17.3h0.1h16.4h0.7h0.1h0.1h0.7h0.1h0.1h7.7h9.4h0.1c0.2-9.6,8.1-17.3,17.8-17.3H285.1z"/>
	<path class="st6" d="M267.5,47.9h-9.4h-7.7h-0.1h-0.1h0c9.5,0.2,17.2,7.8,17.5,17.3h0.1h17h0.1h0.1h0.1h0.6h0.1h0.1h0.1h17h0.1
		c0.2-9.5,7.9-17.2,17.5-17.3h0h-0.1h-0.1h-0.7h-16.4h-0.1H303h-35.3h-0.1H267.5z"/>
	<path class="st6" d="M285.1,102.4h-0.1h-0.1h-0.1h-17h-0.1h-0.1h-0.1h-9.3h-9.6h-16.2h-0.1H232h-0.1h-17h-0.1h-0.1h-0.1h-0.3
		c9.7,0,17.5,7.7,17.8,17.3h0.1h16.4h0.7h0.1h0.1h0.7h0.1h0.1h7.7h9.4h0.1c0.2-9.6,8.1-17.3,17.8-17.3H285.1z"/>
	<path class="st6" d="M267.5,84.3h-9.4h-7.7h-0.1h-0.1h0c9.5,0.2,17.2,7.8,17.5,17.3h0.1h17h0.1h0.1h0.1h0.6h0.1h0.1h0.1h17h0.1
		c0.2-9.5,7.9-17.2,17.5-17.3h0h-0.1h-0.1h-0.7h-16.4h-0.1H303h-35.3h-0.1H267.5z"/>
	<path class="st6" d="M267.5,120.6h-9.4h-7.7h-0.1h-0.1h0c9.5,0.2,17.2,7.8,17.5,17.3h0.1h17h0.1h0.1h0.1h0.6h0.1h0.1h0.1h17h0.1
		c0.2-9.5,7.9-17.2,17.5-17.3h0h-0.1h-0.1h-0.7h-16.4h-0.1H303h-35.3h-0.1H267.5z"/>
	<path class="st6" d="M285.4,138.8h-0.3h-0.1h-0.1h-0.1h-17h-0.1h-0.1h-0.1h-9.3h-9.6h-16.2h-0.1H232h-0.1h-17h-0.1h-0.1h-0.1h-0.3
		c7.5,0,13.9,4.6,16.5,11.2h38.2C271.5,143.4,277.9,138.8,285.4,138.8z"/>
	<path class="st3" d="M285.4,138.8c-7.5,0-13.9,4.6-16.5,11.2h33C299.2,143.4,292.9,138.8,285.4,138.8z"/>
	<path class="st6" d="M232,10.7h0.1h16.4h0.7h0.1h0.1h0.7h0.1h0.1h7.7h9.4h0.1c0.1-4,1.6-7.7,3.9-10.7h-43.5
		C230.4,2.9,231.9,6.6,232,10.7z"/>
	<path class="st6" d="M196.3,11.5h-9.4h-7.7h-0.1H179h0c9.5,0.2,17.2,7.8,17.5,17.3h0.1h17h0.1h0.1h0.1h0.6h0.1h0.1h0.1h17h0.1
		c0.2-9.5,7.9-17.2,17.5-17.3h0h-0.1h-0.1h-0.7h-16.4H232h-0.1h-35.3h-0.1H196.3z"/>
	<path class="st6" d="M213.9,29.7h-0.1h-0.1h-0.1h-17h-0.1h-0.1h-0.1h-9.3h-9.6h-16.2H161h-0.1h-0.1h-17h-0.1h-0.1h-0.1h-0.3
		c9.7,0,17.5,7.7,17.8,17.3h0.1h16.4h0.7h0.1h0.1h0.7h0.1h0.1h7.7h9.4h0.1c0.2-9.6,8.1-17.3,17.8-17.3H213.9z"/>
	<path class="st6" d="M213.9,66.1h-0.1h-0.1h-0.1h-17h-0.1h-0.1h-0.1h-9.3h-9.6h-16.2H161h-0.1h-0.1h-17h-0.1h-0.1h-0.1h-0.3
		c9.7,0,17.5,7.7,17.8,17.3h0.1h16.4h0.7h0.1h0.1h0.7h0.1h0.1h7.7h9.4h0.1c0.2-9.6,8.1-17.3,17.8-17.3H213.9z"/>
	<path class="st6" d="M196.3,47.9h-9.4h-7.7h-0.1H179h0c9.5,0.2,17.2,7.8,17.5,17.3h0.1h17h0.1h0.1h0.1h0.6h0.1h0.1h0.1h17h0.1
		c0.2-9.5,7.9-17.2,17.5-17.3h0h-0.1h-0.1h-0.7h-16.4H232h-0.1h-35.3h-0.1H196.3z"/>
	<path class="st6" d="M196.3,84.3h-9.4h-7.7h-0.1H179h0c9.5,0.2,17.2,7.8,17.5,17.3h0.1h17h0.1h0.1h0.1h0.6h0.1h0.1h0.1h17h0.1
		c0.2-9.5,7.9-17.2,17.5-17.3h0h-0.1h-0.1h-0.7h-16.4H232h-0.1h-35.3h-0.1H196.3z"/>
	<path class="st6" d="M213.9,102.4h-0.1h-0.1h-0.1h-17h-0.1h-0.1h-0.1h-9.3h-9.6h-16.2H161h-0.1h-0.1h-17h-0.1h-0.1h-0.1h-0.3
		c9.7,0,17.5,7.7,17.8,17.3h0.1h16.4h0.7h0.1h0.1h0.7h0.1h0.1h7.7h9.4h0.1c0.2-9.6,8.1-17.3,17.8-17.3H213.9z"/>
	<path class="st6" d="M196.3,120.6h-9.4h-7.7h-0.1H179h0c9.5,0.2,17.2,7.8,17.5,17.3h0.1h17h0.1h0.1h0.1h0.6h0.1h0.1h0.1h17h0.1
		c0.2-9.5,7.9-17.2,17.5-17.3h0h-0.1h-0.1h-0.7h-16.4H232h-0.1h-35.3h-0.1H196.3z"/>
	<path class="st6" d="M214.2,138.8h-0.3h-0.1h-0.1h-0.1h-17h-0.1h-0.1h-0.1h-9.3h-9.6h-16.2H161h-0.1h-0.1h-17h-0.1h-0.1h-0.1h-0.3
		c7.5,0,13.9,4.6,16.5,11.2h38.2C200.4,143.4,206.7,138.8,214.2,138.8z"/>
	<path class="st3" d="M214.2,138.8c-7.5,0-13.9,4.6-16.5,11.2h33C228.1,143.4,221.7,138.8,214.2,138.8z"/>
	<path class="st6" d="M160.8,10.7h0.1h16.4h0.7h0.1h0.1h0.7h0.1h0.1h7.7h9.4h0.1c0.1-4,1.6-7.7,3.9-10.7h-43.5
		C159.3,2.9,160.7,6.6,160.8,10.7z"/>
	<path class="st6" d="M125.2,11.5h-9.4h-7.7H108h-0.1h0c9.5,0.2,17.2,7.8,17.5,17.3h0.1h17h0.1h0.1h0.1h0.6h0.1h0.1h0.1h17h0.1
		c0.2-9.5,7.9-17.2,17.5-17.3h0h-0.1H178h-0.7h-16.4h-0.1h-0.1h-35.3h-0.1H125.2z"/>
	<path class="st6" d="M142.8,29.7h-0.1h-0.1h-0.1h-17h-0.1h-0.1h-0.1h-9.3h-9.6H89.9h-0.1h-0.1h-0.1h-17h-0.1h-0.1h-0.1h-0.3
		c9.7,0,17.5,7.7,17.8,17.3h0.1h16.4h0.7h0.1h0.1h0.7h0.1h0.1h7.7h9.4h0.1c0.2-9.6,8.1-17.3,17.8-17.3H142.8z"/>
	<path class="st6" d="M142.8,66.1h-0.1h-0.1h-0.1h-17h-0.1h-0.1h-0.1h-9.3h-9.6H89.9h-0.1h-0.1h-0.1h-17h-0.1h-0.1h-0.1h-0.3
		c9.7,0,17.5,7.7,17.8,17.3h0.1h16.4h0.7h0.1h0.1h0.7h0.1h0.1h7.7h9.4h0.1c0.2-9.6,8.1-17.3,17.8-17.3H142.8z"/>
	<path class="st6" d="M125.2,47.9h-9.4h-7.7H108h-0.1h0c9.5,0.2,17.2,7.8,17.5,17.3h0.1h17h0.1h0.1h0.1h0.6h0.1h0.1h0.1h17h0.1
		c0.2-9.5,7.9-17.2,17.5-17.3h0h-0.1H178h-0.7h-16.4h-0.1h-0.1h-35.3h-0.1H125.2z"/>
	<path class="st6" d="M125.2,84.3h-9.4h-7.7H108h-0.1h0c9.5,0.2,17.2,7.8,17.5,17.3h0.1h17h0.1h0.1h0.1h0.6h0.1h0.1h0.1h17h0.1
		c0.2-9.5,7.9-17.2,17.5-17.3h0h-0.1H178h-0.7h-16.4h-0.1h-0.1h-35.3h-0.1H125.2z"/>
	<path class="st6" d="M142.8,102.4h-0.1h-0.1h-0.1h-17h-0.1h-0.1h-0.1h-9.3h-9.6H89.9h-0.1h-0.1h-0.1h-17h-0.1h-0.1h-0.1h-0.3
		c9.7,0,17.5,7.7,17.8,17.3h0.1h16.4h0.7h0.1h0.1h0.7h0.1h0.1h7.7h9.4h0.1c0.2-9.6,8.1-17.3,17.8-17.3H142.8z"/>
	<path class="st6" d="M143.1,138.8h-0.3h-0.1h-0.1h-0.1h-17h-0.1h-0.1h-0.1h-9.3h-9.6H89.9h-0.1h-0.1h-0.1h-17h-0.1h-0.1h-0.1h-0.3
		c7.5,0,13.9,4.6,16.5,11.2h38.2C129.2,143.4,135.6,138.8,143.1,138.8z"/>
	<path class="st6" d="M125.2,120.6h-9.4h-7.7H108h-0.1h0c9.5,0.2,17.2,7.8,17.5,17.3h0.1h17h0.1h0.1h0.1h0.6h0.1h0.1h0.1h17h0.1
		c0.2-9.5,7.9-17.2,17.5-17.3h0h-0.1H178h-0.7h-16.4h-0.1h-0.1h-35.3h-0.1H125.2z"/>
	<path class="st3" d="M143.1,138.8c-7.5,0-13.9,4.6-16.5,11.2h33C156.9,143.4,150.6,138.8,143.1,138.8z"/>
	<path class="st6" d="M89.7,10.7h0.1h16.4h0.7h0.1h0.1h0.7h0.1h0.1h7.7h9.4h0.1c0.1-4,1.6-7.7,3.9-10.7H85.8
		C88.1,2.9,89.6,6.6,89.7,10.7z"/>
	<path class="st6" d="M71.6,29.7h-0.1h-0.1H54.3h-0.1H54H35H18.8h-0.1h-0.1H1.4H1.3H1.2H0.8c9.7,0,17.5,7.7,17.8,17.3h0.1H35h0.8H36
		h0.7h0.1H37H54h0.1c0.2-9.6,8.1-17.3,17.8-17.3H71.6z"/>
	<path class="st6" d="M54,11.5H37h-0.1h-0.1h0c9.5,0.2,17.2,7.8,17.5,17.3h0.1h17.1h0.1h0.1h0.6h0.1h0.1h0.1h17h0.1
		c0.2-9.5,7.9-17.2,17.5-17.3h0H107h-0.1h-0.7H89.8h-0.1h-0.1H54.3h-0.1H54z"/>
	<path class="st6" d="M71.6,66.1h-0.1h-0.1H54.3h-0.1H54H35H18.8h-0.1h-0.1H1.4H1.3H1.2H0.8c9.7,0,17.5,7.7,17.8,17.3h0.1H35h0.8H36
		h0.7h0.1H37H54h0.1c0.2-9.6,8.1-17.3,17.8-17.3H71.6z"/>
	<path class="st6" d="M54,47.9H37h-0.1h-0.1h0c9.5,0.2,17.2,7.8,17.5,17.3h0.1h17.1h0.1h0.1h0.6h0.1h0.1h0.1h17h0.1
		c0.2-9.5,7.9-17.2,17.5-17.3h0H107h-0.1h-0.7H89.8h-0.1h-0.1H54.3h-0.1H54z"/>
	<path class="st6" d="M71.6,102.4h-0.1h-0.1H54.3h-0.1H54H35H18.8h-0.1h-0.1H1.4H1.3H1.2H0.8c9.7,0,17.5,7.7,17.8,17.3h0.1H35h0.8
		H36h0.7h0.1H37H54h0.1c0.2-9.6,8.1-17.3,17.8-17.3H71.6z"/>
	<path class="st6" d="M54,84.3H37h-0.1h-0.1h0c9.5,0.2,17.2,7.8,17.5,17.3h0.1h17.1h0.1h0.1h0.6h0.1h0.1h0.1h17h0.1
		c0.2-9.5,7.9-17.2,17.5-17.3h0H107h-0.1h-0.7H89.8h-0.1h-0.1H54.3h-0.1H54z"/>
	<path class="st6" d="M54,120.6H37h-0.1h-0.1h0c9.5,0.2,17.2,7.8,17.5,17.3h0.1h17.1h0.1h0.1h0.6h0.1h0.1h0.1h17h0.1
		c0.2-9.5,7.9-17.2,17.5-17.3h0H107h-0.1h-0.7H89.8h-0.1h-0.1H54.3h-0.1H54z"/>
	<path class="st6" d="M71.9,138.8h-0.3h-0.1h-0.1H54.3h-0.1H54H35H18.8h-0.1h-0.1H1.4H1.3H1.2H0.8c7.5,0,13.9,4.6,16.5,11.2h38.2
		C58,143.4,64.4,138.8,71.9,138.8z"/>
	<path class="st3" d="M71.9,138.8c-7.5,0-13.9,4.6-16.5,11.2h33C85.8,143.4,79.4,138.8,71.9,138.8z"/>
	<path class="st6" d="M18.5,10.7h0.1H35h0.8H36h0.7h0.1H37H54h0.1c0.1-4,1.6-7.7,3.9-10.7H14.6C17,2.9,18.4,6.6,18.5,10.7z"/>
	<path class="st6" d="M0.4,29.7H0.3H0v0c0.3,0,0.5,0,0.8,0H0.4z"/>
	<path class="st6" d="M0.4,28.8h0.7h0.1h0.1h17.1c0.2-9.5,7.9-17.2,17.5-17.3h0h-0.1H35H18.6h-0.1H0v17.3h0.3H0.4z"/>
	<path class="st3" d="M0.4,29.7h0.3h0.4h0.1h0.1h17.1h0.1h0.1H35h19h0.1h0.1h17.1h0.1h0.1h0.3h0.3h0.1h0.1h0.1h17h0.1h0.1h0.1h16.2
		h9.6h9.3h0.1h0.1h0.1h17h0.1h0.1h0.1h0.3h0.3h0.1h0.1h0.1h17h0.1h0.1h0.1h16.2h9.6h9.3h0.1h0.1h0.1h17h0.1h0.1h0.1h0.3h0.3h0.1h0.1
		h0.1h17h0.1h0.1h0.1h16.2h9.6h9.3h0.1h0.1h0.1h17h0.1h0.1h0.1h0.3h0.3h0.1h0.1h0.1h17h0.1h0.1h0.1h16.2h9.6h9.3h0.1h0.1h0.1h17h0.1
		h0.1h0.1h0.3h0.3h0.1h0.1h0.1h17h0.1h0.1h0.1h16.2h9.6h9.3h0.1h0.1h0.1h17h0.1h0.1h0.1h0.3h0.3h0.1h0.1h17.1h0.1h0.1h26h9.3h0.1
		h0.1h17.1h0.1h0.1h0.4h0.3h0.1h0.7v-0.9h-0.7h-0.1h-0.7h-0.1h-0.1h-17.1c-0.2-9.5-7.9-17.2-17.5-17.3h0h0.1h7.8h9.4h0.1H500V0h-15
		c-2.4,2.9-3.8,6.6-3.9,10.7H481h-9.4h-7.8h-0.1h-0.7h-0.1h-0.1h-17.1h-0.1c-0.1-4-1.6-7.7-3.9-10.7h-27.7
		c-2.4,2.9-3.8,6.6-3.9,10.7h-0.1h-9.4h-7.7h-0.1h-0.1h-0.7h-0.1h-0.1h-0.7h-16.4h-0.1c-0.1-4-1.6-7.7-3.9-10.7h-27.7
		c-2.4,2.9-3.8,6.6-3.9,10.7h-0.1h-9.4h-7.7h-0.1h-0.1h-0.7h-0.1h-0.1h-0.7h-16.4h-0.1c-0.1-4-1.6-7.7-3.9-10.7h-27.7
		c-2.4,2.9-3.8,6.6-3.9,10.7h-0.1h-9.4h-7.7h-0.1h-0.1h-0.7h-0.1h-0.1h-0.7h-16.4H232c-0.1-4-1.6-7.7-3.9-10.7h-27.7
		c-2.4,2.9-3.8,6.6-3.9,10.7h-0.1h-9.4h-7.7h-0.1H179h-0.7h-0.1H178h-0.7h-16.4h-0.1c-0.1-4-1.6-7.7-3.9-10.7h-27.7
		c-2.4,2.9-3.8,6.6-3.9,10.7h-0.1h-9.4h-7.7H108h-0.1h-0.7H107h-0.1h-0.7H89.8h-0.1c-0.1-4-1.6-7.7-3.9-10.7H58.1
		c-2.4,2.9-3.8,6.6-3.9,10.7H54H37h-0.1h-0.1H36h-0.1H35H18.6h-0.1C18.4,6.6,17,2.9,14.6,0H0v11.5h18.5h0.1H35h0.8H36h0
		c-9.5,0.2-17.2,7.8-17.5,17.3H1.4H1.3H1.2H0.4H0.3H0v0.9h0.3H0.4z M89.5,11.5h0.1h0.1h16.4h0.7h0.1h0.1h0
		c-9.5,0.2-17.2,7.8-17.5,17.3h-0.1h-17h-0.1h-0.1h-0.1h-0.6h-0.1h-0.1H54.3h-0.1c-0.2-9.5-7.9-17.2-17.5-17.3h0h0.1H37H54h0.1h0.1
		H89.5z M160.7,11.5h0.1h0.1h16.4h0.7h0.1h0.1h0c-9.5,0.2-17.2,7.8-17.5,17.3h-0.1h-17h-0.1h-0.1h-0.1h-0.6h-0.1h-0.1h-0.1h-17h-0.1
		c-0.2-9.5-7.9-17.2-17.5-17.3h0h0.1h0.1h7.7h9.4h0.1h0.1H160.7z M231.9,11.5h0.1h0.1h16.4h0.7h0.1h0.1h0
		c-9.5,0.2-17.2,7.8-17.5,17.3h-0.1h-17h-0.1h-0.1h-0.1h-0.6h-0.1h-0.1h-0.1h-17h-0.1c-0.2-9.5-7.9-17.2-17.5-17.3h0h0.1h0.1h7.7
		h9.4h0.1h0.1H231.9z M303,11.5h0.1h0.1h16.4h0.7h0.1h0.1h0c-9.5,0.2-17.2,7.8-17.5,17.3H303h-17h-0.1h-0.1h-0.1h-0.6h-0.1h-0.1
		h-0.1h-17h-0.1c-0.2-9.5-7.9-17.2-17.5-17.3h0h0.1h0.1h7.7h9.4h0.1h0.1H303z M374.2,11.5h0.1h0.1h16.4h0.7h0.1h0.1h0
		c-9.5,0.2-17.2,7.8-17.5,17.3h-0.1h-17h-0.1H357h-0.1h-0.6h-0.1H356h-0.1h-17h-0.1c-0.2-9.5-7.9-17.2-17.5-17.3h0h0.1h0.1h7.7h9.4
		h0.1h0.1H374.2z M445.3,11.5h0.1h0.1h17.1h0.1h0.1h0c-9.5,0.2-17.2,7.8-17.5,17.3h-0.1h-17.1h-0.1H428h-0.6h-0.1h-0.1H427h-17h-0.1
		c-0.2-9.5-7.9-17.2-17.5-17.3h0h0.1h0.1h7.7h9.4h0.1h0.1H445.3z"/>
	<path class="st6" d="M0.4,66.1H0.3H0v0c0.3,0,0.5,0,0.8,0H0.4z"/>
	<path class="st6" d="M0.4,65.2h0.7h0.1h0.1h17.1c0.2-9.5,7.9-17.2,17.5-17.3h0h-0.1H35H18.6h-0.1H0v17.3h0.3H0.4z"/>
	<path class="st3" d="M0.4,66.1h0.3h0.4h0.1h0.1h17.1h0.1h0.1H35h19h0.1h0.1h17.1h0.1h0.1h0.3h0.3h0.1h0.1h0.1h17h0.1h0.1h0.1h16.2
		h9.6h9.3h0.1h0.1h0.1h17h0.1h0.1h0.1h0.3h0.3h0.1h0.1h0.1h17h0.1h0.1h0.1h16.2h9.6h9.3h0.1h0.1h0.1h17h0.1h0.1h0.1h0.3h0.3h0.1h0.1
		h0.1h17h0.1h0.1h0.1h16.2h9.6h9.3h0.1h0.1h0.1h17h0.1h0.1h0.1h0.3h0.3h0.1h0.1h0.1h17h0.1h0.1h0.1h16.2h9.6h9.3h0.1h0.1h0.1h17h0.1
		h0.1h0.1h0.3h0.3h0.1h0.1h0.1h17h0.1h0.1h0.1h16.2h9.6h9.3h0.1h0.1h0.1h17h0.1h0.1h0.1h0.3h0.3h0.1h0.1h17.1h0.1h0.1h26h9.3h0.1
		h0.1h17.1h0.1h0.1h0.4h0.3h0.1h0.7v-0.9h-0.7h-0.1h-0.7h-0.1h-0.1h-17.1c-0.2-9.5-7.9-17.2-17.5-17.3h0h0.1h7.8h9.4h0.1H500V29.8
		c-0.4,0-0.8-0.1-1.2-0.1c-9.7,0-17.5,7.7-17.8,17.3H481h-9.4h-7.8h-0.1h-0.7h-0.1h-0.1h-17.1h-0.1c-0.2-9.6-8.1-17.3-17.8-17.3
		s-17.5,7.7-17.8,17.3h-0.1h-9.4h-7.7h-0.1h-0.1h-0.7h-0.1h-0.1h-0.7h-16.4h-0.1c-0.2-9.6-8.1-17.3-17.8-17.3S339,37.4,338.8,47
		h-0.1h-9.4h-7.7h-0.1h-0.1h-0.7h-0.1h-0.1h-0.7h-16.4h-0.1c-0.2-9.6-8.1-17.3-17.8-17.3s-17.5,7.7-17.8,17.3h-0.1h-9.4h-7.7h-0.1
		h-0.1h-0.7h-0.1h-0.1h-0.7h-16.4H232c-0.2-9.6-8.1-17.3-17.8-17.3s-17.5,7.7-17.8,17.3h-0.1h-9.4h-7.7h-0.1H179h-0.7h-0.1H178h-0.7
		h-16.4h-0.1c-0.2-9.6-8.1-17.3-17.8-17.3s-17.5,7.7-17.8,17.3h-0.1h-9.4h-7.7H108h-0.1h-0.7H107h-0.1h-0.7H89.8h-0.1
		c-0.2-9.6-8.1-17.3-17.8-17.3S54.4,37.4,54.2,47H54H37h-0.1h-0.1H36h-0.1H35H18.6h-0.1c-0.2-9.6-8.1-17.3-17.8-17.3
		c-0.3,0-0.5,0-0.8,0v18.2h18.5h0.1H35h0.8H36h0c-9.5,0.2-17.2,7.8-17.5,17.3H1.4H1.3H1.2H0.4H0.3H0v0.9h0.3H0.4z M89.5,47.9h0.1
		h0.1h16.4h0.7h0.1h0.1h0c-9.5,0.2-17.2,7.8-17.5,17.3h-0.1h-17h-0.1h-0.1h-0.1h-0.6h-0.1h-0.1H54.3h-0.1
		c-0.2-9.5-7.9-17.2-17.5-17.3h0h0.1H37H54h0.1h0.1H89.5z M160.7,47.9h0.1h0.1h16.4h0.7h0.1h0.1h0c-9.5,0.2-17.2,7.8-17.5,17.3h-0.1
		h-17h-0.1h-0.1h-0.1h-0.6h-0.1h-0.1h-0.1h-17h-0.1c-0.2-9.5-7.9-17.2-17.5-17.3h0h0.1h0.1h7.7h9.4h0.1h0.1H160.7z M231.9,47.9h0.1
		h0.1h16.4h0.7h0.1h0.1h0c-9.5,0.2-17.2,7.8-17.5,17.3h-0.1h-17h-0.1h-0.1h-0.1h-0.6h-0.1h-0.1h-0.1h-17h-0.1
		c-0.2-9.5-7.9-17.2-17.5-17.3h0h0.1h0.1h7.7h9.4h0.1h0.1H231.9z M303,47.9h0.1h0.1h16.4h0.7h0.1h0.1h0c-9.5,0.2-17.2,7.8-17.5,17.3
		H303h-17h-0.1h-0.1h-0.1h-0.6h-0.1h-0.1h-0.1h-17h-0.1c-0.2-9.5-7.9-17.2-17.5-17.3h0h0.1h0.1h7.7h9.4h0.1h0.1H303z M374.2,47.9
		h0.1h0.1h16.4h0.7h0.1h0.1h0c-9.5,0.2-17.2,7.8-17.5,17.3h-0.1h-17h-0.1H357h-0.1h-0.6h-0.1H356h-0.1h-17h-0.1
		c-0.2-9.5-7.9-17.2-17.5-17.3h0h0.1h0.1h7.7h9.4h0.1h0.1H374.2z M445.3,47.9h0.1h0.1h17.1h0.1h0.1h0c-9.5,0.2-17.2,7.8-17.5,17.3
		h-0.1h-17.1h-0.1H428h-0.6h-0.1h-0.1H427h-17h-0.1c-0.2-9.5-7.9-17.2-17.5-17.3h0h0.1h0.1h7.7h9.4h0.1h0.1H445.3z"/>
	<path class="st6" d="M0.4,102.4H0.3H0v0c0.3,0,0.5,0,0.8,0H0.4z"/>
	<path class="st6" d="M0.4,101.6h0.7h0.1h0.1h17.1c0.2-9.5,7.9-17.2,17.5-17.3h0h-0.1H35H18.6h-0.1H0v17.3h0.3H0.4z"/>
	<path class="st3" d="M0.4,102.4h0.3h0.4h0.1h0.1h17.1h0.1h0.1H35h19h0.1h0.1h17.1h0.1h0.1h0.3h0.3h0.1h0.1h0.1h17h0.1h0.1h0.1h16.2
		h9.6h9.3h0.1h0.1h0.1h17h0.1h0.1h0.1h0.3h0.3h0.1h0.1h0.1h17h0.1h0.1h0.1h16.2h9.6h9.3h0.1h0.1h0.1h17h0.1h0.1h0.1h0.3h0.3h0.1h0.1
		h0.1h17h0.1h0.1h0.1h16.2h9.6h9.3h0.1h0.1h0.1h17h0.1h0.1h0.1h0.3h0.3h0.1h0.1h0.1h17h0.1h0.1h0.1h16.2h9.6h9.3h0.1h0.1h0.1h17h0.1
		h0.1h0.1h0.3h0.3h0.1h0.1h0.1h17h0.1h0.1h0.1h16.2h9.6h9.3h0.1h0.1h0.1h17h0.1h0.1h0.1h0.3h0.3h0.1h0.1h17.1h0.1h0.1h26h9.3h0.1
		h0.1h17.1h0.1h0.1h0.4h0.3h0.1h0.7v-0.9h-0.7h-0.1h-0.7h-0.1h-0.1h-17.1c-0.2-9.5-7.9-17.2-17.5-17.3h0h0.1h7.8h9.4h0.1H500V66.1
		c-0.4,0-0.8-0.1-1.2-0.1c-9.7,0-17.5,7.7-17.8,17.3H481h-9.4h-7.8h-0.1h-0.7h-0.1h-0.1h-17.1h-0.1c-0.2-9.6-8.1-17.3-17.8-17.3
		s-17.5,7.7-17.8,17.3h-0.1h-9.4h-7.7h-0.1h-0.1h-0.7h-0.1h-0.1h-0.7h-16.4h-0.1c-0.2-9.6-8.1-17.3-17.8-17.3s-17.5,7.7-17.8,17.3
		h-0.1h-9.4h-7.7h-0.1h-0.1h-0.7h-0.1h-0.1h-0.7h-16.4h-0.1c-0.2-9.6-8.1-17.3-17.8-17.3s-17.5,7.7-17.8,17.3h-0.1h-9.4h-7.7h-0.1
		h-0.1h-0.7h-0.1h-0.1h-0.7h-16.4H232c-0.2-9.6-8.1-17.3-17.8-17.3s-17.5,7.7-17.8,17.3h-0.1h-9.4h-7.7h-0.1H179h-0.7h-0.1H178h-0.7
		h-16.4h-0.1c-0.2-9.6-8.1-17.3-17.8-17.3s-17.5,7.7-17.8,17.3h-0.1h-9.4h-7.7H108h-0.1h-0.7H107h-0.1h-0.7H89.8h-0.1
		c-0.2-9.6-8.1-17.3-17.8-17.3s-17.5,7.7-17.8,17.3H54H37h-0.1h-0.1H36h-0.1H35H18.6h-0.1c-0.2-9.6-8.1-17.3-17.8-17.3
		c-0.3,0-0.5,0-0.8,0v18.2h18.5h0.1H35h0.8H36h0c-9.5,0.2-17.2,7.8-17.5,17.3H1.4H1.3H1.2H0.4H0.3H0v0.9h0.3H0.4z M89.5,84.3h0.1
		h0.1h16.4h0.7h0.1h0.1h0c-9.5,0.2-17.2,7.8-17.5,17.3h-0.1h-17h-0.1h-0.1h-0.1h-0.6h-0.1h-0.1H54.3h-0.1
		c-0.2-9.5-7.9-17.2-17.5-17.3h0h0.1H37H54h0.1h0.1H89.5z M160.7,84.3h0.1h0.1h16.4h0.7h0.1h0.1h0c-9.5,0.2-17.2,7.8-17.5,17.3h-0.1
		h-17h-0.1h-0.1h-0.1h-0.6h-0.1h-0.1h-0.1h-17h-0.1c-0.2-9.5-7.9-17.2-17.5-17.3h0h0.1h0.1h7.7h9.4h0.1h0.1H160.7z M231.9,84.3h0.1
		h0.1h16.4h0.7h0.1h0.1h0c-9.5,0.2-17.2,7.8-17.5,17.3h-0.1h-17h-0.1h-0.1h-0.1h-0.6h-0.1h-0.1h-0.1h-17h-0.1
		c-0.2-9.5-7.9-17.2-17.5-17.3h0h0.1h0.1h7.7h9.4h0.1h0.1H231.9z M303,84.3h0.1h0.1h16.4h0.7h0.1h0.1h0c-9.5,0.2-17.2,7.8-17.5,17.3
		H303h-17h-0.1h-0.1h-0.1h-0.6h-0.1h-0.1h-0.1h-17h-0.1c-0.2-9.5-7.9-17.2-17.5-17.3h0h0.1h0.1h7.7h9.4h0.1h0.1H303z M374.2,84.3
		h0.1h0.1h16.4h0.7h0.1h0.1h0c-9.5,0.2-17.2,7.8-17.5,17.3h-0.1h-17h-0.1H357h-0.1h-0.6h-0.1H356h-0.1h-17h-0.1
		c-0.2-9.5-7.9-17.2-17.5-17.3h0h0.1h0.1h7.7h9.4h0.1h0.1H374.2z M445.3,84.3h0.1h0.1h17.1h0.1h0.1h0c-9.5,0.2-17.2,7.8-17.5,17.3
		h-0.1h-17.1h-0.1H428h-0.6h-0.1h-0.1H427h-17h-0.1c-0.2-9.5-7.9-17.2-17.5-17.3h0h0.1h0.1h7.7h9.4h0.1h0.1H445.3z"/>
	<path class="st6" d="M0.4,137.9h0.7h0.1h0.1h17.1c0.2-9.5,7.9-17.2,17.5-17.3h0h-0.1H35H18.6h-0.1H0v17.3h0.3H0.4z"/>
	<path class="st6" d="M0.4,138.8H0.3H0v0c0.3,0,0.5,0,0.8,0H0.4z"/>
	<path class="st3" d="M0.8,138.8c-0.3,0-0.5,0-0.8,0V150h17.2C14.6,143.4,8.2,138.8,0.8,138.8z"/>
	<path class="st3" d="M0.4,138.8h0.3h0.4h0.1h0.1h17.1h0.1h0.1H35h19h0.1h0.1h17.1h0.1h0.1h0.3h0.3h0.1h0.1h0.1h17h0.1h0.1h0.1h16.2
		h9.6h9.3h0.1h0.1h0.1h17h0.1h0.1h0.1h0.3h0.3h0.1h0.1h0.1h17h0.1h0.1h0.1h16.2h9.6h9.3h0.1h0.1h0.1h17h0.1h0.1h0.1h0.3h0.3h0.1h0.1
		h0.1h17h0.1h0.1h0.1h16.2h9.6h9.3h0.1h0.1h0.1h17h0.1h0.1h0.1h0.3h0.3h0.1h0.1h0.1h17h0.1h0.1h0.1h16.2h9.6h9.3h0.1h0.1h0.1h17h0.1
		h0.1h0.1h0.3h0.3h0.1h0.1h0.1h17h0.1h0.1h0.1h16.2h9.6h9.3h0.1h0.1h0.1h17h0.1h0.1h0.1h0.3h0.3h0.1h0.1h17.1h0.1h0.1h26h9.3h0.1
		h0.1h17.1h0.1h0.1h0.4h0.3h0.1h0.7v-0.9h-0.7h-0.1h-0.7h-0.1h-0.1h-17.1c-0.2-9.5-7.9-17.2-17.5-17.3h0h0.1h7.8h9.4h0.1H500v-18.1
		c-0.4,0-0.8-0.1-1.2-0.1c-9.7,0-17.5,7.7-17.8,17.3H481h-9.4h-7.8h-0.1h-0.7h-0.1h-0.1h-17.1h-0.1c-0.2-9.6-8.1-17.3-17.8-17.3
		s-17.5,7.7-17.8,17.3h-0.1h-9.4h-7.7h-0.1h-0.1h-0.7h-0.1h-0.1h-0.7h-16.4h-0.1c-0.2-9.6-8.1-17.3-17.8-17.3s-17.5,7.7-17.8,17.3
		h-0.1h-9.4h-7.7h-0.1h-0.1h-0.7h-0.1h-0.1h-0.7h-16.4h-0.1c-0.2-9.6-8.1-17.3-17.8-17.3s-17.5,7.7-17.8,17.3h-0.1h-9.4h-7.7h-0.1
		h-0.1h-0.7h-0.1h-0.1h-0.7h-16.4H232c-0.2-9.6-8.1-17.3-17.8-17.3s-17.5,7.7-17.8,17.3h-0.1h-9.4h-7.7h-0.1H179h-0.7h-0.1H178h-0.7
		h-16.4h-0.1c-0.2-9.6-8.1-17.3-17.8-17.3s-17.5,7.7-17.8,17.3h-0.1h-9.4h-7.7H108h-0.1h-0.7H107h-0.1h-0.7H89.8h-0.1
		c-0.2-9.6-8.1-17.3-17.8-17.3s-17.5,7.7-17.8,17.3H54H37h-0.1h-0.1H36h-0.1H35H18.6h-0.1c-0.2-9.6-8.1-17.3-17.8-17.3
		c-0.3,0-0.5,0-0.8,0v18.2h18.5h0.1H35h0.8H36h0c-9.5,0.2-17.2,7.8-17.5,17.3H1.4H1.3H1.2H0.4H0.3H0v0.9h0.3H0.4z M89.5,120.6h0.1
		h0.1h16.4h0.7h0.1h0.1h0c-9.5,0.2-17.2,7.8-17.5,17.3h-0.1h-17h-0.1h-0.1h-0.1h-0.6h-0.1h-0.1H54.3h-0.1
		c-0.2-9.5-7.9-17.2-17.5-17.3h0h0.1H37H54h0.1h0.1H89.5z M160.7,120.6h0.1h0.1h16.4h0.7h0.1h0.1h0c-9.5,0.2-17.2,7.8-17.5,17.3
		h-0.1h-17h-0.1h-0.1h-0.1h-0.6h-0.1h-0.1h-0.1h-17h-0.1c-0.2-9.5-7.9-17.2-17.5-17.3h0h0.1h0.1h7.7h9.4h0.1h0.1H160.7z
		 M231.9,120.6h0.1h0.1h16.4h0.7h0.1h0.1h0c-9.5,0.2-17.2,7.8-17.5,17.3h-0.1h-17h-0.1h-0.1h-0.1h-0.6h-0.1h-0.1h-0.1h-17h-0.1
		c-0.2-9.5-7.9-17.2-17.5-17.3h0h0.1h0.1h7.7h9.4h0.1h0.1H231.9z M303,120.6h0.1h0.1h16.4h0.7h0.1h0.1h0
		c-9.5,0.2-17.2,7.8-17.5,17.3H303h-17h-0.1h-0.1h-0.1h-0.6h-0.1h-0.1h-0.1h-17h-0.1c-0.2-9.5-7.9-17.2-17.5-17.3h0h0.1h0.1h7.7h9.4
		h0.1h0.1H303z M374.2,120.6h0.1h0.1h16.4h0.7h0.1h0.1h0c-9.5,0.2-17.2,7.8-17.5,17.3h-0.1h-17h-0.1H357h-0.1h-0.6h-0.1H356h-0.1
		h-17h-0.1c-0.2-9.5-7.9-17.2-17.5-17.3h0h0.1h0.1h7.7h9.4h0.1h0.1H374.2z M445.3,120.6h0.1h0.1h17.1h0.1h0.1h0
		c-9.5,0.2-17.2,7.8-17.5,17.3h-0.1h-17.1h-0.1H428h-0.6h-0.1h-0.1H427h-17h-0.1c-0.2-9.5-7.9-17.2-17.5-17.3h0h0.1h0.1h7.7h9.4h0.1
		h0.1H445.3z"/>
</g>
<pattern  id="SVGID_3_" xlink:href="#譁ｰ隕上ヱ繧ｿ繝ｼ繝ｳ繧ｹ繧ｦ繧ｩ繝メ_6" patternTransform="matrix(0.4012 0 0 0.4012 -3389.7144 -3725.1169)">
</pattern>
<rect y="-191.8" class="st7" width="500" height="150"/>
<g>
</g>
<g>
</g>
<g>
</g>
<g>
</g>
<g>
</g>
<g>
</g>
</svg>
