<?xml version="1.0" encoding="utf-8"?>
<!-- Generator: Adobe Illustrator 21.1.0, SVG Export Plug-In . SVG Version: 6.00 Build 0)  -->
<svg version="1.1" id="レイヤー_1" xmlns="http://www.w3.org/2000/svg" xmlns:xlink="http://www.w3.org/1999/xlink" x="0px"
	 y="0px" viewBox="0 0 500 150" style="enable-background:new 0 0 500 150;" xml:space="preserve">
<style type="text/css">
	.st0{fill:none;}
	.st1{clip-path:url(#SVGID_2_);fill:#13848F;}
	.st2{clip-path:url(#SVGID_2_);}
	.st3{fill:#FFFFFF;}
	.st4{clip-path:url(#SVGID_2_);fill:#FFFFFF;}
	.st5{clip-path:url(#SVGID_2_);fill:none;}
	.st6{fill:url(#SVGID_3_);}
	.st7{fill:#8F467D;}
	.st8{fill:#7D2589;}
</style>
<pattern  x="-250" y="-75" width="177.3" height="90.6" patternUnits="userSpaceOnUse" id="新規パターンスウォッチ_6" viewBox="265.3 -136 177.3 90.6" style="overflow:visible;">
	<g>
		<rect x="265.3" y="-136" class="st0" width="177.3" height="90.6"/>
		<g>
			<defs>
				<rect id="SVGID_1_" x="265.3" y="-136" width="177.3" height="90.6"/>
			</defs>
			<clipPath id="SVGID_2_">
				<use xlink:href="#SVGID_1_"  style="overflow:visible;"/>
			</clipPath>
			<rect x="239.7" y="-158.7" class="st1" width="219.4" height="152.7"/>
			<g class="st2">
				<path class="st3" d="M176-2.2h-43.2c-0.6-23.9-20.2-43.2-44.2-43.2S44.8-26.1,44.3-2.2H1.1C0.5-2.2,0-1.7,0-1.1
					C0-0.5,0.5,0,1.1,0h43.2h88.5H176c0.6,0,1.1-0.5,1.1-1.1C177-1.7,176.6-2.2,176-2.2z"/>
				<path class="st3" d="M353-2.2h-43.2c-0.6-23.9-20.2-43.2-44.2-43.2c-24.1,0-43.7,19.2-44.2,43.2h-43.2c-0.6,0-1.1,0.5-1.1,1.1
					c0,0.6,0.5,1.1,1.1,1.1h43.2h88.5H353c0.6,0,1.1-0.5,1.1-1.1C354.1-1.7,353.6-2.2,353-2.2z"/>
			</g>
			<path class="st4" d="M264.5-47.5h-43.2c-0.6-23.9-20.2-43.2-44.2-43.2s-43.7,19.2-44.2,43.2H89.6c-0.6,0-1.1,0.5-1.1,1.1
				c0,0.6,0.5,1.1,1.1,1.1h43.2h88.5h43.2c0.6,0,1.1-0.5,1.1-1.1C265.6-47,265.1-47.5,264.5-47.5z"/>
			<g class="st2">
				<path class="st3" d="M176-92.8h-43.2c-0.6-23.9-20.2-43.2-44.2-43.2s-43.7,19.2-44.2,43.2H1.1c-0.6,0-1.1,0.5-1.1,1.1
					c0,0.6,0.5,1.1,1.1,1.1h43.2h88.5H176c0.6,0,1.1-0.5,1.1-1.1C177-92.4,176.6-92.8,176-92.8z"/>
				<path class="st3" d="M353-92.8h-43.2c-0.6-23.9-20.2-43.2-44.2-43.2c-24.1,0-43.7,19.2-44.2,43.2h-43.2c-0.6,0-1.1,0.5-1.1,1.1
					c0,0.6,0.5,1.1,1.1,1.1h43.2h88.5H353c0.6,0,1.1-0.5,1.1-1.1C354.1-92.4,353.6-92.8,353-92.8z"/>
			</g>
			<path class="st4" d="M264.5-138.2h-43.2c-0.6-23.9-20.2-43.2-44.2-43.2s-43.7,19.2-44.2,43.2H89.6c-0.6,0-1.1,0.5-1.1,1.1
				c0,0.6,0.5,1.1,1.1,1.1h43.2h88.5h43.2c0.6,0,1.1-0.5,1.1-1.1C265.6-137.7,265.1-138.2,264.5-138.2z"/>
			<path class="st4" d="M441.5-47.5h-43.2c-0.6-23.9-20.2-43.2-44.2-43.2c-24.1,0-43.7,19.2-44.2,43.2h-43.2c-0.6,0-1.1,0.5-1.1,1.1
				c0,0.6,0.5,1.1,1.1,1.1h43.2h88.5h43.2c0.6,0,1.1-0.5,1.1-1.1C442.6-47,442.1-47.5,441.5-47.5z"/>
			<path class="st4" d="M441.5-138.2h-43.2c-0.6-23.9-20.2-43.2-44.2-43.2c-24.1,0-43.7,19.2-44.2,43.2h-43.2
				c-0.6,0-1.1,0.5-1.1,1.1c0,0.6,0.5,1.1,1.1,1.1h43.2h88.5h43.2c0.6,0,1.1-0.5,1.1-1.1C442.6-137.7,442.1-138.2,441.5-138.2z"/>
			<g class="st2">
				<path class="st3" d="M530.1-2.2h-43.2c-0.6-23.9-20.2-43.2-44.2-43.2c-24.1,0-43.7,19.2-44.2,43.2h-43.2c-0.6,0-1.1,0.5-1.1,1.1
					c0,0.6,0.5,1.1,1.1,1.1h43.2h88.5h43.2c0.6,0,1.1-0.5,1.1-1.1C531.1-1.7,530.7-2.2,530.1-2.2z"/>
				<path class="st3" d="M707.1-2.2h-43.2c-0.6-23.9-20.2-43.2-44.2-43.2S576-26.1,575.4-2.2h-43.2c-0.6,0-1.1,0.5-1.1,1.1
					c0,0.6,0.5,1.1,1.1,1.1h43.2h88.5h43.2c0.6,0,1.1-0.5,1.1-1.1C708.2-1.7,707.7-2.2,707.1-2.2z"/>
			</g>
			<path class="st4" d="M618.6-47.5h-43.2c-0.6-23.9-20.2-43.2-44.2-43.2c-24.1,0-43.7,19.2-44.2,43.2h-43.2c-0.6,0-1.1,0.5-1.1,1.1
				c0,0.6,0.5,1.1,1.1,1.1h43.2h88.5h43.2c0.6,0,1.1-0.5,1.1-1.1C619.7-47,619.2-47.5,618.6-47.5z"/>
			<g class="st2">
				<path class="st3" d="M530.1-92.8h-43.2c-0.6-23.9-20.2-43.2-44.2-43.2c-24.1,0-43.7,19.2-44.2,43.2h-43.2
					c-0.6,0-1.1,0.5-1.1,1.1c0,0.6,0.5,1.1,1.1,1.1h43.2h88.5h43.2c0.6,0,1.1-0.5,1.1-1.1C531.1-92.4,530.7-92.8,530.1-92.8z"/>
				<path class="st3" d="M707.1-92.8h-43.2c-0.6-23.9-20.2-43.2-44.2-43.2s-43.7,19.2-44.2,43.2h-43.2c-0.6,0-1.1,0.5-1.1,1.1
					c0,0.6,0.5,1.1,1.1,1.1h43.2h88.5h43.2c0.6,0,1.1-0.5,1.1-1.1C708.2-92.4,707.7-92.8,707.1-92.8z"/>
			</g>
			<path class="st4" d="M618.6-138.2h-43.2c-0.6-23.9-20.2-43.2-44.2-43.2c-24.1,0-43.7,19.2-44.2,43.2h-43.2
				c-0.6,0-1.1,0.5-1.1,1.1c0,0.6,0.5,1.1,1.1,1.1h43.2h88.5h43.2c0.6,0,1.1-0.5,1.1-1.1C619.7-137.7,619.2-138.2,618.6-138.2z"/>
			<rect x="85.6" y="-540.3" class="st5" width="534.3" height="534.3"/>
			<rect x="84.7" y="-138.2" class="st4" width="556" height="2.2"/>
			<rect x="84.7" y="-92.8" class="st4" width="556" height="2.2"/>
			<rect x="84.7" y="-47.5" class="st4" width="556" height="2.2"/>
			<rect x="85.6" y="-540.3" class="st5" width="534.3" height="534.3"/>
		</g>
	</g>
</pattern>
<pattern  id="SVGID_3_" xlink:href="#譁ｰ隕上ヱ繧ｿ繝ｼ繝ｳ繧ｹ繧ｦ繧ｩ繝メ_6" patternTransform="matrix(0.4012 0 0 0.4012 -3389.7144 -3725.1169)">
</pattern>
<rect y="-191.8" class="st6" width="500" height="150"/>
<g>
	<path class="st7" d="M500,119l-2.3,0.4l0.1-1.5l0,0l0,0v0v0v0c0-0.2-0.1-0.3-0.2-0.4c-0.1,0-0.2,0-0.2,0c0,0,0,0,0,0s0,0,0,0
		c-0.1,0-0.1,0.1-0.2,0.1L478,143.9c0,0.1-0.1,0.1-0.1,0.2c0,0,0,0,0,0c0,0.1,0,0.1,0.1,0.2c0-0.1-0.1-0.1-0.1-0.2
		c0,0.1,0,0.1,0.1,0.2c0.1,0.1,0.2,0.2,0.4,0.2l13.7-2.8v0l0.5-0.1l3.1-0.6l-1.6,5.9l-0.9,3.2h5l0.9-1.2l0.9-1.2V119z"/>
	<path class="st7" d="M477.9,25.1C477.9,25.1,477.9,25.1,477.9,25.1c0,0.1,0,0.1,0.1,0.2C478,25.3,477.9,25.2,477.9,25.1
		c0,0.1,0,0.1,0.1,0.2c0.1,0.1,0.2,0.2,0.4,0.2l13.7-2.8v0l0.5-0.1l3.1-0.6l-1.6,5.9l-3.2,11.7c0,0,0,0,0,0v0c0,0,0,0,0,0v0
		c0,0.2,0,0.4,0.2,0.4c0.1,0,0.1,0,0.2,0c0.1,0,0.2-0.1,0.3-0.1l7.6-10.1l0.9-1.2V0l-2.3,0.4l0-0.4h-1.6L478,24.9
		C478,25,477.9,25.1,477.9,25.1z M491.3,37.9L491.3,37.9l0.8-2.8v0L491.3,37.9z"/>
	<path class="st8" d="M492.1,22.7l-13.7,2.8c-0.1,0-0.3,0-0.4-0.2c0-0.1-0.1-0.1-0.1-0.2c0,0.1,0,0.1,0.1,0.2
		c0.1,0.1,0.2,0.2,0.4,0.2L492.1,22.7L492.1,22.7L492.1,22.7z"/>
	<polygon class="st8" points="491.3,37.9 491.3,37.9 492.1,35.1 492.1,35.1 	"/>
	<path class="st7" d="M490.9,0c0,0.1,0.1,0.2,0.2,0.3c0.1,0,0.1,0,0.2,0c0.1,0,0.2-0.1,0.3-0.1l0.1-0.2H490.9z"/>
	<path class="st7" d="M478,64.6c0,0.1-0.1,0.1-0.1,0.2c0,0,0,0,0,0c0,0.1,0,0.1,0.1,0.2c0-0.1-0.1-0.1-0.1-0.2c0,0.1,0,0.1,0.1,0.2
		c0.1,0.1,0.2,0.2,0.4,0.2l13.7-2.8v0l0.5-0.1l3.1-0.6l-1.6,5.9l-3.2,11.7c0,0,0,0,0,0v0c0,0,0,0,0,0v0c0,0.2,0,0.4,0.2,0.4
		c0.1,0,0.1,0,0.2,0c0.1,0,0.2-0.1,0.3-0.1l7.6-10.1l0.9-1.2V39.7l-2.3,0.4l0.1-1.5l0,0l0,0v0v0v0c0-0.2-0.1-0.3-0.2-0.4
		c-0.1,0-0.2,0-0.2,0c0,0,0,0,0,0s0,0,0,0c-0.1,0-0.1,0.1-0.2,0.1L478,64.6z M491.3,77.5L491.3,77.5l0.8-2.8v0L491.3,77.5z"/>
	<path class="st8" d="M492.1,62.4l-13.7,2.8c-0.1,0-0.3,0-0.4-0.2c0-0.1-0.1-0.1-0.1-0.2c0,0.1,0,0.1,0.1,0.2
		c0.1,0.1,0.2,0.2,0.4,0.2L492.1,62.4L492.1,62.4L492.1,62.4z"/>
	<polygon class="st8" points="491.3,77.5 491.3,77.5 492.1,74.7 492.1,74.7 	"/>
	<path class="st7" d="M485.4,93.7c0.2,0,0.3-0.2,0.3-0.4c0,0,0,0,0,0s0,0,0,0c0-0.1,0-0.1-0.1-0.2c0,0,0,0,0-0.1
		c-0.1-0.1-0.2-0.1-0.2-0.1l-18.9-0.4l-3.4-0.1l9.1-11.4l16.4-6.9c0.1,0,0.2-0.1,0.2-0.2c0,0,0,0,0-0.1c0-0.1,0-0.1,0-0.2v0
		c0,0,0,0,0,0l0,0v0c0,0,0,0,0,0c0,0,0,0,0-0.1c-0.1-0.1-0.2-0.2-0.4-0.2l-37.8,6.2l0.1-1.5v0v0c0-0.2-0.1-0.3-0.2-0.4
		c-0.1,0-0.2,0-0.2,0c0,0,0,0,0,0c0,0,0,0,0,0c-0.1,0-0.1,0.1-0.2,0.1l-19.1,26.3c0,0.1-0.1,0.1-0.1,0.2c0,0,0,0,0,0
		c0,0.1,0,0.1,0.1,0.2c0-0.1-0.1-0.1-0.1-0.2c0,0.1,0,0.1,0.1,0.2c0.1,0.1,0.2,0.2,0.4,0.2l13.7-2.8v0l0.5-0.1l3.1-0.6l-1.6,5.9
		l-3.2,11.7c0,0,0,0,0,0v0c0,0,0,0,0,0v0c0,0.2,0,0.4,0.2,0.4c0.1,0,0.1,0,0.2,0c0.1,0,0.2-0.1,0.3-0.1l7.6-10.1l7.6-10.1
		L485.4,93.7z M444.9,114.4l-0.8,2.8h0L444.9,114.4L444.9,114.4z"/>
	<path class="st8" d="M492.1,102l-13.7,2.8c-0.1,0-0.3,0-0.4-0.2c0-0.1-0.1-0.1-0.1-0.2c0,0.1,0,0.1,0.1,0.2
		c0.1,0.1,0.2,0.2,0.4,0.2L492.1,102L492.1,102L492.1,102z"/>
	<polygon class="st8" points="491.3,117.2 492.1,114.4 492.1,114.4 491.3,117.2 	"/>
	<path class="st8" d="M492.1,141.7l-13.7,2.8c-0.1,0-0.3,0-0.4-0.2c0-0.1-0.1-0.1-0.1-0.2c0,0.1,0,0.1,0.1,0.2
		c0.1,0.1,0.2,0.2,0.4,0.2L492.1,141.7L492.1,141.7L492.1,141.7z"/>
	<path class="st7" d="M451.9,148.8l7.6-10.1l25.8-5.3c0.2,0,0.3-0.2,0.3-0.4c0,0,0,0,0,0s0,0,0,0c0-0.1,0-0.1-0.1-0.2c0,0,0,0,0-0.1
		c-0.1-0.1-0.2-0.1-0.2-0.1l-18.9-0.4l-3.4-0.1l9.1-11.4l16.4-6.9c0.1,0,0.2-0.1,0.2-0.2c0,0,0,0,0-0.1c0-0.1,0-0.1,0-0.2v0
		c0,0,0,0,0,0l0,0v0c0,0,0,0,0,0c0,0,0,0,0-0.1c-0.1-0.1-0.2-0.2-0.4-0.2l-37.8,6.2l0.1-1.5v0v0c0-0.2-0.1-0.3-0.2-0.4
		c-0.1,0-0.2,0-0.2,0c0,0,0,0,0,0c0,0,0,0,0,0c-0.1,0-0.1,0.1-0.2,0.1l-19.1,26.3c0,0.1-0.1,0.1-0.1,0.2c0,0,0,0,0,0
		c0,0.1,0,0.1,0.1,0.2c0-0.1-0.1-0.1-0.1-0.2c0,0.1,0,0.1,0.1,0.2c0.1,0.1,0.2,0.2,0.4,0.2l13.7-2.8v0l0.5-0.1l3.1-0.6l-1.6,5.9
		L446,150h5L451.9,148.8z"/>
	<path class="st7" d="M491.1,119.3c0.1,0,0.1,0,0.2,0c0.1,0,0.2-0.1,0.3-0.1l7.6-10.1l0.9-1.2V79.3l-2.3,0.4l0.1-1.5l0,0l0,0v0v0v0
		c0-0.2-0.1-0.3-0.2-0.4c-0.1,0-0.2,0-0.2,0c0,0,0,0,0,0s0,0,0,0c-0.1,0-0.1,0.1-0.2,0.1L478,104.3c0,0.1-0.1,0.1-0.1,0.2
		c0,0,0,0,0,0c0,0.1,0,0.1,0.1,0.2c0-0.1-0.1-0.1-0.1-0.2c0,0.1,0,0.1,0.1,0.2c0.1,0.1,0.2,0.2,0.4,0.2l13.7-2.8v0l0.5-0.1l3.1-0.6
		l-1.6,5.9l-3.2,11.7c0,0,0,0,0,0v0c0,0,0,0,0,0v0C490.8,119,490.9,119.2,491.1,119.3z M492.1,114.4l-0.8,2.8h0L492.1,114.4
		L492.1,114.4z"/>
	<path class="st7" d="M430.7,25.1C430.7,25.1,430.7,25.1,430.7,25.1c0,0.1,0,0.1,0.1,0.2C430.7,25.3,430.7,25.2,430.7,25.1
		c0,0.1,0,0.1,0.1,0.2c0.1,0.1,0.2,0.2,0.4,0.2l13.7-2.8v0l0.5-0.1l3.1-0.6l-1.6,5.9l-3.2,11.7c0,0,0,0,0,0v0c0,0,0,0,0,0v0
		c0,0.2,0,0.4,0.2,0.4c0.1,0,0.1,0,0.2,0c0.1,0,0.2-0.1,0.3-0.1l7.6-10.1l7.6-10.1l25.8-5.3c0.2,0,0.3-0.2,0.3-0.4c0,0,0,0,0,0
		s0,0,0,0c0-0.1,0-0.1-0.1-0.2c0,0,0,0,0-0.1c-0.1-0.1-0.2-0.1-0.2-0.1l-18.9-0.4l-3.4-0.1l9.1-11.4l4.2-1.8h-23.5l-2.4,0.4l0-0.4
		h-1.6l-18.1,24.9C430.7,25,430.7,25.1,430.7,25.1z M444.9,35.1l-0.8,2.8h0L444.9,35.1L444.9,35.1z"/>
	<path class="st8" d="M444.9,22.7l-13.7,2.8c-0.1,0-0.3,0-0.4-0.2c0-0.1-0.1-0.1-0.1-0.2c0,0.1,0,0.1,0.1,0.2
		c0.1,0.1,0.2,0.2,0.4,0.2L444.9,22.7L444.9,22.7L444.9,22.7z"/>
	<polygon class="st8" points="444.1,37.9 444.9,35.1 444.9,35.1 444.1,37.9 	"/>
	<path class="st7" d="M443.6,0c0,0.1,0.1,0.2,0.2,0.3c0.1,0,0.1,0,0.2,0c0.1,0,0.2-0.1,0.3-0.1l0.1-0.2H443.6z"/>
	<path class="st7" d="M430.8,64.6c0,0.1-0.1,0.1-0.1,0.2c0,0,0,0,0,0c0,0.1,0,0.1,0.1,0.2c0-0.1-0.1-0.1-0.1-0.2
		c0,0.1,0,0.1,0.1,0.2c0.1,0.1,0.2,0.2,0.4,0.2l13.7-2.8v0l0.5-0.1l3.1-0.6l-1.6,5.9l-3.2,11.7c0,0,0,0,0,0v0c0,0,0,0,0,0v0
		c0,0.2,0,0.4,0.2,0.4c0.1,0,0.1,0,0.2,0c0.1,0,0.2-0.1,0.3-0.1l7.6-10.1l7.6-10.1l25.8-5.3c0.2,0,0.3-0.2,0.3-0.4c0,0,0,0,0,0
		s0,0,0,0c0-0.1,0-0.1-0.1-0.2c0,0,0,0,0-0.1c-0.1-0.1-0.2-0.1-0.2-0.1l-18.9-0.4l-3.4-0.1l9.1-11.4l16.4-6.9c0.1,0,0.2-0.1,0.2-0.2
		c0,0,0,0,0-0.1c0-0.1,0-0.1,0-0.2v0c0,0,0,0,0,0l0,0v0c0,0,0,0,0,0c0,0,0,0,0-0.1c-0.1-0.1-0.2-0.2-0.4-0.2l-37.8,6.2l0.1-1.5v0v0
		c0-0.2-0.1-0.3-0.2-0.4c-0.1,0-0.2,0-0.2,0c0,0,0,0,0,0c0,0,0,0,0,0c-0.1,0-0.1,0.1-0.2,0.1L430.8,64.6z M444.9,74.7l-0.8,2.8h0
		L444.9,74.7L444.9,74.7z"/>
	<path class="st8" d="M444.9,62.4l-13.7,2.8c-0.1,0-0.3,0-0.4-0.2c0-0.1-0.1-0.1-0.1-0.2c0,0.1,0,0.1,0.1,0.2
		c0.1,0.1,0.2,0.2,0.4,0.2L444.9,62.4L444.9,62.4L444.9,62.4z"/>
	<polygon class="st8" points="444.1,77.5 444.9,74.7 444.9,74.7 444.1,77.5 	"/>
	<path class="st7" d="M438.1,93.7c0.2,0,0.3-0.2,0.3-0.4c0,0,0,0,0,0s0,0,0,0c0-0.1,0-0.1-0.1-0.2c0,0,0,0,0-0.1
		c-0.1-0.1-0.2-0.1-0.2-0.1l-19.1-0.5l-3.2-0.1l9.1-11.4l16.4-6.9c0.2-0.1,0.3-0.3,0.2-0.4l0,0c0,0,0,0,0,0l0,0v0c0,0,0,0,0,0
		c-0.1-0.2-0.2-0.3-0.4-0.3l-37.8,6.2l0.1-1.5l0,0l0,0v0v0v0c0-0.2-0.1-0.3-0.2-0.4c-0.1,0-0.2,0-0.2,0c0,0,0,0,0,0s0,0,0,0
		c-0.1,0-0.1,0.1-0.2,0.1l-19.1,26.3c0,0.1-0.1,0.1-0.1,0.2c0,0,0,0,0,0c0,0.1,0,0.1,0.1,0.2c0-0.1-0.1-0.1-0.1-0.2
		c0,0.1,0,0.1,0.1,0.2c0.1,0.1,0.2,0.2,0.4,0.2l13.7-2.8v0l0.5-0.1l3.1-0.6l-1.6,5.9L398,113l-1.6,5.9c0,0,0,0,0,0
		c0,0.2,0,0.3,0.2,0.4c0.1,0,0.1,0,0.2,0c0.1,0,0.2-0.1,0.3-0.1l7.6-10.1l7.6-10.1L438.1,93.7z M397.6,114.4l-0.8,2.8h0L397.6,114.4
		L397.6,114.4z"/>
	<path class="st8" d="M444.9,102l-13.7,2.8c-0.1,0-0.3,0-0.4-0.2c0-0.1-0.1-0.1-0.1-0.2c0,0.1,0,0.1,0.1,0.2
		c0.1,0.1,0.2,0.2,0.4,0.2L444.9,102L444.9,102L444.9,102z"/>
	<polygon class="st8" points="444.1,117.2 444.9,114.4 444.9,114.4 444.1,117.2 	"/>
	<path class="st8" d="M444.9,141.7l-13.7,2.8c-0.1,0-0.3,0-0.4-0.2c0-0.1-0.1-0.1-0.1-0.2c0,0.1,0,0.1,0.1,0.2
		c0.1,0.1,0.2,0.2,0.4,0.2L444.9,141.7L444.9,141.7L444.9,141.7z"/>
	<path class="st7" d="M404.7,148.8l7.6-10.1l25.8-5.3c0.2,0,0.3-0.2,0.3-0.4c0,0,0,0,0,0s0,0,0,0c0-0.1,0-0.1-0.1-0.2c0,0,0,0,0-0.1
		c-0.1-0.1-0.2-0.1-0.2-0.1l-19.1-0.5l-3.2-0.1l9.1-11.4l16.4-6.9c0.2-0.1,0.3-0.3,0.2-0.4l0,0c0,0,0,0,0,0l0,0v0c0,0,0,0,0,0
		c-0.1-0.2-0.2-0.3-0.4-0.3l-37.8,6.2l0.1-1.5l0,0l0,0v0v0v0c0-0.2-0.1-0.3-0.2-0.4c-0.1,0-0.2,0-0.2,0c0,0,0,0,0,0s0,0,0,0
		c-0.1,0-0.1,0.1-0.2,0.1l-19.1,26.3c0,0.1-0.1,0.1-0.1,0.2c0,0,0,0,0,0c0,0.1,0,0.1,0.1,0.2c0-0.1-0.1-0.1-0.1-0.2
		c0,0.1,0,0.1,0.1,0.2c0.1,0.1,0.2,0.2,0.4,0.2l13.7-2.8v0l0.5-0.1l3.1-0.6l-1.6,5.9l-0.9,3.2h5L404.7,148.8z"/>
	<path class="st7" d="M383.5,25.1C383.5,25.1,383.5,25.1,383.5,25.1c0,0.1,0,0.1,0.1,0.2C383.5,25.3,383.5,25.2,383.5,25.1
		c0,0.1,0,0.1,0.1,0.2c0.1,0.1,0.2,0.2,0.4,0.2l13.7-2.8v0l0.5-0.1l3.1-0.6l-1.6,5.9l-1.6,5.9l-1.6,5.9c0,0,0,0,0,0
		c0,0.2,0,0.3,0.2,0.4c0.1,0,0.1,0,0.2,0c0.1,0,0.2-0.1,0.3-0.1l7.6-10.1l7.6-10.1l25.8-5.3c0.2,0,0.3-0.2,0.3-0.4c0,0,0,0,0,0
		s0,0,0,0c0-0.1,0-0.1-0.1-0.2c0,0,0,0,0-0.1c-0.1-0.1-0.2-0.1-0.2-0.1l-19.1-0.5l-3.2-0.1l9.1-11.4l4.2-1.8h-23.5l-2.4,0.4l0-0.4
		h-1.6l-18.1,24.9C383.5,25,383.5,25.1,383.5,25.1z M397.6,35.1l-0.8,2.8h0L397.6,35.1L397.6,35.1z"/>
	<polygon class="st8" points="396.9,37.9 397.6,35.1 397.6,35.1 396.9,37.9 	"/>
	<path class="st8" d="M397.6,22.7l-13.7,2.8c-0.1,0-0.3,0-0.4-0.2c0-0.1-0.1-0.1-0.1-0.2c0,0.1,0,0.1,0.1,0.2
		c0.1,0.1,0.2,0.2,0.4,0.2L397.6,22.7L397.6,22.7L397.6,22.7z"/>
	<path class="st7" d="M396.4,0c0,0.1,0.1,0.2,0.2,0.3c0.1,0,0.1,0,0.2,0c0.1,0,0.2-0.1,0.3-0.1l0.1-0.2H396.4z"/>
	<path class="st7" d="M383.5,64.6c0,0.1-0.1,0.1-0.1,0.2c0,0,0,0,0,0c0,0.1,0,0.1,0.1,0.2c0-0.1-0.1-0.1-0.1-0.2
		c0,0.1,0,0.1,0.1,0.2c0.1,0.1,0.2,0.2,0.4,0.2l13.7-2.8v0l0.5-0.1l3.1-0.6l-1.6,5.9l-1.6,5.9l-1.6,5.9c0,0,0,0,0,0
		c0,0.2,0,0.3,0.2,0.4c0.1,0,0.1,0,0.2,0c0.1,0,0.2-0.1,0.3-0.1l7.6-10.1l7.6-10.1l25.8-5.3c0.2,0,0.3-0.2,0.3-0.4c0,0,0,0,0,0
		s0,0,0,0c0-0.1,0-0.1-0.1-0.2c0,0,0,0,0-0.1c-0.1-0.1-0.2-0.1-0.2-0.1l-19.1-0.5l-3.2-0.1l9.1-11.4l16.4-6.9
		c0.2-0.1,0.3-0.3,0.2-0.4l0,0c0,0,0,0,0,0l0,0v0c0,0,0,0,0,0c-0.1-0.2-0.2-0.3-0.4-0.3l-37.8,6.2l0.1-1.5l0,0l0,0v0v0v0
		c0-0.2-0.1-0.3-0.2-0.4c-0.1,0-0.2,0-0.2,0c0,0,0,0,0,0s0,0,0,0c-0.1,0-0.1,0.1-0.2,0.1L383.5,64.6z M397.6,74.7l-0.8,2.8h0
		L397.6,74.7L397.6,74.7z"/>
	<polygon class="st8" points="396.9,77.5 397.6,74.7 397.6,74.7 396.9,77.5 	"/>
	<path class="st8" d="M397.6,62.4l-13.7,2.8c-0.1,0-0.3,0-0.4-0.2c0-0.1-0.1-0.1-0.1-0.2c0,0.1,0,0.1,0.1,0.2
		c0.1,0.1,0.2,0.2,0.4,0.2L397.6,62.4L397.6,62.4L397.6,62.4z"/>
	<path class="st7" d="M390.9,93.7c0.2,0,0.3-0.2,0.3-0.4c0,0,0,0,0,0s0,0,0,0c0-0.1,0-0.1-0.1-0.2c0,0,0,0,0-0.1
		c-0.1-0.1-0.2-0.1-0.2-0.1l-18.9-0.4l-3.4-0.1l9.1-11.4l16.4-6.9c0.1,0,0.2-0.1,0.2-0.2c0,0,0,0,0-0.1c0-0.1,0-0.1,0-0.2v0
		c0,0,0,0,0,0l0,0v0c0,0,0,0,0,0c0,0,0,0,0-0.1c-0.1-0.1-0.2-0.2-0.4-0.2L356,79.7l0.1-1.5v0v0c0-0.2-0.1-0.3-0.2-0.4
		c-0.1,0-0.2,0-0.2,0c0,0,0,0,0,0c0,0,0,0,0,0c-0.1,0-0.1,0.1-0.2,0.1l-6.4,8.8l-12.7,17.5c0,0.1-0.1,0.1-0.1,0.2c0,0,0,0,0,0
		c0,0,0,0.1,0,0.1c0,0,0-0.1,0-0.1c0,0.1,0,0.1,0.1,0.2c0.1,0.1,0.2,0.2,0.4,0.2l13.7-2.8v0l0.5-0.1l3.1-0.6l-1.6,5.9l-3.2,11.7
		c0,0,0,0,0,0v0c0,0,0,0,0,0v0c0,0.2,0,0.4,0.2,0.4c0.1,0,0.1,0,0.2,0c0.1,0,0.2-0.1,0.3-0.1l7.6-10.1L365,99L390.9,93.7z
		 M350.4,114.4l-0.8,2.8h0L350.4,114.4L350.4,114.4z"/>
	<polygon class="st8" points="396.9,117.2 397.6,114.4 397.6,114.4 396.9,117.2 	"/>
	<path class="st8" d="M397.6,102l-13.7,2.8c-0.1,0-0.3,0-0.4-0.2c0-0.1-0.1-0.1-0.1-0.2c0,0.1,0,0.1,0.1,0.2
		c0.1,0.1,0.2,0.2,0.4,0.2L397.6,102L397.6,102L397.6,102z"/>
	<path class="st7" d="M365,138.7l25.8-5.3c0.2,0,0.3-0.2,0.3-0.4c0,0,0,0,0,0s0,0,0,0c0-0.1,0-0.1-0.1-0.2c0,0,0,0,0-0.1
		c-0.1-0.1-0.2-0.1-0.2-0.1l-18.9-0.4l-3.4-0.1l9.1-11.4l16.4-6.9c0.1,0,0.2-0.1,0.2-0.2c0,0,0,0,0-0.1c0-0.1,0-0.1,0-0.2v0
		c0,0,0,0,0,0l0,0v0c0,0,0,0,0,0c0,0,0,0,0-0.1c-0.1-0.1-0.2-0.2-0.4-0.2l-37.8,6.2l0.1-1.5v0v0c0-0.2-0.1-0.3-0.2-0.4
		c-0.1,0-0.2,0-0.2,0c0,0,0,0,0,0c0,0,0,0,0,0c-0.1,0-0.1,0.1-0.2,0.1l-6.4,8.8l-12.7,17.5c0,0.1-0.1,0.1-0.1,0.2c0,0,0,0,0,0
		c0,0,0,0.1,0,0.1c0,0,0-0.1,0-0.1c0,0.1,0,0.1,0.1,0.2c0.1,0.1,0.2,0.2,0.4,0.2l13.7-2.8v0l0.5-0.1l3.1-0.6l-1.6,5.9l-0.9,3.2h5
		l0.9-1.2L365,138.7z"/>
	<path class="st8" d="M397.6,141.7l-13.7,2.8c-0.1,0-0.3,0-0.4-0.2c0-0.1-0.1-0.1-0.1-0.2c0,0.1,0,0.1,0.1,0.2
		c0.1,0.1,0.2,0.2,0.4,0.2L397.6,141.7L397.6,141.7L397.6,141.7z"/>
	<path class="st7" d="M336.3,24.9c0,0.1-0.1,0.1-0.1,0.2c0,0,0,0,0,0c0,0,0,0.1,0,0.1c0,0,0-0.1,0-0.1c0,0.1,0,0.1,0.1,0.2
		c0.1,0.1,0.2,0.2,0.4,0.2l13.7-2.8v0l0.5-0.1L354,22l-1.6,5.9l-3.2,11.7c0,0,0,0,0,0v0c0,0,0,0,0,0v0c0,0.2,0,0.4,0.2,0.4
		c0.1,0,0.1,0,0.2,0c0.1,0,0.2-0.1,0.3-0.1l7.6-10.1l7.6-10.1l25.8-5.3c0.2,0,0.3-0.2,0.3-0.4c0,0,0,0,0,0s0,0,0,0
		c0-0.1,0-0.1-0.1-0.2c0,0,0,0,0-0.1c-0.1-0.1-0.2-0.1-0.2-0.1l-18.9-0.4l-3.4-0.1l9.1-11.4l4.2-1.8h-23.5L356,0.4l0-0.4h-1.6
		L349,7.4L336.3,24.9z M350.4,35.1l-0.8,2.8h0L350.4,35.1L350.4,35.1z"/>
	<path class="st8" d="M350.4,22.7l-13.7,2.8c-0.1,0-0.3,0-0.4-0.2c0-0.1-0.1-0.1-0.1-0.2c0,0,0,0.1,0,0.1c0,0,0,0.1,0,0.1
		c0.1,0.1,0.2,0.2,0.4,0.2L350.4,22.7L350.4,22.7L350.4,22.7z"/>
	<polygon class="st8" points="349.6,37.9 350.4,35.1 350.4,35.1 349.6,37.9 	"/>
	<path class="st7" d="M349.2,0c0,0.1,0.1,0.2,0.2,0.3c0.1,0,0.1,0,0.2,0c0.1,0,0.2-0.1,0.3-0.1L350,0H349.2z"/>
	<path class="st7" d="M349,47l-12.7,17.5c0,0.1-0.1,0.1-0.1,0.2c0,0,0,0,0,0c0,0,0,0.1,0,0.1c0,0,0-0.1,0-0.1c0,0.1,0,0.1,0.1,0.2
		c0.1,0.1,0.2,0.2,0.4,0.2l13.7-2.8v0l0.5-0.1l3.1-0.6l-1.6,5.9l-3.2,11.7c0,0,0,0,0,0v0c0,0,0,0,0,0v0c0,0.2,0,0.4,0.2,0.4
		c0.1,0,0.1,0,0.2,0c0.1,0,0.2-0.1,0.3-0.1l7.6-10.1l7.6-10.1l25.8-5.3c0.2,0,0.3-0.2,0.3-0.4c0,0,0,0,0,0s0,0,0,0
		c0-0.1,0-0.1-0.1-0.2c0,0,0,0,0-0.1c-0.1-0.1-0.2-0.1-0.2-0.1l-18.9-0.4l-3.4-0.1l9.1-11.4l16.4-6.9c0.1,0,0.2-0.1,0.2-0.2
		c0,0,0,0,0-0.1c0-0.1,0-0.1,0-0.2v0c0,0,0,0,0,0l0,0v0c0,0,0,0,0,0c0,0,0,0,0-0.1c-0.1-0.1-0.2-0.2-0.4-0.2L356,40.1l0.1-1.5v0v0
		c0-0.2-0.1-0.3-0.2-0.4c-0.1,0-0.2,0-0.2,0c0,0,0,0,0,0c0,0,0,0,0,0c-0.1,0-0.1,0.1-0.2,0.1L349,47z M350.4,74.7l-0.8,2.8h0
		L350.4,74.7L350.4,74.7z"/>
	<path class="st8" d="M350.4,62.4l-13.7,2.8c-0.1,0-0.3,0-0.4-0.2c0-0.1-0.1-0.1-0.1-0.2c0,0,0,0.1,0,0.1c0,0,0,0.1,0,0.1
		c0.1,0.1,0.2,0.2,0.4,0.2L350.4,62.4L350.4,62.4L350.4,62.4z"/>
	<polygon class="st8" points="349.6,77.5 350.4,74.7 350.4,74.7 349.6,77.5 	"/>
	<path class="st7" d="M343.7,93.7c0.2,0,0.3-0.2,0.3-0.4c0,0,0,0,0,0s0,0,0,0c0-0.1,0-0.1-0.1-0.2c0,0,0,0,0-0.1
		c-0.1-0.1-0.2-0.1-0.2-0.1l-19.1-0.5l-3.2-0.1l9.1-11.4l16.4-6.9c0.1,0,0.2-0.1,0.2-0.2c0,0,0-0.1,0-0.1c0,0,0-0.1,0-0.1l0,0
		c0,0,0,0,0,0l0,0v0c0,0,0,0,0,0c-0.1-0.2-0.2-0.3-0.4-0.3l-37.8,6.2l0.1-1.5l0,0l0,0v0v0v0c0-0.2-0.1-0.3-0.2-0.4
		c-0.1,0-0.2,0-0.2,0c0,0,0,0,0,0c0,0,0,0,0,0c-0.1,0-0.1,0.1-0.2,0.1l-19.1,26.3c0,0.1-0.1,0.1-0.1,0.2c0,0,0,0,0,0
		c0,0.1,0,0.1,0.1,0.2c0-0.1-0.1-0.1-0.1-0.2c0,0.1,0,0.1,0.1,0.2c0.1,0.1,0.2,0.2,0.4,0.2l13.7-2.8v0l0.5-0.1l3.1-0.6l-1.6,5.9
		l-1.6,5.9l-1.6,5.9c0,0,0,0,0,0c0,0.2,0,0.3,0.2,0.4c0.1,0,0.1,0,0.2,0c0.1,0,0.2-0.1,0.3-0.1l7.6-10.1l7.6-10.1L343.7,93.7z
		 M303.2,114.4l-0.8,2.8h0L303.2,114.4L303.2,114.4z"/>
	<path class="st8" d="M350.4,102l-13.7,2.8c-0.1,0-0.3,0-0.4-0.2c0-0.1-0.1-0.1-0.1-0.2c0,0,0,0.1,0,0.1c0,0,0,0.1,0,0.1
		c0.1,0.1,0.2,0.2,0.4,0.2L350.4,102L350.4,102L350.4,102z"/>
	<polygon class="st8" points="349.6,117.2 350.4,114.4 350.4,114.4 349.6,117.2 	"/>
	<path class="st8" d="M350.4,141.7l-13.7,2.8c-0.1,0-0.3,0-0.4-0.2c0-0.1-0.1-0.1-0.1-0.2c0,0,0,0.1,0,0.1c0,0,0,0.1,0,0.1
		c0.1,0.1,0.2,0.2,0.4,0.2L350.4,141.7L350.4,141.7L350.4,141.7z"/>
	<path class="st7" d="M310.2,148.8l7.6-10.1l25.8-5.3c0.2,0,0.3-0.2,0.3-0.4c0,0,0,0,0,0s0,0,0,0c0-0.1,0-0.1-0.1-0.2c0,0,0,0,0-0.1
		c-0.1-0.1-0.2-0.1-0.2-0.1l-19.1-0.5l-3.2-0.1l9.1-11.4l16.4-6.9c0.1,0,0.2-0.1,0.2-0.2c0,0,0-0.1,0-0.1c0,0,0-0.1,0-0.1l0,0
		c0,0,0,0,0,0l0,0v0c0,0,0,0,0,0c-0.1-0.2-0.2-0.3-0.4-0.3l-37.8,6.2l0.1-1.5l0,0l0,0v0v0v0c0-0.2-0.1-0.3-0.2-0.4
		c-0.1,0-0.2,0-0.2,0c0,0,0,0,0,0c0,0,0,0,0,0c-0.1,0-0.1,0.1-0.2,0.1l-19.1,26.3c0,0.1-0.1,0.1-0.1,0.2c0,0,0,0,0,0
		c0,0.1,0,0.1,0.1,0.2c0-0.1-0.1-0.1-0.1-0.2c0,0.1,0,0.1,0.1,0.2c0.1,0.1,0.2,0.2,0.4,0.2l13.7-2.8v0l0.5-0.1l3.1-0.6l-1.6,5.9
		l-0.9,3.2h5L310.2,148.8z"/>
	<path class="st7" d="M289,25.1C289,25.1,289,25.1,289,25.1c0,0.1,0,0.1,0.1,0.2C289,25.3,289,25.2,289,25.1c0,0.1,0,0.1,0.1,0.2
		c0.1,0.1,0.2,0.2,0.4,0.2l13.7-2.8v0l0.5-0.1l3.1-0.6l-1.6,5.9l-1.6,5.9l-1.6,5.9c0,0,0,0,0,0c0,0.2,0,0.3,0.2,0.4
		c0.1,0,0.1,0,0.2,0c0.1,0,0.2-0.1,0.3-0.1l7.6-10.1l7.6-10.1l25.8-5.3c0.2,0,0.3-0.2,0.3-0.4c0,0,0,0,0,0s0,0,0,0
		c0-0.1,0-0.1-0.1-0.2c0,0,0,0,0-0.1c-0.1-0.1-0.2-0.1-0.2-0.1l-19.1-0.5l-3.2-0.1l9.1-11.4l4.2-1.8h-23.5l-2.4,0.4l0-0.4h-1.6
		l-18.1,24.9C289,25,289,25.1,289,25.1z M303.2,35.1l-0.8,2.8h0L303.2,35.1L303.2,35.1z"/>
	<polygon class="st8" points="302.4,37.9 303.2,35.1 303.2,35.1 302.4,37.9 	"/>
	<path class="st8" d="M303.2,22.7l-13.7,2.8c-0.1,0-0.3,0-0.4-0.2c0-0.1-0.1-0.1-0.1-0.2c0,0.1,0,0.1,0.1,0.2
		c0.1,0.1,0.2,0.2,0.4,0.2L303.2,22.7L303.2,22.7L303.2,22.7z"/>
	<path class="st7" d="M301.9,0c0,0.1,0.1,0.2,0.2,0.3c0.1,0,0.1,0,0.2,0c0.1,0,0.2-0.1,0.3-0.1l0.1-0.2H301.9z"/>
	<path class="st7" d="M289.1,64.6c0,0.1-0.1,0.1-0.1,0.2c0,0,0,0,0,0c0,0.1,0,0.1,0.1,0.2c0-0.1-0.1-0.1-0.1-0.2
		c0,0.1,0,0.1,0.1,0.2c0.1,0.1,0.2,0.2,0.4,0.2l13.7-2.8v0l0.5-0.1l3.1-0.6l-1.6,5.9l-1.6,5.9l-1.6,5.9c0,0,0,0,0,0
		c0,0.2,0,0.3,0.2,0.4c0.1,0,0.1,0,0.2,0c0.1,0,0.2-0.1,0.3-0.1l7.6-10.1l7.6-10.1l25.8-5.3c0.2,0,0.3-0.2,0.3-0.4c0,0,0,0,0,0
		s0,0,0,0c0-0.1,0-0.1-0.1-0.2c0,0,0,0,0-0.1c-0.1-0.1-0.2-0.1-0.2-0.1l-19.1-0.5l-3.2-0.1l9.1-11.4l16.4-6.9c0.1,0,0.2-0.1,0.2-0.2
		c0,0,0-0.1,0-0.1c0,0,0-0.1,0-0.1l0,0c0,0,0,0,0,0l0,0v0c0,0,0,0,0,0c-0.1-0.2-0.2-0.3-0.4-0.3l-37.8,6.2l0.1-1.5l0,0l0,0v0v0v0
		c0-0.2-0.1-0.3-0.2-0.4c-0.1,0-0.2,0-0.2,0c0,0,0,0,0,0c0,0,0,0,0,0c-0.1,0-0.1,0.1-0.2,0.1L289.1,64.6z M303.2,74.7l-0.8,2.8h0
		L303.2,74.7L303.2,74.7z"/>
	<polygon class="st8" points="302.4,77.5 303.2,74.7 303.2,74.7 302.4,77.5 	"/>
	<path class="st8" d="M303.2,62.4l-13.7,2.8c-0.1,0-0.3,0-0.4-0.2c0-0.1-0.1-0.1-0.1-0.2c0,0.1,0,0.1,0.1,0.2
		c0.1,0.1,0.2,0.2,0.4,0.2L303.2,62.4L303.2,62.4L303.2,62.4z"/>
	<path class="st7" d="M296.4,93.7c0.2,0,0.3-0.2,0.3-0.4c0,0,0,0,0,0s0,0,0,0c0-0.1,0-0.1-0.1-0.2c0,0,0,0,0-0.1
		c-0.1-0.1-0.2-0.1-0.2-0.1l-18.9-0.4l-3.4-0.1l9.1-11.4l16.4-6.9c0.1,0,0.2-0.1,0.2-0.2c0,0,0-0.1,0-0.1c0,0,0-0.1,0-0.1l0,0
		c0,0,0,0,0,0l0,0v0c0,0,0,0,0,0c-0.1-0.2-0.2-0.3-0.4-0.3l-37.8,6.2l0.1-1.5v0v0c0-0.2-0.1-0.3-0.2-0.4c-0.1,0-0.2,0-0.2,0
		c0,0,0,0,0,0c0,0,0,0,0,0c-0.1,0-0.1,0.1-0.2,0.1l-6.4,8.8l-12.7,17.5c0,0.1-0.1,0.1-0.1,0.2c0,0,0,0,0,0c0,0,0,0.1,0,0.1
		c0,0,0-0.1,0-0.1c0,0.1,0,0.1,0.1,0.2c0.1,0.1,0.2,0.2,0.4,0.2l13.7-2.8v0l0.5-0.1l3.1-0.6l-1.6,5.9l-3.2,11.7c0,0,0,0,0,0v0
		c0,0,0,0,0,0v0c0,0.2,0,0.4,0.2,0.4c0.1,0,0.1,0,0.2,0c0.1,0,0.2-0.1,0.3-0.1l7.6-10.1l7.6-10.1L296.4,93.7z M255.9,114.4l-0.8,2.8
		h0L255.9,114.4L255.9,114.4z"/>
	<polygon class="st8" points="302.4,117.2 303.2,114.4 303.2,114.4 302.4,117.2 	"/>
	<path class="st8" d="M303.2,102l-13.7,2.8c-0.1,0-0.3,0-0.4-0.2c0-0.1-0.1-0.1-0.1-0.2c0,0.1,0,0.1,0.1,0.2
		c0.1,0.1,0.2,0.2,0.4,0.2L303.2,102L303.2,102L303.2,102z"/>
	<path class="st7" d="M270.6,138.7l25.8-5.3c0.2,0,0.3-0.2,0.3-0.4c0,0,0,0,0,0s0,0,0,0c0-0.1,0-0.1-0.1-0.2c0,0,0,0,0-0.1
		c-0.1-0.1-0.2-0.1-0.2-0.1l-18.9-0.4l-3.4-0.1l9.1-11.4l16.4-6.9c0.1,0,0.2-0.1,0.2-0.2c0,0,0-0.1,0-0.1c0,0,0-0.1,0-0.1l0,0
		c0,0,0,0,0,0l0,0v0c0,0,0,0,0,0c-0.1-0.2-0.2-0.3-0.4-0.3l-37.8,6.2l0.1-1.5v0v0c0-0.2-0.1-0.3-0.2-0.4c-0.1,0-0.2,0-0.2,0
		c0,0,0,0,0,0c0,0,0,0,0,0c-0.1,0-0.1,0.1-0.2,0.1l-6.4,8.8l-12.7,17.5c0,0.1-0.1,0.1-0.1,0.2c0,0,0,0,0,0c0,0,0,0.1,0,0.1
		c0,0,0-0.1,0-0.1c0,0.1,0,0.1,0.1,0.2c0.1,0.1,0.2,0.2,0.4,0.2l13.7-2.8v0l0.5-0.1l3.1-0.6l-1.6,5.9L257,150h5l0.9-1.2L270.6,138.7
		z"/>
	<path class="st8" d="M303.2,141.7l-13.7,2.8c-0.1,0-0.3,0-0.4-0.2c0-0.1-0.1-0.1-0.1-0.2c0,0.1,0,0.1,0.1,0.2
		c0.1,0.1,0.2,0.2,0.4,0.2L303.2,141.7L303.2,141.7L303.2,141.7z"/>
	<path class="st7" d="M241.8,24.9c0,0.1-0.1,0.1-0.1,0.2c0,0,0,0,0,0c0,0,0,0.1,0,0.1c0,0,0-0.1,0-0.1c0,0.1,0,0.1,0.1,0.2
		c0.1,0.1,0.2,0.2,0.4,0.2l13.7-2.8v0l0.5-0.1l3.1-0.6l-1.6,5.9l-3.2,11.7c0,0,0,0,0,0v0c0,0,0,0,0,0v0c0,0.2,0,0.4,0.2,0.4
		c0.1,0,0.1,0,0.2,0c0.1,0,0.2-0.1,0.3-0.1l7.6-10.1l7.6-10.1l25.8-5.3c0.2,0,0.3-0.2,0.3-0.4c0,0,0,0,0,0s0,0,0,0
		c0-0.1,0-0.1-0.1-0.2c0,0,0,0,0-0.1c-0.1-0.1-0.2-0.1-0.2-0.1l-18.9-0.4l-3.4-0.1l9.1-11.4l4.2-1.8h-23.5l-2.4,0.4l0-0.4h-1.6
		l-5.4,7.4L241.8,24.9z M255.9,35.1l-0.8,2.8h0L255.9,35.1L255.9,35.1z"/>
	<path class="st8" d="M255.9,22.7l-13.7,2.8c-0.1,0-0.3,0-0.4-0.2c0-0.1-0.1-0.1-0.1-0.2c0,0,0,0.1,0,0.1c0,0,0,0,0,0.1
		c0.1,0.1,0.2,0.2,0.4,0.2L255.9,22.7L255.9,22.7L255.9,22.7z"/>
	<polygon class="st8" points="255.2,37.9 255.9,35.1 255.9,35.1 255.2,37.9 	"/>
	<path class="st7" d="M254.7,0c0,0.1,0.1,0.2,0.2,0.3c0.1,0,0.1,0,0.2,0c0.1,0,0.2-0.1,0.3-0.1l0.1-0.2H254.7z"/>
	<path class="st7" d="M254.6,47l-12.7,17.5c0,0.1-0.1,0.1-0.1,0.2c0,0,0,0,0,0c0,0,0,0.1,0,0.1c0,0,0-0.1,0-0.1c0,0.1,0,0.1,0.1,0.2
		c0.1,0.1,0.2,0.2,0.4,0.2l13.7-2.8v0l0.5-0.1l3.1-0.6l-1.6,5.9l-3.2,11.7c0,0,0,0,0,0v0c0,0,0,0,0,0v0c0,0.2,0,0.4,0.2,0.4
		c0.1,0,0.1,0,0.2,0c0.1,0,0.2-0.1,0.3-0.1l7.6-10.1l7.6-10.1l25.8-5.3c0.2,0,0.3-0.2,0.3-0.4c0,0,0,0,0,0s0,0,0,0
		c0-0.1,0-0.1-0.1-0.2c0,0,0,0,0-0.1c-0.1-0.1-0.2-0.1-0.2-0.1l-18.9-0.4l-3.4-0.1l9.1-11.4l16.4-6.9c0.1,0,0.2-0.1,0.2-0.2
		c0,0,0-0.1,0-0.1c0,0,0-0.1,0-0.1l0,0c0,0,0,0,0,0l0,0v0c0,0,0,0,0,0c-0.1-0.2-0.2-0.3-0.4-0.3l-37.8,6.2l0.1-1.5v0v0
		c0-0.2-0.1-0.3-0.2-0.4c-0.1,0-0.2,0-0.2,0c0,0,0,0,0,0c0,0,0,0,0,0c-0.1,0-0.1,0.1-0.2,0.1L254.6,47z M255.9,74.7l-0.8,2.8h0
		L255.9,74.7L255.9,74.7z"/>
	<path class="st8" d="M255.9,62.4l-13.7,2.8c-0.1,0-0.3,0-0.4-0.2c0-0.1-0.1-0.1-0.1-0.2c0,0,0,0.1,0,0.1c0,0,0,0,0,0.1
		c0.1,0.1,0.2,0.2,0.4,0.2L255.9,62.4L255.9,62.4L255.9,62.4z"/>
	<polygon class="st8" points="255.2,77.5 255.9,74.7 255.9,74.7 255.2,77.5 	"/>
	<path class="st7" d="M249.2,93.7c0.2,0,0.3-0.2,0.3-0.4c0,0,0,0,0,0s0,0,0,0c0-0.1,0-0.1-0.1-0.2c0,0,0,0,0-0.1
		c-0.1-0.1-0.2-0.1-0.2-0.1L230,92.5l-3.2-0.1l9.1-11.4l16.4-6.9c0.1,0,0.2-0.1,0.2-0.2c0,0,0-0.1,0-0.1c0,0,0-0.1,0-0.1l0,0
		c0,0,0,0,0,0l0,0v0c0,0,0,0,0,0c0-0.2-0.2-0.3-0.4-0.3c0,0,0,0,0,0l0,0h0l-37.8,6.2l0.1-1.5l0,0l0,0v0v0v0c0-0.2-0.1-0.3-0.2-0.4
		c-0.1,0-0.2,0-0.2,0c0,0,0,0,0,0c0,0,0,0,0,0c-0.1,0-0.1,0.1-0.2,0.1l-19.1,26.3c0,0.1-0.1,0.1-0.1,0.2c0,0,0,0,0,0
		c0,0.1,0,0.1,0.1,0.2c0-0.1-0.1-0.1-0.1-0.2c0,0.1,0,0.1,0.1,0.2c0.1,0.1,0.2,0.2,0.4,0.2l13.7-2.8v0l0.5-0.1l3.1-0.6l-1.6,5.9
		l-1.6,5.9l-1.6,5.9c0,0,0,0,0,0c0,0.2,0,0.3,0.2,0.4c0.1,0,0.1,0,0.2,0c0.1,0,0.2-0.1,0.3-0.1l7.6-10.1l7.6-10.1L249.2,93.7z
		 M208.7,114.4l-0.8,2.8h0L208.7,114.4L208.7,114.4z"/>
	<path class="st8" d="M255.9,102l-13.7,2.8c-0.1,0-0.3,0-0.4-0.2c0-0.1-0.1-0.1-0.1-0.2c0,0,0,0.1,0,0.1c0,0,0,0,0,0.1
		c0.1,0.1,0.2,0.2,0.4,0.2L255.9,102L255.9,102L255.9,102z"/>
	<polygon class="st8" points="255.2,117.2 255.9,114.4 255.9,114.4 255.2,117.2 	"/>
	<path class="st8" d="M255.9,141.7l-13.7,2.8c-0.1,0-0.3,0-0.4-0.2c0-0.1-0.1-0.1-0.1-0.2c0,0,0,0.1,0,0.1c0,0,0,0,0,0.1
		c0.1,0.1,0.2,0.2,0.4,0.2L255.9,141.7L255.9,141.7L255.9,141.7z"/>
	<path class="st7" d="M215.7,148.8l7.6-10.1l25.8-5.3c0.2,0,0.3-0.2,0.3-0.4c0,0,0,0,0,0s0,0,0,0c0-0.1,0-0.1-0.1-0.2c0,0,0,0,0-0.1
		c-0.1-0.1-0.2-0.1-0.2-0.1l-19.1-0.5l-3.2-0.1l9.1-11.4l16.4-6.9c0.1,0,0.2-0.1,0.2-0.2c0,0,0-0.1,0-0.1c0,0,0-0.1,0-0.1l0,0
		c0,0,0,0,0,0l0,0v0c0,0,0,0,0,0c0-0.2-0.2-0.3-0.4-0.3c0,0,0,0,0,0l0,0h0l-37.8,6.2l0.1-1.5l0,0l0,0v0v0v0c0-0.2-0.1-0.3-0.2-0.4
		c-0.1,0-0.2,0-0.2,0c0,0,0,0,0,0c0,0,0,0,0,0c-0.1,0-0.1,0.1-0.2,0.1l-19.1,26.3c0,0.1-0.1,0.1-0.1,0.2c0,0,0,0,0,0
		c0,0.1,0,0.1,0.1,0.2c0-0.1-0.1-0.1-0.1-0.2c0,0.1,0,0.1,0.1,0.2c0.1,0.1,0.2,0.2,0.4,0.2l13.7-2.8v0l0.5-0.1l3.1-0.6l-1.6,5.9
		l-0.9,3.2h5L215.7,148.8z"/>
	<path class="st7" d="M194.5,25.1C194.5,25.1,194.5,25.1,194.5,25.1c0,0.1,0,0.1,0.1,0.2C194.6,25.3,194.5,25.2,194.5,25.1
		c0,0.1,0,0.1,0.1,0.2c0.1,0.1,0.2,0.2,0.4,0.2l13.7-2.8v0l0.5-0.1l3.1-0.6l-1.6,5.9l-1.6,5.9l-1.6,5.9c0,0,0,0,0,0
		c0,0.2,0,0.3,0.2,0.4c0.1,0,0.1,0,0.2,0c0.1,0,0.2-0.1,0.3-0.1l7.6-10.1l7.6-10.1l25.8-5.3c0.2,0,0.3-0.2,0.3-0.4c0,0,0,0,0,0
		s0,0,0,0c0-0.1,0-0.1-0.1-0.2c0,0,0,0,0-0.1c-0.1-0.1-0.2-0.1-0.2-0.1L230,13.2l-3.2-0.1l9.1-11.4l4.2-1.8h-23.5l-2.4,0.4l0-0.4
		h-1.6l-18.1,24.9C194.6,25,194.5,25.1,194.5,25.1z M208.7,35.1l-0.8,2.8h0L208.7,35.1L208.7,35.1z"/>
	<polygon class="st7" points="195,25.5 200.8,24.3 195,25.5 	"/>
	<polygon class="st8" points="207.9,37.9 208.7,35.1 208.7,35.1 207.9,37.9 	"/>
	<path class="st8" d="M208.7,22.7L195,25.5c-0.1,0-0.3,0-0.4-0.2c0-0.1-0.1-0.1-0.1-0.2c0,0.1,0,0.1,0.1,0.2
		c0.1,0.1,0.2,0.2,0.4,0.2l0,0l5.8-1.2L208.7,22.7L208.7,22.7L208.7,22.7z"/>
	<path class="st7" d="M207.5,0c0,0.1,0.1,0.2,0.2,0.3c0.1,0,0.1,0,0.2,0c0.1,0,0.2-0.1,0.3-0.1l0.1-0.2H207.5z"/>
	<path class="st7" d="M194.6,64.6c0,0.1-0.1,0.1-0.1,0.2c0,0,0,0,0,0c0,0.1,0,0.1,0.1,0.2c0-0.1-0.1-0.1-0.1-0.2
		c0,0.1,0,0.1,0.1,0.2c0.1,0.1,0.2,0.2,0.4,0.2l13.7-2.8v0l0.5-0.1l3.1-0.6l-1.6,5.9l-1.6,5.9l-1.6,5.9c0,0,0,0,0,0
		c0,0.2,0,0.3,0.2,0.4c0.1,0,0.1,0,0.2,0c0.1,0,0.2-0.1,0.3-0.1l7.6-10.1l7.6-10.1l25.8-5.3c0.2,0,0.3-0.2,0.3-0.4c0,0,0,0,0,0
		s0,0,0,0c0-0.1,0-0.1-0.1-0.2c0,0,0,0,0-0.1c-0.1-0.1-0.2-0.1-0.2-0.1L230,52.9l-3.2-0.1l9.1-11.4l16.4-6.9c0.1,0,0.2-0.1,0.2-0.2
		c0,0,0-0.1,0-0.1c0,0,0-0.1,0-0.1l0,0c0,0,0,0,0,0l0,0v0c0,0,0,0,0,0c0-0.2-0.2-0.3-0.4-0.3c0,0,0,0,0,0l0,0h0l-37.8,6.2l0.1-1.5
		l0,0l0,0v0v0v0c0-0.2-0.1-0.3-0.2-0.4c-0.1,0-0.2,0-0.2,0c0,0,0,0,0,0c0,0,0,0,0,0c-0.1,0-0.1,0.1-0.2,0.1L194.6,64.6z M208.7,74.7
		l-0.8,2.8h0L208.7,74.7L208.7,74.7z"/>
	<polygon class="st7" points="195,65.2 200.8,64 195,65.2 	"/>
	<polygon class="st8" points="207.9,77.5 208.7,74.7 208.7,74.7 207.9,77.5 	"/>
	<path class="st8" d="M208.7,62.4L195,65.2c-0.1,0-0.3,0-0.4-0.2c0-0.1-0.1-0.1-0.1-0.2c0,0.1,0,0.1,0.1,0.2
		c0.1,0.1,0.2,0.2,0.4,0.2l0,0l5.8-1.2L208.7,62.4L208.7,62.4L208.7,62.4z"/>
	<polygon class="st7" points="195,104.8 200.8,103.7 195,104.8 	"/>
	<path class="st7" d="M202,93.7c0.2,0,0.3-0.2,0.3-0.4c0,0,0,0,0,0s0,0,0,0c0-0.1,0-0.1-0.1-0.2c0,0,0,0,0-0.1
		c-0.1-0.1-0.2-0.1-0.2-0.1L183,92.5l-3.4-0.1l9.1-11.4l16.4-6.9c0.1,0,0.2-0.1,0.2-0.2c0,0,0-0.1,0-0.1c0,0,0-0.1,0-0.1l0,0
		c0,0,0,0,0,0l0,0v0c0,0,0,0,0,0c-0.1-0.2-0.2-0.3-0.4-0.3l-37.8,6.2l0.1-1.5l0,0l0,0v0v0v0c0-0.2-0.1-0.3-0.2-0.4
		c-0.1,0-0.2,0-0.2,0c0,0,0,0,0,0c0,0,0,0,0,0c-0.1,0-0.1,0.1-0.2,0.1l-19.1,26.3c0,0.1-0.1,0.1-0.1,0.2c0,0,0,0,0,0
		c0,0.1,0,0.1,0.1,0.2c0-0.1-0.1-0.1-0.1-0.2c0,0.1,0,0.1,0.1,0.2c0.1,0.1,0.2,0.2,0.4,0.2l13.7-2.8v0l0.7-0.1l2.9-0.6l-1.6,5.9
		l-3.2,11.7c0,0,0,0,0,0v0c0,0,0,0,0,0v0c0,0.2,0,0.4,0.2,0.4c0.1,0,0.1,0,0.2,0c0.1,0,0.2-0.1,0.3-0.1l7.6-10.1l7.6-10.1L202,93.7z
		 M161.5,114.4l-0.8,2.8h0L161.5,114.4L161.5,114.4z"/>
	<polygon class="st8" points="207.9,117.2 208.7,114.4 208.7,114.4 207.9,117.2 	"/>
	<path class="st8" d="M208.7,102l-13.7,2.8c-0.1,0-0.3,0-0.4-0.2c0-0.1-0.1-0.1-0.1-0.2c0,0.1,0,0.1,0.1,0.2
		c0.1,0.1,0.2,0.2,0.4,0.2l0,0l5.8-1.2L208.7,102L208.7,102L208.7,102z"/>
	<polygon class="st7" points="195,144.5 200.8,143.3 195,144.5 	"/>
	<path class="st8" d="M208.7,141.7l-13.7,2.8c-0.1,0-0.3,0-0.4-0.2c0-0.1-0.1-0.1-0.1-0.2c0,0.1,0,0.1,0.1,0.2
		c0.1,0.1,0.2,0.2,0.4,0.2l0,0l5.8-1.2L208.7,141.7L208.7,141.7L208.7,141.7z"/>
	<path class="st7" d="M168.5,148.8l7.6-10.1l25.8-5.3c0.2,0,0.3-0.2,0.3-0.4c0,0,0,0,0,0s0,0,0,0c0-0.1,0-0.1-0.1-0.2c0,0,0,0,0-0.1
		c-0.1-0.1-0.2-0.1-0.2-0.1l-18.9-0.4l-3.4-0.1l9.1-11.4l16.4-6.9c0.1,0,0.2-0.1,0.2-0.2c0,0,0-0.1,0-0.1c0,0,0-0.1,0-0.1l0,0
		c0,0,0,0,0,0l0,0v0c0,0,0,0,0,0c-0.1-0.2-0.2-0.3-0.4-0.3l-37.8,6.2l0.1-1.5l0,0l0,0v0v0v0c0-0.2-0.1-0.3-0.2-0.4
		c-0.1,0-0.2,0-0.2,0c0,0,0,0,0,0c0,0,0,0,0,0c-0.1,0-0.1,0.1-0.2,0.1l-19.1,26.3c0,0.1-0.1,0.1-0.1,0.2c0,0,0,0,0,0
		c0,0.1,0,0.1,0.1,0.2c0-0.1-0.1-0.1-0.1-0.2c0,0.1,0,0.1,0.1,0.2c0.1,0.1,0.2,0.2,0.4,0.2l13.7-2.8v0l0.7-0.1l2.9-0.6l-1.6,5.9
		l-0.9,3.2h5L168.5,148.8z"/>
	<path class="st7" d="M147.4,24.9c0,0.1-0.1,0.1-0.1,0.2c0,0,0,0,0,0c0,0.1,0,0.1,0.1,0.2c0-0.1-0.1-0.1-0.1-0.2
		c0,0.1,0,0.1,0.1,0.2c0.1,0.1,0.2,0.2,0.4,0.2l13.7-2.8v0l0.7-0.1l2.9-0.6l-1.6,5.9l-3.2,11.7c0,0,0,0,0,0v0c0,0,0,0,0,0v0
		c0,0.2,0,0.4,0.2,0.4c0.1,0,0.1,0,0.2,0c0.1,0,0.2-0.1,0.3-0.1l7.6-10.1l7.6-10.1l25.8-5.3c0.2,0,0.3-0.2,0.3-0.4c0,0,0,0,0,0
		s0,0,0,0c0-0.1,0-0.1-0.1-0.2c0,0,0,0,0-0.1c-0.1-0.1-0.2-0.1-0.2-0.1L183,13.2l-3.4-0.1l9.1-11.4l4.2-1.8h-23.5l-2.4,0.4l0-0.4
		h-1.6L147.4,24.9z M161.5,35.1l-0.8,2.8h0L161.5,35.1L161.5,35.1z"/>
	<path class="st8" d="M161.5,22.7l-13.7,2.8c-0.1,0-0.3,0-0.4-0.2c0-0.1-0.1-0.1-0.1-0.2c0,0.1,0,0.1,0.1,0.2
		c0.1,0.1,0.2,0.2,0.4,0.2L161.5,22.7L161.5,22.7L161.5,22.7z"/>
	<polygon class="st8" points="160.7,37.9 161.5,35.1 161.5,35.1 160.7,37.9 	"/>
	<path class="st7" d="M160.2,0c0,0.1,0.1,0.2,0.2,0.3c0.1,0,0.1,0,0.2,0c0.1,0,0.2-0.1,0.3-0.1L161,0H160.2z"/>
	<path class="st7" d="M147.4,64.6c0,0.1-0.1,0.1-0.1,0.2c0,0,0,0,0,0c0,0.1,0,0.1,0.1,0.2c0-0.1-0.1-0.1-0.1-0.2
		c0,0.1,0,0.1,0.1,0.2c0.1,0.1,0.2,0.2,0.4,0.2l13.7-2.8v0l0.7-0.1l2.9-0.6l-1.6,5.9l-3.2,11.7c0,0,0,0,0,0v0c0,0,0,0,0,0v0
		c0,0.2,0,0.4,0.2,0.4c0.1,0,0.1,0,0.2,0c0.1,0,0.2-0.1,0.3-0.1l7.6-10.1l7.6-10.1l25.8-5.3c0.2,0,0.3-0.2,0.3-0.4c0,0,0,0,0,0
		s0,0,0,0c0-0.1,0-0.1-0.1-0.2c0,0,0,0,0-0.1c-0.1-0.1-0.2-0.1-0.2-0.1L183,52.9l-3.4-0.1l9.1-11.4l16.4-6.9c0.1,0,0.2-0.1,0.2-0.2
		c0,0,0-0.1,0-0.1c0,0,0-0.1,0-0.1l0,0c0,0,0,0,0,0l0,0v0c0,0,0,0,0,0c-0.1-0.2-0.2-0.3-0.4-0.3l-37.8,6.2l0.1-1.5l0,0l0,0v0v0v0
		c0-0.2-0.1-0.3-0.2-0.4c-0.1,0-0.2,0-0.2,0c0,0,0,0,0,0c0,0,0,0,0,0c-0.1,0-0.1,0.1-0.2,0.1L147.4,64.6z M161.5,74.7l-0.8,2.8h0
		L161.5,74.7L161.5,74.7z"/>
	<path class="st8" d="M161.5,62.4l-13.7,2.8c-0.1,0-0.3,0-0.4-0.2c0-0.1-0.1-0.1-0.1-0.2c0,0.1,0,0.1,0.1,0.2
		c0.1,0.1,0.2,0.2,0.4,0.2L161.5,62.4L161.5,62.4L161.5,62.4z"/>
	<polygon class="st8" points="160.7,77.5 161.5,74.7 161.5,74.7 160.7,77.5 	"/>
	<path class="st7" d="M154.7,93.7c0.2,0,0.3-0.2,0.3-0.4c0,0,0,0,0,0s0,0,0,0c0-0.1,0-0.1-0.1-0.2c0,0,0,0,0-0.1
		c-0.1-0.1-0.2-0.1-0.2-0.1L134,92.5l-1.7,0l9.1-11.4l16.4-6.9c0.1,0,0.2-0.1,0.2-0.2c0,0,0-0.1,0-0.1c0,0,0-0.1,0-0.1l0,0
		c0,0,0,0,0,0l0,0v0c0,0,0,0,0,0c0-0.2-0.2-0.3-0.4-0.3c0,0,0,0,0,0l0,0h0l-37.8,6.2l0.1-1.5l0,0l0,0v0v0v0c0-0.2-0.1-0.3-0.2-0.4
		c-0.1,0-0.2,0-0.2,0c0,0,0,0,0,0c0,0,0,0,0,0c-0.1,0-0.1,0.1-0.2,0.1l-19.1,26.3c0,0.1-0.1,0.1-0.1,0.2c0,0,0,0,0,0
		c0,0.1,0,0.1,0.1,0.2c0-0.1-0.1-0.1-0.1-0.2c0,0.1,0,0.1,0.1,0.2c0.1,0.1,0.2,0.2,0.4,0.2l13.7-2.8v0l0.5-0.1l3.1-0.6l-1.6,5.9
		l-3.2,11.7c0,0,0,0,0,0v0c0,0,0,0,0,0v0c0,0.2,0,0.4,0.2,0.4c0.1,0,0.1,0,0.2,0c0.1,0,0.2-0.1,0.3-0.1l7.6-10.1l7.6-10.1
		L154.7,93.7z M114.2,114.4l-0.8,2.8h0L114.2,114.4L114.2,114.4z"/>
	<path class="st8" d="M161.5,102l-13.7,2.8c-0.1,0-0.3,0-0.4-0.2c0-0.1-0.1-0.1-0.1-0.2c0,0.1,0,0.1,0.1,0.2
		c0.1,0.1,0.2,0.2,0.4,0.2L161.5,102L161.5,102L161.5,102z"/>
	<polygon class="st8" points="160.7,117.2 161.5,114.4 161.5,114.4 160.7,117.2 	"/>
	<path class="st8" d="M161.5,141.7l-13.7,2.8c-0.1,0-0.3,0-0.4-0.2c0-0.1-0.1-0.1-0.1-0.2c0,0.1,0,0.1,0.1,0.2
		c0.1,0.1,0.2,0.2,0.4,0.2L161.5,141.7L161.5,141.7L161.5,141.7z"/>
	<path class="st7" d="M121.3,148.8l7.6-10.1l25.8-5.3c0.2,0,0.3-0.2,0.3-0.4c0,0,0,0,0,0s0,0,0,0c0-0.1,0-0.1-0.1-0.2c0,0,0,0,0-0.1
		c-0.1-0.1-0.2-0.1-0.2-0.1l-20.6-0.5l-1.7,0l9.1-11.4l16.4-6.9c0.1,0,0.2-0.1,0.2-0.2c0,0,0-0.1,0-0.1c0,0,0-0.1,0-0.1l0,0
		c0,0,0,0,0,0l0,0v0c0,0,0,0,0,0c0-0.2-0.2-0.3-0.4-0.3c0,0,0,0,0,0l0,0h0l-37.8,6.2l0.1-1.5l0,0l0,0v0v0v0c0-0.2-0.1-0.3-0.2-0.4
		c-0.1,0-0.2,0-0.2,0c0,0,0,0,0,0c0,0,0,0,0,0c-0.1,0-0.1,0.1-0.2,0.1l-19.1,26.3c0,0.1-0.1,0.1-0.1,0.2c0,0,0,0,0,0
		c0,0.1,0,0.1,0.1,0.2c0-0.1-0.1-0.1-0.1-0.2c0,0.1,0,0.1,0.1,0.2c0.1,0.1,0.2,0.2,0.4,0.2l13.7-2.8v0l0.5-0.1l3.1-0.6l-1.6,5.9
		l-0.9,3.2h5L121.3,148.8z"/>
	<path class="st7" d="M100.1,25.1C100.1,25.1,100.1,25.1,100.1,25.1c0,0.1,0,0.1,0.1,0.2C100.1,25.3,100.1,25.2,100.1,25.1
		c0,0.1,0,0.1,0.1,0.2c0.1,0.1,0.2,0.2,0.4,0.2l13.7-2.8v0l0.5-0.1l3.1-0.6l-1.6,5.9L113,39.5c0,0,0,0,0,0v0c0,0,0,0,0,0v0
		c0,0.2,0,0.4,0.2,0.4c0.1,0,0.1,0,0.2,0c0.1,0,0.2-0.1,0.3-0.1l7.6-10.1l7.6-10.1l25.8-5.3c0.2,0,0.3-0.2,0.3-0.4c0,0,0,0,0,0
		s0,0,0,0c0-0.1,0-0.1-0.1-0.2c0,0,0,0,0-0.1c-0.1-0.1-0.2-0.1-0.2-0.1L134,13.2l-1.7,0l9.1-11.4l4.2-1.8h-23.5l-2.4,0.4l0-0.4h-1.6
		l-18.1,24.9C100.1,25,100.1,25.1,100.1,25.1z M114.2,35.1l-0.8,2.8h0L114.2,35.1L114.2,35.1z"/>
	<polygon class="st7" points="100.5,25.5 106.3,24.3 100.5,25.5 	"/>
	<path class="st8" d="M114.2,22.7l-13.7,2.8c-0.1,0-0.3,0-0.4-0.2c0-0.1-0.1-0.1-0.1-0.2c0,0.1,0,0.1,0.1,0.2
		c0.1,0.1,0.2,0.2,0.4,0.2l0,0l5.8-1.2L114.2,22.7L114.2,22.7L114.2,22.7z"/>
	<polygon class="st8" points="113.5,37.9 114.2,35.1 114.2,35.1 113.5,37.9 	"/>
	<path class="st7" d="M113,0c0,0.1,0.1,0.2,0.2,0.3c0.1,0,0.1,0,0.2,0c0.1,0,0.2-0.1,0.3-0.1l0.1-0.2H113z"/>
	<path class="st7" d="M100.1,64.6c0,0.1-0.1,0.1-0.1,0.2c0,0,0,0,0,0c0,0.1,0,0.1,0.1,0.2c0-0.1-0.1-0.1-0.1-0.2
		c0,0.1,0,0.1,0.1,0.2c0.1,0.1,0.2,0.2,0.4,0.2l13.7-2.8v0l0.5-0.1l3.1-0.6l-1.6,5.9L113,79.2c0,0,0,0,0,0v0c0,0,0,0,0,0v0
		c0,0.2,0,0.4,0.2,0.4c0.1,0,0.1,0,0.2,0c0.1,0,0.2-0.1,0.3-0.1l7.6-10.1l7.6-10.1l25.8-5.3c0.2,0,0.3-0.2,0.3-0.4c0,0,0,0,0,0
		s0,0,0,0c0-0.1,0-0.1-0.1-0.2c0,0,0,0,0-0.1c-0.1-0.1-0.2-0.1-0.2-0.1L134,52.8l-1.7,0l9.1-11.4l16.4-6.9c0.1,0,0.2-0.1,0.2-0.2
		c0,0,0-0.1,0-0.1c0,0,0-0.1,0-0.1l0,0c0,0,0,0,0,0l0,0v0c0,0,0,0,0,0c0-0.2-0.2-0.3-0.4-0.3c0,0,0,0,0,0l0,0h0l-37.8,6.2l0.1-1.5
		l0,0l0,0v0v0v0c0-0.2-0.1-0.3-0.2-0.4c-0.1,0-0.2,0-0.2,0c0,0,0,0,0,0c0,0,0,0,0,0c-0.1,0-0.1,0.1-0.2,0.1L100.1,64.6z M114.2,74.7
		l-0.8,2.8h0L114.2,74.7L114.2,74.7z"/>
	<polygon class="st7" points="100.5,65.2 106.3,64 100.5,65.2 	"/>
	<path class="st8" d="M114.2,62.4l-13.7,2.8c-0.1,0-0.3,0-0.4-0.2c0-0.1-0.1-0.1-0.1-0.2c0,0.1,0,0.1,0.1,0.2
		c0.1,0.1,0.2,0.2,0.4,0.2l0,0l5.8-1.2L114.2,62.4L114.2,62.4L114.2,62.4z"/>
	<polygon class="st8" points="113.5,77.5 114.2,74.7 114.2,74.7 113.5,77.5 	"/>
	<polygon class="st7" points="100.5,104.8 106.3,103.7 100.5,104.8 	"/>
	<path class="st7" d="M107.5,93.7c0.2,0,0.3-0.2,0.3-0.4c0,0,0,0,0,0s0,0,0,0c0-0.1,0-0.1-0.1-0.1c0,0,0-0.1,0-0.1
		c-0.1-0.1-0.1-0.1-0.2-0.1l-18.9-0.4l-3.4-0.1l9.1-11.4l16.4-6.9c0.1,0,0.2-0.1,0.2-0.2c0,0,0-0.1,0-0.1c0,0,0-0.1,0-0.1l0,0
		c0,0,0,0,0,0l0,0v0c0,0,0,0,0,0c-0.1-0.2-0.2-0.3-0.4-0.3l-37.8,6.2l0.1-1.5l0,0l0,0v0v0v0c0-0.2-0.1-0.3-0.2-0.4
		c-0.1,0-0.2,0-0.2,0c0,0,0,0,0,0c0,0,0,0,0,0c-0.1,0-0.1,0.1-0.2,0.1l-19.1,26.3c0,0.1-0.1,0.1-0.1,0.2c0,0,0,0,0,0
		c0,0.1,0,0.1,0.1,0.2c0-0.1-0.1-0.1-0.1-0.2c0,0.1,0,0.1,0.1,0.2c0.1,0.1,0.2,0.2,0.4,0.2L67,102v0l0.7-0.1l2.9-0.6l-1.6,5.9
		l-3.2,11.7c0,0,0,0,0,0v0c0,0,0,0,0,0v0c0,0.2,0,0.4,0.2,0.4c0.1,0,0.1,0,0.2,0c0.1,0,0.2-0.1,0.3-0.1l7.6-10.1L81.6,99L107.5,93.7
		z M67,114.4l-0.8,2.8h0L67,114.4L67,114.4z"/>
	<path class="st8" d="M114.2,102l-13.7,2.8c-0.1,0-0.3,0-0.4-0.2c0-0.1-0.1-0.1-0.1-0.2c0,0.1,0,0.1,0.1,0.2
		c0.1,0.1,0.2,0.2,0.4,0.2l0,0l5.8-1.2L114.2,102L114.2,102L114.2,102z"/>
	<polygon class="st8" points="113.5,117.2 114.2,114.4 114.2,114.4 113.5,117.2 	"/>
	<polygon class="st7" points="100.5,144.5 106.3,143.3 100.5,144.5 	"/>
	<path class="st8" d="M114.2,141.7l-13.7,2.8c-0.1,0-0.3,0-0.4-0.2c0-0.1-0.1-0.1-0.1-0.2c0,0.1,0,0.1,0.1,0.2
		c0.1,0.1,0.2,0.2,0.4,0.2l0,0l5.8-1.2L114.2,141.7L114.2,141.7L114.2,141.7z"/>
	<path class="st7" d="M74,148.8l7.6-10.1l25.8-5.3c0.2,0,0.3-0.2,0.3-0.4c0,0,0,0,0,0s0,0,0,0c0-0.1,0-0.1-0.1-0.1c0,0,0-0.1,0-0.1
		c-0.1-0.1-0.1-0.1-0.2-0.1l-18.9-0.4l-3.4-0.1l9.1-11.4l16.4-6.9c0.1,0,0.2-0.1,0.2-0.2c0,0,0-0.1,0-0.1c0,0,0-0.1,0-0.1l0,0
		c0,0,0,0,0,0l0,0v0c0,0,0,0,0,0c-0.1-0.2-0.2-0.3-0.4-0.3l-37.8,6.2l0.1-1.5l0,0l0,0v0v0v0c0-0.2-0.1-0.3-0.2-0.4
		c-0.1,0-0.2,0-0.2,0c0,0,0,0,0,0c0,0,0,0,0,0c-0.1,0-0.1,0.1-0.2,0.1l-19.1,26.3c0,0.1-0.1,0.1-0.1,0.2c0,0,0,0,0,0
		c0,0.1,0,0.1,0.1,0.2c0-0.1-0.1-0.1-0.1-0.2c0,0.1,0,0.1,0.1,0.2c0.1,0.1,0.2,0.2,0.4,0.2l13.7-2.8v0l0.7-0.1l2.9-0.6l-1.6,5.9
		l-0.9,3.2h5L74,148.8z"/>
	<path class="st7" d="M52.9,24.9c0,0.1-0.1,0.1-0.1,0.2c0,0,0,0,0,0c0,0.1,0,0.1,0.1,0.2c0-0.1-0.1-0.1-0.1-0.2c0,0.1,0,0.1,0.1,0.2
		c0.1,0.1,0.2,0.2,0.4,0.2L67,22.7v0l0.7-0.1l2.9-0.6L69,27.8l-3.2,11.7c0,0,0,0,0,0v0c0,0,0,0,0,0v0c0,0.2,0,0.4,0.2,0.4
		c0.1,0,0.1,0,0.2,0c0.1,0,0.2-0.1,0.3-0.1L74,29.8l7.6-10.1l25.8-5.3c0.2,0,0.3-0.2,0.3-0.4c0,0,0,0,0,0s0,0,0,0
		c0-0.1,0-0.1-0.1-0.1c0,0,0-0.1,0-0.1c-0.1-0.1-0.1-0.1-0.2-0.1l-18.9-0.4l-3.4-0.1l9.1-11.4L98.4,0H75l-2.4,0.4l0-0.4H71
		L52.9,24.9z M67,35.1l-0.8,2.8h0L67,35.1L67,35.1z"/>
	<path class="st8" d="M67,22.7l-13.7,2.8c-0.1,0-0.3,0-0.4-0.2c0-0.1-0.1-0.1-0.1-0.2c0,0.1,0,0.1,0.1,0.2c0.1,0.1,0.2,0.2,0.4,0.2
		L67,22.7L67,22.7L67,22.7z"/>
	<polygon class="st8" points="66.2,37.9 67,35.1 67,35.1 66.2,37.9 	"/>
	<path class="st7" d="M65.8,0c0,0.1,0.1,0.2,0.2,0.3c0.1,0,0.1,0,0.2,0c0.1,0,0.2-0.1,0.3-0.1L66.6,0H65.8z"/>
	<path class="st7" d="M52.9,64.6c0,0.1-0.1,0.1-0.1,0.2c0,0,0,0,0,0c0,0.1,0,0.1,0.1,0.2c0-0.1-0.1-0.1-0.1-0.2c0,0.1,0,0.1,0.1,0.2
		c0.1,0.1,0.2,0.2,0.4,0.2L67,62.4v0l0.7-0.1l2.9-0.6L69,67.5l-3.2,11.7c0,0,0,0,0,0v0c0,0,0,0,0,0v0c0,0.2,0,0.4,0.2,0.4
		c0.1,0,0.1,0,0.2,0c0.1,0,0.2-0.1,0.3-0.1L74,69.4l7.6-10.1l25.8-5.3c0.2,0,0.3-0.2,0.3-0.4c0,0,0,0,0,0s0,0,0,0
		c0-0.1,0-0.1-0.1-0.1c0,0,0-0.1,0-0.1c-0.1-0.1-0.1-0.1-0.2-0.1l-18.9-0.4l-3.4-0.1l9.1-11.4l16.4-6.9c0.1,0,0.2-0.1,0.2-0.2
		c0,0,0-0.1,0-0.1c0,0,0-0.1,0-0.1l0,0c0,0,0,0,0,0l0,0v0c0,0,0,0,0,0c-0.1-0.2-0.2-0.3-0.4-0.3l-37.8,6.2l0.1-1.5l0,0l0,0v0v0v0
		c0-0.2-0.1-0.3-0.2-0.4c-0.1,0-0.2,0-0.2,0c0,0,0,0,0,0c0,0,0,0,0,0c-0.1,0-0.1,0.1-0.2,0.1L52.9,64.6z M67,74.7l-0.8,2.8h0
		L67,74.7L67,74.7z"/>
	<path class="st8" d="M67,62.4l-13.7,2.8c-0.1,0-0.3,0-0.4-0.2c0-0.1-0.1-0.1-0.1-0.2c0,0.1,0,0.1,0.1,0.2c0.1,0.1,0.2,0.2,0.4,0.2
		L67,62.4L67,62.4L67,62.4z"/>
	<polygon class="st8" points="66.2,77.5 67,74.7 67,74.7 66.2,77.5 	"/>
	<path class="st7" d="M60.3,93.7c0.2,0,0.3-0.2,0.3-0.4c0,0,0,0,0,0s0,0,0,0c0-0.1,0-0.1-0.1-0.2c0,0,0,0,0-0.1
		C60.4,93,60.3,93,60.2,93l-20.6-0.5l-1.7,0L47,81.1l16.4-6.9c0.1,0,0.2-0.1,0.2-0.2c0,0,0-0.1,0-0.1c0,0,0-0.1,0-0.1l0,0
		c0,0,0,0,0,0l0,0v0c0,0,0,0,0,0c0-0.2-0.2-0.3-0.4-0.3c0,0,0,0,0,0l0,0h0l-37.8,6.2l0.1-1.5l0,0l0,0v0v0v0c0-0.2-0.1-0.3-0.2-0.4
		c-0.1,0-0.2,0-0.2,0c0,0,0,0,0,0c0,0,0,0,0,0c-0.1,0-0.1,0.1-0.2,0.1L5.7,104.3c0,0.1-0.1,0.1-0.1,0.2c0,0,0,0,0,0
		c0,0.1,0,0.1,0.1,0.2c0-0.1-0.1-0.1-0.1-0.2c0,0.1,0,0.1,0.1,0.2c0.1,0.1,0.2,0.2,0.4,0.2l13.7-2.8v0l0.5-0.1l3.1-0.6l-1.6,5.9
		l-3.2,11.7c0,0,0,0,0,0v0c0,0,0,0,0,0v0c0,0.2,0,0.4,0.2,0.4c0.1,0,0.1,0,0.2,0c0.1,0,0.2-0.1,0.3-0.1l7.6-10.1L34.4,99L60.3,93.7z
		 M19.8,114.4l-0.8,2.8h0L19.8,114.4L19.8,114.4z"/>
	<path class="st8" d="M67,102l-13.7,2.8c-0.1,0-0.3,0-0.4-0.2c0-0.1-0.1-0.1-0.1-0.2c0,0.1,0,0.1,0.1,0.2c0.1,0.1,0.2,0.2,0.4,0.2
		L67,102L67,102L67,102z"/>
	<polygon class="st8" points="66.2,117.2 67,114.4 67,114.4 66.2,117.2 	"/>
	<path class="st8" d="M67,141.7l-13.7,2.8c-0.1,0-0.3,0-0.4-0.2c0-0.1-0.1-0.1-0.1-0.2c0,0.1,0,0.1,0.1,0.2c0.1,0.1,0.2,0.2,0.4,0.2
		L67,141.7L67,141.7L67,141.7z"/>
	<path class="st7" d="M26.8,148.8l7.6-10.1l25.8-5.3c0.2,0,0.3-0.2,0.3-0.4c0,0,0,0,0,0s0,0,0,0c0-0.1,0-0.1-0.1-0.2c0,0,0,0,0-0.1
		c-0.1-0.1-0.2-0.1-0.2-0.1l-20.6-0.5l-1.7,0l9.1-11.4l16.4-6.9c0.1,0,0.2-0.1,0.2-0.2c0,0,0-0.1,0-0.1c0,0,0-0.1,0-0.1l0,0
		c0,0,0,0,0,0l0,0v0c0,0,0,0,0,0c0-0.2-0.2-0.3-0.4-0.3c0,0,0,0,0,0l0,0h0l-37.8,6.2l0.1-1.5l0,0l0,0v0v0v0c0-0.2-0.1-0.3-0.2-0.4
		c-0.1,0-0.2,0-0.2,0c0,0,0,0,0,0c0,0,0,0,0,0c-0.1,0-0.1,0.1-0.2,0.1L5.7,143.9c0,0.1-0.1,0.1-0.1,0.2c0,0,0,0,0,0
		c0,0.1,0,0.1,0.1,0.2c0-0.1-0.1-0.1-0.1-0.2c0,0.1,0,0.1,0.1,0.2c0.1,0.1,0.2,0.2,0.4,0.2l13.7-2.8v0l0.5-0.1l3.1-0.6l-1.6,5.9
		l-0.9,3.2h5L26.8,148.8z"/>
	<path class="st7" d="M5.6,25.1C5.6,25.1,5.6,25.1,5.6,25.1c0,0.1,0,0.1,0.1,0.2C5.6,25.3,5.6,25.2,5.6,25.1c0,0.1,0,0.1,0.1,0.2
		c0.1,0.1,0.2,0.2,0.4,0.2l13.7-2.8v0l0.5-0.1l3.1-0.6l-1.6,5.9l-3.2,11.7c0,0,0,0,0,0v0c0,0,0,0,0,0v0c0,0.2,0,0.4,0.2,0.4
		c0.1,0,0.1,0,0.2,0c0.1,0,0.2-0.1,0.3-0.1l7.6-10.1l7.6-10.1l25.8-5.3c0.2,0,0.3-0.2,0.3-0.4c0,0,0,0,0,0s0,0,0,0
		c0-0.1,0-0.1-0.1-0.2c0,0,0,0,0-0.1c-0.1-0.1-0.2-0.1-0.2-0.1l-20.6-0.5l-1.7,0L47,1.8L51.2,0H27.7l-2.4,0.4l0-0.4h-1.6L5.7,24.9
		C5.6,25,5.6,25.1,5.6,25.1z M19.8,35.1L19,37.9h0L19.8,35.1L19.8,35.1z"/>
	<path class="st7" d="M0,41.3l16.1-6.8c0.2-0.1,0.3-0.3,0.2-0.4l0,0c0,0,0,0,0,0l0,0v0c0,0,0,0,0,0c-0.1-0.2-0.2-0.3-0.4-0.3L0,36.5
		V41.3z"/>
	<path class="st7" d="M13.3,14C13.3,14,13.3,14,13.3,14C13.3,14,13.3,14,13.3,14c0-0.1,0-0.1-0.1-0.1c0,0,0-0.1,0-0.1
		c-0.1-0.1-0.1-0.1-0.2-0.1L0,13.4v3.7l13-2.7C13.2,14.4,13.3,14.2,13.3,14z"/>
	<path class="st8" d="M19.8,22.7L6,25.5c-0.1,0-0.3,0-0.4-0.2c0-0.1-0.1-0.1-0.1-0.2c0,0.1,0,0.1,0.1,0.2c0.1,0.1,0.2,0.2,0.4,0.2
		L19.8,22.7L19.8,22.7L19.8,22.7z"/>
	<polygon class="st8" points="19,37.9 19.8,35.1 19.8,35.1 19,37.9 	"/>
	<polygon class="st7" points="0,0 0,1.7 4,0 	"/>
	<path class="st7" d="M18.5,0c0,0.1,0.1,0.2,0.2,0.3c0.1,0,0.1,0,0.2,0c0.1,0,0.2-0.1,0.3-0.1L19.3,0H18.5z"/>
	<path class="st7" d="M0,81l16.1-6.8c0.2-0.1,0.3-0.3,0.2-0.4l0,0c0,0,0,0,0,0l0,0v0c0,0,0,0,0,0c-0.1-0.2-0.2-0.3-0.4-0.3L0,76.1
		V81z"/>
	<path class="st7" d="M13.3,53.7C13.3,53.7,13.3,53.7,13.3,53.7C13.3,53.7,13.3,53.7,13.3,53.7c0-0.1,0-0.1-0.1-0.1c0,0,0-0.1,0-0.1
		c-0.1-0.1-0.1-0.1-0.2-0.1L0,53v3.7l13-2.7C13.2,54,13.3,53.9,13.3,53.7z"/>
	<path class="st8" d="M19.8,62.4L6,65.2c-0.1,0-0.3,0-0.4-0.2c0-0.1-0.1-0.1-0.1-0.2c0,0.1,0,0.1,0.1,0.2c0.1,0.1,0.2,0.2,0.4,0.2
		L19.8,62.4L19.8,62.4L19.8,62.4z"/>
	<polygon class="st8" points="19,77.5 19.8,74.7 19.8,74.7 19,77.5 	"/>
	<path class="st7" d="M0,120.7l16.1-6.8c0.2-0.1,0.3-0.3,0.2-0.4l0,0c0,0,0,0,0,0l0,0v0c0,0,0,0,0,0c-0.1-0.2-0.2-0.3-0.4-0.3
		L0,115.8V120.7z"/>
	<path class="st7" d="M13.3,93.3C13.3,93.3,13.3,93.3,13.3,93.3C13.3,93.3,13.3,93.3,13.3,93.3c0-0.1,0-0.1-0.1-0.1c0,0,0-0.1,0-0.1
		C13.1,93,13,93,13,93L0,92.7v3.7l13-2.7C13.2,93.7,13.3,93.5,13.3,93.3z"/>
	<path class="st8" d="M19.8,102L6,104.8c-0.1,0-0.3,0-0.4-0.2c0-0.1-0.1-0.1-0.1-0.2c0,0.1,0,0.1,0.1,0.2c0.1,0.1,0.2,0.2,0.4,0.2
		L19.8,102L19.8,102L19.8,102z"/>
	<polygon class="st8" points="19,117.2 19.8,114.4 19.8,114.4 19,117.2 	"/>
	<path class="st7" d="M18.7,79.6c0.1,0,0.1,0,0.2,0c0.1,0,0.2-0.1,0.3-0.1l7.6-10.1l7.6-10.1l25.8-5.3c0.2,0,0.3-0.2,0.3-0.4
		c0,0,0,0,0,0s0,0,0,0c0-0.1,0-0.1-0.1-0.2c0,0,0,0,0-0.1c-0.1-0.1-0.2-0.1-0.2-0.1l-20.6-0.5l-1.7,0L47,41.4l16.4-6.9
		c0.1,0,0.2-0.1,0.2-0.2c0,0,0-0.1,0-0.1c0,0,0-0.1,0-0.1l0,0c0,0,0,0,0,0l0,0v0c0,0,0,0,0,0c0-0.2-0.2-0.3-0.4-0.3c0,0,0,0,0,0l0,0
		h0l-37.8,6.2l0.1-1.5l0,0l0,0v0v0v0c0-0.2-0.1-0.3-0.2-0.4c-0.1,0-0.2,0-0.2,0c0,0,0,0,0,0c0,0,0,0,0,0c-0.1,0-0.1,0.1-0.2,0.1
		L5.7,64.6c0,0.1-0.1,0.1-0.1,0.2c0,0,0,0,0,0c0,0.1,0,0.1,0.1,0.2c0-0.1-0.1-0.1-0.1-0.2c0,0.1,0,0.1,0.1,0.2
		c0.1,0.1,0.2,0.2,0.4,0.2l13.7-2.8v0l0.5-0.1l3.1-0.6l-1.6,5.9l-3.2,11.7c0,0,0,0,0,0v0c0,0,0,0,0,0v0
		C18.5,79.4,18.6,79.5,18.7,79.6z M19.8,74.7L19,77.5h0L19.8,74.7L19.8,74.7z"/>
	<path class="st7" d="M13.3,133C13.3,133,13.3,133,13.3,133C13.3,133,13.3,133,13.3,133c0-0.1,0-0.1-0.1-0.1c0,0,0-0.1,0-0.1
		c-0.1-0.1-0.1-0.1-0.2-0.1l-13-0.3v3.7l13-2.7C13.2,133.4,13.3,133.2,13.3,133z"/>
	<path class="st8" d="M19.8,141.7L6,144.5c-0.1,0-0.3,0-0.4-0.2c0-0.1-0.1-0.1-0.1-0.2c0,0.1,0,0.1,0.1,0.2c0.1,0.1,0.2,0.2,0.4,0.2
		L19.8,141.7L19.8,141.7L19.8,141.7z"/>
</g>
<g>
</g>
<g>
</g>
<g>
</g>
<g>
</g>
<g>
</g>
<g>
</g>
</svg>
