<?xml version="1.0" encoding="utf-8"?>
<!-- Generator: Adobe Illustrator 21.1.0, SVG Export Plug-In . SVG Version: 6.00 Build 0)  -->
<svg version="1.1" id="レイヤー_1" xmlns="http://www.w3.org/2000/svg" xmlns:xlink="http://www.w3.org/1999/xlink" x="0px"
	 y="0px" viewBox="0 0 500 150" style="enable-background:new 0 0 500 150;" xml:space="preserve">
<style type="text/css">
	.st0{fill:none;}
	.st1{clip-path:url(#SVGID_2_);fill:#13848F;}
	.st2{clip-path:url(#SVGID_2_);}
	.st3{fill:#FFFFFF;}
	.st4{clip-path:url(#SVGID_2_);fill:#FFFFFF;}
	.st5{clip-path:url(#SVGID_2_);fill:none;}
	.st6{fill:url(#SVGID_3_);}
	.st7{fill:#628A56;}
</style>
<pattern  x="-250" y="-75" width="177.3" height="90.6" patternUnits="userSpaceOnUse" id="新規パターンスウォッチ_6" viewBox="265.3 -136 177.3 90.6" style="overflow:visible;">
	<g>
		<rect x="265.3" y="-136" class="st0" width="177.3" height="90.6"/>
		<g>
			<defs>
				<rect id="SVGID_1_" x="265.3" y="-136" width="177.3" height="90.6"/>
			</defs>
			<clipPath id="SVGID_2_">
				<use xlink:href="#SVGID_1_"  style="overflow:visible;"/>
			</clipPath>
			<rect x="239.7" y="-158.7" class="st1" width="219.4" height="152.7"/>
			<g class="st2">
				<path class="st3" d="M176-2.2h-43.2c-0.6-23.9-20.2-43.2-44.2-43.2S44.8-26.1,44.3-2.2H1.1C0.5-2.2,0-1.7,0-1.1
					C0-0.5,0.5,0,1.1,0h43.2h88.5H176c0.6,0,1.1-0.5,1.1-1.1C177-1.7,176.6-2.2,176-2.2z"/>
				<path class="st3" d="M353-2.2h-43.2c-0.6-23.9-20.2-43.2-44.2-43.2c-24.1,0-43.7,19.2-44.2,43.2h-43.2c-0.6,0-1.1,0.5-1.1,1.1
					c0,0.6,0.5,1.1,1.1,1.1h43.2h88.5H353c0.6,0,1.1-0.5,1.1-1.1C354.1-1.7,353.6-2.2,353-2.2z"/>
			</g>
			<path class="st4" d="M264.5-47.5h-43.2c-0.6-23.9-20.2-43.2-44.2-43.2s-43.7,19.2-44.2,43.2H89.6c-0.6,0-1.1,0.5-1.1,1.1
				c0,0.6,0.5,1.1,1.1,1.1h43.2h88.5h43.2c0.6,0,1.1-0.5,1.1-1.1C265.6-47,265.1-47.5,264.5-47.5z"/>
			<g class="st2">
				<path class="st3" d="M176-92.8h-43.2c-0.6-23.9-20.2-43.2-44.2-43.2s-43.7,19.2-44.2,43.2H1.1c-0.6,0-1.1,0.5-1.1,1.1
					c0,0.6,0.5,1.1,1.1,1.1h43.2h88.5H176c0.6,0,1.1-0.5,1.1-1.1C177-92.4,176.6-92.8,176-92.8z"/>
				<path class="st3" d="M353-92.8h-43.2c-0.6-23.9-20.2-43.2-44.2-43.2c-24.1,0-43.7,19.2-44.2,43.2h-43.2c-0.6,0-1.1,0.5-1.1,1.1
					c0,0.6,0.5,1.1,1.1,1.1h43.2h88.5H353c0.6,0,1.1-0.5,1.1-1.1C354.1-92.4,353.6-92.8,353-92.8z"/>
			</g>
			<path class="st4" d="M264.5-138.2h-43.2c-0.6-23.9-20.2-43.2-44.2-43.2s-43.7,19.2-44.2,43.2H89.6c-0.6,0-1.1,0.5-1.1,1.1
				c0,0.6,0.5,1.1,1.1,1.1h43.2h88.5h43.2c0.6,0,1.1-0.5,1.1-1.1C265.6-137.7,265.1-138.2,264.5-138.2z"/>
			<path class="st4" d="M441.5-47.5h-43.2c-0.6-23.9-20.2-43.2-44.2-43.2c-24.1,0-43.7,19.2-44.2,43.2h-43.2c-0.6,0-1.1,0.5-1.1,1.1
				c0,0.6,0.5,1.1,1.1,1.1h43.2h88.5h43.2c0.6,0,1.1-0.5,1.1-1.1C442.6-47,442.1-47.5,441.5-47.5z"/>
			<path class="st4" d="M441.5-138.2h-43.2c-0.6-23.9-20.2-43.2-44.2-43.2c-24.1,0-43.7,19.2-44.2,43.2h-43.2
				c-0.6,0-1.1,0.5-1.1,1.1c0,0.6,0.5,1.1,1.1,1.1h43.2h88.5h43.2c0.6,0,1.1-0.5,1.1-1.1C442.6-137.7,442.1-138.2,441.5-138.2z"/>
			<g class="st2">
				<path class="st3" d="M530.1-2.2h-43.2c-0.6-23.9-20.2-43.2-44.2-43.2c-24.1,0-43.7,19.2-44.2,43.2h-43.2c-0.6,0-1.1,0.5-1.1,1.1
					c0,0.6,0.5,1.1,1.1,1.1h43.2h88.5h43.2c0.6,0,1.1-0.5,1.1-1.1C531.1-1.7,530.7-2.2,530.1-2.2z"/>
				<path class="st3" d="M707.1-2.2h-43.2c-0.6-23.9-20.2-43.2-44.2-43.2S576-26.1,575.4-2.2h-43.2c-0.6,0-1.1,0.5-1.1,1.1
					c0,0.6,0.5,1.1,1.1,1.1h43.2h88.5h43.2c0.6,0,1.1-0.5,1.1-1.1C708.2-1.7,707.7-2.2,707.1-2.2z"/>
			</g>
			<path class="st4" d="M618.6-47.5h-43.2c-0.6-23.9-20.2-43.2-44.2-43.2c-24.1,0-43.7,19.2-44.2,43.2h-43.2c-0.6,0-1.1,0.5-1.1,1.1
				c0,0.6,0.5,1.1,1.1,1.1h43.2h88.5h43.2c0.6,0,1.1-0.5,1.1-1.1C619.7-47,619.2-47.5,618.6-47.5z"/>
			<g class="st2">
				<path class="st3" d="M530.1-92.8h-43.2c-0.6-23.9-20.2-43.2-44.2-43.2c-24.1,0-43.7,19.2-44.2,43.2h-43.2
					c-0.6,0-1.1,0.5-1.1,1.1c0,0.6,0.5,1.1,1.1,1.1h43.2h88.5h43.2c0.6,0,1.1-0.5,1.1-1.1C531.1-92.4,530.7-92.8,530.1-92.8z"/>
				<path class="st3" d="M707.1-92.8h-43.2c-0.6-23.9-20.2-43.2-44.2-43.2s-43.7,19.2-44.2,43.2h-43.2c-0.6,0-1.1,0.5-1.1,1.1
					c0,0.6,0.5,1.1,1.1,1.1h43.2h88.5h43.2c0.6,0,1.1-0.5,1.1-1.1C708.2-92.4,707.7-92.8,707.1-92.8z"/>
			</g>
			<path class="st4" d="M618.6-138.2h-43.2c-0.6-23.9-20.2-43.2-44.2-43.2c-24.1,0-43.7,19.2-44.2,43.2h-43.2
				c-0.6,0-1.1,0.5-1.1,1.1c0,0.6,0.5,1.1,1.1,1.1h43.2h88.5h43.2c0.6,0,1.1-0.5,1.1-1.1C619.7-137.7,619.2-138.2,618.6-138.2z"/>
			<rect x="85.6" y="-540.3" class="st5" width="534.3" height="534.3"/>
			<rect x="84.7" y="-138.2" class="st4" width="556" height="2.2"/>
			<rect x="84.7" y="-92.8" class="st4" width="556" height="2.2"/>
			<rect x="84.7" y="-47.5" class="st4" width="556" height="2.2"/>
			<rect x="85.6" y="-540.3" class="st5" width="534.3" height="534.3"/>
		</g>
	</g>
</pattern>
<pattern  id="SVGID_3_" xlink:href="#譁ｰ隕上ヱ繧ｿ繝ｼ繝ｳ繧ｹ繧ｦ繧ｩ繝メ_6" patternTransform="matrix(0.4012 0 0 0.4012 -3389.7144 -3725.1169)">
</pattern>
<rect y="-191.8" class="st6" width="500" height="150"/>
<g>
	<rect x="456.7" class="st7" width="3.8" height="22.4"/>
	<rect x="463.7" class="st7" width="3.8" height="22.4"/>
	<rect x="470.8" class="st7" width="3.8" height="22.4"/>
	<rect x="477.8" class="st7" width="22.2" height="0.7"/>
	<rect x="477.8" y="4.2" class="st7" width="22.2" height="3.8"/>
	<rect x="477.8" y="11.4" class="st7" width="22.2" height="3.8"/>
	<rect x="477.8" y="18.6" class="st7" width="22.2" height="3.8"/>
	<rect x="456.7" y="25.8" class="st7" width="3.8" height="47.1"/>
	<rect x="463.7" y="25.8" class="st7" width="3.8" height="47.1"/>
	<rect x="470.8" y="25.8" class="st7" width="3.8" height="47.1"/>
	<rect x="477.8" y="25.8" class="st7" width="22.2" height="3.8"/>
	<rect x="477.8" y="33" class="st7" width="22.2" height="3.8"/>
	<rect x="477.8" y="40.2" class="st7" width="22.2" height="3.8"/>
	<rect x="477.8" y="47.5" class="st7" width="22.2" height="3.8"/>
	<rect x="477.8" y="54.7" class="st7" width="22.2" height="3.8"/>
	<rect x="477.8" y="61.9" class="st7" width="22.2" height="3.8"/>
	<rect x="477.8" y="69.1" class="st7" width="22.2" height="3.8"/>
	<rect x="456.7" y="76.3" class="st7" width="3.8" height="47.1"/>
	<rect x="463.7" y="76.3" class="st7" width="3.8" height="47.1"/>
	<rect x="470.8" y="76.3" class="st7" width="3.8" height="47.1"/>
	<rect x="477.8" y="76.3" class="st7" width="22.2" height="3.8"/>
	<rect x="477.8" y="83.5" class="st7" width="22.2" height="3.8"/>
	<rect x="477.8" y="90.8" class="st7" width="22.2" height="3.8"/>
	<rect x="477.8" y="98" class="st7" width="22.2" height="3.8"/>
	<rect x="477.8" y="105.2" class="st7" width="22.2" height="3.8"/>
	<rect x="477.8" y="112.4" class="st7" width="22.2" height="3.8"/>
	<rect x="477.8" y="119.6" class="st7" width="22.2" height="3.8"/>
	<rect x="456.7" y="126.8" class="st7" width="3.8" height="23.2"/>
	<rect x="463.7" y="126.8" class="st7" width="3.8" height="23.2"/>
	<rect x="470.8" y="126.8" class="st7" width="3.8" height="23.2"/>
	<rect x="477.8" y="126.8" class="st7" width="22.2" height="3.8"/>
	<rect x="477.8" y="134.1" class="st7" width="22.2" height="3.8"/>
	<rect x="477.8" y="141.3" class="st7" width="22.2" height="3.8"/>
	<rect x="477.8" y="148.5" class="st7" width="22.2" height="1.5"/>
	<rect x="406.3" class="st7" width="3.8" height="22.4"/>
	<rect x="413.4" class="st7" width="3.8" height="22.4"/>
	<rect x="420.4" class="st7" width="3.8" height="22.4"/>
	<rect x="427.5" class="st7" width="25.9" height="0.7"/>
	<rect x="427.5" y="4.2" class="st7" width="25.9" height="3.8"/>
	<rect x="427.5" y="11.4" class="st7" width="25.9" height="3.8"/>
	<rect x="427.5" y="18.6" class="st7" width="25.9" height="3.8"/>
	<rect x="406.3" y="25.8" class="st7" width="3.8" height="47.1"/>
	<rect x="413.4" y="25.8" class="st7" width="3.8" height="47.1"/>
	<rect x="420.4" y="25.8" class="st7" width="3.8" height="47.1"/>
	<rect x="427.5" y="25.8" class="st7" width="25.9" height="3.8"/>
	<rect x="427.5" y="33" class="st7" width="25.9" height="3.8"/>
	<rect x="427.5" y="40.2" class="st7" width="25.9" height="3.8"/>
	<rect x="427.5" y="47.5" class="st7" width="25.9" height="3.8"/>
	<rect x="427.5" y="54.7" class="st7" width="25.9" height="3.8"/>
	<rect x="427.5" y="61.9" class="st7" width="25.9" height="3.8"/>
	<rect x="427.5" y="69.1" class="st7" width="25.9" height="3.8"/>
	<rect x="406.3" y="76.3" class="st7" width="3.8" height="47.1"/>
	<rect x="413.4" y="76.3" class="st7" width="3.8" height="47.1"/>
	<rect x="420.4" y="76.3" class="st7" width="3.8" height="47.1"/>
	<rect x="427.5" y="76.3" class="st7" width="25.9" height="3.8"/>
	<rect x="427.5" y="83.5" class="st7" width="25.9" height="3.8"/>
	<rect x="427.5" y="90.8" class="st7" width="25.9" height="3.8"/>
	<rect x="427.5" y="98" class="st7" width="25.9" height="3.8"/>
	<rect x="427.5" y="105.2" class="st7" width="25.9" height="3.8"/>
	<rect x="427.5" y="112.4" class="st7" width="25.9" height="3.8"/>
	<rect x="427.5" y="119.6" class="st7" width="25.9" height="3.8"/>
	<rect x="406.3" y="126.8" class="st7" width="3.8" height="23.2"/>
	<rect x="413.4" y="126.8" class="st7" width="3.8" height="23.2"/>
	<rect x="420.4" y="126.8" class="st7" width="3.8" height="23.2"/>
	<rect x="427.5" y="126.8" class="st7" width="25.9" height="3.8"/>
	<rect x="427.5" y="134.1" class="st7" width="25.9" height="3.8"/>
	<rect x="427.5" y="141.3" class="st7" width="25.9" height="3.8"/>
	<rect x="427.5" y="148.5" class="st7" width="25.9" height="1.5"/>
	<rect x="356" class="st7" width="3.8" height="22.4"/>
	<rect x="363" class="st7" width="3.8" height="22.4"/>
	<rect x="370.1" class="st7" width="3.8" height="22.4"/>
	<rect x="377.1" class="st7" width="25.9" height="0.7"/>
	<rect x="377.1" y="4.2" class="st7" width="25.9" height="3.8"/>
	<rect x="377.1" y="11.4" class="st7" width="25.9" height="3.8"/>
	<rect x="377.1" y="18.6" class="st7" width="25.9" height="3.8"/>
	<rect x="356" y="25.8" class="st7" width="3.8" height="47.1"/>
	<rect x="363" y="25.8" class="st7" width="3.8" height="47.1"/>
	<rect x="370.1" y="25.8" class="st7" width="3.8" height="47.1"/>
	<rect x="377.1" y="25.8" class="st7" width="25.9" height="3.8"/>
	<rect x="377.1" y="33" class="st7" width="25.9" height="3.8"/>
	<rect x="377.1" y="40.2" class="st7" width="25.9" height="3.8"/>
	<rect x="377.1" y="47.5" class="st7" width="25.9" height="3.8"/>
	<rect x="377.1" y="54.7" class="st7" width="25.9" height="3.8"/>
	<rect x="377.1" y="61.9" class="st7" width="25.9" height="3.8"/>
	<rect x="377.1" y="69.1" class="st7" width="25.9" height="3.8"/>
	<rect x="356" y="76.3" class="st7" width="3.8" height="47.1"/>
	<rect x="363" y="76.3" class="st7" width="3.8" height="47.1"/>
	<rect x="370.1" y="76.3" class="st7" width="3.8" height="47.1"/>
	<rect x="377.1" y="76.3" class="st7" width="25.9" height="3.8"/>
	<rect x="377.1" y="83.5" class="st7" width="25.9" height="3.8"/>
	<rect x="377.1" y="90.8" class="st7" width="25.9" height="3.8"/>
	<rect x="377.1" y="98" class="st7" width="25.9" height="3.8"/>
	<rect x="377.1" y="105.2" class="st7" width="25.9" height="3.8"/>
	<rect x="377.1" y="112.4" class="st7" width="25.9" height="3.8"/>
	<rect x="377.1" y="119.6" class="st7" width="25.9" height="3.8"/>
	<rect x="356" y="126.8" class="st7" width="3.8" height="23.2"/>
	<rect x="363" y="126.8" class="st7" width="3.8" height="23.2"/>
	<rect x="370.1" y="126.8" class="st7" width="3.8" height="23.2"/>
	<rect x="377.1" y="126.8" class="st7" width="25.9" height="3.8"/>
	<rect x="377.1" y="134.1" class="st7" width="25.9" height="3.8"/>
	<rect x="377.1" y="141.3" class="st7" width="25.9" height="3.8"/>
	<rect x="377.1" y="148.5" class="st7" width="25.9" height="1.5"/>
	<rect x="305.6" class="st7" width="3.8" height="22.4"/>
	<rect x="312.7" class="st7" width="3.8" height="22.4"/>
	<rect x="319.7" class="st7" width="3.8" height="22.4"/>
	<rect x="326.8" class="st7" width="25.9" height="0.7"/>
	<rect x="326.8" y="4.2" class="st7" width="25.9" height="3.8"/>
	<rect x="326.8" y="11.4" class="st7" width="25.9" height="3.8"/>
	<rect x="326.8" y="18.6" class="st7" width="25.9" height="3.8"/>
	<rect x="305.6" y="25.8" class="st7" width="3.8" height="47.1"/>
	<rect x="312.7" y="25.8" class="st7" width="3.8" height="47.1"/>
	<rect x="319.7" y="25.8" class="st7" width="3.8" height="47.1"/>
	<rect x="326.8" y="25.8" class="st7" width="25.9" height="3.8"/>
	<rect x="326.8" y="33" class="st7" width="25.9" height="3.8"/>
	<rect x="326.8" y="40.2" class="st7" width="25.9" height="3.8"/>
	<rect x="326.8" y="47.5" class="st7" width="25.9" height="3.8"/>
	<rect x="326.8" y="54.7" class="st7" width="25.9" height="3.8"/>
	<rect x="326.8" y="61.9" class="st7" width="25.9" height="3.8"/>
	<rect x="326.8" y="69.1" class="st7" width="25.9" height="3.8"/>
	<rect x="305.6" y="76.3" class="st7" width="3.8" height="47.1"/>
	<rect x="312.7" y="76.3" class="st7" width="3.8" height="47.1"/>
	<rect x="319.7" y="76.3" class="st7" width="3.8" height="47.1"/>
	<rect x="326.8" y="76.3" class="st7" width="25.9" height="3.8"/>
	<rect x="326.8" y="83.5" class="st7" width="25.9" height="3.8"/>
	<rect x="326.8" y="90.8" class="st7" width="25.9" height="3.8"/>
	<rect x="326.8" y="98" class="st7" width="25.9" height="3.8"/>
	<rect x="326.8" y="105.2" class="st7" width="25.9" height="3.8"/>
	<rect x="326.8" y="112.4" class="st7" width="25.9" height="3.8"/>
	<rect x="326.8" y="119.6" class="st7" width="25.9" height="3.8"/>
	<rect x="305.6" y="126.8" class="st7" width="3.8" height="23.2"/>
	<rect x="312.7" y="126.8" class="st7" width="3.8" height="23.2"/>
	<rect x="319.7" y="126.8" class="st7" width="3.8" height="23.2"/>
	<rect x="326.8" y="126.8" class="st7" width="25.9" height="3.8"/>
	<rect x="326.8" y="134.1" class="st7" width="25.9" height="3.8"/>
	<rect x="326.8" y="141.3" class="st7" width="25.9" height="3.8"/>
	<rect x="326.8" y="148.5" class="st7" width="25.9" height="1.5"/>
	<rect x="255.3" class="st7" width="3.8" height="22.4"/>
	<rect x="262.3" class="st7" width="3.8" height="22.4"/>
	<rect x="269.4" class="st7" width="3.8" height="22.4"/>
	<rect x="276.4" class="st7" width="25.9" height="0.7"/>
	<rect x="276.4" y="4.2" class="st7" width="25.9" height="3.8"/>
	<rect x="276.4" y="11.4" class="st7" width="25.9" height="3.8"/>
	<rect x="276.4" y="18.6" class="st7" width="25.9" height="3.8"/>
	<rect x="255.3" y="25.8" class="st7" width="3.8" height="47.1"/>
	<rect x="262.3" y="25.8" class="st7" width="3.8" height="47.1"/>
	<rect x="269.4" y="25.8" class="st7" width="3.8" height="47.1"/>
	<rect x="276.4" y="25.8" class="st7" width="25.9" height="3.8"/>
	<rect x="276.4" y="33" class="st7" width="25.9" height="3.8"/>
	<rect x="276.4" y="40.2" class="st7" width="25.9" height="3.8"/>
	<rect x="276.4" y="47.5" class="st7" width="25.9" height="3.8"/>
	<rect x="276.4" y="54.7" class="st7" width="25.9" height="3.8"/>
	<rect x="276.4" y="61.9" class="st7" width="25.9" height="3.8"/>
	<rect x="276.4" y="69.1" class="st7" width="25.9" height="3.8"/>
	<rect x="255.3" y="76.3" class="st7" width="3.8" height="47.1"/>
	<rect x="262.3" y="76.3" class="st7" width="3.8" height="47.1"/>
	<rect x="269.4" y="76.3" class="st7" width="3.8" height="47.1"/>
	<rect x="276.4" y="76.3" class="st7" width="25.9" height="3.8"/>
	<rect x="276.4" y="83.5" class="st7" width="25.9" height="3.8"/>
	<rect x="276.4" y="90.8" class="st7" width="25.9" height="3.8"/>
	<rect x="276.4" y="98" class="st7" width="25.9" height="3.8"/>
	<rect x="276.4" y="105.2" class="st7" width="25.9" height="3.8"/>
	<rect x="276.4" y="112.4" class="st7" width="25.9" height="3.8"/>
	<rect x="276.4" y="119.6" class="st7" width="25.9" height="3.8"/>
	<rect x="255.3" y="126.8" class="st7" width="3.8" height="23.2"/>
	<rect x="262.3" y="126.8" class="st7" width="3.8" height="23.2"/>
	<rect x="269.4" y="126.8" class="st7" width="3.8" height="23.2"/>
	<rect x="276.4" y="126.8" class="st7" width="25.9" height="3.8"/>
	<rect x="276.4" y="134.1" class="st7" width="25.9" height="3.8"/>
	<rect x="276.4" y="141.3" class="st7" width="25.9" height="3.8"/>
	<rect x="276.4" y="148.5" class="st7" width="25.9" height="1.5"/>
	<rect x="204.9" class="st7" width="3.8" height="22.4"/>
	<rect x="212" class="st7" width="3.8" height="22.4"/>
	<rect x="219" class="st7" width="3.8" height="22.4"/>
	<rect x="226.1" class="st7" width="25.9" height="0.7"/>
	<rect x="226.1" y="4.2" class="st7" width="25.9" height="3.8"/>
	<rect x="226.1" y="11.4" class="st7" width="25.9" height="3.8"/>
	<rect x="226.1" y="18.6" class="st7" width="25.9" height="3.8"/>
	<rect x="204.9" y="25.8" class="st7" width="3.8" height="47.1"/>
	<rect x="212" y="25.8" class="st7" width="3.8" height="47.1"/>
	<rect x="219" y="25.8" class="st7" width="3.8" height="47.1"/>
	<rect x="226.1" y="25.8" class="st7" width="25.9" height="3.8"/>
	<rect x="226.1" y="33" class="st7" width="25.9" height="3.8"/>
	<rect x="226.1" y="40.2" class="st7" width="25.9" height="3.8"/>
	<rect x="226.1" y="47.5" class="st7" width="25.9" height="3.8"/>
	<rect x="226.1" y="54.7" class="st7" width="25.9" height="3.8"/>
	<rect x="226.1" y="61.9" class="st7" width="25.9" height="3.8"/>
	<rect x="226.1" y="69.1" class="st7" width="25.9" height="3.8"/>
	<rect x="204.9" y="76.3" class="st7" width="3.8" height="47.1"/>
	<rect x="212" y="76.3" class="st7" width="3.8" height="47.1"/>
	<rect x="219" y="76.3" class="st7" width="3.8" height="47.1"/>
	<rect x="226.1" y="76.3" class="st7" width="25.9" height="3.8"/>
	<rect x="226.1" y="83.5" class="st7" width="25.9" height="3.8"/>
	<rect x="226.1" y="90.8" class="st7" width="25.9" height="3.8"/>
	<rect x="226.1" y="98" class="st7" width="25.9" height="3.8"/>
	<rect x="226.1" y="105.2" class="st7" width="25.9" height="3.8"/>
	<rect x="226.1" y="112.4" class="st7" width="25.9" height="3.8"/>
	<rect x="226.1" y="119.6" class="st7" width="25.9" height="3.8"/>
	<rect x="204.9" y="126.8" class="st7" width="3.8" height="23.2"/>
	<rect x="212" y="126.8" class="st7" width="3.8" height="23.2"/>
	<rect x="219" y="126.8" class="st7" width="3.8" height="23.2"/>
	<rect x="226.1" y="126.8" class="st7" width="25.9" height="3.8"/>
	<rect x="226.1" y="134.1" class="st7" width="25.9" height="3.8"/>
	<rect x="226.1" y="141.3" class="st7" width="25.9" height="3.8"/>
	<rect x="226.1" y="148.5" class="st7" width="25.9" height="1.5"/>
	<rect x="154.6" class="st7" width="3.8" height="22.4"/>
	<rect x="161.6" class="st7" width="3.8" height="22.4"/>
	<rect x="168.7" class="st7" width="3.8" height="22.4"/>
	<rect x="175.8" class="st7" width="25.9" height="0.7"/>
	<rect x="175.8" y="4.2" class="st7" width="25.9" height="3.8"/>
	<rect x="175.8" y="11.4" class="st7" width="25.9" height="3.8"/>
	<rect x="175.8" y="18.6" class="st7" width="25.9" height="3.8"/>
	<rect x="154.6" y="25.8" class="st7" width="3.8" height="47.1"/>
	<rect x="161.6" y="25.8" class="st7" width="3.8" height="47.1"/>
	<rect x="168.7" y="25.8" class="st7" width="3.8" height="47.1"/>
	<rect x="175.8" y="25.8" class="st7" width="25.9" height="3.8"/>
	<rect x="175.8" y="33" class="st7" width="25.9" height="3.8"/>
	<rect x="175.8" y="40.2" class="st7" width="25.9" height="3.8"/>
	<rect x="175.8" y="47.5" class="st7" width="25.9" height="3.8"/>
	<rect x="175.8" y="54.7" class="st7" width="25.9" height="3.8"/>
	<rect x="175.8" y="61.9" class="st7" width="25.9" height="3.8"/>
	<rect x="175.8" y="69.1" class="st7" width="25.9" height="3.8"/>
	<rect x="154.6" y="76.3" class="st7" width="3.8" height="47.1"/>
	<rect x="161.6" y="76.3" class="st7" width="3.8" height="47.1"/>
	<rect x="168.7" y="76.3" class="st7" width="3.8" height="47.1"/>
	<rect x="175.8" y="76.3" class="st7" width="25.9" height="3.8"/>
	<rect x="175.8" y="83.5" class="st7" width="25.9" height="3.8"/>
	<rect x="175.8" y="90.8" class="st7" width="25.9" height="3.8"/>
	<rect x="175.8" y="98" class="st7" width="25.9" height="3.8"/>
	<rect x="175.8" y="105.2" class="st7" width="25.9" height="3.8"/>
	<rect x="175.8" y="112.4" class="st7" width="25.9" height="3.8"/>
	<rect x="175.8" y="119.6" class="st7" width="25.9" height="3.8"/>
	<rect x="154.6" y="126.8" class="st7" width="3.8" height="23.2"/>
	<rect x="161.6" y="126.8" class="st7" width="3.8" height="23.2"/>
	<rect x="168.7" y="126.8" class="st7" width="3.8" height="23.2"/>
	<rect x="175.8" y="126.8" class="st7" width="25.9" height="3.8"/>
	<rect x="175.8" y="134.1" class="st7" width="25.9" height="3.8"/>
	<rect x="175.8" y="141.3" class="st7" width="25.9" height="3.8"/>
	<rect x="175.8" y="148.5" class="st7" width="25.9" height="1.5"/>
	<rect x="104.2" class="st7" width="3.8" height="22.4"/>
	<rect x="111.3" class="st7" width="3.8" height="22.4"/>
	<rect x="118.3" class="st7" width="3.8" height="22.4"/>
	<rect x="125.4" class="st7" width="25.9" height="0.7"/>
	<rect x="125.4" y="4.2" class="st7" width="25.9" height="3.8"/>
	<rect x="125.4" y="11.4" class="st7" width="25.9" height="3.8"/>
	<rect x="125.4" y="18.6" class="st7" width="25.9" height="3.8"/>
	<rect x="104.2" y="25.8" class="st7" width="3.8" height="47.1"/>
	<rect x="111.3" y="25.8" class="st7" width="3.8" height="47.1"/>
	<rect x="118.3" y="25.8" class="st7" width="3.8" height="47.1"/>
	<rect x="125.4" y="25.8" class="st7" width="25.9" height="3.8"/>
	<rect x="125.4" y="33" class="st7" width="25.9" height="3.8"/>
	<rect x="125.4" y="40.2" class="st7" width="25.9" height="3.8"/>
	<rect x="125.4" y="47.5" class="st7" width="25.9" height="3.8"/>
	<rect x="125.4" y="54.7" class="st7" width="25.9" height="3.8"/>
	<rect x="125.4" y="61.9" class="st7" width="25.9" height="3.8"/>
	<rect x="125.4" y="69.1" class="st7" width="25.9" height="3.8"/>
	<rect x="104.2" y="76.3" class="st7" width="3.8" height="47.1"/>
	<rect x="111.3" y="76.3" class="st7" width="3.8" height="47.1"/>
	<rect x="118.3" y="76.3" class="st7" width="3.8" height="47.1"/>
	<rect x="125.4" y="76.3" class="st7" width="25.9" height="3.8"/>
	<rect x="125.4" y="83.5" class="st7" width="25.9" height="3.8"/>
	<rect x="125.4" y="90.8" class="st7" width="25.9" height="3.8"/>
	<rect x="125.4" y="98" class="st7" width="25.9" height="3.8"/>
	<rect x="125.4" y="105.2" class="st7" width="25.9" height="3.8"/>
	<rect x="125.4" y="112.4" class="st7" width="25.9" height="3.8"/>
	<rect x="125.4" y="119.6" class="st7" width="25.9" height="3.8"/>
	<rect x="104.2" y="126.8" class="st7" width="3.8" height="23.2"/>
	<rect x="111.3" y="126.8" class="st7" width="3.8" height="23.2"/>
	<rect x="118.3" y="126.8" class="st7" width="3.8" height="23.2"/>
	<rect x="125.4" y="126.8" class="st7" width="25.9" height="3.8"/>
	<rect x="125.4" y="134.1" class="st7" width="25.9" height="3.8"/>
	<rect x="125.4" y="141.3" class="st7" width="25.9" height="3.8"/>
	<rect x="125.4" y="148.5" class="st7" width="25.9" height="1.5"/>
	<rect x="53.9" class="st7" width="3.8" height="22.4"/>
	<rect x="60.9" class="st7" width="3.8" height="22.4"/>
	<rect x="68" class="st7" width="3.8" height="22.4"/>
	<rect x="75.1" class="st7" width="25.9" height="0.7"/>
	<rect x="75.1" y="4.2" class="st7" width="25.9" height="3.8"/>
	<rect x="75.1" y="11.4" class="st7" width="25.9" height="3.8"/>
	<rect x="75.1" y="18.6" class="st7" width="25.9" height="3.8"/>
	<rect x="53.9" y="25.8" class="st7" width="3.8" height="47.1"/>
	<rect x="60.9" y="25.8" class="st7" width="3.8" height="47.1"/>
	<rect x="68" y="25.8" class="st7" width="3.8" height="47.1"/>
	<rect x="75.1" y="25.8" class="st7" width="25.9" height="3.8"/>
	<rect x="75.1" y="33" class="st7" width="25.9" height="3.8"/>
	<rect x="75.1" y="40.2" class="st7" width="25.9" height="3.8"/>
	<rect x="75.1" y="47.5" class="st7" width="25.9" height="3.8"/>
	<rect x="75.1" y="54.7" class="st7" width="25.9" height="3.8"/>
	<rect x="75.1" y="61.9" class="st7" width="25.9" height="3.8"/>
	<rect x="75.1" y="69.1" class="st7" width="25.9" height="3.8"/>
	<rect x="53.9" y="76.3" class="st7" width="3.8" height="47.1"/>
	<rect x="60.9" y="76.3" class="st7" width="3.8" height="47.1"/>
	<rect x="68" y="76.3" class="st7" width="3.8" height="47.1"/>
	<rect x="75.1" y="76.3" class="st7" width="25.9" height="3.8"/>
	<rect x="75.1" y="83.5" class="st7" width="25.9" height="3.8"/>
	<rect x="75.1" y="90.8" class="st7" width="25.9" height="3.8"/>
	<rect x="75.1" y="98" class="st7" width="25.9" height="3.8"/>
	<rect x="75.1" y="105.2" class="st7" width="25.9" height="3.8"/>
	<rect x="75.1" y="112.4" class="st7" width="25.9" height="3.8"/>
	<rect x="75.1" y="119.6" class="st7" width="25.9" height="3.8"/>
	<rect x="53.9" y="126.8" class="st7" width="3.8" height="23.2"/>
	<rect x="60.9" y="126.8" class="st7" width="3.8" height="23.2"/>
	<rect x="68" y="126.8" class="st7" width="3.8" height="23.2"/>
	<rect x="75.1" y="126.8" class="st7" width="25.9" height="3.8"/>
	<rect x="75.1" y="134.1" class="st7" width="25.9" height="3.8"/>
	<rect x="75.1" y="141.3" class="st7" width="25.9" height="3.8"/>
	<rect x="75.1" y="148.5" class="st7" width="25.9" height="1.5"/>
	<rect x="3.5" class="st7" width="3.8" height="22.4"/>
	<rect x="10.6" class="st7" width="3.8" height="22.4"/>
	<rect x="17.6" class="st7" width="3.8" height="22.4"/>
	<rect x="24.7" class="st7" width="25.9" height="0.7"/>
	<rect x="24.7" y="4.2" class="st7" width="25.9" height="3.8"/>
	<rect x="24.7" y="11.4" class="st7" width="25.9" height="3.8"/>
	<rect x="24.7" y="18.6" class="st7" width="25.9" height="3.8"/>
	<rect x="3.5" y="25.8" class="st7" width="3.8" height="47.1"/>
	<rect x="10.6" y="25.8" class="st7" width="3.8" height="47.1"/>
	<rect x="17.6" y="25.8" class="st7" width="3.8" height="47.1"/>
	<rect x="24.7" y="25.8" class="st7" width="25.9" height="3.8"/>
	<rect x="24.7" y="33" class="st7" width="25.9" height="3.8"/>
	<rect x="24.7" y="40.2" class="st7" width="25.9" height="3.8"/>
	<rect x="24.7" y="47.5" class="st7" width="25.9" height="3.8"/>
	<rect x="24.7" y="54.7" class="st7" width="25.9" height="3.8"/>
	<rect x="24.7" y="61.9" class="st7" width="25.9" height="3.8"/>
	<rect x="24.7" y="69.1" class="st7" width="25.9" height="3.8"/>
	<rect x="3.5" y="76.3" class="st7" width="3.8" height="47.1"/>
	<rect x="10.6" y="76.3" class="st7" width="3.8" height="47.1"/>
	<rect x="17.6" y="76.3" class="st7" width="3.8" height="47.1"/>
	<rect x="24.7" y="76.3" class="st7" width="25.9" height="3.8"/>
	<rect x="24.7" y="83.5" class="st7" width="25.9" height="3.8"/>
	<rect x="24.7" y="90.8" class="st7" width="25.9" height="3.8"/>
	<rect x="24.7" y="98" class="st7" width="25.9" height="3.8"/>
	<rect x="24.7" y="105.2" class="st7" width="25.9" height="3.8"/>
	<rect x="24.7" y="112.4" class="st7" width="25.9" height="3.8"/>
	<rect x="24.7" y="119.6" class="st7" width="25.9" height="3.8"/>
	<rect x="3.5" y="126.8" class="st7" width="3.8" height="23.2"/>
	<rect x="10.6" y="126.8" class="st7" width="3.8" height="23.2"/>
	<rect x="17.6" y="126.8" class="st7" width="3.8" height="23.2"/>
	<rect x="24.7" y="126.8" class="st7" width="25.9" height="3.8"/>
	<rect x="24.7" y="134.1" class="st7" width="25.9" height="3.8"/>
	<rect x="24.7" y="141.3" class="st7" width="25.9" height="3.8"/>
	<rect x="24.7" y="148.5" class="st7" width="25.9" height="1.5"/>
	<rect class="st7" width="0.3" height="0.7"/>
	<rect y="4.2" class="st7" width="0.3" height="3.8"/>
	<rect y="11.4" class="st7" width="0.3" height="3.8"/>
	<rect y="18.6" class="st7" width="0.3" height="3.8"/>
	<rect y="25.8" class="st7" width="0.3" height="3.8"/>
	<rect y="33" class="st7" width="0.3" height="3.8"/>
	<rect y="40.2" class="st7" width="0.3" height="3.8"/>
	<rect y="47.5" class="st7" width="0.3" height="3.8"/>
	<rect y="54.7" class="st7" width="0.3" height="3.8"/>
	<rect y="61.9" class="st7" width="0.3" height="3.8"/>
	<rect y="69.1" class="st7" width="0.3" height="3.8"/>
	<rect y="76.3" class="st7" width="0.3" height="3.8"/>
	<rect y="83.5" class="st7" width="0.3" height="3.8"/>
	<rect y="90.8" class="st7" width="0.3" height="3.8"/>
	<rect y="98" class="st7" width="0.3" height="3.8"/>
	<rect y="105.2" class="st7" width="0.3" height="3.8"/>
	<rect y="112.4" class="st7" width="0.3" height="3.8"/>
	<rect y="119.6" class="st7" width="0.3" height="3.8"/>
	<rect y="126.8" class="st7" width="0.3" height="3.8"/>
	<rect y="134.1" class="st7" width="0.3" height="3.8"/>
	<rect y="141.3" class="st7" width="0.3" height="3.8"/>
	<rect y="148.5" class="st7" width="0.3" height="1.5"/>
</g>
<g>
</g>
<g>
</g>
<g>
</g>
<g>
</g>
<g>
</g>
<g>
</g>
</svg>
