<?xml version="1.0" encoding="utf-8"?>
<!-- Generator: Adobe Illustrator 21.1.0, SVG Export Plug-In . SVG Version: 6.00 Build 0)  -->
<svg version="1.1" id="レイヤー_1" xmlns="http://www.w3.org/2000/svg" xmlns:xlink="http://www.w3.org/1999/xlink" x="0px"
	 y="0px" viewBox="0 0 823.7 229.9" style="enable-background:new 0 0 823.7 229.9;" xml:space="preserve">
<style type="text/css">
	.st0{enable-background:new    ;}
</style>
<g class="st0">
	<path d="M17.9,73.7l2.2-0.2l-1,7.5l12.7-1.1l1-8.5l2.2-0.2l-1,8.5l6.6-0.6l-0.3,2.1l-6.6,0.6L33.3,85c-0.7,6-2.3,12.7-12,17.8
		l-1.3-1.6c9.1-4.5,10.5-10.3,11.2-16.2l0.4-3l-12.7,1.1l-1.2,10.1l-2.2,0.2l1.2-10.1l-6.5,0.6l0.3-2.1l6.5-0.6L17.9,73.7z"/>
	<path d="M49.9,70.4l-3.3,27C59.6,93.3,67,84.3,69.7,81l1.4,1.4c-3.6,4.5-11.8,13.9-27,17.9l3.6-29.6L49.9,70.4z"/>
	<path d="M84.2,82.1c-2.6-1.1-5-2-9.2-3.2l1.2-2.1c3.9,1.1,6.3,1.9,9.1,3.1L84.2,82.1z M103.6,76.3c-6,7.8-15.5,17.2-27.9,21.6
		L75,95.7c7-2.1,17.7-8.3,27.6-21.3L103.6,76.3z M88.3,72.9c-3.6-1.5-6.1-2.3-9.1-3.2l1.2-2c3.4,1,5.8,1.8,9.1,3.1L88.3,72.9z
		 M98.6,65.3c1.7,1.8,2.8,3.5,3.9,5.8l-1.9,1.6c-1-2-1.9-3.9-3.7-6L98.6,65.3z M103.4,62.6c2.2,2.4,3.4,4.9,3.9,5.8l-1.9,1.6
		c-0.7-1.6-2-4.1-3.7-6L103.4,62.6z"/>
	<path d="M106.2,90c3.1-2.1,10.7-7.2,18.4-17.5l-16.4,1.4l0.3-2l17.3-1.5l0.9-7.4l2.1-0.2l-0.8,7.4l9.3-0.8l-0.3,2l-9.2,0.8
		l-1.9,16.5c-0.4,3.9-1.2,4.7-7,5.2l-0.4-2.1c0.6,0,1.3-0.1,2.3-0.2c2.7-0.2,2.7-0.7,3-3.2l1.6-13.9c-7.4,9.7-14.6,14.7-17.9,17
		L106.2,90z"/>
	<path d="M172.8,60.4l-0.2,1.9l-14.2,1.2l-3.1,25.1l15.4-1.3l-0.2,1.9L137.7,92l0.2-1.9l15.2-1.3l3.1-25.1l-13.8,1.2l0.2-1.9
		L172.8,60.4z"/>
	<path d="M204.7,87.5c-7-2-9.4-3.8-12.9-7.4l-1.1,9.3l-1.8,0.2l1.1-9.2c-2.3,2.5-6.9,6.5-15.1,9.8l-1-1.8c7.6-2.6,11.5-5.6,14.7-8.8
		l-14,1.2l0.2-1.7l15.5-1.4l0.4-3.3l-12.9,1.1l0.2-1.7l12.9-1.1l0.4-3l-14.1,1.2l0.2-1.7l8.2-0.7c-0.1-1.1-0.2-1.9-0.7-4.2l-8.5,0.7
		l0.2-1.7l6.2-0.5c-0.6-2-1.3-3.4-1.9-4.5l1.9-1c1,1.9,1.5,3.5,2,5.4l3.9-0.3l0.7-5.8l1.9-0.2l-0.7,5.8l4.7-0.4L196,56l1.8-0.2
		l-0.7,5.8l3.6-0.3c1.2-1.7,2.4-3.7,3.7-5.9l1.7,0.7c-1,1.7-1.9,3.1-3.3,5l6.7-0.6l-0.2,1.7l-8.7,0.8c-0.5,1.4-1,2.6-1.8,4.5
		l8.4-0.7l-0.2,1.7l-14.1,1.2l-0.4,3l12.9-1.1l-0.2,1.7l-12.9,1.1l-0.4,3.3l15.6-1.4l-0.2,1.7l-13.9,1c4.2,4.3,8.9,5.9,12.8,6.4
		L204.7,87.5z M197.1,67.4c0.8-1.7,1.2-2.8,1.8-4.5L187,64c0.2,1.5,0.4,2.3,0.6,4.2L197.1,67.4z"/>
	<path d="M240.8,82.5c-0.2,1.7-1.1,2.5-2.6,2.6l-5.5,0.5l-0.2-2.1l5.1-0.4c0.4,0,1-0.1,1.2-1.3l1.4-11.4l-25.6,2.2l-1.8,14.6l-2,0.2
		l2-16.4l29.7-2.6L240.8,82.5z M245.6,56l-32.9,2.9l0.2-1.8l15.4-1.3l0.4-2.9l2.1-0.2l-0.4,2.9l15.4-1.3L245.6,56z M239.4,66.3
		l-23,2l0.9-7.3l23-2L239.4,66.3z M234.5,80.8l-16.6,1.5l0.9-7.2l16.6-1.5L234.5,80.8z M238.1,60.8l-19,1.7l-0.5,4.2l19-1.7
		L238.1,60.8z M233.3,75.3l-12.8,1.1l-0.5,4l12.8-1.1L233.3,75.3z"/>
	<path d="M278.4,60.7L265,61.8l-0.5,4.1l15.5-1.4l-0.2,1.8l-7.1,0.6l-0.5,3.9l6.8-0.6l-0.2,1.8l-6.8,0.6l-0.8,6.7
		c-0.3,2.1-0.5,2.9-3.5,3.2l-5.1,0.4l-0.1-2.2l5.4-0.3c1-0.1,1.2-0.3,1.4-1.2l0.8-6.5l-23.4,2l0.2-1.8l23.4-2l0.5-3.9l-23.7,2.1
		l0.2-1.8l15.3-1.3l0.4-4l-13.3,1.2l0.2-1.8l13.3-1.2l0.3-2.3l2-0.2l-0.3,2.3l13.4-1.2L278.4,60.7z M264.3,52.6l-0.2,1.8l-6.1,0.5
		c0.6,2.5,0.7,2.8,0.9,3.7l-2.3,0.8c-0.2-2-0.6-3.6-0.7-4.3l-2.5,0.2c-1.9,2.4-3.7,3.9-4.4,4.5l-1-1.5c1.4-1.1,4-3.4,6.4-7.9
		l1.9,0.3c-0.7,1.3-1,1.9-1.6,2.7L264.3,52.6z M256.9,81.5c-1.4-2.2-2.8-3.7-4.4-5.2l1.6-1.4c2,1.7,3.2,3.1,4.6,5L256.9,81.5z
		 M281.6,51.1l-0.2,1.8l-8.1,0.7c0.7,2.1,0.9,2.8,1.1,3.7l-2.1,0.7c-0.3-1.9-0.6-2.7-1.1-4.3l-3.5,0.3c-1,1.2-1.6,2-3.5,3.7
		l-1.4-1.1c2-1.8,4.1-4,5.9-7.5l1.9,0.3c-0.4,0.9-0.8,1.6-1.5,2.7L281.6,51.1z"/>
	<path d="M300.4,46.6l1.9-0.2l-0.3,2.7l15-1.3l-0.2,1.8l-15,1.3l-0.3,2.7l12.3-1.1l-1.5,12.2l-4.3,0.4l-0.4,2.9l7.5-0.7l-0.2,1.8
		l-7.5,0.7l-0.9,7c-0.3,2.4-2,2.6-3.2,2.7l-4.4,0.4l-0.3-2.1l4.8-0.3c0.8-0.1,1.1-0.2,1.2-1l0.8-6.5l-23.2,2l0.2-1.8l23.2-2l0.4-2.9
		l-20,1.8l1.5-12.2l12.1-1.1l0.3-2.7l-14.8,1.3l0.2-1.8l14.8-1.3L300.4,46.6z M293,78.6c-1.8-2.5-3.7-4.2-5.1-5.3l1.5-1.4
		c1.4,1.1,3.8,3.1,5.3,5.3L293,78.6z M298.7,60.5l-10.3,0.9l-0.5,3.7l10.3-0.9L298.7,60.5z M299.3,55.4L289,56.3l-0.4,3.5l10.3-0.9
		L299.3,55.4z M311,59.5l-10.4,0.9l-0.5,3.7l10.4-0.9L311,59.5z M311.6,54.3l-10.4,0.9l-0.4,3.5l10.4-0.9L311.6,54.3z"/>
	<path d="M317.9,78.1l3.9-32.1l13.3-1.2l-1.7,13.5l-11.4,1L319.8,78L317.9,78.1z M322.8,53.4l-0.5,4.2l9.5-0.8l0.5-4.2L322.8,53.4z
		 M323.5,47.6l-0.5,4.1l9.5-0.8l0.5-4.1L323.5,47.6z M352.5,43.3L349,72.2c-0.2,1.6-0.4,3.2-3.2,3.5l-5.1,0.4l-0.1-2l4.8-0.3
		c1.5-0.1,1.6-0.8,1.7-1.9l1.8-14.9l-11.3,1l1.7-13.5L352.5,43.3z M340.2,51.9l-0.5,4.2l9.4-0.8l0.5-4.2L340.2,51.9z M341,46.1
		l-0.5,4.1l9.4-0.8l0.5-4.1L341,46.1z"/>
	<path d="M382,53c-3.3,2.9-5.8,4.5-9.9,6.9l-0.2,1.3l15.1-1.3l-0.2,1.9L371.7,63l-1,8.1c-0.3,2.5-1.7,2.6-3.2,2.7l-6,0.5l-0.2-2.2
		l6-0.4c1.2-0.1,1.4-0.2,1.6-1.2l0.9-7.3L354,64.6l0.2-1.9l15.7-1.4l0.4-3.2l1.6-0.1c2-1,4.7-2.8,7-4.7l-18.1,1.6l0.2-1.8l21.2-1.9
		L382,53z M388,45.1l-0.9,7.6l-2.1,0.2l0.7-5.9l-26.9,2.4l-0.7,5.9l-2,0.2l0.9-7.6l22.8-2c1.2-1.6,3-4.5,3.9-6.3l1.8,0.6
		c-0.6,1.1-2.2,3.7-3.5,5.5L388,45.1z M362.8,46.8c-0.5-1.5-1.3-3.1-2.2-4.4l1.7-0.9c1.2,1.7,2,3.8,2.3,4.5L362.8,46.8z M372.3,45.4
		c-0.5-1.3-1.4-3.3-2.1-4.5l1.9-0.9c0.7,1.1,1.2,2,2.1,4.5L372.3,45.4z"/>
	<path d="M401,58.4c-1.4-2.2-2.3-4.3-3-6.1l-2.3,19.1l-1.9,0.2l2.2-18.2c-1.6,3.5-3.4,6.9-6,9.9l-0.8-2.1c3.5-4,5.8-8.9,7.4-13.7
		l-5.2,0.5l0.2-1.8l5.3-0.5L398,38l1.9-0.2l-0.9,7.7l4.6-0.4l-0.2,1.8l-4.6,0.4l-0.2,1.3c1.4,4.9,3.3,7,4.1,7.9L401,58.4z M398.9,69
		c6.5-2.3,9.7-5.2,11.2-6.5c-1-1.3-2.8-3.8-4.1-9.3l1.8-0.8c1,5,2.8,7.5,3.7,8.6c1.4-1.6,3.6-4.2,5.9-9.4l1.8,0.5
		c-3,6.2-5.5,8.9-6.5,10.1c1.1,1.1,3.8,3.1,9.4,4.7l-1.3,2.1c-6.1-1.8-8.3-4-9.6-5.2c-2.7,2.6-6.2,5-11.5,7.2L398.9,69z M402.3,51.8
		c1.9-1.4,4.3-3.3,6.9-6.8l1.6,0.8c-2.8,3.7-5.6,6.1-7.3,7.3L402.3,51.8z M415.7,36.4l-0.6,4.7l9.8-0.9l-0.2,1.9L403.6,44l0.2-1.9
		l9.3-0.8l0.6-4.7L415.7,36.4z M422.4,51.4c-3.1-2.2-5.2-5-6.1-6.2l1.7-1.1c2.2,2.8,3.8,4.3,5.8,5.7L422.4,51.4z"/>
</g>
<g class="st0">
	<path d="M474.2,32l-16.1,1.4l-2.9,11.7c0.4-0.1,0.9-0.2,1.5-0.3s1.2-0.1,1.8-0.2c2.4-0.2,4.5-0.1,6.2,0.3c1.8,0.4,3.2,1.1,4.3,2.1
		c1.1,0.9,1.8,2.1,2.3,3.5c0.4,1.4,0.6,3,0.3,4.7c-0.5,4.3-2.6,7.8-6.3,10.4c-3.7,2.7-8.8,4.3-15.2,4.8h-0.5l0.6-2.5
		c0.3,0,0.5,0,0.9,0c0.3,0,0.7,0,1.1-0.1c2.6-0.2,4.8-0.7,6.9-1.4c2-0.7,3.8-1.6,5.3-2.7c1.5-1.1,2.6-2.3,3.5-3.7s1.4-2.9,1.6-4.6
		c0.2-1.5,0.1-2.8-0.3-4s-1-2.2-2-3s-2.2-1.4-3.7-1.7c-1.5-0.4-3.4-0.5-5.5-0.3c-0.9,0.1-1.8,0.2-2.7,0.3c-0.9,0.1-1.7,0.3-2.6,0.5
		l3.9-16l18.3-1.6L474.2,32z"/>
</g>
<g class="st0">
	<path d="M484.4,65.3l4.3-34.6l-5.2,0.7l0.6-2.2l7-0.6l-4.5,36.6L484.4,65.3z"/>
</g>
<g class="st0">
	<path d="M499.9,60.7c2.2-2.1,4.4-4.4,6.4-8l1.5,0.8c-1.8,3.1-3.9,5.7-6.8,8.5L499.9,60.7z M509.4,28.3l-0.5,4.5l8.4-0.7l0.5-4.5
		l1.9-0.2l-0.5,4.5l2.7-0.2l-0.2,1.8l-2.7,0.2l-2,15.4l2.7-0.2l-0.2,1.8l-18,1.6l0.2-1.8l3.2-0.3l1.9-15.5l-2.7,0.2l0.2-1.8l2.7-0.2
		l0.5-4.5L509.4,28.3z M515.6,45l-8.4,0.7l-0.5,4.3l8.4-0.7L515.6,45z M516.3,39.4l-8.4,0.7l-0.5,4.1l8.4-0.7L516.3,39.4z M517,33.8
		l-8.4,0.7l-0.5,3.9l8.4-0.7L517,33.8z M515.1,57.8c-0.8-1.6-1.6-2.7-3.1-4.3l1.5-1.3c1.1,1.2,2.1,2.4,3.1,4.2L515.1,57.8z
		 M523.2,48.4c-1,4.3-2.9,8.8-6.1,12l-1.2-1.2c1.4-1.5,4.8-5.3,6-14.4l2-16.5l11.8-1L532,57.2c-0.2,1.5-0.7,2.4-2.9,2.6l-3.8,0.3
		l-0.2-2l4.1-0.1c0.7,0,0.9-0.1,1-1.1l1.1-9.1L523.2,48.4z M532.4,38.2l-7.9,0.7l-0.6,5.2c-0.1,0.8-0.2,1.4-0.3,2.5l7.9-0.7
		L532.4,38.2z M533.5,29.2l-7.9,0.7l-0.9,7.3l7.9-0.7L533.5,29.2z"/>
	<path d="M541,55.7c9.2-3.9,11.5-9.1,12.6-16.7l-14.7,1.3l0.3-2.1l29.7-2.6l-0.3,2.1l-12.8,1.1c-0.9,5.9-2.5,13.9-13.6,18.6
		L541,55.7z M563.4,26.8l-0.3,2.2L544,30.7l0.3-2.2L563.4,26.8z M566.7,23c0.9,2.2,1.5,4.3,2,7l-2.2,1.1c-0.3-2.1-0.7-4.5-1.8-7.1
		L566.7,23z M571.7,21c1.2,2.8,1.6,4.7,2,7l-2.2,1.1c-0.2-1.4-0.6-4.1-1.8-7.1L571.7,21z"/>
	<path d="M582.4,24.3l2.2-0.2l-0.9,7.5l12.6-1.1l1-7.9l2.2-0.2l-1,7.9l6.4-0.6l-0.3,2.1l-6.4,0.6l-0.4,3.4
		c-0.6,5-1.9,12.4-11.9,17.6l-1.4-1.6c9-4.3,10.4-10.3,11.1-15.8l0.4-3.4l-12.6,1.1l-1.2,10L580,44l1.2-10l-6.6,0.6l0.3-2.1l6.6-0.6
		L582.4,24.3z M602.8,19.3c0.9,2.6,1.3,4.9,1.5,7.2l-2.2,1c-0.1-1.6-0.3-4.2-1.4-7.3L602.8,19.3z M607.8,17.7
		c0.9,2.6,1.3,4.9,1.5,7.2l-2.2,1c-0.1-1.6-0.3-4.2-1.3-7.3L607.8,17.7z"/>
	<path d="M623.6,50.2l-2.2,0.2l2.4-19.8c-5.4,3.3-8.7,5-14.1,7.3l-0.8-1.9c14.5-6.1,23.3-13.5,27.6-17.4l1.5,1.2
		c-1.8,1.6-6.1,5.4-11.8,9.2L623.6,50.2z"/>
	<path d="M670,26.2c-3.8,5.2-8.3,9.9-13.5,13.8c-6.6,4.9-12.4,7-15.8,8.1l-0.5-2.3c14.6-4.4,23.6-14.1,28.7-21.6L670,26.2z
		 M652.9,26.6c-4.1-2.5-6.9-3.5-9.7-4.4l1.2-2c3.9,1.1,6.4,2.1,10,4.2L652.9,26.6z"/>
	<path d="M699.7,25.2c-3.3,2.9-5.8,4.5-9.9,6.9l-0.2,1.3l15.1-1.3l-0.2,1.9l-15.1,1.3l-1,8.1c-0.3,2.5-1.7,2.6-3.2,2.7l-6,0.5
		l-0.2-2.2l6-0.4c1.2-0.1,1.4-0.2,1.6-1.2l0.9-7.3l-15.7,1.4L672,35l15.7-1.4l0.4-3.2l1.6-0.1c2-1,4.7-2.8,7-4.7l-18.1,1.6l0.2-1.8
		l21.2-1.9L699.7,25.2z M705.7,17.4l-0.9,7.6l-2.1,0.2l0.7-5.9l-26.9,2.4l-0.7,5.9l-2,0.2l0.9-7.6l22.8-2c1.2-1.6,3-4.5,3.9-6.3
		l1.8,0.6c-0.6,1.1-2.2,3.7-3.5,5.5L705.7,17.4z M680.5,19c-0.5-1.5-1.3-3.1-2.2-4.4l1.7-0.9c1.2,1.7,2,3.8,2.3,4.5L680.5,19z
		 M690,17.6c-0.5-1.3-1.4-3.3-2.1-4.5l1.9-0.9c0.7,1.1,1.2,2,2.1,4.5L690,17.6z"/>
	<path d="M720.3,30.5c-1.2-1.6-2.2-3-3.2-5.4l-2.3,18.3l-1.8,0.2l2.2-17.8c-2.9,5.5-6,8.7-7.2,10l-1-1.6c3.6-3.7,6.4-8.1,8.4-12.7
		l-6.6,0.6l0.2-1.8l6.8-0.6l0.8-6.2c-3.4,0.8-5.3,1.1-6.3,1.2l-0.3-1.8c3.9-0.4,9.2-1.7,12.5-3.2l0.8,1.5c-0.7,0.3-1.9,0.9-4.8,1.8
		l-0.8,6.6l5.1-0.4l-0.2,1.8l-5.1,0.4l-0.1,0.5c1.6,3.9,3.4,5.8,4.2,6.8L720.3,30.5z M740.3,27.5l0.1,1.7l-4.2,1.2l-1.4,11.3
		l-1.9,0.2l1.3-10.8L720.7,35l-0.1-1.7l13.8-4L737,8.4l1.9-0.2l-2.5,20.5L740.3,27.5z M729.7,26.2c-2.1-2.2-3.8-3.5-5.4-4.5l1.2-1.6
		c1.7,0.9,4.4,3.2,5.7,4.5L729.7,26.2z M732.4,17.2c-1.5-1.6-3.5-3.3-5.4-4.6l1.3-1.6c1.6,1,4,2.7,5.6,4.6L732.4,17.2z"/>
</g>
<path d="M55.1,224.2c0.8-3.8,1.2-7.2,1.6-10.2l2.7-22.3l-39.8,3.5c-3,0.3-5.6,0.5-8.8,1.1l0.4-3.1c3.1,0.1,5.7-0.1,8.7-0.4l39.8-3.5
	l0.6-4.6c0.3-2.6,0.5-5.1,0.6-7.7l3.3-0.3c-0.6,2.6-1,5.2-1.3,7.8l-0.6,4.6l41.7-3.7c3-0.3,5.6-0.5,8.8-1.1l-0.4,3.1
	c-3.1-0.1-5.7,0.1-8.7,0.4L62,191.5l-2.7,22.3c-0.4,3-0.8,6.3-0.9,10.1L55.1,224.2z M48.8,142.5c-1.8,4.3-4.1,8.6-6.7,12.8
	c3.8,6.7,9.7,13.2,16.9,17.6c-0.9,0.8-1.4,1.4-2,2.3c-6.7-4.7-12.6-10.7-16.4-17.4c-6.2,9.7-14,19-22.5,26.2c-0.5-0.7-1.1-1.2-2-1.6
	c13.2-10.6,24.7-26.8,30-40.8L48.8,142.5z M117.8,130c-2.6-0.1-4.9,0.1-7.6,0.3l-82.8,7.2c-2.7,0.2-4.9,0.4-7.6,1l0.4-3.1
	c2.6,0.1,4.9-0.1,7.6-0.3l39.1-3.4l1-8.2c0.3-2.4,0.5-4.4,0.5-6.6l3.3-0.3c-0.6,2.4-0.9,4.3-1.2,6.7l-1,8.2l41.2-3.6
	c2.7-0.2,4.9-0.4,7.6-1L117.8,130z M92.9,138.5c-2.1,4.7-4.5,9.1-7.1,13.5c5.1,9.2,13.5,16.4,24.3,20.8c-1,0.6-1.7,1.3-2.1,2.3
	c-10.1-4.4-18.7-11.8-23.6-20.8c-4.7,7.4-10,14-15.7,19.4c-0.5-0.7-1.1-1.2-2-1.6c9.5-8.4,18.5-21.3,23.4-34.3L92.9,138.5z"/>
<path d="M176.3,181.6c-12.8,12.9-30.9,24-51.6,31.5c-0.4-0.7-0.8-1.6-1.6-2.2c20.5-6.9,38.8-18,51.6-30.6l-37.6,3.3
	c-3,0.3-5.6,0.5-8.8,1.1l0.4-3.1c3.1,0.1,5.7-0.1,8.7-0.4l39.2-3.4l1.6-12.9l-27.5,2.4c-3,0.3-5.6,0.5-8.8,1.1l0.4-3.1
	c3.1,0.1,5.7-0.1,8.7-0.4l27.5-2.4l1.5-11.9l-35.2,3.1c-3,0.3-5.6,0.5-8.8,1.1l0.4-3.1c3.1,0.1,5.7-0.1,8.7-0.4l23.3-2
	c-1.4-5.8-3.4-11.3-6.1-16.9l-19.8,1.7c-3,0.3-5.6,0.5-8.8,1.1l0.4-3.1c3.1,0.1,5.7-0.1,8.7-0.4l15.1-1.3c-2.5-5.1-5.8-10-9.7-14.5
	l2.7-1.5c3.9,4.6,7.2,10.2,9.9,15.8l12.4-1.1l1.5-12.5c0.4-3,0.7-5.5,0.7-8.5l3.3-0.3c-0.7,3.1-1,5.6-1.4,8.6l-1.5,12.5l17.2-1.5
	l1.5-12.5c0.4-3,0.7-5.5,0.7-8.5l3.3-0.3c-0.7,3.1-1,5.6-1.4,8.6l-1.5,12.5l13.6-1.2c4.6-5.4,8.9-11.6,12.9-18.4l2.5,1
	c-4.2,6.5-8.5,12.5-12.5,17.2l14.5-1.3c3-0.3,5.6-0.5,8.8-1.1l-0.4,3.1c-3.1-0.1-5.7,0.1-8.7,0.4l-19.6,1.7
	c-2.9,5.3-7.1,12.8-10.7,18.4l24.3-2.1c3-0.3,5.6-0.5,8.8-1.1l-0.4,3.1c-3.1-0.1-5.7,0.1-8.7,0.4l-37.3,3.3l-1.5,11.9l29.6-2.6
	c3-0.3,5.6-0.5,8.8-1.1l-0.4,3.1c-3.1-0.1-5.7,0.1-8.7,0.4l-29.6,2.6l-1.6,12.9l41.7-3.7c3-0.3,5.6-0.5,8.8-1.1l-0.4,3.1
	c-3.1-0.1-5.7,0.1-8.7,0.4l-40.2,3.5c9.9,10,27.8,18.3,47.4,21.5c-0.9,0.8-1.5,1.7-1.9,2.5c-19.2-3.4-37.5-12-47.4-22.6l-0.9,9.3
	l-1.7,14.1c-0.4,3.2-0.7,6-0.7,8.9L172,214c0.7-3,1.1-5.7,1.4-9l1.7-14.1L176.3,181.6z M164.9,132.2c2.8,5.6,4.5,11.2,6,16.9
	l22.1-1.9c3.6-5.5,7.8-12.8,10.5-18.4L164.9,132.2z"/>
<path d="M272.5,187.5l-18.7,1.6l-1.6,13.3l-2.9,0.3c0.6-3.4,1.2-6.6,1.6-9.9l4.2-34.2l1.9-12.5c-4.1,7.3-8.8,14.1-13.8,20.3
	c-0.5-0.8-1-1.2-1.9-1.6c13.2-15.1,22.5-34.5,27.9-57l-7.8,0.7c-3,0.3-5.6,0.5-8.8,1.1l0.4-3.1c3.1,0.1,5.7-0.1,8.7-0.4l19.5-1.7
	c3-0.3,5.6-0.5,8.8-1.1l-0.4,3.1c-3.1-0.1-6,0.2-8.7,0.4l-9.1,0.8c-3.1,12.8-7.4,24.3-12.8,34.8l14.5-1.3c2.9-0.3,5.4-0.6,7.9-1
	c-0.5,2.4-0.9,4.7-1.2,7.1l-4.7,38.1c-0.4,3.1-0.8,6.2-0.8,9.3l-2.9,0.3L272.5,187.5z M254.1,186.7l18.7-1.6l5.2-42l-18.7,1.6
	L254.1,186.7z M307.4,143.6c-4,26-11.2,44-28.2,60.4c-0.5-0.8-1.2-1.3-2-1.6c16.7-15.6,23.8-33.4,27.7-58.6l-8.4,0.7
	c-3,0.3-5.6,0.5-8.8,1.1l0.4-3.1c3.1,0.1,5.7-0.1,8.7-0.4l8.4-0.7c0.4-2,0.6-4.1,0.9-6.2l3.8-31.2l-5.5,0.5c-3,0.3-5.6,0.5-8.8,1.1
	l0.4-3.1c3.1,0.1,5.7-0.1,8.7-0.4l42.4-3.7c3-0.3,5.6-0.5,8.8-1.1l-0.4,3.1c-3.1-0.1-6,0.2-8.7,0.4l-7.5,0.7l-4.6,37.4l8.8-0.8
	c3-0.3,5.6-0.5,8.8-1.1l-0.4,3.1c-3.1-0.1-6,0.2-8.7,0.4l-8.8,0.8l-5.8,47.3c-0.4,3-0.8,6.3-0.9,10.1l-3.3,0.3
	c0.8-3.8,1.2-7.2,1.6-10.2l5.8-47.3L307.4,143.6z M308.6,135.3c-0.2,2-0.5,4-0.8,6l24.4-2.1l4.6-37.4l-24.3,2.1L308.6,135.3z"/>
<path d="M407.6,129.3c-0.5,1.9-0.8,3.8-1.2,6.4c-0.6,4.3-1.6,8.4-2.8,12.3l18.9-1.7c4.2-0.4,7-0.6,9.5-1.2c-0.7,3.1-1.2,6.2-1.6,9.3
	l-3.6,25.4c-0.7,4.5,0.3,5.2,12.7,4.1c11.7-1,13.4-2,15.6-7.4c1.3-3.4,2.7-8.8,3.6-14.6c0.7,0.6,1.5,0.9,2.3,1
	c-1,5.2-2.3,10.5-3.7,14c-2.6,6.7-5.2,8.2-18.2,9.4c-14.1,1.2-15.8,0-15-6.1l4.5-32.1l-26,2.3c-7.4,22.6-22.8,36-46.2,45.8
	c-0.2-0.8-0.7-1.6-1.6-2.2c23.1-8.9,38.1-21.7,45.2-43.3l-24.1,2.1c-3,0.3-5.6,0.5-8.8,1.1l0.4-3.1c3.1,0.1,5.7-0.1,8.7-0.4
	l24.6-2.1c1.2-3.8,2.1-7.8,2.8-12.1c0.1-0.7,0.2-1.4,0.2-2c0.2-1.7,0.3-3.2,0.3-4.4L407.6,129.3z M405.8,104.3
	c-4.1,19-15.6,28.3-37.2,35.3c-0.1-0.8-0.5-1.6-1.2-2.2c20.9-6.3,32-15.1,35.8-32.8l-30.4,2.7l-2,16.4l-2.8,0.2
	c0.5-2.2,0.7-3.8,1-6.6l0.8-6.4c0.3-2.3,0.5-3.8,0.5-6.2c2.7,0,5.6-0.1,8.8-0.4l35.7-3.1l0.8-6.6c0.3-2.6,0.6-4.8,0.5-7.1l3.3-0.3
	c-0.7,2.5-0.9,4.6-1.2,7.2l-0.8,6.6l38-3.3c3.3-0.3,6.2-0.7,8.9-1.1c-0.5,2.4-0.7,4-1,6.2l-0.8,6.4c-0.3,2.7-0.5,4.4-0.6,6.5
	l-2.8,0.2l2-16.4l-34.5,3l-2.6,20.8c-0.4,3.5,0.4,4.1,10.8,3.2c13.2-1.2,13.7-1.7,16.1-13.7c0.7,0.5,1.5,0.7,2.3,0.7
	c-2.6,12.7-4.7,14.1-18.8,15.3c-12.3,1.1-13.8-0.1-13.2-4.7l2.6-21.4L405.8,104.3z"/>
<path d="M485,185.8c0.7-3,1.1-6,1.4-9l5.7-46.4l2.8-20.2c-6.6,9.4-13.9,18.2-21.8,25.9c-0.4-0.7-1.1-1.2-1.9-1.6
	c13.8-13.2,26.1-30,34.5-47.1c1.4-2.7,2.8-6.1,3.9-9.3l2.9,0.8c-1.6,3-3.3,6.4-4.7,9.1c-3,6.2-6.3,12.1-10.2,18l-8.7,70.5
	c-0.4,3-0.6,5.9-0.7,8.9L485,185.8z M527.7,182.7c0.7-3.2,1.1-5.9,1.4-9l9.3-75.6L527.7,99c-6.2,11-14.2,22.6-22.3,31.1
	c-0.5-0.5-1.3-1.1-2.1-1.3c12.8-12.9,23.9-31.4,29.5-44.9c1.1-2.6,2.2-5.5,2.8-8l3,0.7c-1.3,2.4-2.3,4.9-3.6,7.9
	c-1.6,3.8-3.6,7.9-5.9,12.2L571,93c3-0.3,5.6-0.5,8.8-1.1l-0.4,3.1c-3.1-0.1-5.7,0.1-8.7,0.4L541,97.9l-2.9,23.5l25.5-2.2
	c3-0.3,5.6-0.5,8.8-1.1l-0.4,3.1c-3.1-0.1-5.7,0.1-8.7,0.4l-25.5,2.2l-2.9,23.7l26-2.3c3-0.3,5.6-0.5,8.8-1.1l-0.4,3.1
	c-3.1-0.1-5.7,0.1-8.7,0.4l-26,2.3l-2.9,23.7c-0.4,3.1-0.7,5.7-0.7,8.9L527.7,182.7z"/>
<path d="M623.7,173.5l-32.9,2.9l0,0l-2.9,0.3c0.7-3.1,1.1-6.2,1.5-9.3l3.8-30.8c0.4-3.1,0.8-6.2,0.8-9.3c3,0.1,6-0.2,9.1-0.4
	l20.5-1.8c3-0.3,6.1-0.5,9.2-1.2c-0.7,3.1-1.1,6.2-1.5,9.3l-3.6,29.5c-0.4,2.9-0.9,7.5-1,10.6L623.7,173.5L623.7,173.5z M591.1,174
	l32.9-2.9l5.4-44.3l-32.9,2.9L591.1,174z"/>
<path d="M673.4,97.1c-0.4,2.9-0.7,5.5-0.7,8.2c-3,0-5.9,0.2-9.1,0.4l-41.9,3.7c-3,0.3-6.1,0.7-9,1.1c0.7-2.8,1-5.4,1.4-8.2l2.5-20
	c0.3-2.7,0.7-5.5,0.7-8.3c2.9,0.1,5.9-0.2,9-0.4l41.9-3.7c3.2-0.3,6.1-0.5,9.2-1.2c-0.7,2.9-1,5.6-1.4,8.4L673.4,97.1z M670.2,102.8
	l3.8-31.1l-54.1,4.7l-3.8,31.1L670.2,102.8z"/>
<path d="M679.5,120l-23.3,2c-3,0.3-6.1,0.5-9.1,0.4c0,3.1-0.4,6.2-0.8,9.3l-3.8,30.8c-0.4,3.1-0.8,6.2-1.5,9.3l2.9-0.3l35.7-3.1
	l2.9-0.3c0-3.1,0.4-6.2,0.8-9.3l3.8-30.8c0.4-3.1,0.8-6.2,1.5-9.3C685.6,119.5,682.6,119.8,679.5,120z M681,157.8l-0.3,2.4l-0.7,6
	l-35.7,3.1l0.7-6l0.3-2.4l4.4-36l35.7-3.1L681,157.8z"/>
<path d="M764.2,150.7c-11,4.3-26,8.5-37.7,11.8c-3.1,0.9-6.6,1.9-9.2,2.7l-0.4-3.1c2.8-0.4,6.3-1.1,9.7-2c2.4-0.7,5-1.4,7.7-2.1
	l4.1-33.5l-20.2,1.8c-4.4,18.3-10.3,30.8-18.3,41.3c-0.5-0.7-1.2-1.3-2-1.7c12.5-16.1,19.2-37,24.4-79.2l1.5-12.4
	c0.4-3.1,0.8-6.3,0.8-9.4c3.3,0.1,6-0.2,9.1-0.4l65.5-5.7c3.2-0.3,6.2-0.7,9-1.1c-0.6,2.3-0.8,4.1-1.1,6.5l-1.2,9.8
	c-0.3,2.4-0.5,4.2-0.4,6.4c-2.8,0-5.8,0.2-9,0.4l-71.7,6.3l-0.1,0.6c-1.8,14.3-3.7,26.1-6.1,36.4l27.6-2.4l2.3-18.7l-11.3,1
	c-3,0.3-5.6,0.5-8.8,1.1l0.4-3.1c3.1,0.1,5.7-0.1,8.7-0.4l11.3-1l0.5-3.9c0.3-2.7,0.6-5,0.6-7.7l3.3-0.3c-0.7,2.8-1,5-1.3,7.8
	l-0.5,3.9l26.8-2.3l0.5-3.9c0.3-2.7,0.6-5,0.6-7.7l3.3-0.3c-0.7,2.8-1,5-1.3,7.8l-0.5,3.9l14-1.2c3-0.3,5.6-0.5,8.8-1.1l-0.4,3.1
	c-3.1-0.1-5.7,0.1-8.7,0.4l-14,1.2l-2.3,18.7l19.4-1.7c3-0.3,5.6-0.5,8.8-1.1l-0.4,3.1c-3.1-0.1-5.7,0.1-8.7,0.4l-38.7,3.4
	c2.6,7.2,6.5,13,12.3,18.2c5.3-3.4,10.9-7.7,15.3-11.7c2.5-2.2,4.1-3.9,5.3-5.5l2.2,1.8c-2.1,1.7-3.8,3.4-6,5.4
	c-4.7,4.1-9.9,8.1-15.3,11.5c8.4,7,19.7,11.2,32,12.9c-0.8,0.7-1.5,1.7-1.9,2.5c-11.9-1.8-24-6.3-32.6-14.1
	c-6.4-5.9-11.1-12.5-14-20.7l-15,1.3l-4,32.9c9.4-2.8,19.6-6.3,27.7-9.5L764.2,150.7z M741.5,66.1l-14.3,1.2l-2.1,17.2l77.8-6.8
	l2.1-17.2L741.5,66.1z M748.8,121.2l26.8-2.3l2.3-18.7l-26.8,2.3L748.8,121.2z"/>
</svg>
