<?xml version="1.0" encoding="utf-8"?>
<!-- Generator: Adobe Illustrator 21.1.0, SVG Export Plug-In . SVG Version: 6.00 Build 0)  -->
<svg version="1.1" id="レイヤー_1" xmlns="http://www.w3.org/2000/svg" xmlns:xlink="http://www.w3.org/1999/xlink" x="0px"
	 y="0px" viewBox="0 0 999.5 292" style="enable-background:new 0 0 999.5 292;" xml:space="preserve">
<style type="text/css">
	.st0{fill:none;stroke:#000000;stroke-width:1.5;stroke-miterlimit:10;}
</style>
<g>
	<path d="M70.5,65.2l4.1-1.1l35.6,118.2l-3.1,0.3l-15.7-52.2l-55.6,4.9L5.2,191.5l-3.7,0.3L70.5,65.2z M37.5,132.2l53-4.6L72.6,67.9
		L37.5,132.2z"/>
	<path d="M186.2,111.9c2.5-1.8,5.7-3.2,9.8-4.2c4.1-1,8.5-2.1,13.3-3c4.8-1,9.7-2.2,14.8-3.5c5.1-1.3,9.8-3.2,14.2-5.7l0.9,2.9
		c-3.2,2-6.7,3.5-10.6,4.8c-3.9,1.2-7.8,2.3-11.7,3.1c0.1,1,0.2,2.1,0.3,3c0.1,1,0.2,1.8,0.3,2.4c0.8,9,0.3,17.5-1.4,25.5
		c-1.7,7.9-4.7,15-8.9,21c-4.2,6.1-9.7,11-16.5,14.9c-6.8,3.8-14.8,6.2-24.2,7c-5.9,0.5-11.2,0.1-15.8-1.1
		c-4.6-1.3-8.6-3.2-11.9-5.9c-3.3-2.6-5.9-5.8-7.7-9.6c-1.8-3.8-3-7.9-3.4-12.3c-0.8-9.2,1.2-17.7,6-25.3c4.8-7.6,12.2-14,22.3-19.3
		c-2.4-2.1-4.3-4.6-5.8-7.5c-1.5-2.9-2.4-6-2.7-9.3c-0.4-4.4,0.2-8.6,1.8-12.7c1.6-4.1,4-7.8,7.2-11.1c3.2-3.3,7.2-6,11.8-8.2
		c4.7-2.2,9.9-3.5,15.6-4c5-0.4,9.3-0.5,12.9-0.3c3.6,0.3,7.2,0.9,10.6,1.8l-1.1,3.5c-2.9-1.2-6.2-1.9-9.8-2.2
		c-3.6-0.3-7.7-0.2-12.4,0.2c-5.6,0.5-10.5,1.8-14.8,3.8c-4.3,2-7.8,4.6-10.7,7.5c-2.9,3-5,6.3-6.3,10c-1.4,3.7-1.9,7.4-1.5,11.3
		c0.3,3.2,1.2,6.3,2.7,9.1c1.5,2.9,4.2,5.7,8.1,8.6c-11.6,5.4-19.7,11.9-24.5,19.4c-4.8,7.5-6.8,15.6-6,24.2c0.4,4.1,1.4,7.8,3,11.1
		c1.7,3.4,3.9,6.2,6.9,8.7c2.9,2.4,6.5,4.2,10.8,5.3c4.2,1.1,9.1,1.5,14.6,1c8.9-0.8,16.6-3,23-6.6c6.4-3.6,11.6-8.3,15.6-14.1
		c3.9-5.7,6.7-12.4,8.2-20c1.5-7.6,1.9-15.7,1.2-24.3c-0.1-0.7-0.1-1.6-0.2-2.6c-0.1-1-0.2-1.8-0.4-2.4c-5.4,1.2-10.5,2.3-15.2,3.4
		c-4.7,1-8.5,2.5-11.2,4.4L186.2,111.9z"/>
	<path d="M246.9,170.4l15-122.5l21.7-1.9c8.8-0.8,16.8-0.3,23.8,1.4c7.1,1.7,13.1,4.5,18,8.3c4.9,3.8,8.9,8.5,11.8,14.2
		c2.9,5.7,4.7,12,5.3,18.9c0.9,10.8,0,20.8-2.8,30c-2.8,9.2-7.4,17.3-13.7,24.3c-6.4,7-14.4,12.7-24.2,17.1
		c-9.8,4.4-21.1,7.2-34.1,8.3L246.9,170.4z M250.4,167.1l17-1.5c12.6-1.1,23.6-3.8,33-8c9.4-4.2,17.2-9.7,23.2-16.4
		c6.1-6.7,10.4-14.5,13-23.4c2.6-8.9,3.5-18.4,2.6-28.7c-0.6-6.5-2.2-12.5-4.9-17.8c-2.7-5.3-6.3-9.8-11-13.3
		c-4.7-3.6-10.3-6.2-16.9-7.8c-6.6-1.6-14.2-2.1-22.6-1.3l-19.2,1.7L250.4,167.1z"/>
	<path d="M449.2,37.6l-55,4.8l-10.7,42.9c1.4-0.3,3.2-0.7,5.2-1c2-0.3,3.8-0.6,5.5-0.7c7.3-0.6,13.7-0.4,19.2,0.8
		c5.5,1.1,10.2,3,14.1,5.4c3.8,2.5,6.8,5.6,8.9,9.4c2.1,3.8,3.4,8,3.8,12.7c0.6,7.4-0.3,14.1-2.9,20.2c-2.6,6.1-6.6,11.4-12.2,16
		c-5.6,4.6-12.6,8.3-21.2,11.3c-8.5,2.9-18.5,4.9-29.8,5.9c-0.5,0-1.2,0.1-1.9,0.2c-0.8,0.1-1.4,0.1-2,0l0.8-3.2
		c0.5,0.1,1,0.1,1.5,0s0.9-0.1,1.3-0.1c10.9-1,20.4-2.8,28.6-5.6c8.1-2.8,14.8-6.3,20.1-10.6c5.3-4.3,9.1-9.3,11.6-15
		c2.4-5.7,3.3-12,2.7-18.8c-0.4-4.3-1.5-8.1-3.4-11.6c-1.9-3.4-4.6-6.3-8.1-8.6c-3.5-2.3-7.8-3.9-12.9-4.9c-5.1-1-11.1-1.2-18-0.6
		c-2.6,0.2-5.1,0.5-7.5,0.9c-2.4,0.4-4.9,0.9-7.5,1.5l12.2-49.3l58.4-5.1L449.2,37.6z"/>
	<path d="M482.5,149.8l14.3-116.3l-16,1.4l0.5-3l19-1.7l-14.7,119.4L482.5,149.8z"/>
	<path d="M523.7,135.1c2,2.7,4.8,4.9,8.4,6.6c3.6,1.8,8.3,2.4,14,1.9c8.1-0.7,14.2-3,18.4-6.9c4.2-3.9,6-8.8,5.5-14.8
		c-0.2-2.7-1-5-2.2-6.9c-1.2-1.9-3.4-3.6-6.6-5.1c-2.9-1.4-6.2-2.5-9.9-3.2c-3.6-0.7-7.1-1.9-10.4-3.5c-3.4-1.7-5.9-3.6-7.4-5.7
		c-1.5-2.1-2.5-4.8-2.7-8c-0.3-2.9,0.1-5.7,1.1-8.4c1-2.7,2.5-5.1,4.5-7.2c2-2.1,4.5-3.8,7.5-5.2c3-1.4,6.3-2.2,9.9-2.5
		c4.7-0.4,8.9,0.1,12.7,1.4c3.8,1.3,7.1,3.3,10.1,5.9l-1.9,2.8c-2.5-2.6-5.6-4.5-9.2-5.7c-3.6-1.2-7.4-1.6-11.3-1.3
		c-3.2,0.3-6.1,1-8.7,2.2c-2.6,1.2-4.7,2.7-6.5,4.5c-1.8,1.8-3.1,3.9-3.9,6.2c-0.8,2.3-1.2,4.7-0.9,7.1c0.2,2.8,1,5,2.3,6.7
		c1.3,1.7,3.3,3.2,6,4.5c1.3,0.7,2.8,1.3,4.5,1.8c1.7,0.5,3.4,1,5.2,1.4c1.8,0.5,3.6,1,5.5,1.5c1.8,0.5,3.5,1.2,5,2
		c3.5,1.8,6.1,3.8,7.7,6.1c1.6,2.3,2.6,5.1,2.9,8.4c0.6,6.8-1.5,12.4-6.3,17c-4.8,4.6-11.6,7.3-20.6,8.1c-5.9,0.5-10.8,0-14.5-1.6
		c-3.8-1.6-6.8-3.7-9.1-6.2L523.7,135.1z"/>
	<path d="M614,63.7l3.3-26.4l3.3-1.4l-3.6,27.5l25.2-2.2l-0.4,3l-25.2,2.2l-5.7,46.7c-0.3,2.2-0.5,4.1-0.5,5.7c0,1.6,0,3.1,0.2,4.5
		c0.3,3.6,1.3,6.5,2.9,8.5c1.6,2,4.3,3.7,8,5l-0.1,0.5l-4,1.1c-3.1-1.4-5.4-3.2-7-5.5c-1.6-2.3-2.6-5.4-2.9-9.3
		c-0.1-1.5-0.2-3-0.1-4.8c0.1-1.7,0.2-3.8,0.6-6.2l5.6-45.9L598.5,68l0.4-3L614,63.7z"/>
</g>
<g>
	<path d="M39.2,253.3c-2.1,2.1-4.5,3.8-7.1,5c-2.7,1.3-5.4,2-8.2,2.3c-2.6,0.2-5,0-7.2-0.7c-2.2-0.7-4.1-1.8-5.7-3.3
		c-1.6-1.5-2.9-3.3-3.9-5.4c-1-2.2-1.6-4.6-1.8-7.3c-0.3-3.6,0-7.1,1.1-10.4c1-3.3,2.6-6.2,4.7-8.8c2.1-2.6,4.7-4.7,7.7-6.4
		c3-1.7,6.3-2.7,9.9-3c3-0.3,5.6-0.1,7.9,0.5c2.2,0.6,4.1,1.4,5.6,2.6l-0.8,2.8l-0.1,0c-1.6-1.5-3.5-2.5-5.6-3
		c-2.1-0.5-4.4-0.6-6.7-0.4c-3.3,0.3-6.3,1.2-9,2.8c-2.7,1.5-5,3.5-6.9,5.9c-1.9,2.4-3.3,5-4.2,8c-0.9,3-1.2,6-0.9,9.2
		c0.2,2.4,0.7,4.6,1.6,6.4c0.8,1.9,2,3.4,3.3,4.7c1.4,1.3,3,2.2,4.8,2.8c1.8,0.6,3.9,0.8,6.1,0.6c2.8-0.2,5.2-0.9,7.4-2
		c2.2-1.1,4.2-2.5,5.9-4.2l1.6-13l2.4-0.2L39.2,253.3z"/>
	<path d="M65.4,231.5c-2.3,0.2-4.3,0.7-6,1.5c-1.7,0.8-3.2,1.8-4.4,3.1c-0.3,0.3-0.5,0.6-0.7,0.9c-0.2,0.3-0.4,0.7-0.5,1.1
		c-0.2,0.4-0.3,1-0.4,1.6s-0.2,1.3-0.3,2.2l-1.9,15.5l-2.4,0.2l3.4-27.2l2.4-0.2l-0.6,4.5c1.4-1.5,2.9-2.7,4.4-3.5
		c1.5-0.8,3.1-1.4,4.8-1.9c0.8-0.2,1.6-0.3,2.6-0.4L65.4,231.5z"/>
	<path d="M70.8,230.8c1.2-1,2.6-1.8,4-2.3c1.5-0.5,2.9-0.9,4.3-1c2.5-0.2,4.4,0.2,5.8,1.2c1.3,1,2.1,2.6,2.2,4.8c0,0.4,0,0.8,0,1.2
		c0,0.4-0.1,0.8-0.1,1.3l-2.3,18.4l-2.4,0.9l0.6-4.4c-1.3,1.3-2.9,2.5-4.6,3.5s-3.7,1.6-5.7,1.8c-2,0.2-3.6-0.2-4.8-1.1
		c-1.2-0.9-1.9-2.3-2.1-4c-0.2-1.8,0.3-3.5,1.3-5.1c1.1-1.6,2.7-3,5-4.1c1.6-0.8,3.4-1.5,5.4-2.1c2-0.6,4.3-1.2,7.1-1.7l0.3-2.4
		c0.1-0.6,0.1-1.2,0-1.9c-0.1-1.4-0.7-2.4-1.6-3.1c-1-0.6-2.3-0.9-3.9-0.8c-1.6,0.1-3.1,0.6-4.6,1.2c-1.5,0.7-3,1.7-4.3,3
		L70.8,230.8z M84.2,240.2c-1.7,0.3-3.5,0.7-5.4,1.2c-1.8,0.5-3.4,1.1-4.7,1.7c-2.4,1.1-4,2.3-4.9,3.6c-0.8,1.3-1.2,2.7-1.1,4
		c0.1,1,0.5,1.9,1.3,2.5c0.7,0.6,1.8,0.9,3.3,0.7c1.7-0.2,3.5-0.8,5.3-1.8c1.8-1.1,3.6-2.6,5.3-4.6L84.2,240.2z"/>
	<path d="M114.1,250.4c-1.4,1.1-2.8,1.8-4.2,2.3c-1.4,0.5-2.8,0.8-4.1,0.9c-1.8,0.2-3.4,0-4.7-0.5c-1.4-0.5-2.5-1.2-3.5-2.1
		s-1.8-2-2.3-3.3c-0.6-1.3-0.9-2.7-1-4.2c-0.2-2.6,0.1-5,0.9-7.3c0.8-2.2,1.9-4.2,3.4-5.9c1.5-1.7,3.2-3,5.1-4.1
		c1.9-1,3.9-1.6,6-1.8c1.5-0.1,2.8-0.1,4.1,0.1c1.2,0.2,2.4,0.6,3.6,1.1l2.1-17.5l2.5-0.8l-5.4,44.1l-2.5,1.3L114.1,250.4z
		 M105.5,251.4c1.7-0.1,3.3-0.5,4.8-1.2s2.9-1.5,4.1-2.6l2.4-19.2c-0.8-0.6-1.8-1-3.1-1.3c-1.3-0.3-2.6-0.3-4.1-0.2
		c-1.9,0.2-3.6,0.7-5.3,1.6c-1.7,0.9-3.1,2.1-4.3,3.5c-1.2,1.5-2.1,3.1-2.7,5.1c-0.6,1.9-0.8,4-0.6,6.2c0.1,1.3,0.4,2.4,0.8,3.5
		c0.4,1,1,1.9,1.8,2.7c0.8,0.7,1.7,1.3,2.7,1.6C103,251.3,104.2,251.5,105.5,251.4z"/>
	<path d="M132.2,223.4l-2.2,17.7c-0.1,0.9-0.1,1.8,0,2.6c0.2,1.8,0.7,3,1.7,3.7c1,0.7,2.3,1,3.9,0.8c1.9-0.2,3.7-0.8,5.4-2
		c1.7-1.2,3.1-2.6,4.4-4.4c0.7-1,1.2-2.2,1.3-3.5l2-16.3l2.4-0.2l-3.3,27l-2.5,0.9l0.7-5.6c-1.3,1.8-2.9,3.3-4.8,4.5s-3.8,1.8-5.7,2
		c-4.9,0.4-7.6-1.8-8-6.6c-0.1-0.8-0.1-1.7,0.1-2.5l2.2-17.8L132.2,223.4z"/>
	<path d="M161.6,222.8c1.2-1,2.6-1.8,4-2.3c1.5-0.5,2.9-0.9,4.3-1c2.5-0.2,4.4,0.2,5.8,1.2c1.3,1,2.1,2.6,2.2,4.8c0,0.4,0,0.8,0,1.2
		c0,0.4,0,0.8-0.1,1.3l-2.3,18.4l-2.4,0.9l0.6-4.4c-1.3,1.3-2.9,2.5-4.6,3.5c-1.8,1-3.7,1.6-5.7,1.8c-2,0.2-3.6-0.2-4.8-1.1
		c-1.2-0.9-1.9-2.3-2.1-4c-0.2-1.8,0.3-3.5,1.3-5.1c1.1-1.6,2.7-3,5-4.1c1.6-0.8,3.4-1.5,5.4-2.1c2-0.6,4.3-1.2,7.1-1.7l0.3-2.4
		c0.1-0.6,0.1-1.2,0-1.9c-0.1-1.4-0.7-2.4-1.6-3.1c-1-0.6-2.3-0.9-3.9-0.8c-1.6,0.1-3.1,0.6-4.6,1.2c-1.5,0.7-3,1.7-4.3,3
		L161.6,222.8z M175,232.3c-1.7,0.3-3.5,0.7-5.4,1.2c-1.8,0.5-3.4,1.1-4.7,1.7c-2.4,1.1-4,2.3-4.9,3.6c-0.8,1.3-1.2,2.7-1.1,4
		c0.1,1,0.5,1.9,1.3,2.5c0.7,0.6,1.8,0.9,3.3,0.7c1.7-0.2,3.5-0.8,5.3-1.8c1.8-1.1,3.6-2.6,5.3-4.6L175,232.3z"/>
	<path d="M190.2,218.4l1.1-9.1l2.5-0.8l-1.2,9.7l8.7-0.8l-0.3,2.2l-8.7,0.8l-1.9,15.7c-0.2,1.6-0.3,2.9-0.2,3.8c0.1,1.1,0.4,2,1,2.7
		c0.6,0.7,1.5,1.3,2.8,1.9l0,0.3l-2.8,0.6c-1-0.4-1.8-1.1-2.3-1.9c-0.5-0.8-0.9-2-1-3.4c-0.1-1,0-2.2,0.2-3.8l1.9-15.7l-5.4,0.5
		l0.3-2.2L190.2,218.4z"/>
	<path d="M209.8,216.4l-3.4,27.5l-2.4,0.2l3.3-27L209.8,216.4z M210,204.2c0.6,0,1,0.1,1.4,0.4c0.3,0.3,0.5,0.7,0.6,1.2
		c0.1,0.7-0.1,1.3-0.6,1.8c-0.4,0.5-1,0.7-1.6,0.8c-0.6,0.1-1.1-0.1-1.4-0.3c-0.3-0.3-0.5-0.7-0.6-1.2c-0.1-0.7,0.1-1.3,0.5-1.8
		S209.3,204.2,210,204.2z"/>
	<path d="M228,242.9c-3.3,0.3-5.9-0.5-8-2.5c-2.1-2-3.3-4.8-3.6-8.5c-0.2-2.5,0-4.7,0.6-6.9c0.6-2.1,1.5-4,2.8-5.6
		c1.2-1.6,2.7-2.9,4.5-3.9c1.8-1,3.7-1.6,5.8-1.7c1.5-0.1,2.9,0,4.2,0.3c1.3,0.4,2.5,0.9,3.5,1.8s1.8,1.9,2.5,3.3
		c0.7,1.3,1.1,3,1.2,4.8c0.2,2.1,0,4.3-0.5,6.4c-0.5,2.2-1.3,4.1-2.5,5.9c-1.2,1.8-2.6,3.3-4.4,4.5C232.4,242,230.4,242.7,228,242.9
		z M227.9,240.7c2-0.2,3.7-0.8,5.2-1.8c1.5-1,2.7-2.3,3.6-3.9c1-1.5,1.6-3.3,2-5.1c0.4-1.9,0.5-3.7,0.4-5.5
		c-0.2-2.8-1.2-4.9-2.7-6.3c-1.6-1.4-3.6-2-6.2-1.8c-1.9,0.2-3.5,0.7-5,1.6c-1.5,0.9-2.7,2.1-3.7,3.5c-1,1.4-1.7,3-2.2,4.8
		c-0.5,1.8-0.6,3.7-0.4,5.6c0.1,1.4,0.4,2.7,0.8,3.8c0.4,1.1,1,2.1,1.8,2.9c0.7,0.8,1.6,1.4,2.7,1.8
		C225.3,240.6,226.5,240.8,227.9,240.7z"/>
	<path d="M251.6,213l2.4-0.2l-0.7,5.2c1.7-2.1,3.4-3.7,5.3-4.8s3.7-1.7,5.5-1.9c2.2-0.2,4,0.2,5.4,1.2c1.4,1,2.1,2.7,2.4,5
		c0.1,0.9,0.1,1.8,0,2.7l-2.2,18.1l-2.4,0.2l2.2-17.9c0.1-1,0.2-1.9,0.1-2.8c-0.1-1.6-0.7-2.7-1.6-3.4c-1-0.7-2.3-1-4-0.8
		c-0.9,0.1-1.7,0.3-2.6,0.6s-1.7,0.7-2.5,1.2s-1.5,1-2.2,1.7c-0.7,0.6-1.3,1.3-1.8,2c-0.7,0.9-1.2,1.7-1.5,2.6
		c-0.4,0.8-0.6,1.8-0.8,3l-1.9,15.3l-2.4,0.2L251.6,213z"/>
	<path d="M319.3,205.8l-14.5,29.5l-2.1,0.2L291.6,193l2.6-0.2l9.9,38.9l14.4-29.3l-2.8-11.4l2.5-0.2l9.4,39l20.5-41.6l2.9-0.3
		l-22.6,45.4l-2.1,0.2L319.3,205.8z"/>
	<path d="M357.9,231.6c-3.3,0.3-5.9-0.5-8-2.5c-2.1-2-3.3-4.8-3.6-8.5c-0.2-2.5,0-4.7,0.6-6.9c0.6-2.1,1.5-4,2.8-5.6
		c1.2-1.6,2.7-2.9,4.5-3.9c1.7-1,3.7-1.6,5.8-1.7c1.5-0.1,2.9,0,4.2,0.3s2.5,0.9,3.5,1.8s1.8,1.9,2.5,3.3c0.7,1.3,1.1,3,1.2,4.8
		c0.2,2.1,0,4.3-0.5,6.4c-0.5,2.2-1.3,4.1-2.5,5.9c-1.2,1.8-2.6,3.3-4.4,4.5C362.3,230.7,360.2,231.4,357.9,231.6z M357.8,229.3
		c2-0.2,3.7-0.8,5.2-1.8s2.7-2.3,3.6-3.9c1-1.5,1.6-3.3,2-5.1c0.4-1.9,0.5-3.7,0.4-5.5c-0.2-2.8-1.2-4.9-2.7-6.3
		c-1.6-1.4-3.6-2-6.2-1.8c-1.9,0.2-3.5,0.7-5,1.6c-1.5,0.9-2.7,2.1-3.7,3.5s-1.7,3-2.2,4.8c-0.5,1.8-0.6,3.7-0.4,5.6
		c0.1,1.4,0.4,2.7,0.8,3.8c0.4,1.1,1,2.1,1.8,2.9s1.6,1.4,2.7,1.8C355.2,229.3,356.4,229.4,357.8,229.3z"/>
	<path d="M394.7,202.7c-2.3,0.2-4.3,0.7-6,1.5c-1.7,0.8-3.2,1.8-4.4,3.1c-0.3,0.3-0.5,0.6-0.7,0.9c-0.2,0.3-0.4,0.7-0.5,1.1
		c-0.2,0.4-0.3,1-0.4,1.6s-0.2,1.3-0.3,2.2l-1.9,15.5l-2.4,0.2l3.4-27.2l2.4-0.2l-0.6,4.5c1.4-1.5,2.9-2.7,4.4-3.5
		c1.5-0.8,3.1-1.4,4.8-1.9c0.8-0.2,1.6-0.3,2.6-0.4L394.7,202.7z"/>
	<path d="M402,211.9l14.9-13.3l3.9-0.3L405.2,212l16.7,13l-3.5,0.3L402,212.2l-1.8,14.7l-2.4,0.2l5.4-43.8l2.5-0.8L402,211.9z"/>
	<path d="M424.1,220.1c0.9,0.9,2,1.6,3.3,2.2c1.3,0.6,2.9,0.8,4.8,0.6c2.7-0.2,4.7-1,6-2.2s1.8-2.8,1.7-4.6
		c-0.1-0.6-0.3-1.3-0.6-1.9c-0.4-0.6-0.9-1.1-1.5-1.4c-0.7-0.4-1.4-0.7-2.1-0.9c-0.7-0.2-1.3-0.4-2-0.6c-0.6-0.2-1.3-0.3-1.9-0.5
		c-0.6-0.2-1.2-0.4-1.7-0.7c-1.3-0.6-2.2-1.4-2.7-2.2c-0.6-0.8-0.9-1.9-1-3.1c-0.1-1.1,0-2.2,0.4-3.2c0.4-1,1-1.9,1.7-2.7
		c0.8-0.8,1.7-1.5,2.8-2c1.1-0.5,2.3-0.8,3.7-0.9c1.7-0.2,3.3,0,4.7,0.4c1.4,0.4,2.7,1.1,3.8,1.9l-1.1,2.4c-0.9-1-2-1.7-3.4-2.1
		c-1.3-0.4-2.6-0.5-3.8-0.4c-1.1,0.1-2.1,0.3-2.9,0.7c-0.8,0.4-1.5,0.9-2,1.5c-0.5,0.6-0.9,1.2-1.2,2c-0.2,0.7-0.3,1.4-0.3,2.1
		c0.1,0.9,0.3,1.5,0.8,2s1.1,0.9,1.9,1.3c1,0.5,2.2,0.9,3.5,1.2c1.3,0.3,2.4,0.7,3.4,1.2c1.3,0.6,2.2,1.4,2.8,2.3
		c0.6,0.9,1,2,1.1,3.2c0.2,2.5-0.6,4.6-2.3,6.3c-1.8,1.7-4.3,2.7-7.6,3c-2,0.2-3.8,0-5.2-0.4c-1.4-0.5-2.7-1.1-3.6-1.8L424.1,220.1z
		"/>
	<path d="M468.3,197l17.3-1.5l-0.3,2.4l-17.3,1.5l-2.4,19.4l19.9-1.7l-0.3,2.4l-22.3,1.9l5.4-43.9l21.7-1.9l-0.3,2.4l-19.3,1.7
		L468.3,197z"/>
	<path d="M505.4,203.9l9.8,12.9l-2.6,0.2l-8.7-11.5l-11.9,13.3l-3.6,0.3l14.1-15.4l-9-12l2.9-0.3l7.6,10.6l10.8-12.2l3.6-0.3
		L505.4,203.9z"/>
	<path d="M527.8,172.5l2.5-0.8l-2.8,22.3c1.7-2.1,3.4-3.7,5.3-4.8c1.9-1.1,3.7-1.7,5.5-1.9c2.2-0.2,4,0.2,5.4,1.2
		c1.4,1,2.1,2.6,2.3,4.9c0.1,0.9,0.1,1.9,0,2.8l-2.2,18.1l-2.4,0.2l2.2-17.9c0.1-1,0.2-1.9,0.1-2.8c-0.1-1.6-0.7-2.7-1.6-3.4
		c-1-0.7-2.3-1-4-0.8c-0.9,0.1-1.7,0.3-2.6,0.6c-0.9,0.3-1.7,0.7-2.5,1.2c-0.8,0.5-1.5,1-2.2,1.7c-0.7,0.6-1.3,1.3-1.8,2
		c-0.7,0.9-1.2,1.7-1.5,2.6c-0.4,0.8-0.6,1.8-0.8,3l-1.9,15.3l-2.4,0.2L527.8,172.5z"/>
	<path d="M559.7,185.8l-3.4,27.5l-2.4,0.2l3.3-27L559.7,185.8z M559.9,173.5c0.6,0,1,0.1,1.4,0.4c0.3,0.3,0.5,0.7,0.6,1.2
		c0.1,0.7-0.1,1.3-0.6,1.8c-0.4,0.5-1,0.7-1.6,0.8c-0.6,0.1-1.1-0.1-1.4-0.3c-0.3-0.3-0.5-0.7-0.6-1.2c-0.1-0.7,0.1-1.3,0.5-1.8
		S559.2,173.6,559.9,173.5z"/>
	<path d="M576.2,212.5c-1.3,0.1-2.5,0.1-3.8-0.1s-2.2-0.4-3-0.8l-2.6,1.4l5.4-44.5l2.5-0.8l-2.3,18.8c1.2-1,2.5-1.7,3.8-2.3
		c1.3-0.6,2.8-0.9,4.5-1.1c1.6-0.1,3,0,4.4,0.4c1.4,0.4,2.6,1,3.6,1.9c1,0.9,1.8,2,2.5,3.3c0.6,1.3,1,2.9,1.2,4.6
		c0.2,2.5,0,4.8-0.7,7c-0.7,2.2-1.8,4.2-3.2,5.9c-1.4,1.7-3.2,3.1-5.3,4.2S578.8,212.3,576.2,212.5z M580.7,185.6
		c-3.5,0.3-6.3,1.7-8.6,4.2l-2.4,19.3c0.9,0.7,1.9,1.1,2.9,1.3c1,0.2,2.2,0.2,3.4,0.1c2.2-0.2,4.2-0.8,6-1.7
		c1.8-0.9,3.3-2.2,4.5-3.6c1.2-1.5,2.2-3.2,2.8-5.1c0.6-1.9,0.8-4,0.6-6.3c-0.2-2.7-1.2-4.8-2.8-6.2
		C585.5,186,583.4,185.4,580.7,185.6z"/>
	<path d="M604.8,181.8l-3.4,27.5l-2.4,0.2l3.3-27L604.8,181.8z M604.9,169.6c0.6,0,1,0.1,1.4,0.4c0.3,0.3,0.5,0.7,0.6,1.2
		c0.1,0.7-0.1,1.3-0.6,1.8c-0.4,0.5-1,0.7-1.6,0.8c-0.6,0.1-1.1-0.1-1.4-0.3c-0.3-0.3-0.5-0.7-0.6-1.2c-0.1-0.7,0.1-1.3,0.5-1.8
		S604.2,169.7,604.9,169.6z"/>
	<path d="M616.5,181.1l1.1-9.1l2.5-0.8l-1.2,9.7l8.7-0.8l-0.3,2.2l-8.7,0.8l-1.9,15.7c-0.2,1.6-0.3,2.9-0.2,3.8
		c0.1,1.1,0.4,2,1.1,2.7c0.6,0.7,1.5,1.3,2.8,1.9l0,0.3l-2.8,0.6c-1-0.4-1.8-1.1-2.3-1.9c-0.5-0.8-0.9-2-1-3.4c-0.1-1,0-2.2,0.2-3.8
		l1.9-15.7l-5.4,0.5l0.3-2.2L616.5,181.1z"/>
	<path d="M636.1,179.1l-3.4,27.5l-2.4,0.2l3.3-27L636.1,179.1z M636.3,166.9c0.6,0,1,0.1,1.4,0.4c0.3,0.3,0.5,0.7,0.6,1.2
		c0.1,0.7-0.1,1.3-0.6,1.8c-0.4,0.5-1,0.7-1.6,0.8c-0.6,0.1-1.1-0.1-1.4-0.3c-0.3-0.3-0.5-0.7-0.6-1.2c-0.1-0.7,0.1-1.3,0.5-1.8
		C635,167.2,635.6,166.9,636.3,166.9z"/>
	<path d="M654.3,205.6c-3.3,0.3-5.9-0.5-8-2.5c-2.1-2-3.3-4.8-3.6-8.5c-0.2-2.5,0-4.7,0.6-6.9c0.6-2.1,1.5-4,2.8-5.6
		c1.2-1.6,2.7-2.9,4.5-3.9c1.8-1,3.7-1.6,5.8-1.7c1.5-0.1,2.9,0,4.2,0.3s2.5,0.9,3.5,1.8c1,0.8,1.8,1.9,2.5,3.3
		c0.7,1.3,1.1,3,1.2,4.8c0.2,2.1,0,4.3-0.5,6.4c-0.5,2.2-1.3,4.1-2.5,5.9c-1.2,1.8-2.6,3.3-4.4,4.5
		C658.7,204.7,656.7,205.4,654.3,205.6z M654.2,203.4c2-0.2,3.7-0.8,5.2-1.8c1.5-1,2.7-2.3,3.6-3.9c1-1.5,1.6-3.3,2-5.1
		c0.4-1.9,0.5-3.7,0.4-5.5c-0.2-2.8-1.2-4.9-2.7-6.3c-1.6-1.4-3.6-2-6.2-1.8c-1.9,0.2-3.5,0.7-5,1.6c-1.5,0.9-2.7,2.1-3.7,3.5
		c-1,1.4-1.7,3-2.2,4.8c-0.5,1.8-0.6,3.7-0.4,5.6c0.1,1.4,0.4,2.7,0.8,3.8c0.4,1.1,1,2.1,1.8,2.9c0.7,0.8,1.6,1.4,2.7,1.8
		C651.6,203.3,652.8,203.5,654.2,203.4z"/>
	<path d="M677.9,175.7l2.4-0.2l-0.7,5.2c1.7-2.1,3.4-3.7,5.3-4.8c1.9-1.1,3.7-1.7,5.5-1.9c2.2-0.2,4,0.2,5.4,1.2
		c1.4,1,2.1,2.7,2.4,5c0.1,0.9,0.1,1.8,0,2.7l-2.2,18.1l-2.4,0.2l2.2-17.9c0.1-1,0.2-1.9,0.1-2.8c-0.1-1.6-0.7-2.7-1.6-3.4
		s-2.3-1-4-0.8c-0.9,0.1-1.7,0.3-2.6,0.6c-0.9,0.3-1.7,0.7-2.5,1.2c-0.8,0.5-1.5,1-2.2,1.7c-0.7,0.6-1.3,1.3-1.8,2
		c-0.7,0.9-1.2,1.7-1.5,2.6c-0.4,0.8-0.6,1.8-0.8,3l-1.9,15.3l-2.4,0.2L677.9,175.7z"/>
	<path d="M727.5,156c1.8-0.6,3.6-1,5.5-1.2c1.8-0.2,3.4-0.1,4.8,0.3c1.4,0.4,2.5,0.9,3.5,1.7c0.9,0.8,1.7,1.7,2.2,2.9
		c0.5,1.1,0.9,2.4,1,3.7c0.1,1.3,0.1,2.5-0.1,3.7c-0.2,1.2-0.6,2.4-1.2,3.6c-0.6,1.2-1.4,2.5-2.4,3.9c-1,1.4-2.2,2.9-3.7,4.6
		c-1.1,1.2-2.3,2.6-3.9,4.2c-1.5,1.6-3.1,3.1-4.7,4.7c-1.6,1.6-3.2,3.2-4.8,4.6s-3,2.8-4.3,3.9l22.4-2l-0.6,2.5l-26.2,2.3l0.2-2
		c1.2-0.9,2.6-2.2,4.3-3.7c1.7-1.6,3.5-3.3,5.3-5.1c1.9-1.8,3.7-3.7,5.5-5.6c1.8-1.9,3.4-3.7,4.8-5.3c1.5-1.8,2.8-3.4,3.7-4.7
		s1.6-2.4,2.1-3.4c0.5-1,0.8-2,0.9-2.9c0.1-0.9,0.1-1.9,0-3c-0.2-2-1-3.6-2.5-4.9s-3.6-1.8-6.3-1.5c-2,0.2-4,0.7-5.9,1.4
		c-1.9,0.8-3.9,2-5.9,3.6l1.2-3.8C724.1,157.5,725.7,156.7,727.5,156z"/>
	<path d="M763.7,196c-3.2,0.3-5.9-0.7-7.9-3c-2-2.3-3.2-5.9-3.7-10.6c-0.4-4.4-0.2-8.4,0.4-12c0.7-3.7,1.7-6.9,3.2-9.6
		c1.5-2.7,3.2-4.8,5.4-6.5c2.1-1.6,4.5-2.5,7-2.8c3.2-0.3,5.8,0.7,7.9,3c2,2.3,3.3,5.8,3.7,10.6c0.4,4.3,0.2,8.3-0.4,12
		c-0.7,3.7-1.7,6.9-3.2,9.6s-3.2,4.9-5.4,6.5C768.6,194.9,766.2,195.8,763.7,196z M763.5,193.6c2.3-0.2,4.4-1.1,6.2-2.6
		s3.3-3.6,4.5-6.1c1.2-2.5,2.1-5.4,2.5-8.8c0.5-3.3,0.6-6.9,0.3-10.6c-0.4-4.1-1.3-7-2.8-8.9c-1.5-1.9-3.5-2.8-5.9-2.5
		c-2.3,0.2-4.4,1.1-6.3,2.6c-1.8,1.5-3.3,3.5-4.5,6c-1.2,2.5-2,5.4-2.5,8.7c-0.5,3.3-0.6,6.8-0.3,10.6c0.4,4.1,1.3,7.1,2.8,9
		C759,192.9,761,193.8,763.5,193.6z"/>
	<path d="M791.4,192.7l5-40.4l-6.1,0.8l0.7-2.6l8.1-0.7l-5.3,42.7L791.4,192.7z"/>
	<path d="M835.5,146.6c-1.7,3.6-3.5,7.3-5.2,11.1c-1.7,3.9-3.3,7.7-4.9,11.5c-1.5,3.8-2.9,7.5-4.2,11.2c-1.3,3.6-2.3,6.9-3.2,10
		l-3.1,0.3c1.1-3.4,2.4-7.1,3.8-10.9c1.4-3.8,2.9-7.6,4.4-11.3c1.5-3.7,3-7.2,4.5-10.5c1.5-3.3,2.8-6.2,4.1-8.7l-22.6,2.3l1.4-2.8
		L835.5,146.6z"/>
</g>
<line class="st0" x1="4.1" y1="286.6" x2="994.4" y2="200"/>
<g>
</g>
<g>
</g>
<g>
</g>
<g>
</g>
<g>
</g>
<g>
</g>
</svg>
