<?xml version="1.0" encoding="utf-8"?>
<!-- Generator: Adobe Illustrator 21.1.0, SVG Export Plug-In . SVG Version: 6.00 Build 0)  -->
<svg version="1.1" id="レイヤー_1" xmlns="http://www.w3.org/2000/svg" xmlns:xlink="http://www.w3.org/1999/xlink" x="0px"
	 y="0px" viewBox="0 0 157.9 48.4" style="enable-background:new 0 0 157.9 48.4;" xml:space="preserve">
<style type="text/css">
	.st0{fill:none;stroke:#3E3A39;stroke-width:0.75;stroke-linejoin:round;stroke-miterlimit:10;}
</style>
<g>
	<path d="M92.1,23l1.8-14.1h3.2c1.5,0,2.6,0.3,3.5,1c0.9,0.7,1.3,1.6,1.4,2.8c0.1,1.6-0.3,2.9-1.3,3.8c-1,0.9-2.5,1.4-4.6,1.4h-1.3
		L94.2,23H92.1z M95.1,15.9h1.1c1.3,0,2.3-0.3,2.9-0.9c0.6-0.6,0.9-1.4,0.8-2.4c-0.1-0.7-0.3-1.2-0.8-1.5c-0.5-0.4-1.2-0.5-2.1-0.5
		h-1.3L95.1,15.9z"/>
	<path d="M104.1,14.5c0.4-0.3,0.9-0.4,1.3-0.6c0.5-0.1,1-0.2,1.5-0.2c1,0,1.8,0.2,2.3,0.7c0.5,0.5,0.8,1.1,0.9,2c0,0.3,0,0.6,0,1
		l-0.7,5.4l-2,0.4l0.1-1.1c-0.4,0.3-0.9,0.6-1.4,0.8c-0.5,0.2-1,0.3-1.6,0.3c-0.7,0-1.2-0.2-1.6-0.5s-0.6-0.8-0.7-1.5
		c-0.1-0.7,0.1-1.3,0.5-1.8s1.1-0.9,2-1.3c0.5-0.2,1-0.3,1.5-0.4c0.5-0.1,1.1-0.2,1.8-0.3l0-0.3c0-0.1,0-0.2,0-0.2
		c0-0.1,0-0.2,0-0.2c0-0.4-0.2-0.6-0.4-0.8c-0.2-0.2-0.6-0.3-1.1-0.3c-0.5,0-1,0.1-1.5,0.3c-0.5,0.2-0.9,0.4-1.3,0.8L104.1,14.5z
		 M107.9,18.6c-0.4,0-0.8,0.1-1.2,0.2c-0.4,0.1-0.8,0.2-1,0.3c-0.5,0.2-0.9,0.5-1.1,0.7c-0.2,0.3-0.3,0.6-0.3,0.9
		c0,0.3,0.1,0.5,0.3,0.6c0.2,0.2,0.5,0.2,0.8,0.2s0.7-0.1,1.1-0.3c0.4-0.2,0.8-0.5,1.1-0.9L107.9,18.6z"/>
	<path d="M113.8,14l0.3-2.6l2.1-0.4l-0.4,3h2.5l-0.2,1.7h-2.5l-0.5,4.2c-0.1,0.5-0.1,0.9-0.1,1.3c0,0.4,0.1,0.7,0.3,0.9
		c0.2,0.2,0.5,0.5,0.8,0.7l0,0.1l-2,0.2c-0.3-0.2-0.6-0.4-0.7-0.7c-0.2-0.3-0.3-0.7-0.3-1.1c0-0.3,0-0.7,0-1.2l0.6-4.5h-1.7l0.2-1.7
		H113.8z"/>
	<path d="M120.5,14l0.3-2.6l2.1-0.4l-0.4,3h2.5l-0.2,1.7h-2.5l-0.5,4.2c-0.1,0.5-0.1,0.9-0.1,1.3c0,0.4,0.1,0.7,0.3,0.9
		c0.2,0.2,0.5,0.5,0.8,0.7l0,0.1l-2,0.2c-0.3-0.2-0.6-0.4-0.7-0.7c-0.2-0.3-0.3-0.7-0.3-1.1c0-0.3,0-0.7,0-1.2l0.6-4.5h-1.7l0.2-1.7
		H120.5z"/>
	<path d="M130.3,19c-0.2,0.1-0.4,0.1-0.7,0.2s-0.5,0.1-0.8,0.1c-0.3,0-0.5,0.1-0.8,0.1c-0.3,0-0.5,0.1-0.8,0.1
		c0.1,0.6,0.3,1,0.7,1.4c0.4,0.4,1,0.5,1.7,0.5c0.6,0,1.2-0.1,1.7-0.4c0.6-0.2,1-0.6,1.5-1h0.1l-0.4,2.2c-0.4,0.3-0.8,0.6-1.3,0.7
		c-0.5,0.2-1.1,0.2-1.6,0.2c-0.7,0-1.2-0.1-1.7-0.3c-0.5-0.2-0.9-0.5-1.3-0.8c-0.3-0.3-0.6-0.7-0.8-1.2s-0.3-0.9-0.4-1.4
		c-0.1-0.7,0-1.4,0.3-2.1s0.6-1.3,1.1-1.9c0.5-0.6,1.1-1,1.7-1.4c0.7-0.3,1.4-0.5,2.1-0.5c0.9,0,1.6,0.2,2,0.6
		c0.5,0.4,0.7,1,0.8,1.6c0.1,0.7-0.2,1.3-0.7,1.8C132.5,18.3,131.6,18.7,130.3,19z M130.4,15.2c-0.4,0-0.7,0.1-1.1,0.3
		c-0.3,0.2-0.7,0.4-1,0.7c-0.3,0.3-0.5,0.6-0.7,1c-0.2,0.4-0.3,0.8-0.4,1.2c0.4-0.1,0.8-0.1,1.3-0.2c0.5-0.1,0.9-0.2,1.3-0.3
		c0.7-0.2,1.2-0.5,1.4-0.8c0.3-0.3,0.4-0.6,0.4-1c0-0.3-0.1-0.5-0.4-0.7C131.1,15.3,130.8,15.2,130.4,15.2z"/>
	<path d="M141.3,16c-0.1,0-0.1,0-0.2,0c-0.1,0-0.1,0-0.2,0c-0.8,0-1.5,0.1-2,0.4c-0.4,0.2-0.7,0.4-0.8,0.6c-0.2,0.2-0.3,0.5-0.3,0.9
		l-0.6,5h-2l1.1-9h2l-0.2,1.3c0.4-0.4,0.8-0.8,1.4-1.1c0.5-0.3,1.1-0.4,1.7-0.4c0.2,0,0.3,0,0.4,0L141.3,16z"/>
	<path d="M143.2,14h2l-0.2,1.3c0.5-0.5,1.1-0.9,1.6-1.2c0.5-0.2,1-0.4,1.6-0.4c0.8,0,1.4,0.2,1.8,0.6c0.5,0.4,0.7,1,0.8,1.8
		c0,0.1,0,0.3,0,0.5c0,0.2,0,0.3,0,0.5l-0.7,5.9h-2l0.7-5.5c0-0.1,0-0.3,0-0.4c0-0.1,0-0.2,0-0.3c-0.1-0.8-0.5-1.2-1.4-1.2
		c-0.4,0-0.8,0.1-1.1,0.3c-0.3,0.2-0.6,0.4-0.9,0.7c-0.2,0.2-0.4,0.4-0.5,0.7c-0.1,0.2-0.2,0.5-0.2,0.9l-0.6,4.8h-2L143.2,14z"/>
</g>
<polyline class="st0" points="77,26.9 77,41.9 91.1,27.8 152.5,27.8 "/>
<g>
</g>
<g>
</g>
<g>
</g>
<g>
</g>
<g>
</g>
<g>
</g>
</svg>
