<?xml version="1.0" encoding="utf-8"?>
<!-- Generator: Adobe Illustrator 21.1.0, SVG Export Plug-In . SVG Version: 6.00 Build 0)  -->
<svg version="1.1" id="レイヤー_1" xmlns="http://www.w3.org/2000/svg" xmlns:xlink="http://www.w3.org/1999/xlink" x="0px"
	 y="0px" viewBox="0 0 157.9 48.4" style="enable-background:new 0 0 157.9 48.4;" xml:space="preserve">
<style type="text/css">
	.st0{fill:none;stroke:#3E3A39;stroke-width:0.75;stroke-linejoin:round;stroke-miterlimit:10;}
</style>
<g>
	<path d="M92.1,24.9l1.8-14.3l3.2-0.3c1.5-0.1,2.6,0.1,3.5,0.7c0.9,0.6,1.3,1.5,1.4,2.6c0.1,1.6-0.3,3-1.3,4c-1,1-2.5,1.6-4.6,1.8
		l-1.3,0.1l-0.6,5.2L92.1,24.9z M95.1,17.7l1.1-0.1c1.3-0.1,2.3-0.5,2.9-1.1c0.6-0.6,0.9-1.4,0.8-2.4c-0.1-0.7-0.3-1.1-0.8-1.5
		c-0.5-0.3-1.2-0.4-2.1-0.4l-1.3,0.1L95.1,17.7z"/>
	<path d="M104.1,15.4c0.4-0.3,0.9-0.5,1.3-0.7c0.5-0.2,1-0.3,1.5-0.3c1-0.1,1.8,0.1,2.3,0.5c0.5,0.4,0.8,1,0.9,1.9c0,0.3,0,0.6,0,1
		l-0.7,5.5l-2,0.6l0.1-1.1c-0.4,0.4-0.9,0.7-1.4,0.9c-0.5,0.3-1,0.4-1.6,0.4c-0.7,0.1-1.2-0.1-1.6-0.4c-0.4-0.3-0.6-0.8-0.7-1.4
		c-0.1-0.7,0.1-1.3,0.5-1.9c0.4-0.6,1.1-1,2-1.4c0.5-0.2,1-0.4,1.5-0.6c0.5-0.2,1.1-0.3,1.8-0.4l0-0.4c0-0.1,0-0.2,0-0.2
		c0-0.1,0-0.2,0-0.2c0-0.4-0.2-0.6-0.4-0.8c-0.2-0.2-0.6-0.3-1.1-0.2c-0.5,0-1,0.2-1.5,0.4c-0.5,0.2-0.9,0.5-1.3,0.9L104.1,15.4z
		 M107.9,19.2c-0.4,0.1-0.8,0.2-1.2,0.3c-0.4,0.1-0.8,0.2-1,0.4c-0.5,0.3-0.9,0.5-1.1,0.8c-0.2,0.3-0.3,0.6-0.3,1
		c0,0.3,0.1,0.5,0.3,0.6c0.2,0.1,0.5,0.2,0.8,0.2c0.4,0,0.7-0.2,1.1-0.4c0.4-0.2,0.8-0.5,1.1-1L107.9,19.2z"/>
	<path d="M113.8,14.1l0.3-2.7l2.1-0.6l-0.4,3.1l2.5-0.2l-0.2,1.7l-2.5,0.2l-0.5,4.3c-0.1,0.5-0.1,0.9-0.1,1.3c0,0.4,0.1,0.7,0.3,0.9
		c0.2,0.2,0.5,0.4,0.8,0.6l0,0.1l-2,0.4c-0.3-0.1-0.6-0.3-0.7-0.6c-0.2-0.3-0.3-0.6-0.3-1.1c0-0.3,0-0.7,0-1.2l0.6-4.6l-1.7,0.1
		l0.2-1.7L113.8,14.1z"/>
	<path d="M120.5,13.5l0.3-2.7l2.1-0.6l-0.4,3.1l2.5-0.2l-0.2,1.7l-2.5,0.2l-0.5,4.3c-0.1,0.5-0.1,0.9-0.1,1.3c0,0.4,0.1,0.7,0.3,0.9
		c0.2,0.2,0.5,0.4,0.8,0.6l0,0.1l-2,0.4c-0.3-0.1-0.6-0.3-0.7-0.6c-0.2-0.3-0.3-0.6-0.3-1.1c0-0.3,0-0.7,0-1.2l0.6-4.6l-1.7,0.1
		l0.2-1.7L120.5,13.5z"/>
	<path d="M130.3,17.6c-0.2,0.1-0.4,0.2-0.7,0.2c-0.2,0.1-0.5,0.1-0.8,0.2c-0.3,0.1-0.5,0.1-0.8,0.2c-0.3,0.1-0.5,0.1-0.8,0.2
		c0.1,0.6,0.3,1,0.7,1.3c0.4,0.3,1,0.5,1.7,0.4c0.6-0.1,1.2-0.2,1.7-0.5c0.6-0.3,1-0.7,1.5-1.2l0.1,0l-0.4,2.2
		c-0.4,0.3-0.8,0.6-1.3,0.8c-0.5,0.2-1.1,0.3-1.6,0.4c-0.7,0.1-1.2,0-1.7-0.1c-0.5-0.2-0.9-0.4-1.3-0.7c-0.3-0.3-0.6-0.7-0.8-1.1
		s-0.3-0.9-0.4-1.4c-0.1-0.7,0-1.4,0.3-2.1c0.3-0.7,0.6-1.4,1.1-2c0.5-0.6,1.1-1.1,1.7-1.5c0.7-0.4,1.4-0.6,2.1-0.7
		c0.9-0.1,1.6,0.1,2,0.5c0.5,0.4,0.7,0.9,0.8,1.5c0.1,0.7-0.2,1.3-0.7,1.9C132.5,16.7,131.6,17.2,130.3,17.6z M130.4,13.8
		c-0.4,0-0.7,0.2-1.1,0.4c-0.3,0.2-0.7,0.5-1,0.8c-0.3,0.3-0.5,0.7-0.7,1.1c-0.2,0.4-0.3,0.8-0.4,1.3c0.4-0.1,0.8-0.2,1.3-0.4
		c0.5-0.1,0.9-0.3,1.3-0.4c0.7-0.3,1.2-0.6,1.4-0.9c0.3-0.3,0.4-0.7,0.4-1c0-0.3-0.1-0.5-0.3-0.7C131.1,13.9,130.8,13.8,130.4,13.8z
		"/>
	<path d="M141.3,13.7c-0.1,0-0.1,0-0.2,0c-0.1,0-0.1,0-0.2,0c-0.8,0.1-1.5,0.3-2,0.6c-0.4,0.2-0.7,0.4-0.8,0.7
		c-0.2,0.2-0.3,0.6-0.3,0.9l-0.6,5.1l-2,0.2l1.1-9.1l2-0.2l-0.2,1.3c0.4-0.5,0.8-0.9,1.4-1.2s1.1-0.5,1.7-0.6c0.2,0,0.3,0,0.4,0
		L141.3,13.7z"/>
	<path d="M143.2,11.5l2-0.2l-0.2,1.3c0.5-0.6,1.1-1,1.6-1.3c0.5-0.3,1-0.4,1.6-0.5c0.8-0.1,1.4,0.1,1.8,0.5c0.5,0.4,0.7,1,0.8,1.7
		c0,0.1,0,0.3,0,0.5c0,0.2,0,0.3,0,0.5l-0.7,5.9l-2,0.2l0.7-5.5c0-0.1,0-0.3,0-0.4c0-0.1,0-0.2,0-0.3c-0.1-0.8-0.5-1.2-1.4-1.1
		c-0.4,0-0.8,0.2-1.1,0.4c-0.3,0.2-0.6,0.5-0.9,0.8c-0.2,0.2-0.4,0.5-0.5,0.7s-0.2,0.6-0.2,0.9l-0.6,4.9l-2,0.2L143.2,11.5z"/>
</g>
<polyline class="st0" points="77,30.2 77,45.2 91.1,29.9 152.5,24.5 "/>
<g>
</g>
<g>
</g>
<g>
</g>
<g>
</g>
<g>
</g>
<g>
</g>
</svg>
