<?xml version="1.0" encoding="utf-8"?>
<!-- Generator: Adobe Illustrator 21.1.0, SVG Export Plug-In . SVG Version: 6.00 Build 0)  -->
<svg version="1.1" id="レイヤー_1" xmlns="http://www.w3.org/2000/svg" xmlns:xlink="http://www.w3.org/1999/xlink" x="0px"
	 y="0px" viewBox="0 0 200 100" style="enable-background:new 0 0 200 100;" xml:space="preserve">
<style type="text/css">
	.st0{fill:#108B96;}
	.st1{fill:#FFFFFF;}
</style>
<rect class="st0" width="200" height="100"/>
<g>
	<path class="st1" d="M22.62,79.26l6.73-54.83l13.46-1.18c5.86-0.51,10.48,0.4,13.87,2.72s5.29,5.81,5.69,10.46
		c0.56,6.42-1.1,11.6-4.99,15.54s-9.86,6.27-17.91,6.98l-4.39,0.38l-2.41,19.04L22.62,79.26z M36.13,50.54l3.84-0.34
		c4.41-0.39,7.7-1.65,9.82-3.78c2.13-2.13,3.06-4.89,2.76-8.28c-0.2-2.23-1.12-3.89-2.79-4.96c-1.66-1.07-4.02-1.47-7.09-1.21
		l-4.32,0.38L36.13,50.54z"/>
	<path class="st1" d="M79.2,38.55L74.77,74.7l-9.55,0.84l4.18-34.16L79.2,38.55z M75.98,21.83c1.53-0.13,2.78,0.21,3.74,1.04
		c0.97,0.83,1.51,1.99,1.64,3.47c0.07,0.84-0.02,1.63-0.28,2.38c-0.27,0.75-0.64,1.41-1.12,2c-0.49,0.59-1.09,1.06-1.8,1.42
		c-0.72,0.36-1.49,0.59-2.33,0.67c-1.58,0.14-2.84-0.19-3.77-1.01c-0.93-0.81-1.46-1.93-1.59-3.37c-0.15-1.76,0.31-3.27,1.39-4.52
		C72.93,22.66,74.31,21.97,75.98,21.83z"/>
</g>
<g>
	<path class="st1" d="M90.47,42.4l2.6-21.15l3.42-0.3c2.06-0.18,3.69,0.12,4.89,0.89c1.19,0.77,1.87,1.93,2,3.5
		c0.2,2.28-0.41,4.1-1.85,5.49s-3.63,2.2-6.59,2.46l-2.24,0.2l-1.08,8.82L90.47,42.4L90.47,42.4z M92.84,32.33l2.23-0.2
		c2.55-0.22,4.4-0.93,5.56-2.1c1.16-1.18,1.66-2.71,1.5-4.59c-0.11-1.24-0.65-2.14-1.6-2.72c-0.96-0.58-2.32-0.79-4.05-0.64
		l-2.39,0.21L92.84,32.33z"/>
	<path class="st1" d="M113,28.53c-1.1,0.1-2.06,0.34-2.88,0.72c-0.83,0.38-1.53,0.89-2.11,1.5c-0.13,0.14-0.25,0.28-0.32,0.43
		c-0.09,0.15-0.17,0.34-0.25,0.55c-0.08,0.22-0.15,0.47-0.2,0.76c-0.05,0.3-0.11,0.64-0.17,1.05l-0.92,7.48l-1.16,0.1l1.61-13.12
		l1.16-0.1l-0.27,2.16c0.68-0.73,1.37-1.29,2.1-1.69c0.73-0.39,1.51-0.69,2.33-0.9c0.37-0.08,0.78-0.15,1.23-0.19L113,28.53z"/>
	<path class="st1" d="M119.8,40.3c-1.57,0.14-2.86-0.26-3.86-1.21c-1-0.95-1.57-2.31-1.72-4.11c-0.1-1.19-0.01-2.29,0.29-3.31
		c0.3-1.02,0.75-1.91,1.34-2.69c0.59-0.77,1.31-1.4,2.16-1.86c0.84-0.48,1.77-0.75,2.77-0.83c0.72-0.06,1.4-0.01,2.05,0.16
		c0.65,0.17,1.21,0.46,1.7,0.86c0.49,0.4,0.89,0.93,1.21,1.57c0.32,0.65,0.52,1.42,0.59,2.32c0.09,1.03,0.01,2.06-0.23,3.09
		c-0.24,1.04-0.64,1.99-1.2,2.85c-0.56,0.85-1.26,1.57-2.11,2.15C121.92,39.86,120.92,40.2,119.8,40.3z M119.73,39.19
		c0.97-0.08,1.8-0.38,2.51-0.88c0.71-0.5,1.29-1.13,1.74-1.87c0.46-0.74,0.79-1.56,0.98-2.47c0.19-0.9,0.25-1.79,0.17-2.67
		c-0.12-1.34-0.56-2.36-1.31-3.05c-0.75-0.69-1.75-0.97-2.99-0.86c-0.9,0.08-1.7,0.34-2.41,0.78s-1.31,1-1.78,1.67
		c-0.47,0.67-0.83,1.45-1.04,2.33s-0.3,1.78-0.21,2.72c0.06,0.68,0.19,1.3,0.4,1.85c0.21,0.55,0.49,1.02,0.86,1.4
		c0.35,0.38,0.79,0.67,1.31,0.86C118.48,39.19,119.06,39.25,119.73,39.19z"/>
	<path class="st1" d="M132.31,25.62l-1.71,13.97c-0.09,0.77-0.21,1.41-0.34,1.96c-0.13,0.53-0.28,1-0.43,1.38
		c-0.16,0.39-0.34,0.71-0.54,0.99c-0.21,0.28-0.41,0.54-0.62,0.78l-2.24,0.98l-0.11-0.34c0.51-0.36,0.94-0.71,1.3-1.08
		c0.36-0.36,0.66-0.77,0.91-1.21c0.25-0.44,0.45-0.95,0.6-1.53s0.27-1.25,0.36-2.04l1.66-13.51L132.31,25.62z M132.41,19.74
		c0.25-0.02,0.47,0.04,0.64,0.18s0.27,0.34,0.29,0.59c0.03,0.34-0.07,0.63-0.28,0.85c-0.21,0.23-0.47,0.35-0.78,0.38
		c-0.29,0.03-0.5-0.03-0.67-0.16c-0.15-0.13-0.25-0.32-0.27-0.57c-0.03-0.34,0.06-0.63,0.25-0.86
		C131.8,19.89,132.07,19.77,132.41,19.74z"/>
	<path class="st1" d="M141.57,32.05c-0.35,0.12-0.74,0.25-1.16,0.36s-0.86,0.24-1.31,0.36c-0.45,0.12-0.9,0.23-1.36,0.34
		c-0.45,0.1-0.88,0.2-1.26,0.29l0.01,0.13c0.11,1.21,0.55,2.15,1.32,2.86c0.77,0.71,1.85,0.99,3.24,0.87
		c0.86-0.07,1.7-0.33,2.52-0.76c0.82-0.43,1.52-0.99,2.09-1.67l0.08-0.01l-0.23,1.73c-0.54,0.5-1.2,0.92-2.01,1.27
		s-1.6,0.56-2.38,0.63c-0.92,0.08-1.72,0.01-2.41-0.21s-1.26-0.55-1.74-0.98c-0.47-0.44-0.84-0.96-1.1-1.56
		c-0.26-0.6-0.42-1.25-0.48-1.95c-0.09-1.04,0.05-2.09,0.42-3.15c0.37-1.06,0.9-2.04,1.57-2.93c0.68-0.89,1.49-1.64,2.43-2.23
		c0.94-0.59,1.96-0.94,3.03-1.04c1.19-0.1,2.1,0.1,2.75,0.6c0.65,0.51,1.02,1.18,1.09,2.02c0.04,0.47-0.01,0.93-0.15,1.4
		c-0.14,0.46-0.4,0.91-0.79,1.34c-0.38,0.44-0.92,0.84-1.6,1.23C143.47,31.37,142.61,31.73,141.57,32.05z M142.94,25.48
		c-0.81,0.07-1.58,0.33-2.3,0.75c-0.72,0.43-1.38,0.97-1.96,1.62c-0.58,0.64-1.05,1.37-1.44,2.15c-0.38,0.8-0.62,1.58-0.72,2.37
		c0.32-0.07,0.69-0.15,1.11-0.26c0.42-0.11,0.87-0.23,1.35-0.36s0.96-0.27,1.46-0.44c0.49-0.16,0.96-0.32,1.39-0.48
		c1.31-0.48,2.27-1.04,2.86-1.7s0.86-1.33,0.8-2.01c-0.05-0.58-0.3-1.01-0.75-1.3C144.3,25.52,143.7,25.42,142.94,25.48z"/>
	<path class="st1" d="M159.28,35.68c-0.49,0.36-1.11,0.7-1.88,0.99c-0.76,0.29-1.54,0.48-2.35,0.55c-1.74,0.15-3.12-0.22-4.15-1.1
		c-1.03-0.88-1.61-2.16-1.76-3.83c-0.1-1.13,0.01-2.22,0.31-3.27c0.31-1.05,0.79-1.99,1.45-2.81c0.66-0.82,1.48-1.52,2.46-2.06
		c0.99-0.55,2.09-0.88,3.33-0.98c0.86-0.07,1.63-0.03,2.33,0.14c0.69,0.17,1.29,0.43,1.79,0.81l-0.44,1.15
		c-0.46-0.36-0.98-0.63-1.55-0.8c-0.57-0.18-1.25-0.23-2.06-0.16c-1.08,0.09-2.04,0.37-2.88,0.82c-0.84,0.46-1.55,1.04-2.09,1.76
		c-0.55,0.72-0.95,1.53-1.21,2.43c-0.25,0.91-0.34,1.86-0.25,2.84c0.05,0.61,0.18,1.17,0.41,1.68c0.22,0.51,0.51,0.95,0.9,1.31
		c0.38,0.36,0.86,0.62,1.41,0.78s1.2,0.22,1.94,0.15c0.94-0.08,1.78-0.31,2.54-0.67s1.5-0.92,2.18-1.67l0.08-0.01L159.28,35.68z"/>
	<path class="st1" d="M165.43,22.86l0.54-4.38l1.18-0.4l-0.59,4.69l4.19-0.37l-0.13,1.07l-4.19,0.37l-0.93,7.59
		c-0.09,0.77-0.12,1.39-0.08,1.85c0.05,0.52,0.21,0.95,0.51,1.3c0.29,0.35,0.74,0.65,1.34,0.9l-0.02,0.16l-1.36,0.31
		c-0.49-0.21-0.86-0.52-1.12-0.92c-0.27-0.4-0.42-0.96-0.49-1.65c-0.04-0.47-0.01-1.08,0.08-1.85l0.93-7.59l-2.58,0.23l0.13-1.07
		L165.43,22.86z"/>
	<path class="st1" d="M93.08,72.29l2.6-21.15l1.16-0.1l-2.6,21.15L93.08,72.29z"/>
	<path class="st1" d="M108.99,70.14c-0.66,0.51-1.34,0.88-2.03,1.13c-0.69,0.24-1.35,0.39-1.98,0.44c-0.86,0.07-1.63,0-2.28-0.22
		c-0.66-0.22-1.22-0.56-1.7-1.01c-0.47-0.45-0.85-0.98-1.11-1.61c-0.28-0.63-0.44-1.31-0.5-2.04c-0.11-1.26,0.03-2.42,0.42-3.51
		c0.39-1.08,0.93-2.03,1.64-2.84c0.7-0.81,1.53-1.47,2.46-1.96c0.93-0.49,1.9-0.79,2.9-0.88c0.72-0.06,1.37-0.05,1.95,0.05
		c0.58,0.1,1.16,0.28,1.72,0.55l1.02-8.44l1.19-0.38l-2.62,21.26l-1.22,0.62L108.99,70.14z M104.88,70.6
		c0.81-0.07,1.57-0.26,2.31-0.56c0.74-0.31,1.39-0.73,1.98-1.27l1.14-9.26c-0.39-0.29-0.89-0.5-1.49-0.63
		c-0.6-0.13-1.26-0.16-1.96-0.1c-0.9,0.08-1.75,0.33-2.55,0.77c-0.81,0.43-1.5,0.99-2.07,1.7c-0.58,0.7-1.02,1.51-1.32,2.44
		s-0.4,1.93-0.31,3.01c0.05,0.61,0.18,1.17,0.39,1.67c0.2,0.5,0.49,0.93,0.85,1.28c0.36,0.35,0.8,0.6,1.3,0.78
		C103.67,70.61,104.23,70.66,104.88,70.6z"/>
	<path class="st1" d="M120.94,63.97c-0.35,0.12-0.74,0.25-1.16,0.36c-0.42,0.12-0.86,0.24-1.31,0.36s-0.9,0.23-1.36,0.34
		c-0.45,0.1-0.88,0.2-1.26,0.29l0.01,0.13c0.11,1.21,0.55,2.15,1.32,2.86s1.85,0.99,3.24,0.87c0.86-0.07,1.7-0.33,2.52-0.76
		c0.82-0.43,1.52-1,2.09-1.68l0.08-0.01l-0.23,1.73c-0.54,0.5-1.2,0.92-2.01,1.27c-0.8,0.35-1.6,0.56-2.38,0.63
		c-0.92,0.08-1.72,0.01-2.41-0.21c-0.69-0.22-1.26-0.55-1.74-0.98c-0.47-0.44-0.84-0.96-1.1-1.56s-0.42-1.25-0.48-1.95
		c-0.09-1.04,0.05-2.09,0.42-3.16c0.37-1.07,0.9-2.04,1.57-2.93c0.68-0.89,1.49-1.64,2.43-2.23c0.94-0.59,1.96-0.94,3.03-1.04
		c1.19-0.1,2.1,0.1,2.75,0.6c0.65,0.51,1.02,1.18,1.09,2.02c0.04,0.47-0.01,0.93-0.15,1.4c-0.14,0.46-0.4,0.91-0.79,1.34
		s-0.92,0.84-1.6,1.23C122.84,63.29,121.98,63.65,120.94,63.97z M122.33,57.4c-0.81,0.07-1.58,0.32-2.3,0.75s-1.38,0.97-1.96,1.62
		c-0.58,0.64-1.05,1.37-1.44,2.16c-0.38,0.8-0.62,1.58-0.72,2.36c0.32-0.07,0.69-0.15,1.11-0.26c0.42-0.11,0.87-0.23,1.35-0.36
		c0.48-0.13,0.96-0.27,1.46-0.44c0.49-0.16,0.96-0.32,1.39-0.48c1.31-0.48,2.27-1.04,2.86-1.7c0.6-0.65,0.86-1.33,0.8-2.01
		c-0.05-0.58-0.3-1.01-0.75-1.3S123.07,57.34,122.33,57.4z"/>
	<path class="st1" d="M130.47,56.04l1.16-0.1l-0.32,2.52c0.79-1.01,1.65-1.78,2.58-2.31c0.92-0.53,1.8-0.83,2.64-0.9
		c1.08-0.09,1.95,0.1,2.6,0.59c0.65,0.48,1.04,1.29,1.14,2.42c0.04,0.45,0.04,0.88-0.02,1.31l-1.08,8.72l-1.16,0.1l1.06-8.63
		c0.07-0.5,0.08-0.94,0.04-1.33c-0.07-0.76-0.33-1.3-0.8-1.64s-1.1-0.48-1.9-0.41c-0.41,0.04-0.82,0.12-1.23,0.27
		c-0.41,0.15-0.8,0.33-1.19,0.57c-0.38,0.23-0.73,0.5-1.06,0.8s-0.63,0.63-0.89,0.97c-0.32,0.43-0.57,0.84-0.74,1.24
		c-0.18,0.41-0.29,0.89-0.37,1.46l-0.9,7.4l-1.16,0.1L130.47,56.04z"/>
	<path class="st1" d="M146.23,54.66l0.54-4.38l1.18-0.4l-0.59,4.69l4.19-0.37l-0.13,1.07l-4.19,0.37l-0.93,7.59
		c-0.09,0.77-0.12,1.39-0.08,1.85c0.05,0.52,0.21,0.95,0.51,1.3c0.29,0.35,0.74,0.65,1.34,0.9l-0.02,0.16l-1.36,0.31
		c-0.49-0.21-0.86-0.52-1.12-0.92c-0.27-0.4-0.42-0.96-0.49-1.65c-0.04-0.47-0.01-1.08,0.08-1.85l0.93-7.59l-2.58,0.23l0.13-1.07
		C143.64,54.88,146.23,54.66,146.23,54.66z"/>
	<path class="st1" d="M155.68,53.69l-1.63,13.26l-1.16,0.1l1.6-13.02L155.68,53.69z M155.77,47.81c0.27-0.02,0.49,0.04,0.65,0.17
		c0.16,0.14,0.26,0.34,0.28,0.59c0.03,0.34-0.07,0.63-0.28,0.85c-0.21,0.23-0.47,0.35-0.78,0.38c-0.29,0.03-0.5-0.03-0.67-0.16
		c-0.15-0.13-0.25-0.32-0.27-0.57c-0.03-0.34,0.06-0.63,0.25-0.86C155.16,47.96,155.43,47.84,155.77,47.81z"/>
	<path class="st1" d="M161.35,53.33l0.54-4.38l1.18-0.4l-0.59,4.69l4.19-0.37l-0.13,1.07l-4.19,0.37l-0.93,7.59
		c-0.09,0.77-0.12,1.39-0.08,1.85c0.05,0.52,0.21,0.95,0.51,1.3c0.29,0.35,0.74,0.65,1.34,0.9l-0.02,0.16l-1.36,0.31
		c-0.49-0.21-0.86-0.52-1.12-0.92c-0.27-0.4-0.42-0.96-0.49-1.65c-0.04-0.47-0.01-1.08,0.08-1.85l0.93-7.59l-2.58,0.23l0.13-1.07
		C158.76,53.56,161.35,53.33,161.35,53.33z"/>
	<path class="st1" d="M167.58,70.67c0.42-0.57,0.84-1.16,1.25-1.78c0.42-0.62,0.81-1.25,1.2-1.9s0.75-1.3,1.1-1.92l-3.65-12.26
		l1.24-0.11l3.13,11l5.93-11.79l1.42-0.12l-7.29,13.97c-0.82,1.57-1.55,2.86-2.17,3.85s-1.22,1.85-1.79,2.57l-1.61,0.14l-0.01-0.09
		C166.75,71.75,167.16,71.24,167.58,70.67z"/>
</g>
</svg>
