<?xml version="1.0" encoding="utf-8"?>
<!-- Generator: Adobe Illustrator 21.1.0, SVG Export Plug-In . SVG Version: 6.00 Build 0)  -->
<svg version="1.1" id="レイヤー_1" xmlns="http://www.w3.org/2000/svg" xmlns:xlink="http://www.w3.org/1999/xlink" x="0px"
	 y="0px" viewBox="0 0 200 100" style="enable-background:new 0 0 200 100;" xml:space="preserve">
<style type="text/css">
	.st0{fill:#108B96;}
	.st1{fill:#FFFFFF;}
</style>
<rect y="0" class="st0" width="200" height="100"/>
<g>
	<g>
		<path class="st1" d="M22.6,80.6l6.7-54.8l13.5-1.2c5.9-0.5,10.5,0.4,13.9,2.7s5.3,5.8,5.7,10.5c0.6,6.4-1.1,11.6-5,15.5
			s-9.9,6.3-17.9,7l-4.4,0.4l-2.4,19L22.6,80.6z M36.1,51.9l3.8-0.3c4.4-0.4,7.7-1.7,9.8-3.8c2.1-2.1,3.1-4.9,2.8-8.3
			c-0.2-2.2-1.1-3.9-2.8-5c-1.7-1.1-4-1.5-7.1-1.2l-4.3,0.4L36.1,51.9z"/>
		<path class="st1" d="M79.2,39.9L74.8,76l-9.6,0.8l4.2-34.2L79.2,39.9z M76,23.2c1.5-0.1,2.8,0.2,3.7,1c1,0.8,1.5,2,1.6,3.5
			c0.1,0.8,0,1.6-0.3,2.4c-0.3,0.8-0.6,1.4-1.1,2c-0.5,0.6-1.1,1.1-1.8,1.4c-0.7,0.4-1.5,0.6-2.3,0.7c-1.6,0.1-2.8-0.2-3.8-1
			c-0.9-0.8-1.5-1.9-1.6-3.4c-0.2-1.8,0.3-3.3,1.4-4.5C72.9,24,74.3,23.3,76,23.2z"/>
	</g>
	<g>
		<path class="st1" d="M90.5,43.7l2.6-21.1l3.4-0.3c2.1-0.2,3.7,0.1,4.9,0.9c1.2,0.8,1.9,1.9,2,3.5c0.2,2.3-0.4,4.1-1.8,5.5
			c-1.4,1.4-3.6,2.2-6.6,2.5l-2.2,0.2l-1.1,8.8L90.5,43.7L90.5,43.7z M92.8,33.7l2.2-0.2c2.6-0.2,4.4-0.9,5.6-2.1
			c1.2-1.2,1.7-2.7,1.5-4.6c-0.1-1.2-0.7-2.1-1.6-2.7c-1-0.6-2.3-0.8-4.1-0.6l-2.4,0.2L92.8,33.7z"/>
		<path class="st1" d="M113,29.9c-1.1,0.1-2.1,0.3-2.9,0.7c-0.8,0.4-1.5,0.9-2.1,1.5c-0.1,0.1-0.2,0.3-0.3,0.4
			c-0.1,0.2-0.2,0.3-0.2,0.5c-0.1,0.2-0.2,0.5-0.2,0.8c-0.1,0.3-0.1,0.6-0.2,1l-0.9,7.5l-1.2,0.1l1.6-13.1l1.2-0.1l-0.3,2.2
			c0.7-0.7,1.4-1.3,2.1-1.7c0.7-0.4,1.5-0.7,2.3-0.9c0.4-0.1,0.8-0.1,1.2-0.2L113,29.9z"/>
		<path class="st1" d="M119.8,41.6c-1.6,0.1-2.9-0.3-3.9-1.2s-1.6-2.3-1.7-4.1c-0.1-1.2,0-2.3,0.3-3.3c0.3-1,0.8-1.9,1.3-2.7
			c0.6-0.8,1.3-1.4,2.2-1.9c0.8-0.5,1.8-0.8,2.8-0.8c0.7-0.1,1.4,0,2.1,0.2s1.2,0.5,1.7,0.9c0.5,0.4,0.9,0.9,1.2,1.6
			c0.3,0.6,0.5,1.4,0.6,2.3c0.1,1,0,2.1-0.2,3.1c-0.2,1-0.6,2-1.2,2.8c-0.6,0.8-1.3,1.6-2.1,2.2C121.9,41.2,120.9,41.5,119.8,41.6z
			 M119.7,40.5c1-0.1,1.8-0.4,2.5-0.9s1.3-1.1,1.7-1.9c0.5-0.7,0.8-1.6,1-2.5c0.2-0.9,0.2-1.8,0.2-2.7c-0.1-1.3-0.6-2.4-1.3-3
			c-0.8-0.7-1.8-1-3-0.9c-0.9,0.1-1.7,0.3-2.4,0.8s-1.3,1-1.8,1.7s-0.8,1.5-1,2.3s-0.3,1.8-0.2,2.7c0.1,0.7,0.2,1.3,0.4,1.8
			s0.5,1,0.9,1.4c0.3,0.4,0.8,0.7,1.3,0.9C118.5,40.5,119.1,40.6,119.7,40.5z"/>
		<path class="st1" d="M132.3,27l-1.7,14c-0.1,0.8-0.2,1.4-0.3,2c-0.1,0.5-0.3,1-0.4,1.4c-0.2,0.4-0.3,0.7-0.5,1
			c-0.2,0.3-0.4,0.5-0.6,0.8l-2.2,1l-0.1-0.3c0.5-0.4,0.9-0.7,1.3-1.1c0.4-0.4,0.7-0.8,0.9-1.2s0.4-1,0.6-1.5s0.3-1.2,0.4-2
			l1.7-13.5L132.3,27z M132.4,21.1c0.2,0,0.5,0,0.6,0.2s0.3,0.3,0.3,0.6c0,0.3-0.1,0.6-0.3,0.9c-0.2,0.2-0.5,0.4-0.8,0.4
			c-0.3,0-0.5,0-0.7-0.2c-0.1-0.1-0.2-0.3-0.3-0.6c0-0.3,0.1-0.6,0.2-0.9C131.8,21.2,132.1,21.1,132.4,21.1z"/>
		<path class="st1" d="M141.6,33.4c-0.4,0.1-0.7,0.2-1.2,0.4s-0.9,0.2-1.3,0.4s-0.9,0.2-1.4,0.3c-0.4,0.1-0.9,0.2-1.3,0.3l0,0.1
			c0.1,1.2,0.6,2.2,1.3,2.9s1.9,1,3.2,0.9c0.9-0.1,1.7-0.3,2.5-0.8c0.8-0.4,1.5-1,2.1-1.7l0.1,0l-0.2,1.7c-0.5,0.5-1.2,0.9-2,1.3
			s-1.6,0.6-2.4,0.6c-0.9,0.1-1.7,0-2.4-0.2s-1.3-0.5-1.7-1c-0.5-0.4-0.8-1-1.1-1.6c-0.3-0.6-0.4-1.2-0.5-2c-0.1-1,0.1-2.1,0.4-3.1
			c0.4-1.1,0.9-2,1.6-2.9c0.7-0.9,1.5-1.6,2.4-2.2c0.9-0.6,2-0.9,3-1c1.2-0.1,2.1,0.1,2.8,0.6c0.6,0.5,1,1.2,1.1,2
			c0,0.5,0,0.9-0.1,1.4c-0.1,0.5-0.4,0.9-0.8,1.3c-0.4,0.4-0.9,0.8-1.6,1.2C143.5,32.7,142.6,33.1,141.6,33.4z M142.9,26.8
			c-0.8,0.1-1.6,0.3-2.3,0.8c-0.7,0.4-1.4,1-2,1.6c-0.6,0.6-1.1,1.4-1.4,2.1c-0.4,0.8-0.6,1.6-0.7,2.4c0.3-0.1,0.7-0.2,1.1-0.3
			c0.4-0.1,0.9-0.2,1.4-0.4s1-0.3,1.5-0.4c0.5-0.2,1-0.3,1.4-0.5c1.3-0.5,2.3-1,2.9-1.7s0.9-1.3,0.8-2c-0.1-0.6-0.3-1-0.8-1.3
			C144.3,26.9,143.7,26.8,142.9,26.8z"/>
		<path class="st1" d="M159.3,37c-0.5,0.4-1.1,0.7-1.9,1c-0.8,0.3-1.5,0.5-2.4,0.5c-1.7,0.2-3.1-0.2-4.1-1.1c-1-0.9-1.6-2.2-1.8-3.8
			c-0.1-1.1,0-2.2,0.3-3.3c0.3-1,0.8-2,1.4-2.8s1.5-1.5,2.5-2.1c1-0.5,2.1-0.9,3.3-1c0.9-0.1,1.6,0,2.3,0.1c0.7,0.2,1.3,0.4,1.8,0.8
			l-0.4,1.1c-0.5-0.4-1-0.6-1.6-0.8c-0.6-0.2-1.2-0.2-2.1-0.2c-1.1,0.1-2,0.4-2.9,0.8c-0.8,0.5-1.6,1-2.1,1.8
			c-0.6,0.7-0.9,1.5-1.2,2.4c-0.2,0.9-0.3,1.9-0.2,2.8c0.1,0.6,0.2,1.2,0.4,1.7c0.2,0.5,0.5,1,0.9,1.3c0.4,0.4,0.9,0.6,1.4,0.8
			s1.2,0.2,1.9,0.2c0.9-0.1,1.8-0.3,2.5-0.7s1.5-0.9,2.2-1.7l0.1,0L159.3,37z"/>
		<path class="st1" d="M165.4,24.2l0.5-4.4l1.2-0.4l-0.6,4.7l4.2-0.4l-0.1,1.1l-4.2,0.4l-0.9,7.6c-0.1,0.8-0.1,1.4-0.1,1.8
			c0.1,0.5,0.2,1,0.5,1.3c0.3,0.3,0.7,0.7,1.3,0.9l0,0.2l-1.4,0.3c-0.5-0.2-0.9-0.5-1.1-0.9c-0.3-0.4-0.4-1-0.5-1.7
			c0-0.5,0-1.1,0.1-1.8l0.9-7.6l-2.6,0.2l0.1-1.1L165.4,24.2z"/>
		<path class="st1" d="M93.1,73.6l2.6-21.2l1.2-0.1l-2.6,21.2L93.1,73.6z"/>
		<path class="st1" d="M109,71.5c-0.7,0.5-1.3,0.9-2,1.1c-0.7,0.2-1.3,0.4-2,0.4c-0.9,0.1-1.6,0-2.3-0.2c-0.7-0.2-1.2-0.6-1.7-1
			c-0.5-0.4-0.8-1-1.1-1.6c-0.3-0.6-0.4-1.3-0.5-2c-0.1-1.3,0-2.4,0.4-3.5c0.4-1.1,0.9-2,1.6-2.8c0.7-0.8,1.5-1.5,2.5-2
			c0.9-0.5,1.9-0.8,2.9-0.9c0.7-0.1,1.4,0,1.9,0c0.6,0.1,1.2,0.3,1.7,0.5l1-8.4l1.2-0.4L110.1,72l-1.2,0.6L109,71.5z M104.9,71.9
			c0.8-0.1,1.6-0.3,2.3-0.6c0.7-0.3,1.4-0.7,2-1.3l1.1-9.3c-0.4-0.3-0.9-0.5-1.5-0.6s-1.3-0.2-2-0.1c-0.9,0.1-1.8,0.3-2.6,0.8
			c-0.8,0.4-1.5,1-2.1,1.7c-0.6,0.7-1,1.5-1.3,2.4s-0.4,1.9-0.3,3c0.1,0.6,0.2,1.2,0.4,1.7c0.2,0.5,0.5,0.9,0.8,1.3s0.8,0.6,1.3,0.8
			C103.7,71.9,104.2,72,104.9,71.9z"/>
		<path class="st1" d="M120.9,65.3c-0.3,0.1-0.7,0.2-1.2,0.4c-0.4,0.1-0.9,0.2-1.3,0.4s-0.9,0.2-1.4,0.3c-0.4,0.1-0.9,0.2-1.3,0.3
			l0,0.1c0.1,1.2,0.6,2.2,1.3,2.9s1.8,1,3.2,0.9c0.9-0.1,1.7-0.3,2.5-0.8s1.5-1,2.1-1.7l0.1,0l-0.2,1.7c-0.5,0.5-1.2,0.9-2,1.3
			c-0.8,0.3-1.6,0.6-2.4,0.6c-0.9,0.1-1.7,0-2.4-0.2s-1.3-0.6-1.7-1c-0.5-0.4-0.8-1-1.1-1.6s-0.4-1.2-0.5-1.9
			c-0.1-1,0.1-2.1,0.4-3.2c0.4-1.1,0.9-2,1.6-2.9c0.7-0.9,1.5-1.6,2.4-2.2s2-0.9,3-1c1.2-0.1,2.1,0.1,2.8,0.6c0.7,0.5,1,1.2,1.1,2
			c0,0.5,0,0.9-0.2,1.4c-0.1,0.5-0.4,0.9-0.8,1.3s-0.9,0.8-1.6,1.2C122.8,64.6,122,65,120.9,65.3z M122.3,58.7
			c-0.8,0.1-1.6,0.3-2.3,0.8s-1.4,1-2,1.6c-0.6,0.6-1.1,1.4-1.4,2.2c-0.4,0.8-0.6,1.6-0.7,2.4c0.3-0.1,0.7-0.2,1.1-0.3
			s0.9-0.2,1.3-0.4c0.5-0.1,1-0.3,1.5-0.4c0.5-0.2,1-0.3,1.4-0.5c1.3-0.5,2.3-1,2.9-1.7c0.6-0.7,0.9-1.3,0.8-2
			c-0.1-0.6-0.3-1-0.8-1.3S123.1,58.7,122.3,58.7z"/>
		<path class="st1" d="M130.5,57.4l1.2-0.1l-0.3,2.5c0.8-1,1.6-1.8,2.6-2.3c0.9-0.5,1.8-0.8,2.6-0.9c1.1-0.1,1.9,0.1,2.6,0.6
			c0.6,0.5,1,1.3,1.1,2.4c0,0.5,0,0.9,0,1.3l-1.1,8.7l-1.2,0.1l1.1-8.6c0.1-0.5,0.1-0.9,0-1.3c-0.1-0.8-0.3-1.3-0.8-1.6
			s-1.1-0.5-1.9-0.4c-0.4,0-0.8,0.1-1.2,0.3c-0.4,0.2-0.8,0.3-1.2,0.6c-0.4,0.2-0.7,0.5-1.1,0.8s-0.6,0.6-0.9,1
			c-0.3,0.4-0.6,0.8-0.7,1.2c-0.2,0.4-0.3,0.9-0.4,1.5l-0.9,7.4l-1.2,0.1L130.5,57.4z"/>
		<path class="st1" d="M146.2,56l0.5-4.4l1.2-0.4l-0.6,4.7l4.2-0.4l-0.1,1.1l-4.2,0.4l-0.9,7.6c-0.1,0.8-0.1,1.4-0.1,1.8
			c0.1,0.5,0.2,0.9,0.5,1.3c0.3,0.3,0.7,0.7,1.3,0.9l0,0.2l-1.4,0.3c-0.5-0.2-0.9-0.5-1.1-0.9c-0.3-0.4-0.4-1-0.5-1.7
			c0-0.5,0-1.1,0.1-1.8l0.9-7.6l-2.6,0.2l0.1-1.1C143.6,56.2,146.2,56,146.2,56z"/>
		<path class="st1" d="M155.7,55L154,68.3l-1.2,0.1l1.6-13L155.7,55z M155.8,49.1c0.3,0,0.5,0,0.6,0.2c0.2,0.1,0.3,0.3,0.3,0.6
			c0,0.3-0.1,0.6-0.3,0.8c-0.2,0.2-0.5,0.3-0.8,0.4c-0.3,0-0.5,0-0.7-0.2c-0.1-0.1-0.2-0.3-0.3-0.6c0-0.3,0.1-0.6,0.2-0.9
			C155.2,49.3,155.4,49.2,155.8,49.1z"/>
		<path class="st1" d="M161.4,54.7l0.5-4.4l1.2-0.4l-0.6,4.7l4.2-0.4l-0.1,1.1l-4.2,0.4l-0.9,7.6c-0.1,0.8-0.1,1.4-0.1,1.8
			c0.1,0.5,0.2,1,0.5,1.3c0.3,0.3,0.7,0.7,1.3,0.9l0,0.2l-1.4,0.3c-0.5-0.2-0.9-0.5-1.1-0.9c-0.3-0.4-0.4-1-0.5-1.7
			c0-0.5,0-1.1,0.1-1.9l0.9-7.6l-2.6,0.2l0.1-1.1C158.8,54.9,161.4,54.7,161.4,54.7z"/>
		<path class="st1" d="M167.6,72c0.4-0.6,0.8-1.2,1.2-1.8c0.4-0.6,0.8-1.2,1.2-1.9s0.8-1.3,1.1-1.9l-3.6-12.3l1.2-0.1l3.1,11
			l5.9-11.8l1.4-0.1l-7.3,14c-0.8,1.6-1.6,2.9-2.2,3.8s-1.2,1.8-1.8,2.6l-1.6,0.1l0-0.1C166.8,73.1,167.2,72.6,167.6,72z"/>
	</g>
</g>
</svg>
