<?xml version="1.0" encoding="utf-8"?>
<!-- Generator: Adobe Illustrator 21.1.0, SVG Export Plug-In . SVG Version: 6.00 Build 0)  -->
<svg version="1.1" id="レイヤー_1" xmlns="http://www.w3.org/2000/svg" xmlns:xlink="http://www.w3.org/1999/xlink" x="0px"
	 y="0px" viewBox="0 0 935.8 276.9" style="enable-background:new 0 0 935.8 276.9;" xml:space="preserve">
<style type="text/css">
	.st0{fill:#E8E8E8;}
	.st1{fill:#EFEFEF;}
	.st2{fill:#F7F8F8;}
	.st3{fill:#BB9361;}
	.st4{enable-background:new    ;}
	.st5{fill:#15858F;}
	.st6{fill:#C54B82;}
	.st7{fill:#FFFFFF;}
	.st8{fill:none;stroke:#000000;stroke-miterlimit:10;}
</style>
<g>
	<rect x="43.6" y="314.3" class="st0" width="104.9" height="104.9"/>
	<rect x="43.6" y="312.9" class="st1" width="104.9" height="104.9"/>
	<rect x="43.6" y="311.5" class="st2" width="104.9" height="104.9"/>
	<rect x="43.6" y="300.1" class="st3" width="104.9" height="14.2"/>
	<g class="st4">
		<path d="M86.8,319.7v12.5h-3.4V324c-0.6,0.4-1.1,0.8-1.6,1c-0.5,0.3-1.2,0.5-2,0.8V323c1.2-0.4,2.1-0.8,2.7-1.3
			c0.6-0.5,1.1-1.2,1.5-1.9H86.8z"/>
		<path d="M98.2,319.7v12.5h-3.4V324c-0.6,0.4-1.1,0.8-1.6,1c-0.5,0.3-1.2,0.5-2,0.8V323c1.2-0.4,2.1-0.8,2.7-1.3
			c0.6-0.5,1.1-1.2,1.5-1.9H98.2z"/>
	</g>
	<g class="st4">
		<path d="M110.2,318.9v12.4c0,0.8-0.2,1.2-0.8,1.4c-0.6,0.2-1.7,0.2-3.4,0.2c-0.1-0.3-0.3-0.8-0.5-1.1c0.8,0,1.5,0,2.1,0
			c1.4,0,1.5,0,1.5-0.5v-3.6h-7.9c-0.4,1.9-1.2,3.8-2.9,5.2c-0.2-0.2-0.6-0.6-0.8-0.8c2.8-2.3,3-5.6,3-8.3v-4.9H110.2z M101.6,323.8
			c0,0.8,0,1.8-0.2,2.9h7.7v-2.9H101.6z M109.1,319.9h-7.6v2.8h7.6V319.9z"/>
	</g>
	<g class="st4">
		<path d="M105.9,376.1H76.7v-0.2l30.4-36.9h0.2v35.7h5.7v1.4h-5.7v19.1h-1.4V376.1z M105.9,374.8v-32l-26.4,32H105.9z"/>
	</g>
	<g class="st4">
		<path class="st5" d="M83.8,411.3c0.4,0.4,0.9,0.8,1.5,1c0.6,0.2,1.2,0.4,1.8,0.4c0.6,0,1-0.1,1.2-0.3c0.3-0.2,0.4-0.4,0.4-0.7
			c0-0.5-0.3-0.8-0.8-1.1c-0.4-0.2-0.8-0.4-1.2-0.5c-0.4-0.2-0.8-0.3-1.2-0.5c-0.7-0.3-1.2-0.7-1.4-1.2c-0.3-0.4-0.4-1-0.4-1.6
			c0-0.4,0.1-0.8,0.2-1.1s0.4-0.6,0.7-0.9c0.3-0.3,0.6-0.5,1-0.6c0.4-0.1,0.9-0.2,1.4-0.2c0.7,0,1.3,0.1,1.8,0.2
			c0.5,0.1,1,0.3,1.5,0.6l-0.5,2.1c-0.4-0.4-0.8-0.6-1.3-0.8c-0.5-0.2-1-0.3-1.4-0.3c-0.5,0-0.8,0.1-1,0.3c-0.2,0.2-0.3,0.4-0.3,0.7
			c0,0.3,0.1,0.5,0.2,0.6c0.1,0.2,0.3,0.3,0.6,0.4c0.3,0.1,0.7,0.3,1.1,0.5c0.4,0.2,0.8,0.3,1.2,0.5c0.7,0.3,1.2,0.8,1.5,1.2
			s0.4,1,0.4,1.6c0,0.9-0.3,1.6-1,2.1s-1.5,0.8-2.7,0.8c-0.8,0-1.4-0.1-2-0.3c-0.6-0.2-1-0.4-1.4-0.7L83.8,411.3z"/>
		<path class="st5" d="M93.4,405c0.5-0.3,1-0.6,1.6-0.7s1.2-0.2,1.7-0.2c1.3,0,2.2,0.3,2.8,0.9c0.6,0.6,0.9,1.5,0.9,2.6v6.3
			l-2.1,0.5V413c-0.5,0.4-1,0.7-1.5,1c-0.5,0.3-1.2,0.4-1.8,0.4c-0.8,0-1.4-0.2-1.9-0.6c-0.5-0.4-0.7-1-0.7-1.7
			c0-0.7,0.2-1.3,0.6-1.7c0.4-0.5,0.9-0.9,1.7-1.2c0.5-0.2,1.1-0.4,1.6-0.6c0.6-0.2,1.3-0.3,2-0.4v-0.6c0-0.5-0.2-1-0.5-1.3
			c-0.3-0.3-0.8-0.5-1.4-0.5c-0.5,0-1,0.1-1.5,0.3c-0.5,0.2-1,0.5-1.3,0.8h-0.1V405z M98.2,409.3c-0.5,0.1-0.9,0.2-1.4,0.3
			c-0.5,0.1-0.9,0.3-1.2,0.4c-0.7,0.4-1.1,0.9-1.1,1.5c0,0.4,0.1,0.6,0.3,0.9c0.2,0.2,0.5,0.3,1,0.3c0.4,0,0.8-0.1,1.2-0.3
			c0.4-0.2,0.8-0.5,1.1-1V409.3z"/>
		<path class="st5" d="M104,404.3v-2.9l2.2-0.4v3.3h2.8v1.8h-2.8v4.7c0,0.5,0,0.9,0.1,1.2c0,0.3,0.1,0.6,0.2,0.8
			c0.1,0.2,0.3,0.4,0.5,0.6c0.2,0.2,0.5,0.3,0.8,0.5v0.2l-2.4,0.3c-0.2-0.1-0.4-0.2-0.6-0.4s-0.3-0.4-0.4-0.6
			c-0.1-0.2-0.2-0.6-0.3-0.9c-0.1-0.4-0.1-0.8-0.1-1.3v-4.9h-1.8v-1.8H104z"/>
	</g>
</g>
<g>
	<rect x="151.2" y="314.3" class="st0" width="104.9" height="104.9"/>
	<rect x="151.2" y="312.9" class="st1" width="104.9" height="104.9"/>
	<rect x="151.2" y="311.5" class="st2" width="104.9" height="104.9"/>
	<rect x="151.2" y="300.1" class="st3" width="104.9" height="14.2"/>
	<g class="st4">
		<path d="M194.5,319.7v12.5h-3.4V324c-0.6,0.4-1.1,0.8-1.6,1c-0.5,0.3-1.2,0.5-2,0.8V323c1.2-0.4,2.1-0.8,2.7-1.3
			c0.6-0.5,1.1-1.2,1.5-1.9H194.5z"/>
		<path d="M205.9,319.7v12.5h-3.4V324c-0.6,0.4-1.1,0.8-1.6,1c-0.5,0.3-1.2,0.5-2,0.8V323c1.2-0.4,2.1-0.8,2.7-1.3
			c0.6-0.5,1.1-1.2,1.5-1.9H205.9z"/>
	</g>
	<g class="st4">
		<path d="M217.9,318.9v12.4c0,0.8-0.2,1.2-0.8,1.4c-0.6,0.2-1.7,0.2-3.4,0.2c-0.1-0.3-0.3-0.8-0.5-1.1c0.8,0,1.5,0,2.1,0
			c1.4,0,1.5,0,1.5-0.5v-3.6h-7.9c-0.4,1.9-1.2,3.8-2.9,5.2c-0.2-0.2-0.6-0.6-0.8-0.8c2.8-2.3,3-5.6,3-8.3v-4.9H217.9z M209.3,323.8
			c0,0.8,0,1.8-0.2,2.9h7.7v-2.9H209.3z M216.8,319.9h-7.6v2.8h7.6V319.9z"/>
	</g>
	<g class="st4">
		<path d="M217.5,342.4h-25.5l-2.4,19.2c0.7-0.1,1.6-0.2,2.8-0.2c1.2,0,2.3-0.1,3.4-0.1c3.6,0,6.9,0.4,9.6,1.3
			c2.8,0.8,5.1,2,6.9,3.5c1.8,1.5,3.2,3.3,4.1,5.3c0.9,2.1,1.4,4.3,1.4,6.7c0,6.2-2.4,11-7.1,14.5c-4.8,3.5-11.6,5.3-20.4,5.3
			c-0.5,0-0.9,0-1.3,0c-0.4,0-0.7,0-1-0.1l0.1-1.4c0.3,0,0.6,0.1,1,0.1s0.8,0,1.2,0c8.5,0,15-1.6,19.4-4.9c4.4-3.3,6.7-7.8,6.7-13.5
			c0-2.3-0.4-4.3-1.3-6.2c-0.9-1.9-2.2-3.5-3.9-4.9c-1.7-1.3-3.9-2.4-6.5-3.1c-2.6-0.7-5.6-1.1-9-1.1c-1.4,0-2.7,0-4,0.1
			c-1.3,0.1-2.5,0.2-3.8,0.4l2.8-22.2h27L217.5,342.4z"/>
	</g>
	<g class="st4">
		<path d="M188.5,411.3c0.4,0.4,0.9,0.8,1.5,1c0.6,0.2,1.2,0.4,1.8,0.4c0.6,0,1-0.1,1.2-0.3c0.3-0.2,0.4-0.4,0.4-0.7
			c0-0.5-0.3-0.8-0.8-1.1c-0.4-0.2-0.8-0.4-1.2-0.5c-0.4-0.2-0.8-0.3-1.2-0.5c-0.7-0.3-1.2-0.7-1.4-1.2c-0.3-0.4-0.4-1-0.4-1.6
			c0-0.4,0.1-0.8,0.2-1.1s0.4-0.6,0.7-0.9c0.3-0.3,0.6-0.5,1-0.6c0.4-0.1,0.9-0.2,1.4-0.2c0.7,0,1.3,0.1,1.8,0.2
			c0.5,0.1,1,0.3,1.5,0.6l-0.5,2.1c-0.4-0.4-0.8-0.6-1.3-0.8c-0.5-0.2-1-0.3-1.4-0.3c-0.5,0-0.8,0.1-1,0.3c-0.2,0.2-0.3,0.4-0.3,0.7
			c0,0.3,0.1,0.5,0.2,0.6c0.1,0.2,0.3,0.3,0.6,0.4c0.3,0.1,0.7,0.3,1.1,0.5c0.4,0.2,0.8,0.3,1.2,0.5c0.7,0.3,1.2,0.8,1.5,1.2
			s0.4,1,0.4,1.6c0,0.9-0.3,1.6-1,2.1s-1.5,0.8-2.7,0.8c-0.8,0-1.4-0.1-2-0.3c-0.6-0.2-1-0.4-1.4-0.7L188.5,411.3z"/>
		<path d="M200,404.3v6.1c0,0.7,0.2,1.2,0.5,1.5s0.8,0.5,1.3,0.5c0.5,0,0.9-0.1,1.3-0.4c0.4-0.2,0.7-0.6,1-1c0.2-0.3,0.3-0.6,0.3-1
			v-5.6h2.2v9.6l-2.2,0.5v-1.8c-0.4,0.6-0.9,1-1.5,1.3c-0.6,0.3-1.2,0.5-1.9,0.5c-1,0-1.8-0.3-2.4-0.9c-0.5-0.6-0.8-1.4-0.8-2.5
			v-6.6H200z"/>
		<path d="M209.7,404.3h2.2v1.5c0.6-0.6,1.1-1.1,1.7-1.4c0.5-0.3,1.1-0.4,1.8-0.4c1,0,1.8,0.3,2.3,0.8c0.6,0.6,0.8,1.4,0.8,2.5v6.7
			h-2.2v-6c0-0.7-0.1-1.2-0.4-1.6c-0.3-0.3-0.7-0.5-1.3-0.5c-0.4,0-0.8,0.1-1.2,0.3c-0.4,0.2-0.7,0.4-0.9,0.7
			c-0.2,0.3-0.3,0.5-0.4,0.7c-0.1,0.2-0.1,0.6-0.1,1v5.3h-2.2V404.3z"/>
	</g>
	<g class="st4">
		<path class="st6" d="M188.5,411.3c0.4,0.4,0.9,0.8,1.5,1c0.6,0.2,1.2,0.4,1.8,0.4c0.6,0,1-0.1,1.2-0.3c0.3-0.2,0.4-0.4,0.4-0.7
			c0-0.5-0.3-0.8-0.8-1.1c-0.4-0.2-0.8-0.4-1.2-0.5c-0.4-0.2-0.8-0.3-1.2-0.5c-0.7-0.3-1.2-0.7-1.4-1.2c-0.3-0.4-0.4-1-0.4-1.6
			c0-0.4,0.1-0.8,0.2-1.1s0.4-0.6,0.7-0.9c0.3-0.3,0.6-0.5,1-0.6c0.4-0.1,0.9-0.2,1.4-0.2c0.7,0,1.3,0.1,1.8,0.2
			c0.5,0.1,1,0.3,1.5,0.6l-0.5,2.1c-0.4-0.4-0.8-0.6-1.3-0.8c-0.5-0.2-1-0.3-1.4-0.3c-0.5,0-0.8,0.1-1,0.3c-0.2,0.2-0.3,0.4-0.3,0.7
			c0,0.3,0.1,0.5,0.2,0.6c0.1,0.2,0.3,0.3,0.6,0.4c0.3,0.1,0.7,0.3,1.1,0.5c0.4,0.2,0.8,0.3,1.2,0.5c0.7,0.3,1.2,0.8,1.5,1.2
			s0.4,1,0.4,1.6c0,0.9-0.3,1.6-1,2.1s-1.5,0.8-2.7,0.8c-0.8,0-1.4-0.1-2-0.3c-0.6-0.2-1-0.4-1.4-0.7L188.5,411.3z"/>
		<path class="st6" d="M200,404.3v6.1c0,0.7,0.2,1.2,0.5,1.5s0.8,0.5,1.3,0.5c0.5,0,0.9-0.1,1.3-0.4c0.4-0.2,0.7-0.6,1-1
			c0.2-0.3,0.3-0.6,0.3-1v-5.6h2.2v9.6l-2.2,0.5v-1.8c-0.4,0.6-0.9,1-1.5,1.3c-0.6,0.3-1.2,0.5-1.9,0.5c-1,0-1.8-0.3-2.4-0.9
			c-0.5-0.6-0.8-1.4-0.8-2.5v-6.6H200z"/>
		<path class="st6" d="M209.7,404.3h2.2v1.5c0.6-0.6,1.1-1.1,1.7-1.4c0.5-0.3,1.1-0.4,1.8-0.4c1,0,1.8,0.3,2.3,0.8
			c0.6,0.6,0.8,1.4,0.8,2.5v6.7h-2.2v-6c0-0.7-0.1-1.2-0.4-1.6c-0.3-0.3-0.7-0.5-1.3-0.5c-0.4,0-0.8,0.1-1.2,0.3
			c-0.4,0.2-0.7,0.4-0.9,0.7c-0.2,0.3-0.3,0.5-0.4,0.7c-0.1,0.2-0.1,0.6-0.1,1v5.3h-2.2V404.3z"/>
	</g>
</g>
<g>
	<rect x="278.7" y="314.3" class="st0" width="104.9" height="104.9"/>
	<rect x="278.7" y="312.9" class="st1" width="104.9" height="104.9"/>
	<rect x="278.7" y="311.5" class="st2" width="104.9" height="104.9"/>
	<rect x="278.7" y="300.1" class="st3" width="104.9" height="14.2"/>
	<g class="st4">
		<path d="M322,319.7v12.5h-3.4V324c-0.6,0.4-1.1,0.8-1.6,1c-0.5,0.3-1.2,0.5-2,0.8V323c1.2-0.4,2.1-0.8,2.7-1.3
			c0.6-0.5,1.1-1.2,1.5-1.9H322z"/>
		<path d="M335.6,332.1h-10.2c0.1-1,0.5-2,1.1-2.8c0.6-0.9,1.7-1.9,3.3-3.1c1-0.7,1.6-1.3,1.9-1.7c0.3-0.4,0.4-0.7,0.4-1.1
			c0-0.4-0.1-0.7-0.4-1s-0.6-0.4-1-0.4c-0.4,0-0.8,0.1-1.1,0.4c-0.3,0.3-0.5,0.8-0.6,1.4l-3.4-0.3c0.1-1,0.4-1.7,0.7-2.2
			c0.4-0.5,0.9-1,1.5-1.2c0.6-0.3,1.5-0.4,2.7-0.4c1.2,0,2.1,0.1,2.8,0.4c0.7,0.3,1.2,0.7,1.6,1.3s0.6,1.2,0.6,1.9
			c0,0.7-0.2,1.5-0.7,2.1c-0.4,0.7-1.2,1.4-2.4,2.2c-0.7,0.5-1.1,0.8-1.4,1c-0.2,0.2-0.5,0.4-0.8,0.7h5.3V332.1z"/>
	</g>
	<g class="st4">
		<path d="M345.4,318.9v12.4c0,0.8-0.2,1.2-0.8,1.4c-0.6,0.2-1.7,0.2-3.4,0.2c-0.1-0.3-0.3-0.8-0.5-1.1c0.8,0,1.5,0,2.1,0
			c1.4,0,1.5,0,1.5-0.5v-3.6h-7.9c-0.4,1.9-1.2,3.8-2.9,5.2c-0.2-0.2-0.6-0.6-0.8-0.8c2.8-2.3,3-5.6,3-8.3v-4.9H345.4z M336.7,323.8
			c0,0.8,0,1.8-0.2,2.9h7.7v-2.9H336.7z M344.3,319.9h-7.6v2.8h7.6V319.9z"/>
	</g>
	<g class="st4">
		<path d="M321.4,395.2c7.4-3.4,13.1-7.3,17.1-11.7c4-4.5,6.5-9.7,7.4-15.8c-2,1.7-4.3,3-6.8,3.9c-2.5,0.9-5.4,1.3-8.7,1.3
			c-2.6,0-5-0.4-7.1-1.2s-4-1.9-5.5-3.4c-1.5-1.5-2.7-3.3-3.6-5.4c-0.8-2.1-1.3-4.5-1.3-7.1c0-2.3,0.4-4.4,1.2-6.3
			c0.8-2,1.9-3.7,3.3-5.1c1.4-1.4,3.2-2.6,5.2-3.4c2-0.8,4.2-1.3,6.7-1.3c2.9,0,5.5,0.5,7.8,1.5c2.3,1,4.2,2.5,5.8,4.4
			s2.8,4.2,3.6,6.9c0.8,2.7,1.2,5.8,1.2,9.2c0,8.1-2.1,14.9-6.4,20.6c-4.2,5.7-10.7,10.4-19.3,14.1L321.4,395.2z M330.4,371.4
			c3.3,0,6.3-0.5,8.8-1.4c2.6-1,4.9-2.4,6.9-4.3c0.1-1.3,0.2-2.6,0.2-3.9c0-6.5-1.5-11.5-4.4-15.2c-2.9-3.6-7.1-5.5-12.6-5.5
			c-2.3,0-4.3,0.4-6.1,1.1c-1.8,0.7-3.4,1.8-4.7,3.1c-1.3,1.3-2.3,2.9-3,4.7c-0.7,1.8-1,3.7-1,5.8c0,2.4,0.4,4.6,1.2,6.5
			c0.8,1.9,1.8,3.6,3.2,4.9c1.4,1.3,3.1,2.4,5,3.1C325.8,371,328,371.4,330.4,371.4z"/>
	</g>
	<g class="st4">
		<path class="st5" d="M319,411.3c0.4,0.4,0.9,0.8,1.5,1c0.6,0.2,1.2,0.4,1.8,0.4c0.6,0,1-0.1,1.2-0.3c0.3-0.2,0.4-0.4,0.4-0.7
			c0-0.5-0.3-0.8-0.8-1.1c-0.4-0.2-0.8-0.4-1.2-0.5c-0.4-0.2-0.8-0.3-1.2-0.5c-0.7-0.3-1.2-0.7-1.4-1.2c-0.3-0.4-0.4-1-0.4-1.6
			c0-0.4,0.1-0.8,0.2-1.1s0.4-0.6,0.7-0.9c0.3-0.3,0.6-0.5,1-0.6c0.4-0.1,0.9-0.2,1.4-0.2c0.7,0,1.3,0.1,1.8,0.2
			c0.5,0.1,1,0.3,1.5,0.6l-0.5,2.1c-0.4-0.4-0.8-0.6-1.3-0.8c-0.5-0.2-1-0.3-1.4-0.3c-0.5,0-0.8,0.1-1,0.3c-0.2,0.2-0.3,0.4-0.3,0.7
			c0,0.3,0.1,0.5,0.2,0.6c0.1,0.2,0.3,0.3,0.6,0.4c0.3,0.1,0.7,0.3,1.1,0.5c0.4,0.2,0.8,0.3,1.2,0.5c0.7,0.3,1.2,0.8,1.5,1.2
			s0.4,1,0.4,1.6c0,0.9-0.3,1.6-1,2.1s-1.5,0.8-2.7,0.8c-0.8,0-1.4-0.1-2-0.3c-0.6-0.2-1-0.4-1.4-0.7L319,411.3z"/>
		<path class="st5" d="M328.6,405c0.5-0.3,1-0.6,1.6-0.7s1.2-0.2,1.7-0.2c1.3,0,2.2,0.3,2.8,0.9c0.6,0.6,0.9,1.5,0.9,2.6v6.3
			l-2.1,0.5V413c-0.5,0.4-1,0.7-1.5,1c-0.5,0.3-1.2,0.4-1.8,0.4c-0.8,0-1.4-0.2-1.9-0.6c-0.5-0.4-0.7-1-0.7-1.7
			c0-0.7,0.2-1.3,0.6-1.7c0.4-0.5,0.9-0.9,1.7-1.2c0.5-0.2,1.1-0.4,1.6-0.6c0.6-0.2,1.3-0.3,2-0.4v-0.6c0-0.5-0.2-1-0.5-1.3
			c-0.3-0.3-0.8-0.5-1.4-0.5c-0.5,0-1,0.1-1.5,0.3c-0.5,0.2-1,0.5-1.3,0.8h-0.1V405z M333.4,409.3c-0.5,0.1-0.9,0.2-1.4,0.3
			c-0.5,0.1-0.9,0.3-1.2,0.4c-0.7,0.4-1.1,0.9-1.1,1.5c0,0.4,0.1,0.6,0.3,0.9c0.2,0.2,0.5,0.3,1,0.3c0.4,0,0.8-0.1,1.2-0.3
			c0.4-0.2,0.8-0.5,1.1-1V409.3z"/>
		<path class="st5" d="M339.2,404.3v-2.9l2.2-0.4v3.3h2.8v1.8h-2.8v4.7c0,0.5,0,0.9,0.1,1.2c0,0.3,0.1,0.6,0.2,0.8
			c0.1,0.2,0.3,0.4,0.5,0.6c0.2,0.2,0.5,0.3,0.8,0.5v0.2l-2.4,0.3c-0.2-0.1-0.4-0.2-0.6-0.4s-0.3-0.4-0.4-0.6
			c-0.1-0.2-0.2-0.6-0.3-0.9c-0.1-0.4-0.1-0.8-0.1-1.3v-4.9h-1.8v-1.8H339.2z"/>
	</g>
</g>
<g>
	<rect x="386.4" y="314.3" class="st0" width="104.9" height="104.9"/>
	<rect x="386.4" y="312.9" class="st1" width="104.9" height="104.9"/>
	<rect x="386.4" y="311.5" class="st2" width="104.9" height="104.9"/>
	<rect x="386.4" y="300.1" class="st3" width="104.9" height="14.2"/>
	<g class="st4">
		<path d="M429.6,319.7v12.5h-3.4V324c-0.6,0.4-1.1,0.8-1.6,1c-0.5,0.3-1.2,0.5-2,0.8V323c1.2-0.4,2.1-0.8,2.7-1.3
			c0.6-0.5,1.1-1.2,1.5-1.9H429.6z"/>
		<path d="M443.3,332.1h-10.2c0.1-1,0.5-2,1.1-2.8c0.6-0.9,1.7-1.9,3.3-3.1c1-0.7,1.6-1.3,1.9-1.7c0.3-0.4,0.4-0.7,0.4-1.1
			c0-0.4-0.1-0.7-0.4-1c-0.3-0.3-0.6-0.4-1-0.4c-0.4,0-0.8,0.1-1.1,0.4c-0.3,0.3-0.5,0.8-0.6,1.4l-3.4-0.3c0.1-1,0.4-1.7,0.7-2.2
			s0.9-1,1.5-1.2c0.6-0.3,1.5-0.4,2.7-0.4c1.2,0,2.1,0.1,2.8,0.4c0.7,0.3,1.2,0.7,1.6,1.3c0.4,0.6,0.6,1.2,0.6,1.9
			c0,0.7-0.2,1.5-0.7,2.1c-0.4,0.7-1.2,1.4-2.4,2.2c-0.7,0.5-1.1,0.8-1.4,1s-0.5,0.4-0.8,0.7h5.3V332.1z"/>
	</g>
	<g class="st4">
		<path d="M453,318.9v12.4c0,0.8-0.2,1.2-0.8,1.4c-0.6,0.2-1.7,0.2-3.4,0.2c-0.1-0.3-0.3-0.8-0.5-1.1c0.8,0,1.5,0,2.1,0
			c1.4,0,1.5,0,1.5-0.5v-3.6H444c-0.4,1.9-1.2,3.8-2.9,5.2c-0.2-0.2-0.6-0.6-0.8-0.8c2.8-2.3,3-5.6,3-8.3v-4.9H453z M444.4,323.8
			c0,0.8,0,1.8-0.2,2.9h7.7v-2.9H444.4z M451.9,319.9h-7.6v2.8h7.6V319.9z"/>
	</g>
	<g class="st4">
		<path d="M419.2,395.2v-52.8h-7.3l0.2-1.4h8.6v54.1H419.2z"/>
		<path d="M458.7,396.4c-2.4,0-4.6-0.6-6.7-1.8c-2-1.2-3.8-2.9-5.3-5.3c-1.5-2.3-2.6-5.3-3.5-8.8c-0.8-3.5-1.2-7.6-1.2-12.3
			c0-4.8,0.4-8.9,1.2-12.4s1.9-6.5,3.4-8.8c1.5-2.4,3.2-4.1,5.2-5.3c2-1.2,4.2-1.8,6.7-1.8c2.4,0,4.5,0.6,6.6,1.8
			c2,1.2,3.8,2.9,5.3,5.3c1.5,2.4,2.7,5.3,3.5,8.8s1.3,7.6,1.3,12.3c0,4.7-0.4,8.8-1.2,12.3c-0.8,3.5-2,6.5-3.4,8.8
			c-1.5,2.4-3.2,4.1-5.2,5.3S461.1,396.4,458.7,396.4z M458.7,394.9c2.2,0,4.2-0.6,6.1-1.7c1.8-1.1,3.4-2.8,4.8-5.1
			c1.3-2.3,2.3-5.1,3.1-8.4c0.7-3.3,1.1-7.2,1.1-11.6c0-4.5-0.4-8.4-1.2-11.7c-0.8-3.3-1.8-6.1-3.2-8.4c-1.3-2.2-2.9-3.9-4.8-5
			c-1.8-1.1-3.9-1.7-6-1.7c-4.6,0-8.2,2.2-10.9,6.7c-2.7,4.5-4.1,11.2-4.1,20.1c0,4.4,0.4,8.3,1.1,11.6c0.7,3.3,1.8,6.1,3.1,8.4
			c1.3,2.2,2.9,3.9,4.8,5C454.4,394.4,456.5,394.9,458.7,394.9z"/>
	</g>
	<g class="st4">
		<path d="M423.6,411.3c0.4,0.4,0.9,0.8,1.5,1c0.6,0.2,1.2,0.4,1.8,0.4c0.6,0,1-0.1,1.2-0.3c0.3-0.2,0.4-0.4,0.4-0.7
			c0-0.5-0.3-0.8-0.8-1.1c-0.4-0.2-0.8-0.4-1.2-0.5c-0.4-0.2-0.8-0.3-1.2-0.5c-0.7-0.3-1.2-0.7-1.4-1.2c-0.3-0.4-0.4-1-0.4-1.6
			c0-0.4,0.1-0.8,0.2-1.1s0.4-0.6,0.7-0.9c0.3-0.3,0.6-0.5,1-0.6c0.4-0.1,0.9-0.2,1.4-0.2c0.7,0,1.3,0.1,1.8,0.2
			c0.5,0.1,1,0.3,1.5,0.6l-0.5,2.1c-0.4-0.4-0.8-0.6-1.3-0.8c-0.5-0.2-1-0.3-1.4-0.3c-0.5,0-0.8,0.1-1,0.3c-0.2,0.2-0.3,0.4-0.3,0.7
			c0,0.3,0.1,0.5,0.2,0.6c0.1,0.2,0.3,0.3,0.6,0.4c0.3,0.1,0.7,0.3,1.1,0.5c0.4,0.2,0.8,0.3,1.2,0.5c0.7,0.3,1.2,0.8,1.5,1.2
			s0.4,1,0.4,1.6c0,0.9-0.3,1.6-1,2.1s-1.5,0.8-2.7,0.8c-0.8,0-1.4-0.1-2-0.3c-0.6-0.2-1-0.4-1.4-0.7L423.6,411.3z"/>
		<path d="M435.1,404.3v6.1c0,0.7,0.2,1.2,0.5,1.5s0.8,0.5,1.3,0.5c0.5,0,0.9-0.1,1.3-0.4c0.4-0.2,0.7-0.6,1-1
			c0.2-0.3,0.3-0.6,0.3-1v-5.6h2.2v9.6l-2.2,0.5v-1.8c-0.4,0.6-0.9,1-1.5,1.3c-0.6,0.3-1.2,0.5-1.9,0.5c-1,0-1.8-0.3-2.4-0.9
			c-0.5-0.6-0.8-1.4-0.8-2.5v-6.6H435.1z"/>
		<path d="M444.8,404.3h2.2v1.5c0.6-0.6,1.1-1.1,1.7-1.4c0.5-0.3,1.1-0.4,1.8-0.4c1,0,1.8,0.3,2.3,0.8c0.6,0.6,0.8,1.4,0.8,2.5v6.7
			h-2.2v-6c0-0.7-0.1-1.2-0.4-1.6c-0.3-0.3-0.7-0.5-1.3-0.5c-0.4,0-0.8,0.1-1.2,0.3c-0.4,0.2-0.7,0.4-0.9,0.7
			c-0.2,0.3-0.3,0.5-0.4,0.7c-0.1,0.2-0.1,0.6-0.1,1v5.3h-2.2V404.3z"/>
	</g>
	<g class="st4">
		<path class="st6" d="M423.6,411.3c0.4,0.4,0.9,0.8,1.5,1c0.6,0.2,1.2,0.4,1.8,0.4c0.6,0,1-0.1,1.2-0.3c0.3-0.2,0.4-0.4,0.4-0.7
			c0-0.5-0.3-0.8-0.8-1.1c-0.4-0.2-0.8-0.4-1.2-0.5c-0.4-0.2-0.8-0.3-1.2-0.5c-0.7-0.3-1.2-0.7-1.4-1.2c-0.3-0.4-0.4-1-0.4-1.6
			c0-0.4,0.1-0.8,0.2-1.1s0.4-0.6,0.7-0.9c0.3-0.3,0.6-0.5,1-0.6c0.4-0.1,0.9-0.2,1.4-0.2c0.7,0,1.3,0.1,1.8,0.2
			c0.5,0.1,1,0.3,1.5,0.6l-0.5,2.1c-0.4-0.4-0.8-0.6-1.3-0.8c-0.5-0.2-1-0.3-1.4-0.3c-0.5,0-0.8,0.1-1,0.3c-0.2,0.2-0.3,0.4-0.3,0.7
			c0,0.3,0.1,0.5,0.2,0.6c0.1,0.2,0.3,0.3,0.6,0.4c0.3,0.1,0.7,0.3,1.1,0.5c0.4,0.2,0.8,0.3,1.2,0.5c0.7,0.3,1.2,0.8,1.5,1.2
			s0.4,1,0.4,1.6c0,0.9-0.3,1.6-1,2.1s-1.5,0.8-2.7,0.8c-0.8,0-1.4-0.1-2-0.3c-0.6-0.2-1-0.4-1.4-0.7L423.6,411.3z"/>
		<path class="st6" d="M435.1,404.3v6.1c0,0.7,0.2,1.2,0.5,1.5s0.8,0.5,1.3,0.5c0.5,0,0.9-0.1,1.3-0.4c0.4-0.2,0.7-0.6,1-1
			c0.2-0.3,0.3-0.6,0.3-1v-5.6h2.2v9.6l-2.2,0.5v-1.8c-0.4,0.6-0.9,1-1.5,1.3c-0.6,0.3-1.2,0.5-1.9,0.5c-1,0-1.8-0.3-2.4-0.9
			c-0.5-0.6-0.8-1.4-0.8-2.5v-6.6H435.1z"/>
		<path class="st6" d="M444.8,404.3h2.2v1.5c0.6-0.6,1.1-1.1,1.7-1.4c0.5-0.3,1.1-0.4,1.8-0.4c1,0,1.8,0.3,2.3,0.8
			c0.6,0.6,0.8,1.4,0.8,2.5v6.7h-2.2v-6c0-0.7-0.1-1.2-0.4-1.6c-0.3-0.3-0.7-0.5-1.3-0.5c-0.4,0-0.8,0.1-1.2,0.3
			c-0.4,0.2-0.7,0.4-0.9,0.7c-0.2,0.3-0.3,0.5-0.4,0.7c-0.1,0.2-0.1,0.6-0.1,1v5.3h-2.2V404.3z"/>
	</g>
</g>
<g>
	<rect x="513.8" y="314.3" class="st0" width="104.9" height="104.9"/>
	<rect x="513.8" y="312.9" class="st1" width="104.9" height="104.9"/>
	<rect x="513.8" y="311.5" class="st2" width="104.9" height="104.9"/>
	<rect x="513.8" y="300.1" class="st3" width="104.9" height="14.2"/>
	<g class="st4">
		<path d="M557.4,323.4l-3.2-0.6c0.3-1,0.8-1.8,1.5-2.4s1.8-0.8,3.2-0.8c1.6,0,2.8,0.3,3.5,0.9c0.7,0.6,1.1,1.3,1.1,2.2
			c0,0.5-0.1,1-0.4,1.4c-0.3,0.4-0.7,0.8-1.3,1.1c0.5,0.1,0.8,0.3,1.1,0.4c0.4,0.3,0.7,0.6,0.9,1c0.2,0.4,0.3,0.9,0.3,1.5
			c0,0.7-0.2,1.4-0.6,2.1c-0.4,0.7-0.9,1.2-1.6,1.5c-0.7,0.4-1.6,0.5-2.8,0.5c-1.1,0-2-0.1-2.6-0.4s-1.2-0.6-1.6-1.1
			c-0.4-0.5-0.7-1.1-1-1.9l3.4-0.5c0.1,0.7,0.3,1.2,0.6,1.4s0.6,0.4,1.1,0.4c0.5,0,0.8-0.2,1.1-0.5c0.3-0.3,0.5-0.8,0.5-1.3
			c0-0.6-0.1-1-0.4-1.3c-0.3-0.3-0.7-0.5-1.2-0.5c-0.3,0-0.6,0.1-1.1,0.2l0.2-2.4c0.2,0,0.3,0,0.4,0c0.4,0,0.8-0.1,1.1-0.4
			s0.4-0.6,0.4-1c0-0.4-0.1-0.7-0.3-0.9c-0.2-0.2-0.5-0.3-0.9-0.3c-0.4,0-0.7,0.1-1,0.4C557.7,322.4,557.5,322.8,557.4,323.4z"/>
	</g>
	<g class="st4">
		<path d="M575.7,318.9v12.4c0,0.8-0.2,1.2-0.8,1.4c-0.6,0.2-1.7,0.2-3.4,0.2c-0.1-0.3-0.3-0.8-0.5-1.1c0.8,0,1.5,0,2.1,0
			c1.4,0,1.5,0,1.5-0.5v-3.6h-7.9c-0.4,1.9-1.2,3.8-2.9,5.2c-0.2-0.2-0.6-0.6-0.8-0.8c2.8-2.3,3-5.6,3-8.3v-4.9H575.7z M567,323.8
			c0,0.8,0,1.8-0.2,2.9h7.7v-2.9H567z M574.6,319.9H567v2.8h7.6V319.9z"/>
	</g>
	<g class="st4">
		<path d="M576.1,376.1H547v-0.2l30.4-36.9h0.2v35.7h5.7v1.4h-5.7v19.1h-1.4V376.1z M576.1,374.8v-32l-26.4,32H576.1z"/>
	</g>
	<g class="st4">
		<path d="M554,411.3c0.4,0.4,0.9,0.8,1.5,1c0.6,0.2,1.2,0.4,1.8,0.4c0.6,0,1-0.1,1.2-0.3s0.4-0.4,0.4-0.7c0-0.5-0.3-0.8-0.8-1.1
			c-0.4-0.2-0.8-0.4-1.2-0.5c-0.4-0.2-0.8-0.3-1.2-0.5c-0.7-0.3-1.2-0.7-1.4-1.2c-0.3-0.4-0.4-1-0.4-1.6c0-0.4,0.1-0.8,0.2-1.1
			s0.4-0.6,0.7-0.9c0.3-0.3,0.6-0.5,1-0.6c0.4-0.1,0.9-0.2,1.4-0.2c0.7,0,1.3,0.1,1.8,0.2c0.5,0.1,1,0.3,1.5,0.6l-0.5,2.1
			c-0.4-0.4-0.8-0.6-1.3-0.8c-0.5-0.2-1-0.3-1.4-0.3c-0.5,0-0.8,0.1-1,0.3c-0.2,0.2-0.3,0.4-0.3,0.7c0,0.3,0.1,0.5,0.2,0.6
			c0.1,0.2,0.3,0.3,0.6,0.4c0.3,0.1,0.7,0.3,1.1,0.5c0.4,0.2,0.8,0.3,1.2,0.5c0.7,0.3,1.2,0.8,1.5,1.2s0.4,1,0.4,1.6
			c0,0.9-0.3,1.6-1,2.1c-0.6,0.5-1.5,0.8-2.7,0.8c-0.8,0-1.4-0.1-2-0.3c-0.6-0.2-1-0.4-1.4-0.7L554,411.3z"/>
		<path d="M563.7,405c0.5-0.3,1-0.6,1.6-0.7s1.2-0.2,1.7-0.2c1.3,0,2.2,0.3,2.8,0.9c0.6,0.6,0.9,1.5,0.9,2.6v6.3l-2.1,0.5V413
			c-0.5,0.4-1,0.7-1.5,1c-0.5,0.3-1.2,0.4-1.8,0.4c-0.8,0-1.4-0.2-1.9-0.6c-0.5-0.4-0.7-1-0.7-1.7c0-0.7,0.2-1.3,0.6-1.7
			c0.4-0.5,0.9-0.9,1.7-1.2c0.5-0.2,1.1-0.4,1.6-0.6s1.3-0.3,2-0.4v-0.6c0-0.5-0.2-1-0.5-1.3c-0.3-0.3-0.8-0.5-1.4-0.5
			c-0.5,0-1,0.1-1.5,0.3c-0.5,0.2-1,0.5-1.3,0.8h-0.1V405z M568.5,409.3c-0.5,0.1-0.9,0.2-1.4,0.3s-0.9,0.3-1.2,0.4
			c-0.7,0.4-1.1,0.9-1.1,1.5c0,0.4,0.1,0.6,0.3,0.9c0.2,0.2,0.5,0.3,1,0.3c0.4,0,0.8-0.1,1.2-0.3c0.4-0.2,0.8-0.5,1.1-1V409.3z"/>
		<path d="M574.2,404.3v-2.9l2.2-0.4v3.3h2.8v1.8h-2.8v4.7c0,0.5,0,0.9,0.1,1.2c0,0.3,0.1,0.6,0.2,0.8c0.1,0.2,0.3,0.4,0.5,0.6
			c0.2,0.2,0.5,0.3,0.8,0.5v0.2l-2.4,0.3c-0.2-0.1-0.4-0.2-0.6-0.4c-0.2-0.2-0.3-0.4-0.4-0.6c-0.1-0.2-0.2-0.6-0.3-0.9
			c-0.1-0.4-0.1-0.8-0.1-1.3v-4.9h-1.8v-1.8H574.2z"/>
	</g>
	<g class="st4">
		<path class="st5" d="M554,411.3c0.4,0.4,0.9,0.8,1.5,1c0.6,0.2,1.2,0.4,1.8,0.4c0.6,0,1-0.1,1.2-0.3s0.4-0.4,0.4-0.7
			c0-0.5-0.3-0.8-0.8-1.1c-0.4-0.2-0.8-0.4-1.2-0.5c-0.4-0.2-0.8-0.3-1.2-0.5c-0.7-0.3-1.2-0.7-1.4-1.2c-0.3-0.4-0.4-1-0.4-1.6
			c0-0.4,0.1-0.8,0.2-1.1s0.4-0.6,0.7-0.9c0.3-0.3,0.6-0.5,1-0.6c0.4-0.1,0.9-0.2,1.4-0.2c0.7,0,1.3,0.1,1.8,0.2
			c0.5,0.1,1,0.3,1.5,0.6l-0.5,2.1c-0.4-0.4-0.8-0.6-1.3-0.8c-0.5-0.2-1-0.3-1.4-0.3c-0.5,0-0.8,0.1-1,0.3c-0.2,0.2-0.3,0.4-0.3,0.7
			c0,0.3,0.1,0.5,0.2,0.6c0.1,0.2,0.3,0.3,0.6,0.4c0.3,0.1,0.7,0.3,1.1,0.5c0.4,0.2,0.8,0.3,1.2,0.5c0.7,0.3,1.2,0.8,1.5,1.2
			s0.4,1,0.4,1.6c0,0.9-0.3,1.6-1,2.1c-0.6,0.5-1.5,0.8-2.7,0.8c-0.8,0-1.4-0.1-2-0.3c-0.6-0.2-1-0.4-1.4-0.7L554,411.3z"/>
		<path class="st5" d="M563.7,405c0.5-0.3,1-0.6,1.6-0.7s1.2-0.2,1.7-0.2c1.3,0,2.2,0.3,2.8,0.9c0.6,0.6,0.9,1.5,0.9,2.6v6.3
			l-2.1,0.5V413c-0.5,0.4-1,0.7-1.5,1c-0.5,0.3-1.2,0.4-1.8,0.4c-0.8,0-1.4-0.2-1.9-0.6c-0.5-0.4-0.7-1-0.7-1.7
			c0-0.7,0.2-1.3,0.6-1.7c0.4-0.5,0.9-0.9,1.7-1.2c0.5-0.2,1.1-0.4,1.6-0.6s1.3-0.3,2-0.4v-0.6c0-0.5-0.2-1-0.5-1.3
			c-0.3-0.3-0.8-0.5-1.4-0.5c-0.5,0-1,0.1-1.5,0.3c-0.5,0.2-1,0.5-1.3,0.8h-0.1V405z M568.5,409.3c-0.5,0.1-0.9,0.2-1.4,0.3
			s-0.9,0.3-1.2,0.4c-0.7,0.4-1.1,0.9-1.1,1.5c0,0.4,0.1,0.6,0.3,0.9c0.2,0.2,0.5,0.3,1,0.3c0.4,0,0.8-0.1,1.2-0.3
			c0.4-0.2,0.8-0.5,1.1-1V409.3z"/>
		<path class="st5" d="M574.2,404.3v-2.9l2.2-0.4v3.3h2.8v1.8h-2.8v4.7c0,0.5,0,0.9,0.1,1.2c0,0.3,0.1,0.6,0.2,0.8
			c0.1,0.2,0.3,0.4,0.5,0.6c0.2,0.2,0.5,0.3,0.8,0.5v0.2l-2.4,0.3c-0.2-0.1-0.4-0.2-0.6-0.4c-0.2-0.2-0.3-0.4-0.4-0.6
			c-0.1-0.2-0.2-0.6-0.3-0.9c-0.1-0.4-0.1-0.8-0.1-1.3v-4.9h-1.8v-1.8H574.2z"/>
	</g>
</g>
<g>
	<rect x="621.5" y="314.3" class="st0" width="104.9" height="104.9"/>
	<rect x="621.5" y="312.9" class="st1" width="104.9" height="104.9"/>
	<rect x="621.5" y="311.5" class="st2" width="104.9" height="104.9"/>
	<rect x="621.5" y="300.1" class="st3" width="104.9" height="14.2"/>
	<g class="st4">
		<path d="M665.2,323.4l-3.2-0.6c0.3-1,0.8-1.8,1.5-2.4s1.8-0.8,3.2-0.8c1.6,0,2.8,0.3,3.5,0.9c0.7,0.6,1.1,1.3,1.1,2.2
			c0,0.5-0.1,1-0.4,1.4c-0.3,0.4-0.7,0.8-1.3,1.1c0.5,0.1,0.8,0.3,1.1,0.4c0.4,0.3,0.7,0.6,0.9,1c0.2,0.4,0.3,0.9,0.3,1.5
			c0,0.7-0.2,1.4-0.6,2.1c-0.4,0.7-0.9,1.2-1.6,1.5c-0.7,0.4-1.6,0.5-2.8,0.5c-1.1,0-2-0.1-2.6-0.4s-1.2-0.6-1.6-1.1
			c-0.4-0.5-0.7-1.1-1-1.9l3.4-0.5c0.1,0.7,0.3,1.2,0.6,1.4s0.6,0.4,1.1,0.4c0.5,0,0.8-0.2,1.1-0.5c0.3-0.3,0.5-0.8,0.5-1.3
			c0-0.6-0.1-1-0.4-1.3c-0.3-0.3-0.7-0.5-1.2-0.5c-0.3,0-0.6,0.1-1.1,0.2l0.2-2.4c0.2,0,0.3,0,0.4,0c0.4,0,0.8-0.1,1.1-0.4
			s0.4-0.6,0.4-1c0-0.4-0.1-0.7-0.3-0.9c-0.2-0.2-0.5-0.3-0.9-0.3c-0.4,0-0.7,0.1-1,0.4C665.4,322.4,665.2,322.8,665.2,323.4z"/>
	</g>
	<g class="st4">
		<path d="M683.4,318.9v12.4c0,0.8-0.2,1.2-0.8,1.4c-0.6,0.2-1.7,0.2-3.4,0.2c-0.1-0.3-0.3-0.8-0.5-1.1c0.8,0,1.5,0,2.1,0
			c1.4,0,1.5,0,1.5-0.5v-3.6h-7.9c-0.4,1.9-1.2,3.8-2.9,5.2c-0.2-0.2-0.6-0.6-0.8-0.8c2.8-2.3,3-5.6,3-8.3v-4.9H683.4z M674.7,323.8
			c0,0.8,0,1.8-0.2,2.9h7.7v-2.9H674.7z M682.3,319.9h-7.6v2.8h7.6V319.9z"/>
	</g>
	<g class="st4">
		<path d="M687.8,342.4h-25.5l-2.4,19.2c0.7-0.1,1.6-0.2,2.8-0.2c1.2,0,2.3-0.1,3.4-0.1c3.6,0,6.9,0.4,9.6,1.3
			c2.8,0.8,5.1,2,6.9,3.5c1.8,1.5,3.2,3.3,4.1,5.3c0.9,2.1,1.4,4.3,1.4,6.7c0,6.2-2.4,11-7.1,14.5c-4.8,3.5-11.6,5.3-20.4,5.3
			c-0.5,0-0.9,0-1.3,0c-0.4,0-0.7,0-1-0.1l0.1-1.4c0.3,0,0.6,0.1,1,0.1c0.4,0,0.8,0,1.2,0c8.5,0,15-1.6,19.4-4.9
			c4.4-3.3,6.7-7.8,6.7-13.5c0-2.3-0.4-4.3-1.3-6.2c-0.9-1.9-2.2-3.5-3.9-4.9c-1.7-1.3-3.9-2.4-6.5-3.1c-2.6-0.7-5.6-1.1-9-1.1
			c-1.4,0-2.7,0-4,0.1s-2.5,0.2-3.8,0.4l2.8-22.2h27L687.8,342.4z"/>
	</g>
	<g class="st4">
		<path d="M658.8,411.3c0.4,0.4,0.9,0.8,1.5,1c0.6,0.2,1.2,0.4,1.8,0.4c0.6,0,1-0.1,1.2-0.3c0.3-0.2,0.4-0.4,0.4-0.7
			c0-0.5-0.3-0.8-0.8-1.1c-0.4-0.2-0.8-0.4-1.2-0.5c-0.4-0.2-0.8-0.3-1.2-0.5c-0.7-0.3-1.2-0.7-1.4-1.2c-0.3-0.4-0.4-1-0.4-1.6
			c0-0.4,0.1-0.8,0.2-1.1s0.4-0.6,0.7-0.9c0.3-0.3,0.6-0.5,1-0.6c0.4-0.1,0.9-0.2,1.4-0.2c0.7,0,1.3,0.1,1.8,0.2
			c0.5,0.1,1,0.3,1.5,0.6l-0.5,2.1c-0.4-0.4-0.8-0.6-1.3-0.8c-0.5-0.2-1-0.3-1.4-0.3c-0.5,0-0.8,0.1-1,0.3c-0.2,0.2-0.3,0.4-0.3,0.7
			c0,0.3,0.1,0.5,0.2,0.6c0.1,0.2,0.3,0.3,0.6,0.4c0.3,0.1,0.7,0.3,1.1,0.5c0.4,0.2,0.8,0.3,1.2,0.5c0.7,0.3,1.2,0.8,1.5,1.2
			s0.4,1,0.4,1.6c0,0.9-0.3,1.6-1,2.1c-0.6,0.5-1.5,0.8-2.7,0.8c-0.8,0-1.4-0.1-2-0.3c-0.6-0.2-1-0.4-1.4-0.7L658.8,411.3z"/>
		<path d="M670.2,404.3v6.1c0,0.7,0.2,1.2,0.5,1.5c0.3,0.3,0.8,0.5,1.3,0.5c0.5,0,0.9-0.1,1.3-0.4c0.4-0.2,0.7-0.6,1-1
			c0.2-0.3,0.3-0.6,0.3-1v-5.6h2.2v9.6l-2.2,0.5v-1.8c-0.4,0.6-0.9,1-1.5,1.3c-0.6,0.3-1.2,0.5-1.9,0.5c-1,0-1.8-0.3-2.4-0.9
			c-0.5-0.6-0.8-1.4-0.8-2.5v-6.6H670.2z"/>
		<path d="M680,404.3h2.2v1.5c0.6-0.6,1.1-1.1,1.7-1.4c0.5-0.3,1.1-0.4,1.8-0.4c1,0,1.8,0.3,2.3,0.8c0.6,0.6,0.8,1.4,0.8,2.5v6.7
			h-2.2v-6c0-0.7-0.1-1.2-0.4-1.6s-0.7-0.5-1.3-0.5c-0.4,0-0.8,0.1-1.2,0.3c-0.4,0.2-0.7,0.4-0.9,0.7c-0.2,0.3-0.3,0.5-0.4,0.7
			c-0.1,0.2-0.1,0.6-0.1,1v5.3H680V404.3z"/>
	</g>
	<g class="st4">
		<path class="st6" d="M658.8,411.3c0.4,0.4,0.9,0.8,1.5,1c0.6,0.2,1.2,0.4,1.8,0.4c0.6,0,1-0.1,1.2-0.3c0.3-0.2,0.4-0.4,0.4-0.7
			c0-0.5-0.3-0.8-0.8-1.1c-0.4-0.2-0.8-0.4-1.2-0.5c-0.4-0.2-0.8-0.3-1.2-0.5c-0.7-0.3-1.2-0.7-1.4-1.2c-0.3-0.4-0.4-1-0.4-1.6
			c0-0.4,0.1-0.8,0.2-1.1s0.4-0.6,0.7-0.9c0.3-0.3,0.6-0.5,1-0.6c0.4-0.1,0.9-0.2,1.4-0.2c0.7,0,1.3,0.1,1.8,0.2
			c0.5,0.1,1,0.3,1.5,0.6l-0.5,2.1c-0.4-0.4-0.8-0.6-1.3-0.8c-0.5-0.2-1-0.3-1.4-0.3c-0.5,0-0.8,0.1-1,0.3c-0.2,0.2-0.3,0.4-0.3,0.7
			c0,0.3,0.1,0.5,0.2,0.6c0.1,0.2,0.3,0.3,0.6,0.4c0.3,0.1,0.7,0.3,1.1,0.5c0.4,0.2,0.8,0.3,1.2,0.5c0.7,0.3,1.2,0.8,1.5,1.2
			s0.4,1,0.4,1.6c0,0.9-0.3,1.6-1,2.1c-0.6,0.5-1.5,0.8-2.7,0.8c-0.8,0-1.4-0.1-2-0.3c-0.6-0.2-1-0.4-1.4-0.7L658.8,411.3z"/>
		<path class="st6" d="M670.2,404.3v6.1c0,0.7,0.2,1.2,0.5,1.5c0.3,0.3,0.8,0.5,1.3,0.5c0.5,0,0.9-0.1,1.3-0.4c0.4-0.2,0.7-0.6,1-1
			c0.2-0.3,0.3-0.6,0.3-1v-5.6h2.2v9.6l-2.2,0.5v-1.8c-0.4,0.6-0.9,1-1.5,1.3c-0.6,0.3-1.2,0.5-1.9,0.5c-1,0-1.8-0.3-2.4-0.9
			c-0.5-0.6-0.8-1.4-0.8-2.5v-6.6H670.2z"/>
		<path class="st6" d="M680,404.3h2.2v1.5c0.6-0.6,1.1-1.1,1.7-1.4c0.5-0.3,1.1-0.4,1.8-0.4c1,0,1.8,0.3,2.3,0.8
			c0.6,0.6,0.8,1.4,0.8,2.5v6.7h-2.2v-6c0-0.7-0.1-1.2-0.4-1.6s-0.7-0.5-1.3-0.5c-0.4,0-0.8,0.1-1.2,0.3c-0.4,0.2-0.7,0.4-0.9,0.7
			c-0.2,0.3-0.3,0.5-0.4,0.7c-0.1,0.2-0.1,0.6-0.1,1v5.3H680V404.3z"/>
	</g>
</g>
<g>
	<rect x="81.3" y="435.3" class="st7" width="137.3" height="12.1"/>
	<g class="st4">
		<path d="M98.5,435.6c-0.4-0.4-0.4-0.4-0.9-0.8c-0.6,0.1-6,0.4-9.8,0.5l-0.1-1.8c0.3,0,2,0,2.4,0c0.2-0.4,0.3-0.5,0.6-0.9h-3.3
			v-1.8h5.5v-0.7H95v0.7h5.6v1.8H98c0.6,0.4,1.6,1,2.5,1.8l-1.8,1.2h0.5v6.5c0,1.1-0.8,1.3-1.3,1.3H95l-0.4-1.8h2
			c0.2,0,0.4,0,0.4-0.3v-0.4h-6.2v2.5h-2.1v-7.8H98.5z M97.1,437h-6.2v0.6h6.2V437z M97.1,438.9h-6.2v0.6h6.2V438.9z M95.8,432.5H93
			c-0.1,0.1-0.5,0.7-0.6,0.9c1,0,2.2-0.1,3.2-0.1c-0.3-0.1-0.3-0.2-0.6-0.3L95.8,432.5z"/>
		<path d="M101.2,441.3c2.6-0.3,4-1.2,4.6-1.7h-4.4v-2h1.4v-3.5h4.1v-0.8h2.1v0.8h4.1v3.5h1.4v2h-4.5c0.5,0.5,1.5,1.4,4.7,1.7
			l-1.1,2.2c-0.8-0.1-1.9-0.3-3.4-1.2c-1.1-0.7-1.8-1.5-2.2-2.1c-0.8,1.1-2.4,2.6-5.6,3.5L101.2,441.3z M104,430.1h2v0.9h3.8v-0.9
			h2.1v0.9h2.6v2H112v0.8h-2.1V433h-3.8v0.8h-2V433h-2.6v-2h2.6V430.1z M107,435.9h-2.1v1.7h2c0.1-0.3,0.1-0.6,0.1-0.8V435.9z
			 M109,436.4c0,0.6-0.1,1-0.1,1.1h2.2v-1.7H109V436.4z"/>
		<path d="M115.2,435.7c0.5-0.1,1.1-0.3,2-0.7c-0.3-0.4-0.8-0.9-1-1.2c-0.1,0-0.1,0.1-0.2,0.1l-0.8-1.8c1.5-0.8,2.1-1.6,2.5-2.2
			l2.2,0.1c-0.1,0.3-0.1,0.3-0.3,0.6h2.1l1.2-0.3c0.2,0.3,0.4,0.7,0.7,1.3v-1h4.8v1.6c-0.6,1.1-1.3,1.9-1.6,2.3
			c0.8,0.4,1.4,0.7,2.1,0.9l-1.1,1.9c-0.5-0.2-1.2-0.5-2.1-1v0.5h-7.1v-0.5c-1,0.6-1.6,0.8-2.2,1L115.2,435.7z M115.2,441.6
			c0.4-0.2,1.6-0.8,2.7-2.1h-2.1v-1.8h12.4v1.8h-2.3c0.4,0.4,1.6,1.5,2.9,2.1l-1.4,1.7c-0.6-0.3-2.2-1.3-3.4-3l1.6-0.8H123v2.4
			c0,1-0.6,1.3-1.4,1.3h-2.4l-0.5-1.8c-0.9,1-1.6,1.4-2.2,1.7L115.2,441.6z M118.2,434.4c0.2-0.1,0.3-0.2,0.4-0.3
			c-0.2-0.3-0.6-0.7-1.1-1.1c-0.2,0.1-0.3,0.2-0.4,0.3C117.3,433.5,118,434.1,118.2,434.4z M119.8,440.4c-0.2,0.3-0.4,0.6-0.8,1.1
			h1.6c0.1,0,0.3,0,0.3-0.3v-1.6h-2.6L119.8,440.4z M118.3,432.3c0.3,0.3,0.8,0.7,1.1,1.1c0.4-0.4,0.6-0.7,0.8-1.1H118.3z
			 M123.8,435.2c-0.4-0.4-1.1-1-1.8-2.2c-0.3,0.5-0.8,1.3-1.8,2.2H123.8z M124,432.3c0.5,0.6,0.9,1,1.2,1.2c0.3-0.4,0.5-0.6,0.8-1.2
			H124z"/>
		<path d="M134.9,432.2v-2.2h2.2v2.2h5.1v7.4H137v3.7h-2.2v-3.7h-5v-7.4H134.9z M134.9,434.3H132v3.3h2.9V434.3z M140,434.3H137v3.3
			h2.9V434.3z"/>
		<path d="M143.8,430.5h5.7v5.4h-3.8v7.4h-2V430.5z M145.7,432v0.6h1.8V432H145.7z M145.7,433.8v0.7h1.8v-0.7H145.7z M153.1,441.3
			h0.7c0.4,0,0.4-0.2,0.4-0.5v-4.9h-3.9v-5.4h5.9v11.3c0,1.5-1.2,1.5-1.2,1.5h-2.7l-0.2-1.3h-5.2v-5.5h6.3V441.3z M148.7,438v0.7
			h2.5V438H148.7z M148.7,439.8v0.7h2.5v-0.7H148.7z M152.3,432v0.6h1.9V432H152.3z M152.3,433.8v0.7h1.9v-0.7H152.3z"/>
		<path d="M166.1,431.8l2,2.3c-0.5,2.7-1.8,6.5-6.7,8.8l-1.5-1.9c4.9-2,5.6-5.8,5.9-7h-7.8v-2.2H166.1z M170.7,431.6
			c0,1-0.9,1.9-1.9,1.9c-1.1,0-1.9-0.9-1.9-1.9c0-1.1,0.9-1.9,1.9-1.9C169.9,429.6,170.7,430.5,170.7,431.6z M167.9,431.6
			c0,0.5,0.4,1,1,1c0.5,0,1-0.4,1-1c0-0.5-0.4-1-1-1C168.3,430.6,167.9,431,167.9,431.6z"/>
		<path d="M174.6,430.7v9.2c1.7-0.5,4.3-1.6,6.7-4.7l1.6,1.6c-3.4,4.5-7.9,5.5-10.6,5.9v-11.9H174.6z"/>
		<path d="M186.9,430.5h2.3v3.1l5.7-0.3l0.9,1.2c-1,1.8-2,3-3.3,4.4l-1.8-1.3c0.7-0.7,1.1-1.2,1.8-2.1l-3.4,0.2v3.6c0,1,0.3,1,2.3,1
			c1.3,0,2.6-0.1,3.9-0.2l-0.1,2.3c-0.7,0-2.1,0.1-4.1,0.1c-2.4,0-4.2-0.2-4.2-2.8v-3.9l-3,0.2l-0.1-2.2l3.2-0.2V430.5z
			 M193.1,429.7c0.6,0.8,1,1.5,1.5,2.6l-1.1,0.6c-0.5-1.1-0.8-1.7-1.5-2.6L193.1,429.7z M195.4,429.6c0.6,0.9,0.9,1.5,1.4,2.6
			l-1.1,0.6c-0.4-1.1-0.7-1.7-1.3-2.7L195.4,429.6z"/>
		<path d="M202,435.4c-1.4-0.9-2.6-1.5-4.2-2.1l1.1-2c1.6,0.5,2.9,1.1,4.4,2.1L202,435.4z M209.3,435.3c-0.5,0.9-1.9,3.1-4.6,4.9
			c-1.9,1.3-3.8,2.1-6,2.5l-0.8-2.3c3.5-0.7,7.1-2.2,9.9-7.1L209.3,435.3z"/>
	</g>
</g>
<g>
	<rect x="293.8" y="435.4" class="st7" width="179.3" height="12"/>
	<g class="st4">
		<path d="M299.7,441.1c2.3-0.8,4.7-2.2,5.4-5.8h-5.2v-2.2h5.4v-3.1h2.2v3.1h5.6v2.2h-5.3c0.9,3.4,2.8,4.8,5.6,5.9l-1.2,2.1
			c-1.7-0.7-4.4-2.1-5.6-5.7c-1.4,3.7-4.4,5.1-5.7,5.7L299.7,441.1z"/>
		<path d="M315.6,432.1c-0.3-0.6-0.5-1-0.9-1.5l2.1-0.5c0.5,0.7,0.8,1.4,1.1,2h1.7c-0.2-0.6-0.4-0.9-0.8-1.7l2.1-0.5
			c0.3,0.6,0.8,1.6,0.9,2.1h1.3c0.4-0.8,0.8-1.8,0.8-2.1l2.3,0.5c-0.3,0.7-0.4,1-0.8,1.6h1.3v3.5h-1.8v0.8c-0.8,0.6-1.4,0.9-2.9,1.7
			h5v1.9h-5.5v2c0,0.9-0.5,1.4-1.4,1.4h-3l-0.4-2h2c0.4,0,0.5,0,0.5-0.5v-0.9h-5.6V438h5.6v-0.7h0.5c0.5-0.2,0.9-0.4,1.3-0.7H316v-1
			h-1.8v-3.5H315.6z M324.7,434h-8.5v0.8h8.5V434z"/>
		<path d="M328.5,439.5h8.3v-5.4h-8.2v-2.2h10.5v9.8h-10.7V439.5z"/>
		<path d="M345.7,435.4c-1.4-0.9-2.6-1.5-4.2-2.1l1.1-2c1.6,0.5,2.9,1.1,4.4,2.1L345.7,435.4z M353,435.3c-0.5,0.9-1.9,3.1-4.6,4.9
			c-1.9,1.3-3.8,2.1-6,2.5l-0.8-2.3c3.5-0.7,7.1-2.2,9.9-7.1L353,435.3z"/>
		<path d="M356.7,436.4c-1.1-1.7-1.9-2.7-2.8-3.7l1.7-1.4c1.3,1.4,2,2.3,3,3.7L356.7,436.4z M365.3,431.6c-0.4,4-1.5,9.2-8,11.3
			l-1.8-1.8c6.3-1.7,7.2-6.4,7.4-9.8L365.3,431.6z"/>
		<path d="M378.9,435.7v2.2h-12v-2.2H378.9z"/>
		<path d="M384.3,437.4c-1.8-0.9-3.4-1.4-4.2-1.7l0.9-2c0.8,0.3,2.2,0.7,4.2,1.7L384.3,437.4z M392.4,435c-4.1,6.3-8.9,7.5-10.5,7.9
			l-0.9-2.3c5.9-1,9.1-6.2,9.9-7.6L392.4,435z M385.4,434.1c-1.5-0.7-2.5-1.1-4.1-1.7l0.9-2c1.5,0.5,2.4,0.9,4.1,1.6L385.4,434.1z"
			/>
		<path d="M394.4,441.3c2.8-1.4,3.5-3.4,3.5-6.3h2.3c0,0.5,0,0.8,0,1.2c0.7-0.7,1.3-1.2,2.1-2.5h-8.8v-2.2h11.2l0.9,1.1
			c-0.5,0.9-1.5,2.8-3.6,4.9l-1.8-1.4c-0.2,2.2-0.9,4.9-4,6.7L394.4,441.3z"/>
		<path d="M415.3,435.3c0.7,1,2.3,3.2,3.6,6.4l-2,1.1c-0.4-0.8-0.5-1.2-0.9-1.9l-9,1.3l-0.5-2.2l1.9-0.2c0.4-1,1.7-4.1,3.3-9.1
			l2.3,0.7c-1.4,4.2-2.7,7.3-3.1,8l4-0.5c-0.6-1.1-1.1-1.8-1.6-2.5L415.3,435.3z"/>
		<path d="M425.3,430.5c-0.2,5-1,9.7-4.1,12.7l-1.6-1.8c2-1.9,3.4-5.2,3.5-11L425.3,430.5z M431.6,443.3c-2.5-2.6-3.8-5.7-4-12.8
			l2.2-0.1c0.1,6.2,1.2,8.7,3.4,11.1L431.6,443.3z"/>
		<path d="M434.3,430.5h12.5v2h-5.2v3h4.4v2h-4.4v3.4h5.5v2h-13.2v-2h5.4v-3.4h-4.4v-2h4.4v-3h-5.1V430.5z"/>
		<path d="M448.8,430.5H460v2c-1.5,1.2-2.4,1.6-4.5,2.6v0.5h5.5v2.1h-5.5v4.2c0,0.8-0.4,1.5-1.4,1.5h-3.4l-0.3-2.1h2.4
			c0.3,0,0.5,0,0.5-0.5v-3h-5.5v-2.1h5.5v-2h1c0.8-0.3,1.7-0.9,2-1.1h-7.6V430.5z"/>
	</g>
</g>
<g>
	<rect x="565.1" y="435.4" class="st7" width="109.3" height="12"/>
	<g class="st4">
		<path d="M578.1,437.7l-0.9-1l-1,1.1c-0.6-0.4-1.1-0.9-1.6-1.5c-0.8,1.2-1.6,1.8-2.1,2.2l-1.5-1.7c0.7-0.5,2.1-1.5,2.8-3.7h-2.4
			v-1.9h5.2v-1h2.2v1h5.2v1.9h-4.2l1.8,0.4c-0.1,0.3-0.2,0.7-0.5,1.1c1,1,1.9,1.5,3.2,2l-1.4,1.9h1.4v2h-5.6v2.8h-2.2v-2.8h-5.5v-2
			h5.5v-0.9H578.1z M575.9,433.4c-0.2,0.5-0.3,0.8-0.4,1.2c0.4,0.4,1.1,1,1.9,1.4c1.5-1.1,2-2.3,2.3-2.9h-5.5L575.9,433.4z
			 M578.8,437.7v0.9h4.1c-1.3-0.7-2.4-1.9-2.8-2.3c-0.6,0.8-1.1,1.2-1.5,1.5H578.8z"/>
		<path d="M597.5,443.2c-1.2-0.4-2.7-0.9-4.7-2.5v2.6h-2.1v-2.5c-1.3,1.1-2.6,1.8-4.7,2.4l-1-1.9c2-0.4,3.1-0.9,4.2-1.5h-4.1v-1.6
			h5.6v-0.6h-4.6v-1.3h4.6v-0.6h-5v-1.6h2.8c0-0.1-0.2-0.6-0.3-0.7h-3v-1.7h1.8c-0.2-0.4-0.4-0.9-0.6-1.3l2-0.4
			c0.3,0.6,0.4,1,0.6,1.7h0.6v-1.6h1.9v1.6h0.8v-1.6h1.8v1.6h0.6c0.2-0.5,0.5-1.2,0.6-1.7l2,0.4c-0.2,0.4-0.4,0.8-0.6,1.3h1.7v1.7
			h-3c-0.1,0.2-0.2,0.5-0.3,0.7h2.8v1.6h-5v0.6h4.7v1.3h-4.7v0.6h5.5v1.6h-4c0.7,0.4,1.7,0.9,4.2,1.4L597.5,443.2z M593,434.2
			c0.1-0.3,0.2-0.4,0.2-0.7h-2.9c0,0.1,0.3,0.7,0.3,0.7H593z"/>
		<path d="M604.4,437.1v-2h1.2v-2.6h-1v-2h7.5v2h-1.1v2.6h1.3v2h-1.3v6.3h-2v-6.3h-1.4c0,1.3,0,4.5-2.2,6.3l-1.4-1.5v1.1H600v-4.6
			c-0.1,0.1-0.2,0.2-0.5,0.5l-0.6-2.6c0.5-0.5,1.3-1.4,1.5-3.8h-1.2v-2h5v2h-1.9c-0.1,1-0.2,1.6-0.4,2.4h2.2v6.7
			c0.8-0.7,1.6-1.7,1.6-4.4H604.4z M602.5,436.7h-0.9v4.4h0.9V436.7z M607.6,435.1h1.4v-2.6h-1.4V435.1z"/>
		<path d="M617.8,436.8c0-0.4,0.1-0.7,0.1-1.2h2.1c0,0.3,0,0.5-0.1,1.2h3.9v4.1c0,0.1,0,0.3,0.2,0.3h0.6c0.2,0,0.2-0.2,0.2-0.3
			c0-0.2,0-1.5,0-1.7l1.8,0.4c-0.1,2.4-0.2,3.5-1.2,3.5h-2.5c-1.2,0-1.2-0.9-1.2-1.2v-3.2h-2.1c-1,3.3-4.6,4.4-5.4,4.7l-1.1-2.1
			c1.4-0.3,2.9-0.8,3.9-2c0.2-0.2,0.3-0.5,0.4-0.6h-3.5v-1.9H617.8z M613.6,434.7c1.4-0.2,3.1-0.5,3.5-1.8h-1.6v1.2h-2.1v-3h5.2v-1
			h2.1v1h5.3v3h-0.4c-0.1,1.2-0.4,1.9-1.3,1.9h-3.1c-0.9,0-1.1-0.5-1.1-1.1v-2H619c-0.5,2.9-3.7,3.5-4.5,3.7L613.6,434.7z M622,434
			c0,0.2,0,0.3,0.2,0.3h1c0.3,0,0.3-0.1,0.4-0.8l0.3,0.1v-0.7h-2V434z"/>
		<path d="M628.5,437c-0.4,0.4-0.6,0.6-0.9,0.9l-0.6-2.6c0.6-0.6,2-1.8,2.8-5.3l2.1,0.2c-0.2,0.7-0.4,2-1.1,3.5v9.6h-2.2V437z
			 M635.3,430.2c-0.1,0.4-0.2,0.9-0.4,1.6h5.4v2.1h-4.1v1.3h3.9v2h-3.9v1.4h3.9v2.1h-3.9v2.7H634v-9.4c-0.9,1.8-1.8,2.5-2.2,2.9
			l-1-2.2c1.1-1.1,2.1-2.8,2.4-4.7L635.3,430.2z"/>
		<path d="M647.2,436.5v6.5h-5.7v-6.5H647.2z M652.7,430.5v5.2h-9.8v-5.2H652.7z M643.5,438.4v2.7h1.7v-2.7H643.5z M644.9,432.3v1.6
			h5.7v-1.6H644.9z M654,436.5v6.5h-5.9v-6.5H654z M650,438.4v2.7h1.9v-2.7H650z"/>
		<path d="M668.1,439.7c-0.5,0.5-1.2,1.1-1.3,1.2c0.8,0.3,1.4,0.4,1.8,0.5l-1.1,1.9c-0.8-0.2-3-0.9-4.3-2.4l0,1.7
			c-1.5,0.3-4.1,0.6-5.1,0.6l-0.2-2c0.4,0,0.5,0,1.4,0V439h-1.2c-0.3,2.5-0.7,3.5-1.2,4.3l-1.8-1.4c0.4-0.7,1.1-2,1.1-5.3v-6.2h11.9
			v3.9h-1.9v0.7h1.9v1.5h-1.9v0.9h2.3v1.6h-1.4L668.1,439.7z M665.9,432.1H658v0.8h7.8V432.1z M660.1,434.4H658v3h2.1v-0.9h-1.8
			v-1.5h1.8V434.4z M661.2,441.2c1.1-0.1,1.4-0.1,1.9-0.2c-0.7-0.8-0.9-1.4-1.2-1.9h-0.7V441.2z M664.2,434.4H662v0.7h2.2V434.4z
			 M664.2,436.6H662v0.9h2.2V436.6z M664,439c0.2,0.3,0.5,0.7,1,1.1c0.4-0.4,0.7-0.8,1-1.1H664z"/>
	</g>
</g>
<g class="st4">
	<path d="M35.4,220.9l4.2-34.6l-5.2,0.7l0.6-2.2l7-0.6l-4.5,36.6L35.4,220.9z"/>
</g>
<g class="st4">
	<path d="M59.3,218.8l4.2-34.6l-5.2,0.7l0.6-2.2l7-0.6l-4.5,36.6L59.3,218.8z"/>
	<path d="M79.3,214c0.5,0,0.9,0.1,1.2,0.3c0.3,0.2,0.5,0.6,0.5,1c0.1,0.6-0.1,1.1-0.5,1.5c-0.4,0.4-0.8,0.6-1.4,0.7
		c-0.5,0-0.9-0.1-1.2-0.3c-0.3-0.2-0.5-0.6-0.5-1c-0.1-0.6,0.1-1.1,0.4-1.5C78.2,214.3,78.7,214.1,79.3,214z"/>
</g>
<g class="st4">
	<path d="M138.5,176l-52.4,4.6l63.1-72.7l0.4,0l-8.1,65.4l10.4-0.9l-0.3,2.5l-10.4,0.9l-4.2,35l-2.6,0.2L138.5,176z M138.8,173.5
		l7.2-58.2l-53.9,62.3L138.8,173.5z"/>
</g>
<g class="st4">
	<path d="M165.4,144.5l14.4,20.3l-19.2,23.2l-2.8,0.2l18.6-23.5l-13.2-20L165.4,144.5z M181.8,143l14.4,20.3L177,186.5l-2.8,0.2
		l18.6-23.5l-13.2-20L181.8,143z"/>
</g>
<g class="st4">
	<path d="M265.9,103.8l-45.7,4l-8.9,35.6c1.2-0.3,2.6-0.6,4.3-0.8c1.7-0.3,3.2-0.5,4.6-0.6c6-0.5,11.4-0.3,16,0.6
		c4.6,0.9,8.5,2.5,11.7,4.5c3.2,2.1,5.6,4.7,7.4,7.8c1.8,3.2,2.8,6.7,3.1,10.6c0.5,6.1-0.3,11.7-2.4,16.8
		c-2.1,5.1-5.5,9.5-10.1,13.3c-4.6,3.8-10.5,6.9-17.6,9.4c-7.1,2.4-15.3,4.1-24.8,4.9c-0.4,0-1,0.1-1.6,0.1s-1.2,0.1-1.6,0l0.7-2.7
		c0.4,0,0.9,0.1,1.2,0c0.4,0,0.8-0.1,1.1-0.1c9.1-0.8,17-2.3,23.7-4.6c6.8-2.3,12.3-5.2,16.7-8.8c4.4-3.6,7.6-7.7,9.6-12.5
		c2-4.7,2.8-10,2.3-15.7c-0.3-3.5-1.3-6.7-2.9-9.6c-1.6-2.9-3.9-5.2-6.8-7.1c-2.9-1.9-6.5-3.2-10.7-4.1c-4.2-0.8-9.2-1-14.9-0.5
		c-2.2,0.2-4.2,0.4-6.3,0.7c-2,0.3-4.1,0.7-6.2,1.3l10.1-40.9l48.6-4.2L265.9,103.8z"/>
</g>
<polyline class="st8" points="73.8,229.6 160.1,222 186.7,219.7 273.1,212.1 "/>
<g class="st4">
	<path class="st5" d="M76.7,248.9c0.7,0.3,1.5,0.4,2.4,0.3c1-0.1,1.7-0.4,2.2-0.9c0.5-0.5,0.7-1.2,0.7-1.9c0-0.6-0.3-1.1-0.7-1.5
		s-1.2-1-2.3-1.6c-0.6-0.3-1.1-0.6-1.5-0.9c-0.4-0.3-0.7-0.7-1-1c-0.3-0.4-0.5-0.7-0.6-1.1c-0.1-0.4-0.2-0.8-0.3-1.3
		c-0.1-0.8,0-1.5,0.3-2.2c0.3-0.7,0.6-1.3,1.2-1.8c0.5-0.5,1.1-1,1.8-1.3c0.7-0.3,1.5-0.5,2.3-0.6c1.7-0.1,3.2,0.1,4.7,0.6l-0.5,3.7
		c-0.8-0.5-1.5-0.8-2.1-1s-1.2-0.3-1.8-0.2c-0.8,0.1-1.4,0.3-1.8,0.8c-0.4,0.5-0.6,1-0.5,1.6c0,0.2,0.1,0.5,0.2,0.7
		c0.1,0.2,0.3,0.4,0.5,0.6s0.5,0.4,0.9,0.7c0.4,0.2,0.9,0.5,1.4,0.8c1.2,0.6,2,1.3,2.5,2c0.5,0.7,0.8,1.6,0.9,2.7
		c0.1,0.9,0,1.7-0.3,2.5c-0.3,0.8-0.8,1.4-1.4,2c-0.6,0.6-1.3,1-2.2,1.4c-0.8,0.4-1.8,0.6-2.8,0.7c-0.9,0.1-1.8,0.1-2.6-0.1
		c-0.8-0.1-1.5-0.4-2.1-0.7l0.2-4l0.1,0C75.3,248.2,76,248.6,76.7,248.9z"/>
	<path class="st5" d="M89.4,239.7c0.5-0.4,1.1-0.7,1.8-0.9c0.7-0.2,1.3-0.3,2-0.4c1.5-0.1,2.5,0.1,3.2,0.7c0.7,0.6,1.1,1.5,1.2,2.7
		c0,0.4,0,0.9,0,1.4l-0.8,6.9l-3.3,0.9l0.2-1.3c-0.5,0.4-1.1,0.8-1.7,1.1c-0.6,0.3-1.3,0.5-1.9,0.5c-0.9,0.1-1.6-0.1-2.1-0.5
		c-0.5-0.4-0.8-1-0.9-1.9c-0.1-1,0.2-1.8,0.8-2.6c0.6-0.8,1.5-1.4,2.8-1.9c0.6-0.2,1.2-0.5,1.8-0.6c0.6-0.2,1.3-0.3,2-0.5l0-0.3
		c0-0.2,0-0.4,0-0.6c0-0.4-0.2-0.7-0.5-1c-0.3-0.2-0.7-0.3-1.3-0.3c-0.6,0.1-1.2,0.2-1.9,0.5c-0.7,0.3-1.2,0.7-1.7,1.2L89.4,239.7z
		 M94.2,245c-0.4,0.1-0.8,0.2-1.3,0.3c-0.4,0.1-0.8,0.3-1.1,0.4c-0.6,0.3-1,0.6-1.2,0.9c-0.2,0.3-0.3,0.7-0.3,1.1
		c0,0.3,0.1,0.6,0.4,0.7c0.2,0.2,0.5,0.2,0.9,0.2c0.4,0,0.8-0.2,1.2-0.4c0.4-0.2,0.8-0.6,1.1-1L94.2,245z"/>
	<path class="st5" d="M102.3,238.1l0.4-3.4l3.3-0.9l-0.5,4l3.2-0.3l-0.3,2.8l-3.2,0.3l-0.6,5.2c-0.1,0.7-0.1,1.3-0.1,1.7
		c0,0.5,0.2,0.9,0.4,1.2c0.2,0.3,0.6,0.5,1.1,0.8l-0.1,0.2l-3.3,0.6c-0.4-0.2-0.7-0.4-1-0.8s-0.4-0.8-0.5-1.5c0-0.2,0-0.4,0-0.7
		s0-0.5,0.1-0.8l0.7-5.7l-2.2,0.2l0.3-2.8L102.3,238.1z"/>
</g>
<g class="st4">
	<path class="st6" d="M189.7,238.9c0.7,0.3,1.5,0.4,2.4,0.3c1-0.1,1.7-0.4,2.2-0.9c0.5-0.5,0.7-1.2,0.7-1.9c0-0.6-0.3-1.1-0.7-1.5
		s-1.2-1-2.3-1.6c-0.6-0.3-1.1-0.6-1.5-0.9c-0.4-0.3-0.7-0.7-1-1c-0.3-0.4-0.5-0.7-0.6-1.1c-0.1-0.4-0.2-0.8-0.3-1.3
		c-0.1-0.8,0-1.5,0.3-2.2c0.3-0.7,0.6-1.3,1.2-1.8s1.1-1,1.8-1.3c0.7-0.3,1.5-0.5,2.3-0.6c1.7-0.1,3.2,0.1,4.7,0.6l-0.5,3.7
		c-0.8-0.5-1.5-0.8-2.1-1s-1.2-0.3-1.8-0.2c-0.8,0.1-1.4,0.3-1.8,0.8c-0.4,0.5-0.6,1-0.5,1.6c0,0.2,0.1,0.5,0.2,0.7s0.3,0.4,0.5,0.6
		s0.5,0.4,0.9,0.7c0.4,0.2,0.9,0.5,1.4,0.8c1.2,0.6,2,1.3,2.5,2c0.5,0.7,0.8,1.6,0.9,2.7c0.1,0.9,0,1.7-0.3,2.5
		c-0.3,0.8-0.8,1.4-1.4,2c-0.6,0.6-1.3,1-2.2,1.4c-0.8,0.4-1.8,0.6-2.8,0.7c-0.9,0.1-1.8,0.1-2.6-0.1c-0.8-0.1-1.5-0.4-2.1-0.7
		l0.2-4l0.1,0C188.2,238.2,189,238.7,189.7,238.9z"/>
	<path class="st6" d="M205.2,229l-0.9,7.2c0,0.1,0,0.3,0,0.4c0,0.1,0,0.2,0,0.3c0,0.5,0.2,0.8,0.5,1c0.3,0.2,0.6,0.3,1.1,0.2
		c0.5,0,1-0.2,1.4-0.5c0.4-0.3,0.8-0.6,1.1-1.1c0.1-0.2,0.2-0.4,0.3-0.6c0.1-0.2,0.1-0.4,0.2-0.7l0.8-6.6l3.3-0.3l-1.5,11.7L208,241
		l0.2-1.9c-0.5,0.6-1.1,1.1-1.8,1.5c-0.6,0.4-1.3,0.6-2.1,0.7c-1.1,0.1-1.9-0.1-2.5-0.6c-0.6-0.5-0.9-1.3-1-2.3c0-0.4,0-0.9,0-1.3
		l1-7.7L205.2,229z"/>
	<path class="st6" d="M216.5,228l3.3-0.3l-0.2,1.5c0.7-0.7,1.4-1.3,2-1.6c0.6-0.3,1.3-0.5,2-0.6c1-0.1,1.9,0.1,2.5,0.7
		c0.6,0.5,0.9,1.3,1,2.3c0,0.2,0,0.4,0,0.6c0,0.2,0,0.4,0,0.7l-1,7.8l-3.3,0.3l0.9-7.1c0-0.3,0-0.5,0-0.8c-0.1-0.9-0.6-1.3-1.6-1.3
		c-0.4,0-0.8,0.2-1.2,0.4c-0.4,0.2-0.7,0.4-0.9,0.7c-0.3,0.3-0.5,0.6-0.6,0.9c-0.1,0.3-0.3,0.7-0.3,1.2l-0.8,6.4L215,240L216.5,228z
		"/>
</g>
<g class="st4">
	<path d="M48.5,86.3c-0.5-0.5-0.8-0.8-1.6-1.4c-1.9,0.4-9.6,1.6-14.6,2.1l0-2.3c0.5,0,3.3-0.3,3.9-0.4c0.6-0.8,0.9-1.3,1.1-1.7
		L32,83.1l0.2-2.3l8.6-0.8l0.1-1.3l2.6-0.2l-0.1,1.3l8.6-0.8l-0.2,2.3l-4.6,0.4c1.4,0.7,2.7,1.6,3.8,2.6L48.5,86.3z M48.1,96
		c-0.2,1.7-1.3,2.2-2.2,2.2l-3.9,0.3l-0.3-2.4l3.2-0.3c0.4,0,0.6-0.1,0.6-0.5l0.1-0.9l-9.9,0.9l-0.3,3.8l-2.6,0.2l1-11.8L49,86.3
		L48.1,96z M46,91.4l-9.9,0.9L36,93.5l9.9-0.9L46,91.4z M46.2,88.4l-9.9,0.9l-0.1,1.2l9.9-0.9L46.2,88.4z M45,81.9l-4.6,0.4
		c-0.7,1.1-0.8,1.1-1.2,1.6c1.8-0.2,3.4-0.4,5.3-0.7c-0.3-0.1-0.4-0.2-1-0.5L45,81.9z"/>
	<path d="M51.5,95.1c1.3-0.4,3.7-1.1,6.3-2.8c0.5-0.3,0.9-0.7,1.3-1.1L52,91.9l0.2-2.4l2.2-0.2l0.5-5.9l6.4-0.6l0.1-1.3l2.6-0.2
		l-0.1,1.3l6.3-0.6l-0.5,5.9l2.2-0.2l-0.2,2.4l-7.3,0.6c1.8,2.2,5.4,2.4,7.3,2.4L70,96c-5.6-0.4-7.7-3.6-8.2-4.7
		c-1.8,2.8-4.9,4.9-9,6.4L51.5,95.1z M57.4,77.3l2.5-0.2l-0.1,1.5l6.3-0.6l0.1-1.5l2.5-0.2l-0.1,1.5l4.1-0.4l-0.2,2.5l-4.1,0.4
		l-0.1,1.3l-2.5,0.2l0.1-1.3l-6.3,0.6l-0.1,1.3l-2.5,0.2l0.1-1.3l-4.1,0.4l0.2-2.5l4.1-0.4L57.4,77.3z M61.1,85.1l-3.9,0.3L56.9,89
		l3.7-0.3c0.1-0.4,0.3-1.4,0.4-2.5L61.1,85.1z M63.6,85.2c-0.1,1.3-0.3,2.5-0.5,3.3l4.1-0.4l0.3-3.6l-3.8,0.3L63.6,85.2z"/>
	<path d="M79.2,90.9c-2,2.7-4.4,4.2-5.2,4.6l-1.5-1.9c1.9-1.2,3.2-2.2,4.7-3.8L79.2,90.9z M78.1,79c0.3,0.2,0.9,0.6,1.7,1.4
		c0.8-0.9,1-1.3,1.4-1.9l-3.3,0.3c-1.4,1.4-2.6,2.2-3.5,2.8l-0.8-2.1c1.6-1,3.1-2.4,4.3-4.1l2.4,0.2c-0.2,0.3-0.3,0.6-0.6,1l4.1-0.4
		l1.5-0.5c0.2,0.5,0.5,1.1,1,1.9l0.1-1.6l6.9-0.6l-0.2,2.1c-1,1.6-2.1,2.9-3,3.9c1.2,0.7,2.2,1,3.2,1.3l-1.7,2.5
		c-0.6-0.2-1.7-0.6-3.1-1.5l-0.1,1.1L78,85.8l0.1-1c-1.6,1.2-2.9,1.8-3.8,2.2l-1.1-2.2c0.8-0.3,1.7-0.6,3.1-1.5
		c-0.6-0.6-1-1-1.3-1.3l1.1-1.1c0.3,0.2,0.9,0.6,1.6,1.4c0.3-0.2,0.5-0.4,0.8-0.7c-0.1-0.1-0.6-0.8-1.5-1.6L78.1,79z M91.8,88.4
		L84,89.1l-0.3,3.8c-0.1,1.5-1.1,2.1-2.1,2.1l-3.5,0.3l-0.2-2.4l2.6-0.2c0.1,0,0.5,0,0.6-0.5l0.3-2.9L73.7,90l0.2-2.3L92,86
		L91.8,88.4z M87.1,82.7c-0.5-0.4-2.1-1.8-3.4-4.2c-1.5,2.6-3.1,4.1-3.9,4.9L87.1,82.7z M90.5,94.1c-0.7-0.3-3.1-1.5-4.8-3.9
		l2.3-1.4c1.3,1.3,2.8,2.3,4.4,3L90.5,94.1z M86.6,78.1c0.8,1.2,1.5,1.8,1.9,2.1c0.9-1,1.3-1.6,1.9-2.5L86.6,78.1z"/>
	<path d="M103.3,76.7l0.3-3.5l2.7-0.2l-0.3,3.5l7.8-0.7l-0.9,10.7l-7.8,0.7l-0.5,5.8l-2.7,0.2l0.5-5.8l-7.7,0.7l0.9-10.7L103.3,76.7
		z M103,79.4l-5,0.4l-0.5,5.5l5-0.4L103,79.4z M110.8,78.7l-5.1,0.4l-0.5,5.5l5.1-0.4L110.8,78.7z"/>
	<path d="M116.6,72.9l8.2-0.7l-0.7,8l-5.8,0.5l-1,11.3l-2.5,0.2L116.6,72.9z M118.7,77.5l-0.1,1.2l3.3-0.3l0.1-1.2L118.7,77.5z
		 M118.9,74.6l-0.1,1.2l3.3-0.3l0.1-1.2L118.9,74.6z M129.1,88.4l1.4-0.1c0.5,0,0.6-0.4,0.6-0.7l0.7-8.1l-6,0.5l0.7-8l8.5-0.7
		l-1.5,17.1c-0.1,0.8-0.4,2.1-1.8,2.3l-3.6,0.3l-0.2-2l-8.5,0.7l0.7-8.1l9.6-0.8L129.1,88.4z M122.1,86.2l-0.1,1.3l4.9-0.4l0.1-1.3
		L122.1,86.2z M122.3,83.4l-0.1,1.3l4.9-0.4l0.1-1.3L122.3,83.4z M128.4,76.6l-0.1,1.2l3.6-0.3l0.1-1.2L128.4,76.6z M128.7,73.8
		l-0.1,1.2l3.6-0.3l0.1-1.2L128.7,73.8z"/>
	<path d="M154.5,83.2c-0.8,0.9-1.3,1.3-2.5,2.2c1.4,0.5,2.5,0.6,3.2,0.8l-1.6,2.5c-4.7-1.1-6.4-2.7-7.7-5.8l-1.5,0.1l-0.3,3.6
		c1.7-0.3,2.4-0.5,3.3-0.8l-0.1,2.3c-2.1,0.7-6.1,1.5-7.7,1.7l-0.2-2.4c0.6,0,0.8-0.1,2.2-0.3l0.3-3.9l-2.3,0.2
		c-0.6,3.6-1.2,5-2.3,6.6l-2.2-1.5c0.7-1.2,1.9-3,2.4-8.5l0.8-9.3l17.4-1.5l-0.5,5.6l-3.1,0.3l-0.1,1.5l3-0.3l-0.2,1.9l-3,0.3
		l-0.2,1.8l3.7-0.3l-0.2,2.1l-2.1,0.2L154.5,83.2z M143.7,75.9l-3.3,0.3L140,80c-0.1,0.7-0.1,1-0.2,1.4l3.4-0.3l0.2-1.8l-2.7,0.2
		l0.2-1.9l2.7-0.2L143.7,75.9z M153,71.7l-12.3,1.1l-0.1,1.5l12.3-1.1L153,71.7z M149.5,78.7l-3.7,0.3l-0.2,1.8l3.7-0.3L149.5,78.7z
		 M149.8,75.4l-3.7,0.3l-0.1,1.5l3.7-0.3L149.8,75.4z M148.5,82.7c0.3,0.5,0.7,1.1,1.5,1.7c1.1-1,1.9-1.8,2.1-2.1L148.5,82.7z"/>
	<path d="M162.6,78.7c-0.9,3.4-2.7,6.4-4.6,8.4l-1.9-1.8c1.8-1.7,3.3-4.2,4-7L162.6,78.7z M157.4,74.6l19.6-1.7l-0.2,2.5l-8.5,0.7
		l-0.8,9.5c-0.1,1.2-0.8,1.9-2.1,2l-3.8,0.3l-0.2-2.7l3.1-0.3c0.5,0,0.5-0.3,0.5-0.6l0.7-8.1l-8.5,0.7L157.4,74.6z M159.1,69
		l17.1-1.5l-0.2,2.5l-17.1,1.5L159.1,69z M174.1,85.6c-1.8-1.8-2.8-5-3.3-7.6l2.5-0.9c0.6,3,1.5,4.7,3,6.3L174.1,85.6z"/>
</g>
<g class="st4">
	<path d="M699,133.8c0.1,1.1,0,2.3-0.3,3.3c-0.3,1.1-0.8,2.1-1.4,3c-0.7,0.9-1.5,1.8-2.4,2.6c-1,0.8-2.1,1.4-3.3,2
		c1.9,0.5,3.4,1.3,4.4,2.5c1,1.2,1.6,2.6,1.8,4.3c0.2,1.8-0.1,3.4-0.8,4.9c-0.7,1.5-1.6,2.8-2.9,4s-2.8,2.1-4.6,2.8
		c-1.8,0.7-3.8,1.2-6,1.4c-1.6,0.1-3,0.1-4.2,0c-1.2-0.2-2.2-0.5-3.1-0.9l0.2-2.2c1,0.5,2,0.8,3.1,1c1.1,0.2,2.3,0.2,3.8,0
		c1.9-0.2,3.7-0.6,5.3-1.2c1.6-0.6,2.9-1.4,4-2.4s1.9-2.1,2.4-3.3c0.5-1.2,0.7-2.5,0.6-3.9c-0.2-1.9-1-3.3-2.5-4.4
		c-1.5-1-3.7-1.4-6.6-1.2c-2.4,0.2-4.5,0.5-6.3,1l0.8-2.7c0.6,0,1.2,0,1.9,0c0.7,0,1.4-0.1,2.1-0.2c1.8-0.2,3.5-0.5,5-1.1
		c1.5-0.5,2.8-1.3,3.8-2.1c1-0.9,1.8-1.9,2.4-3.1c0.5-1.2,0.7-2.5,0.6-4c-0.1-1.7-0.8-3-2.1-4c-1.2-1-3.1-1.4-5.5-1.2
		c-1.5,0.1-2.8,0.4-3.9,0.7c-1.1,0.3-2.2,0.9-3.4,1.6l0.9-2.9c0.9-0.4,1.8-0.8,2.9-1c1-0.2,2.1-0.4,3.3-0.5c1.5-0.1,2.9,0,4.1,0.3
		c1.2,0.3,2.2,0.8,3,1.5c0.8,0.7,1.5,1.5,1.9,2.4C698.6,131.6,698.9,132.6,699,133.8z"/>
	<path d="M706.1,158.8c0.5,0,0.9,0.1,1.2,0.3c0.3,0.2,0.5,0.6,0.5,1c0.1,0.6-0.1,1.1-0.5,1.5c-0.4,0.4-0.8,0.6-1.4,0.7
		c-0.5,0-0.9-0.1-1.2-0.3c-0.3-0.2-0.5-0.6-0.5-1c-0.1-0.6,0.1-1.1,0.4-1.5C705,159.1,705.5,158.8,706.1,158.8z"/>
</g>
<g class="st4">
	<path d="M775,76.8c0.3,3.8-0.1,7.3-1.2,10.5c-1.1,3.2-2.8,6-4.9,8.6c-2.2,2.5-4.8,4.7-7.8,6.5c-3,1.8-6.3,3.2-9.7,4.2
		c5.7,0.9,10.3,2.9,13.8,6.1c3.5,3.2,5.5,7.7,6,13.6c0.4,4.5-0.2,8.7-1.8,12.6c-1.6,3.9-4,7.3-7.3,10.2c-3.2,2.9-7.1,5.3-11.8,7.2
		c-4.6,1.9-9.8,3.1-15.5,3.6c-4.8,0.4-9.1,0.4-12.7-0.1c-3.6-0.5-6.5-1.2-8.7-2.2l0.3-2.8c3.1,1.2,6.2,2,9.4,2.4
		c3.2,0.4,7,0.4,11.4,0c5.3-0.5,10.1-1.6,14.4-3.3c4.3-1.7,8-3.9,11-6.6c3-2.7,5.3-5.8,6.8-9.3c1.5-3.6,2-7.4,1.7-11.6
		c-0.2-2.8-1-5.4-2.2-7.8c-1.2-2.3-3-4.3-5.3-5.9c-2.3-1.6-5.3-2.8-8.9-3.5c-3.6-0.7-7.8-0.9-12.8-0.4c-2.7,0.2-5.2,0.5-7.6,0.9
		c-2.4,0.3-4.6,0.8-6.5,1.3l1-3.9c3.9-0.1,8.3-0.3,13.1-0.8c5-0.4,9.6-1.4,13.8-3c4.2-1.6,7.8-3.7,10.7-6.2c3-2.6,5.2-5.5,6.7-8.9
		c1.5-3.3,2.1-7.1,1.7-11.1c-0.2-2.7-0.9-5.1-2-7.4c-1.1-2.3-2.5-4.2-4.4-5.8c-1.9-1.6-4.2-2.8-7-3.6c-2.8-0.8-6.1-1-9.8-0.6
		c-3.6,0.3-6.8,0.9-9.6,1.6c-2.8,0.8-5.7,1.9-8.6,3.5l1.1-3.6c4.4-2.1,10-3.5,16.9-4.1c4.1-0.4,7.6-0.1,10.8,0.8
		c3.1,0.9,5.8,2.2,8,4c2.2,1.8,3.9,4,5.1,6.6C774,70.9,774.8,73.7,775,76.8z"/>
</g>
<g class="st4">
	<path d="M789.6,89.5l14.4,20.3l-19.2,23.2l-2.8,0.2l18.6-23.5l-13.2-20L789.6,89.5z M806,88l14.4,20.3l-19.2,23.2l-2.8,0.2
		l18.6-23.5l-13.2-20L806,88z"/>
</g>
<g class="st4">
	<path d="M880,110.8l-52.4,4.6l63.1-72.7l0.4,0l-8.1,65.4l10.4-0.9l-0.3,2.5l-10.4,0.9l-4.2,35l-2.6,0.2L880,110.8z M880.3,108.3
		l7.2-58.2l-53.9,62.3L880.3,108.3z"/>
</g>
<polyline class="st8" points="701.2,174.7 787.5,167.1 814.1,164.8 900.5,157.3 "/>
<g class="st4">
	<path class="st5" d="M704.1,194c0.7,0.3,1.5,0.4,2.4,0.3c1-0.1,1.7-0.4,2.2-0.9c0.5-0.5,0.7-1.2,0.7-1.9c0-0.6-0.3-1.1-0.7-1.5
		s-1.2-1-2.3-1.6c-0.6-0.3-1.1-0.6-1.5-0.9c-0.4-0.3-0.7-0.7-1-1c-0.3-0.4-0.5-0.7-0.6-1.1c-0.1-0.4-0.2-0.8-0.3-1.3
		c-0.1-0.8,0-1.5,0.3-2.2c0.3-0.7,0.6-1.3,1.2-1.8s1.1-1,1.8-1.3c0.7-0.3,1.5-0.5,2.3-0.6c1.7-0.1,3.2,0.1,4.7,0.6l-0.5,3.7
		c-0.8-0.5-1.5-0.8-2.1-1s-1.2-0.3-1.8-0.2c-0.8,0.1-1.4,0.3-1.8,0.8c-0.4,0.5-0.6,1-0.5,1.6c0,0.2,0.1,0.5,0.2,0.7s0.3,0.4,0.5,0.6
		s0.5,0.4,0.9,0.7c0.4,0.2,0.9,0.5,1.4,0.8c1.2,0.6,2,1.3,2.5,2c0.5,0.7,0.8,1.6,0.9,2.7c0.1,0.9,0,1.7-0.3,2.5
		c-0.3,0.8-0.8,1.4-1.4,2c-0.6,0.6-1.3,1-2.2,1.4c-0.8,0.4-1.8,0.6-2.8,0.7c-0.9,0.1-1.8,0.1-2.6-0.1c-0.8-0.1-1.5-0.4-2.1-0.7
		l0.2-4l0.1,0C702.7,193.3,703.4,193.7,704.1,194z"/>
	<path class="st5" d="M716.8,184.9c0.5-0.4,1.1-0.7,1.8-0.9c0.7-0.2,1.3-0.3,2-0.4c1.5-0.1,2.5,0.1,3.2,0.7c0.7,0.6,1.1,1.5,1.2,2.7
		c0,0.4,0,0.9,0,1.4l-0.8,6.9l-3.3,0.9l0.2-1.3c-0.5,0.4-1.1,0.8-1.7,1.1c-0.6,0.3-1.3,0.5-1.9,0.5c-0.9,0.1-1.6-0.1-2.1-0.5
		c-0.5-0.4-0.8-1-0.9-1.9c-0.1-1,0.2-1.8,0.8-2.6c0.6-0.8,1.5-1.4,2.8-1.9c0.6-0.2,1.2-0.5,1.8-0.6c0.6-0.2,1.3-0.3,2-0.5l0-0.3
		c0-0.2,0-0.4,0-0.6c0-0.4-0.2-0.7-0.5-1c-0.3-0.2-0.7-0.3-1.3-0.3c-0.6,0.1-1.2,0.2-1.9,0.5c-0.7,0.3-1.2,0.7-1.7,1.2L716.8,184.9z
		 M721.6,190.2c-0.4,0.1-0.8,0.2-1.3,0.3c-0.4,0.1-0.8,0.3-1.1,0.4c-0.6,0.3-1,0.6-1.2,0.9c-0.2,0.3-0.3,0.7-0.3,1.1
		c0,0.3,0.1,0.6,0.4,0.7c0.2,0.2,0.5,0.2,0.9,0.2c0.4,0,0.8-0.2,1.2-0.4c0.4-0.2,0.8-0.6,1.1-1L721.6,190.2z"/>
	<path class="st5" d="M729.7,183.2l0.4-3.4l3.3-0.9l-0.5,4l3.2-0.3l-0.3,2.8l-3.2,0.3l-0.6,5.2c-0.1,0.7-0.1,1.3-0.1,1.7
		c0,0.5,0.2,0.9,0.4,1.2c0.2,0.3,0.6,0.5,1.1,0.8l-0.1,0.2l-3.3,0.6c-0.4-0.2-0.7-0.4-1-0.8s-0.4-0.8-0.5-1.5c0-0.2,0-0.4,0-0.7
		s0-0.5,0.1-0.8l0.7-5.7l-2.2,0.2l0.3-2.8L729.7,183.2z"/>
</g>
<g class="st4">
	<path class="st6" d="M817.1,184c0.7,0.3,1.5,0.4,2.4,0.3c1-0.1,1.7-0.4,2.2-0.9c0.5-0.5,0.7-1.2,0.7-1.9c0-0.6-0.3-1.1-0.7-1.5
		c-0.4-0.5-1.2-1-2.3-1.6c-0.6-0.3-1.1-0.6-1.5-0.9c-0.4-0.3-0.7-0.7-1-1c-0.3-0.4-0.5-0.7-0.6-1.1c-0.1-0.4-0.2-0.8-0.3-1.3
		c-0.1-0.8,0-1.5,0.3-2.2c0.3-0.7,0.6-1.3,1.2-1.8c0.5-0.5,1.1-1,1.8-1.3c0.7-0.3,1.5-0.5,2.3-0.6c1.7-0.1,3.2,0.1,4.7,0.6l-0.5,3.7
		c-0.8-0.5-1.5-0.8-2.1-1c-0.6-0.2-1.2-0.3-1.8-0.2c-0.8,0.1-1.4,0.3-1.8,0.8c-0.4,0.5-0.6,1-0.5,1.6c0,0.2,0.1,0.5,0.2,0.7
		s0.3,0.4,0.5,0.6s0.5,0.4,0.9,0.7c0.4,0.2,0.9,0.5,1.4,0.8c1.2,0.6,2,1.3,2.5,2c0.5,0.7,0.8,1.6,0.9,2.7c0.1,0.9,0,1.7-0.3,2.5
		c-0.3,0.8-0.8,1.4-1.4,2c-0.6,0.6-1.3,1-2.2,1.4c-0.8,0.4-1.8,0.6-2.8,0.7c-0.9,0.1-1.8,0.1-2.6,0c-0.8-0.1-1.5-0.4-2.1-0.7l0.2-4
		l0.1,0C815.6,183.3,816.4,183.8,817.1,184z"/>
	<path class="st6" d="M832.6,174.1l-0.9,7.2c0,0.1,0,0.3,0,0.4s0,0.2,0,0.3c0,0.5,0.2,0.8,0.5,1s0.6,0.3,1.1,0.2
		c0.5,0,1-0.2,1.4-0.5c0.4-0.3,0.8-0.6,1.1-1.1c0.1-0.2,0.2-0.4,0.3-0.6c0.1-0.2,0.1-0.4,0.2-0.7l0.8-6.6l3.3-0.3l-1.5,11.7
		l-3.3,0.9l0.2-1.9c-0.5,0.6-1.1,1.1-1.8,1.5c-0.6,0.4-1.3,0.6-2.1,0.7c-1.1,0.1-1.9-0.1-2.5-0.6c-0.6-0.5-0.9-1.3-1-2.3
		c0-0.4,0-0.9,0-1.3l1-7.7L832.6,174.1z"/>
	<path class="st6" d="M843.8,173.1l3.3-0.3l-0.2,1.5c0.7-0.7,1.4-1.3,2-1.6c0.6-0.3,1.3-0.5,2-0.6c1-0.1,1.9,0.1,2.5,0.7
		s0.9,1.3,1,2.3c0,0.2,0,0.4,0,0.6c0,0.2,0,0.4,0,0.7l-1,7.8l-3.3,0.3l0.9-7.1c0-0.3,0-0.5,0-0.8c-0.1-0.9-0.6-1.3-1.6-1.3
		c-0.4,0-0.8,0.2-1.2,0.4c-0.4,0.2-0.7,0.4-0.9,0.7c-0.3,0.3-0.5,0.6-0.6,0.9c-0.1,0.3-0.3,0.7-0.3,1.2l-0.8,6.4l-3.3,0.3
		L843.8,173.1z"/>
</g>
<g class="st4">
	<path d="M685.5,33.7l-1.3-1.5l-1.5,1.7c-1.1-0.7-1.9-1.6-2.3-2.1c-1.4,2-2.7,3.1-3.6,3.8l-1.6-1.9c2.1-1.4,3.7-3.4,5.1-6.5l2.4,0.4
		c-0.3,0.6-0.5,1.2-0.9,2c0.2,0.2,1.1,1.2,2.8,2.1c2.9-2.3,3.9-4.4,4.3-5.3l2.4,0.4c-0.2,0.5-0.4,1.1-1,1.9c1.5,1.7,3.1,2.4,4.6,3
		l-1.9,2.5c-2.8-1.6-4-3.2-4.2-3.4c-1.4,1.7-2.4,2.4-2.9,2.9l0.4,0l-0.1,1.5l8.6-0.8l-0.2,2.5l-8.6,0.8l-0.4,4.5l-2.7,0.2l0.4-4.5
		l-8.5,0.7l0.2-2.5l8.5-0.7l0.1-1.5L685.5,33.7z M684.6,22.3l2.7-0.2l-0.2,1.8l8.1-0.7l-0.2,2.5l-18.9,1.7l0.2-2.5l8-0.7L684.6,22.3
		z"/>
	<path d="M713.7,39.4c-2.2-0.5-4.5-1.3-6.9-3.4l-0.4,4.2l-2.6,0.2l0.4-4.2c-2.5,2.3-5.1,3.5-7.6,4.6l-1.1-2.2c2-0.7,4.6-1.7,7-3.4
		l-6.7,0.6l0.2-2.1l8.5-0.7l0.1-1.1l-7.1,0.6l0.2-1.8l7.1-0.6l0.1-1.1l-7.6,0.7l0.2-2l4.2-0.4c0-0.3-0.2-1.1-0.4-1.4l-4.6,0.4
		l0.2-2.2l3-0.3c-0.1-0.4-0.3-1-0.9-2.2l2.6-0.8c0.4,1,0.6,1.6,0.8,2.8l1.1-0.1l0.2-2.8l2.4-0.2l-0.2,2.8l1.5-0.1l0.2-2.8l2.4-0.2
		l-0.2,2.8l1.1-0.1c0.5-0.9,1-2.2,1.3-3l2.5,0.4c-0.1,0.2-0.6,1.4-1.2,2.4l2.9-0.3l-0.2,2.2l-4.6,0.4c-0.3,0.8-0.4,1-0.6,1.4
		l4.3-0.4l-0.2,2l-7.7,0.7l-0.1,1.1l7.2-0.6l-0.2,1.8l-7.2,0.6l-0.1,1.1l8.5-0.7l-0.2,2.1l-6.6,0.6c2.2,1.5,4.9,1.9,6.5,2.2
		L713.7,39.4z M708.3,26.7c0.2-0.3,0.3-0.7,0.6-1.4l-5,0.4c0.1,0.2,0.3,1.2,0.4,1.4L708.3,26.7z"/>
	<path d="M724.6,25.9l-1.1,12.2l-5.9,0.5l0.6-7.2c-0.3,0.3-0.4,0.5-0.9,0.9l-0.6-3.1c1.7-1.9,2.5-3.7,3-6.7l-2,0.2l0.2-2.5l7.6-0.7
		l-0.2,2.5l-3.1,0.3c-0.3,1.8-0.6,2.7-1,3.8L724.6,25.9z M722.3,28.4l-1.7,0.1L720,36l1.7-0.1L722.3,28.4z M727.6,21.9L726,22
		l0.2-2.5l11.1-1l-0.2,2.5l-1.8,0.2l-0.4,4.5l2.1-0.2l-0.2,2.5l-2.1,0.2l-0.9,9.7l-2.6,0.2l0.9-9.7l-2.7,0.2l-0.1,1.1
		c-0.3,3.4-1.2,6.6-3.7,8.8l-2-1.8c0.9-0.9,2.8-2.6,3.2-6.9l0.1-1l-1.9,0.2l0.2-2.5l1.9-0.2L727.6,21.9z M729.7,26.2l2.7-0.2
		l0.4-4.5l-2.7,0.2L729.7,26.2z"/>
	<path d="M748.1,24.9c-0.1,0.6-0.1,1.2-0.3,2.1l5.8-0.5L753,33c0,0.3,0,0.5,0.4,0.4l0.8-0.1c0.5,0,0.6-0.3,0.6-0.5
		c0.1-0.5,0.3-2.1,0.3-2.5l2.2,0.4c-0.4,3.9-0.7,4.9-2.1,5.1l-3.5,0.3c-1.7,0.1-1.5-1.1-1.5-1.7l0.4-5.1l-3.6,0.3
		c-0.5,1.5-2.1,5.6-8.9,8.1l-1.1-2.5c5.2-1.5,6.6-3.8,7.2-5.4l-5.7,0.5l0.2-2.5l6.2-0.5c0.1-0.6,0.2-1.1,0.3-2.1L748.1,24.9z
		 M749.2,20.6l-2.2,0.2c-0.9,2.6-2.6,4.8-7.1,6.3l-0.8-2.3c3.4-0.8,4.6-1.9,5.5-3.7l-2.9,0.3l-0.2,2.1l-2.6,0.2l0.4-4.4l7.9-0.7
		l0.1-1.6l2.6-0.2l-0.1,1.6l8-0.7l-0.4,4.4l-0.7,0.1c-0.3,1.5-0.6,2.8-2,2.9l-4,0.3c-0.9,0.1-1.9,0.2-1.8-1.4L749.2,20.6z
		 M751.3,22.5c0,0.3,0,0.5,0.4,0.4l2-0.2c0.4,0,0.6-0.2,0.8-1.5l0.6,0.1l0.1-1.3l-3.7,0.3L751.3,22.5z"/>
	<path d="M761.2,25.2c-0.8,0.9-1.3,1.4-1.8,1.8l-0.7-2.8c1.4-1.3,3.5-3.5,5.2-8.8l2.5,0.1c-0.3,1-0.9,2.9-2.1,5.2L763,35.4l-2.7,0.2
		L761.2,25.2z M771.6,15c-0.2,0.7-0.4,1.3-1,2.6l8.6-0.8l-0.2,2.6l-6.6,0.6l-0.2,2.6l6.2-0.5l-0.2,2.5l-6.1,0.5l-0.2,2.6l6.1-0.5
		l-0.2,2.5l-6.1,0.5l-0.4,4.5l-2.7,0.2l1.3-14.7l-0.4,0c-1.7,2.8-3,4.1-3.7,4.8l-1.1-2.5c2.4-2.4,3.8-5.4,4.5-7.6L771.6,15z"/>
	<path d="M788.8,23l-0.8,9.7l-8.3,0.7l0.8-9.7L788.8,23z M782.7,25.9l-0.4,5l3.4-0.3l0.4-5L782.7,25.9z M797.8,13.1l-0.7,7.7
		l-14.5,1.3l0.7-7.7L797.8,13.1z M785.6,16.5l-0.3,3.1l9.5-0.8l0.3-3.1L785.6,16.5z M798.9,22.2l-0.8,9.7l-8.6,0.8l0.8-9.7
		L798.9,22.2z M792.5,25.1l-0.4,5l3.8-0.3l0.4-5L792.5,25.1z"/>
	<path d="M819.2,25c-0.8,0.9-1.3,1.3-2.5,2.2c1.4,0.5,2.5,0.6,3.2,0.8l-1.6,2.5c-4.7-1.1-6.4-2.7-7.7-5.8l-1.5,0.1l-0.3,3.6
		c1.7-0.3,2.4-0.5,3.3-0.8L812,30c-2.1,0.7-6.1,1.5-7.7,1.7l-0.2-2.4c0.6,0,0.8-0.1,2.2-0.3l0.3-3.9l-2.3,0.2
		c-0.6,3.6-1.2,5-2.3,6.6l-2.2-1.5c0.7-1.2,1.9-3,2.4-8.5l0.8-9.3l17.4-1.5l-0.5,5.6l-3.1,0.3l-0.1,1.5l3-0.3l-0.2,1.9l-3,0.3
		l-0.2,1.8l3.7-0.3l-0.2,2.1l-2.1,0.2L819.2,25z M808.5,17.7l-3.3,0.3l-0.3,3.8c-0.1,0.7-0.1,1-0.2,1.4l3.4-0.3l0.2-1.8l-2.7,0.2
		l0.2-1.9l2.7-0.2L808.5,17.7z M817.7,13.5l-12.3,1.1l-0.1,1.5l12.3-1.1L817.7,13.5z M814.2,20.5l-3.7,0.3l-0.2,1.8l3.7-0.3
		L814.2,20.5z M814.5,17.2l-3.7,0.3l-0.1,1.5l3.7-0.3L814.5,17.2z M813.2,24.5c0.3,0.5,0.7,1.1,1.5,1.7c1.1-1,1.9-1.8,2.1-2.1
		L813.2,24.5z"/>
</g>
<g class="st4">
	<path d="M325,194.8l4.2-34.6l-5.2,0.7l0.6-2.2l7-0.6l-4.5,36.6L325,194.8z"/>
</g>
<g class="st4">
	<path d="M348.6,156.5c1.5-0.6,3.1-0.9,4.7-1c1.5-0.1,2.9,0,4.1,0.3s2.2,0.8,3,1.5c0.8,0.7,1.5,1.5,1.9,2.5c0.5,1,0.8,2,0.9,3.2
		c0.1,1.1,0.1,2.2-0.1,3.2c-0.2,1-0.5,2-1,3.1c-0.5,1-1.2,2.1-2.1,3.3c-0.9,1.2-1.9,2.5-3.2,3.9c-0.9,1-2,2.2-3.3,3.6
		c-1.3,1.3-2.6,2.7-4,4.1c-1.4,1.4-2.8,2.7-4.1,4c-1.4,1.3-2.6,2.4-3.7,3.3l19.2-1.7l-0.5,2.1l-22.4,2l0.2-1.7
		c1-0.8,2.2-1.9,3.7-3.2c1.5-1.3,3-2.8,4.6-4.4s3.2-3.2,4.7-4.8c1.5-1.6,2.9-3.1,4.1-4.5c1.3-1.6,2.4-2.9,3.2-4s1.4-2.1,1.8-3
		c0.4-0.9,0.7-1.7,0.7-2.5c0.1-0.8,0.1-1.6,0-2.6c-0.2-1.7-0.9-3.1-2.1-4.2c-1.3-1.1-3.1-1.5-5.4-1.3c-1.7,0.2-3.4,0.6-5,1.2
		c-1.6,0.7-3.3,1.7-5.1,3.1l1.1-3.3C345.7,157.7,347.1,157,348.6,156.5z"/>
	<path d="M368.9,187.9c0.5,0,0.9,0.1,1.2,0.3c0.3,0.2,0.5,0.6,0.5,1c0.1,0.6-0.1,1.1-0.5,1.5c-0.4,0.4-0.8,0.6-1.4,0.7
		c-0.5,0-0.9-0.1-1.2-0.3c-0.3-0.2-0.5-0.6-0.5-1c-0.1-0.6,0.1-1.1,0.4-1.5C367.8,188.2,368.3,187.9,368.9,187.9z"/>
</g>
<g class="st4">
	<path d="M388.2,187.7c15.3-7.4,27.1-15.7,35.5-24.8c8.4-9.1,13.8-19.2,16.1-30.3c-7.2,7.4-16.8,11.6-28.8,12.7
		c-4.1,0.4-8,0.1-11.4-0.8c-3.5-0.9-6.5-2.4-9.1-4.4c-2.6-2-4.6-4.5-6.1-7.6c-1.5-3-2.5-6.5-2.8-10.4c-0.4-4.7,0.1-9.3,1.4-13.6
		c1.4-4.3,3.4-8.1,6.2-11.5c2.8-3.4,6.1-6.1,10-8.3c3.9-2.1,8.3-3.4,12.9-3.8c9.2-0.8,16.6,1.4,22,6.6c5.4,5.2,8.5,12.6,9.4,22.1
		c1.4,15.9-2.4,30.2-11.3,42.8c-8.9,12.7-23.2,23.8-43,33.5L388.2,187.7z M410.9,142.8c12.3-1.1,22.2-5.8,29.7-14.1
		c0.6-4.6,0.7-9.5,0.3-14.6c-0.8-8.9-3.5-15.7-8.3-20.4c-4.8-4.7-11.5-6.7-20.1-5.9c-4.3,0.4-8.3,1.6-11.9,3.5
		c-3.6,2-6.7,4.5-9.2,7.6c-2.5,3.1-4.4,6.6-5.7,10.6c-1.3,4-1.7,8.2-1.3,12.6c0.6,7.1,3.3,12.5,7.9,16.2
		C397.1,141.9,403.2,143.4,410.9,142.8z"/>
</g>
<g class="st4">
	<path d="M457.5,118.1l14.4,20.3l-19.2,23.2l-2.8,0.2l18.6-23.5l-13.2-20L457.5,118.1z M474,116.6l14.4,20.3l-19.2,23.2l-2.8,0.2
		l18.6-23.5l-13.2-20L474,116.6z"/>
</g>
<g class="st4">
	<path d="M498.8,178.3l11.9-96.7l-13.3,1.2l0.4-2.5l15.8-1.4l-12.2,99.2L498.8,178.3z"/>
</g>
<g class="st4">
	<path d="M562,174.8c-7.2,0.6-13.1-1.7-17.7-6.9c-4.6-5.2-7.4-13.3-8.4-24.2c-0.9-10.1-0.6-19.4,0.8-28c1.4-8.6,3.8-16,7-22.4
		c3.2-6.4,7.2-11.4,12-15.2c4.8-3.8,10-5.9,15.8-6.4c7-0.6,12.8,1.7,17.5,7c4.7,5.2,7.5,13.4,8.5,24.4c0.9,10.1,0.6,19.4-0.9,27.9
		c-1.5,8.5-3.8,16-7.1,22.3s-7.2,11.4-11.9,15.1C572.9,172.2,567.7,174.3,562,174.8z M561.7,172.3c5.3-0.5,10.1-2.5,14.5-6.1
		c4.4-3.6,8.2-8.4,11.2-14.5c3-6.1,5.2-13.2,6.5-21.4c1.3-8.2,1.6-17.2,0.7-26.9c-0.9-10.4-3.4-17.9-7.5-22.7
		c-4.1-4.8-9.3-6.9-15.5-6.3c-5.4,0.5-10.4,2.5-14.9,6.1c-4.5,3.6-8.2,8.5-11.2,14.6c-3,6.1-5.1,13.3-6.4,21.5
		c-1.3,8.2-1.5,17.2-0.6,27c0.9,10.2,3.4,17.7,7.4,22.5C550,170.7,555.3,172.8,561.7,172.3z"/>
</g>
<polyline class="st8" points="364.2,204.1 475.3,194.4 501.9,192.1 602.9,183.2 "/>
<g class="st4">
	<path class="st5" d="M391.9,221.3c0.7,0.3,1.5,0.4,2.4,0.3c1-0.1,1.7-0.4,2.2-0.9c0.5-0.5,0.7-1.2,0.7-1.9c0-0.6-0.3-1.1-0.7-1.5
		c-0.4-0.5-1.2-1-2.3-1.6c-0.6-0.3-1.1-0.6-1.5-0.9c-0.4-0.3-0.7-0.7-1-1c-0.3-0.4-0.5-0.7-0.6-1.1c-0.1-0.4-0.2-0.8-0.3-1.3
		c-0.1-0.8,0-1.5,0.3-2.2c0.3-0.7,0.6-1.3,1.2-1.8c0.5-0.5,1.1-1,1.8-1.3c0.7-0.3,1.5-0.5,2.3-0.6c1.7-0.1,3.2,0.1,4.7,0.6l-0.5,3.7
		c-0.8-0.5-1.5-0.8-2.1-1c-0.6-0.2-1.2-0.3-1.8-0.2c-0.8,0.1-1.4,0.3-1.8,0.8c-0.4,0.5-0.6,1-0.5,1.6c0,0.2,0.1,0.5,0.2,0.7
		s0.3,0.4,0.5,0.6s0.5,0.4,0.9,0.7c0.4,0.2,0.9,0.5,1.4,0.8c1.2,0.6,2,1.3,2.5,2c0.5,0.7,0.8,1.6,0.9,2.7c0.1,0.9,0,1.7-0.3,2.5
		c-0.3,0.8-0.8,1.4-1.4,2c-0.6,0.6-1.3,1-2.2,1.4c-0.8,0.4-1.8,0.6-2.8,0.7c-0.9,0.1-1.8,0.1-2.6,0c-0.8-0.1-1.5-0.4-2.1-0.7l0.2-4
		l0.1,0C390.5,220.6,391.2,221,391.9,221.3z"/>
	<path class="st5" d="M404.6,212.1c0.5-0.4,1.1-0.7,1.8-0.9c0.7-0.2,1.3-0.3,2-0.4c1.5-0.1,2.5,0.1,3.2,0.7c0.7,0.6,1.1,1.5,1.2,2.7
		c0,0.4,0,0.9,0,1.4l-0.8,6.9l-3.3,0.9l0.2-1.3c-0.5,0.4-1.1,0.8-1.7,1.1c-0.6,0.3-1.3,0.5-1.9,0.5c-0.9,0.1-1.6-0.1-2.1-0.5
		c-0.5-0.4-0.8-1-0.9-1.9c-0.1-1,0.2-1.8,0.8-2.6c0.6-0.8,1.5-1.4,2.8-1.9c0.6-0.2,1.2-0.5,1.8-0.6c0.6-0.2,1.3-0.3,2-0.5l0-0.3
		c0-0.2,0-0.4,0-0.6c0-0.4-0.2-0.7-0.5-1c-0.3-0.2-0.7-0.3-1.3-0.3c-0.6,0.1-1.2,0.2-1.9,0.5c-0.7,0.3-1.2,0.7-1.7,1.2L404.6,212.1z
		 M409.3,217.4c-0.4,0.1-0.8,0.2-1.3,0.3s-0.8,0.3-1.1,0.4c-0.6,0.3-1,0.6-1.2,0.9c-0.2,0.3-0.3,0.7-0.3,1.1c0,0.3,0.1,0.6,0.4,0.7
		c0.2,0.2,0.5,0.2,0.9,0.2c0.4,0,0.8-0.2,1.2-0.4c0.4-0.2,0.8-0.6,1.1-1L409.3,217.4z"/>
	<path class="st5" d="M417.5,210.4l0.4-3.4l3.3-0.9l-0.5,4l3.2-0.3l-0.3,2.8l-3.2,0.3l-0.6,5.2c-0.1,0.7-0.1,1.3-0.1,1.7
		c0,0.5,0.2,0.9,0.4,1.2c0.2,0.3,0.6,0.5,1.1,0.8l-0.1,0.2l-3.3,0.6c-0.4-0.2-0.7-0.4-1-0.8s-0.4-0.8-0.5-1.5c0-0.2,0-0.4,0-0.7
		c0-0.3,0-0.5,0.1-0.8l0.7-5.7l-2.2,0.2l0.3-2.8L417.5,210.4z"/>
</g>
<g class="st4">
	<path class="st6" d="M504.8,211.3c0.7,0.3,1.5,0.4,2.4,0.3c1-0.1,1.7-0.4,2.2-0.9c0.5-0.5,0.7-1.2,0.7-1.9c0-0.6-0.3-1.1-0.7-1.5
		s-1.2-1-2.3-1.6c-0.6-0.3-1.1-0.6-1.5-0.9c-0.4-0.3-0.7-0.7-1-1c-0.3-0.4-0.5-0.7-0.6-1.1c-0.1-0.4-0.2-0.8-0.3-1.3
		c-0.1-0.8,0-1.5,0.3-2.2c0.3-0.7,0.6-1.3,1.2-1.8s1.1-1,1.8-1.3c0.7-0.3,1.5-0.5,2.3-0.6c1.7-0.1,3.2,0.1,4.7,0.6l-0.5,3.7
		c-0.8-0.5-1.5-0.8-2.1-1s-1.2-0.3-1.8-0.2c-0.8,0.1-1.4,0.3-1.8,0.8c-0.4,0.5-0.6,1-0.5,1.6c0,0.2,0.1,0.5,0.2,0.7s0.3,0.4,0.5,0.6
		s0.5,0.4,0.9,0.7c0.4,0.2,0.9,0.5,1.4,0.8c1.2,0.6,2,1.3,2.5,2c0.5,0.7,0.8,1.6,0.9,2.7c0.1,0.9,0,1.7-0.3,2.5
		c-0.3,0.8-0.8,1.4-1.4,2c-0.6,0.6-1.3,1-2.2,1.4c-0.8,0.4-1.8,0.6-2.8,0.7c-0.9,0.1-1.8,0.1-2.6-0.1c-0.8-0.1-1.5-0.4-2.1-0.7
		l0.2-4l0.1,0C503.4,210.6,504.1,211,504.8,211.3z"/>
	<path class="st6" d="M520.4,201.3l-0.9,7.2c0,0.1,0,0.3,0,0.4c0,0.1,0,0.2,0,0.3c0,0.5,0.2,0.8,0.5,1c0.3,0.2,0.6,0.3,1.1,0.2
		c0.5,0,1-0.2,1.4-0.5c0.4-0.3,0.8-0.6,1.1-1.1c0.1-0.2,0.2-0.4,0.3-0.6c0.1-0.2,0.1-0.4,0.2-0.7l0.8-6.6l3.3-0.3l-1.5,11.7
		l-3.3,0.9l0.2-1.9c-0.5,0.6-1.1,1.1-1.8,1.5c-0.6,0.4-1.3,0.6-2.1,0.7c-1.1,0.1-1.9-0.1-2.5-0.6c-0.6-0.5-0.9-1.3-1-2.3
		c0-0.4,0-0.9,0-1.3l1-7.7L520.4,201.3z"/>
	<path class="st6" d="M531.6,200.4l3.3-0.3l-0.2,1.5c0.7-0.7,1.4-1.3,2-1.6c0.6-0.3,1.3-0.5,2-0.6c1-0.1,1.9,0.1,2.5,0.7
		c0.6,0.5,0.9,1.3,1,2.3c0,0.2,0,0.4,0,0.6c0,0.2,0,0.4,0,0.7l-1,7.8l-3.3,0.3l0.9-7.1c0-0.3,0-0.5,0-0.8c-0.1-0.9-0.6-1.3-1.6-1.3
		c-0.4,0-0.8,0.2-1.2,0.4c-0.4,0.2-0.7,0.4-0.9,0.7c-0.3,0.3-0.5,0.6-0.6,0.9c-0.1,0.3-0.3,0.7-0.3,1.2l-0.8,6.4l-3.3,0.3
		L531.6,200.4z"/>
</g>
<g class="st4">
	<path d="M322.8,71c1.6-0.7,7.3-3.3,9.2-10.3l-8.1,0.7l0.2-2.7l8.2-0.7l0.4-4.9l2.8-0.2l-0.4,4.5c0,0.1,0,0.3-0.1,0.4l8.6-0.7
		l-0.2,2.7l-8.2,0.7c0.7,5.6,3.8,7.7,7.8,8.9l-1.9,2.9c-1.9-0.7-6.4-2.5-7.8-8.3c-2.8,6.5-7.7,8.9-9.3,9.7L322.8,71z"/>
	<path d="M361.1,57.6l-0.2,2.1c-1.2,1.2-3.3,2.6-5.2,3.6l8.4-0.7l-0.2,2.4l-8.6,0.8l-0.3,3.2c-0.1,1-0.3,2.2-2.2,2.4l-4.1,0.4
		l-0.2-2.6l3.1-0.3c0.7-0.1,0.8-0.2,0.9-0.9l0.2-2l-8.6,0.7l0.2-2.4l8.6-0.7l0.1-1.4l0.9-0.1c0.2-0.1,1.7-0.7,2.7-1.7l-8.5,0.7
		l0.2-2.4L361.1,57.6z M348.1,55c-0.3-0.9-0.5-1.5-1.1-2.4l2.6-1c0.8,1.2,1.1,2.3,1.3,3.1l3.2-0.3c-0.5-1.4-0.8-2-1.1-2.5l2.6-1
		c0.5,1,0.9,1.9,1.2,3.3l2.3-0.2c0.3-0.5,0.7-1.2,1.6-3.5l2.7,0.5c-0.6,1.2-0.9,1.7-1.5,2.7l2.4-0.2l-0.4,5l-2.6,0.2l0.2-2.7
		l-13.7,1.2l-0.2,2.7l-2.6,0.2l0.4-5L348.1,55z"/>
	<path d="M366,64.7l12.8-1.1l0.8-9.1L367,55.6l0.2-2.8l15.5-1.4l-1.3,14.7l-15.7,1.4L366,64.7z"/>
	<path d="M402.8,54.6c-5.4,8.1-12.2,11.4-16.8,12.7l-0.7-2.9c4.4-1.2,10.7-3.9,15.9-12.2L402.8,54.6z M392.1,55.4
		c-1.8-1.2-3.6-1.9-6-2.7l1.5-2.6c2.3,0.6,4.2,1.4,6.2,2.6L392.1,55.4z"/>
	<path d="M408.3,55.7c-1.5-2.6-2.7-4-3.6-5.1l2.3-2c1.6,1.9,2.5,3,3.8,5L408.3,55.7z M421.5,47.5c-1.1,6.4-3.8,14.1-13.4,17.9
		l-2-2.1c9.2-3.3,11.6-10.3,12.4-16L421.5,47.5z"/>
	<path d="M441.1,52.2l-0.2,2.7l-17.7,1.5l0.2-2.7L441.1,52.2z"/>
	<path d="M449.1,53.6c-2-0.8-3.5-1.3-5.9-2l1.3-2.6c1.1,0.3,3,0.7,5.9,1.9L449.1,53.6z M461.3,49.2c-4,5.8-9.3,10.7-16.5,13.2
		l-0.9-2.8c4-1.1,10.1-4.2,15.8-12.7L461.3,49.2z M451.3,48.4c-2.1-0.8-3.4-1.3-5.8-1.9l1.3-2.6c2.1,0.6,3.5,1,5.8,1.9L451.3,48.4z"
		/>
	<path d="M480.1,42.5l1.1,1.4c-0.8,1.3-2.8,4.6-6.1,7.8l-2.1-1.5c1.6-1.5,2.5-2.6,4-4.6l-13.8,1.2l0.2-2.8L480.1,42.5z M472.7,48.2
		c-0.5,5.3-2.3,9.5-7.1,12.5l-2-2c4.4-2.5,5.8-5.7,6.2-10.3L472.7,48.2z"/>
	<path d="M497,57.7c-0.2-0.7-0.5-1.7-1.1-2.9L482,57.9l-0.4-2.7l3-0.7c2-4.2,3.6-7.5,6.4-14.4l2.6,0.7c-2.7,6.6-4.9,11.2-5.8,13
		l7.1-1.5c-1-2-1.9-3.3-2.2-3.9l2.5-1.6c1.7,2.5,3.2,5.2,4.6,9.2L497,57.7z"/>
	<path d="M510.7,38.1c-1.1,9.4-3.4,15.2-7.9,19.7l-1.8-2.2c1.7-1.6,5.9-5.7,7-17.5L510.7,38.1z M518.9,56.5c-3-3.2-5.2-7.7-4.5-18.8
		l2.8-0.4c-0.8,9.1,0.8,13.6,3.9,16.6L518.9,56.5z"/>
	<path d="M524.3,36.9l18.3-1.6l-0.2,2.5l-7.8,0.7l-0.4,5.1l6.9-0.6l-0.2,2.5l-6.9,0.6l-0.5,6l8.5-0.7l-0.2,2.5L522,55.7l0.2-2.5
		l8.4-0.7l0.5-6l-6.8,0.6l0.2-2.5l6.8-0.6l0.4-5.1l-7.8,0.7L524.3,36.9z"/>
	<path d="M546.1,35.1l16.5-1.4l-0.2,2.5c-2.2,1.8-4.5,3.3-7.2,4.7l-0.1,1.2l8.5-0.7l-0.2,2.6l-8.5,0.7l-0.5,5.9
		c-0.2,2.3-0.5,2.9-3,3.1l-4,0.4l-0.1-2.6l3.3-0.3c0.9-0.1,1-0.1,1.1-1.1l0.5-5.2l-8.5,0.7l0.2-2.6l8.5-0.7l0.3-3.2l1.7-0.1
		c1.5-0.8,2.5-1.4,3.7-2.3l-12.1,1.1L546.1,35.1z"/>
</g>
</svg>
