<?xml version="1.0" encoding="utf-8"?>
<!-- Generator: Adobe Illustrator 21.1.0, SVG Export Plug-In . SVG Version: 6.00 Build 0)  -->
<svg version="1.1" id="レイヤー_1" xmlns="http://www.w3.org/2000/svg" xmlns:xlink="http://www.w3.org/1999/xlink" x="0px"
	 y="0px" viewBox="0 0 935.8 276.9" style="enable-background:new 0 0 935.8 276.9;" xml:space="preserve">
<style type="text/css">
	.st0{fill:none;stroke:#000000;stroke-miterlimit:10;}
	.st1{fill:#15858F;}
	.st2{fill:#C54B82;}
</style>
<g>
	<path d="M35.4,221l4.2-34.6l-5.2,0.7l0.6-2.2l7-0.6l-4.5,36.6L35.4,221z"/>
	<path d="M59.3,218.9l4.2-34.6l-5.2,0.7l0.6-2.2l7-0.6l-4.5,36.6L59.3,218.9z"/>
	<path d="M79.3,214.1c0.5,0,0.9,0.1,1.2,0.3c0.3,0.2,0.5,0.6,0.5,1c0.1,0.6-0.1,1.1-0.5,1.5c-0.4,0.4-0.8,0.6-1.4,0.7
		c-0.5,0-0.9-0.1-1.2-0.3c-0.3-0.2-0.5-0.6-0.5-1c-0.1-0.6,0.1-1.1,0.4-1.5C78.2,214.4,78.7,214.1,79.3,214.1z"/>
	<path d="M138.5,176.1L86,180.6l63.1-72.7l0.4,0l-8.1,65.4l10.4-0.9l-0.3,2.5l-10.4,0.9l-4.2,35l-2.6,0.2L138.5,176.1z M138.8,173.5
		l7.2-58.2L92,177.6L138.8,173.5z"/>
	<path d="M165.3,144.5l14.4,20.3L160.5,188l-2.8,0.2l18.6-23.5l-13.2-20L165.3,144.5z M181.8,143l14.4,20.3L177,186.5l-2.8,0.2
		l18.6-23.5l-13.2-20L181.8,143z"/>
	<path d="M265.9,103.8l-45.7,4l-8.9,35.6c1.2-0.3,2.6-0.6,4.3-0.8c1.7-0.3,3.2-0.5,4.6-0.6c6-0.5,11.4-0.3,16,0.6
		c4.6,0.9,8.5,2.5,11.7,4.5c3.2,2.1,5.6,4.7,7.4,7.8c1.8,3.2,2.8,6.7,3.1,10.6c0.5,6.1-0.3,11.7-2.4,16.8
		c-2.1,5.1-5.5,9.5-10.1,13.3c-4.6,3.8-10.5,6.9-17.6,9.4s-15.3,4.1-24.8,4.9c-0.4,0-1,0.1-1.6,0.1c-0.6,0.1-1.2,0.1-1.6,0l0.7-2.7
		c0.4,0,0.9,0.1,1.2,0c0.4,0,0.8-0.1,1.1-0.1c9.1-0.8,17-2.3,23.7-4.6c6.8-2.3,12.3-5.2,16.7-8.8c4.4-3.6,7.6-7.7,9.6-12.5
		c2-4.7,2.8-10,2.3-15.7c-0.3-3.5-1.3-6.7-2.9-9.6c-1.6-2.9-3.9-5.2-6.8-7.1c-2.9-1.9-6.5-3.2-10.7-4.1c-4.2-0.8-9.2-1-14.9-0.5
		c-2.2,0.2-4.2,0.4-6.3,0.7c-2,0.3-4.1,0.7-6.2,1.3l10.1-40.9l48.6-4.2L265.9,103.8z"/>
</g>
<polyline class="st0" points="73.8,229.6 160.1,222 186.7,219.7 273.1,212.1 "/>
<g>
	<path class="st1" d="M76.7,249c0.7,0.3,1.5,0.4,2.4,0.3c1-0.1,1.7-0.4,2.2-0.9c0.5-0.5,0.7-1.2,0.7-1.9c0-0.6-0.3-1.1-0.7-1.5
		s-1.2-1-2.3-1.6c-0.6-0.3-1.1-0.6-1.5-0.9c-0.4-0.3-0.7-0.7-1-1c-0.3-0.4-0.5-0.7-0.6-1.1c-0.1-0.4-0.2-0.8-0.3-1.3
		c-0.1-0.8,0-1.5,0.3-2.2c0.3-0.7,0.6-1.3,1.2-1.8c0.5-0.5,1.1-1,1.8-1.3c0.7-0.3,1.5-0.5,2.3-0.6c1.7-0.1,3.2,0.1,4.7,0.6l-0.5,3.7
		c-0.8-0.5-1.5-0.8-2.1-1c-0.6-0.2-1.2-0.3-1.8-0.2c-0.8,0.1-1.4,0.3-1.8,0.8c-0.4,0.5-0.6,1-0.5,1.6c0,0.2,0.1,0.5,0.2,0.7
		c0.1,0.2,0.3,0.4,0.5,0.6c0.2,0.2,0.5,0.4,0.9,0.7c0.4,0.2,0.9,0.5,1.4,0.8c1.2,0.6,2,1.3,2.5,2c0.5,0.7,0.8,1.6,0.9,2.7
		c0.1,0.9,0,1.7-0.3,2.5c-0.3,0.8-0.8,1.4-1.4,2c-0.6,0.6-1.3,1-2.2,1.4c-0.8,0.4-1.8,0.6-2.8,0.7c-0.9,0.1-1.8,0.1-2.6,0
		c-0.8-0.1-1.5-0.4-2.1-0.7l0.2-4l0.1,0C75.3,248.3,76,248.7,76.7,249z"/>
	<path class="st1" d="M89.4,239.8c0.5-0.4,1.1-0.7,1.8-0.9c0.7-0.2,1.3-0.3,2-0.4c1.5-0.1,2.5,0.1,3.2,0.7c0.7,0.6,1.1,1.5,1.2,2.7
		c0,0.4,0,0.9,0,1.4l-0.8,6.9l-3.3,0.9l0.2-1.3c-0.5,0.4-1.1,0.8-1.7,1.1s-1.3,0.5-1.9,0.5c-0.9,0.1-1.6-0.1-2.1-0.5s-0.8-1-0.9-1.9
		c-0.1-1,0.2-1.8,0.8-2.6c0.6-0.8,1.5-1.4,2.8-1.9c0.6-0.2,1.2-0.5,1.8-0.6c0.7-0.2,1.3-0.3,2-0.5l0-0.3c0-0.2,0-0.4,0-0.6
		c0-0.4-0.2-0.7-0.5-1c-0.3-0.2-0.7-0.3-1.3-0.3c-0.6,0.1-1.2,0.2-1.9,0.5s-1.2,0.7-1.7,1.2L89.4,239.8z M94.2,245.1
		c-0.4,0.1-0.8,0.2-1.3,0.3c-0.4,0.1-0.8,0.3-1.1,0.4c-0.6,0.3-1,0.6-1.2,0.9c-0.2,0.3-0.3,0.7-0.3,1.1c0,0.3,0.1,0.6,0.4,0.7
		c0.2,0.2,0.5,0.2,0.9,0.2c0.4,0,0.8-0.2,1.2-0.4s0.8-0.6,1.1-1L94.2,245.1z"/>
	<path class="st1" d="M102.3,238.1l0.4-3.4l3.3-0.9l-0.5,4l3.2-0.3l-0.3,2.8l-3.2,0.3l-0.6,5.2c-0.1,0.7-0.1,1.3-0.1,1.7
		c0,0.5,0.2,0.9,0.4,1.2c0.2,0.3,0.6,0.5,1.1,0.8l-0.1,0.2l-3.3,0.6c-0.4-0.2-0.7-0.4-1-0.8c-0.3-0.3-0.4-0.8-0.5-1.5
		c0-0.2,0-0.4,0-0.7c0-0.3,0-0.5,0.1-0.8l0.7-5.7l-2.2,0.2l0.3-2.8L102.3,238.1z"/>
</g>
<g>
	<path class="st2" d="M189.7,239c0.7,0.3,1.5,0.4,2.4,0.3c1-0.1,1.7-0.4,2.2-0.9c0.5-0.5,0.7-1.2,0.7-1.9c0-0.6-0.3-1.1-0.7-1.5
		s-1.2-1-2.3-1.6c-0.6-0.3-1.1-0.6-1.5-0.9c-0.4-0.3-0.7-0.7-1-1c-0.3-0.4-0.5-0.7-0.6-1.1c-0.1-0.4-0.2-0.8-0.3-1.3
		c-0.1-0.8,0-1.5,0.3-2.2c0.3-0.7,0.6-1.3,1.2-1.8s1.1-1,1.8-1.3s1.5-0.5,2.3-0.6c1.7-0.1,3.2,0.1,4.7,0.6l-0.5,3.7
		c-0.8-0.5-1.5-0.8-2.1-1c-0.6-0.2-1.2-0.3-1.8-0.2c-0.8,0.1-1.4,0.3-1.8,0.8c-0.4,0.5-0.6,1-0.5,1.6c0,0.2,0.1,0.5,0.2,0.7
		c0.1,0.2,0.3,0.4,0.5,0.6c0.2,0.2,0.5,0.4,0.9,0.7c0.4,0.2,0.9,0.5,1.4,0.8c1.2,0.6,2,1.3,2.5,2c0.5,0.7,0.8,1.6,0.9,2.7
		c0.1,0.9,0,1.7-0.3,2.5c-0.3,0.8-0.8,1.4-1.4,2c-0.6,0.6-1.3,1-2.2,1.4c-0.8,0.4-1.8,0.6-2.8,0.7c-0.9,0.1-1.8,0.1-2.6-0.1
		c-0.8-0.1-1.5-0.4-2.1-0.7l0.2-4l0.1,0C188.2,238.3,189,238.7,189.7,239z"/>
	<path class="st2" d="M205.2,229l-0.9,7.2c0,0.1,0,0.3,0,0.4c0,0.1,0,0.2,0,0.3c0,0.5,0.2,0.8,0.5,1s0.6,0.3,1.1,0.2
		c0.5,0,1-0.2,1.4-0.5c0.4-0.3,0.8-0.6,1.1-1.1c0.1-0.2,0.2-0.4,0.3-0.6c0.1-0.2,0.1-0.4,0.2-0.7l0.8-6.6l3.3-0.3l-1.5,11.7
		l-3.3,0.9l0.2-1.9c-0.5,0.6-1.1,1.1-1.8,1.5s-1.3,0.6-2.1,0.7c-1.1,0.1-1.9-0.1-2.5-0.6c-0.6-0.5-0.9-1.3-1-2.3c0-0.4,0-0.9,0-1.3
		l1-7.7L205.2,229z"/>
	<path class="st2" d="M216.5,228.1l3.3-0.3l-0.2,1.5c0.7-0.7,1.4-1.3,2-1.6c0.6-0.3,1.3-0.5,2-0.6c1-0.1,1.9,0.1,2.5,0.7
		c0.6,0.5,0.9,1.3,1,2.3c0,0.2,0,0.4,0,0.6c0,0.2,0,0.4,0,0.7l-1,7.8l-3.3,0.3l0.9-7.1c0-0.3,0-0.5,0-0.8c-0.1-0.9-0.6-1.3-1.6-1.3
		c-0.4,0-0.8,0.2-1.2,0.4s-0.7,0.4-0.9,0.7c-0.3,0.3-0.5,0.6-0.6,0.9c-0.2,0.3-0.3,0.7-0.3,1.2l-0.8,6.4l-3.3,0.3L216.5,228.1z"/>
</g>
<g>
	<path d="M37.4,99.1c-0.6-0.5-1-0.8-1.8-1.3c-1.9,0.4-9.4,1.6-14.5,2l-0.4-2.3c0.5,0,3.3-0.3,3.9-0.4c0.4-0.8,0.7-1.3,0.9-1.7L20,96
		l-0.2-2.2l8.6-0.8l-0.1-1.3l2.6-0.2l0.1,1.3l8.6-0.8l0.2,2.2l-4.6,0.4c1.5,0.7,3,1.5,4.3,2.6L37.4,99.1z M38.7,108.7
		c0.1,1.7-1,2.1-1.8,2.2l-3.9,0.3l-0.7-2.3l3.2-0.3c0.4,0,0.6-0.1,0.5-0.5l-0.1-0.9l-9.9,0.9l0.3,3.8l-2.6,0.2l-1-11.6l15.1-1.3
		L38.7,108.7z M35.4,101.2l-9.9,0.9l0.1,1.2l9.9-0.9L35.4,101.2z M35.7,104.1l-9.9,0.9l0.1,1.2l9.9-0.9L35.7,104.1z M33.1,94.8
		l-4.6,0.4c-0.6,1-0.6,1.1-0.9,1.6c1.8-0.2,3.4-0.4,5.2-0.7c-0.3-0.1-0.4-0.2-1.1-0.5L33.1,94.8z"/>
	<path d="M45.3,90.2l2.5-0.2l0.1,1.5l6.3-0.6l-0.1-1.5l2.5-0.2l0.1,1.5l4.1-0.4l0.2,2.4L57,93.1l0.1,1.3l-2.5,0.2l-0.1-1.3l-6.3,0.6
		l0.1,1.3l-2.5,0.2l-0.1-1.3l-4.1,0.4L41.3,92l4.1-0.4L45.3,90.2z M42.4,107.8c1.2-0.4,3.6-1.1,5.9-2.7c0.4-0.3,0.8-0.7,1.1-1.1
		l-7.1,0.6l-0.2-2.4l2.2-0.2l-0.5-5.8l6.4-0.6L50,94.4l2.6-0.2l0.1,1.3l6.3-0.6l0.5,5.8l2.2-0.2l0.2,2.4l-7.3,0.6
		c2.2,2.2,5.9,2.4,7.8,2.4l-1.2,2.8c-5.7-0.4-8.5-3.6-9.2-4.6c-1.4,2.8-4.1,4.9-8,6.3L42.4,107.8z M50.4,97.9l-3.9,0.3l0.3,3.5
		l3.7-0.3c0.1-0.4,0.1-1.4,0-2.5L50.4,97.9z M53,98c0.1,1.3,0.2,2.5,0,3.2l4.1-0.4l-0.3-3.5l-3.8,0.3L53,98z"/>
	<path d="M67,91.8c0.3,0.2,1.1,0.6,2,1.4c0.7-0.9,0.8-1.3,1.1-1.9l-3.3,0.3c-1.2,1.4-2.3,2.2-3,2.8l-1.1-2c1.4-0.9,2.8-2.4,3.6-4.1
		l2.5,0.2c-0.1,0.3-0.2,0.6-0.4,1l4.1-0.4l1.5-0.5c0.3,0.5,0.7,1,1.3,1.9l-0.1-1.6l6.9-0.6l0.2,2.1c-0.7,1.6-1.7,2.9-2.4,3.9
		c1.3,0.6,2.4,1,3.4,1.3L81.8,98c-0.7-0.2-1.8-0.6-3.4-1.5l0.1,1.1l-10.5,0.9l-0.1-1c-1.5,1.1-2.6,1.7-3.5,2.2L63,97.6
		c0.7-0.3,1.6-0.6,2.9-1.5c-0.7-0.6-1.2-1-1.6-1.3l1-1.1c0.3,0.2,1,0.6,1.9,1.4c0.2-0.2,0.4-0.4,0.7-0.7c-0.1-0.1-0.8-0.8-1.8-1.5
		L67,91.8z M70.2,103.5c-1.6,2.6-3.8,4.1-4.4,4.6l-1.8-1.9c1.7-1.1,2.8-2.2,4.1-3.8L70.2,103.5z M82.6,101l-7.8,0.7l0.3,3.8
		c0.1,1.5-0.8,2-1.8,2.1l-3.5,0.3l-0.7-2.4l2.6-0.2c0.1,0,0.5,0,0.5-0.5l-0.2-2.8l-7.7,0.7l-0.2-2.3l18.1-1.6L82.6,101z M76.8,95.5
		c-0.5-0.4-2.5-1.7-4.2-4.1c-1,2.5-2.4,4-3.1,4.8L76.8,95.5z M75.4,90.9c1.1,1.2,1.8,1.8,2.3,2.1c0.7-1,1.1-1.6,1.5-2.4L75.4,90.9z
		 M82.3,106.7c-0.7-0.3-3.5-1.5-5.6-3.8l2.1-1.4c1.5,1.3,3.3,2.3,5,3L82.3,106.7z"/>
	<path d="M92.6,89.5l-0.3-3.4l2.7-0.2l0.3,3.4l7.8-0.7l0.9,10.6l-7.8,0.7l0.5,5.7l-2.7,0.2l-0.5-5.7l-7.7,0.7l-0.9-10.6L92.6,89.5z
		 M92.8,92.1l-5,0.4l0.5,5.5l5-0.4L92.8,92.1z M100.6,91.4l-5.1,0.4l0.5,5.5l5.1-0.4L100.6,91.4z"/>
	<path d="M105.9,85.7l8.2-0.7l0.7,7.8l-5.8,0.5l1,11.1l-2.5,0.2L105.9,85.7z M108.5,87.4l0.1,1.2l3.3-0.3l-0.1-1.2L108.5,87.4z
		 M108.7,90.2l0.1,1.2l3.3-0.3l-0.1-1.2L108.7,90.2z M121.2,100.9l1.4-0.1c0.5,0,0.5-0.4,0.5-0.7l-0.7-8l-6,0.5l-0.7-7.8l8.5-0.7
		l1.5,16.9c0.1,0.8,0,2.1-1.4,2.2l-3.6,0.3l-0.5-2l-8.5,0.7l-0.7-7.9l9.6-0.8L121.2,100.9z M113.5,96l0.1,1.2l4.9-0.4l-0.1-1.2
		L113.5,96z M113.8,98.8l0.1,1.3l4.9-0.4l-0.1-1.3L113.8,98.8z M118.3,86.6l0.1,1.2l3.6-0.3l-0.1-1.2L118.3,86.6z M118.5,89.3
		l0.1,1.2l3.6-0.3l-0.1-1.2L118.5,89.3z"/>
	<path d="M139.8,84.6l2.9,2.8c-0.3,3.3-1.3,9.8-8.9,14.1l-2.1-2.2c7.3-3.8,7.8-9.9,8-12l-12.1,1.1l-0.2-2.7L139.8,84.6z M146.5,83.5
		c0.1,1.6-1,3-2.6,3.1c-1.6,0.1-3-1-3.1-2.6c-0.1-1.6,1-3,2.6-3.1C145,80.8,146.4,81.9,146.5,83.5z M142.2,83.9
		c0.1,0.8,0.8,1.4,1.6,1.4c0.8-0.1,1.4-0.8,1.4-1.6c-0.1-0.8-0.8-1.4-1.6-1.4C142.7,82.4,142.1,83.1,142.2,83.9z"/>
	<path d="M152.2,81.9l1.2,14.1c2.1-0.8,6.5-2.7,10-8.2l2.1,1.8c-4.2,6.8-10.2,9.1-14.7,10.2l-1.5-17.5L152.2,81.9z"/>
	<path d="M171.4,79.9l2.8-0.2l0.4,4.7l8.9-1.3l1.3,1.4c-1.3,2.7-2.6,4.7-4.3,6.9l-2.3-1.4c1.2-1.5,1.6-2.1,2.7-3.9l-6,0.9l0.5,5.9
		c0.1,1.7,0.7,1.6,3.7,1.4c2.9-0.3,5-0.6,5.9-0.8l0.1,2.9c-2.5,0.4-4.6,0.6-5.9,0.7c-3.8,0.3-6.2,0.2-6.5-3.4l-0.5-6.2l-4.7,0.7
		l-0.4-2.7l4.8-0.7L171.4,79.9z M180.4,78c1,1.1,1.7,2.1,2.5,3.6l-1.5,1c-0.8-1.6-1.3-2.4-2.4-3.7L180.4,78z M183.8,77.4
		c1,1.2,1.5,2.1,2.4,3.7l-1.5,1c-0.8-1.6-1.3-2.5-2.3-3.8L183.8,77.4z"/>
	<path d="M194.8,84.7c-2.1-1.1-4-1.9-6.6-2.6l1.1-2.6c2.5,0.6,4.5,1.4,6.8,2.5L194.8,84.7z M205.4,83.9c-4,7.9-10.4,11.2-14.8,12.5
		l-1.2-2.8c4.2-1.2,10.2-3.8,14-12L205.4,83.9z"/>
</g>
<g>
	<path d="M699.6,134.2c0.1,1.1,0,2.3-0.3,3.3c-0.3,1.1-0.8,2.1-1.4,3s-1.5,1.8-2.4,2.6c-1,0.8-2.1,1.4-3.3,1.9
		c1.9,0.5,3.4,1.3,4.4,2.5c1,1.2,1.6,2.6,1.8,4.3c0.2,1.8-0.1,3.4-0.8,4.9c-0.7,1.5-1.6,2.8-2.9,4c-1.3,1.2-2.8,2.1-4.6,2.8
		c-1.8,0.7-3.8,1.2-6,1.4c-1.6,0.1-3,0.1-4.2,0s-2.2-0.5-3.1-0.9l0.2-2.2c1,0.5,2,0.8,3.1,1c1.1,0.2,2.3,0.2,3.8,0.1
		c1.9-0.2,3.7-0.6,5.3-1.2c1.6-0.6,2.9-1.4,4-2.4c1.1-1,1.9-2.1,2.4-3.3c0.5-1.2,0.7-2.5,0.6-3.9c-0.2-1.9-1-3.3-2.5-4.4
		c-1.5-1-3.7-1.4-6.6-1.2c-2.4,0.2-4.5,0.5-6.3,1l0.8-2.7c0.6,0,1.2,0,1.9,0c0.7,0,1.4-0.1,2.1-0.2c1.8-0.2,3.5-0.5,5-1.1
		c1.5-0.5,2.8-1.3,3.8-2.1c1-0.9,1.8-1.9,2.4-3.1s0.7-2.5,0.6-4c-0.1-1.7-0.8-3-2.1-4c-1.2-1-3.1-1.4-5.5-1.2
		c-1.5,0.1-2.8,0.4-3.9,0.7c-1.1,0.3-2.2,0.9-3.4,1.6l0.9-2.9c0.9-0.4,1.8-0.8,2.9-1s2.1-0.4,3.3-0.5c1.5-0.1,2.9,0,4.1,0.3
		c1.2,0.3,2.2,0.8,3,1.5c0.8,0.7,1.5,1.5,1.9,2.4C699.2,132,699.5,133,699.6,134.2z"/>
	<path d="M706.7,159.2c0.5,0,0.9,0.1,1.2,0.3c0.3,0.2,0.5,0.6,0.5,1c0.1,0.6-0.1,1.1-0.5,1.5c-0.4,0.4-0.8,0.6-1.4,0.7
		c-0.5,0-0.9-0.1-1.2-0.3c-0.3-0.2-0.5-0.6-0.5-1c-0.1-0.6,0.1-1.1,0.4-1.5C705.6,159.5,706.1,159.2,706.7,159.2z"/>
	<path d="M765.9,121.2l-52.4,4.6L776.5,53l0.4,0l-8.1,65.4l10.4-0.9l-0.3,2.5l-10.4,0.9l-4.2,35l-2.6,0.2L765.9,121.2z M766.2,118.7
		l7.2-58.2l-53.9,62.3L766.2,118.7z"/>
	<path d="M792.7,89.6l14.4,20.3l-19.2,23.2l-2.8,0.2l18.6-23.5l-13.2-20L792.7,89.6z M809.2,88.2l14.4,20.3l-19.2,23.2l-2.8,0.2
		l18.6-23.5l-13.2-20L809.2,88.2z"/>
	<path d="M893.3,48.9l-45.7,4l-8.9,35.6c1.2-0.3,2.6-0.6,4.3-0.8c1.7-0.3,3.2-0.5,4.6-0.6c6-0.5,11.4-0.3,16,0.6
		c4.6,0.9,8.5,2.5,11.7,4.5c3.2,2.1,5.6,4.7,7.4,7.8c1.8,3.2,2.8,6.7,3.1,10.6c0.5,6.1-0.3,11.7-2.4,16.8
		c-2.1,5.1-5.5,9.5-10.1,13.3c-4.6,3.8-10.5,6.9-17.6,9.4s-15.3,4.1-24.8,4.9c-0.4,0-1,0.1-1.6,0.1c-0.6,0.1-1.2,0.1-1.6,0l0.7-2.7
		c0.4,0,0.9,0.1,1.2,0c0.4,0,0.8-0.1,1.1-0.1c9.1-0.8,17-2.3,23.7-4.6c6.8-2.3,12.3-5.2,16.7-8.8c4.4-3.6,7.6-7.7,9.6-12.5
		c2-4.7,2.8-10,2.3-15.7c-0.3-3.5-1.3-6.7-2.9-9.6c-1.6-2.9-3.9-5.2-6.8-7.1c-2.9-1.9-6.5-3.2-10.7-4.1c-4.2-0.8-9.2-1-14.9-0.5
		c-2.2,0.2-4.2,0.4-6.3,0.7c-2,0.3-4.1,0.7-6.2,1.3l10.1-40.9l48.6-4.2L893.3,48.9z"/>
</g>
<polyline class="st0" points="701.2,174.7 787.5,167.1 814.1,164.8 900.5,157.3 "/>
<g>
	<path class="st1" d="M704.1,194.1c0.7,0.3,1.5,0.4,2.4,0.3c1-0.1,1.7-0.4,2.2-0.9c0.5-0.5,0.7-1.2,0.7-1.9c0-0.6-0.3-1.1-0.7-1.5
		c-0.4-0.5-1.2-1-2.3-1.6c-0.6-0.3-1.1-0.6-1.5-0.9c-0.4-0.3-0.7-0.7-1-1c-0.3-0.4-0.5-0.7-0.6-1.1c-0.1-0.4-0.2-0.8-0.3-1.3
		c-0.1-0.8,0-1.5,0.3-2.2c0.3-0.7,0.6-1.3,1.2-1.8c0.5-0.5,1.1-1,1.8-1.3c0.7-0.3,1.5-0.5,2.3-0.6c1.7-0.1,3.2,0.1,4.7,0.6l-0.5,3.7
		c-0.8-0.5-1.5-0.8-2.1-1c-0.6-0.2-1.2-0.3-1.8-0.2c-0.8,0.1-1.4,0.3-1.8,0.8c-0.4,0.5-0.6,1-0.5,1.6c0,0.2,0.1,0.5,0.2,0.7
		c0.1,0.2,0.3,0.4,0.5,0.6c0.2,0.2,0.5,0.4,0.9,0.7c0.4,0.2,0.9,0.5,1.4,0.8c1.2,0.6,2,1.3,2.5,2c0.5,0.7,0.8,1.6,0.9,2.7
		c0.1,0.9,0,1.7-0.3,2.5c-0.3,0.8-0.8,1.4-1.4,2c-0.6,0.6-1.3,1-2.2,1.4c-0.8,0.4-1.8,0.6-2.8,0.7c-0.9,0.1-1.8,0.1-2.6-0.1
		c-0.8-0.1-1.5-0.4-2.1-0.7l0.2-4l0.1,0C702.7,193.4,703.4,193.8,704.1,194.1z"/>
	<path class="st1" d="M716.8,184.9c0.5-0.4,1.1-0.7,1.8-0.9c0.7-0.2,1.3-0.3,2-0.4c1.5-0.1,2.5,0.1,3.2,0.7c0.7,0.6,1.1,1.5,1.2,2.7
		c0,0.4,0,0.9,0,1.4l-0.8,6.9l-3.3,0.9l0.2-1.3c-0.5,0.4-1.1,0.8-1.7,1.1s-1.3,0.5-1.9,0.5c-0.9,0.1-1.6-0.1-2.1-0.5
		c-0.5-0.4-0.8-1-0.9-1.9c-0.1-1,0.2-1.8,0.8-2.6c0.6-0.8,1.5-1.4,2.8-1.9c0.6-0.2,1.2-0.5,1.8-0.6s1.3-0.3,2-0.5l0-0.3
		c0-0.2,0-0.4,0-0.6c0-0.4-0.2-0.7-0.5-1s-0.7-0.3-1.3-0.3c-0.6,0.1-1.2,0.2-1.9,0.5s-1.2,0.7-1.7,1.2L716.8,184.9z M721.6,190.2
		c-0.4,0.1-0.8,0.2-1.3,0.3c-0.4,0.1-0.8,0.3-1.1,0.4c-0.6,0.3-1,0.6-1.2,0.9c-0.2,0.3-0.3,0.7-0.3,1.1c0,0.3,0.1,0.6,0.4,0.7
		c0.2,0.2,0.5,0.2,0.9,0.2c0.4,0,0.8-0.2,1.2-0.4c0.4-0.2,0.8-0.6,1.1-1L721.6,190.2z"/>
	<path class="st1" d="M729.7,183.2l0.4-3.4l3.3-0.9l-0.5,4l3.2-0.3l-0.3,2.8l-3.2,0.3l-0.6,5.2c-0.1,0.7-0.1,1.3-0.1,1.7
		c0,0.5,0.2,0.9,0.4,1.2c0.2,0.3,0.6,0.5,1.1,0.8l-0.1,0.2l-3.3,0.6c-0.4-0.2-0.7-0.4-1-0.8s-0.4-0.8-0.5-1.5c0-0.2,0-0.4,0-0.7
		c0-0.3,0-0.5,0.1-0.8l0.7-5.7l-2.2,0.2l0.3-2.8L729.7,183.2z"/>
</g>
<g>
	<path class="st2" d="M817.1,184.1c0.7,0.3,1.5,0.4,2.4,0.3c1-0.1,1.7-0.4,2.2-0.9c0.5-0.5,0.7-1.2,0.7-1.9c0-0.6-0.3-1.1-0.7-1.5
		c-0.4-0.5-1.2-1-2.3-1.6c-0.6-0.3-1.1-0.6-1.5-0.9c-0.4-0.3-0.7-0.7-1-1c-0.3-0.4-0.5-0.7-0.6-1.1c-0.1-0.4-0.2-0.8-0.3-1.3
		c-0.1-0.8,0-1.5,0.3-2.2c0.3-0.7,0.6-1.3,1.2-1.8c0.5-0.5,1.1-1,1.8-1.3c0.7-0.3,1.5-0.5,2.3-0.6c1.7-0.1,3.2,0.1,4.7,0.6l-0.5,3.7
		c-0.8-0.5-1.5-0.8-2.1-1c-0.6-0.2-1.2-0.3-1.8-0.2c-0.8,0.1-1.4,0.3-1.8,0.8c-0.4,0.5-0.6,1-0.5,1.6c0,0.2,0.1,0.5,0.2,0.7
		c0.1,0.2,0.3,0.4,0.5,0.6c0.2,0.2,0.5,0.4,0.9,0.7c0.4,0.2,0.9,0.5,1.4,0.8c1.2,0.6,2,1.3,2.5,2c0.5,0.7,0.8,1.6,0.9,2.7
		c0.1,0.9,0,1.7-0.3,2.5c-0.3,0.8-0.8,1.4-1.4,2c-0.6,0.6-1.3,1-2.2,1.4c-0.8,0.4-1.8,0.6-2.8,0.7c-0.9,0.1-1.8,0.1-2.6,0
		c-0.8-0.1-1.5-0.4-2.1-0.7l0.2-4l0.1,0C815.6,183.4,816.4,183.8,817.1,184.1z"/>
	<path class="st2" d="M832.6,174.1l-0.9,7.2c0,0.1,0,0.3,0,0.4c0,0.1,0,0.2,0,0.3c0,0.5,0.2,0.8,0.5,1c0.3,0.2,0.6,0.3,1.1,0.2
		c0.5,0,1-0.2,1.4-0.5c0.4-0.3,0.8-0.6,1.1-1.1c0.1-0.2,0.2-0.4,0.3-0.6c0.1-0.2,0.1-0.4,0.2-0.7l0.8-6.6l3.3-0.3l-1.5,11.7
		l-3.3,0.9l0.2-1.9c-0.5,0.6-1.1,1.1-1.8,1.5c-0.6,0.4-1.3,0.6-2.1,0.7c-1.1,0.1-1.9-0.1-2.5-0.6c-0.6-0.5-0.9-1.3-1-2.3
		c0-0.4,0-0.9,0-1.3l1-7.7L832.6,174.1z"/>
	<path class="st2" d="M843.8,173.2l3.3-0.3l-0.2,1.5c0.7-0.7,1.4-1.3,2-1.6c0.6-0.3,1.3-0.5,2-0.6c1-0.1,1.9,0.1,2.5,0.7
		c0.6,0.5,0.9,1.3,1,2.3c0,0.2,0,0.4,0,0.6s0,0.4,0,0.7l-1,7.8l-3.3,0.3l0.9-7.1c0-0.3,0-0.5,0-0.8c-0.1-0.9-0.6-1.3-1.6-1.3
		c-0.4,0-0.8,0.2-1.2,0.4c-0.4,0.2-0.7,0.4-0.9,0.7c-0.3,0.3-0.5,0.6-0.6,0.9c-0.2,0.3-0.3,0.7-0.3,1.2l-0.8,6.4l-3.3,0.3
		L843.8,173.2z"/>
</g>
<g>
	<path d="M664.8,44.2c-0.6-0.5-1-0.8-1.8-1.3c-1.9,0.4-9.4,1.6-14.5,2l-0.4-2.3c0.5,0,3.3-0.3,3.9-0.4c0.4-0.8,0.7-1.3,0.9-1.7
		l-5.5,0.5l-0.2-2.2l8.6-0.8l-0.1-1.3l2.6-0.2l0.1,1.3l8.6-0.8l0.2,2.2l-4.6,0.4c1.5,0.7,3,1.5,4.3,2.6L664.8,44.2z M666.1,53.8
		c0.1,1.7-1,2.1-1.8,2.2l-3.9,0.3l-0.7-2.3l3.2-0.3c0.4,0,0.6-0.1,0.5-0.5l-0.1-0.9l-9.9,0.9l0.3,3.8l-2.6,0.2l-1-11.6l15.1-1.3
		L666.1,53.8z M662.8,46.3l-9.9,0.9l0.1,1.2l9.9-0.9L662.8,46.3z M663.1,49.3l-9.9,0.9l0.1,1.2l9.9-0.9L663.1,49.3z M660.5,40
		l-4.6,0.4c-0.6,1-0.6,1.1-0.9,1.6c1.8-0.2,3.4-0.4,5.2-0.7c-0.3-0.1-0.4-0.2-1.1-0.5L660.5,40z"/>
	<path d="M672.7,35.3l2.5-0.2l0.1,1.5l6.3-0.6l-0.1-1.5l2.5-0.2l0.1,1.5l4.1-0.4l0.2,2.4l-4.1,0.4l0.1,1.3l-2.5,0.2l-0.1-1.3
		l-6.3,0.6l0.1,1.3l-2.5,0.2l-0.1-1.3l-4.1,0.4l-0.2-2.4l4.1-0.4L672.7,35.3z M669.8,52.9c1.2-0.4,3.6-1.1,5.9-2.7
		c0.4-0.3,0.8-0.7,1.1-1.1l-7.1,0.6l-0.2-2.4l2.2-0.2l-0.5-5.8l6.4-0.6l-0.1-1.3l2.6-0.2l0.1,1.3l6.3-0.6l0.5,5.8l2.2-0.2l0.2,2.4
		l-7.3,0.6c2.2,2.2,5.9,2.4,7.8,2.4l-1.2,2.8c-5.7-0.4-8.5-3.6-9.2-4.6c-1.4,2.8-4.1,4.9-8,6.3L669.8,52.9z M677.7,43l-3.9,0.3
		l0.3,3.5l3.7-0.3c0.1-0.4,0.1-1.4,0-2.5L677.7,43z M680.4,43.1c0.1,1.3,0.2,2.5,0,3.2l4.1-0.4l-0.3-3.5l-3.8,0.3L680.4,43.1z"/>
	<path d="M694.4,36.9c0.3,0.2,1.1,0.6,2,1.4c0.7-0.9,0.8-1.3,1.1-1.9l-3.3,0.3c-1.2,1.4-2.3,2.2-3,2.8l-1.1-2
		c1.4-0.9,2.8-2.4,3.6-4.1l2.5,0.2c-0.1,0.3-0.2,0.6-0.4,1l4.1-0.4l1.5-0.5c0.3,0.5,0.7,1,1.3,1.9l-0.1-1.6l6.9-0.6l0.2,2.1
		c-0.7,1.6-1.7,2.9-2.4,3.9c1.3,0.6,2.4,1,3.4,1.3l-1.3,2.5c-0.7-0.2-1.8-0.6-3.4-1.5l0.1,1.1l-10.5,0.9l-0.1-1
		c-1.5,1.1-2.6,1.7-3.5,2.2l-1.5-2.1c0.7-0.3,1.6-0.6,2.9-1.5c-0.7-0.6-1.2-1-1.6-1.3l1-1.1c0.3,0.2,1,0.6,1.9,1.4
		c0.2-0.2,0.4-0.4,0.7-0.7c-0.1-0.1-0.8-0.8-1.8-1.5L694.4,36.9z M697.6,48.7c-1.6,2.6-3.8,4.1-4.4,4.6l-1.8-1.9
		c1.7-1.1,2.8-2.2,4.1-3.8L697.6,48.7z M710,46.2l-7.8,0.7l0.3,3.8c0.1,1.5-0.8,2-1.8,2.1l-3.5,0.3l-0.7-2.4l2.6-0.2
		c0.1,0,0.5,0,0.5-0.5l-0.2-2.8l-7.7,0.7l-0.2-2.3l18.1-1.6L710,46.2z M704.2,40.6c-0.5-0.4-2.5-1.7-4.2-4.1c-1,2.5-2.4,4-3.1,4.8
		L704.2,40.6z M702.8,36c1.1,1.2,1.8,1.8,2.3,2.1c0.7-1,1.1-1.6,1.5-2.4L702.8,36z M709.7,51.8c-0.7-0.3-3.5-1.5-5.6-3.8l2.1-1.4
		c1.5,1.3,3.3,2.3,5,3L709.7,51.8z"/>
	<path d="M720,34.7l-0.3-3.4l2.7-0.2l0.3,3.4l7.8-0.7l0.9,10.6l-7.8,0.7l0.5,5.7l-2.7,0.2l-0.5-5.7l-7.7,0.7l-0.9-10.6L720,34.7z
		 M720.2,37.2l-5,0.4l0.5,5.5l5-0.4L720.2,37.2z M728,36.5l-5.1,0.4l0.5,5.5l5.1-0.4L728,36.5z"/>
	<path d="M733.3,30.8l8.2-0.7l0.7,7.8l-5.8,0.5l1,11.1l-2.5,0.2L733.3,30.8z M735.9,32.5l0.1,1.2l3.3-0.3l-0.1-1.2L735.9,32.5z
		 M736.1,35.3l0.1,1.2l3.3-0.3l-0.1-1.2L736.1,35.3z M748.6,46.1l1.4-0.1c0.5,0,0.5-0.4,0.5-0.7l-0.7-8l-6,0.5l-0.7-7.8l8.5-0.7
		l1.5,16.9c0.1,0.8,0,2.1-1.4,2.2l-3.6,0.3l-0.5-2l-8.5,0.7l-0.7-7.9l9.6-0.8L748.6,46.1z M740.9,41.1l0.1,1.2l4.9-0.4l-0.1-1.2
		L740.9,41.1z M741.2,43.9l0.1,1.3l4.9-0.4l-0.1-1.3L741.2,43.9z M745.7,31.7l0.1,1.2l3.6-0.3l-0.1-1.2L745.7,31.7z M745.9,34.5
		l0.1,1.2l3.6-0.3l-0.1-1.2L745.9,34.5z"/>
	<path d="M767.2,29.7l2.9,2.8c-0.3,3.3-1.3,9.8-8.9,14.1l-2.1-2.2c7.3-3.8,7.8-9.9,8-12L755,33.5l-0.2-2.7L767.2,29.7z M773.9,28.6
		c0.1,1.6-1,3-2.6,3.1c-1.6,0.1-3-1-3.1-2.6c-0.1-1.6,1-3,2.6-3.1C772.4,25.9,773.8,27,773.9,28.6z M769.6,29
		c0.1,0.8,0.8,1.4,1.6,1.4c0.8-0.1,1.4-0.8,1.4-1.6c-0.1-0.8-0.8-1.4-1.6-1.4C770.1,27.5,769.5,28.2,769.6,29z"/>
	<path d="M779.6,27.1l1.2,14.1c2.1-0.8,6.5-2.7,10-8.2l2.1,1.8c-4.2,6.8-10.2,9.1-14.7,10.2l-1.5-17.5L779.6,27.1z"/>
	<path d="M798.8,25l2.8-0.2l0.4,4.7l8.9-1.3l1.3,1.4c-1.3,2.7-2.6,4.7-4.3,6.9l-2.3-1.4c1.2-1.5,1.6-2.1,2.7-3.9l-6,0.9l0.5,5.9
		c0.1,1.7,0.7,1.6,3.7,1.4c2.9-0.3,5-0.6,5.9-0.8l0.1,2.9c-2.5,0.4-4.6,0.6-5.9,0.7c-3.8,0.3-6.2,0.2-6.5-3.4l-0.5-6.2l-4.7,0.7
		l-0.4-2.7l4.8-0.7L798.8,25z M807.8,23.1c1,1.1,1.7,2.1,2.5,3.6l-1.5,1c-0.8-1.6-1.3-2.4-2.4-3.7L807.8,23.1z M811.2,22.5
		c1,1.2,1.5,2.1,2.4,3.7l-1.5,1c-0.8-1.6-1.3-2.5-2.3-3.8L811.2,22.5z"/>
	<path d="M822.2,29.8c-2.1-1.1-4-1.9-6.6-2.6l1.1-2.6c2.5,0.6,4.5,1.4,6.8,2.5L822.2,29.8z M832.8,29c-4,7.9-10.4,11.2-14.8,12.5
		l-1.2-2.8c4.2-1.2,10.2-3.8,14-12L832.8,29z"/>
</g>
<g>
	<path d="M325,194.9l4.2-34.6l-5.2,0.7l0.6-2.2l7-0.6l-4.5,36.6L325,194.9z"/>
	<path d="M348.6,156.6c1.5-0.6,3.1-0.9,4.7-1c1.5-0.1,2.9,0,4.1,0.3c1.2,0.3,2.2,0.8,3,1.5c0.8,0.7,1.5,1.5,1.9,2.5
		c0.5,1,0.8,2,0.9,3.2c0.1,1.1,0.1,2.2-0.1,3.2c-0.2,1-0.5,2-1,3.1c-0.5,1-1.2,2.1-2.1,3.3c-0.9,1.2-1.9,2.5-3.2,3.9
		c-0.9,1-2,2.2-3.3,3.6c-1.3,1.3-2.6,2.7-4,4.1c-1.4,1.4-2.8,2.7-4.1,4c-1.4,1.3-2.6,2.4-3.7,3.3l19.2-1.7l-0.5,2.1l-22.4,2l0.2-1.7
		c1-0.8,2.2-1.9,3.7-3.2c1.5-1.3,3-2.8,4.6-4.4c1.6-1.6,3.2-3.2,4.7-4.8s2.9-3.1,4.1-4.5c1.3-1.6,2.4-2.9,3.2-4
		c0.8-1.1,1.4-2.1,1.8-3c0.4-0.9,0.7-1.7,0.7-2.5c0.1-0.8,0.1-1.6,0-2.6c-0.2-1.7-0.9-3.1-2.1-4.2c-1.2-1.1-3.1-1.5-5.4-1.3
		c-1.7,0.2-3.4,0.6-5,1.2c-1.6,0.7-3.3,1.7-5.1,3.1l1.1-3.3C345.7,157.8,347.1,157.1,348.6,156.6z"/>
	<path d="M368.9,187.9c0.5,0,0.9,0.1,1.2,0.3c0.3,0.2,0.5,0.6,0.5,1c0.1,0.6-0.1,1.1-0.5,1.5c-0.4,0.4-0.8,0.6-1.4,0.7
		c-0.5,0-0.9-0.1-1.2-0.3c-0.3-0.2-0.5-0.6-0.5-1c-0.1-0.6,0.1-1.1,0.4-1.5C367.8,188.2,368.3,188,368.9,187.9z"/>
	<path d="M388.2,187.7c15.3-7.4,27.1-15.7,35.5-24.8c8.4-9.1,13.8-19.2,16.1-30.3c-7.2,7.4-16.8,11.6-28.8,12.7
		c-4.1,0.4-8,0.1-11.4-0.8c-3.5-0.9-6.5-2.4-9.1-4.4c-2.6-2-4.6-4.5-6.1-7.6c-1.5-3-2.5-6.5-2.8-10.4c-0.4-4.7,0.1-9.3,1.4-13.6
		c1.4-4.3,3.4-8.1,6.2-11.5c2.8-3.4,6.1-6.1,10-8.3c3.9-2.1,8.2-3.4,12.9-3.8c9.2-0.8,16.6,1.4,22,6.6c5.4,5.2,8.5,12.6,9.4,22.1
		c1.4,15.9-2.4,30.2-11.3,42.8c-8.9,12.7-23.2,23.8-43,33.5L388.2,187.7z M410.9,142.8c12.3-1.1,22.2-5.8,29.7-14.1
		c0.6-4.6,0.7-9.5,0.3-14.6c-0.8-8.9-3.5-15.7-8.3-20.4c-4.8-4.7-11.5-6.7-20.1-5.9c-4.3,0.4-8.3,1.6-11.9,3.5
		c-3.6,2-6.7,4.5-9.2,7.6c-2.5,3.1-4.4,6.6-5.7,10.6c-1.3,4-1.7,8.2-1.3,12.6c0.6,7.1,3.3,12.5,7.9,16.2
		C397,141.9,403.2,143.5,410.9,142.8z"/>
	<path d="M457.5,118.1l14.4,20.3l-19.2,23.2l-2.8,0.2l18.6-23.5l-13.2-20L457.5,118.1z M474,116.7l14.4,20.3l-19.2,23.2l-2.8,0.2
		l18.6-23.5l-13.2-20L474,116.7z"/>
	<path d="M498.8,178.3l11.9-96.7l-13.3,1.2l0.4-2.5l15.8-1.4l-12.2,99.2L498.8,178.3z"/>
	<path d="M561.9,174.9c-7.2,0.6-13.1-1.7-17.7-6.9c-4.6-5.2-7.4-13.3-8.4-24.2c-0.9-10.1-0.6-19.4,0.8-28c1.4-8.6,3.8-16,7-22.4
		c3.2-6.4,7.2-11.4,12-15.2c4.8-3.8,10-5.9,15.8-6.4c7-0.6,12.8,1.7,17.5,7c4.7,5.2,7.5,13.4,8.5,24.4c0.9,10.1,0.6,19.4-0.9,27.9
		c-1.5,8.5-3.8,16-7.1,22.3c-3.2,6.3-7.2,11.4-11.9,15.1C572.8,172.2,567.6,174.4,561.9,174.9z M561.7,172.3
		c5.3-0.5,10.1-2.5,14.5-6.1c4.4-3.6,8.2-8.4,11.2-14.5c3-6.1,5.2-13.2,6.5-21.4c1.3-8.2,1.6-17.2,0.7-26.9
		c-0.9-10.4-3.4-17.9-7.5-22.7c-4.1-4.8-9.3-6.9-15.5-6.3c-5.4,0.5-10.4,2.5-14.9,6.1c-4.5,3.6-8.2,8.5-11.2,14.6
		c-3,6.1-5.1,13.3-6.4,21.5c-1.3,8.2-1.5,17.2-0.6,27c0.9,10.2,3.4,17.7,7.4,22.5C550,170.7,555.2,172.8,561.7,172.3z"/>
</g>
<polyline class="st0" points="364.2,204.1 475.3,194.4 501.9,192.1 602.9,183.2 "/>
<g>
	<path class="st1" d="M391.9,221.4c0.7,0.3,1.5,0.4,2.4,0.3c1-0.1,1.7-0.4,2.2-0.9c0.5-0.5,0.7-1.2,0.7-1.9c0-0.6-0.3-1.1-0.7-1.5
		c-0.4-0.5-1.2-1-2.3-1.6c-0.6-0.3-1.1-0.6-1.5-0.9c-0.4-0.3-0.7-0.7-1-1c-0.3-0.4-0.5-0.7-0.6-1.1c-0.1-0.4-0.2-0.8-0.3-1.3
		c-0.1-0.8,0-1.5,0.3-2.2c0.3-0.7,0.6-1.3,1.2-1.8c0.5-0.5,1.1-1,1.8-1.3c0.7-0.3,1.5-0.5,2.3-0.6c1.7-0.1,3.2,0.1,4.7,0.6l-0.5,3.7
		c-0.8-0.5-1.5-0.8-2.1-1c-0.6-0.2-1.2-0.3-1.8-0.2c-0.8,0.1-1.4,0.3-1.8,0.8c-0.4,0.5-0.6,1-0.5,1.6c0,0.2,0.1,0.5,0.2,0.7
		c0.1,0.2,0.3,0.4,0.5,0.6c0.2,0.2,0.5,0.4,0.9,0.7c0.4,0.2,0.9,0.5,1.4,0.8c1.2,0.6,2,1.3,2.5,2c0.5,0.7,0.8,1.6,0.9,2.7
		c0.1,0.9,0,1.7-0.3,2.5c-0.3,0.8-0.8,1.4-1.4,2c-0.6,0.6-1.3,1-2.2,1.4c-0.8,0.4-1.8,0.6-2.8,0.7c-0.9,0.1-1.8,0.1-2.6,0
		c-0.8-0.1-1.5-0.4-2.1-0.7l0.2-4l0.1,0C390.5,220.6,391.2,221.1,391.9,221.4z"/>
	<path class="st1" d="M404.6,212.2c0.5-0.4,1.1-0.7,1.8-0.9c0.7-0.2,1.3-0.3,2-0.4c1.5-0.1,2.5,0.1,3.2,0.7c0.7,0.6,1.1,1.5,1.2,2.7
		c0,0.4,0,0.9,0,1.4l-0.8,6.9l-3.3,0.9l0.2-1.3c-0.5,0.4-1.1,0.8-1.7,1.1s-1.3,0.5-1.9,0.5c-0.9,0.1-1.6-0.1-2.1-0.5
		c-0.5-0.4-0.8-1-0.9-1.9c-0.1-1,0.2-1.8,0.8-2.6c0.6-0.8,1.5-1.4,2.8-1.9c0.6-0.2,1.2-0.5,1.8-0.6c0.7-0.2,1.3-0.3,2-0.5l0-0.3
		c0-0.2,0-0.4,0-0.6c0-0.4-0.2-0.7-0.5-1c-0.3-0.2-0.7-0.3-1.3-0.3c-0.6,0.1-1.2,0.2-1.9,0.5s-1.2,0.7-1.7,1.2L404.6,212.2z
		 M409.3,217.5c-0.4,0.1-0.8,0.2-1.3,0.3c-0.4,0.1-0.8,0.3-1.1,0.4c-0.6,0.3-1,0.6-1.2,0.9c-0.2,0.3-0.3,0.7-0.3,1.1
		c0,0.3,0.1,0.6,0.4,0.7c0.2,0.2,0.5,0.2,0.9,0.2c0.4,0,0.8-0.2,1.2-0.4c0.4-0.2,0.8-0.6,1.1-1L409.3,217.5z"/>
	<path class="st1" d="M417.5,210.5l0.4-3.4l3.3-0.9l-0.5,4l3.2-0.3l-0.3,2.8l-3.2,0.3l-0.6,5.2c-0.1,0.7-0.1,1.3-0.1,1.7
		c0,0.5,0.2,0.9,0.4,1.2c0.2,0.3,0.6,0.5,1.1,0.8l-0.1,0.2l-3.3,0.6c-0.4-0.2-0.7-0.4-1-0.8c-0.3-0.3-0.4-0.8-0.5-1.5
		c0-0.2,0-0.4,0-0.7c0-0.3,0-0.5,0.1-0.8l0.7-5.7l-2.2,0.2l0.3-2.8L417.5,210.5z"/>
</g>
<g>
	<path class="st2" d="M504.8,211.4c0.7,0.3,1.5,0.4,2.4,0.3c1-0.1,1.7-0.4,2.2-0.9c0.5-0.5,0.7-1.2,0.7-1.9c0-0.6-0.3-1.1-0.7-1.5
		s-1.2-1-2.3-1.6c-0.6-0.3-1.1-0.6-1.5-0.9c-0.4-0.3-0.7-0.7-1-1c-0.3-0.4-0.5-0.7-0.6-1.1c-0.1-0.4-0.2-0.8-0.3-1.3
		c-0.1-0.8,0-1.5,0.3-2.2c0.3-0.7,0.6-1.3,1.2-1.8s1.1-1,1.8-1.3s1.5-0.5,2.3-0.6c1.7-0.1,3.2,0.1,4.7,0.6l-0.5,3.7
		c-0.8-0.5-1.5-0.8-2.1-1c-0.6-0.2-1.2-0.3-1.8-0.2c-0.8,0.1-1.4,0.3-1.8,0.8c-0.4,0.5-0.6,1-0.5,1.6c0,0.2,0.1,0.5,0.2,0.7
		c0.1,0.2,0.3,0.4,0.5,0.6c0.2,0.2,0.5,0.4,0.9,0.7c0.4,0.2,0.9,0.5,1.4,0.8c1.2,0.6,2,1.3,2.5,2c0.5,0.7,0.8,1.6,0.9,2.7
		c0.1,0.9,0,1.7-0.3,2.5c-0.3,0.8-0.8,1.4-1.4,2c-0.6,0.6-1.3,1-2.2,1.4c-0.8,0.4-1.8,0.6-2.8,0.7c-0.9,0.1-1.8,0.1-2.6-0.1
		c-0.8-0.1-1.5-0.4-2.1-0.7l0.2-4l0.1,0C503.4,210.7,504.1,211.1,504.8,211.4z"/>
	<path class="st2" d="M520.4,201.4l-0.9,7.2c0,0.1,0,0.3,0,0.4c0,0.1,0,0.2,0,0.3c0,0.5,0.2,0.8,0.5,1s0.6,0.3,1.1,0.2
		c0.5,0,1-0.2,1.4-0.5c0.4-0.3,0.8-0.6,1.1-1.1c0.1-0.2,0.2-0.4,0.3-0.6c0.1-0.2,0.1-0.4,0.2-0.7l0.8-6.6l3.3-0.3l-1.5,11.7
		l-3.3,0.9l0.2-1.9c-0.5,0.6-1.1,1.1-1.8,1.5s-1.3,0.6-2.1,0.7c-1.1,0.1-1.9-0.1-2.5-0.6c-0.6-0.5-0.9-1.3-1-2.3c0-0.4,0-0.9,0-1.3
		l1-7.7L520.4,201.4z"/>
	<path class="st2" d="M531.6,200.4l3.3-0.3l-0.2,1.5c0.7-0.7,1.4-1.3,2-1.6c0.6-0.3,1.3-0.5,2-0.6c1-0.1,1.9,0.1,2.5,0.7
		c0.6,0.5,0.9,1.3,1,2.3c0,0.2,0,0.4,0,0.6c0,0.2,0,0.4,0,0.7l-1,7.8l-3.3,0.3l0.9-7.1c0-0.3,0-0.5,0-0.8c-0.1-0.9-0.6-1.3-1.6-1.3
		c-0.4,0-0.8,0.2-1.2,0.4s-0.7,0.4-0.9,0.7c-0.3,0.3-0.5,0.6-0.6,0.9c-0.2,0.3-0.3,0.7-0.3,1.2l-0.8,6.4l-3.3,0.3L531.6,200.4z"/>
</g>
<g>
	<path d="M336.2,81.8c1.5-0.7,6.9-3.2,7.5-10.2l-8.1,0.7l-0.2-2.7l8.2-0.7l-0.4-4.8l2.8-0.2l0.4,4.4c0,0.1,0,0.3,0,0.4l8.6-0.7
		l0.2,2.7l-8.2,0.7c1.7,5.5,5.2,7.6,9.5,8.8l-1.4,2.8c-2.1-0.6-7-2.4-9.3-8.2c-1.7,6.4-6.2,8.8-7.7,9.6L336.2,81.8z"/>
	<path d="M359.5,65.9c-0.5-0.9-0.8-1.4-1.5-2.3l2.5-1c1,1.2,1.6,2.3,1.9,3.1l3.2-0.3c-0.7-1.4-1.2-2-1.6-2.5l2.5-1
		c0.7,1,1.3,1.8,1.8,3.2l2.3-0.2c0.2-0.5,0.5-1.2,1.1-3.4l2.9,0.5c-0.4,1.2-0.6,1.7-1.1,2.7l2.4-0.2l0.4,5l-2.6,0.2l-0.2-2.6
		l-13.7,1.2l0.2,2.6l-2.6,0.2l-0.4-5L359.5,65.9z M373.2,68.5l0.2,2c-1.1,1.1-2.9,2.5-4.7,3.5l8.4-0.7l0.2,2.4l-8.6,0.8l0.3,3.2
		c0.1,1,0.1,2.2-1.9,2.3l-4.1,0.4l-0.7-2.6l3.1-0.3c0.7-0.1,0.8-0.2,0.7-0.9l-0.2-1.9l-8.6,0.7l-0.2-2.4l8.6-0.7l-0.1-1.4l0.9-0.1
		c0.2-0.1,1.6-0.7,2.5-1.6l-8.5,0.7l-0.2-2.3L373.2,68.5z"/>
	<path d="M379.8,75.4l12.8-1.1l-0.8-8.9l-12.6,1.1l-0.2-2.8l15.5-1.4l1.3,14.5l-15.7,1.4L379.8,75.4z"/>
	<path d="M405.2,66.3c-2.1-1.1-4-1.9-6.6-2.6l1.1-2.6c2.5,0.6,4.5,1.4,6.8,2.5L405.2,66.3z M415.8,65.4c-4,7.9-10.4,11.2-14.8,12.5
		l-1.2-2.8c4.2-1.2,10.2-3.8,14-12L415.8,65.4z"/>
	<path d="M422.1,66.5c-2-2.5-3.5-4-4.6-5l2-2c2,1.8,3.1,3,4.8,5L422.1,66.5z M434,58.4c0,6.3-1.4,13.9-10.5,17.7l-2.4-2
		c8.8-3.3,10-10.1,9.8-15.8L434,58.4z"/>
	<path d="M455.1,63l0.2,2.7l-17.7,1.5l-0.2-2.7L455.1,63z"/>
	<path d="M463.9,64.3c-2.2-0.8-3.8-1.3-6.3-1.9l0.9-2.6c1.2,0.3,3.2,0.7,6.3,1.9L463.9,64.3z M465.2,59.1c-2.3-0.8-3.6-1.3-6.2-1.9
		l0.9-2.5c2.3,0.6,3.7,1,6.2,1.8L465.2,59.1z M475.5,59.9c-3.1,5.8-7.6,10.6-14.5,13l-1.4-2.8c3.8-1.1,9.5-4.1,13.8-12.5L475.5,59.9
		z"/>
	<path d="M493.8,53.3l1.3,1.4c-0.6,1.3-2,4.5-4.8,7.7l-2.4-1.5c1.3-1.5,2.1-2.5,3.2-4.6l-13.8,1.2l-0.2-2.8L493.8,53.3z M487.4,58.9
		c0.4,5.2-0.7,9.4-5,12.3l-2.4-1.9c4.1-2.5,4.9-5.6,4.5-10.1L487.4,58.9z"/>
	<path d="M514,68.1c-0.3-0.6-0.8-1.7-1.6-2.9l-13.6,3.1l-0.9-2.6l2.9-0.7c1.3-4.1,2.3-7.3,4-14.2l2.8,0.7c-1.6,6.5-3,11.1-3.6,12.8
		l6.9-1.5c-1.3-1.9-2.5-3.2-2.9-3.8l2.2-1.5c2.1,2.4,4.2,5.2,6.2,9L514,68.1z"/>
	<path d="M525,48.9c0.5,9.3-0.8,15-4.6,19.4l-2.2-2.1c1.4-1.6,5-5.6,4-17.3L525,48.9z M536.6,66.9c-3.6-3.2-6.6-7.6-7.8-18.5
		l2.7-0.4c0.8,9,3.2,13.4,6.9,16.4L536.6,66.9z"/>
	<path d="M539,47.6l18.3-1.6l0.2,2.5l-7.8,0.7l0.4,5l6.9-0.6l0.2,2.5l-6.9,0.6l0.5,5.9l8.5-0.7l0.2,2.5L540,66.1l-0.2-2.5l8.4-0.7
		l-0.5-5.9l-6.8,0.6l-0.2-2.5l6.8-0.6l-0.4-5l-7.8,0.7L539,47.6z"/>
	<path d="M561.3,45.7l16.5-1.4l0.2,2.5c-2,1.8-4,3.3-6.5,4.7l0.1,1.2l8.5-0.7l0.2,2.6l-8.5,0.7l0.5,5.8c0.2,2.3,0,2.9-2.5,3.1
		l-4,0.4l-0.6-2.6l3.3-0.3c0.9-0.1,1-0.1,1-1.1l-0.4-5.1l-8.5,0.7l-0.2-2.6l8.5-0.7l-0.3-3.2l1.7-0.1c1.4-0.8,2.3-1.4,3.4-2.3
		l-12.1,1.1L561.3,45.7z"/>
</g>
<g>
</g>
<g>
</g>
<g>
</g>
<g>
</g>
<g>
</g>
<g>
</g>
</svg>
