<?xml version="1.0" encoding="utf-8"?>
<!-- Generator: Adobe Illustrator 21.1.0, SVG Export Plug-In . SVG Version: 6.00 Build 0)  -->
<svg version="1.1" id="レイヤー_1" xmlns="http://www.w3.org/2000/svg" xmlns:xlink="http://www.w3.org/1999/xlink" x="0px"
	 y="0px" viewBox="0 0 935.8 276.9" style="enable-background:new 0 0 935.8 276.9;" xml:space="preserve">
<style type="text/css">
	.st0{fill:#E8E8E8;}
	.st1{fill:#EFEFEF;}
	.st2{fill:#F7F8F8;}
	.st3{fill:#BB9361;}
	.st4{fill:#15858F;}
	.st5{fill:#C54B82;}
	.st6{fill:#FFFFFF;}
	.st7{fill:none;stroke:#000000;stroke-miterlimit:10;}
</style>
<g>
	<g>
		<rect x="42.4" y="312.7" class="st0" width="104.9" height="104.9"/>
	</g>
	<g>
		<rect x="42.4" y="311.2" class="st1" width="104.9" height="104.9"/>
	</g>
	<g>
		<rect x="42.4" y="309.8" class="st2" width="104.9" height="104.9"/>
	</g>
	<g>
		<rect x="42.4" y="298.5" class="st3" width="104.9" height="14.2"/>
	</g>
	<g>
		<path d="M82.9,332.1V320l-1.9,0.1l0.1-0.8h2.5v12.9H82.9z"/>
		<path d="M92.5,332.1V320l-1.9,0.1l0.1-0.8h2.5v12.9H92.5z"/>
		<path d="M111.1,331.3c0,0.6,0,1.4-1.5,1.4h-2.7l-0.2-1l2.9,0c0.5,0,0.5-0.2,0.5-0.6v-4h-9.1c-0.1,2-0.7,4.2-2.1,5.6l-0.8-0.6
			c2-2,2-5.3,2-6.1v-7.6h10.8V331.3z M101.2,319.4v3.1h9v-3.1H101.2z M101.2,323.3v3.1h9v-3.1H101.2z"/>
		<path d="M105.9,376.1H76.7v-0.2l30.4-36.9h0.2v35.7h5.7v1.4h-5.7v19.1h-1.4V376.1z M105.9,374.8v-32l-26.4,32H105.9z"/>
		<path class="st4" d="M83.8,411.3c0.4,0.4,0.9,0.8,1.5,1c0.6,0.2,1.2,0.4,1.8,0.4c0.6,0,1-0.1,1.2-0.3c0.3-0.2,0.4-0.4,0.4-0.7
			c0-0.5-0.3-0.8-0.8-1.1c-0.4-0.2-0.8-0.4-1.2-0.5s-0.8-0.3-1.2-0.5c-0.7-0.3-1.2-0.7-1.4-1.2c-0.3-0.4-0.4-1-0.4-1.6
			c0-0.4,0.1-0.8,0.2-1.1s0.4-0.6,0.7-0.9c0.3-0.3,0.6-0.5,1-0.6c0.4-0.1,0.9-0.2,1.4-0.2c0.7,0,1.3,0.1,1.8,0.2
			c0.5,0.1,1,0.3,1.5,0.6l-0.5,2.1c-0.4-0.4-0.8-0.6-1.3-0.8c-0.5-0.2-1-0.3-1.4-0.3c-0.5,0-0.8,0.1-1,0.3c-0.2,0.2-0.3,0.4-0.3,0.7
			s0.1,0.5,0.2,0.6c0.1,0.2,0.3,0.3,0.6,0.4c0.3,0.1,0.7,0.3,1.1,0.5c0.4,0.2,0.8,0.3,1.2,0.5c0.7,0.3,1.2,0.8,1.5,1.2
			s0.4,1,0.4,1.6c0,0.9-0.3,1.6-1,2.1s-1.5,0.8-2.7,0.8c-0.8,0-1.4-0.1-2-0.3c-0.6-0.2-1-0.4-1.4-0.7L83.8,411.3z"/>
		<path class="st4" d="M93.4,405c0.5-0.3,1-0.6,1.6-0.7c0.6-0.2,1.2-0.2,1.7-0.2c1.3,0,2.2,0.3,2.8,0.9s0.9,1.5,0.9,2.6v6.3
			l-2.1,0.5V413c-0.5,0.4-1,0.7-1.5,1c-0.5,0.3-1.2,0.4-1.8,0.4c-0.8,0-1.4-0.2-1.9-0.6c-0.5-0.4-0.7-1-0.7-1.7
			c0-0.7,0.2-1.3,0.6-1.7c0.4-0.5,0.9-0.9,1.7-1.2c0.5-0.2,1.1-0.4,1.6-0.6c0.6-0.2,1.3-0.3,2-0.4v-0.6c0-0.5-0.2-1-0.5-1.3
			c-0.3-0.3-0.8-0.5-1.4-0.5c-0.5,0-1,0.1-1.5,0.3c-0.5,0.2-1,0.5-1.3,0.8h-0.1V405z M98.2,409.3c-0.5,0.1-0.9,0.2-1.4,0.3
			c-0.5,0.1-0.9,0.3-1.2,0.4c-0.7,0.4-1.1,0.9-1.1,1.5c0,0.4,0.1,0.6,0.3,0.8c0.2,0.2,0.5,0.3,1,0.3c0.4,0,0.8-0.1,1.2-0.3
			c0.4-0.2,0.8-0.5,1.1-1V409.3z"/>
		<path class="st4" d="M104,404.3v-2.9l2.2-0.4v3.3h2.8v1.8h-2.8v4.7c0,0.5,0,0.9,0.1,1.2c0,0.3,0.1,0.6,0.2,0.8
			c0.1,0.2,0.3,0.4,0.5,0.6c0.2,0.2,0.5,0.3,0.8,0.5v0.2l-2.4,0.3c-0.2-0.1-0.4-0.2-0.6-0.4s-0.3-0.4-0.4-0.6s-0.2-0.6-0.3-0.9
			c-0.1-0.4-0.1-0.8-0.1-1.3v-4.9h-1.8v-1.8H104z"/>
	</g>
</g>
<g>
	<g>
		<rect x="150.9" y="312.7" class="st0" width="104.9" height="104.9"/>
	</g>
	<g>
		<rect x="150.9" y="311.2" class="st1" width="104.9" height="104.9"/>
	</g>
	<g>
		<rect x="150.9" y="309.8" class="st2" width="104.9" height="104.9"/>
	</g>
	<g>
		<rect x="150.9" y="298.5" class="st3" width="104.9" height="14.2"/>
	</g>
	<g>
		<path d="M190.6,332.1V320l-1.9,0.1l0.1-0.8h2.5v12.9H190.6z"/>
		<path d="M200.2,332.1V320l-1.9,0.1l0.1-0.8h2.5v12.9H200.2z"/>
		<path d="M218.8,331.3c0,0.6,0,1.4-1.5,1.4h-2.7l-0.2-1l2.9,0c0.5,0,0.5-0.2,0.5-0.6v-4h-9.1c-0.1,2-0.7,4.2-2.1,5.6l-0.8-0.6
			c2-2,2-5.3,2-6.1v-7.6h10.8V331.3z M208.9,319.4v3.1h9v-3.1H208.9z M208.9,323.3v3.1h9v-3.1H208.9z"/>
		<path d="M217.5,342.4h-25.5l-2.4,19.2c0.7-0.1,1.6-0.2,2.8-0.2c1.2,0,2.3-0.1,3.4-0.1c3.6,0,6.9,0.4,9.6,1.3
			c2.8,0.8,5.1,2,6.9,3.5c1.8,1.5,3.2,3.3,4.1,5.3c0.9,2.1,1.4,4.3,1.4,6.7c0,6.2-2.4,11-7.1,14.5c-4.8,3.5-11.6,5.3-20.4,5.3
			c-0.5,0-0.9,0-1.3,0c-0.4,0-0.7,0-1-0.1l0.1-1.4c0.3,0,0.6,0.1,1,0.1s0.8,0,1.2,0c8.5,0,15-1.6,19.4-4.9c4.4-3.3,6.7-7.8,6.7-13.5
			c0-2.3-0.4-4.3-1.3-6.2c-0.9-1.9-2.2-3.5-3.9-4.9s-3.9-2.4-6.5-3.1c-2.6-0.7-5.6-1.1-9-1.1c-1.4,0-2.7,0-4,0.1
			c-1.3,0.1-2.5,0.2-3.8,0.4l2.8-22.2h27L217.5,342.4z"/>
		<path d="M188.5,411.3c0.4,0.4,0.9,0.8,1.5,1c0.6,0.2,1.2,0.4,1.8,0.4c0.6,0,1-0.1,1.2-0.3c0.3-0.2,0.4-0.4,0.4-0.7
			c0-0.5-0.3-0.8-0.8-1.1c-0.4-0.2-0.8-0.4-1.2-0.5s-0.8-0.3-1.2-0.5c-0.7-0.3-1.2-0.7-1.4-1.2c-0.3-0.4-0.4-1-0.4-1.6
			c0-0.4,0.1-0.8,0.2-1.1s0.4-0.6,0.7-0.9c0.3-0.3,0.6-0.5,1-0.6c0.4-0.1,0.9-0.2,1.4-0.2c0.7,0,1.3,0.1,1.8,0.2
			c0.5,0.1,1,0.3,1.5,0.6l-0.5,2.1c-0.4-0.4-0.8-0.6-1.3-0.8c-0.5-0.2-1-0.3-1.4-0.3c-0.5,0-0.8,0.1-1,0.3c-0.2,0.2-0.3,0.4-0.3,0.7
			s0.1,0.5,0.2,0.6c0.1,0.2,0.3,0.3,0.6,0.4c0.3,0.1,0.7,0.3,1.1,0.5c0.4,0.2,0.8,0.3,1.2,0.5c0.7,0.3,1.2,0.8,1.5,1.2
			s0.4,1,0.4,1.6c0,0.9-0.3,1.6-1,2.1s-1.5,0.8-2.7,0.8c-0.8,0-1.4-0.1-2-0.3c-0.6-0.2-1-0.4-1.4-0.7L188.5,411.3z"/>
		<path d="M200,404.3v6.1c0,0.7,0.2,1.2,0.5,1.5s0.8,0.5,1.3,0.5c0.5,0,0.9-0.1,1.3-0.4c0.4-0.2,0.7-0.6,1-1c0.2-0.3,0.3-0.6,0.3-1
			v-5.6h2.2v9.6l-2.2,0.5v-1.8c-0.4,0.6-0.9,1-1.5,1.3c-0.6,0.3-1.2,0.5-1.9,0.5c-1,0-1.8-0.3-2.4-0.9c-0.5-0.6-0.8-1.4-0.8-2.5
			v-6.6H200z"/>
		<path d="M209.7,404.3h2.2v1.5c0.6-0.6,1.1-1.1,1.7-1.4c0.5-0.3,1.1-0.4,1.8-0.4c1,0,1.8,0.3,2.3,0.8c0.6,0.6,0.8,1.4,0.8,2.5v6.7
			h-2.2v-6c0-0.7-0.1-1.2-0.4-1.6c-0.3-0.3-0.7-0.5-1.3-0.5c-0.4,0-0.8,0.1-1.2,0.3c-0.4,0.2-0.7,0.4-0.9,0.7
			c-0.2,0.3-0.3,0.5-0.4,0.7s-0.1,0.6-0.1,1v5.3h-2.2V404.3z"/>
	</g>
	<g>
		<path class="st5" d="M188.5,411.3c0.4,0.4,0.9,0.8,1.5,1c0.6,0.2,1.2,0.4,1.8,0.4c0.6,0,1-0.1,1.2-0.3c0.3-0.2,0.4-0.4,0.4-0.7
			c0-0.5-0.3-0.8-0.8-1.1c-0.4-0.2-0.8-0.4-1.2-0.5s-0.8-0.3-1.2-0.5c-0.7-0.3-1.2-0.7-1.4-1.2c-0.3-0.4-0.4-1-0.4-1.6
			c0-0.4,0.1-0.8,0.2-1.1s0.4-0.6,0.7-0.9c0.3-0.3,0.6-0.5,1-0.6c0.4-0.1,0.9-0.2,1.4-0.2c0.7,0,1.3,0.1,1.8,0.2
			c0.5,0.1,1,0.3,1.5,0.6l-0.5,2.1c-0.4-0.4-0.8-0.6-1.3-0.8c-0.5-0.2-1-0.3-1.4-0.3c-0.5,0-0.8,0.1-1,0.3c-0.2,0.2-0.3,0.4-0.3,0.7
			s0.1,0.5,0.2,0.6c0.1,0.2,0.3,0.3,0.6,0.4c0.3,0.1,0.7,0.3,1.1,0.5c0.4,0.2,0.8,0.3,1.2,0.5c0.7,0.3,1.2,0.8,1.5,1.2
			s0.4,1,0.4,1.6c0,0.9-0.3,1.6-1,2.1s-1.5,0.8-2.7,0.8c-0.8,0-1.4-0.1-2-0.3c-0.6-0.2-1-0.4-1.4-0.7L188.5,411.3z"/>
		<path class="st5" d="M200,404.3v6.1c0,0.7,0.2,1.2,0.5,1.5s0.8,0.5,1.3,0.5c0.5,0,0.9-0.1,1.3-0.4c0.4-0.2,0.7-0.6,1-1
			c0.2-0.3,0.3-0.6,0.3-1v-5.6h2.2v9.6l-2.2,0.5v-1.8c-0.4,0.6-0.9,1-1.5,1.3c-0.6,0.3-1.2,0.5-1.9,0.5c-1,0-1.8-0.3-2.4-0.9
			c-0.5-0.6-0.8-1.4-0.8-2.5v-6.6H200z"/>
		<path class="st5" d="M209.7,404.3h2.2v1.5c0.6-0.6,1.1-1.1,1.7-1.4c0.5-0.3,1.1-0.4,1.8-0.4c1,0,1.8,0.3,2.3,0.8
			c0.6,0.6,0.8,1.4,0.8,2.5v6.7h-2.2v-6c0-0.7-0.1-1.2-0.4-1.6c-0.3-0.3-0.7-0.5-1.3-0.5c-0.4,0-0.8,0.1-1.2,0.3
			c-0.4,0.2-0.7,0.4-0.9,0.7c-0.2,0.3-0.3,0.5-0.4,0.7s-0.1,0.6-0.1,1v5.3h-2.2V404.3z"/>
	</g>
</g>
<g>
	<g>
		<rect x="277.9" y="312.7" class="st0" width="104.9" height="104.9"/>
	</g>
	<g>
		<rect x="277.9" y="311.2" class="st1" width="104.9" height="104.9"/>
	</g>
	<g>
		<rect x="277.9" y="309.8" class="st2" width="104.9" height="104.9"/>
	</g>
	<g>
		<rect x="277.9" y="298.5" class="st3" width="104.9" height="14.2"/>
	</g>
	<g>
		<path d="M318.1,332.1V320l-1.9,0.1l0.1-0.8h2.5v12.9H318.1z"/>
		<path d="M326,319.3c0.6-0.2,1.1-0.2,1.8-0.2c0.6,0,1.1,0.1,1.6,0.3c0.5,0.2,0.9,0.4,1.2,0.7c0.3,0.3,0.6,0.7,0.7,1.1
			c0.2,0.4,0.2,0.9,0.2,1.3c0,0.4,0,0.8-0.1,1.1c-0.1,0.3-0.2,0.7-0.3,1c-0.2,0.3-0.3,0.7-0.6,1s-0.5,0.7-0.8,1
			c-0.3,0.3-0.6,0.7-1,1.2c-0.4,0.4-0.8,0.9-1.3,1.3c-0.4,0.4-0.9,0.9-1.3,1.3s-0.8,0.8-1.2,1.1h7l-0.1,0.7h-8v-0.6
			c0.3-0.3,0.7-0.6,1.2-1c0.5-0.4,1-0.9,1.5-1.4c0.5-0.5,1-1,1.5-1.6c0.5-0.5,0.9-1,1.3-1.5c0.3-0.3,0.5-0.7,0.7-0.9
			c0.2-0.3,0.4-0.6,0.5-0.8c0.1-0.3,0.2-0.6,0.3-0.8c0.1-0.3,0.1-0.6,0.1-0.9c0-0.4-0.1-0.7-0.2-1.1c-0.1-0.3-0.3-0.6-0.6-0.9
			c-0.3-0.2-0.6-0.4-0.9-0.6c-0.4-0.1-0.8-0.2-1.3-0.2c-0.6,0-1.2,0.1-1.8,0.3s-1.1,0.5-1.7,0.9l0.2-1.1
			C325,319.7,325.5,319.4,326,319.3z"/>
		<path d="M346.3,331.3c0,0.6,0,1.4-1.5,1.4h-2.7l-0.2-1l2.9,0c0.5,0,0.5-0.2,0.5-0.6v-4h-9.1c-0.1,2-0.7,4.2-2.1,5.6l-0.8-0.6
			c2-2,2-5.3,2-6.1v-7.6h10.8V331.3z M336.4,319.4v3.1h9v-3.1H336.4z M336.4,323.3v3.1h9v-3.1H336.4z"/>
		<path d="M321.4,395.2c7.4-3.4,13.1-7.3,17.1-11.7c4-4.5,6.5-9.7,7.4-15.8c-2,1.7-4.3,3-6.8,3.9c-2.5,0.9-5.4,1.3-8.7,1.3
			c-2.6,0-5-0.4-7.1-1.2s-4-1.9-5.5-3.4c-1.5-1.5-2.7-3.3-3.6-5.4c-0.8-2.1-1.3-4.5-1.3-7.1c0-2.3,0.4-4.4,1.2-6.3
			c0.8-2,1.9-3.7,3.3-5.1c1.4-1.4,3.2-2.6,5.2-3.4c2-0.8,4.2-1.3,6.7-1.3c2.9,0,5.5,0.5,7.8,1.5c2.3,1,4.2,2.5,5.8,4.4
			c1.6,1.9,2.8,4.2,3.6,6.9c0.8,2.7,1.2,5.8,1.2,9.2c0,8.1-2.1,14.9-6.4,20.6c-4.2,5.7-10.7,10.4-19.3,14.1L321.4,395.2z
			 M330.4,371.4c3.3,0,6.3-0.5,8.8-1.4c2.6-1,4.9-2.4,6.9-4.3c0.1-1.3,0.2-2.6,0.2-3.9c0-6.5-1.5-11.5-4.4-15.2
			c-2.9-3.6-7.1-5.5-12.6-5.5c-2.3,0-4.3,0.4-6.1,1.1c-1.8,0.7-3.4,1.8-4.7,3.1c-1.3,1.3-2.3,2.9-3,4.7c-0.7,1.8-1,3.7-1,5.8
			c0,2.4,0.4,4.6,1.2,6.5c0.8,1.9,1.8,3.6,3.2,4.9c1.4,1.3,3.1,2.4,5,3.1C325.8,371,328,371.4,330.4,371.4z"/>
		<path class="st4" d="M319,411.3c0.4,0.4,0.9,0.8,1.5,1c0.6,0.2,1.2,0.4,1.8,0.4c0.6,0,1-0.1,1.2-0.3c0.3-0.2,0.4-0.4,0.4-0.7
			c0-0.5-0.3-0.8-0.8-1.1c-0.4-0.2-0.8-0.4-1.2-0.5c-0.4-0.2-0.8-0.3-1.2-0.5c-0.7-0.3-1.2-0.7-1.4-1.2c-0.3-0.4-0.4-1-0.4-1.6
			c0-0.4,0.1-0.8,0.2-1.1s0.4-0.6,0.7-0.9c0.3-0.3,0.6-0.5,1-0.6c0.4-0.1,0.9-0.2,1.4-0.2c0.7,0,1.3,0.1,1.8,0.2
			c0.5,0.1,1,0.3,1.5,0.6l-0.5,2.1c-0.4-0.4-0.8-0.6-1.3-0.8c-0.5-0.2-1-0.3-1.4-0.3c-0.5,0-0.8,0.1-1,0.3c-0.2,0.2-0.3,0.4-0.3,0.7
			s0.1,0.5,0.2,0.6c0.1,0.2,0.3,0.3,0.6,0.4c0.3,0.1,0.7,0.3,1.1,0.5c0.4,0.2,0.8,0.3,1.2,0.5c0.7,0.3,1.2,0.8,1.5,1.2
			s0.4,1,0.4,1.6c0,0.9-0.3,1.6-1,2.1c-0.6,0.5-1.5,0.8-2.7,0.8c-0.8,0-1.4-0.1-2-0.3c-0.6-0.2-1-0.4-1.4-0.7L319,411.3z"/>
		<path class="st4" d="M328.6,405c0.5-0.3,1-0.6,1.6-0.7c0.6-0.2,1.2-0.2,1.7-0.2c1.3,0,2.2,0.3,2.8,0.9s0.9,1.5,0.9,2.6v6.3
			l-2.1,0.5V413c-0.5,0.4-1,0.7-1.5,1c-0.5,0.3-1.2,0.4-1.8,0.4c-0.8,0-1.4-0.2-1.9-0.6c-0.5-0.4-0.7-1-0.7-1.7
			c0-0.7,0.2-1.3,0.6-1.7c0.4-0.5,0.9-0.9,1.7-1.2c0.5-0.2,1.1-0.4,1.6-0.6s1.3-0.3,2-0.4v-0.6c0-0.5-0.2-1-0.5-1.3
			c-0.3-0.3-0.8-0.5-1.4-0.5c-0.5,0-1,0.1-1.5,0.3c-0.5,0.2-1,0.5-1.3,0.8h-0.1V405z M333.4,409.3c-0.5,0.1-0.9,0.2-1.4,0.3
			s-0.9,0.3-1.2,0.4c-0.7,0.4-1.1,0.9-1.1,1.5c0,0.4,0.1,0.6,0.3,0.8c0.2,0.2,0.5,0.3,1,0.3c0.4,0,0.8-0.1,1.2-0.3
			c0.4-0.2,0.8-0.5,1.1-1V409.3z"/>
		<path class="st4" d="M339.2,404.3v-2.9l2.2-0.4v3.3h2.8v1.8h-2.8v4.7c0,0.5,0,0.9,0.1,1.2c0,0.3,0.1,0.6,0.2,0.8
			c0.1,0.2,0.3,0.4,0.5,0.6c0.2,0.2,0.5,0.3,0.8,0.5v0.2l-2.4,0.3c-0.2-0.1-0.4-0.2-0.6-0.4c-0.2-0.2-0.3-0.4-0.4-0.6
			s-0.2-0.6-0.3-0.9c-0.1-0.4-0.1-0.8-0.1-1.3v-4.9h-1.8v-1.8H339.2z"/>
	</g>
</g>
<g>
	<g>
		<rect x="391.1" y="312.7" class="st0" width="104.9" height="104.9"/>
	</g>
	<g>
		<rect x="391.1" y="311.2" class="st1" width="104.9" height="104.9"/>
	</g>
	<g>
		<rect x="391.1" y="309.8" class="st2" width="104.9" height="104.9"/>
	</g>
	<g>
		<rect x="391.1" y="298.5" class="st3" width="104.9" height="14.2"/>
	</g>
	<g>
		<path d="M425.8,332.1V320l-1.9,0.1l0.1-0.8h2.5v12.9H425.8z"/>
		<path d="M433.7,319.3c0.6-0.2,1.2-0.2,1.8-0.2c0.6,0,1.1,0.1,1.6,0.3c0.5,0.2,0.9,0.4,1.2,0.7c0.3,0.3,0.6,0.7,0.7,1.1
			c0.2,0.4,0.2,0.9,0.2,1.3c0,0.4,0,0.8-0.1,1.1c-0.1,0.3-0.2,0.7-0.3,1c-0.2,0.3-0.3,0.7-0.6,1c-0.2,0.3-0.5,0.7-0.8,1
			c-0.3,0.3-0.6,0.7-1,1.2s-0.8,0.9-1.3,1.3s-0.9,0.9-1.3,1.3s-0.8,0.8-1.2,1.1h7l-0.1,0.7h-8v-0.6c0.3-0.3,0.7-0.6,1.2-1
			s1-0.9,1.5-1.4s1-1,1.5-1.6c0.5-0.5,0.9-1,1.3-1.5c0.3-0.3,0.5-0.7,0.7-0.9c0.2-0.3,0.4-0.6,0.5-0.8c0.1-0.3,0.2-0.6,0.3-0.8
			s0.1-0.6,0.1-0.9c0-0.4-0.1-0.7-0.2-1.1c-0.1-0.3-0.3-0.6-0.6-0.9c-0.3-0.2-0.6-0.4-0.9-0.6c-0.4-0.1-0.8-0.2-1.3-0.2
			c-0.6,0-1.2,0.1-1.8,0.3c-0.6,0.2-1.1,0.5-1.7,0.9l0.2-1.1C432.6,319.7,433.1,319.4,433.7,319.3z"/>
		<path d="M453.9,331.3c0,0.6,0,1.4-1.5,1.4h-2.7l-0.2-1l2.9,0c0.5,0,0.5-0.2,0.5-0.6v-4H444c-0.1,2-0.7,4.2-2.1,5.6l-0.8-0.6
			c2-2,2-5.3,2-6.1v-7.6h10.8V331.3z M444,319.4v3.1h9v-3.1H444z M444,323.3v3.1h9v-3.1H444z"/>
		<path d="M419.2,395.2v-52.8h-7.3l0.2-1.4h8.6v54.1H419.2z"/>
		<path d="M458.7,396.4c-2.4,0-4.6-0.6-6.7-1.8c-2-1.2-3.8-2.9-5.3-5.3c-1.5-2.3-2.6-5.3-3.5-8.8c-0.8-3.5-1.2-7.6-1.2-12.3
			c0-4.8,0.4-8.9,1.2-12.4s1.9-6.5,3.4-8.8c1.5-2.4,3.2-4.1,5.2-5.3c2-1.2,4.2-1.8,6.7-1.8c2.4,0,4.5,0.6,6.6,1.8
			c2,1.2,3.8,2.9,5.3,5.3c1.5,2.4,2.7,5.3,3.5,8.8s1.3,7.6,1.3,12.3s-0.4,8.8-1.2,12.3c-0.8,3.5-2,6.5-3.4,8.8
			c-1.5,2.4-3.2,4.1-5.2,5.3C463.4,395.8,461.1,396.4,458.7,396.4z M458.7,394.9c2.2,0,4.2-0.6,6.1-1.7c1.8-1.1,3.4-2.8,4.8-5.1
			c1.3-2.3,2.3-5.1,3.1-8.4c0.7-3.3,1.1-7.2,1.1-11.6c0-4.5-0.4-8.4-1.2-11.7c-0.8-3.3-1.8-6.1-3.2-8.4c-1.3-2.2-2.9-3.9-4.8-5
			c-1.8-1.1-3.9-1.7-6-1.7c-4.6,0-8.2,2.2-10.9,6.7c-2.7,4.5-4.1,11.2-4.1,20.1c0,4.4,0.4,8.3,1.1,11.6c0.7,3.3,1.8,6.1,3.1,8.4
			c1.3,2.2,2.9,3.9,4.8,5C454.4,394.4,456.5,394.9,458.7,394.9z"/>
		<path d="M423.6,411.3c0.4,0.4,0.9,0.8,1.5,1c0.6,0.2,1.2,0.4,1.8,0.4c0.6,0,1-0.1,1.2-0.3c0.3-0.2,0.4-0.4,0.4-0.7
			c0-0.5-0.3-0.8-0.8-1.1c-0.4-0.2-0.8-0.4-1.2-0.5c-0.4-0.2-0.8-0.3-1.2-0.5c-0.7-0.3-1.2-0.7-1.4-1.2s-0.4-1-0.4-1.6
			c0-0.4,0.1-0.8,0.2-1.1s0.4-0.6,0.7-0.9c0.3-0.3,0.6-0.5,1-0.6c0.4-0.1,0.9-0.2,1.4-0.2c0.7,0,1.3,0.1,1.8,0.2
			c0.5,0.1,1,0.3,1.5,0.6l-0.5,2.1c-0.4-0.4-0.8-0.6-1.3-0.8c-0.5-0.2-1-0.3-1.4-0.3c-0.5,0-0.8,0.1-1,0.3c-0.2,0.2-0.3,0.4-0.3,0.7
			s0.1,0.5,0.2,0.6c0.1,0.2,0.3,0.3,0.6,0.4c0.3,0.1,0.7,0.3,1.1,0.5c0.4,0.2,0.8,0.3,1.2,0.5c0.7,0.3,1.2,0.8,1.5,1.2
			s0.4,1,0.4,1.6c0,0.9-0.3,1.6-1,2.1c-0.6,0.5-1.5,0.8-2.7,0.8c-0.8,0-1.4-0.1-2-0.3c-0.6-0.2-1-0.4-1.4-0.7L423.6,411.3z"/>
		<path d="M435.1,404.3v6.1c0,0.7,0.2,1.2,0.5,1.5s0.8,0.5,1.3,0.5c0.5,0,0.9-0.1,1.3-0.4c0.4-0.2,0.7-0.6,1-1
			c0.2-0.3,0.3-0.6,0.3-1v-5.6h2.2v9.6l-2.2,0.5v-1.8c-0.4,0.6-0.9,1-1.5,1.3c-0.6,0.3-1.2,0.5-1.9,0.5c-1,0-1.8-0.3-2.3-0.9
			c-0.5-0.6-0.8-1.4-0.8-2.5v-6.6H435.1z"/>
		<path d="M444.8,404.3h2.2v1.5c0.6-0.6,1.1-1.1,1.7-1.4c0.5-0.3,1.1-0.4,1.8-0.4c1,0,1.8,0.3,2.3,0.8c0.6,0.6,0.8,1.4,0.8,2.5v6.7
			h-2.2v-6c0-0.7-0.1-1.2-0.4-1.6s-0.7-0.5-1.3-0.5c-0.4,0-0.8,0.1-1.2,0.3s-0.7,0.4-0.9,0.7c-0.2,0.3-0.3,0.5-0.4,0.7
			c-0.1,0.2-0.1,0.6-0.1,1v5.3h-2.2V404.3z"/>
	</g>
	<g>
		<path class="st5" d="M423.6,411.3c0.4,0.4,0.9,0.8,1.5,1c0.6,0.2,1.2,0.4,1.8,0.4c0.6,0,1-0.1,1.2-0.3c0.3-0.2,0.4-0.4,0.4-0.7
			c0-0.5-0.3-0.8-0.8-1.1c-0.4-0.2-0.8-0.4-1.2-0.5c-0.4-0.2-0.8-0.3-1.2-0.5c-0.7-0.3-1.2-0.7-1.4-1.2s-0.4-1-0.4-1.6
			c0-0.4,0.1-0.8,0.2-1.1s0.4-0.6,0.7-0.9c0.3-0.3,0.6-0.5,1-0.6c0.4-0.1,0.9-0.2,1.4-0.2c0.7,0,1.3,0.1,1.8,0.2
			c0.5,0.1,1,0.3,1.5,0.6l-0.5,2.1c-0.4-0.4-0.8-0.6-1.3-0.8c-0.5-0.2-1-0.3-1.4-0.3c-0.5,0-0.8,0.1-1,0.3c-0.2,0.2-0.3,0.4-0.3,0.7
			s0.1,0.5,0.2,0.6c0.1,0.2,0.3,0.3,0.6,0.4c0.3,0.1,0.7,0.3,1.1,0.5c0.4,0.2,0.8,0.3,1.2,0.5c0.7,0.3,1.2,0.8,1.5,1.2
			s0.4,1,0.4,1.6c0,0.9-0.3,1.6-1,2.1c-0.6,0.5-1.5,0.8-2.7,0.8c-0.8,0-1.4-0.1-2-0.3c-0.6-0.2-1-0.4-1.4-0.7L423.6,411.3z"/>
		<path class="st5" d="M435.1,404.3v6.1c0,0.7,0.2,1.2,0.5,1.5s0.8,0.5,1.3,0.5c0.5,0,0.9-0.1,1.3-0.4c0.4-0.2,0.7-0.6,1-1
			c0.2-0.3,0.3-0.6,0.3-1v-5.6h2.2v9.6l-2.2,0.5v-1.8c-0.4,0.6-0.9,1-1.5,1.3c-0.6,0.3-1.2,0.5-1.9,0.5c-1,0-1.8-0.3-2.3-0.9
			c-0.5-0.6-0.8-1.4-0.8-2.5v-6.6H435.1z"/>
		<path class="st5" d="M444.8,404.3h2.2v1.5c0.6-0.6,1.1-1.1,1.7-1.4c0.5-0.3,1.1-0.4,1.8-0.4c1,0,1.8,0.3,2.3,0.8
			c0.6,0.6,0.8,1.4,0.8,2.5v6.7h-2.2v-6c0-0.7-0.1-1.2-0.4-1.6s-0.7-0.5-1.3-0.5c-0.4,0-0.8,0.1-1.2,0.3s-0.7,0.4-0.9,0.7
			c-0.2,0.3-0.3,0.5-0.4,0.7c-0.1,0.2-0.1,0.6-0.1,1v5.3h-2.2V404.3z"/>
	</g>
</g>
<g>
	<g>
		<rect x="512.7" y="312.7" class="st0" width="104.9" height="104.9"/>
	</g>
	<g>
		<rect x="512.7" y="311.2" class="st1" width="104.9" height="104.9"/>
	</g>
	<g>
		<rect x="512.7" y="309.8" class="st2" width="104.9" height="104.9"/>
	</g>
	<g>
		<rect x="512.7" y="298.5" class="st3" width="104.9" height="14.2"/>
	</g>
	<g>
		<path d="M559,325.4c0.8,0.3,1.5,0.6,1.9,1.2c0.5,0.5,0.7,1.2,0.7,2.1c0,0.6-0.1,1.1-0.3,1.5c-0.2,0.5-0.6,0.8-1,1.2
			c-0.4,0.3-0.9,0.6-1.5,0.7s-1.2,0.3-1.9,0.3c-0.5,0-1,0-1.4-0.1c-0.4-0.1-0.8-0.2-1.1-0.4l0-0.9c0.4,0.2,0.8,0.4,1.2,0.4
			c0.4,0.1,0.9,0.1,1.4,0.1c0.6,0,1.2-0.1,1.7-0.2c0.5-0.1,0.9-0.3,1.3-0.6c0.3-0.3,0.6-0.6,0.8-0.9c0.2-0.4,0.3-0.7,0.3-1.2
			c0-0.8-0.3-1.5-0.9-2c-0.6-0.5-1.5-0.8-2.7-0.8c-0.4,0-0.8,0-1.2,0c-0.4,0-0.7,0.1-1,0.1l0.2-0.9c0.2,0,0.4,0,0.7,0
			c0.2,0,0.5,0,0.8,0c0.6,0,1.1-0.1,1.6-0.2s0.9-0.3,1.2-0.5c0.3-0.2,0.6-0.5,0.8-0.9s0.3-0.7,0.3-1.2c0-0.4-0.1-0.7-0.2-1
			c-0.1-0.3-0.3-0.6-0.6-0.8s-0.6-0.4-0.9-0.6c-0.4-0.1-0.8-0.2-1.3-0.2c-0.5,0-1,0-1.4,0.1c-0.4,0.1-0.8,0.2-1.2,0.5l0.2-1
			c0.7-0.3,1.4-0.4,2.4-0.4c0.6,0,1.1,0.1,1.6,0.3c0.5,0.2,0.9,0.4,1.2,0.7c0.3,0.3,0.6,0.7,0.7,1.1c0.2,0.4,0.2,0.8,0.2,1.3
			c0,0.7-0.2,1.3-0.6,1.8C560.3,324.7,559.7,325.1,559,325.4z"/>
		<path d="M576.5,331.3c0,0.6,0,1.4-1.5,1.4h-2.7l-0.2-1l2.9,0c0.5,0,0.5-0.2,0.5-0.6v-4h-9.1c-0.1,2-0.7,4.2-2.1,5.6l-0.8-0.6
			c2-2,2-5.3,2-6.1v-7.6h10.8V331.3z M566.6,319.4v3.1h9v-3.1H566.6z M566.6,323.3v3.1h9v-3.1H566.6z"/>
		<path d="M576.1,376.1H547v-0.2l30.4-36.9h0.2v35.7h5.7v1.4h-5.7v19.1h-1.4V376.1z M576.1,374.8v-32l-26.4,32H576.1z"/>
		<path d="M554,411.3c0.4,0.4,0.9,0.8,1.5,1c0.6,0.2,1.2,0.4,1.8,0.4c0.6,0,1-0.1,1.2-0.3c0.3-0.2,0.4-0.4,0.4-0.7
			c0-0.5-0.3-0.8-0.8-1.1c-0.4-0.2-0.8-0.4-1.2-0.5c-0.4-0.2-0.8-0.3-1.2-0.5c-0.7-0.3-1.2-0.7-1.4-1.2c-0.3-0.4-0.4-1-0.4-1.6
			c0-0.4,0.1-0.8,0.2-1.1s0.4-0.6,0.7-0.9c0.3-0.3,0.6-0.5,1-0.6c0.4-0.1,0.9-0.2,1.4-0.2c0.7,0,1.3,0.1,1.8,0.2
			c0.5,0.1,1,0.3,1.5,0.6l-0.5,2.1c-0.4-0.4-0.8-0.6-1.3-0.8c-0.5-0.2-1-0.3-1.4-0.3c-0.5,0-0.8,0.1-1,0.3c-0.2,0.2-0.3,0.4-0.3,0.7
			s0.1,0.5,0.2,0.6c0.1,0.2,0.3,0.3,0.6,0.4c0.3,0.1,0.7,0.3,1.1,0.5c0.4,0.2,0.8,0.3,1.2,0.5c0.7,0.3,1.2,0.8,1.5,1.2
			s0.4,1,0.4,1.6c0,0.9-0.3,1.6-1,2.1c-0.6,0.5-1.5,0.8-2.7,0.8c-0.8,0-1.4-0.1-2-0.3c-0.6-0.2-1-0.4-1.4-0.7L554,411.3z"/>
		<path d="M563.7,405c0.5-0.3,1-0.6,1.6-0.7c0.6-0.2,1.2-0.2,1.7-0.2c1.3,0,2.2,0.3,2.8,0.9s0.9,1.5,0.9,2.6v6.3l-2.1,0.5V413
			c-0.5,0.4-1,0.7-1.5,1c-0.5,0.3-1.2,0.4-1.8,0.4c-0.8,0-1.4-0.2-1.9-0.6c-0.5-0.4-0.7-1-0.7-1.7c0-0.7,0.2-1.3,0.6-1.7
			c0.4-0.5,0.9-0.9,1.7-1.2c0.5-0.2,1.1-0.4,1.6-0.6s1.3-0.3,2-0.4v-0.6c0-0.5-0.2-1-0.5-1.3c-0.3-0.3-0.8-0.5-1.4-0.5
			c-0.5,0-1,0.1-1.5,0.3c-0.5,0.2-1,0.5-1.3,0.8h-0.1V405z M568.5,409.3c-0.5,0.1-0.9,0.2-1.4,0.3s-0.9,0.3-1.2,0.4
			c-0.7,0.4-1.1,0.9-1.1,1.5c0,0.4,0.1,0.6,0.3,0.8c0.2,0.2,0.5,0.3,1,0.3c0.4,0,0.8-0.1,1.2-0.3c0.4-0.2,0.8-0.5,1.1-1V409.3z"/>
		<path d="M574.2,404.3v-2.9l2.2-0.4v3.3h2.8v1.8h-2.8v4.7c0,0.5,0,0.9,0.1,1.2c0,0.3,0.1,0.6,0.2,0.8c0.1,0.2,0.3,0.4,0.5,0.6
			c0.2,0.2,0.5,0.3,0.8,0.5v0.2l-2.4,0.3c-0.2-0.1-0.4-0.2-0.6-0.4c-0.2-0.2-0.3-0.4-0.4-0.6s-0.2-0.6-0.3-0.9
			c-0.1-0.4-0.1-0.8-0.1-1.3v-4.9h-1.8v-1.8H574.2z"/>
	</g>
	<g>
		<path class="st4" d="M554,411.3c0.4,0.4,0.9,0.8,1.5,1c0.6,0.2,1.2,0.4,1.8,0.4c0.6,0,1-0.1,1.2-0.3c0.3-0.2,0.4-0.4,0.4-0.7
			c0-0.5-0.3-0.8-0.8-1.1c-0.4-0.2-0.8-0.4-1.2-0.5c-0.4-0.2-0.8-0.3-1.2-0.5c-0.7-0.3-1.2-0.7-1.4-1.2c-0.3-0.4-0.4-1-0.4-1.6
			c0-0.4,0.1-0.8,0.2-1.1s0.4-0.6,0.7-0.9c0.3-0.3,0.6-0.5,1-0.6c0.4-0.1,0.9-0.2,1.4-0.2c0.7,0,1.3,0.1,1.8,0.2
			c0.5,0.1,1,0.3,1.5,0.6l-0.5,2.1c-0.4-0.4-0.8-0.6-1.3-0.8c-0.5-0.2-1-0.3-1.4-0.3c-0.5,0-0.8,0.1-1,0.3c-0.2,0.2-0.3,0.4-0.3,0.7
			s0.1,0.5,0.2,0.6c0.1,0.2,0.3,0.3,0.6,0.4c0.3,0.1,0.7,0.3,1.1,0.5c0.4,0.2,0.8,0.3,1.2,0.5c0.7,0.3,1.2,0.8,1.5,1.2
			s0.4,1,0.4,1.6c0,0.9-0.3,1.6-1,2.1c-0.6,0.5-1.5,0.8-2.7,0.8c-0.8,0-1.4-0.1-2-0.3c-0.6-0.2-1-0.4-1.4-0.7L554,411.3z"/>
		<path class="st4" d="M563.7,405c0.5-0.3,1-0.6,1.6-0.7c0.6-0.2,1.2-0.2,1.7-0.2c1.3,0,2.2,0.3,2.8,0.9s0.9,1.5,0.9,2.6v6.3
			l-2.1,0.5V413c-0.5,0.4-1,0.7-1.5,1c-0.5,0.3-1.2,0.4-1.8,0.4c-0.8,0-1.4-0.2-1.9-0.6c-0.5-0.4-0.7-1-0.7-1.7
			c0-0.7,0.2-1.3,0.6-1.7c0.4-0.5,0.9-0.9,1.7-1.2c0.5-0.2,1.1-0.4,1.6-0.6s1.3-0.3,2-0.4v-0.6c0-0.5-0.2-1-0.5-1.3
			c-0.3-0.3-0.8-0.5-1.4-0.5c-0.5,0-1,0.1-1.5,0.3c-0.5,0.2-1,0.5-1.3,0.8h-0.1V405z M568.5,409.3c-0.5,0.1-0.9,0.2-1.4,0.3
			s-0.9,0.3-1.2,0.4c-0.7,0.4-1.1,0.9-1.1,1.5c0,0.4,0.1,0.6,0.3,0.8c0.2,0.2,0.5,0.3,1,0.3c0.4,0,0.8-0.1,1.2-0.3
			c0.4-0.2,0.8-0.5,1.1-1V409.3z"/>
		<path class="st4" d="M574.2,404.3v-2.9l2.2-0.4v3.3h2.8v1.8h-2.8v4.7c0,0.5,0,0.9,0.1,1.2c0,0.3,0.1,0.6,0.2,0.8
			c0.1,0.2,0.3,0.4,0.5,0.6c0.2,0.2,0.5,0.3,0.8,0.5v0.2l-2.4,0.3c-0.2-0.1-0.4-0.2-0.6-0.4c-0.2-0.2-0.3-0.4-0.4-0.6
			s-0.2-0.6-0.3-0.9c-0.1-0.4-0.1-0.8-0.1-1.3v-4.9h-1.8v-1.8H574.2z"/>
	</g>
</g>
<g>
	<g>
		<rect x="621.1" y="312.7" class="st0" width="104.9" height="104.9"/>
	</g>
	<g>
		<rect x="621.1" y="311.2" class="st1" width="104.9" height="104.9"/>
	</g>
	<g>
		<rect x="621.1" y="309.8" class="st2" width="104.9" height="104.9"/>
	</g>
	<g>
		<rect x="621.1" y="298.5" class="st3" width="104.9" height="14.2"/>
	</g>
	<g>
		<path d="M666.8,325.4c0.8,0.3,1.5,0.6,1.9,1.2c0.5,0.5,0.7,1.2,0.7,2.1c0,0.6-0.1,1.1-0.3,1.5c-0.2,0.5-0.6,0.8-1,1.2
			c-0.4,0.3-0.9,0.6-1.5,0.7c-0.6,0.2-1.2,0.3-1.9,0.3c-0.5,0-1,0-1.4-0.1c-0.4-0.1-0.8-0.2-1.1-0.4l0-0.9c0.4,0.2,0.8,0.4,1.2,0.4
			s0.9,0.1,1.4,0.1c0.6,0,1.2-0.1,1.7-0.2c0.5-0.1,0.9-0.3,1.3-0.6c0.3-0.3,0.6-0.6,0.8-0.9s0.3-0.7,0.3-1.2c0-0.8-0.3-1.5-0.9-2
			s-1.5-0.8-2.7-0.8c-0.4,0-0.8,0-1.2,0c-0.4,0-0.7,0.1-1,0.1l0.2-0.9c0.2,0,0.4,0,0.7,0c0.2,0,0.5,0,0.8,0c0.6,0,1.1-0.1,1.6-0.2
			s0.9-0.3,1.2-0.5s0.6-0.5,0.8-0.9c0.2-0.3,0.3-0.7,0.3-1.2c0-0.4-0.1-0.7-0.2-1c-0.1-0.3-0.3-0.6-0.6-0.8s-0.6-0.4-0.9-0.6
			c-0.4-0.1-0.8-0.2-1.3-0.2c-0.5,0-1,0-1.4,0.1c-0.4,0.1-0.8,0.2-1.2,0.5l0.2-1c0.7-0.3,1.5-0.4,2.4-0.4c0.6,0,1.1,0.1,1.6,0.3
			c0.5,0.2,0.9,0.4,1.2,0.7c0.3,0.3,0.6,0.7,0.7,1.1c0.2,0.4,0.2,0.8,0.2,1.3c0,0.7-0.2,1.3-0.6,1.8
			C668,324.7,667.5,325.1,666.8,325.4z"/>
		<path d="M684.3,331.3c0,0.6,0,1.4-1.5,1.4h-2.7l-0.2-1l2.9,0c0.5,0,0.5-0.2,0.5-0.6v-4h-9.1c-0.1,2-0.7,4.2-2.1,5.6l-0.8-0.6
			c2-2,2-5.3,2-6.1v-7.6h10.8V331.3z M674.4,319.4v3.1h9v-3.1H674.4z M674.4,323.3v3.1h9v-3.1H674.4z"/>
		<path d="M687.8,342.4h-25.5l-2.4,19.2c0.7-0.1,1.6-0.2,2.8-0.2c1.2,0,2.3-0.1,3.4-0.1c3.6,0,6.9,0.4,9.6,1.3
			c2.8,0.8,5.1,2,6.9,3.5c1.8,1.5,3.2,3.3,4.1,5.3c0.9,2.1,1.4,4.3,1.4,6.7c0,6.2-2.4,11-7.1,14.5c-4.8,3.5-11.6,5.3-20.4,5.3
			c-0.5,0-0.9,0-1.3,0c-0.4,0-0.7,0-1-0.1l0.1-1.4c0.3,0,0.6,0.1,1,0.1c0.4,0,0.8,0,1.2,0c8.5,0,15-1.6,19.4-4.9
			c4.4-3.3,6.7-7.8,6.7-13.5c0-2.3-0.4-4.3-1.3-6.2c-0.9-1.9-2.2-3.5-3.9-4.9c-1.7-1.3-3.9-2.4-6.5-3.1c-2.6-0.7-5.6-1.1-9-1.1
			c-1.4,0-2.7,0-4,0.1c-1.3,0.1-2.5,0.2-3.8,0.4l2.8-22.2h27L687.8,342.4z"/>
		<path d="M658.8,411.3c0.4,0.4,0.9,0.8,1.5,1c0.6,0.2,1.2,0.4,1.8,0.4c0.6,0,1-0.1,1.2-0.3c0.3-0.2,0.4-0.4,0.4-0.7
			c0-0.5-0.3-0.8-0.8-1.1c-0.4-0.2-0.8-0.4-1.2-0.5c-0.4-0.2-0.8-0.3-1.2-0.5c-0.7-0.3-1.2-0.7-1.4-1.2s-0.4-1-0.4-1.6
			c0-0.4,0.1-0.8,0.2-1.1s0.4-0.6,0.7-0.9c0.3-0.3,0.6-0.5,1-0.6c0.4-0.1,0.9-0.2,1.4-0.2c0.7,0,1.3,0.1,1.8,0.2
			c0.5,0.1,1,0.3,1.5,0.6l-0.5,2.1c-0.4-0.4-0.8-0.6-1.3-0.8c-0.5-0.2-1-0.3-1.4-0.3c-0.5,0-0.8,0.1-1,0.3c-0.2,0.2-0.3,0.4-0.3,0.7
			s0.1,0.5,0.2,0.6c0.1,0.2,0.3,0.3,0.6,0.4c0.3,0.1,0.7,0.3,1.1,0.5c0.4,0.2,0.8,0.3,1.2,0.5c0.7,0.3,1.2,0.8,1.5,1.2
			s0.4,1,0.4,1.6c0,0.9-0.3,1.6-1,2.1c-0.6,0.5-1.5,0.8-2.7,0.8c-0.8,0-1.4-0.1-2-0.3c-0.6-0.2-1-0.4-1.4-0.7L658.8,411.3z"/>
		<path d="M670.2,404.3v6.1c0,0.7,0.2,1.2,0.5,1.5s0.8,0.5,1.3,0.5c0.5,0,0.9-0.1,1.3-0.4c0.4-0.2,0.7-0.6,1-1
			c0.2-0.3,0.3-0.6,0.3-1v-5.6h2.2v9.6l-2.2,0.5v-1.8c-0.4,0.6-0.9,1-1.5,1.3c-0.6,0.3-1.2,0.5-1.9,0.5c-1,0-1.8-0.3-2.3-0.9
			c-0.5-0.6-0.8-1.4-0.8-2.5v-6.6H670.2z"/>
		<path d="M680,404.3h2.2v1.5c0.6-0.6,1.1-1.1,1.7-1.4c0.5-0.3,1.1-0.4,1.8-0.4c1,0,1.8,0.3,2.3,0.8c0.6,0.6,0.8,1.4,0.8,2.5v6.7
			h-2.2v-6c0-0.7-0.1-1.2-0.4-1.6s-0.7-0.5-1.3-0.5c-0.4,0-0.8,0.1-1.2,0.3s-0.7,0.4-0.9,0.7c-0.2,0.3-0.3,0.5-0.4,0.7
			c-0.1,0.2-0.1,0.6-0.1,1v5.3H680V404.3z"/>
	</g>
	<g>
		<path class="st5" d="M658.8,411.3c0.4,0.4,0.9,0.8,1.5,1c0.6,0.2,1.2,0.4,1.8,0.4c0.6,0,1-0.1,1.2-0.3c0.3-0.2,0.4-0.4,0.4-0.7
			c0-0.5-0.3-0.8-0.8-1.1c-0.4-0.2-0.8-0.4-1.2-0.5c-0.4-0.2-0.8-0.3-1.2-0.5c-0.7-0.3-1.2-0.7-1.4-1.2s-0.4-1-0.4-1.6
			c0-0.4,0.1-0.8,0.2-1.1s0.4-0.6,0.7-0.9c0.3-0.3,0.6-0.5,1-0.6c0.4-0.1,0.9-0.2,1.4-0.2c0.7,0,1.3,0.1,1.8,0.2
			c0.5,0.1,1,0.3,1.5,0.6l-0.5,2.1c-0.4-0.4-0.8-0.6-1.3-0.8c-0.5-0.2-1-0.3-1.4-0.3c-0.5,0-0.8,0.1-1,0.3c-0.2,0.2-0.3,0.4-0.3,0.7
			s0.1,0.5,0.2,0.6c0.1,0.2,0.3,0.3,0.6,0.4c0.3,0.1,0.7,0.3,1.1,0.5c0.4,0.2,0.8,0.3,1.2,0.5c0.7,0.3,1.2,0.8,1.5,1.2
			s0.4,1,0.4,1.6c0,0.9-0.3,1.6-1,2.1c-0.6,0.5-1.5,0.8-2.7,0.8c-0.8,0-1.4-0.1-2-0.3c-0.6-0.2-1-0.4-1.4-0.7L658.8,411.3z"/>
		<path class="st5" d="M670.2,404.3v6.1c0,0.7,0.2,1.2,0.5,1.5s0.8,0.5,1.3,0.5c0.5,0,0.9-0.1,1.3-0.4c0.4-0.2,0.7-0.6,1-1
			c0.2-0.3,0.3-0.6,0.3-1v-5.6h2.2v9.6l-2.2,0.5v-1.8c-0.4,0.6-0.9,1-1.5,1.3c-0.6,0.3-1.2,0.5-1.9,0.5c-1,0-1.8-0.3-2.3-0.9
			c-0.5-0.6-0.8-1.4-0.8-2.5v-6.6H670.2z"/>
		<path class="st5" d="M680,404.3h2.2v1.5c0.6-0.6,1.1-1.1,1.7-1.4c0.5-0.3,1.1-0.4,1.8-0.4c1,0,1.8,0.3,2.3,0.8
			c0.6,0.6,0.8,1.4,0.8,2.5v6.7h-2.2v-6c0-0.7-0.1-1.2-0.4-1.6s-0.7-0.5-1.3-0.5c-0.4,0-0.8,0.1-1.2,0.3s-0.7,0.4-0.9,0.7
			c-0.2,0.3-0.3,0.5-0.4,0.7c-0.1,0.2-0.1,0.6-0.1,1v5.3H680V404.3z"/>
	</g>
</g>
<g>
	<g>
		<rect x="81.7" y="435.3" class="st6" width="136.1" height="8.2"/>
	</g>
	<g>
		<path d="M98.5,435.6c-0.4-0.4-0.4-0.4-0.9-0.8c-0.6,0.1-6,0.4-9.8,0.5l-0.1-1.8c0.3,0,2,0,2.4,0c0.2-0.4,0.3-0.5,0.6-0.9h-3.3
			v-1.8h5.5v-0.7H95v0.7h5.6v1.8H98c0.6,0.4,1.6,1,2.5,1.8l-1.8,1.2h0.5v6.5c0,1.1-0.8,1.3-1.3,1.3H95l-0.4-1.8h2
			c0.2,0,0.4,0,0.4-0.3v-0.4h-6.2v2.5h-2.1v-7.8H98.5z M97.1,437h-6.2v0.6h6.2V437z M97.1,438.9h-6.2v0.6h6.2V438.9z M95.8,432.5H93
			c-0.1,0.1-0.5,0.7-0.6,0.9c1,0,2.2-0.1,3.2-0.1c-0.3-0.1-0.3-0.2-0.6-0.3L95.8,432.5z"/>
		<path d="M101.2,441.3c2.6-0.3,4-1.2,4.6-1.7h-4.4v-2h1.4v-3.5h4.1v-0.8h2.1v0.8h4.1v3.5h1.4v2h-4.5c0.5,0.5,1.5,1.4,4.7,1.7
			l-1.1,2.2c-0.8-0.1-1.9-0.3-3.4-1.2c-1.1-0.7-1.8-1.5-2.2-2.1c-0.8,1.1-2.4,2.6-5.6,3.5L101.2,441.3z M104,430.1h2v0.9h3.8v-0.9
			h2.1v0.9h2.6v2H112v0.8h-2.1V433h-3.8v0.8h-2V433h-2.6v-2h2.6V430.1z M107,435.9h-2.1v1.7h2c0.1-0.3,0.1-0.6,0.1-0.8V435.9z
			 M109,436.4c0,0.6-0.1,1-0.1,1.1h2.2v-1.7H109V436.4z"/>
		<path d="M115.2,435.7c0.5-0.1,1.1-0.3,2-0.7c-0.3-0.4-0.8-0.9-1-1.2c-0.1,0-0.1,0.1-0.2,0.1l-0.8-1.8c1.5-0.8,2.1-1.6,2.5-2.2
			l2.2,0.1c-0.1,0.3-0.1,0.3-0.3,0.6h2.1l1.2-0.3c0.2,0.3,0.4,0.7,0.7,1.3v-1h4.8v1.6c-0.6,1.1-1.3,1.9-1.6,2.3
			c0.8,0.4,1.4,0.7,2.1,0.9l-1.1,1.9c-0.5-0.2-1.2-0.5-2.1-1v0.5h-7.1v-0.5c-1,0.6-1.6,0.8-2.2,1L115.2,435.7z M115.2,441.6
			c0.4-0.2,1.6-0.8,2.7-2.1h-2.1v-1.8h12.4v1.8h-2.3c0.4,0.4,1.6,1.5,2.9,2.1l-1.4,1.7c-0.6-0.3-2.2-1.3-3.4-3l1.6-0.8H123v2.4
			c0,1-0.6,1.3-1.4,1.3h-2.4l-0.5-1.8c-0.9,1-1.6,1.4-2.2,1.7L115.2,441.6z M118.2,434.4c0.2-0.1,0.3-0.2,0.4-0.3
			c-0.2-0.3-0.6-0.7-1.1-1.1c-0.2,0.1-0.3,0.2-0.4,0.3C117.3,433.5,118,434.1,118.2,434.4z M119.8,440.4c-0.2,0.3-0.4,0.6-0.8,1.1
			h1.6c0.1,0,0.3,0,0.3-0.3v-1.6h-2.6L119.8,440.4z M118.3,432.3c0.3,0.3,0.8,0.7,1.1,1.1c0.4-0.4,0.6-0.7,0.8-1.1H118.3z
			 M123.8,435.2c-0.4-0.4-1.1-1-1.8-2.2c-0.3,0.5-0.8,1.3-1.8,2.2H123.8z M124,432.3c0.5,0.6,0.9,1,1.2,1.2c0.3-0.4,0.5-0.6,0.8-1.2
			H124z"/>
		<path d="M134.9,432.2v-2.2h2.2v2.2h5.1v7.4H137v3.7h-2.2v-3.7h-5v-7.4H134.9z M134.9,434.3H132v3.3h2.9V434.3z M140,434.3H137v3.3
			h2.9V434.3z"/>
		<path d="M143.8,430.5h5.7v5.4h-3.8v7.4h-2V430.5z M145.7,432v0.6h1.8V432H145.7z M145.7,433.8v0.7h1.8v-0.7H145.7z M153.1,441.3
			h0.7c0.4,0,0.4-0.2,0.4-0.5v-4.9h-3.9v-5.4h5.9v11.3c0,1.5-1.2,1.5-1.2,1.5h-2.7l-0.2-1.3h-5.2v-5.5h6.3V441.3z M148.7,438v0.7
			h2.5V438H148.7z M148.7,439.8v0.7h2.5v-0.7H148.7z M152.3,432v0.6h1.9V432H152.3z M152.3,433.8v0.7h1.9v-0.7H152.3z"/>
		<path d="M166.5,431.8l2,2.3c-0.5,2.7-1.8,6.5-6.7,8.8l-1.5-1.9c4.9-2,5.6-5.8,5.9-7h-7.8v-2.2H166.5z M171.1,431.6
			c0,1-0.9,1.9-1.9,1.9c-1.1,0-1.9-0.9-1.9-1.9c0-1.1,0.9-1.9,1.9-1.9C170.2,429.6,171.1,430.5,171.1,431.6z M168.2,431.6
			c0,0.5,0.4,1,1,1c0.5,0,1-0.4,1-1c0-0.5-0.4-1-1-1C168.6,430.6,168.2,431,168.2,431.6z"/>
		<path d="M176,430.7v9.2c1.7-0.5,4.3-1.6,6.7-4.7l1.6,1.6c-3.4,4.5-7.9,5.5-10.6,5.9v-11.9H176z"/>
		<path d="M189.1,430.5h2.3v3.1l5.7-0.3l0.9,1.2c-1,1.8-2,3-3.3,4.4l-1.8-1.3c0.7-0.7,1.1-1.2,1.8-2.1l-3.4,0.2v3.6c0,1,0.3,1,2.3,1
			c1.3,0,2.6-0.1,3.9-0.2l-0.1,2.3c-0.7,0-2.1,0.1-4.1,0.1c-2.4,0-4.2-0.2-4.2-2.8v-3.9l-3,0.2l-0.1-2.2l3.2-0.2V430.5z
			 M195.3,429.7c0.6,0.8,1,1.5,1.5,2.6l-1.1,0.6c-0.5-1.1-0.8-1.7-1.5-2.6L195.3,429.7z M197.5,429.6c0.6,0.9,0.9,1.5,1.4,2.6
			l-1.1,0.6c-0.4-1.1-0.7-1.7-1.3-2.7L197.5,429.6z"/>
		<path d="M204.9,435.4c-1.4-0.9-2.6-1.5-4.2-2.1l1.1-2c1.6,0.5,2.9,1.1,4.4,2.1L204.9,435.4z M212.1,435.3
			c-0.5,0.9-1.9,3.1-4.6,4.9c-1.9,1.3-3.8,2.1-6,2.5l-0.8-2.3c3.5-0.7,7.1-2.2,9.9-7.1L212.1,435.3z"/>
	</g>
</g>
<g>
	<g>
		<rect x="294" y="435.7" class="st6" width="178.7" height="7.7"/>
	</g>
	<g>
		<path d="M299.7,441.1c2.3-0.8,4.7-2.2,5.4-5.8h-5.2v-2.2h5.4v-3.1h2.2v3.1h5.6v2.2h-5.3c0.9,3.4,2.8,4.8,5.6,5.9l-1.2,2.1
			c-1.7-0.7-4.4-2.1-5.6-5.7c-1.4,3.7-4.4,5.1-5.7,5.7L299.7,441.1z"/>
		<path d="M315.6,432.1c-0.3-0.6-0.5-1-0.9-1.5l2.1-0.5c0.5,0.7,0.8,1.4,1.1,2h1.7c-0.2-0.6-0.4-0.9-0.8-1.7l2.1-0.5
			c0.3,0.6,0.8,1.6,0.9,2.1h1.3c0.4-0.8,0.8-1.8,0.8-2.1l2.3,0.5c-0.3,0.7-0.4,1-0.8,1.6h1.3v3.5h-1.8v0.8c-0.8,0.6-1.4,0.9-2.9,1.7
			h5v1.9h-5.5v2c0,0.9-0.5,1.4-1.4,1.4h-3l-0.4-2h2c0.4,0,0.5,0,0.5-0.5v-0.9h-5.6V438h5.6v-0.7h0.5c0.5-0.2,0.9-0.4,1.3-0.7H316v-1
			h-1.8v-3.5H315.6z M324.7,434h-8.5v0.8h8.5V434z"/>
		<path d="M329,439.5h8.3v-5.4h-8.2v-2.2h10.5v9.8H329V439.5z"/>
		<path d="M347.4,435.4c-1.4-0.9-2.6-1.5-4.2-2.1l1.1-2c1.6,0.5,2.9,1.1,4.4,2.1L347.4,435.4z M354.6,435.3
			c-0.5,0.9-1.9,3.1-4.6,4.9c-1.9,1.3-3.8,2.1-6,2.5l-0.8-2.3c3.5-0.7,7.1-2.2,9.9-7.1L354.6,435.3z"/>
		<path d="M359.4,436.4c-1.1-1.7-1.9-2.7-2.8-3.7l1.7-1.4c1.3,1.4,2,2.3,3,3.7L359.4,436.4z M368,431.6c-0.4,4-1.5,9.2-8,11.3
			l-1.8-1.8c6.3-1.7,7.2-6.4,7.4-9.8L368,431.6z"/>
		<path d="M382.5,435.7v2.2h-12v-2.2H382.5z"/>
		<path d="M388.7,437.4c-1.8-0.9-3.4-1.4-4.2-1.7l0.9-2c0.8,0.3,2.2,0.7,4.2,1.7L388.7,437.4z M396.8,435c-4.1,6.3-8.9,7.5-10.5,7.9
			l-0.9-2.3c5.9-1.1,9.1-6.2,9.9-7.6L396.8,435z M389.9,434.1c-1.5-0.7-2.5-1.1-4.1-1.7l0.9-2c1.5,0.5,2.4,0.9,4.1,1.6L389.9,434.1z
			"/>
		<path d="M399.6,441.3c2.8-1.4,3.5-3.4,3.5-6.3h2.3c0,0.5,0,0.8,0,1.2c0.7-0.7,1.3-1.2,2.1-2.5h-8.8v-2.2h11.2l0.9,1.1
			c-0.5,0.9-1.5,2.8-3.6,4.9l-1.8-1.4c-0.2,2.2-0.9,4.9-4,6.7L399.6,441.3z"/>
		<path d="M421,435.3c0.7,1,2.3,3.2,3.6,6.4l-2,1.1c-0.3-0.8-0.5-1.2-0.9-1.9l-9,1.3l-0.5-2.2l1.9-0.2c0.4-1,1.7-4.1,3.3-9.1
			l2.3,0.7c-1.4,4.2-2.7,7.3-3.1,8l4-0.5c-0.6-1.1-1.1-1.8-1.6-2.5L421,435.3z"/>
		<path d="M431.4,430.5c-0.2,5-1,9.7-4.1,12.7l-1.6-1.8c2-1.9,3.4-5.2,3.5-11L431.4,430.5z M437.7,443.3c-2.5-2.6-3.8-5.7-4-12.8
			l2.2-0.1c0.1,6.2,1.2,8.7,3.4,11.1L437.7,443.3z"/>
		<path d="M440.3,430.5h12.5v2h-5.2v3h4.4v2h-4.4v3.4h5.5v2h-13.2v-2h5.4v-3.4H441v-2h4.4v-3h-5.1V430.5z"/>
		<path d="M454.9,430.5h11.2v2c-1.5,1.2-2.4,1.6-4.5,2.6v0.5h5.5v2.1h-5.5v4.2c0,0.8-0.4,1.5-1.4,1.5h-3.4l-0.3-2.1h2.4
			c0.3,0,0.5,0,0.5-0.5v-3h-5.5v-2.1h5.5v-2h1c0.8-0.3,1.7-0.9,2-1.1h-7.6V430.5z"/>
	</g>
</g>
<g>
	<g>
		<rect x="565.3" y="435.7" class="st6" width="108.9" height="7.7"/>
	</g>
	<g>
		<path d="M578.1,437.7l-0.9-1l-1,1.1c-0.6-0.4-1.1-0.9-1.6-1.5c-0.8,1.2-1.6,1.8-2.1,2.2l-1.5-1.7c0.7-0.5,2.1-1.5,2.8-3.7h-2.4
			v-1.9h5.2v-1h2.2v1h5.2v1.9h-4.2l1.8,0.4c-0.1,0.3-0.2,0.7-0.5,1.1c1,1,1.9,1.5,3.2,2l-1.4,1.9h1.4v2h-5.6v2.8h-2.2v-2.8h-5.5v-2
			h5.5v-0.9H578.1z M575.9,433.4c-0.2,0.5-0.3,0.8-0.4,1.2c0.4,0.4,1.1,1,1.9,1.4c1.5-1.1,2-2.3,2.3-2.9h-5.5L575.9,433.4z
			 M578.8,437.7v0.9h4.1c-1.3-0.7-2.4-1.9-2.8-2.3c-0.6,0.8-1.1,1.2-1.5,1.5H578.8z"/>
		<path d="M597.5,443.2c-1.2-0.4-2.7-0.9-4.7-2.5v2.6h-2.1v-2.5c-1.3,1.1-2.6,1.8-4.7,2.4l-1-1.9c2-0.4,3.1-0.9,4.2-1.5h-4.1v-1.6
			h5.6v-0.6h-4.6v-1.3h4.6v-0.6h-5v-1.6h2.8c0-0.1-0.2-0.6-0.3-0.7h-3v-1.7h1.8c-0.2-0.4-0.4-0.9-0.6-1.3l2-0.4
			c0.3,0.6,0.4,1,0.6,1.7h0.6v-1.6h1.9v1.6h0.8v-1.6h1.8v1.6h0.6c0.2-0.5,0.5-1.2,0.6-1.7l2,0.4c-0.2,0.4-0.4,0.8-0.6,1.3h1.7v1.7
			h-3c-0.1,0.2-0.2,0.5-0.3,0.7h2.8v1.6h-5v0.6h4.7v1.3h-4.7v0.6h5.5v1.6h-4c0.7,0.4,1.7,0.9,4.2,1.4L597.5,443.2z M593,434.2
			c0.1-0.3,0.2-0.4,0.2-0.7h-2.9c0,0.1,0.3,0.7,0.3,0.7H593z"/>
		<path d="M604.4,437.1v-2h1.2v-2.6h-1v-2h7.5v2h-1.1v2.6h1.3v2h-1.3v6.3h-2v-6.3h-1.4c0,1.3,0,4.5-2.2,6.3l-1.4-1.5v1.1H600v-4.6
			c-0.1,0.1-0.2,0.2-0.5,0.5l-0.6-2.6c0.5-0.5,1.3-1.4,1.5-3.8h-1.2v-2h5v2h-1.9c-0.1,1-0.2,1.6-0.4,2.4h2.2v6.7
			c0.8-0.7,1.6-1.7,1.6-4.4H604.4z M602.5,436.7h-0.9v4.4h0.9V436.7z M607.6,435.1h1.4v-2.6h-1.4V435.1z"/>
		<path d="M617.8,436.8c0-0.4,0.1-0.7,0.1-1.2h2.1c0,0.3,0,0.5-0.1,1.2h3.9v4.1c0,0.1,0,0.3,0.2,0.3h0.6c0.2,0,0.2-0.2,0.2-0.3
			c0-0.2,0-1.5,0-1.7l1.8,0.4c-0.1,2.4-0.2,3.5-1.2,3.5h-2.5c-1.2,0-1.2-0.9-1.2-1.2v-3.2h-2.1c-1,3.3-4.6,4.4-5.4,4.7l-1.1-2.1
			c1.4-0.3,2.9-0.8,3.9-2c0.2-0.2,0.3-0.5,0.4-0.6h-3.5v-1.9H617.8z M613.6,434.7c1.4-0.2,3.1-0.5,3.5-1.8h-1.6v1.2h-2.1v-3h5.2v-1
			h2.1v1h5.3v3h-0.4c-0.1,1.2-0.4,1.9-1.3,1.9h-3.1c-0.9,0-1.1-0.5-1.1-1.1v-2H619c-0.5,2.9-3.7,3.5-4.5,3.7L613.6,434.7z M622,434
			c0,0.2,0,0.3,0.2,0.3h1c0.3,0,0.3-0.1,0.4-0.8l0.4,0.1v-0.7h-2V434z"/>
		<path d="M628.5,437c-0.4,0.4-0.6,0.6-0.9,0.9l-0.6-2.6c0.6-0.6,2-1.8,2.8-5.3l2.1,0.2c-0.2,0.7-0.4,2-1.1,3.5v9.6h-2.2V437z
			 M635.3,430.2c-0.1,0.4-0.2,0.9-0.4,1.6h5.4v2.1h-4.1v1.3h3.9v2h-3.9v1.4h3.9v2.1h-3.9v2.7H634v-9.4c-0.9,1.8-1.8,2.5-2.2,2.9
			l-1-2.2c1.1-1.1,2.1-2.8,2.4-4.7L635.3,430.2z"/>
		<path d="M647.2,436.5v6.5h-5.7v-6.5H647.2z M652.7,430.5v5.2h-9.8v-5.2H652.7z M643.5,438.4v2.7h1.7v-2.7H643.5z M644.9,432.3v1.6
			h5.7v-1.6H644.9z M654,436.5v6.5h-5.9v-6.5H654z M650,438.4v2.7h1.9v-2.7H650z"/>
		<path d="M668.1,439.7c-0.5,0.5-1.2,1.1-1.3,1.2c0.8,0.3,1.4,0.4,1.8,0.5l-1.1,1.9c-0.8-0.2-3-0.9-4.3-2.4l0,1.7
			c-1.5,0.3-4.1,0.6-5.1,0.6l-0.2-2c0.4,0,0.5,0,1.4,0V439h-1.2c-0.3,2.5-0.7,3.5-1.2,4.3l-1.8-1.4c0.4-0.7,1.1-2,1.1-5.3v-6.2h11.9
			v3.9h-1.9v0.7h1.9v1.5h-1.9v0.9h2.3v1.6h-1.4L668.1,439.7z M665.9,432.1H658v0.8h7.8V432.1z M660.1,434.4H658v3h2.1v-0.9h-1.8
			v-1.5h1.8V434.4z M661.2,441.2c1.1-0.1,1.4-0.1,1.9-0.2c-0.7-0.8-0.9-1.4-1.2-1.9h-0.7V441.2z M664.2,434.4H662v0.7h2.2V434.4z
			 M664.2,436.6H662v0.9h2.2V436.6z M664,439c0.2,0.3,0.5,0.7,1,1.1c0.3-0.4,0.7-0.8,1-1.1H664z"/>
	</g>
</g>
<g>
	<path d="M35.4,220.9l4.2-34.6l-5.2,0.7l0.6-2.2l7-0.6l-4.5,36.6L35.4,220.9z"/>
	<path d="M59.3,218.8l4.2-34.6l-5.2,0.7l0.6-2.2l7-0.6l-4.5,36.6L59.3,218.8z"/>
	<path d="M79.3,214c0.5,0,0.9,0.1,1.2,0.3c0.3,0.2,0.5,0.6,0.5,1c0.1,0.6-0.1,1.1-0.5,1.5c-0.4,0.4-0.8,0.6-1.4,0.7
		c-0.5,0-0.9-0.1-1.2-0.3c-0.3-0.2-0.5-0.6-0.5-1c-0.1-0.6,0.1-1.1,0.4-1.5C78.2,214.3,78.7,214.1,79.3,214z"/>
	<path d="M138.5,176L86,180.6l63.1-72.7l0.4,0l-8.1,65.4l10.4-0.9l-0.3,2.5l-10.4,0.9l-4.2,35l-2.6,0.2L138.5,176z M138.8,173.5
		l7.2-58.2L92,177.6L138.8,173.5z"/>
	<path d="M165.3,144.4l14.4,20.3l-19.2,23.2l-2.8,0.2l18.6-23.5l-13.2-20L165.3,144.4z M181.8,143l14.4,20.3L177,186.5l-2.8,0.2
		l18.6-23.5l-13.2-20L181.8,143z"/>
	<path d="M265.9,103.8l-45.7,4l-8.9,35.6c1.2-0.3,2.6-0.6,4.3-0.8c1.7-0.3,3.2-0.5,4.6-0.6c6-0.5,11.4-0.3,16,0.6
		c4.6,0.9,8.5,2.5,11.7,4.5c3.2,2.1,5.6,4.7,7.4,7.8c1.8,3.2,2.8,6.7,3.1,10.6c0.5,6.1-0.3,11.7-2.4,16.8
		c-2.1,5.1-5.5,9.5-10.1,13.3c-4.6,3.8-10.5,6.9-17.6,9.4c-7.1,2.4-15.3,4.1-24.8,4.9c-0.4,0-1,0.1-1.6,0.1c-0.6,0.1-1.2,0.1-1.6,0
		l0.7-2.7c0.4,0,0.9,0.1,1.2,0c0.4,0,0.8-0.1,1.1-0.1c9.1-0.8,17-2.3,23.7-4.6c6.8-2.3,12.3-5.2,16.7-8.8c4.4-3.6,7.6-7.7,9.6-12.5
		c2-4.7,2.8-10,2.3-15.7c-0.3-3.5-1.3-6.7-2.9-9.6c-1.6-2.9-3.9-5.2-6.8-7.1c-2.9-1.9-6.5-3.2-10.7-4.1c-4.2-0.8-9.2-1-14.9-0.5
		c-2.2,0.2-4.2,0.4-6.3,0.7c-2,0.3-4.1,0.7-6.2,1.3l10.1-40.9l48.6-4.2L265.9,103.8z"/>
</g>
<polyline class="st7" points="73.8,229.6 160.1,222 186.7,219.7 273.1,212.1 "/>
<g>
	<path class="st4" d="M76.7,248.9c0.7,0.3,1.5,0.4,2.4,0.3c1-0.1,1.7-0.4,2.2-0.9c0.5-0.5,0.7-1.2,0.7-1.9c0-0.6-0.3-1.1-0.7-1.5
		c-0.4-0.5-1.2-1-2.3-1.6c-0.6-0.3-1.1-0.6-1.5-0.9c-0.4-0.3-0.7-0.7-1-1c-0.3-0.4-0.5-0.7-0.6-1.1c-0.1-0.4-0.2-0.8-0.3-1.3
		c-0.1-0.8,0-1.5,0.3-2.2c0.3-0.7,0.6-1.3,1.2-1.8c0.5-0.5,1.1-1,1.8-1.3c0.7-0.3,1.5-0.5,2.3-0.6c1.7-0.1,3.2,0.1,4.7,0.6l-0.5,3.7
		c-0.8-0.5-1.5-0.8-2.1-1c-0.6-0.2-1.2-0.3-1.8-0.2c-0.8,0.1-1.4,0.3-1.8,0.8s-0.6,1-0.5,1.6c0,0.2,0.1,0.5,0.2,0.7
		c0.1,0.2,0.3,0.4,0.5,0.6c0.2,0.2,0.5,0.4,0.9,0.7s0.9,0.5,1.4,0.8c1.2,0.6,2,1.3,2.5,2c0.5,0.7,0.8,1.6,0.9,2.7
		c0.1,0.9,0,1.7-0.3,2.5c-0.3,0.8-0.8,1.4-1.4,2c-0.6,0.6-1.3,1-2.2,1.4c-0.8,0.4-1.8,0.6-2.8,0.7c-0.9,0.1-1.8,0.1-2.6-0.1
		c-0.8-0.1-1.5-0.4-2.1-0.7l0.2-4l0.1,0C75.3,248.2,76,248.6,76.7,248.9z"/>
	<path class="st4" d="M89.4,239.7c0.5-0.4,1.1-0.7,1.8-0.9c0.7-0.2,1.3-0.3,2-0.4c1.4-0.1,2.5,0.1,3.2,0.7c0.7,0.6,1.1,1.5,1.2,2.7
		c0,0.4,0,0.9,0,1.4l-0.8,6.9l-3.3,0.9l0.2-1.3c-0.5,0.4-1.1,0.8-1.7,1.1c-0.6,0.3-1.3,0.5-1.9,0.5c-0.9,0.1-1.6-0.1-2.1-0.5
		c-0.5-0.4-0.8-1-0.9-1.9c-0.1-1,0.2-1.8,0.8-2.6c0.6-0.8,1.5-1.4,2.8-1.9c0.6-0.2,1.2-0.5,1.8-0.6c0.6-0.2,1.3-0.3,2-0.5l0-0.3
		c0-0.2,0-0.4,0-0.6c0-0.4-0.2-0.7-0.5-1c-0.3-0.2-0.7-0.3-1.3-0.3c-0.6,0.1-1.2,0.2-1.9,0.5c-0.7,0.3-1.2,0.7-1.7,1.2L89.4,239.7z
		 M94.2,245c-0.4,0.1-0.8,0.2-1.3,0.3c-0.4,0.1-0.8,0.3-1.1,0.4c-0.6,0.3-1,0.6-1.2,0.9c-0.2,0.3-0.3,0.7-0.3,1.1
		c0,0.3,0.1,0.6,0.4,0.7c0.2,0.2,0.5,0.2,0.9,0.2c0.4,0,0.8-0.2,1.2-0.4s0.8-0.6,1.1-1L94.2,245z"/>
	<path class="st4" d="M102.3,238.1l0.4-3.4l3.3-0.9l-0.5,4l3.2-0.3l-0.3,2.8l-3.2,0.3l-0.6,5.2c-0.1,0.7-0.1,1.3-0.1,1.7
		c0,0.5,0.2,0.9,0.4,1.2s0.6,0.5,1.1,0.8l-0.1,0.2l-3.3,0.7c-0.4-0.2-0.7-0.4-1-0.8c-0.3-0.3-0.4-0.8-0.5-1.5c0-0.2,0-0.4,0-0.7
		c0-0.3,0-0.5,0.1-0.8l0.7-5.7l-2.2,0.2l0.3-2.8L102.3,238.1z"/>
</g>
<g>
	<path class="st5" d="M189.7,238.9c0.7,0.3,1.5,0.4,2.4,0.3c1-0.1,1.7-0.4,2.2-0.9c0.5-0.5,0.7-1.2,0.7-1.9c0-0.6-0.3-1.1-0.7-1.5
		s-1.2-1-2.3-1.6c-0.6-0.3-1.1-0.6-1.5-0.9c-0.4-0.3-0.7-0.7-1-1c-0.3-0.4-0.5-0.7-0.6-1.1c-0.1-0.4-0.2-0.8-0.3-1.3
		c-0.1-0.8,0-1.5,0.3-2.2c0.3-0.7,0.6-1.3,1.2-1.8s1.1-1,1.8-1.3c0.7-0.3,1.5-0.5,2.3-0.6c1.7-0.1,3.2,0.1,4.7,0.6l-0.5,3.7
		c-0.8-0.5-1.5-0.8-2.1-1s-1.2-0.3-1.8-0.2c-0.8,0.1-1.4,0.3-1.8,0.8s-0.6,1-0.5,1.6c0,0.2,0.1,0.5,0.2,0.7s0.3,0.4,0.5,0.6
		c0.2,0.2,0.5,0.4,0.9,0.7c0.4,0.2,0.9,0.5,1.4,0.8c1.2,0.6,2,1.3,2.5,2c0.5,0.7,0.8,1.6,0.9,2.7c0.1,0.9,0,1.7-0.3,2.5
		c-0.3,0.8-0.8,1.4-1.4,2c-0.6,0.6-1.3,1-2.2,1.4c-0.8,0.4-1.8,0.6-2.8,0.7c-0.9,0.1-1.8,0.1-2.6-0.1c-0.8-0.1-1.5-0.4-2.1-0.7
		l0.2-4l0.1,0C188.2,238.2,189,238.6,189.7,238.9z"/>
	<path class="st5" d="M205.2,229l-0.9,7.2c0,0.1,0,0.3,0,0.4c0,0.1,0,0.2,0,0.3c0,0.5,0.2,0.8,0.5,1s0.6,0.3,1.1,0.2
		c0.5,0,0.9-0.2,1.4-0.5c0.4-0.3,0.8-0.6,1.1-1.1c0.1-0.2,0.2-0.4,0.3-0.6s0.1-0.4,0.2-0.7l0.8-6.6l3.3-0.3l-1.5,11.7L208,241
		l0.2-1.9c-0.5,0.6-1.1,1.1-1.8,1.5c-0.6,0.4-1.3,0.6-2.1,0.7c-1.1,0.1-1.9-0.1-2.5-0.6c-0.6-0.5-0.9-1.3-1-2.3c0-0.4,0-0.9,0-1.3
		l1-7.7L205.2,229z"/>
	<path class="st5" d="M216.5,228l3.3-0.3l-0.2,1.5c0.7-0.7,1.4-1.3,2-1.6c0.6-0.3,1.3-0.5,2-0.6c1-0.1,1.9,0.1,2.5,0.7
		c0.6,0.5,0.9,1.3,1,2.3c0,0.2,0,0.4,0,0.6c0,0.2,0,0.4,0,0.7l-1,7.8l-3.3,0.3l0.9-7.1c0-0.3,0-0.5,0-0.8c-0.1-0.9-0.6-1.3-1.6-1.3
		c-0.4,0-0.8,0.2-1.2,0.4s-0.7,0.5-0.9,0.7c-0.3,0.3-0.5,0.6-0.6,0.9s-0.3,0.7-0.3,1.2l-0.8,6.4L215,240L216.5,228z"/>
</g>
<g>
	<path d="M48.5,86.3C48,85.8,47.7,85.5,47,85c-1.9,0.4-9.6,1.6-14.6,2.1l0-2.3c0.5,0,3.3-0.3,3.9-0.4c0.6-0.8,0.9-1.3,1.1-1.7
		L32,83.2l0.2-2.3l8.6-0.8l0.1-1.3l2.6-0.2l-0.1,1.3l8.6-0.8l-0.2,2.3l-4.6,0.4c1.4,0.7,2.7,1.6,3.8,2.6L48.5,86.3z M48.1,96.1
		c-0.2,1.7-1.3,2.2-2.2,2.2l-3.9,0.3l-0.3-2.4L45,96c0.4,0,0.6-0.1,0.6-0.5l0.1-0.9l-9.9,0.9l-0.3,3.8l-2.6,0.2l1-11.8L49,86.3
		L48.1,96.1z M46,91.5l-9.9,0.9L36,93.5l9.9-0.9L46,91.5z M46.2,88.5l-9.9,0.9l-0.1,1.2l9.9-0.9L46.2,88.5z M45,82l-4.6,0.4
		c-0.7,1.1-0.8,1.1-1.2,1.6c1.8-0.2,3.4-0.4,5.3-0.7c-0.3-0.1-0.4-0.2-1-0.5L45,82z"/>
	<path d="M51.9,95.2c1.3-0.4,3.7-1.1,6.3-2.8c0.5-0.3,0.9-0.7,1.3-1.1l-7.1,0.6l0.2-2.4l2.2-0.2l0.5-5.9l6.4-0.6l0.1-1.3l2.6-0.2
		l-0.1,1.3l6.3-0.6l-0.5,5.9l2.2-0.2l-0.2,2.4l-7.3,0.6c1.8,2.2,5.4,2.4,7.3,2.4l-1.7,2.8c-5.6-0.4-7.7-3.6-8.2-4.7
		c-1.8,2.8-4.9,4.9-9,6.4L51.9,95.2z M57.8,77.3l2.5-0.2l-0.1,1.5l6.3-0.6l0.1-1.5l2.5-0.2L69,77.8l4.1-0.4L73,80l-4.1,0.4l-0.1,1.3
		l-2.5,0.2l0.1-1.3L60,81.1l-0.1,1.3l-2.5,0.2l0.1-1.3l-4.1,0.4l0.2-2.5l4.1-0.4L57.8,77.3z M61.5,85.1l-3.9,0.3l-0.3,3.6l3.7-0.3
		c0.1-0.4,0.3-1.4,0.4-2.5L61.5,85.1z M64,85.2c-0.1,1.3-0.3,2.5-0.5,3.3l4.1-0.4l0.3-3.6l-3.8,0.3L64,85.2z"/>
	<path d="M80,90.9c-2,2.7-4.4,4.2-5.2,4.6l-1.5-1.9c1.9-1.2,3.2-2.2,4.7-3.8L80,90.9z M79,79c0.3,0.2,0.9,0.6,1.7,1.4
		c0.8-0.9,1.1-1.3,1.4-1.9l-3.3,0.3c-1.4,1.4-2.6,2.3-3.5,2.8l-0.8-2.1c1.6-1,3.1-2.4,4.3-4.1l2.4,0.2c-0.2,0.3-0.3,0.6-0.6,1
		l4.1-0.4l1.5-0.5c0.2,0.5,0.5,1.1,1,1.9l0.1-1.6l6.9-0.6L94,77.5c-1,1.6-2.1,2.9-3,3.9c1.2,0.7,2.2,1,3.2,1.3l-1.7,2.5
		c-0.6-0.2-1.7-0.6-3.1-1.5l-0.1,1.1l-10.5,0.9l0.1-1c-1.6,1.2-2.9,1.8-3.8,2.2L74,84.8c0.8-0.3,1.7-0.6,3.1-1.5
		c-0.6-0.6-1-1-1.3-1.3l1.1-1.1c0.3,0.2,0.9,0.6,1.6,1.4c0.3-0.2,0.5-0.4,0.8-0.7c-0.1-0.1-0.6-0.8-1.5-1.6L79,79z M92.6,88.4
		L84.9,89l-0.3,3.8c-0.1,1.5-1.1,2.1-2.1,2.1L79,95.3l-0.2-2.4l2.6-0.2c0.1,0,0.5,0,0.6-0.5l0.3-2.9L74.5,90l0.2-2.3L92.9,86
		L92.6,88.4z M87.9,82.7c-0.5-0.4-2.1-1.8-3.4-4.2c-1.5,2.6-3.1,4.1-3.9,4.9L87.9,82.7z M91.4,94.1c-0.7-0.3-3.1-1.5-4.8-3.9
		l2.3-1.4c1.3,1.3,2.8,2.3,4.4,3L91.4,94.1z M87.4,78.1c0.8,1.2,1.5,1.8,1.9,2.1c0.9-1,1.3-1.6,1.9-2.5L87.4,78.1z"/>
	<path d="M104.5,76.7l0.3-3.5l2.7-0.2l-0.3,3.5l7.8-0.7L114,86.5l-7.8,0.7l-0.5,5.8l-2.7,0.2l0.5-5.8l-7.7,0.7l0.9-10.7L104.5,76.7z
		 M104.3,79.3l-5,0.4l-0.5,5.5l5-0.4L104.3,79.3z M112.1,78.6l-5.1,0.4l-0.5,5.5l5.1-0.4L112.1,78.6z"/>
	<path d="M118.3,72.8l8.2-0.7l-0.7,8l-5.8,0.5l-1,11.3l-2.5,0.2L118.3,72.8z M120.3,77.4l-0.1,1.2l3.3-0.3l0.1-1.2L120.3,77.4z
		 M120.6,74.6l-0.1,1.2l3.3-0.3l0.1-1.2L120.6,74.6z M130.7,88.3l1.4-0.1c0.5,0,0.6-0.4,0.6-0.7l0.7-8.1l-6,0.5l0.7-8l8.5-0.7
		l-1.5,17.1c-0.1,0.8-0.4,2.1-1.8,2.3l-3.6,0.3l-0.2-2l-8.5,0.7l0.7-8.1l9.6-0.8L130.7,88.3z M123.8,86.1l-0.1,1.3l4.9-0.4l0.1-1.3
		L123.8,86.1z M124,83.3l-0.1,1.3l4.9-0.4l0.1-1.3L124,83.3z M130.1,76.5l-0.1,1.2l3.6-0.3l0.1-1.2L130.1,76.5z M130.3,73.7
		l-0.1,1.2l3.6-0.3l0.1-1.2L130.3,73.7z"/>
	<path d="M151.9,71.8l2.3,2.9c-0.9,3.4-3,9.9-11.2,14.3l-1.7-2.2c7.9-3.9,9.4-10,10-12.2l-12.1,1.1l0.2-2.8L151.9,71.8z M158.7,70.7
		c-0.1,1.6-1.6,3-3.1,3.2c-1.6,0.1-2.8-1-2.6-2.7c0.1-1.6,1.6-3,3.1-3.2C157.6,67.9,158.8,69,158.7,70.7z M154.3,71.1
		c-0.1,0.8,0.5,1.4,1.4,1.4c0.8-0.1,1.5-0.8,1.6-1.6c0.1-0.8-0.6-1.4-1.4-1.4C155.2,69.5,154.4,70.2,154.3,71.1z"/>
	<path d="M164.5,69.1l-1.3,14.3c2.2-0.8,6.9-2.7,11.3-8.3l1.8,1.8c-5.3,6.8-11.6,9.3-16.2,10.3l1.6-17.8L164.5,69.1z"/>
	<path d="M183.8,67.1l2.8-0.2l-0.4,4.8l9-1.3l1,1.5c-1.7,2.7-3.4,4.8-5.4,7l-2.1-1.4c1.4-1.5,2-2.1,3.3-4l-6.1,0.9l-0.5,5.9
		c-0.1,1.7,0.4,1.7,3.4,1.4c2.9-0.3,5-0.6,5.9-0.8l-0.4,2.9c-2.5,0.4-4.6,0.6-5.9,0.7c-3.8,0.3-6.1,0.2-5.8-3.5l0.5-6.3l-4.7,0.7
		l0.1-2.7l4.9-0.7L183.8,67.1z M193,65.1c0.8,1.1,1.3,2.2,1.8,3.7l-1.6,1c-0.5-1.6-0.9-2.4-1.7-3.7L193,65.1z M196.4,64.5
		c0.8,1.2,1.1,2.1,1.7,3.7l-1.7,1c-0.5-1.6-0.8-2.5-1.6-3.8L196.4,64.5z"/>
	<path d="M216.6,71.1c-5.4,8.1-12.2,11.4-16.8,12.7l-0.7-2.9c4.4-1.2,10.7-3.9,15.9-12.2L216.6,71.1z M206,71.9
		c-1.9-1.2-3.6-1.9-6-2.7l1.5-2.6c2.3,0.6,4.2,1.4,6.2,2.6L206,71.9z"/>
</g>
<g>
	<path d="M699.6,134.1c0.1,1.1,0,2.3-0.3,3.3c-0.3,1.1-0.8,2.1-1.4,3c-0.7,0.9-1.5,1.8-2.4,2.6c-1,0.8-2.1,1.4-3.3,1.9
		c1.9,0.5,3.4,1.3,4.4,2.5s1.6,2.6,1.8,4.3c0.2,1.8-0.1,3.4-0.8,4.9c-0.7,1.5-1.6,2.8-2.9,4c-1.3,1.2-2.8,2.1-4.6,2.8
		s-3.8,1.2-6,1.4c-1.6,0.1-3,0.1-4.2,0c-1.2-0.2-2.2-0.5-3.1-0.9l0.2-2.2c1,0.5,2,0.8,3.1,1c1.1,0.2,2.3,0.2,3.8,0
		c1.9-0.2,3.7-0.6,5.3-1.2c1.6-0.6,2.9-1.4,4-2.4c1.1-1,1.9-2.1,2.4-3.3c0.5-1.2,0.7-2.5,0.6-3.9c-0.2-1.9-1-3.3-2.5-4.4
		c-1.5-1-3.7-1.4-6.6-1.2c-2.4,0.2-4.5,0.5-6.3,1l0.8-2.7c0.6,0,1.2,0,1.9,0c0.7,0,1.4-0.1,2.1-0.2c1.8-0.2,3.5-0.5,5-1.1
		c1.5-0.5,2.8-1.3,3.8-2.1c1-0.9,1.8-1.9,2.4-3.1s0.7-2.5,0.6-4c-0.1-1.7-0.8-3-2.1-4c-1.2-1-3.1-1.4-5.5-1.2
		c-1.5,0.1-2.8,0.4-3.9,0.7c-1.1,0.3-2.2,0.9-3.4,1.6l0.9-2.9c0.9-0.4,1.8-0.8,2.9-1c1-0.2,2.1-0.4,3.3-0.5c1.5-0.1,2.9,0,4.1,0.3
		c1.2,0.3,2.2,0.8,3,1.5c0.8,0.7,1.5,1.5,1.9,2.4S699.5,133,699.6,134.1z"/>
	<path d="M706.7,159.1c0.5,0,0.9,0.1,1.2,0.3c0.3,0.2,0.5,0.6,0.5,1c0.1,0.6-0.1,1.1-0.5,1.5c-0.4,0.4-0.8,0.6-1.4,0.7
		c-0.5,0-0.9-0.1-1.2-0.3c-0.3-0.2-0.5-0.6-0.5-1c-0.1-0.6,0.1-1.1,0.4-1.5C705.6,159.4,706.1,159.2,706.7,159.1z"/>
	<path d="M765.9,121.1l-52.5,4.6L776.5,53l0.4,0l-8.1,65.4l10.4-0.9l-0.3,2.5l-10.4,0.9l-4.2,35l-2.6,0.2L765.9,121.1z M766.2,118.6
		l7.2-58.2l-53.9,62.3L766.2,118.6z"/>
	<path d="M792.7,89.5l14.4,20.3L787.9,133l-2.8,0.2l18.6-23.5l-13.2-20L792.7,89.5z M809.2,88.1l14.4,20.3l-19.2,23.2l-2.8,0.2
		l18.6-23.5l-13.2-20L809.2,88.1z"/>
	<path d="M893.3,48.9l-45.7,4l-8.9,35.6c1.2-0.3,2.6-0.6,4.3-0.8c1.7-0.3,3.2-0.5,4.6-0.6c6-0.5,11.4-0.3,16,0.6
		c4.6,0.9,8.5,2.5,11.7,4.5c3.2,2.1,5.6,4.7,7.4,7.8c1.8,3.2,2.8,6.7,3.1,10.6c0.5,6.1-0.3,11.7-2.4,16.8
		c-2.1,5.1-5.5,9.5-10.1,13.3c-4.6,3.8-10.5,6.9-17.6,9.4c-7.1,2.4-15.3,4.1-24.8,4.9c-0.4,0-1,0.1-1.6,0.1c-0.6,0.1-1.2,0.1-1.6,0
		l0.7-2.7c0.4,0,0.9,0.1,1.2,0c0.4,0,0.8-0.1,1.1-0.1c9.1-0.8,17-2.3,23.7-4.6c6.8-2.3,12.3-5.2,16.7-8.8c4.4-3.6,7.6-7.7,9.6-12.5
		c2-4.7,2.8-10,2.3-15.7c-0.3-3.5-1.3-6.7-2.9-9.6c-1.6-2.9-3.9-5.2-6.8-7.1c-2.9-1.9-6.5-3.2-10.7-4.1c-4.2-0.8-9.2-1-14.9-0.5
		c-2.2,0.2-4.2,0.4-6.3,0.7c-2,0.3-4.1,0.7-6.2,1.3l10.1-40.9l48.6-4.2L893.3,48.9z"/>
</g>
<polyline class="st7" points="701.2,174.7 787.5,167.1 814.1,164.8 900.5,157.3 "/>
<g>
	<path class="st4" d="M704.1,194c0.7,0.3,1.5,0.4,2.4,0.3c1-0.1,1.7-0.4,2.2-0.9c0.5-0.5,0.7-1.2,0.7-1.9c0-0.6-0.3-1.1-0.7-1.5
		s-1.2-1-2.3-1.6c-0.6-0.3-1.1-0.6-1.5-0.9s-0.7-0.7-1-1c-0.3-0.4-0.5-0.7-0.6-1.1c-0.1-0.4-0.2-0.8-0.3-1.3c-0.1-0.8,0-1.5,0.3-2.2
		c0.3-0.7,0.6-1.3,1.2-1.8c0.5-0.5,1.1-1,1.8-1.3c0.7-0.3,1.5-0.5,2.3-0.6c1.7-0.1,3.2,0.1,4.7,0.6l-0.5,3.7c-0.8-0.5-1.5-0.8-2.1-1
		c-0.6-0.2-1.2-0.3-1.8-0.2c-0.8,0.1-1.4,0.3-1.8,0.8c-0.4,0.5-0.6,1-0.5,1.6c0,0.2,0.1,0.5,0.2,0.7s0.3,0.4,0.5,0.6
		s0.5,0.4,0.9,0.7c0.4,0.2,0.9,0.5,1.4,0.8c1.2,0.6,2,1.3,2.5,2c0.5,0.7,0.8,1.6,0.9,2.7c0.1,0.9,0,1.7-0.3,2.5
		c-0.3,0.8-0.8,1.4-1.4,2c-0.6,0.6-1.3,1-2.2,1.4c-0.8,0.4-1.8,0.6-2.8,0.7c-0.9,0.1-1.8,0.1-2.6-0.1c-0.8-0.1-1.5-0.4-2.1-0.7
		l0.2-4l0.1,0C702.7,193.3,703.4,193.7,704.1,194z"/>
	<path class="st4" d="M716.8,184.9c0.5-0.4,1.1-0.7,1.8-0.9c0.7-0.2,1.3-0.3,2-0.4c1.4-0.1,2.5,0.1,3.2,0.7c0.7,0.6,1.1,1.5,1.2,2.7
		c0,0.4,0,0.9,0,1.4l-0.8,6.9l-3.3,0.9l0.2-1.3c-0.5,0.4-1.1,0.8-1.7,1.1c-0.6,0.3-1.3,0.5-1.9,0.5c-0.9,0.1-1.6-0.1-2.1-0.5
		s-0.8-1-0.9-1.9c-0.1-1,0.2-1.8,0.8-2.6c0.6-0.8,1.5-1.4,2.8-1.9c0.6-0.2,1.2-0.5,1.8-0.6c0.6-0.2,1.3-0.3,2-0.5l0-0.3
		c0-0.2,0-0.4,0-0.6c0-0.4-0.2-0.7-0.5-1c-0.3-0.2-0.7-0.3-1.3-0.3c-0.6,0.1-1.2,0.2-1.9,0.5c-0.7,0.3-1.2,0.7-1.7,1.2L716.8,184.9z
		 M721.6,190.2c-0.4,0.1-0.8,0.2-1.3,0.3c-0.4,0.1-0.8,0.3-1.1,0.4c-0.6,0.3-1,0.6-1.2,0.9c-0.2,0.3-0.3,0.7-0.3,1.1
		c0,0.3,0.1,0.6,0.4,0.7c0.2,0.2,0.5,0.2,0.9,0.2c0.4,0,0.8-0.2,1.2-0.4s0.8-0.6,1.1-1L721.6,190.2z"/>
	<path class="st4" d="M729.7,183.2l0.4-3.4l3.3-0.9l-0.5,4l3.2-0.3l-0.3,2.8l-3.2,0.3l-0.6,5.2c-0.1,0.7-0.1,1.3-0.1,1.7
		c0,0.5,0.2,0.9,0.4,1.2c0.2,0.3,0.6,0.5,1.1,0.8l-0.1,0.2l-3.3,0.6c-0.4-0.2-0.7-0.4-1-0.8c-0.3-0.3-0.4-0.8-0.5-1.5
		c0-0.2,0-0.4,0-0.7c0-0.3,0-0.5,0.1-0.8l0.7-5.7l-2.2,0.2l0.3-2.8L729.7,183.2z"/>
</g>
<g>
	<path class="st5" d="M817.1,184c0.7,0.3,1.5,0.4,2.4,0.3c1-0.1,1.7-0.4,2.2-0.9s0.7-1.2,0.7-1.9c0-0.6-0.3-1.1-0.7-1.5
		c-0.4-0.5-1.2-1-2.3-1.6c-0.6-0.3-1.1-0.6-1.5-0.9c-0.4-0.3-0.7-0.7-1-1c-0.3-0.4-0.5-0.7-0.6-1.1c-0.1-0.4-0.2-0.8-0.3-1.3
		c-0.1-0.8,0-1.5,0.3-2.2c0.3-0.7,0.6-1.3,1.2-1.8c0.5-0.5,1.1-1,1.8-1.3c0.7-0.3,1.5-0.5,2.3-0.6c1.7-0.1,3.2,0.1,4.7,0.6l-0.5,3.7
		c-0.8-0.5-1.5-0.8-2.1-1c-0.6-0.2-1.2-0.3-1.8-0.2c-0.8,0.1-1.4,0.3-1.8,0.8c-0.4,0.5-0.6,1-0.5,1.6c0,0.2,0.1,0.5,0.2,0.7
		s0.3,0.4,0.5,0.6c0.2,0.2,0.5,0.4,0.9,0.7c0.4,0.2,0.9,0.5,1.4,0.8c1.2,0.6,2,1.3,2.5,2c0.5,0.7,0.8,1.6,0.9,2.7
		c0.1,0.9,0,1.7-0.3,2.5c-0.3,0.8-0.8,1.4-1.4,2c-0.6,0.6-1.3,1-2.2,1.4c-0.8,0.4-1.8,0.6-2.8,0.7c-0.9,0.1-1.8,0.1-2.6-0.1
		c-0.8-0.1-1.5-0.4-2.1-0.7l0.2-4l0.1,0C815.6,183.3,816.4,183.8,817.1,184z"/>
	<path class="st5" d="M832.6,174.1l-0.9,7.2c0,0.1,0,0.3,0,0.4s0,0.2,0,0.3c0,0.5,0.2,0.8,0.5,1c0.3,0.2,0.6,0.3,1.1,0.2
		c0.5,0,0.9-0.2,1.4-0.5c0.4-0.3,0.8-0.6,1.1-1.1c0.1-0.2,0.2-0.4,0.3-0.6s0.1-0.4,0.2-0.7l0.8-6.6l3.3-0.3l-1.5,11.7l-3.3,0.9
		l0.2-1.9c-0.5,0.6-1.1,1.1-1.8,1.5c-0.6,0.4-1.3,0.6-2.1,0.7c-1.1,0.1-1.9-0.1-2.5-0.6c-0.6-0.5-0.9-1.3-1-2.3c0-0.4,0-0.9,0-1.3
		l1-7.7L832.6,174.1z"/>
	<path class="st5" d="M843.8,173.1l3.3-0.3l-0.2,1.5c0.7-0.7,1.4-1.3,2-1.6c0.6-0.3,1.3-0.5,2-0.6c1-0.1,1.9,0.1,2.5,0.7
		c0.6,0.5,0.9,1.3,1,2.3c0,0.2,0,0.4,0,0.6s0,0.4,0,0.7l-1,7.8l-3.3,0.3l0.9-7.1c0-0.3,0-0.5,0-0.8c-0.1-0.9-0.6-1.3-1.6-1.3
		c-0.4,0-0.8,0.2-1.2,0.4c-0.4,0.2-0.7,0.5-0.9,0.7c-0.3,0.3-0.5,0.6-0.6,0.9s-0.3,0.7-0.3,1.2l-0.8,6.4l-3.3,0.3L843.8,173.1z"/>
</g>
<g>
	<path d="M685.5,33.8l-1.3-1.5l-1.5,1.7c-1.1-0.7-1.9-1.6-2.3-2.1c-1.4,2-2.7,3.1-3.6,3.8l-1.6-1.9c2.1-1.4,3.7-3.4,5.1-6.5l2.4,0.4
		c-0.3,0.6-0.5,1.2-0.9,2c0.2,0.2,1.1,1.2,2.8,2.1c2.9-2.3,3.9-4.4,4.3-5.3l2.4,0.4c-0.2,0.5-0.4,1.1-1,1.9c1.5,1.7,3.1,2.4,4.6,3
		l-1.9,2.5c-2.8-1.6-4-3.2-4.2-3.4c-1.4,1.7-2.4,2.4-2.9,2.9l0.4,0l-0.1,1.5l8.6-0.8l-0.2,2.5l-8.6,0.8l-0.4,4.5l-2.7,0.2l0.4-4.5
		l-8.5,0.7l0.2-2.5l8.5-0.7l0.1-1.5L685.5,33.8z M684.6,22.4l2.7-0.2l-0.2,1.8l8.1-0.7l-0.2,2.5l-18.9,1.7l0.2-2.5l8-0.7L684.6,22.4
		z"/>
	<path d="M714.1,39.4c-2.2-0.5-4.5-1.3-6.9-3.4l-0.4,4.2l-2.6,0.2l0.4-4.2c-2.5,2.3-5.1,3.5-7.6,4.6l-1.1-2.2c2-0.7,4.6-1.7,7-3.4
		l-6.7,0.6l0.2-2.1l8.5-0.7L705,32l-7.1,0.6l0.2-1.8l7.1-0.6l0.1-1.1l-7.6,0.7l0.2-2l4.2-0.4c0-0.3-0.2-1.1-0.4-1.4l-4.6,0.4
		l0.2-2.2l3-0.3c-0.1-0.4-0.3-1-0.9-2.2l2.6-0.8c0.4,1,0.6,1.6,0.8,2.8l1.1-0.1l0.2-2.8l2.4-0.2l-0.2,2.8l1.5-0.1l0.2-2.8l2.4-0.2
		l-0.2,2.8l1.1-0.1c0.5-0.9,1-2.2,1.3-3l2.5,0.4c-0.1,0.2-0.6,1.4-1.2,2.4l2.9-0.3l-0.2,2.2l-4.6,0.4c-0.3,0.8-0.4,1-0.6,1.4
		l4.3-0.4l-0.2,2l-7.7,0.7l-0.1,1.1l7.2-0.6l-0.2,1.8l-7.2,0.6l-0.1,1.1l8.5-0.7l-0.2,2.1l-6.6,0.6c2.2,1.5,4.9,1.9,6.5,2.2
		L714.1,39.4z M708.8,26.8c0.2-0.3,0.3-0.7,0.6-1.4l-5,0.4c0.1,0.2,0.3,1.2,0.4,1.4L708.8,26.8z"/>
	<path d="M725.4,25.9l-1.1,12.2l-5.9,0.5l0.6-7.2c-0.3,0.3-0.4,0.5-0.9,0.9l-0.6-3.1c1.7-1.9,2.5-3.7,3-6.7l-2,0.2l0.2-2.5l7.6-0.7
		l-0.2,2.5l-3.1,0.3c-0.3,1.8-0.6,2.7-1,3.8L725.4,25.9z M723.2,28.4l-1.7,0.1l-0.7,7.5l1.7-0.1L723.2,28.4z M728.4,21.9l-1.6,0.1
		l0.2-2.5l11.1-1l-0.2,2.5l-1.8,0.2l-0.4,4.5l2.1-0.2l-0.2,2.5l-2.1,0.2l-0.9,9.7l-2.6,0.2l0.9-9.7l-2.7,0.2l-0.1,1.1
		c-0.3,3.4-1.2,6.6-3.7,8.8l-2-1.8c0.9-0.9,2.8-2.6,3.2-6.9l0.1-1l-1.9,0.2l0.2-2.5l1.9-0.2L728.4,21.9z M730.5,26.2l2.7-0.2
		l0.4-4.5l-2.7,0.2L730.5,26.2z"/>
	<path d="M749.4,24.9c-0.1,0.6-0.2,1.2-0.3,2.1l5.8-0.5l-0.6,6.5c0,0.3,0,0.5,0.4,0.4l0.8-0.1c0.5,0,0.6-0.3,0.6-0.5
		c0.1-0.5,0.3-2.1,0.3-2.5l2.2,0.4c-0.4,3.9-0.7,4.9-2.1,5.1L753,36c-1.7,0.1-1.5-1.1-1.5-1.7l0.4-5.1l-3.6,0.3
		c-0.5,1.5-2.1,5.6-8.9,8.1l-1.1-2.5c5.2-1.5,6.6-3.8,7.2-5.4l-5.7,0.5l0.2-2.5l6.2-0.5c0.1-0.6,0.2-1.1,0.3-2.1L749.4,24.9z
		 M750.5,20.6l-2.2,0.2c-0.9,2.6-2.6,4.8-7.1,6.3l-0.8-2.3c3.4-0.8,4.6-1.9,5.5-3.7l-2.9,0.3l-0.2,2.1l-2.6,0.2l0.4-4.4l7.9-0.7
		l0.1-1.6l2.6-0.2l-0.1,1.6l8-0.7l-0.4,4.4L758,22c-0.3,1.5-0.6,2.8-2,2.9l-4,0.3c-0.9,0.1-1.9,0.2-1.8-1.4L750.5,20.6z M752.5,22.5
		c0,0.3,0,0.5,0.4,0.4l2-0.2c0.4,0,0.6-0.2,0.8-1.5l0.6,0.1l0.1-1.3l-3.7,0.3L752.5,22.5z"/>
	<path d="M762.9,25.2c-0.8,0.9-1.3,1.4-1.8,1.8l-0.7-2.8c1.4-1.3,3.5-3.5,5.2-8.8l2.5,0.1c-0.3,1-0.9,2.9-2.1,5.2l-1.3,14.7
		l-2.7,0.2L762.9,25.2z M773.3,14.9c-0.2,0.7-0.4,1.3-1,2.6l8.6-0.8l-0.2,2.6l-6.6,0.6l-0.2,2.6l6.1-0.5l-0.2,2.5l-6.1,0.5l-0.2,2.6
		l6.1-0.5l-0.2,2.5l-6.1,0.5l-0.4,4.5l-2.7,0.2l1.3-14.7l-0.4,0c-1.7,2.8-3,4.1-3.7,4.8l-1.1-2.5c2.4-2.4,3.8-5.4,4.5-7.6
		L773.3,14.9z"/>
	<path d="M790.9,22.9l-0.8,9.7l-8.3,0.7l0.8-9.7L790.9,22.9z M784.8,25.8l-0.4,5l3.4-0.3l0.4-5L784.8,25.8z M799.9,13l-0.7,7.7
		L784.7,22l0.7-7.7L799.9,13z M787.7,16.4l-0.3,3.1l9.5-0.8l0.3-3.1L787.7,16.4z M801,22.1l-0.8,9.7l-8.6,0.8l0.8-9.7L801,22.1z
		 M794.6,25l-0.4,5l3.8-0.3l0.4-5L794.6,25z"/>
	<path d="M821.7,24.8c-0.8,0.9-1.3,1.3-2.5,2.2c1.4,0.5,2.5,0.6,3.2,0.8l-1.6,2.5c-4.7-1.1-6.4-2.7-7.7-5.8l-1.5,0.1l-0.3,3.6
		c1.7-0.3,2.4-0.5,3.3-0.8l-0.1,2.3c-2.1,0.7-6.1,1.5-7.7,1.7l-0.2-2.4c0.6,0,0.8-0.1,2.2-0.3l0.3-3.9l-2.3,0.2
		c-0.6,3.6-1.2,5-2.3,6.6l-2.2-1.5c0.7-1.2,1.9-3,2.4-8.5l0.8-9.3L823,11l-0.5,5.6l-3.1,0.3l-0.1,1.5l3-0.3l-0.2,1.9l-3,0.3L819,22
		l3.7-0.3l-0.2,2.1l-2.1,0.2L821.7,24.8z M811,17.6l-3.3,0.3l-0.3,3.8c-0.1,0.7-0.1,1-0.2,1.4l3.4-0.3l0.2-1.8l-2.7,0.2l0.2-1.9
		l2.7-0.2L811,17.6z M820.2,13.3l-12.3,1.1l-0.1,1.5l12.3-1.1L820.2,13.3z M816.8,20.4l-3.7,0.3l-0.2,1.8l3.7-0.3L816.8,20.4z
		 M817.1,17l-3.7,0.3l-0.1,1.5l3.7-0.3L817.1,17z M815.7,24.3c0.3,0.5,0.7,1.1,1.5,1.7c1.1-1,1.9-1.8,2.1-2.1L815.7,24.3z"/>
</g>
<g>
	<path d="M325,194.8l4.2-34.6l-5.2,0.7l0.6-2.2l7-0.6l-4.5,36.6L325,194.8z"/>
	<path d="M348.6,156.5c1.5-0.6,3.1-0.9,4.7-1c1.5-0.1,2.9,0,4.1,0.3c1.2,0.3,2.2,0.8,3,1.5c0.8,0.7,1.5,1.5,1.9,2.5
		c0.5,1,0.8,2,0.9,3.2c0.1,1.1,0.1,2.2-0.1,3.2c-0.2,1-0.5,2-1,3.1c-0.5,1-1.2,2.1-2.1,3.3c-0.9,1.2-1.9,2.5-3.2,3.9
		c-0.9,1-2,2.2-3.3,3.6c-1.3,1.3-2.6,2.7-4,4.1c-1.4,1.4-2.8,2.7-4.1,4c-1.4,1.3-2.6,2.4-3.7,3.3l19.2-1.7l-0.5,2.1l-22.4,2l0.2-1.7
		c1-0.8,2.2-1.9,3.7-3.2c1.5-1.3,3-2.8,4.6-4.4c1.6-1.6,3.2-3.2,4.7-4.8c1.5-1.6,2.9-3.1,4.1-4.5c1.3-1.6,2.4-2.9,3.2-4
		c0.8-1.1,1.4-2.1,1.8-3c0.4-0.9,0.7-1.7,0.7-2.5c0.1-0.8,0.1-1.6,0-2.6c-0.2-1.7-0.9-3.1-2.1-4.2c-1.3-1.1-3.1-1.5-5.4-1.3
		c-1.7,0.2-3.4,0.6-5,1.2c-1.6,0.7-3.3,1.7-5.1,3.1l1.1-3.3C345.7,157.7,347.1,157,348.6,156.5z"/>
	<path d="M368.9,187.9c0.5,0,0.9,0.1,1.2,0.3c0.3,0.2,0.5,0.6,0.5,1c0.1,0.6-0.1,1.1-0.5,1.5c-0.4,0.4-0.8,0.6-1.4,0.7
		c-0.5,0-0.9-0.1-1.2-0.3c-0.3-0.2-0.5-0.6-0.5-1c-0.1-0.6,0.1-1.1,0.4-1.5C367.8,188.2,368.3,187.9,368.9,187.9z"/>
	<path d="M388.2,187.6c15.3-7.4,27.1-15.7,35.5-24.8c8.4-9.1,13.8-19.2,16.1-30.3c-7.2,7.4-16.8,11.6-28.8,12.7
		c-4.1,0.4-8,0.1-11.4-0.8c-3.5-0.9-6.5-2.4-9.1-4.4c-2.6-2-4.6-4.5-6.1-7.6c-1.5-3-2.5-6.5-2.8-10.4c-0.4-4.7,0.1-9.3,1.4-13.6
		c1.4-4.3,3.4-8.1,6.2-11.5c2.7-3.4,6.1-6.1,10-8.3c3.9-2.1,8.3-3.4,12.9-3.8c9.2-0.8,16.6,1.4,22,6.6c5.4,5.2,8.5,12.6,9.4,22.1
		c1.4,15.9-2.4,30.2-11.3,42.8c-8.9,12.7-23.2,23.8-43,33.5L388.2,187.6z M410.9,142.7c12.3-1.1,22.2-5.8,29.7-14.1
		c0.6-4.6,0.7-9.5,0.3-14.6c-0.8-8.9-3.5-15.7-8.3-20.4c-4.8-4.7-11.5-6.7-20.1-5.9c-4.3,0.4-8.3,1.6-11.9,3.5
		c-3.6,2-6.7,4.5-9.2,7.6c-2.5,3.1-4.4,6.6-5.7,10.6c-1.3,4-1.7,8.2-1.3,12.6c0.6,7.1,3.3,12.5,7.9,16.2
		C397,141.9,403.2,143.4,410.9,142.7z"/>
	<path d="M457.5,118l14.4,20.3l-19.2,23.2l-2.8,0.2l18.6-23.5l-13.2-20L457.5,118z M474,116.6l14.4,20.3l-19.2,23.2l-2.8,0.2
		l18.6-23.5l-13.2-20L474,116.6z"/>
	<path d="M498.8,178.2l11.9-96.7l-13.3,1.2l0.4-2.5l15.8-1.4L501.4,178L498.8,178.2z"/>
	<path d="M561.9,174.8c-7.2,0.6-13.1-1.7-17.7-6.9c-4.6-5.2-7.4-13.3-8.4-24.2c-0.9-10.1-0.6-19.4,0.8-28c1.4-8.6,3.8-16,7-22.4
		c3.2-6.4,7.2-11.4,12-15.2c4.8-3.8,10-5.9,15.8-6.4c7-0.6,12.8,1.7,17.5,7c4.7,5.2,7.5,13.4,8.5,24.4c0.9,10.1,0.6,19.4-0.9,27.9
		c-1.5,8.5-3.8,16-7.1,22.3c-3.2,6.3-7.2,11.4-11.9,15.1C572.8,172.2,567.6,174.3,561.9,174.8z M561.7,172.2
		c5.3-0.5,10.1-2.5,14.5-6.1c4.4-3.6,8.2-8.4,11.2-14.5c3-6.1,5.2-13.2,6.5-21.4c1.3-8.2,1.6-17.2,0.7-26.9
		c-0.9-10.4-3.4-17.9-7.5-22.7c-4.1-4.8-9.3-6.9-15.5-6.3c-5.4,0.5-10.4,2.5-14.9,6.1c-4.5,3.6-8.2,8.5-11.2,14.6
		c-3,6.1-5.1,13.3-6.4,21.5c-1.3,8.2-1.5,17.2-0.6,27c0.9,10.2,3.4,17.7,7.4,22.5C550,170.7,555.2,172.8,561.7,172.2z"/>
</g>
<polyline class="st7" points="364.2,204.1 475.3,194.4 501.9,192.1 602.9,183.2 "/>
<g>
	<path class="st4" d="M391.9,221.3c0.7,0.3,1.5,0.4,2.4,0.3c1-0.1,1.7-0.4,2.2-0.9s0.7-1.2,0.7-1.9c0-0.6-0.3-1.1-0.7-1.5
		c-0.4-0.5-1.2-1-2.3-1.6c-0.6-0.3-1.1-0.6-1.5-0.9c-0.4-0.3-0.7-0.7-1-1c-0.3-0.4-0.5-0.7-0.6-1.1c-0.1-0.4-0.2-0.8-0.3-1.3
		c-0.1-0.8,0-1.5,0.3-2.2c0.3-0.7,0.6-1.3,1.2-1.8c0.5-0.5,1.1-1,1.8-1.3c0.7-0.3,1.5-0.5,2.3-0.6c1.7-0.1,3.2,0.1,4.7,0.6l-0.5,3.7
		c-0.8-0.5-1.5-0.8-2.1-1c-0.6-0.2-1.2-0.3-1.8-0.2c-0.8,0.1-1.4,0.3-1.8,0.8c-0.4,0.5-0.6,1-0.5,1.6c0,0.2,0.1,0.5,0.2,0.7
		s0.3,0.4,0.5,0.6c0.2,0.2,0.5,0.4,0.9,0.7c0.4,0.2,0.9,0.5,1.4,0.8c1.2,0.6,2,1.3,2.5,2c0.5,0.7,0.8,1.6,0.9,2.7
		c0.1,0.9,0,1.7-0.3,2.5c-0.3,0.8-0.8,1.4-1.4,2c-0.6,0.6-1.3,1-2.2,1.4c-0.8,0.4-1.8,0.6-2.8,0.7c-0.9,0.1-1.8,0.1-2.6-0.1
		c-0.8-0.1-1.5-0.4-2.1-0.7l0.2-4l0.1,0C390.5,220.6,391.2,221,391.9,221.3z"/>
	<path class="st4" d="M404.6,212.1c0.5-0.4,1.1-0.7,1.8-0.9c0.7-0.2,1.3-0.3,2-0.4c1.4-0.1,2.5,0.1,3.2,0.7c0.7,0.6,1.1,1.5,1.2,2.7
		c0,0.4,0,0.9,0,1.4l-0.8,6.9l-3.3,0.9l0.2-1.3c-0.5,0.4-1.1,0.8-1.7,1.1c-0.6,0.3-1.3,0.5-1.9,0.5c-0.9,0.1-1.6-0.1-2.1-0.5
		c-0.5-0.4-0.8-1-0.9-1.9c-0.1-1,0.2-1.8,0.8-2.6c0.6-0.8,1.5-1.4,2.8-1.9c0.6-0.2,1.2-0.5,1.8-0.6c0.6-0.2,1.3-0.3,2-0.5l0-0.3
		c0-0.2,0-0.4,0-0.6c0-0.4-0.2-0.7-0.5-1c-0.3-0.2-0.7-0.3-1.3-0.3c-0.6,0.1-1.2,0.2-1.9,0.5c-0.7,0.3-1.2,0.7-1.7,1.2L404.6,212.1z
		 M409.3,217.4c-0.4,0.1-0.8,0.2-1.3,0.3c-0.4,0.1-0.8,0.3-1.1,0.4c-0.6,0.3-1,0.6-1.2,0.9c-0.2,0.3-0.3,0.7-0.3,1.1
		c0,0.3,0.1,0.6,0.4,0.7c0.2,0.2,0.5,0.2,0.9,0.2c0.4,0,0.8-0.2,1.2-0.4c0.4-0.2,0.8-0.6,1.1-1L409.3,217.4z"/>
	<path class="st4" d="M417.5,210.4l0.4-3.4l3.3-0.9l-0.5,4l3.2-0.3l-0.3,2.8l-3.2,0.3l-0.6,5.2c-0.1,0.7-0.1,1.3-0.1,1.7
		c0,0.5,0.2,0.9,0.4,1.2c0.2,0.3,0.6,0.5,1.1,0.8l-0.1,0.2l-3.3,0.6c-0.4-0.2-0.7-0.4-1-0.8c-0.3-0.3-0.4-0.8-0.5-1.5
		c0-0.2,0-0.4,0-0.7c0-0.3,0-0.5,0.1-0.8l0.7-5.7l-2.2,0.2l0.3-2.8L417.5,210.4z"/>
</g>
<g>
	<path class="st5" d="M504.8,211.3c0.7,0.3,1.5,0.4,2.4,0.3c1-0.1,1.7-0.4,2.2-0.9c0.5-0.5,0.7-1.2,0.7-1.9c0-0.6-0.3-1.1-0.7-1.5
		s-1.2-1-2.3-1.6c-0.6-0.3-1.1-0.6-1.5-0.9c-0.4-0.3-0.7-0.7-1-1c-0.3-0.4-0.5-0.7-0.6-1.1c-0.1-0.4-0.2-0.8-0.3-1.3
		c-0.1-0.8,0-1.5,0.3-2.2c0.3-0.7,0.6-1.3,1.2-1.8s1.1-1,1.8-1.3c0.7-0.3,1.5-0.5,2.3-0.6c1.7-0.1,3.2,0.1,4.7,0.6l-0.5,3.7
		c-0.8-0.5-1.5-0.8-2.1-1c-0.6-0.2-1.2-0.3-1.8-0.2c-0.8,0.1-1.4,0.3-1.8,0.8s-0.6,1-0.5,1.6c0,0.2,0.1,0.5,0.2,0.7s0.3,0.4,0.5,0.6
		c0.2,0.2,0.5,0.4,0.9,0.7c0.4,0.2,0.9,0.5,1.4,0.8c1.2,0.6,2,1.3,2.5,2c0.5,0.7,0.8,1.6,0.9,2.7c0.1,0.9,0,1.7-0.3,2.5
		c-0.3,0.8-0.8,1.4-1.4,2c-0.6,0.6-1.3,1-2.2,1.4c-0.8,0.4-1.8,0.6-2.8,0.7c-0.9,0.1-1.8,0.1-2.6-0.1c-0.8-0.1-1.5-0.4-2.1-0.7
		l0.2-4l0.1,0C503.4,210.6,504.1,211,504.8,211.3z"/>
	<path class="st5" d="M520.4,201.3l-0.9,7.2c0,0.1,0,0.3,0,0.4c0,0.1,0,0.2,0,0.3c0,0.5,0.2,0.8,0.5,1s0.6,0.3,1.1,0.2
		c0.5,0,0.9-0.2,1.4-0.5c0.4-0.3,0.8-0.6,1.1-1.1c0.1-0.2,0.2-0.4,0.3-0.6s0.1-0.4,0.2-0.7l0.8-6.6l3.3-0.3l-1.5,11.7l-3.3,0.9
		l0.2-1.9c-0.5,0.6-1.1,1.1-1.8,1.5c-0.6,0.4-1.3,0.6-2.1,0.7c-1.1,0.1-1.9-0.1-2.5-0.6c-0.6-0.5-0.9-1.3-1-2.3c0-0.4,0-0.9,0-1.3
		l1-7.7L520.4,201.3z"/>
	<path class="st5" d="M531.6,200.4l3.3-0.3l-0.2,1.5c0.7-0.7,1.4-1.3,2-1.6c0.6-0.3,1.3-0.5,2-0.6c1-0.1,1.9,0.1,2.5,0.7
		c0.6,0.5,0.9,1.3,1,2.3c0,0.2,0,0.4,0,0.6c0,0.2,0,0.4,0,0.7l-1,7.8l-3.3,0.3l0.9-7.1c0-0.3,0-0.5,0-0.8c-0.1-0.9-0.6-1.3-1.6-1.3
		c-0.4,0-0.8,0.2-1.2,0.4s-0.7,0.5-0.9,0.7c-0.3,0.3-0.5,0.6-0.6,0.9s-0.3,0.7-0.3,1.2l-0.8,6.4l-3.3,0.3L531.6,200.4z"/>
</g>
<g>
	<path d="M322.8,71c1.6-0.7,7.3-3.3,9.2-10.3l-8.1,0.7l0.2-2.7l8.2-0.7l0.4-4.9l2.8-0.2l-0.4,4.5c0,0.1,0,0.3-0.1,0.4l8.6-0.7
		l-0.2,2.7l-8.2,0.7c0.7,5.6,3.8,7.7,7.8,8.9l-1.8,2.9c-1.9-0.7-6.4-2.5-7.8-8.3c-2.8,6.5-7.7,8.9-9.3,9.7L322.8,71z"/>
	<path d="M361.5,57.6l-0.2,2.1c-1.2,1.2-3.3,2.6-5.2,3.6l8.4-0.7l-0.2,2.4l-8.6,0.8l-0.3,3.2c-0.1,1-0.3,2.2-2.2,2.4l-4.1,0.4
		l-0.2-2.6l3.1-0.3c0.7-0.1,0.8-0.2,0.9-0.9l0.2-2l-8.6,0.7l0.2-2.4l8.6-0.7l0.1-1.4l0.9-0.1c0.2-0.1,1.7-0.7,2.7-1.7l-8.5,0.7
		l0.2-2.4L361.5,57.6z M348.5,55c-0.3-0.9-0.5-1.5-1.1-2.4l2.6-1c0.8,1.2,1.1,2.3,1.3,3.1l3.2-0.3c-0.5-1.4-0.8-2-1.1-2.5l2.6-1
		c0.5,1,0.9,1.9,1.2,3.3l2.3-0.2c0.3-0.5,0.7-1.2,1.6-3.5l2.7,0.5c-0.6,1.2-0.9,1.7-1.5,2.7l2.4-0.2l-0.4,5l-2.6,0.2l0.2-2.7
		l-13.7,1.2l-0.2,2.7l-2.6,0.2l0.4-5L348.5,55z"/>
	<path d="M366.9,64.7l12.8-1.1l0.8-9.1l-12.6,1.1l0.2-2.8l15.5-1.4l-1.3,14.7l-15.7,1.4L366.9,64.7z"/>
	<path d="M404,54.6c-5.4,8.1-12.2,11.4-16.8,12.7l-0.7-2.9c4.4-1.2,10.7-3.9,15.9-12.2L404,54.6z M393.4,55.4
		c-1.8-1.2-3.6-1.9-6-2.7l1.5-2.6c2.3,0.6,4.2,1.4,6.2,2.6L393.4,55.4z"/>
	<path d="M410,55.6c-1.5-2.6-2.7-4-3.6-5.1l2.3-2c1.6,1.9,2.5,3,3.8,5L410,55.6z M423.2,47.4c-1.1,6.4-3.8,14.1-13.4,17.9l-2-2.1
		c9.2-3.3,11.6-10.3,12.4-16L423.2,47.4z"/>
	<path d="M443.2,52.1l-0.2,2.7l-17.7,1.5l0.2-2.7L443.2,52.1z"/>
	<path d="M451.6,53.4c-2-0.8-3.5-1.3-5.9-2l1.3-2.6c1.1,0.3,3,0.7,5.9,1.9L451.6,53.4z M463.8,49c-4,5.8-9.3,10.7-16.5,13.2
		l-0.9-2.8c4-1.1,10.1-4.2,15.8-12.7L463.8,49z M453.8,48.2c-2.1-0.8-3.4-1.3-5.8-1.9l1.3-2.6c2.1,0.6,3.5,1,5.8,1.9L453.8,48.2z"/>
	<path d="M483,42.3l1.1,1.4c-0.8,1.3-2.8,4.6-6.1,7.8l-2.1-1.5c1.6-1.5,2.5-2.6,4-4.6l-13.8,1.2l0.2-2.8L483,42.3z M475.6,48
		c-0.5,5.3-2.3,9.5-7.1,12.5l-2-2c4.4-2.5,5.8-5.7,6.2-10.3L475.6,48z"/>
	<path d="M500.3,57.4c-0.2-0.7-0.5-1.7-1.1-2.9l-13.9,3.2l-0.4-2.7l3-0.7c2-4.2,3.6-7.5,6.4-14.4l2.6,0.7c-2.7,6.6-4.9,11.2-5.8,13
		l7.1-1.5c-1-2-1.8-3.3-2.2-3.9l2.5-1.6c1.7,2.5,3.2,5.2,4.6,9.2L500.3,57.4z"/>
	<path d="M514.4,37.9c-1.1,9.4-3.4,15.2-7.9,19.7l-1.8-2.2c1.7-1.6,5.9-5.7,7-17.5L514.4,37.9z M522.7,56.3c-3-3.2-5.2-7.7-4.5-18.8
		l2.8-0.4c-0.8,9.1,0.8,13.6,3.9,16.6L522.7,56.3z"/>
	<path d="M528.5,36.7l18.3-1.6l-0.2,2.5l-7.8,0.7l-0.4,5.1l6.9-0.6l-0.2,2.5l-6.9,0.6l-0.5,6l8.5-0.7l-0.2,2.5l-19.6,1.7l0.2-2.5
		l8.4-0.7l0.5-6l-6.8,0.6l0.2-2.5l6.8-0.6l0.4-5.1l-7.8,0.7L528.5,36.7z"/>
	<path d="M550.7,34.8l16.5-1.4l-0.2,2.5c-2.2,1.8-4.5,3.3-7.2,4.7l-0.1,1.2l8.4-0.7l-0.2,2.6l-8.4,0.7l-0.5,5.9
		c-0.2,2.3-0.5,2.9-3,3.1l-4,0.4l-0.1-2.6l3.3-0.3c0.9-0.1,1-0.1,1.1-1.1l0.5-5.2l-8.5,0.7l0.2-2.6l8.5-0.7l0.3-3.2l1.7-0.1
		c1.5-0.8,2.5-1.4,3.7-2.3l-12.1,1.1L550.7,34.8z"/>
</g>
<g>
</g>
<g>
</g>
<g>
</g>
<g>
</g>
<g>
</g>
<g>
</g>
</svg>
