<?xml version="1.0" encoding="utf-8"?>
<!-- Generator: Adobe Illustrator 21.1.0, SVG Export Plug-In . SVG Version: 6.00 Build 0)  -->
<svg version="1.1" id="レイヤー_1" xmlns="http://www.w3.org/2000/svg" xmlns:xlink="http://www.w3.org/1999/xlink" x="0px"
	 y="0px" viewBox="0 0 935.81 276.929" enable-background="new 0 0 935.81 276.929" xml:space="preserve">
<g enable-background="new    ">
	<path d="M35.44,220.929l4.244-34.63l-5.243,0.651l0.577-2.219l6.98-0.611l-4.503,36.629L35.44,220.929z"/>
</g>
<g enable-background="new    ">
	<path d="M59.349,218.836l4.244-34.63l-5.243,0.651l0.577-2.219l6.98-0.611l-4.503,36.629L59.349,218.836z"/>
	<path d="M79.308,214.005c0.478-0.042,0.864,0.061,1.158,0.308c0.295,0.248,0.462,0.595,0.501,1.041
		c0.054,0.606-0.104,1.11-0.47,1.51c-0.367,0.401-0.837,0.628-1.41,0.678c-0.479,0.042-0.864-0.053-1.157-0.283
		c-0.294-0.231-0.46-0.57-0.499-1.017c-0.053-0.605,0.096-1.117,0.444-1.533C78.225,214.292,78.701,214.058,79.308,214.005z"/>
</g>
<g enable-background="new    ">
	<path d="M138.482,175.974l-52.45,4.591l63.059-72.727l0.389-0.034l-8.104,65.437l10.36-0.906l-0.303,2.506l-10.36,0.907
		l-4.249,34.954l-2.59,0.227L138.482,175.974z M138.785,173.467l7.175-58.177l-53.927,62.27L138.785,173.467z"/>
</g>
<g enable-background="new    ">
	<path d="M165.34,144.401l14.433,20.269l-19.239,23.216l-2.849,0.249l18.558-23.548l-13.233-19.981L165.34,144.401z
		 M181.789,142.961l14.433,20.269l-19.239,23.217l-2.85,0.249l18.558-23.548l-13.233-19.982L181.789,142.961z"/>
</g>
<g enable-background="new    ">
	<path d="M265.919,103.745l-45.716,4.001l-8.889,35.621c1.194-0.277,2.627-0.556,4.299-0.833c1.673-0.276,3.199-0.476,4.581-0.597
		c6.042-0.528,11.368-0.319,15.976,0.625c4.605,0.947,8.501,2.453,11.684,4.523c3.184,2.071,5.65,4.684,7.406,7.834
		c1.755,3.154,2.803,6.672,3.143,10.557c0.537,6.132-0.258,11.724-2.381,16.781c-2.124,5.061-5.498,9.486-10.125,13.283
		c-4.626,3.799-10.486,6.921-17.58,9.369s-15.347,4.084-24.757,4.908c-0.433,0.037-0.971,0.085-1.619,0.142
		c-0.646,0.057-1.191,0.06-1.63,0.012l0.68-2.67c0.438,0.048,0.854,0.057,1.242,0.022s0.755-0.065,1.101-0.096
		c9.065-0.794,16.977-2.335,23.737-4.624c6.759-2.287,12.333-5.211,16.719-8.77c4.387-3.56,7.589-7.713,9.611-12.456
		c2.02-4.744,2.781-9.966,2.282-15.664c-0.31-3.539-1.265-6.741-2.862-9.602c-1.601-2.861-3.852-5.23-6.757-7.108
		c-2.904-1.877-6.481-3.237-10.731-4.086c-4.25-0.845-9.224-1.019-14.923-0.521c-2.158,0.189-4.247,0.438-6.264,0.744
		c-2.018,0.308-4.092,0.729-6.219,1.263l10.118-40.949l48.565-4.251L265.919,103.745z"/>
</g>
<polyline fill="none" stroke="#000000" stroke-miterlimit="10" points="73.785,229.584 160.134,222.029 186.74,219.701 
	273.089,212.147 "/>
<g enable-background="new    ">
	<path fill="#15858F" d="M76.725,248.914c0.715,0.284,1.503,0.388,2.363,0.312c0.957-0.084,1.689-0.386,2.198-0.903
		s0.729-1.169,0.66-1.948c-0.049-0.559-0.294-1.071-0.736-1.538c-0.442-0.468-1.204-0.999-2.284-1.596
		c-0.572-0.303-1.058-0.613-1.454-0.932c-0.397-0.319-0.729-0.655-0.992-1.01c-0.265-0.354-0.466-0.733-0.606-1.14
		c-0.14-0.406-0.23-0.847-0.272-1.325c-0.069-0.797,0.025-1.544,0.286-2.241c0.26-0.698,0.645-1.31,1.152-1.836
		s1.12-0.957,1.838-1.293s1.499-0.541,2.344-0.615c1.674-0.146,3.226,0.063,4.656,0.628l-0.451,3.654
		c-0.782-0.494-1.482-0.838-2.102-1.032c-0.62-0.195-1.225-0.268-1.814-0.216c-0.812,0.071-1.427,0.343-1.844,0.812
		s-0.598,1.016-0.543,1.638c0.021,0.239,0.08,0.459,0.178,0.659s0.256,0.406,0.476,0.62c0.22,0.215,0.518,0.445,0.893,0.693
		s0.857,0.53,1.447,0.849c1.163,0.621,2.01,1.303,2.54,2.042c0.53,0.741,0.842,1.637,0.935,2.689
		c0.077,0.893-0.035,1.719-0.338,2.476c-0.304,0.757-0.755,1.418-1.356,1.985c-0.601,0.566-1.319,1.027-2.155,1.381
		c-0.837,0.354-1.757,0.575-2.761,0.663c-0.94,0.082-1.802,0.066-2.583-0.051c-0.781-0.116-1.477-0.356-2.086-0.721l0.176-4.039
		l0.072-0.006C75.288,248.187,76.009,248.633,76.725,248.914z"/>
	<path fill="#15858F" d="M89.39,239.749c0.529-0.368,1.127-0.654,1.792-0.857c0.665-0.201,1.316-0.331,1.954-0.387
		c1.45-0.127,2.53,0.1,3.239,0.681c0.709,0.579,1.116,1.467,1.221,2.663c0.038,0.43,0.022,0.897-0.046,1.401l-0.84,6.915
		l-3.291,0.938l0.174-1.315c-0.525,0.416-1.102,0.768-1.727,1.055c-0.625,0.286-1.265,0.459-1.918,0.516
		c-0.894,0.078-1.603-0.092-2.129-0.511c-0.527-0.42-0.826-1.044-0.899-1.873c-0.083-0.956,0.18-1.811,0.788-2.562
		c0.609-0.752,1.541-1.392,2.796-1.92c0.572-0.241,1.184-0.457,1.835-0.642c0.649-0.186,1.33-0.349,2.04-0.492l0.021-0.314
		c0.031-0.196,0.039-0.389,0.022-0.581c-0.036-0.414-0.197-0.733-0.481-0.958c-0.285-0.224-0.723-0.31-1.312-0.258
		c-0.605,0.053-1.233,0.213-1.885,0.479c-0.651,0.266-1.229,0.652-1.729,1.162L89.39,239.749z M94.166,245.04
		c-0.41,0.083-0.83,0.192-1.26,0.327c-0.431,0.134-0.799,0.279-1.106,0.433c-0.57,0.276-0.966,0.583-1.185,0.924
		s-0.312,0.711-0.276,1.108c0.028,0.319,0.146,0.559,0.352,0.716c0.207,0.158,0.501,0.222,0.884,0.188
		c0.366-0.032,0.761-0.163,1.183-0.393c0.422-0.229,0.798-0.566,1.128-1.014L94.166,245.04z"/>
	<path fill="#15858F" d="M102.324,238.062l0.404-3.359l3.341-0.92l-0.47,3.992l3.156-0.276l-0.337,2.753l-3.181,0.278l-0.63,5.186
		c-0.082,0.715-0.104,1.295-0.064,1.742c0.043,0.494,0.182,0.878,0.414,1.155c0.233,0.277,0.585,0.531,1.055,0.764l-0.053,0.221
		l-3.292,0.648c-0.4-0.174-0.729-0.433-0.983-0.779c-0.256-0.348-0.411-0.84-0.467-1.478c-0.016-0.176-0.019-0.396-0.01-0.662
		s0.034-0.529,0.075-0.79l0.704-5.723l-2.176,0.19l0.337-2.752L102.324,238.062z"/>
</g>
<g enable-background="new    ">
	<path fill="#C54B82" d="M189.68,238.932c0.715,0.284,1.503,0.388,2.363,0.312c0.957-0.084,1.689-0.386,2.198-0.903
		s0.729-1.169,0.66-1.948c-0.049-0.559-0.294-1.071-0.736-1.538c-0.442-0.468-1.204-0.999-2.284-1.596
		c-0.572-0.303-1.058-0.613-1.454-0.932c-0.397-0.319-0.729-0.655-0.992-1.01c-0.265-0.354-0.466-0.733-0.606-1.14
		c-0.14-0.406-0.23-0.847-0.272-1.325c-0.069-0.797,0.025-1.544,0.286-2.241c0.26-0.698,0.645-1.31,1.152-1.836
		s1.12-0.957,1.838-1.293s1.499-0.541,2.344-0.615c1.674-0.146,3.226,0.063,4.656,0.628l-0.451,3.654
		c-0.782-0.494-1.482-0.838-2.102-1.032c-0.62-0.195-1.225-0.268-1.814-0.216c-0.812,0.071-1.427,0.343-1.844,0.812
		s-0.598,1.016-0.543,1.638c0.021,0.239,0.08,0.459,0.178,0.659s0.256,0.406,0.476,0.62c0.22,0.215,0.518,0.445,0.893,0.693
		s0.857,0.53,1.447,0.849c1.163,0.621,2.01,1.303,2.54,2.042c0.53,0.741,0.842,1.637,0.935,2.689
		c0.077,0.893-0.035,1.719-0.338,2.476c-0.304,0.757-0.755,1.418-1.356,1.985c-0.601,0.566-1.319,1.027-2.155,1.381
		c-0.837,0.354-1.757,0.575-2.761,0.663c-0.94,0.082-1.802,0.066-2.583-0.051c-0.781-0.116-1.477-0.356-2.086-0.721l0.176-4.039
		l0.072-0.006C188.242,238.204,188.964,238.65,189.68,238.932z"/>
	<path fill="#C54B82" d="M205.237,228.958l-0.891,7.161c-0.021,0.131-0.034,0.26-0.039,0.389s-0.003,0.242,0.006,0.338
		c0.042,0.479,0.195,0.812,0.462,1.007c0.266,0.193,0.63,0.27,1.092,0.229c0.494-0.043,0.949-0.203,1.367-0.48
		s0.774-0.646,1.071-1.105c0.142-0.223,0.243-0.436,0.306-0.643c0.062-0.205,0.114-0.438,0.155-0.699l0.822-6.577l3.252-0.285
		l-1.454,11.74l-3.339,0.943l0.221-1.876c-0.541,0.61-1.136,1.104-1.785,1.482s-1.349,0.599-2.098,0.664
		c-1.068,0.094-1.887-0.119-2.453-0.639c-0.568-0.521-0.896-1.3-0.987-2.336c-0.039-0.445-0.03-0.888,0.027-1.328l0.965-7.696
		L205.237,228.958z"/>
	<path fill="#C54B82" d="M216.45,227.977l3.275-0.287l-0.182,1.51c0.707-0.735,1.371-1.268,1.993-1.596
		c0.622-0.326,1.291-0.522,2.009-0.586c1.036-0.091,1.854,0.127,2.454,0.653s0.944,1.29,1.032,2.295
		c0.016,0.176,0.021,0.375,0.017,0.601c-0.005,0.225-0.014,0.442-0.027,0.653l-0.978,7.819l-3.276,0.286l0.872-7.111
		c0.039-0.276,0.049-0.542,0.026-0.797c-0.081-0.924-0.608-1.346-1.58-1.26c-0.415,0.036-0.806,0.154-1.173,0.355
		c-0.368,0.201-0.684,0.45-0.947,0.746c-0.279,0.298-0.493,0.602-0.643,0.912c-0.15,0.31-0.253,0.7-0.308,1.17l-0.767,6.38
		l-3.275,0.287L216.45,227.977z"/>
</g>
<g enable-background="new    ">
	<path d="M48.524,86.257c-0.497-0.505-0.803-0.794-1.562-1.36c-1.92,0.357-9.561,1.574-14.605,2.058l0.035-2.301
		c0.543-0.047,3.285-0.309,3.892-0.362c0.565-0.766,0.902-1.279,1.144-1.681l-5.459,0.478l0.199-2.271l8.576-0.75l0.117-1.338
		l2.594-0.227l-0.117,1.338l8.596-0.752l-0.199,2.271l-4.622,0.404c1.369,0.724,2.666,1.559,3.799,2.598L48.524,86.257z
		 M48.128,95.986c-0.152,1.741-1.33,2.16-2.167,2.233l-3.891,0.34l-0.311-2.375l3.221-0.282c0.439-0.039,0.587-0.073,0.628-0.54
		l0.08-0.913l-9.893,0.865l-0.334,3.822l-2.614,0.229l1.032-11.786l15.101-1.32L48.128,95.986z M45.956,91.392l-9.893,0.865
		l-0.106,1.21l9.893-0.865L45.956,91.392z M46.218,88.397l-9.893,0.865l-0.104,1.189l9.893-0.865L46.218,88.397z M45.04,81.946
		l-4.643,0.406c-0.736,1.055-0.76,1.1-1.182,1.643c1.823-0.202,3.42-0.425,5.269-0.671c-0.3-0.142-0.357-0.18-0.952-0.508
		L45.04,81.946z"/>
	<path d="M51.507,95.142c1.277-0.365,3.705-1.062,6.262-2.76c0.484-0.317,0.934-0.715,1.325-1.148l-7.071,0.619l0.212-2.422
		l2.155-0.188l0.515-5.882l6.358-0.556l0.113-1.296l2.573-0.225l-0.113,1.296l6.337-0.554l-0.515,5.882l2.197-0.192l-0.212,2.422
		l-7.279,0.636c1.82,2.201,5.372,2.417,7.302,2.417l-1.661,2.842c-5.566-0.419-7.736-3.622-8.222-4.717
		c-1.824,2.813-4.934,4.919-8.986,6.391L51.507,95.142z M57.388,77.285l2.531-0.222l-0.132,1.507l6.296-0.55l0.132-1.507l2.53-0.221
		l-0.132,1.507l4.143-0.362l-0.218,2.485l-4.143,0.362l-0.113,1.296l-2.53,0.221l0.113-1.296l-6.296,0.55l-0.113,1.296l-2.531,0.222
		l0.113-1.296l-4.121,0.36l0.218-2.485l4.121-0.36L57.388,77.285z M61.062,85.097l-3.869,0.338l-0.314,3.589l3.66-0.32
		c0.141-0.413,0.33-1.398,0.428-2.523L61.062,85.097z M63.606,85.212c-0.113,1.295-0.285,2.532-0.515,3.268l4.058-0.354l0.314-3.589
		l-3.827,0.334L63.606,85.212z"/>
	<path d="M79.158,90.89c-2.018,2.663-4.413,4.179-5.16,4.646l-1.472-1.916c1.886-1.155,3.159-2.195,4.651-3.822L79.158,90.89z
		 M78.126,78.969c0.293,0.206,0.94,0.634,1.682,1.412c0.805-0.892,1.051-1.334,1.372-1.911l-3.347,0.292
		c-1.432,1.411-2.604,2.25-3.486,2.833l-0.775-2.06c1.558-0.959,3.141-2.446,4.263-4.124l2.415,0.168
		c-0.152,0.309-0.323,0.598-0.611,1.043l4.1-0.358l1.539-0.514c0.246,0.527,0.469,1.054,0.996,1.894l0.142-1.614l6.924-0.605
		l-0.184,2.103c-1.012,1.606-2.145,2.927-3.019,3.91c1.188,0.655,2.153,1.013,3.161,1.346l-1.673,2.528
		C91,85.071,89.936,84.68,88.538,83.79l-0.095,1.084L77.965,85.79l0.091-1.041c-1.638,1.155-2.874,1.769-3.828,2.231l-1.076-2.161
		c0.75-0.276,1.672-0.631,3.142-1.518c-0.566-0.646-1.014-0.986-1.342-1.273l1.135-1.11c0.272,0.208,0.859,0.62,1.602,1.398
		c0.266-0.193,0.466-0.356,0.828-0.684c-0.075-0.099-0.636-0.809-1.546-1.55L78.126,78.969z M91.811,88.373l-7.781,0.68
		l-0.336,3.844c-0.136,1.55-1.134,2.059-2.097,2.143l-3.451,0.302l-0.223-2.425l2.614-0.229c0.146-0.013,0.544-0.048,0.586-0.536
		l0.251-2.866l-7.676,0.671l0.205-2.336l18.112-1.584L91.811,88.373z M87.095,82.737c-0.465-0.382-2.13-1.753-3.389-4.214
		c-1.469,2.552-3.052,4.06-3.911,4.852L87.095,82.737z M90.522,94.09c-0.678-0.321-3.147-1.516-4.81-3.857l2.302-1.403
		c1.275,1.322,2.806,2.326,4.406,3.007L90.522,94.09z M86.566,78.104c0.83,1.192,1.503,1.807,1.869,2.133
		c0.898-1.005,1.325-1.633,1.856-2.459L86.566,78.104z"/>
	<path d="M103.253,76.75l0.305-3.483l2.656-0.232l-0.305,3.483l7.781-0.681l-0.94,10.745l-7.781,0.681l-0.508,5.797l-2.656,0.232
		l0.508-5.797l-7.654,0.669l0.94-10.745L103.253,76.75z M103.024,79.362l-5.021,0.439l-0.485,5.543l5.021-0.439L103.024,79.362z
		 M110.805,78.682l-5.124,0.448l-0.485,5.543l5.124-0.448L110.805,78.682z"/>
	<path d="M116.608,72.906l8.24-0.721l-0.697,7.964l-5.772,0.505l-0.987,11.275l-2.468,0.216L116.608,72.906z M118.658,77.468
		L118.55,78.7l3.347-0.293l0.108-1.232L118.658,77.468z M118.905,74.645l-0.106,1.21l3.347-0.293l0.106-1.21L118.905,74.645z
		 M129.053,88.403l1.423-0.125c0.502-0.044,0.551-0.365,0.578-0.662l0.712-8.133l-6.024,0.527l0.697-7.964l8.492-0.743
		l-1.498,17.116c-0.067,0.764-0.395,2.142-1.776,2.262l-3.577,0.313l-0.154-2.031l-8.47,0.741l0.706-8.069l9.558-0.835
		L129.053,88.403z M122.086,86.188l-0.115,1.316l4.853-0.424l0.115-1.316L122.086,86.188z M122.334,83.364l-0.11,1.253l4.853-0.424
		l0.11-1.253L122.334,83.364z M128.425,76.613l-0.108,1.232l3.619-0.316l0.108-1.232L128.425,76.613z M128.672,73.79L128.566,75
		l3.619-0.316l0.106-1.21L128.672,73.79z"/>
	<path d="M154.462,83.209c-0.802,0.871-1.299,1.335-2.479,2.24c1.431,0.485,2.456,0.627,3.213,0.751l-1.551,2.538
		c-4.717-1.126-6.405-2.707-7.73-5.815l-1.526,0.133l-0.318,3.631c1.688-0.316,2.432-0.528,3.282-0.75l-0.138,2.288
		c-2.071,0.666-6.063,1.458-7.725,1.708l-0.222-2.446c0.564-0.049,0.794-0.069,2.25-0.323l0.34-3.886l-2.301,0.201
		c-0.644,3.555-1.244,4.956-2.283,6.626l-2.156-1.455c0.725-1.159,1.883-3.009,2.361-8.467l0.814-9.301l17.444-1.525l-0.489,5.585
		l-3.054,0.267l-0.128,1.465l2.99-0.261l-0.164,1.869l-2.99,0.261l-0.16,1.826l3.743-0.327l-0.18,2.06l-2.133,0.187L154.462,83.209z
		 M143.703,75.953l-3.347,0.293l-0.331,3.779c-0.061,0.701-0.111,1.042-0.163,1.384l3.389-0.296l0.16-1.826l-2.678,0.234
		l0.164-1.869l2.678-0.234L143.703,75.953z M152.98,71.685l-12.319,1.078l-0.134,1.529l12.319-1.078L152.98,71.685z M149.498,78.754
		l-3.703,0.324l-0.16,1.826l3.703-0.324L149.498,78.754z M149.79,75.42l-3.703,0.324l-0.128,1.465l3.703-0.324L149.79,75.42z
		 M148.467,82.701c0.328,0.519,0.654,1.059,1.529,1.741c1.143-0.963,1.882-1.829,2.069-2.056L148.467,82.701z"/>
	<path d="M162.601,78.725c-0.94,3.391-2.679,6.43-4.619,8.433l-1.88-1.753c1.811-1.718,3.254-4.225,3.955-7.004L162.601,78.725z
		 M157.355,74.632l19.578-1.712l-0.221,2.526l-8.472,0.741l-0.834,9.535c-0.108,1.231-0.784,1.86-2.123,1.978l-3.828,0.334
		l-0.204-2.658l3.116-0.272c0.46-0.041,0.504-0.297,0.53-0.595l0.708-8.092l-8.472,0.741L157.355,74.632z M159.091,69.043
		l17.067-1.493l-0.223,2.549l-17.067,1.493L159.091,69.043z M174.118,85.641c-1.812-1.843-2.824-4.957-3.303-7.572l2.525-0.853
		c0.587,3.005,1.539,4.691,2.956,6.295L174.118,85.641z"/>
</g>
<g enable-background="new    ">
	<path d="M699.599,134.107c0.101,1.148-0.003,2.257-0.311,3.328c-0.309,1.072-0.79,2.078-1.446,3.018
		c-0.657,0.942-1.474,1.801-2.449,2.576c-0.977,0.776-2.067,1.426-3.275,1.949c1.905,0.477,3.366,1.295,4.384,2.459
		s1.602,2.606,1.753,4.328c0.153,1.753-0.099,3.381-0.753,4.884c-0.656,1.503-1.616,2.833-2.88,3.986
		c-1.265,1.154-2.805,2.094-4.62,2.814c-1.816,0.72-3.824,1.177-6.023,1.369c-1.626,0.143-3.033,0.129-4.22-0.04
		c-1.188-0.168-2.217-0.456-3.088-0.862l0.19-2.232c1.007,0.49,2.039,0.817,3.098,0.981c1.059,0.165,2.336,0.181,3.835,0.049
		c1.943-0.17,3.701-0.563,5.269-1.184c1.567-0.619,2.889-1.408,3.961-2.369c1.071-0.961,1.875-2.052,2.411-3.271
		c0.536-1.218,0.743-2.529,0.62-3.933c-0.165-1.881-1-3.342-2.504-4.382c-1.505-1.042-3.691-1.436-6.561-1.185
		c-2.423,0.212-4.529,0.54-6.321,0.986l0.825-2.674c0.58,0.014,1.212-0.001,1.899-0.046c0.688-0.043,1.396-0.099,2.13-0.162
		c1.849-0.162,3.528-0.518,5.038-1.068c1.51-0.548,2.788-1.264,3.836-2.143c1.048-0.878,1.84-1.919,2.377-3.124
		c0.537-1.202,0.742-2.521,0.617-3.957c-0.146-1.656-0.841-3.001-2.088-4.033c-1.246-1.031-3.064-1.443-5.456-1.234
		c-1.499,0.131-2.795,0.366-3.89,0.703s-2.221,0.877-3.375,1.621l0.9-2.922c0.894-0.432,1.844-0.765,2.852-0.997
		c1.007-0.234,2.117-0.402,3.328-0.508c1.53-0.134,2.896-0.045,4.096,0.268c1.199,0.313,2.214,0.802,3.043,1.467
		c0.83,0.667,1.479,1.47,1.946,2.408C699.215,131.917,699.498,132.96,699.599,134.107z"/>
	<path d="M706.703,159.119c0.478-0.041,0.864,0.062,1.158,0.309c0.295,0.247,0.462,0.594,0.501,1.04
		c0.054,0.606-0.104,1.11-0.47,1.511c-0.367,0.401-0.837,0.627-1.41,0.678c-0.479,0.041-0.864-0.053-1.157-0.284
		c-0.294-0.23-0.46-0.569-0.499-1.016c-0.053-0.605,0.096-1.117,0.444-1.534C705.62,159.407,706.097,159.173,706.703,159.119z"/>
</g>
<g enable-background="new    ">
	<path d="M765.878,121.088l-52.45,4.591l63.059-72.727l0.389-0.034l-8.104,65.437l10.36-0.907l-0.303,2.506l-10.36,0.907
		l-4.249,34.954l-2.59,0.227L765.878,121.088z M766.181,118.582l7.175-58.178l-53.927,62.27L766.181,118.582z"/>
</g>
<g enable-background="new    ">
	<path d="M792.736,89.516l14.433,20.269L787.93,133l-2.849,0.25l18.558-23.548L790.405,89.72L792.736,89.516z M809.185,88.076
		l14.433,20.269l-19.239,23.216l-2.85,0.25l18.558-23.548L806.853,88.28L809.185,88.076z"/>
</g>
<g enable-background="new    ">
	<path d="M893.314,48.86l-45.716,4.001l-8.889,35.621c1.194-0.278,2.627-0.556,4.299-0.833c1.673-0.276,3.199-0.476,4.581-0.597
		c6.042-0.529,11.368-0.32,15.976,0.625c4.605,0.947,8.501,2.453,11.684,4.523c3.184,2.071,5.65,4.684,7.406,7.834
		c1.755,3.154,2.803,6.671,3.143,10.556c0.537,6.132-0.258,11.724-2.381,16.782c-2.124,5.06-5.498,9.486-10.125,13.283
		c-4.626,3.798-10.486,6.921-17.58,9.369s-15.347,4.084-24.757,4.907c-0.433,0.038-0.971,0.085-1.619,0.142
		c-0.646,0.057-1.191,0.06-1.63,0.012l0.68-2.669c0.438,0.047,0.854,0.056,1.242,0.022c0.389-0.034,0.755-0.066,1.101-0.097
		c9.065-0.794,16.977-2.334,23.737-4.624c6.759-2.287,12.333-5.21,16.719-8.769c4.387-3.56,7.589-7.712,9.611-12.456
		c2.02-4.744,2.781-9.966,2.282-15.664c-0.31-3.539-1.265-6.741-2.862-9.602c-1.601-2.861-3.852-5.23-6.757-7.108
		c-2.904-1.877-6.481-3.238-10.731-4.086c-4.25-0.844-9.224-1.019-14.923-0.52c-2.158,0.189-4.247,0.437-6.264,0.744
		c-2.018,0.308-4.092,0.729-6.219,1.263l10.118-40.949l48.565-4.251L893.314,48.86z"/>
</g>
<polyline fill="none" stroke="#000000" stroke-miterlimit="10" points="701.181,174.697 787.53,167.143 814.135,164.815 
	900.485,157.26 "/>
<g enable-background="new    ">
	<path fill="#15858F" d="M704.121,194.028c0.715,0.284,1.503,0.387,2.363,0.312c0.957-0.084,1.689-0.385,2.198-0.902
		c0.509-0.519,0.729-1.169,0.66-1.948c-0.049-0.559-0.294-1.071-0.736-1.539c-0.442-0.467-1.204-0.998-2.284-1.595
		c-0.572-0.303-1.058-0.614-1.454-0.933c-0.397-0.318-0.729-0.654-0.992-1.009c-0.265-0.354-0.466-0.734-0.606-1.14
		c-0.14-0.406-0.23-0.848-0.272-1.326c-0.069-0.797,0.025-1.544,0.286-2.24c0.26-0.698,0.645-1.311,1.152-1.836
		c0.508-0.526,1.12-0.957,1.838-1.294c0.718-0.335,1.499-0.54,2.344-0.614c1.674-0.146,3.226,0.063,4.656,0.628l-0.451,3.653
		c-0.782-0.493-1.482-0.837-2.102-1.032c-0.62-0.194-1.225-0.267-1.814-0.215c-0.812,0.071-1.427,0.343-1.844,0.812
		c-0.417,0.471-0.598,1.016-0.543,1.638c0.021,0.239,0.08,0.46,0.178,0.66c0.098,0.199,0.256,0.406,0.476,0.619
		c0.22,0.215,0.518,0.446,0.893,0.693c0.375,0.249,0.857,0.531,1.447,0.85c1.163,0.62,2.01,1.302,2.54,2.042
		c0.53,0.741,0.842,1.637,0.935,2.689c0.077,0.893-0.035,1.718-0.338,2.475c-0.304,0.758-0.755,1.418-1.356,1.985
		c-0.601,0.566-1.319,1.028-2.155,1.382c-0.837,0.354-1.757,0.574-2.761,0.662c-0.94,0.083-1.802,0.066-2.583-0.05
		c-0.781-0.117-1.477-0.357-2.086-0.721l0.176-4.039l0.072-0.007C702.684,193.3,703.405,193.747,704.121,194.028z"/>
	<path fill="#15858F" d="M716.786,184.862c0.529-0.368,1.127-0.653,1.792-0.856c0.665-0.202,1.316-0.332,1.954-0.388
		c1.45-0.127,2.53,0.101,3.239,0.681s1.116,1.467,1.221,2.663c0.038,0.43,0.022,0.897-0.046,1.401l-0.84,6.916l-3.291,0.938
		l0.174-1.316c-0.525,0.416-1.102,0.768-1.727,1.055s-1.265,0.459-1.918,0.517c-0.894,0.078-1.603-0.092-2.129-0.512
		c-0.527-0.419-0.826-1.043-0.899-1.872c-0.083-0.956,0.18-1.811,0.788-2.562c0.609-0.752,1.541-1.392,2.796-1.92
		c0.572-0.242,1.184-0.457,1.835-0.642c0.649-0.187,1.33-0.349,2.04-0.493l0.021-0.314c0.031-0.195,0.039-0.388,0.022-0.58
		c-0.036-0.414-0.197-0.734-0.481-0.958c-0.285-0.224-0.723-0.31-1.312-0.258c-0.605,0.053-1.233,0.212-1.885,0.479
		c-0.651,0.266-1.229,0.652-1.729,1.163L716.786,184.862z M721.562,190.153c-0.41,0.084-0.83,0.193-1.26,0.327
		c-0.431,0.134-0.799,0.279-1.106,0.434c-0.57,0.276-0.966,0.582-1.185,0.923c-0.219,0.342-0.312,0.712-0.276,1.109
		c0.028,0.319,0.146,0.558,0.352,0.716c0.207,0.158,0.501,0.221,0.884,0.188c0.366-0.032,0.761-0.163,1.183-0.393
		s0.798-0.567,1.128-1.015L721.562,190.153z"/>
	<path fill="#15858F" d="M729.72,183.175l0.404-3.359l3.341-0.919l-0.47,3.992l3.156-0.276l-0.337,2.752l-3.181,0.278l-0.63,5.187
		c-0.082,0.715-0.104,1.294-0.064,1.741c0.043,0.494,0.182,0.879,0.414,1.155c0.233,0.278,0.585,0.531,1.055,0.764l-0.053,0.222
		l-3.292,0.648c-0.4-0.174-0.729-0.434-0.983-0.78c-0.256-0.348-0.411-0.84-0.467-1.478c-0.016-0.176-0.019-0.396-0.01-0.661
		c0.009-0.267,0.034-0.529,0.075-0.79l0.704-5.723l-2.176,0.19l0.337-2.753L729.72,183.175z"/>
</g>
<g enable-background="new    ">
	<path fill="#C54B82" d="M817.075,184.045c0.715,0.285,1.503,0.388,2.363,0.312c0.957-0.084,1.689-0.385,2.198-0.902
		c0.509-0.519,0.729-1.17,0.66-1.949c-0.049-0.559-0.294-1.07-0.736-1.538s-1.204-0.999-2.284-1.595
		c-0.572-0.303-1.058-0.614-1.454-0.933c-0.397-0.319-0.729-0.655-0.992-1.009c-0.265-0.354-0.466-0.734-0.606-1.141
		c-0.14-0.406-0.23-0.847-0.272-1.325c-0.069-0.797,0.025-1.544,0.286-2.241c0.26-0.697,0.645-1.31,1.152-1.836
		c0.508-0.525,1.12-0.957,1.838-1.293s1.499-0.541,2.344-0.615c1.674-0.146,3.226,0.064,4.656,0.629l-0.451,3.653
		c-0.782-0.493-1.482-0.837-2.102-1.032c-0.62-0.195-1.225-0.268-1.814-0.215c-0.812,0.07-1.427,0.342-1.844,0.812
		s-0.598,1.016-0.543,1.638c0.021,0.239,0.08,0.459,0.178,0.66c0.098,0.199,0.256,0.406,0.476,0.619
		c0.22,0.215,0.518,0.445,0.893,0.693s0.857,0.531,1.447,0.85c1.163,0.62,2.01,1.302,2.54,2.041c0.53,0.742,0.842,1.637,0.935,2.689
		c0.077,0.893-0.035,1.719-0.338,2.476c-0.304,0.757-0.755,1.418-1.356,1.985c-0.601,0.566-1.319,1.027-2.155,1.381
		c-0.837,0.355-1.757,0.575-2.761,0.663c-0.94,0.083-1.802,0.066-2.583-0.05c-0.781-0.117-1.477-0.357-2.086-0.721l0.176-4.039
		l0.072-0.007C815.638,183.317,816.359,183.764,817.075,184.045z"/>
	<path fill="#C54B82" d="M832.633,174.072l-0.891,7.16c-0.021,0.131-0.034,0.26-0.039,0.389s-0.003,0.242,0.006,0.338
		c0.042,0.479,0.195,0.812,0.462,1.008c0.266,0.193,0.63,0.27,1.092,0.229c0.494-0.043,0.949-0.203,1.367-0.48
		s0.774-0.646,1.071-1.105c0.142-0.223,0.243-0.436,0.306-0.643c0.062-0.205,0.114-0.438,0.155-0.699l0.822-6.577l3.252-0.284
		l-1.454,11.74l-3.339,0.942l0.221-1.876c-0.541,0.611-1.136,1.104-1.785,1.482c-0.649,0.379-1.349,0.6-2.098,0.664
		c-1.068,0.094-1.887-0.119-2.453-0.639c-0.568-0.52-0.896-1.299-0.987-2.336c-0.039-0.445-0.03-0.887,0.027-1.328l0.965-7.696
		L832.633,174.072z"/>
	<path fill="#C54B82" d="M843.846,173.09l3.275-0.287l-0.182,1.51c0.707-0.735,1.371-1.268,1.993-1.596
		c0.622-0.326,1.291-0.522,2.009-0.586c1.036-0.09,1.854,0.127,2.454,0.654c0.601,0.525,0.944,1.289,1.032,2.295
		c0.016,0.176,0.021,0.375,0.017,0.6s-0.014,0.442-0.027,0.653l-0.978,7.819l-3.276,0.287l0.872-7.111
		c0.039-0.277,0.049-0.543,0.026-0.798c-0.081-0.924-0.608-1.345-1.58-1.26c-0.415,0.036-0.806,0.155-1.173,0.355
		c-0.368,0.202-0.684,0.45-0.947,0.746c-0.279,0.298-0.493,0.603-0.643,0.913c-0.15,0.309-0.253,0.699-0.308,1.17l-0.767,6.379
		l-3.275,0.287L843.846,173.09z"/>
</g>
<g enable-background="new    ">
	<path d="M685.46,33.689l-1.298-1.53l-1.498,1.712c-1.123-0.703-1.877-1.564-2.347-2.134c-1.399,1.999-2.679,3.101-3.573,3.831
		l-1.636-1.942c2.078-1.446,3.724-3.402,5.056-6.533l2.435,0.398c-0.26,0.613-0.545,1.249-0.942,2
		c0.15,0.177,1.076,1.212,2.844,2.132c2.899-2.297,3.912-4.388,4.346-5.311l2.411,0.442c-0.235,0.548-0.444,1.051-0.956,1.896
		c1.534,1.699,3.107,2.446,4.573,3.013l-1.902,2.527c-2.831-1.564-4.039-3.187-4.206-3.404c-1.412,1.683-2.352,2.439-2.866,2.863
		l0.356-0.031l-0.132,1.508l8.638-0.755l-0.223,2.549l-8.638,0.755l-0.397,4.544l-2.699,0.236l0.397-4.544l-8.492,0.743l0.223-2.549
		l8.492-0.743l0.132-1.508L685.46,33.689z M684.566,22.326l2.699-0.236l-0.16,1.826l8.136-0.711l-0.217,2.484l-18.866,1.65
		l0.217-2.484l8.031-0.702L684.566,22.326z"/>
	<path d="M713.711,39.416c-2.214-0.543-4.496-1.271-6.927-3.377l-0.37,4.227l-2.552,0.223l0.364-4.162
		c-2.488,2.345-5.084,3.542-7.625,4.586l-1.053-2.206c2.016-0.723,4.636-1.732,6.984-3.434l-6.693,0.585l0.183-2.081l8.492-0.743
		l0.097-1.104l-7.069,0.618l0.158-1.805l7.069-0.618l0.095-1.083l-7.572,0.662l0.177-2.018l4.204-0.368
		c-0.039-0.271-0.238-1.074-0.38-1.357l-4.622,0.404l0.191-2.188l2.97-0.26c-0.109-0.391-0.305-1.006-0.862-2.221l2.604-0.838
		c0.413,0.975,0.586,1.613,0.83,2.835l1.109-0.097l0.248-2.824l2.385-0.208l-0.248,2.824l1.526-0.134l0.247-2.824l2.365-0.207
		l-0.248,2.824l1.129-0.099c0.473-0.883,1.003-2.195,1.303-3.021l2.498,0.392c-0.103,0.219-0.597,1.359-1.228,2.404l2.907-0.254
		l-0.191,2.188l-4.623,0.404c-0.34,0.81-0.422,1.027-0.624,1.445l4.33-0.378l-0.177,2.018l-7.697,0.673l-0.095,1.083l7.175-0.627
		l-0.158,1.805l-7.175,0.627l-0.097,1.104l8.492-0.743l-0.182,2.081l-6.631,0.58c2.175,1.475,4.854,1.935,6.532,2.189
		L713.711,39.416z M708.346,26.736c0.15-0.309,0.331-0.703,0.561-1.439l-4.956,0.433c0.066,0.185,0.314,1.153,0.38,1.357
		L708.346,26.736z"/>
	<path d="M724.552,25.888l-1.068,12.21l-5.878,0.514l0.634-7.24c-0.277,0.319-0.393,0.456-0.87,0.94l-0.646-3.063
		c1.663-1.937,2.506-3.738,2.951-6.685l-2.008,0.176l0.216-2.464l7.551-0.66l-0.216,2.464l-3.139,0.274
		c-0.327,1.841-0.585,2.663-1.041,3.841L724.552,25.888z M722.32,28.379l-1.673,0.146l-0.656,7.497l1.673-0.146L722.32,28.379z
		 M727.581,21.872l-1.569,0.137l0.216-2.464l11.065-0.967l-0.216,2.464l-1.799,0.157l-0.396,4.522l2.133-0.187l-0.22,2.506
		l-2.133,0.187l-0.852,9.726l-2.552,0.223l0.852-9.726l-2.656,0.232l-0.101,1.147c-0.299,3.418-1.221,6.597-3.658,8.833
		l-1.979-1.828c0.929-0.882,2.785-2.646,3.161-6.936l0.087-0.998l-1.945,0.17l0.22-2.506l1.945-0.17L727.581,21.872z
		 M729.675,26.177l2.656-0.232l0.396-4.522l-2.656,0.232L729.675,26.177z"/>
	<path d="M748.135,24.942c-0.07,0.574-0.148,1.235-0.33,2.114l5.752-0.503l-0.567,6.478c-0.029,0.34-0.021,0.486,0.397,0.45
		l0.795-0.07c0.46-0.04,0.567-0.324,0.628-0.54c0.123-0.454,0.265-2.068,0.302-2.492l2.231,0.353
		c-0.441,3.853-0.722,4.931-2.124,5.053l-3.45,0.302c-1.653,0.145-1.548-1.066-1.49-1.724l0.448-5.118l-3.577,0.313
		c-0.524,1.5-2.109,5.621-8.864,8.087l-1.09-2.496c5.175-1.485,6.556-3.754,7.215-5.351l-5.689,0.498l0.216-2.464l6.213-0.543
		c0.137-0.623,0.196-1.071,0.329-2.114L748.135,24.942z M749.199,20.613l-2.196,0.192c-0.854,2.646-2.62,4.801-7.086,6.268
		l-0.773-2.314c3.415-0.846,4.627-1.88,5.476-3.745l-2.928,0.256l-0.183,2.081l-2.554,0.223l0.387-4.417l7.908-0.691l0.138-1.572
		l2.634-0.23l-0.138,1.572l7.991-0.699l-0.387,4.417l-0.732,0.064c-0.293,1.458-0.616,2.772-2.038,2.897l-3.994,0.349
		c-0.921,0.081-1.946,0.17-1.811-1.381L749.199,20.613z M751.274,22.519c-0.022,0.255-0.041,0.467,0.378,0.43l2.029-0.177
		c0.396-0.035,0.558-0.218,0.773-1.5l0.575,0.076l0.109-1.253l-3.682,0.322L751.274,22.519z"/>
	<path d="M761.231,25.229c-0.827,0.917-1.301,1.357-1.819,1.824l-0.708-2.825c1.383-1.323,3.523-3.491,5.171-8.797l2.523,0.095
		c-0.292,0.974-0.896,2.881-2.117,5.222l-1.287,14.694l-2.678,0.234L761.231,25.229z M771.634,15.006
		c-0.205,0.671-0.43,1.344-0.953,2.591l8.597-0.752l-0.225,2.569l-6.631,0.58l-0.226,2.569l6.149-0.538l-0.221,2.527l-6.149,0.538
		l-0.229,2.612l6.15-0.538l-0.224,2.548l-6.149,0.538l-0.393,4.48l-2.699,0.236l1.291-14.737l-0.396,0.035
		c-1.7,2.824-2.977,4.116-3.683,4.831l-1.131-2.494c2.434-2.424,3.771-5.365,4.466-7.618L771.634,15.006z"/>
	<path d="M788.805,23.051l-0.85,9.704l-8.304,0.726l0.85-9.704L788.805,23.051z M782.721,25.921l-0.436,4.969l3.431-0.3l0.436-4.969
		L782.721,25.921z M797.771,13.099l-0.677,7.73l-14.474,1.266l0.677-7.73L797.771,13.099z M785.603,16.481l-0.271,3.101l9.475-0.829
		l0.271-3.101L785.603,16.481z M798.887,22.169l-0.85,9.704l-8.638,0.755l0.85-9.704L798.887,22.169z M792.489,25.067l-0.436,4.969
		l3.765-0.329l0.436-4.969L792.489,25.067z"/>
	<path d="M819.214,24.985c-0.802,0.872-1.299,1.335-2.479,2.24c1.431,0.486,2.456,0.628,3.213,0.751l-1.551,2.538
		c-4.717-1.126-6.405-2.707-7.73-5.815l-1.526,0.133l-0.317,3.632c1.688-0.317,2.432-0.528,3.282-0.75l-0.139,2.288
		c-2.071,0.666-6.063,1.458-7.725,1.708l-0.222-2.447c0.564-0.05,0.794-0.07,2.249-0.323l0.34-3.887l-2.301,0.201
		c-0.644,3.555-1.243,4.956-2.282,6.627l-2.156-1.456c0.725-1.159,1.883-3.009,2.36-8.466l0.814-9.302l17.444-1.525L820,16.719
		l-3.053,0.267l-0.129,1.465l2.99-0.261l-0.163,1.869l-2.99,0.261l-0.16,1.826l3.743-0.327l-0.181,2.06l-2.133,0.187L819.214,24.985
		z M808.455,17.728l-3.348,0.293l-0.33,3.779c-0.062,0.702-0.112,1.042-0.163,1.384l3.389-0.296l0.16-1.826l-2.678,0.234
		l0.163-1.869l2.678-0.234L808.455,17.728z M817.732,13.461l-12.319,1.078l-0.134,1.529l12.319-1.078L817.732,13.461z M814.25,20.53
		l-3.703,0.324l-0.16,1.826l3.703-0.324L814.25,20.53z M814.541,17.196l-3.703,0.324l-0.128,1.465l3.703-0.324L814.541,17.196z
		 M813.219,24.476c0.328,0.52,0.654,1.06,1.529,1.742c1.143-0.964,1.882-1.83,2.068-2.057L813.219,24.476z"/>
</g>
<g enable-background="new    ">
	<path d="M325.027,194.788l4.244-34.63l-5.243,0.652l0.577-2.22l6.98-0.611l-4.503,36.629L325.027,194.788z"/>
</g>
<g enable-background="new    ">
	<path d="M348.61,156.49c1.525-0.551,3.102-0.898,4.727-1.041c1.531-0.133,2.888-0.043,4.071,0.27
		c1.184,0.314,2.183,0.806,2.996,1.473c0.812,0.668,1.455,1.486,1.926,2.457s0.756,2.03,0.855,3.179
		c0.098,1.115,0.062,2.179-0.105,3.188c-0.17,1.012-0.513,2.037-1.032,3.078c-0.519,1.041-1.209,2.146-2.07,3.313
		s-1.92,2.48-3.173,3.939c-0.904,1.044-2.005,2.231-3.302,3.565c-1.297,1.335-2.64,2.688-4.029,4.062
		c-1.39,1.375-2.768,2.699-4.133,3.976c-1.366,1.276-2.587,2.38-3.662,3.308l19.223-1.682l-0.489,2.115l-22.426,1.963l0.188-1.703
		c0.991-0.793,2.214-1.863,3.67-3.213c1.456-1.348,2.983-2.807,4.581-4.375c1.596-1.57,3.167-3.17,4.711-4.797
		c1.544-1.629,2.913-3.139,4.108-4.529c1.31-1.56,2.365-2.889,3.169-3.988c0.803-1.098,1.408-2.081,1.813-2.951
		c0.405-0.871,0.654-1.696,0.747-2.475c0.092-0.779,0.098-1.631,0.017-2.557c-0.15-1.722-0.851-3.121-2.102-4.201
		c-1.251-1.078-3.056-1.516-5.415-1.309c-1.722,0.15-3.396,0.562-5.023,1.234c-1.628,0.674-3.313,1.697-5.056,3.069l1.062-3.273
		C345.699,157.74,347.083,157.041,348.61,156.49z"/>
	<path d="M368.895,187.864c0.478-0.042,0.864,0.062,1.158,0.308c0.295,0.248,0.462,0.595,0.501,1.041
		c0.054,0.606-0.104,1.11-0.47,1.51c-0.367,0.402-0.837,0.628-1.41,0.678c-0.479,0.042-0.864-0.053-1.157-0.283
		c-0.294-0.23-0.46-0.57-0.499-1.016c-0.053-0.605,0.096-1.117,0.444-1.534C367.812,188.152,368.289,187.918,368.895,187.864z"/>
</g>
<g enable-background="new    ">
	<path d="M388.185,187.646c15.271-7.427,27.118-15.686,35.545-24.774c8.425-9.09,13.806-19.173,16.144-30.255
		c-7.182,7.416-16.773,11.648-28.772,12.699c-4.145,0.362-7.953,0.088-11.426-0.828c-3.474-0.913-6.494-2.367-9.061-4.361
		c-2.568-1.993-4.615-4.51-6.142-7.554c-1.528-3.04-2.462-6.503-2.802-10.389c-0.416-4.748,0.057-9.27,1.422-13.565
		c1.363-4.296,3.42-8.13,6.171-11.502c2.749-3.373,6.098-6.123,10.044-8.253c3.944-2.127,8.25-3.397,12.912-3.806
		c9.237-0.809,16.563,1.378,21.977,6.559c5.412,5.183,8.537,12.564,9.376,22.147c1.391,15.887-2.363,30.156-11.26,42.811
		c-8.897,12.654-23.232,23.807-43.007,33.453L388.185,187.646z M410.875,142.726c12.258-1.073,22.156-5.767,29.694-14.083
		c0.644-4.58,0.738-9.461,0.284-14.642c-0.778-8.891-3.549-15.696-8.312-20.413c-4.764-4.716-11.462-6.696-20.094-5.94
		c-4.318,0.378-8.281,1.553-11.894,3.52c-3.612,1.97-6.676,4.5-9.188,7.59c-2.515,3.091-4.401,6.629-5.661,10.609
		c-1.263,3.982-1.699,8.175-1.314,12.578c0.62,7.08,3.268,12.482,7.944,16.204C397.009,141.873,403.189,143.397,410.875,142.726z"/>
</g>
<g enable-background="new    ">
	<path d="M457.518,118.034l14.433,20.269l-19.239,23.216l-2.849,0.25l18.558-23.548l-13.233-19.982L457.518,118.034z
		 M473.966,116.594l14.433,20.269l-19.239,23.216l-2.85,0.25l18.558-23.549l-13.233-19.982L473.966,116.594z"/>
</g>
<g enable-background="new    ">
	<path d="M498.803,178.224l11.894-96.697l-13.339,1.168l0.432-2.517l15.801-1.383l-12.197,99.202L498.803,178.224z"/>
</g>
<g enable-background="new    ">
	<path d="M561.924,174.787c-7.167,0.628-13.066-1.683-17.702-6.934c-4.635-5.249-7.43-13.312-8.382-24.191
		c-0.884-10.101-0.614-19.433,0.812-27.998c1.424-8.563,3.751-16.032,6.978-22.404c3.227-6.371,7.221-11.441,11.979-15.207
		c4.76-3.765,10.031-5.903,15.816-6.409c6.994-0.612,12.828,1.706,17.508,6.95c4.679,5.247,7.502,13.395,8.47,24.445
		c0.884,10.101,0.59,19.415-0.882,27.938c-1.473,8.525-3.824,15.952-7.055,22.28c-3.23,6.33-7.205,11.376-11.921,15.138
		C572.829,172.156,567.622,174.288,561.924,174.787z M561.697,172.197c5.265-0.461,10.111-2.495,14.538-6.103
		c4.426-3.604,8.156-8.434,11.194-14.485c3.037-6.051,5.219-13.181,6.546-21.388c1.324-8.207,1.562-17.187,0.708-26.944
		c-0.907-10.361-3.418-17.926-7.534-22.701c-4.116-4.771-9.279-6.887-15.496-6.343c-5.439,0.476-10.396,2.521-14.862,6.13
		c-4.47,3.611-8.199,8.462-11.189,14.551c-2.99,6.091-5.126,13.26-6.404,21.506c-1.28,8.247-1.491,17.248-0.638,27.003
		c0.893,10.188,3.352,17.673,7.381,22.452C549.969,170.658,555.222,172.765,561.697,172.197z"/>
</g>
<polyline fill="none" stroke="#000000" stroke-miterlimit="10" points="364.21,204.125 475.296,194.406 501.901,192.078 
	602.924,183.24 "/>
<g enable-background="new    ">
	<path fill="#15858F" d="M391.887,221.291c0.715,0.284,1.503,0.388,2.363,0.312c0.957-0.084,1.689-0.386,2.198-0.903
		s0.729-1.169,0.66-1.948c-0.049-0.559-0.294-1.071-0.736-1.538c-0.442-0.468-1.204-0.999-2.284-1.596
		c-0.572-0.303-1.058-0.613-1.454-0.932c-0.397-0.319-0.729-0.655-0.992-1.01c-0.265-0.354-0.466-0.733-0.606-1.14
		c-0.14-0.406-0.23-0.847-0.272-1.325c-0.069-0.797,0.025-1.544,0.286-2.241c0.26-0.698,0.645-1.31,1.152-1.836
		s1.12-0.957,1.838-1.293s1.499-0.541,2.344-0.615c1.674-0.146,3.226,0.063,4.656,0.628l-0.451,3.654
		c-0.782-0.494-1.482-0.838-2.102-1.032c-0.62-0.195-1.225-0.268-1.814-0.216c-0.812,0.071-1.427,0.343-1.844,0.812
		s-0.598,1.016-0.543,1.638c0.021,0.239,0.08,0.459,0.178,0.659s0.256,0.406,0.476,0.62c0.22,0.215,0.518,0.445,0.893,0.693
		s0.857,0.53,1.447,0.849c1.163,0.621,2.01,1.303,2.54,2.042c0.53,0.741,0.842,1.637,0.935,2.689
		c0.077,0.893-0.035,1.719-0.338,2.476c-0.304,0.757-0.755,1.418-1.356,1.985c-0.601,0.566-1.319,1.027-2.155,1.381
		c-0.837,0.354-1.757,0.575-2.761,0.663c-0.94,0.082-1.802,0.066-2.583-0.051c-0.781-0.116-1.477-0.356-2.086-0.721l0.176-4.039
		l0.072-0.006C390.449,220.563,391.171,221.01,391.887,221.291z"/>
	<path fill="#15858F" d="M404.552,212.126c0.529-0.368,1.127-0.654,1.792-0.857c0.665-0.201,1.316-0.331,1.954-0.387
		c1.45-0.127,2.53,0.1,3.239,0.681c0.709,0.579,1.116,1.467,1.221,2.663c0.038,0.43,0.022,0.897-0.046,1.401l-0.84,6.915
		l-3.291,0.938l0.174-1.315c-0.525,0.416-1.102,0.768-1.727,1.055c-0.625,0.286-1.265,0.459-1.918,0.516
		c-0.894,0.078-1.603-0.092-2.129-0.511c-0.527-0.42-0.826-1.044-0.899-1.873c-0.083-0.956,0.18-1.811,0.788-2.562
		c0.609-0.752,1.541-1.392,2.796-1.92c0.572-0.241,1.184-0.457,1.835-0.642c0.649-0.186,1.33-0.349,2.04-0.492l0.021-0.314
		c0.031-0.196,0.039-0.389,0.022-0.581c-0.036-0.414-0.197-0.733-0.481-0.958c-0.285-0.224-0.723-0.31-1.312-0.258
		c-0.605,0.053-1.233,0.213-1.885,0.479c-0.651,0.266-1.229,0.652-1.729,1.162L404.552,212.126z M409.327,217.417
		c-0.41,0.083-0.83,0.192-1.26,0.327c-0.431,0.134-0.799,0.279-1.106,0.433c-0.57,0.276-0.966,0.583-1.185,0.924
		s-0.312,0.711-0.276,1.108c0.028,0.319,0.146,0.559,0.352,0.716c0.207,0.158,0.501,0.222,0.884,0.188
		c0.366-0.032,0.761-0.163,1.183-0.393c0.422-0.229,0.798-0.566,1.128-1.014L409.327,217.417z"/>
	<path fill="#15858F" d="M417.485,210.438l0.404-3.359l3.341-0.92l-0.47,3.992l3.156-0.276l-0.337,2.753l-3.181,0.278l-0.63,5.186
		c-0.082,0.715-0.104,1.295-0.064,1.742c0.043,0.494,0.182,0.878,0.414,1.155c0.233,0.277,0.585,0.531,1.055,0.764l-0.053,0.221
		l-3.292,0.648c-0.4-0.174-0.729-0.433-0.983-0.779c-0.256-0.348-0.411-0.84-0.467-1.478c-0.016-0.176-0.019-0.396-0.01-0.662
		s0.034-0.529,0.075-0.79l0.704-5.723l-2.176,0.19l0.337-2.752L417.485,210.438z"/>
</g>
<g enable-background="new    ">
	<path fill="#C54B82" d="M504.841,211.309c0.715,0.284,1.503,0.388,2.363,0.312c0.957-0.084,1.689-0.386,2.198-0.903
		s0.729-1.169,0.66-1.948c-0.049-0.559-0.294-1.071-0.736-1.538c-0.442-0.468-1.204-0.999-2.284-1.596
		c-0.572-0.303-1.058-0.613-1.454-0.932c-0.397-0.319-0.729-0.655-0.992-1.01c-0.265-0.354-0.466-0.733-0.606-1.14
		c-0.14-0.406-0.23-0.847-0.272-1.325c-0.069-0.797,0.025-1.544,0.286-2.241c0.26-0.698,0.645-1.31,1.152-1.836
		s1.12-0.957,1.838-1.293s1.499-0.541,2.344-0.615c1.674-0.146,3.226,0.063,4.656,0.628l-0.451,3.654
		c-0.782-0.494-1.482-0.838-2.102-1.032c-0.62-0.195-1.225-0.268-1.814-0.216c-0.812,0.071-1.427,0.343-1.844,0.812
		s-0.598,1.016-0.543,1.638c0.021,0.239,0.08,0.459,0.178,0.659s0.256,0.406,0.476,0.62c0.22,0.215,0.518,0.445,0.893,0.693
		s0.857,0.53,1.447,0.849c1.163,0.621,2.01,1.303,2.54,2.042c0.53,0.741,0.842,1.637,0.935,2.689
		c0.077,0.893-0.035,1.719-0.338,2.476c-0.304,0.757-0.755,1.418-1.356,1.985c-0.601,0.566-1.319,1.027-2.155,1.381
		c-0.837,0.354-1.757,0.575-2.761,0.663c-0.94,0.082-1.802,0.066-2.583-0.051c-0.781-0.116-1.477-0.356-2.086-0.721l0.176-4.039
		l0.072-0.006C503.403,210.581,504.125,211.027,504.841,211.309z"/>
	<path fill="#C54B82" d="M520.398,201.335l-0.891,7.161c-0.021,0.131-0.034,0.26-0.039,0.389s-0.003,0.242,0.006,0.338
		c0.042,0.479,0.195,0.812,0.462,1.007c0.266,0.193,0.63,0.27,1.092,0.229c0.494-0.043,0.949-0.203,1.367-0.48
		s0.774-0.646,1.071-1.105c0.142-0.223,0.243-0.436,0.306-0.643c0.062-0.205,0.114-0.438,0.155-0.699l0.822-6.577l3.252-0.285
		l-1.454,11.74l-3.339,0.943l0.221-1.876c-0.541,0.61-1.136,1.104-1.785,1.482s-1.349,0.599-2.098,0.664
		c-1.068,0.094-1.887-0.119-2.453-0.639c-0.568-0.521-0.896-1.3-0.987-2.336c-0.039-0.445-0.03-0.888,0.027-1.328l0.965-7.696
		L520.398,201.335z"/>
	<path fill="#C54B82" d="M531.611,200.354l3.275-0.287l-0.182,1.51c0.707-0.735,1.371-1.268,1.993-1.596
		c0.622-0.326,1.291-0.522,2.009-0.586c1.036-0.091,1.854,0.127,2.454,0.653s0.944,1.29,1.032,2.295
		c0.016,0.176,0.021,0.375,0.017,0.601c-0.005,0.225-0.014,0.442-0.027,0.653l-0.978,7.819l-3.276,0.286l0.872-7.111
		c0.039-0.276,0.049-0.542,0.026-0.797c-0.081-0.924-0.608-1.346-1.58-1.26c-0.415,0.036-0.806,0.154-1.173,0.355
		c-0.368,0.201-0.684,0.45-0.947,0.746c-0.279,0.298-0.493,0.602-0.643,0.912c-0.15,0.31-0.253,0.7-0.308,1.17l-0.767,6.38
		l-3.275,0.287L531.611,200.354z"/>
</g>
<g enable-background="new    ">
	<path d="M322.752,70.977c1.577-0.707,7.32-3.253,9.184-10.307l-8.053,0.704l0.238-2.718l8.241-0.721l0.429-4.905l2.803-0.245
		l-0.392,4.479c-0.006,0.064-0.049,0.321-0.058,0.428l8.555-0.749l-0.238,2.718l-8.179,0.715c0.716,5.585,3.831,7.694,7.793,8.907
		l-1.852,2.881c-1.935-0.654-6.427-2.452-7.76-8.32c-2.789,6.481-7.691,8.913-9.298,9.705L322.752,70.977z"/>
	<path d="M361.085,57.552l-0.182,2.081c-1.243,1.162-3.318,2.565-5.21,3.553l8.429-0.737l-0.214,2.443l-8.638,0.755l-0.282,3.228
		c-0.091,1.04-0.275,2.194-2.241,2.366l-4.058,0.355l-0.208-2.594l3.053-0.267c0.732-0.064,0.823-0.156,0.889-0.899l0.171-1.953
		l-8.555,0.748l0.214-2.443l8.555-0.748l0.123-1.4l0.854-0.055c0.237-0.105,1.683-0.716,2.72-1.671l-8.491,0.743l0.208-2.378
		L361.085,57.552z M348.067,54.981c-0.334-0.918-0.535-1.471-1.081-2.35l2.601-1.007c0.789,1.174,1.123,2.346,1.325,3.108l3.2-0.28
		c-0.476-1.433-0.822-1.993-1.129-2.515l2.621-1.009c0.536,0.986,0.917,1.86,1.228,3.286l2.321-0.203
		c0.292-0.489,0.707-1.199,1.631-3.451l2.739,0.477c-0.579,1.168-0.899,1.744-1.504,2.724l2.362-0.207l-0.44,5.032l-2.552,0.223
		l0.234-2.675l-13.699,1.198l-0.234,2.675l-2.573,0.225l0.44-5.032L348.067,54.981z"/>
	<path d="M366.028,64.685l12.801-1.12l0.794-9.068l-12.634,1.105l0.245-2.803l15.521-1.357l-1.284,14.674l-15.688,1.372
		L366.028,64.685z"/>
	<path d="M402.762,54.603c-5.377,8.056-12.224,11.352-16.779,12.658l-0.727-2.867c4.364-1.225,10.677-3.862,15.868-12.197
		L402.762,54.603z M392.145,55.426c-1.85-1.166-3.565-1.943-5.994-2.658l1.535-2.601c2.313,0.598,4.175,1.384,6.21,2.555
		L392.145,55.426z"/>
	<path d="M408.337,55.695c-1.521-2.564-2.721-4.019-3.622-5.099l2.312-1.993c1.644,1.857,2.536,3.044,3.813,5.04L408.337,55.695z
		 M421.547,47.522c-1.145,6.443-3.81,14.115-13.4,17.925l-2.02-2.057c9.213-3.292,11.608-10.267,12.425-16.027L421.547,47.522z"/>
	<path d="M441.108,52.218l-0.236,2.696l-17.653,1.544l0.236-2.696L441.108,52.218z"/>
	<path d="M449.129,53.582c-2.044-0.833-3.496-1.317-5.889-1.972l1.308-2.601c1.117,0.282,3.026,0.746,5.892,1.93L449.129,53.582z
		 M461.284,49.168c-4.04,5.833-9.347,10.744-16.538,13.227l-0.894-2.83c3.976-1.085,10.081-4.19,15.809-12.719L461.284,49.168z
		 M451.286,48.377c-2.105-0.848-3.353-1.287-5.767-1.94l1.306-2.58c2.149,0.571,3.482,1.002,5.753,1.858L451.286,48.377z"/>
	<path d="M480.073,42.531l1.061,1.403c-0.802,1.335-2.787,4.564-6.062,7.842l-2.106-1.543c1.582-1.487,2.507-2.558,3.975-4.625
		l-13.763,1.204l0.247-2.824L480.073,42.531z M472.708,48.19c-0.486,5.311-2.349,9.52-7.112,12.465l-1.986-1.954
		c4.434-2.517,5.789-5.67,6.19-10.257L472.708,48.19z"/>
	<path d="M496.956,57.66c-0.213-0.656-0.538-1.681-1.071-2.941l-13.934,3.159l-0.411-2.662l2.985-0.661
		c1.982-4.157,3.579-7.457,6.389-14.425l2.637,0.718c-2.721,6.644-4.929,11.241-5.81,13.003l7.066-1.523
		c-0.97-1.959-1.85-3.294-2.217-3.852l2.462-1.564c1.653,2.468,3.195,5.241,4.574,9.167L496.956,57.66z"/>
	<path d="M510.666,38.148c-1.096,9.432-3.427,15.2-7.912,19.721l-1.761-2.163c1.675-1.601,5.893-5.679,6.95-17.53L510.666,38.148z
		 M518.917,56.519c-2.956-3.218-5.2-7.7-4.48-18.762l2.775-0.413c-0.82,9.134,0.826,13.563,3.897,16.644L518.917,56.519z"/>
	<path d="M524.286,36.957l18.323-1.603l-0.221,2.527l-7.845,0.686l-0.448,5.117l6.882-0.602l-0.221,2.528l-6.882,0.602l-0.522,5.966
		l8.472-0.741l-0.224,2.549l-19.577,1.712l0.224-2.549l8.408-0.735l0.522-5.966l-6.84,0.598l0.221-2.528l6.84-0.598l0.448-5.117
		l-7.781,0.681L524.286,36.957z"/>
	<path d="M546.125,35.09l16.503-1.443l-0.224,2.548c-2.232,1.797-4.461,3.298-7.242,4.722l-0.104,1.188l8.45-0.739l-0.229,2.612
		l-8.45,0.739l-0.519,5.925c-0.201,2.294-0.464,2.929-2.994,3.15l-4.016,0.351l-0.147-2.601l3.347-0.292
		c0.88-0.077,1.049-0.113,1.135-1.09l0.455-5.203l-8.472,0.741l0.229-2.612l8.472-0.741l0.281-3.206l1.652-0.145
		c1.523-0.807,2.491-1.44,3.733-2.349l-12.09,1.058L546.125,35.09z"/>
</g>
</svg>
