<?xml version="1.0" encoding="utf-8"?>
<!-- Generator: Adobe Illustrator 21.1.0, SVG Export Plug-In . SVG Version: 6.00 Build 0)  -->
<svg version="1.1" id="レイヤー_1" xmlns="http://www.w3.org/2000/svg" xmlns:xlink="http://www.w3.org/1999/xlink" x="0px"
	 y="0px" viewBox="0 0 500 500" style="enable-background:new 0 0 500 500;" xml:space="preserve">
<style type="text/css">
	.st0{fill:#D69796;}
	.st1{fill:#87C1C4;}
	.st2{fill:#A9C286;}
	.st3{fill:#D3C692;}
	.st4{fill:#F2EEEB;}
</style>
<g>
	<polygon class="st0" points="497,87.4 493.7,88.7 490.4,87.7 487.2,88.5 483.9,87.6 480.7,87.8 477.4,88.8 474.1,87.5 470.9,88.4 
		467.3,87.6 467.7,91.2 466.9,94.4 467,97.7 467.6,101 466.7,104.2 467.1,107.5 467.7,110.7 468.5,114 468.1,114 468.2,115 
		466.6,118.3 466.6,121.5 466.9,124.8 467.7,128 467.7,131.3 467.4,134.6 466.4,137.8 467.5,140.7 470.4,141.1 473.6,141.2 
		476.9,140.7 480.2,141.4 483.4,141.2 486.7,141.9 489.9,140.3 493.2,141.9 493.7,141.8 493.7,140.5 493.7,140.5 497,141 500,140 
		500,87.1 	"/>
	<polygon class="st1" points="497,196.9 493.7,195.8 493.7,197 493.7,197 490.3,197.1 487.3,196.3 483.8,196.9 480.6,197.4 
		477.4,196.8 474.2,197.2 470.9,195.6 468,197.1 466.8,199.9 468.2,203.4 468.2,206.6 466.4,209.9 467.1,213.1 467.6,216.3 
		468.4,219.7 468.8,222.9 467.5,226.3 465.8,229.6 469.1,232.5 468.5,235.9 467.8,239 467.9,242.6 466.1,245.7 466.7,249.9 
		470.9,250.1 474.3,249.7 477.4,249.1 480.6,249.4 483.9,248.9 487.2,248.8 490.4,249.2 493.7,248.4 493.7,247.6 493.7,247.6 
		497,247.6 500,248.8 500,196.9 	"/>
	<polygon class="st2" points="493.7,304.6 493.7,305.4 493.2,305.3 489.9,306.5 486.7,306.5 483.4,306.6 480.2,304.7 476.9,305.6 
		473.6,304.7 470.4,305.9 467.8,306.3 467.4,308.9 468.1,312.1 467.8,315.4 466.5,318.7 466.2,321.9 466.9,325.2 467.2,328.4 
		466.4,331.7 467.5,335 467.3,338.2 467.7,341.5 466.7,344.7 466.5,348 466.3,351.3 466.8,354.5 466.8,358.1 470.4,358 473.6,358.3 
		476.9,357.3 480.2,357.7 483.4,357.1 486.7,358.4 489.9,356.9 493.2,357.2 493.7,357.4 493.7,356.4 493.7,356.4 497,356.8 
		500,356.8 500,304.4 497,304.2 	"/>
	<polygon class="st3" points="493.7,413.2 493.7,413 490.7,412.9 487.4,413.8 484.2,412.3 480.9,412.4 477.6,414 474.4,413.3 
		471.1,413.2 467.4,412.8 467.7,416.5 467.5,419.7 467.4,423 468.3,426.3 467.6,429.5 467.9,432.8 468.9,436 468.6,439.3 
		468.5,442.6 468.5,445.8 468.6,449.1 467.3,452.3 468.5,455.6 467.2,458.9 467.2,462.1 468.2,465.1 471.1,465.8 474.4,465.4 
		477.7,465.4 480.9,465 484.2,465.8 487.4,464.9 490.7,465.1 493.7,466.1 493.7,464.8 493.7,464.8 497,465.6 500,464.9 500,413.2 
		497,412 	"/>
	<polygon class="st0" points="142.1,4.4 142.3,7.7 143.1,10.9 142.8,14.2 142.4,17.4 142.5,20.7 142.8,24 143.2,27.2 142.2,30.5 
		143.3,33.6 146.3,33.6 149.6,34.5 152.9,33 156.1,33.4 159.4,33.5 162.6,34.3 165.9,32.8 169.2,32.9 172.4,33.5 175.7,33.1 
		178.9,34.6 182.2,34.4 185.5,33 188.7,34 192,34 195.5,34 194.6,30.5 194.8,27.2 195.3,24 195.2,20.7 194.3,17.4 194.5,14.2 
		195.6,10.9 195.4,7.7 195.6,4.4 194.6,1.1 194.8,0 143,0 142.8,1.1 	"/>
	<polygon class="st1" points="251,4.4 251.5,7.7 251.5,10.9 251.6,14.2 252.4,17.4 252.5,20.7 251.9,24 251.6,27.2 251.4,30.5 
		251.2,33.9 254.7,33.6 258,33.2 261.2,32.8 264.5,33.5 267.7,34 271,32.8 274.3,33.4 277.5,33.4 280.8,33.9 284,34.3 287.3,33.4 
		290.6,32.8 293.8,33.2 297.1,34.6 300.3,32.9 303.5,33.6 302.8,30.5 304.2,27.2 302.9,24 303.5,20.7 303.9,17.4 304.1,14.2 
		302.6,10.9 304.3,7.7 303.7,4.4 302.8,1.1 303,0 250.9,0 251.2,1.1 	"/>
	<polygon class="st2" points="359,4.4 360,7.7 359.9,10.9 359.9,14.2 359.8,17.4 359.3,20.7 359.5,24 360.4,27.2 360.6,30.5 
		359.6,33.9 363,34.2 366.3,33.6 369.6,33.2 372.8,33.5 376.1,34 379.3,34.5 382.6,32.9 385.9,33.2 389.1,33.3 392.4,32.8 
		395.6,33.8 398.9,33.1 402.2,33.9 405.4,34.1 408.7,33.2 411.6,33.4 411.1,30.4 411.8,27.2 411.6,24 410.9,20.7 411.5,17.4 
		411.3,14.2 412.4,10.9 411.5,7.7 411.9,4.4 411.7,1.1 411.8,0 360.1,0 360.6,1.1 	"/>
	<polygon class="st0" points="89,52.1 88,55.3 88.4,58.6 89.4,61.8 89.3,65.1 89.8,68.4 89.9,71.6 88.2,74.9 88.1,78.1 89.7,81.4 
		88.6,84.7 88.3,88.5 92.2,87.9 95.4,87.6 98.7,87.9 102,87.4 105.2,87 108.5,87.2 111.7,87 115,88 118.3,88.9 121.5,87.8 124.8,89 
		128,87.4 131.3,87 134.6,87.7 137.8,88.1 141.8,88.6 141,84.7 141.4,81.4 142,78.1 141.5,74.9 141.3,71.6 142,68.3 141.5,65.1 
		140.7,61.8 140,58.6 140.1,55.3 140.9,52 142.1,48.8 141.2,45.5 141.2,42.3 140.4,39 140.5,36.4 137.8,34.7 134.5,36.7 131.3,36.6 
		128,35.2 124.8,35.7 121.5,34.8 118.2,36.7 115,35.1 111.7,35.9 108.5,35.2 105.2,35.4 101.9,35.9 98.7,36.1 95.4,36.5 92.2,35.8 
		89.3,36.1 88.9,39 89,42.3 89.8,45.5 88.9,48.8 	"/>
	<polygon class="st1" points="197.9,61.8 197.4,65.1 198,68.4 196.3,71.6 196.8,74.9 196.6,78.1 198.1,81.4 196.9,84.7 196.8,88.3 
		200.5,87.6 203.8,87.6 207,88.7 210.3,87.9 213.6,88.8 216.8,87.5 220.1,88.2 223.3,88 226.6,88.1 229.9,88.7 233.1,88.5 
		236.4,88.4 239.6,86.9 242.9,87 246.2,87.6 249.9,88.4 250.4,84.6 249.5,81.4 248.8,78.1 249.6,74.9 250.2,71.6 248.6,68.3 
		249.2,65.1 250.1,61.8 249,58.6 249.7,55.3 249.1,52 249.2,48.8 250,45.5 248.4,42.3 250.4,39 250.2,35 246.2,36.6 242.9,36.1 
		239.6,36.6 236.4,36.6 233.1,34.9 229.8,36.1 226.6,35.8 223.3,36.2 220.1,35.7 216.8,35.1 213.5,36.2 210.3,35.5 207,35.6 
		203.8,34.8 200.5,35.6 197.9,36.3 198,39 198.2,42.3 198.1,45.5 197.1,48.8 196.9,52.1 197.6,55.3 196.2,58.6 	"/>
	<polygon class="st1" points="192.7,90.1 189.5,89.6 186.2,90 182.9,90 179.7,88.4 176.4,89.5 173.2,89.2 169.9,89.6 166.6,89.1 
		163.4,88.6 160.1,89.6 156.9,88.9 153.6,89 150.3,88.3 147.1,89 144.4,89.8 144.5,92.4 144.7,95.7 144.6,99 143.7,102.2 
		143.5,105.5 144.2,108.7 142.8,112 143.8,114 143.6,114 143.6,114 143.2,117.3 143,120.5 142.3,123.8 143.2,127 143.2,130.3 
		143.8,133.6 142.2,136.8 142.6,140.6 146.3,140.6 149.6,140.8 152.9,139.5 156.1,139.7 159.4,139.1 162.6,139.5 165.9,139.8 
		169.2,141.1 172.4,139.9 175.7,141 178.9,139.9 182.2,140.4 185.5,140.3 188.7,140.4 192,139.8 194.8,139.6 195.5,136.8 
		195.8,133.6 194.3,130.3 194.6,127 196,123.8 196.3,120.5 194.7,117.3 194.3,114 196.2,114 195.6,112 196.3,108.7 195.7,105.5 
		195.8,102.2 196.6,98.9 195,95.7 197,92.4 196.7,88.4 	"/>
	<polygon class="st2" points="306.2,71.6 306.2,74.9 305.3,78.1 305.9,81.4 306.2,84.7 305.1,88.4 308.9,88 312.1,87.4 315.4,87.2 
		318.6,87 321.9,88.5 325.2,87.3 328.4,88.2 331.7,88.8 334.9,88.2 338.2,88.6 341.5,87.6 344.7,88.3 348,87.6 351.2,87 354.5,87.2 
		358,88.1 358.7,84.6 357.8,81.4 358.8,78.1 357.2,74.9 358.3,71.6 357.1,68.3 358.3,65.1 356.9,61.8 358.6,58.6 357.2,55.3 
		358.4,52 358.7,48.8 357.7,45.5 356.8,42.3 356.7,39 357.4,36.2 354.5,35.6 351.2,36.8 348,36.1 344.7,35.3 341.5,36.5 338.2,35.8 
		334.9,35.5 331.7,36.3 328.4,36.7 325.2,36.7 321.9,36.5 318.6,35.4 315.4,35.8 312.1,35.1 308.9,35.5 305,35.1 304.9,39 
		305.1,42.3 305.6,45.5 305.8,48.8 306.1,52.1 306.5,55.3 304.9,58.6 305,61.8 305.4,65.1 304.8,68.4 	"/>
	<polygon class="st2" points="303.6,92.2 304.2,89.3 301.3,88.8 298.1,90 294.8,89.3 291.5,88.5 288.3,89.7 285,89 281.8,88.6 
		278.5,89.5 275.2,89.9 272,89.9 268.7,89.7 265.5,88.5 262.2,88.9 258.9,88.3 255.7,88.6 251.8,88.3 251.7,92.2 252,95.4 
		252.5,98.7 252.7,102 253,105.2 253.3,108.5 251.7,111.7 251.8,114 252,114 252,114 250.6,117.3 251.4,120.5 250.4,123.8 
		250.8,127 252.3,130.3 252.2,133.6 251.9,136.8 251.7,139.8 254.7,140 258,139.8 261.2,140.2 264.5,140.5 267.7,140.4 271,139.8 
		274.3,140.1 277.5,140.8 280.8,140.3 284,140.6 287.3,140.5 290.6,139.5 293.8,139.1 297.1,140.2 300.3,140.3 304,140.5 
		302.8,136.9 303.1,133.6 303.5,130.3 303.4,127 303.7,123.8 303.3,120.5 302.6,117.3 304.4,114 304.3,114 305.5,111.7 304,108.5 
		305.2,105.2 305.5,102 304.6,98.7 303.6,95.4 	"/>
	<polygon class="st3" points="417.2,88.3 420.5,88 423.7,87.9 427,87.6 430.3,88.4 433.5,87.4 436.8,87.6 440,88.7 443.3,87.1 
		446.6,87.4 449.8,88.3 453.1,88.1 456.3,87.9 459.6,87.7 462.9,87.2 466.4,88.2 465.3,84.7 466.4,81.4 466.3,78.1 466.7,74.9 
		465.9,71.6 465.5,68.3 465.6,65.1 465.1,61.8 467.1,58.6 465.9,55.3 467,52 466.7,48.8 465.4,45.5 465.7,42.3 466.1,39 466.4,35.5 
		462.8,35 459.6,36.2 456.3,35.4 453.1,35.1 449.8,36.5 446.5,35.8 443.3,35.6 440,35.5 436.8,35.4 433.5,36.4 430.2,34.9 427,34.9 
		423.7,36.5 420.5,35.8 417.2,35.8 413.5,35.3 413.8,39 413.6,42.3 413.5,45.5 414.4,48.8 413.6,52.1 414,55.3 415,58.6 414.7,61.8 
		414.6,65.1 414.6,68.4 414.7,71.6 413.3,74.9 414.6,78.1 413.2,81.4 413.2,84.7 414.3,87.6 	"/>
	<polygon class="st3" points="468.9,4.7 468.6,7.9 468.5,11.2 468.5,14.4 468.6,17.7 467.3,21 468.5,24.2 467.2,27.5 467.2,30.7 
		468.2,33.7 471.1,34.4 474.4,34 477.7,34 480.9,33.6 484.2,34.4 487.4,33.5 490.7,33.7 493.7,34.7 493.7,33.4 493.7,33.4 497,34.2 
		500,33.5 500,0 467.8,0 467.9,1.4 	"/>
	<polygon class="st3" points="412.7,102.8 411.5,99.5 411.7,96.2 412.1,93 412.4,89.5 408.9,88.9 405.6,90.2 402.4,89.3 399.1,89.1 
		395.8,90.5 392.6,89.7 389.3,89.6 386.1,89.5 382.8,89.4 379.5,90.4 376.3,88.9 373,88.9 369.8,90.5 366.5,89.8 363.2,89.8 
		359.5,89.3 359.8,93 359.6,96.2 359.5,99.5 360.4,102.8 359.7,106 360,109.3 361,112.5 360.9,114 359.3,114 359.3,114 360.1,117.3 
		360.7,120.5 360.5,123.8 360.7,127 359.4,130.3 360.2,133.6 358.8,136.8 359.8,140 363,141 366.3,140.1 369.6,140.4 372.8,140.9 
		376.1,139.3 379.3,139.1 382.6,139.3 385.9,140.8 389.1,139.1 392.4,141 395.6,140.3 398.9,140.6 402.2,140.6 405.4,140.7 
		408.7,140.2 412.4,140.6 412.9,136.8 412.5,133.6 412.6,130.3 412.3,127 412.4,123.8 412.5,120.5 413,117.3 412.8,114 412.2,114 
		413.1,112.5 411.9,109.3 413,106 	"/>
	<path class="st4" d="M414.6,499.7v-3.3l0.2-3.3l0.2-3.3l-1-3.3l-0.4-3.3l0.7-3.3l-0.9-3.3l0.1-3.3l0.2-3.3l-0.3-3.7l3.7,0.5h3.3
		l3.3,0.7l3.3-1.6l3.3-0.1l3.3,1.5l3.3-0.9l3.3,0.1l3.3,0.1l3.3,0.1l3.3,0.8l3.3-1.4l3.3,0.2l3.3,0.9l3.3-1.2l3.5,0.5l-0.3,3.5
		l-0.4,3.3l-0.2,3.3l1.2,3.3l0.3,3.3l-1.2,3.3l1.3,3.3l-2,3.3l0.5,3.3l-0.2,3.3v0.3H500v-35.1l-3,0.7l-3.3-0.8l0,0v1.3l-3-1
		l-3.3-0.2l-3.3,1l-3.3-0.8l-3.3,0.3l-3.3,0.1l-3.3,0.4l-2.9-0.7l-1-2.9V459l1.4-3.3l-1.3-3.3l1.4-3.3l-0.1-3.3v-3.3l0.2-3.3
		l0.2-3.3l-1-3.3l-0.4-3.3l0.7-3.3l-0.9-3.3l0.1-3.3l0.2-3.3l-0.3-3.7l3.7,0.5h3.3l3.3,0.7l3.3-1.6l3.3-0.1l3.3,1.5l3.3-0.9l3,0.1
		v0.2l3.3-1.2l3,1.2v-56.4h-3l-3.3-0.4l0,0v1l-0.5-0.2l-3.3-0.4l-3.3,1.5l-3.3-1.3l-3.3,0.7l-3.3-0.5l-3.3,1l-3.3-0.3l-3.6,0.2
		l0.1-3.6l-0.5-3.3l0.2-3.3l0.2-3.3l1-3.3l-0.3-3.3l0.1-3.3l-1.1-3.3l0.8-3.3l-0.3-3.3l-0.7-3.3l0.3-3.3l1.3-3.3l0.3-3.3l-0.6-3.3
		l0.3-2.6l2.6-0.3l3.3-1.2l3.3,0.9l3.3-0.9l3.3,1.9l3.3-0.1h3.3l3.3-1.2l0.5,0.2v-0.8l3.3-0.5l3,0.3v-55.7l-3-1.2l-3.3,0.1l0,0v0.8
		l-3.3,0.8l-3.3-0.4l-3.2,0.2l-3.3,0.4l-3.2-0.3l-3,0.6l-3.4,0.4l-4.3-0.2l-0.6-4.2l1.8-3.1l-0.1-3.5l0.7-3.2l0.6-3.4l-3.3-2.9
		l1.7-3.3l1.3-3.4l-0.4-3.2l-0.7-3.3l-0.5-3.2l-0.7-3.2l1.8-3.3v-3.2l-1.4-3.4l1.2-2.8l2.9-1.5l3.2,1.6l3.2-0.4l3.2,0.6l3.1-0.5
		l3.5-0.6l3,0.8l3.3-0.1l0,0v-1.2l3.3,1.1h3V140l-3,1l-3.3-0.4l0,0v1.3l-0.5,0.1l-3.3-1.7l-3.3,1.6l-3.3-0.7l-3.3,0.2l-3.3-0.7
		l-3.3,0.6l-3.3-0.2l-2.9-0.4l-1.1-2.9l1-3.3l0.3-3.3l-0.1-3.3l-0.8-3.3l-0.3-3.3V118l1.6-3.3l-0.1-1h0.4l-0.8-3.3l-0.6-3.3
		l-0.4-3.3l1-3.3l-0.6-3.3l-0.1-3.3l0.8-3.3l-0.4-3.6l3.6,0.8l3.3-1l3.3,1.3l3.3-1l3.3-0.3l3.3,0.9l3.3-0.8l3.3,1l3.3-1.2l3-0.4
		V33.5l-3,0.7l-3.3-0.8l0,0v1.3l-3-1l-3.3-0.2l-3.3,1l-3.3-0.8l-3.3,0.3l-3.3,0.1l-3.3,0.4l-2.9-0.7l-1-2.9v-3.3l1.4-3.3L467,21
		l1.4-3.3l-0.1-3.3v-3.3l0.2-3.3l0.2-3.3l-1-3.3l0.1-1.2h-56v1.1l0.1,3.3l-0.4,3.3l0.9,3.3l-1.2,3.3l0.2,3.3l-0.6,3.3l0.7,3.3
		l0.2,3.3l-0.6,3.2l0.5,3l-2.9-0.2l-3.3,1l-3.3-0.2l-3.3-0.8l-3.3,0.7l-3.3-1l-3.3,0.5l-3.3-0.1l-3.3-0.3l-3.3,1.6l-3.3-0.5
		l-3.3-0.6l-3.3-0.2l-3.3,0.4l-3.3,0.6l-3.4-0.3l1-3.4l-0.2-3.3l-0.9-3.3l-0.2-3.3l0.5-3.3l0.1-3.3v-3.3l0.2-3.3l-1-3.3l1.6-3.3
		L360.1,0H303l-0.1,1.1l0.9,3.3l0.6,3.3l-1.6,3.3l1.5,3.3l-0.2,3.3l-0.4,3.3l-0.7,3.3l1.4,3.3l-1.4,3.2l0.7,3.2l-3.2-0.7l-3.3,1.7
		l-3.3-1.4l-3.3-0.4l-3.3,0.5l-3.3,0.9l-3.3-0.4l-3.3-0.6l-3.3,0.1l-3.3-0.6l-3.3,1.2l-3.3-0.5l-3.3-0.7l-3.3,0.4l-3.3,0.4l-3.5,0.4
		l0.1-3.5l0.3-3.3l0.2-3.3l0.6-3.3l-0.1-3.3l-0.7-3.3l-0.1-3.3V7.6L251,4.4l0.1-3.3L250.9,0h-56.2l-0.1,1.1l1,3.3l-0.2,3.3l0.2,3.3
		l-1,3.3l-0.3,3.3l1,3.3l0.1,3.3l-0.5,3.3l-0.2,3.3l0.9,3.5h-3.5h-3.3l-3.3-1l-3.3,1.5l-3.3,0.2l-3.3-1.5l-3.3,0.4l-3.3-0.6
		l-3.3-0.1l-3.3,1.5l-3.3-0.8l-3.3-0.1l-3.3-0.3l-3.3,1.4l-3.3-0.9h-3.1l-1.1-3.1l1-3.3l-0.4-3.3L142,21l-0.1-3.3l0.3-3.3l0.3-3.3
		l-0.8-3.3l-0.3-3.3l0.7-3.3L143,0H86.3l-0.4,1.1l1.6,3.3l-0.1,3.3L86.2,11l0.5,3.3l-0.3,3.3l1.5,3.3L86.3,24l1.5,3.3L87,30.5
		l0.1,3.5l-3.5-0.1l-3.3,0.6L77,34.6l-3.3-1.8l-3.3,0.8h-3.3l-3.3,0.7l-3.3-0.8l0,0v1.3l-3-1l-3.3-0.2l-3.3,1l-2.9-1L44.8,34h-3.3
		l-3.3,0.4l-2.9-0.7l-1-2.9v-3.3l1.4-3.3L34.4,21l1.4-3.3l-0.1-3.3v-3.3l0.2-3.3L36,4.7l-1-3.3L34.9,0H0v36.1l0.6,0.3l3.3-0.9
		l3.3,0.1l3.3,0.1l3.3,0.1l3.3,0.8l3.3-1.4l3.3,0.2l3.3,0.9l3-1.3l3.5,0.5L33.2,39l-0.4,3.3l-0.2,3.3l1.2,3.3l0.3,3.3L33,55.3
		l1.3,3.3l-2,3.3l0.5,3.3l-0.2,3.3l0.4,3.3l0.8,3.3l-0.4,3.3l0.2,3.3L32.5,85l1.1,3.5L30,87.2l-3.3,0.6l-3.3,0.1l-3.3,0.2l-3.3,0.2
		l-3.3-0.9l-3.3-0.3l-3.3,1.7l-3.3-1.1l-3.3-0.2L0,87.6v54.7l0.6-0.1l3.3,0.5l3.3-0.1l3.3,0.1l3.3-0.9l3.3-0.3l3.3,1.4l3.3-0.2
		l3.3,0.2l3-0.9l2.6,0.8l1.2,2.6l0.3,3.3l-1.7,3.3l0.5,3.3l-0.2,3.3l0.5,3.3l-0.1,3.3l0.9,3.3v3.3l-1.6,3.3l1.5,3.3l-0.5,3.3L34,185
		l-0.7,3.3L33,191v3.1l-3-0.7l-3.3,0.6l-3.3,0.1l-3.3,0.6l-3.3-0.2l-3.3,0.8l-3.3-0.9l-3.3,0.7l-3.3-1.7L0.3,195L0,195v55l0.6-0.2
		l3.3,1.3l3.3-0.2h3.3l3.3-1.1l3.3-0.2l3.3,0.7l3.3-0.4l3.3,1.5l3.3-1.5l3.6,0.2l-0.3,3.6L33,257l0.5,3.3l0.1,3.3l0.5,3.3l-0.7,3.3
		l-1.2,3.3l0.3,3.3l1.5,3.3l-1.7,3.3l1.4,3.3L34,290l-0.8,3.3l0.1,3.3l0.8,3.3l-1.1,3l-3-0.3h-3.3l-3.3-0.5l-3.3,0.4l-3.3,1.3
		l-3.3-0.8l-3.3,0.4l-3.3-0.1l-3.3-0.8l-3.3,0.7L0,302.6v57.1h0.6h3.3l3.3-1.2l3.3,1.1l3.3-0.1l3.3-0.1l3.3,0.2l3.3-0.9l3.3,1.2
		l3.3-1.9l3.5,0.7l-1.1,3.5l1,3.3l-0.1,3.3l-0.6,3.3l1.6,3.3l-1.4,3.3l-0.5,3.3l1.6,3.3l-0.8,3.3l0.6,3.3l-0.8,3.3l0.5,3.3l-0.3,3.3
		l0.7,3.3l-1,3.3l0.9,3.7l-3.8-0.6l-3.3-0.6l-3.3,1.2l-3.3-0.2l-3.3-1.2l-3.3,0.7l-3.3,1.1l-3.3-1.4L3.9,410l-3.3,1.5L0,411.3v56.2
		l0.6,0.3l3.3-0.9l3.3,0.1l3.3,0.1l3.3,0.1l3.3,0.8l3.3-1.4l3.3,0.2l3.3,0.9l3.3-1.2l3.5,0.5l-0.3,3.5l-0.4,3.3l-0.2,3.3l1.2,3.3
		l0.3,3.3l-1.2,3.3l1.3,3.3l-2,3.3l0.5,3.3l-0.2,3.3v0.3H90v-0.3l-0.5-3.3l0.1-3.3l-1-3.3l-0.4-3.3l1-3.3l-0.1-3.3l0.9-3.3l-0.8-3.3
		v-3.3l0.4-2.9l2.9-0.3l3.3,0.6l3.3-0.3l3.3-0.3l3.3-0.5l3.3-0.2l3.3,0.7l3.3-0.8l3.3,1.6l3.3-1.9l3.3,0.9l3.3-0.4l3.3,1.4h3.3
		l3.3-1.9l2.6,1.6l-0.1,2.6l0.8,3.3v3.3l0.8,3.3l-1.1,3.3l-0.8,3.3L140,490l0.7,3.3l0.8,3.3l0.5,3.3v0.1h55.9l0.1-0.3l-0.6-3.3
		l0.5-3.3l-1.7-3.3l1.4-3.3l-0.7-3.3l0.2-3.3l0.9-3.3l0.1-3.3l-0.2-3.3l-0.1-2.7l2.7-0.8l3.3-0.7l3.3,0.7l3.3-0.1l3.3,0.7l3.3-1.1
		l3.3,0.5l3.3,0.5l3.3-0.4l3.3,0.3l3.3-1.1l3.3,1.6h3.3l3.3-0.5l3.3,0.5l4-1.6l0.3,4l-2,3.3l1.6,3.3l-0.8,3.3l-0.1,3.3l0.6,3.3
		L249,490l1.1,3.3l-0.9,3.3l-0.6,3.3l0.1,0.3h56.2l-0.1-0.3l0.6-3.3l-0.4-3.3l-0.1-3.3l1.6-3.3l-0.3-3.3l-0.3-3.3l-0.2-3.3l-0.5-3.3
		l-0.3-3.3l0.1-3.9l3.9,0.4l3.3-0.3l3.3,0.6l3.3-0.4l3.3,1.2l3.3,0.2h3.3l3.3-0.4l3.3-0.9l3.3,0.4l3.3,0.7l3.3-1.2l3.3,0.8l3.3,0.7
		l3.3-1.2l2.9,0.6l-0.6,2.8l0.1,3.3l0.9,3.3l0.9,3.3l-0.3,3.3l-1.2,3.3l1.4,3.3l-1.7,3.3l1.4,3.3l-1.2,3.3l0.1,0.3h57.4L414.6,499.7
		z M466.5,250.1l-0.3,3.6l-0.3,3.3l0.5,3.3l0.1,3.3l0.5,3.3l-0.7,3.3l-1.2,3.3l0.3,3.3l1.5,3.3l-1.7,3.3l1.4,3.3l0.3,3.3l-0.8,3.3
		l0.1,3.3l0.8,3.3l-1.1,3l-3-0.3h-3.3l-3.3-0.5l-3.3,0.4l-3.3,1.3l-3.3-0.8l-3.3,0.4l-3.3-0.1l-3.3-0.8l-3.3,0.7l-3.3-0.9l-3.3-0.1
		l-3.3,1.1l-3.3-0.5l-3.3,1.1l-3.1-1.1l-0.3-3.1l0.6-3.3l0.5-3.3l-1.1-3.3l-0.3-3.3l1.2-3.3l-1.7-3.3v-3.3l1.4-3.3l-1.2-3.3l1-3.3
		l-0.2-3.3l0.5-3.3v-3.3l-1.1-3.3l-0.2-4l4-0.2l3.3,1.3l3.3-1.3l3.3,1l3.3,0.4l3.3-1.2l3.3,1.3l3.3-0.2h3.3l3.3-1.1l3.3-0.2l3.3,0.7
		l3.3-0.4l3.3,1.5l3.3-1.5L466.5,250.1z M412.2,215.8l0.1,3.3l0.5,3.3l-0.4,3.3l-0.7,3.3l0.9,3.3l0.3,3.3l-0.5,3.3l-0.7,3.3l1,3.3
		l-1.3,2.6l-2.7,0.5l-3.3-0.4h-3.3l-3.3,0.6l-3.3-0.8l-3.3,0.2l-3.3,0.4l-3.3,1.2l-3.3-1.3l-3.3,1.3l-3.3-0.8l-3.3,0.5l-3.3-0.8
		l-3.3,0.9l-3.3-1.1l-3.1,0.1l0.7-3.1v-3.3l-1.3-3.3l1-3.3l0.1-3.3l-0.3-3.3l-0.7-3.3l0.2-3.3l0.2-3.3l0.4-3.3l-0.7-3.3l-0.5-3.3
		l0.7-3.3l0.9-3.3l-0.3-3.3l-0.3-3.3l3.3,1.1l3.3-1.7l3.3,1.5l3.3-0.1l3.3-1.5l3.3,1.3l3.3-0.7l3.3,0.2l3.3,0.6l3.3-1h3.3l3.3-0.3
		l3.3-0.3l3.3-0.2l3.3,0.9l3.8-0.4l0.3,3.8l-1.5,3.3l0.4,3.3l0.8,3.3l-1.2,3.3L412.2,215.8z M357,273.3l0.9,3.3l0.2,3.3l-1.4,3.3
		l1,3.3l0.1,3.3l-0.6,3.3l0.2,3.3l-0.3,3.3l0.8,3.4l-3.4-0.5l-3.3-0.1l-3.3,0.1l-3.3,0.2l-3.3-0.2l-3.3-0.2l-3.3,0.7l-3.3,0.1
		l-3.3-0.1h-3.3l-3.3,0.1l-3.3-0.2l-3.3-0.8l-3.3,0.6l-3.3,0.8l-3.7-0.2l-0.3-3.7l0.3-3.3l1.3-3.3l-0.4-3.3l0.4-3.3l-1.9-3.3
		l0.2-3.3l1.8-3.3v-3.3l-1.3-3.3l0.8-3.3l-1-3.3l0.1-3.3l0.2-3.3l0.3-3.3l0.2-2.9l2.9-0.9l3.3,1.1l3.3-0.5l3.3,0.3l3.3,0.4l3.3-1.7
		l3.3,0.4l3.3,0.6l3.3,0.9l3.3-0.6l3.3-0.6l3.3-0.6l3.3-0.2l3.3,1.4l3.3-0.8l3.1,0.5l-0.1,3.1l0.4,3.3l-0.9,3.3l0.5,3.3l0.8,3.3
		l-1.6,3.3L357,273.3z M303.6,340.5l-0.8,3.3l0.8,3.3l0.5,3.3l0.1,3.2v3.8l-3.8-0.1l-3.3,0.3l-3.3-0.3l-3.3-1.3l-3.3,1.6l-3.3-0.1
		l-3.3-0.8l-3.3,0.8l-3.3-0.1l-3.3-0.7l-3.3-0.1l-3.3-0.3l-3.3,1.4l-3.3-0.4l-3.3-1.2l-2.9,0.4l0.4-2.9l-1.7-3.3l0.7-3.3l0.3-3.3
		l-0.8-3.3l1.3-3.3l-0.9-3.3l1.1-3.3l-0.8-3.3l-0.6-3.3l-0.4-3.3l1-3.3l-0.6-3.3l-0.1-3.3l0.8-3.3l-0.4-3.6l3.6,0.8l3.3-1l3.3,1.3
		l3.3-1l3.3-0.3l3.3,0.9l3.3-0.8l3.3,1l3.3-1.2l3.3-0.4l3.3,1.2l3.3,0.5l3.3-0.2l3.3-0.8l3.3,0.4l3.4-0.4l0.8,3.4l-1.3,3.3l0.2,3.3
		l-0.4,3.3l0.2,3.3l-0.1,3.3l1.6,3.3l-0.6,3.3l-0.5,3.3l-0.8,3.3L303.6,340.5z M303.9,212.6l-0.9,3.3l-0.4,3.3l1.9,3.3l-1,3.3
		l-0.3,3.3l-0.4,3.3l0.2,3.3l-0.1,3.3l0.9,3.3l-1.2,3.4l1.7,3.8l-3.9-0.7l-3.3,0.7l-3.3-1.6l-3.3,0.5l-3.3,1l-3.3-0.2l-3.3,0.7
		l-3.3-1.1l-3.3-0.7l-3.3,0.3l-3.3-0.4l-3.3,0.3l-3.3,0.2l-3.3,1l-3.3,0.3l-3.7-0.4l-0.3-3.7l1.3-3.3l-0.5-3.3l0.5-3.3l0.5-3.3
		l-0.8-3.3l-0.8-3.3l0.8-3.3l-1.2-3.3l0.6-3.3l-0.1-3.3l0.9-3.3l0.6-3.3l-1.3-3.3l-0.1-3.3l-0.3-3.9l3.9,1l3.3-1l3.3,0.9l3.3-0.6
		l3.3-0.4l3.3,1.3l3.3-0.8l3.3,0.8l3.3-0.1l3.3,0.5l3.3-0.8l3.3-0.8l3.3,1.8l3.3-1.5l3.3,1.2l3.5-0.8l0.8,3.4l-1.4,3.3l1.4,3.3
		l-0.9,3.3L303.9,212.6z M195.2,219.1l-0.2,3.3l0.7,3.3l-0.1,3.3l-0.7,3.3l0.5,3.3l-0.7,3.3l1.4,3.3l-1.9,3.3l1.4,3.6l-3.7-1.3
		l-3.3,0.4l-3.3,1l-3.3-1l-3.3,1.5l-3.3-1.2l-3.3,0.2l-3.3-0.6l-3.3,1.6l-3.3-1.7l-3.3,1.1l-3.3-0.3l-3.3,0.9l-3.3-0.2l-3.3,0.1
		l-3-1.2l0.7-3v-3.3l-1.9-3.3l1-3.3l0.3-3.3l-1.2-3.3v-3.3l0.4-3.3l1.3-3.3l-0.1-3.3l-1.2-3.3l-0.5-3.3l1.7-3.3l-0.4-3.3l-0.8-3.3
		l0.8-2.7l2.7-1.3l3.3,1.4l3.3-1l3.3-0.1l3.3-0.3l3.3,1.1l3.3-0.6l3.3,0.4l3.3-0.7l3.3,1.5l3.3-0.6l3.3-1l3.3,1.2l3.3,0.2l3.3-0.2
		l3-0.3l0.9,3l-1.7,3.3l1.3,3.3l0.4,3.3l-0.4,3.3l-0.5,3.3L195.2,219.1z M84.7,175.4l-2.9-1.7l-1.7-2.9l-1.4-2.6l2.2-1.8l2.4-2.2
		l1-3.6l3.9-0.7l1.9-2.7l1.3-3.3l3.1-1.5l1.5-3.1l3-1.6l3.1-1.5l0.7-3.9l3.4-1.2l1-3.6l2.5-2.1l3.9-0.7l1.3-2.6l3.2,0.8l1.2,3.4
		l1.9,2.7l2.1,2.5l3.9,0.7l1.4,3.2l3.1,1.5l2.1,2.5l2.4,2.2l2.4,2.2l1.4,3.2l3,1.7l1.5,3.1l2.9,1.7l2.2,2.4l3.2,2.3l-2.6,2.9l-2,2.6
		l-4,0.6l-2,2.6l-1.2,3.5l-3,1.6l-2.6,2l-2,2.6l-2.4,2.2l-2.8,1.8l-1.7,2.9l-3.2,1.4l-1.2,3.4l-3.3,1.3l-1.8,2.7l-2,1.4l-1.9-1.3
		l-1.9-2.7l-3-1.6l-3.1-1.5l-0.7-3.9l-3.4-1.2l-1.8-2.8l-2-2.6l-2.2-2.4l-2.4-2.2l-3.4-1.2l-0.7-3.9L84.7,175.4z M250.4,151.9
		l-1.9,3.3l1.5,3.3l-1.2,3.3l1.1,3.3l0.2,3.3l-0.7,3.3l0.8,3.3l-1.5,3.3l-0.1,3.3l1.5,3.3l0.3,3.3l-1.5,3.3l1.1,3.8l-3.8-1.1
		l-3.3,0.2l-3.3,0.8l-3.3-0.3l-3.3,0.5l-3.3-0.2l-3.3-1.4l-3.3,1.5l-3.3-0.5l-3.3,0.8l-3.3-1.9l-3.3,1.8l-3.3-1.6l-3.3,1.2l-3.3-0.6
		l-3.7,0.7l0.8-3.7l-0.4-3.3l0.9-3.3l-0.6-3.3l0-3.6l-0.1-3.3l-0.5-3.3l0.8-3.3l0.3-3.3v-3.3l0.7-3.3l-0.2-3.3v-3.3l0.2-3.3V145
		l-0.7-3l3,0.4l3.3-1.3l3.3,1.4l3.3-1.6h3.3h3.3l3.3,0.8l3.3,0.7l3.3-0.4l3.3,0.5l3.3-1.5l3.3,0.4h3.3l3.3,0.4l3.3,0.1l3.5-0.5
		l0.4,3.5l-1.3,3.3L250.4,151.9z M358.2,171.4l-0.8,3.3l0.3,3.3l-0.9,3.3l0.2,3.3l1.8,3.3l-1.1,3.3l0.6,3.7h-3.7l-3.3-0.3l-3.3,0.7
		h-3.3l-3.3-0.6l-3.3,0.4l-3.3-0.6l-3.3-0.1l-3.3-0.7l-3.3,1.5l-3.3-1.2h-3.3l-3.3,1.3l-3.3-1h-3.3l-3.3,0.1l0.2-3.3l-0.2-3.3
		l-0.2-3.3l0.5-3.3l0.1-3.3l-1.4-3.3l0.2-3.3l0.6-3.3l0.4-3.3v-3.3l0.6-3.3l0.2-3.3l-1.3-3.3l-0.3-3.3l0.1-3.3l0.7-3.1l3.1,0.7
		l3.3-1.1l3.3,1.3l3.3-1.4l3.3,1l3.3-1.2l3.3,1.1l3.3-1.4h3.3l3.3,0.7l3.3,0.7l3.3-0.3l3.3-0.8l3.3-0.2l3.3,1.1l2.8,0.1v2.8l0.8,3.3
		l0.6,3.3l-1,3.3l0.4,3.3l0.7,3.3l-0.3,3.3l-1,3.3L358.2,171.4z M466.6,145.3l0.3,3.3l-1.7,3.3l0.5,3.3l-0.2,3.3l0.5,3.3l-0.1,3.3
		l0.9,3.3v3.3l-1.6,3.3l1.5,3.3l-0.5,3.3l0.6,3.3l-0.7,3.3l-0.3,3.3v3.1l-3-0.7l-3.3,0.6l-3.3,0.1l-3.3,0.6l-3.3-0.2l-3.3,0.8
		l-3.3-0.9l-3.3,0.7l-3.3-1.7l-3.3,1.6l-3.3-0.7l-3.3,0.2l-3.3-0.7l-3.3,0.6l-3.3-0.2l-2.9-0.4l-1.1-2.9l1-3.3l0.3-3.3l-0.1-3.3
		l-0.8-3.3l-0.3-3.3v-3.3l1.6-3.3l-0.2-3.3l-0.8-3.3l-0.7-3.3l1.3-3.3l-0.7-3.3l-0.9-3.3v-3.3l0.3-3.9l3.9,0.6l3.3-0.5l3.3,1.5
		l3.3-1.6l3.3,1.3l3.3-0.4l3.3,0.5l3.3-0.1l3.3,0.1l3.3-0.9l3.3-0.3l3.3,1.4l3.3-0.2l3.3,0.2l3.3-0.9l2.6,0.8L466.6,145.3z
		 M413.2,81.4l1.4-3.3l-1.3-3.3l1.4-3.3l-0.1-3.3v-3.3l0.2-3.3l0.2-3.3l-1-3.3l-0.4-3.3l0.7-3.3l-0.9-3.3l0.1-3.3l0.2-3.3l-0.3-3.7
		l3.7,0.5h3.3l3.3,0.7l3.3-1.6l3.3-0.1l3.3,1.5l3.3-0.9l3.3,0.1l3.3,0.1l3.3,0.1l3.3,0.8l3.3-1.4l3.3,0.2l3.3,0.9l3.3-1.2l3.5,0.5
		l-0.3,3.5l-0.4,3.3l-0.2,3.3l1.2,3.3L467,52l-1.2,3.3l1.3,3.3l-2,3.3l0.5,3.3l-0.2,3.3l0.4,3.3l0.8,3.3l-0.4,3.3l0.2,3.3l-1.1,3.3
		l1.1,3.5l-3.6-1.1l-3.3,0.6l-3.3,0.1l-3.3,0.2l-3.3,0.2l-3.3-0.9l-3.3-0.3l-3.3,1.7l-3.3-1.1l-3.3-0.2l-3.3,1l-3.3-0.8l-3.3,0.3
		l-3.3,0.1l-3.3,0.4l-2.9-0.7l-1-2.9L413.2,81.4z M411.9,109.3l1.3,3.3l-0.9,1.5h0.5l0.2,3.3l-0.5,3.3l-0.1,3.3v3.3l0.3,3.3
		l-0.1,3.3l0.4,3.2l-0.5,3.8l-3.7-0.3l-3.3,0.5l-3.3-0.1h-3.3l-3.3-0.3l-3.3,0.7l-3.3-1.9l-3.3,1.6l-3.3-1.4l-3.3-0.2l-3.3,0.3
		l-3.3,1.5l-3.3-0.4l-3.3-0.3L363,141l-3.2-0.9l-1-3.2l1.4-3.3l-0.9-3.3l1.3-3.3l-0.2-3.3l0.2-3.3l-0.6-3.3l-0.8-3.3l0,0h1.6
		l0.1-1.5l-1-3.3l-0.4-3.3l0.7-3.3l-0.9-3.3l0.1-3.3l0.2-3.3l-0.3-3.7l3.7,0.5h3.3l3.3,0.7l3.3-1.6l3.3-0.1l3.3,1.5l3.3-0.9l3.3,0.1
		l3.3,0.1l3.3,0.1L396,90l3.3-1.4l3.3,0.2l3.3,0.9l3.3-1.2l3.5,0.5l-0.3,3.5l-0.4,3.3l-0.2,3.3l1.2,3.3l0.3,3.3L411.9,109.3z
		 M305,61.8l-0.1-3.3l1.6-3.3l-0.3-3.3l-0.3-3.3l-0.2-3.3l-0.5-3.3l-0.3-3.3l0.1-3.9l3.9,0.4l3.3-0.3l3.3,0.6l3.3-0.4l3.3,1.2
		l3.3,0.2h3.3l3.3-0.4l3.3-0.9l3.3,0.4l3.3,0.7l3.3-1.2l3.3,0.8l3.3,0.7l3.3-1.2L358,36l-0.6,2.8l0.1,3.3l0.9,3.3l0.9,3.3L359,52
		l-1.2,3.3l1.4,3.3l-1.7,3.3l1.4,3.3l-1.2,3.3l1.2,3.3l-1,3.3l1.6,3.3l-1,3.3l0.8,3.2l-0.7,3.5l-3.5-1l-3.3-0.2l-3.3,0.6l-3.3,0.6
		l-3.3-0.7l-3.3,1.1l-3.3-0.5l-3.3,0.6l-3.3-0.6l-3.3-0.9l-3.3,1.2l-3.3-1.5l-3.3,0.3l-3.3,0.2l-3.3,0.6l-3.8,0.4l1.1-3.8l-0.3-3.3
		l-0.6-3.3l0.9-3.3v-3.3l-1.4-3.3l0.6-3.3L305,61.8z M305.5,102l-0.3,3.3l-1.2,3.3l1.4,3.3l-1.2,2.3h0.1l-1.8,3.3l0.7,3.3l0.3,3.3
		l-0.3,3.3l0.1,3.3l-0.4,3.3l-0.3,3.3l1.2,3.6l-3.7-0.2l-3.3-0.2l-3.3-1.1l-3.3,0.4l-3.3,1l-3.3,0.1l-3.3-0.3L277,141l-3.3-0.7
		l-3.3-0.3l-3.3,0.6l-3.3,0.1l-3.3-0.3l-3.3-0.3l-3.3,0.2l-3-0.2l0.2-3l0.3-3.3l0.1-3.3l-1.5-3.3l-0.3-3.3l1-3.3l-0.8-3.3l1.4-3.3
		l0,0h-0.2l-0.1-2.3l1.6-3.3l-0.3-3.3l-0.3-3.3l-0.2-3.3l-0.5-3.3l-0.3-3.3l0.1-3.9l3.9,0.4l3.3-0.3l3.3,0.6l3.3-0.4l3.3,1.2
		l3.3,0.2h3.3l3.3-0.4l3.3-0.9L285,89l3.3,0.7l3.3-1.2l3.3,0.8l3.3,0.7l3.3-1.2l2.9,0.6l-0.6,2.8l0.1,3.3l0.9,3.3L305.5,102z
		 M196.9,52.1l0.2-3.3l0.9-3.3l0.1-3.3L198,39l-0.1-2.7l2.7-0.8l3.3-0.7l3.3,0.7l3.3-0.1l3.3,0.7l3.3-1.1l3.3,0.5l3.3,0.5l3.3-0.4
		l3.3,0.3l3.3-1.1l3.3,1.6h3.3l3.3-0.5l3.3,0.5l4-1.6l0.3,4l-2,3.3l1.6,3.3l-0.8,3.3l-0.1,3.3l0.6,3.3l-0.7,3.3l1.1,3.3l-0.9,3.3
		l-0.6,3.3l1.6,3.3l-0.7,3.3l-0.7,3.3l0.7,3.3l0.9,3.2l-0.5,3.8l-3.7-0.8l-3.3-0.6l-3.3-0.1l-3.3,1.5l-3.3,0.1l-3.3,0.2l-3.3-0.7
		l-3.3-0.1l-3.3,0.2l-3.3-0.7l-3.3,1.3l-3.3-0.8l-3.3,0.8l-3.3-1.2l-3.3,0.1l-3.7,0.7l0.1-3.7l1.2-3.3l-1.5-3.3L197,75l-0.5-3.3
		l1.7-3.3l-0.6-3.3l0.5-3.3l-1.7-3.3l1.4-3.3L196.9,52.1z M196.7,88.4l0.3,4l-2,3.3l1.6,3.3l-0.8,3.3l-0.1,3.3l0.6,3.3l-0.7,3.3
		l0.7,2h-2l0.4,3.3l1.6,3.3l-0.2,3.3l-1.4,3.3l-0.2,3.3l1.5,3.3l-0.3,3.3l-0.7,2.8l-2.8,0.2l-3.3,0.6l-3.3-0.1l-3.3,0.1l-3.3-0.5
		l-3.3,1.1l-3.3-1.1l-3.3,1.2l-3.3-1.3l-3.3-0.2l-3.3-0.4l-3.3,0.6l-3.3-0.2l-3.3,1.2l-3.3-0.2h-3.7l-0.4-3.7l1.7-3.3l-0.6-3.3v-3.3
		l-0.8-3.3l0.7-3.3l0.1-3.3l0.4-3.3l0,0h0.2l-1-2l1.4-3.3l-0.7-3.3l0.2-3.3l0.9-3.3l0.1-3.3l-0.2-3.3l-0.1-2.7l2.7-0.8l3.3-0.7
		l3.3,0.7l3.3-0.1l3.3,0.7l3.3-1.1l3.3,0.5l3.3,0.5l3.3-0.4l3.3,0.3l3.3-1.1l3.3,1.6h3.3l3.3-0.5l3.3,0.5L196.7,88.4z M89,42.3V39
		l0.4-2.9l2.9-0.3l3.3,0.6l3.3-0.3l3.3-0.3l3.3-0.5l3.3-0.2l3.3,0.7l3.3-0.8l3.3,1.6l3.3-1.9l3.3,0.9l3.3-0.4l3.3,1.4h3.3l3.3-1.9
		l2.6,1.6l-0.1,2.6l0.8,3.3v3.3l0.8,3.3l-1.1,3.3l-0.8,3.3l-0.1,3.3l0.7,3.3l0.8,3.3l0.5,3.3l-0.7,3.3l0.1,3.3l0.5,3.3l-0.6,3.3
		l-0.4,3.3l0.8,4l-4-0.5l-3.3-0.4l-3.3-0.8l-3.3,0.4l-3.3,1.6l-3.3-1.2l-3.3,1.1L115,88l-3.3-1l-3.3,0.2l-3.3-0.2l-3.3,0.5l-3.3,0.4
		l-3.3-0.3l-3.3,0.3L88,88.6l0.4-3.9l1-3.3l-1.5-3.3l0.1-3.3l1.7-3.3l-0.1-3.3l-0.5-3.3l0.1-3.3l-1-3.3l-0.2-3l1-3.3l-0.1-3.3
		l0.9-3.3L89,42.3z M33.5,137.8l1-3.3l0.3-3.3l-0.1-3.3l-0.8-3.3l-0.3-3.3V118l1.6-3.3l-0.1-1h0.4l-0.8-3.3l-0.6-3.3l-0.4-3.3l1-3.3
		l-0.6-3.3L34,94.4l0.8-3.3l-0.4-3.6l3.6,0.8l3.3-1l3.3,1.3l3.3-1l3.3-0.3l3.3,0.9l3.3-0.8l3.3,1l3.3-1.2l3.3-0.4L71,88l3.3,0.5
		l3.3-0.2l3.3-0.8l3.3,0.4l3.4-0.4l0.8,3.4l-1.3,3.3l0.2,3.3l-0.4,3.3l0.2,3.3l-0.1,3.3l1.6,3.3L88,114l0,0h-0.2l-0.1,3.3l-0.7,3.3
		l0.9,3.3l0.7,3.3l-1,3.3l0.1,3.3l-0.5,3.3l0.8,3.7l-3.7-0.9l-3.3-0.4l-3.3,0.1l-3.3,1.2l-3.3-0.2l-3.3-0.3l-3.3,1.1l-3.3-0.4l0,0
		v1.3l-0.5,0.1l-3.3-1.7l-3.3,1.6l-3.3-0.7l-3.3,0.2l-3.3-0.7l-3.3,0.6l-3.3-0.2l-2.9-0.4L33.5,137.8z M33.8,249.9l-0.6-4.2l1.8-3.1
		l-0.1-3.5l0.7-3.2l0.6-3.4l-3.3-2.9l1.7-3.3l1.3-3.4l-0.4-3.2l-0.7-3.3l-0.5-3.2l-0.7-3.2l1.8-3.3v-3.2l-1.4-3.4l1.2-2.8l2.9-1.5
		l3.2,1.6l3.2-0.4l3.2,0.6l3.1-0.5l3.5-0.6l3,0.8l3.3-0.1l0,0V196l3.3,1.1h3.3l3.3,0.1l3.3-0.1l3.3-0.7l3.3-0.9l3.3,1.3l2.6,0.2
		l0.1,2.6l1.3,3.3l0.1,3.3l-0.9,3.3l-0.9,3.3l1,3.3l0.7,3.3l-1.1,3.3l1.3,3.3l-1.2,3.3l-0.3,3.3l1.5,3.3l-0.6,3.3l-0.8,3.3l-0.5,3.2
		l0.6,3l-2.9-0.7l-3.3,1.1l-3.3,0.8l-3.3-0.1l-3.3-0.1l-3.3-0.4l-3.3-1.3l-3.3,0.1l0,0v0.8l-3.3,0.8l-3.3-0.4l-3.2,0.2l-3.3,0.4
		l-3.2-0.3l-3,0.6l-3.4,0.4L33.8,249.9z M33.9,358.1l0.1-3.6l-0.5-3.3l0.2-3.3l0.2-3.3l1-3.3l-0.3-3.3l0.1-3.3l-1.1-3.3l0.8-3.3
		l-0.3-3.3l-0.7-3.3l0.3-3.3l1.3-3.3l0.3-3.3l-0.6-3.3l0.3-2.6l2.6-0.3l3.3-1.2l3.3,0.9l3.3-0.9l3.3,1.9l3.3-0.1h3.3l3.3-1.2
		l0.5,0.2v-0.8l3.3-0.5l3.3,0.3l3.3-0.3l3.3,1.3l3.3-0.1l3.3-0.8l3.3,1.1l3.4-1.2l-0.1,3.4l-0.6,3.3l0.2,3.3l-0.5,3.3l1.3,3.3
		l-1,3.3l0.3,3.3l0.2,3.3l-0.6,3.3l0.6,3.3l-0.1,3.3l-0.6,3.3v3.3l1.9,3.3l-0.2,3.4l-1.5,2.5l-2.6-0.2l-3.3,0.4l-3.3,1.3l-3.3-0.7
		l-3.3,0.1l-3.3-0.2h-3.3l-3.3-0.4l0,0v1l-0.5-0.2l-3.3-0.4l-3.3,1.5l-3.3-1.3l-3.3,0.7l-3.3-0.5l-3.3,1l-3.3-0.3L33.9,358.1z
		 M86.3,455.3l1.5,3.3l-0.8,3.3l0.1,3.5l-3.5-0.1l-3.3,0.6L77,466l-3.3-1.8l-3.3,0.8h-3.3l-3.3,0.7l-3.3-0.8l0,0v1.3l-3-1l-3.3-0.2
		l-3.3,1l-2.9-1l-3.3,0.3l-3.3,0.1l-3.3,0.4l-2.9-0.7l-1-2.9v-3.3l1.4-3.3l-1.3-3.3l1.4-3.3l-0.1-3.3v-3.3l0.2-3.3L36,436l-1-3.3
		l-0.4-3.3l0.7-3.3l-0.9-3.3l0.1-3.3l0.2-3.3l-0.3-3.7l3.7,0.5h3.3l3.3,0.7l3.3-1.6l3.3-0.1l3.3,1.5l3.3-0.9l3,0.1v0.2l3.3-1.2
		l3.3,1.3l3.3-0.3l3.3,0.1l3.3,0.7l3.3-1.1l3.3-0.5l3.5,0.6l0.8,3.5l-0.8,3.3l-1.2,3.3l1,3.3l0.1,3.3l-1.1,3.3l1.6,3.3l-0.1,3.3
		l-1.2,3.3l0.5,3.3l-0.3,3.3l1.5,3.3L86.3,455.3z M141.9,388.1l-0.5,3.3l-0.3,3.3l0.4,3.3v3.3l-0.8,3.3l0.8,3.2l-0.2,3.8l-3.7,0.5
		l-3.3-0.8l-3.3-0.7l-3.3,0.5l-3.3-0.4l-3.3,0.5l-3.3-0.2l-3.3-0.4l-3.3,0.9l-3.3-0.6l-3.3-0.2h-3.3l-3.3,0.5l-3.3,0.9h-3.3
		l-3.7-0.6l0.4-3.7l-0.7-3.3l0.4-3.3l0.8-3.3l-0.6-3.3l0.5-3.3L89,388l-1.6-3.3l0.3-3.3l0.8-3.3l-1.1-3.3l1.5-3.3l-1.7-3.3l0.5-3.3
		L88,362l1.2-2.9l2.9-0.4l3.3,0.8l3.3-0.1l3.3,0.4l3.3-1.9l3.3,1l3.3-0.3l3.3-0.7l3.3,0.1l3.3,1.6l3.3-0.2l3.3,0.3l3.3-1.2l3.3-0.2
		l3.3-0.3l3.7,0.4l-1,3.7l1.2,3.3l0.1,3.3l-0.7,3.3l-0.4,3.3l-0.4,3.3l-0.2,3.3l1.8,3.3L141.9,388.1z M140.4,286.3l1.3,3.3l-0.3,3.3
		l-0.7,3.3l1.1,3.2l-0.4,3.5l-3.5,0.2l-3.3-1.1l-3.3,1.1l-3.3-1l-3.3,1.4l-3.3-1.8l-3.3,0.4l-3.3,0.4l-3.3-0.5l-3.3,1.3l-3.3-0.1
		l-3.3,0.3h-3.3l-3.3-1.7l-3.3,1.1l-3.1-0.2l-1-3.1l0.5-3.3L88,293l0.3-3.3l0.3-3.3l-0.4-3.3l0.9-3.3l-1.1-3.3l-0.3-3.3l0.4-3.3
		l1.2-3.3l-0.4-3.3l-1-3.3l0.1-3l0.2-3.3l1.4-2.6l2.6-0.1h3.3l3.3-0.8l3.3,0.9l3.3-1l3.3-0.1l3.3,1.2l3.3-1.2l3.3,1.3l3.3-1.7
		l3.3,0.5l3.3,0.7l3.3-0.1l3.3-0.3l3.3,0.2h3.1v3.1l0.5,3.3l0.2,3.3l0.2,3.3l-1.3,3.3l0.7,3.3v3.3l-0.2,3.3l-0.2,3.3l1.4,3.3
		L140.4,286.3z M195.6,435.8l-0.2,3.3l0.2,3.3l-1,3.3l-0.3,3.3l1,3.3l0.1,3.3l-0.5,3.3l-0.2,3.3l0.9,3.5h-3.5h-3.3l-3.3-1l-3.3,1.5
		l-3.3,0.2l-3.3-1.5l-3.3,0.4l-3.3-0.6l-3.3-0.1l-3.3,1.5l-3.3-0.8l-3.3-0.1l-3.3-0.3l-3.3,1.4l-3.3-0.9h-3.1l-1.1-3.1l1-3.3
		l-0.4-3.3l-0.3-3.3l-0.1-3.3l0.3-3.3l0.3-3.3l-0.8-3.3l-0.3-3.3l0.7-3.3l0.8-3.3l0.2-3.3l0.4-3.3l-0.1-3.3l-1.4-3.3l0.2-3.6
		l3.6,1.4l3.3-1.3l3.3,0.3l3.3,0.9l3.3-0.5l3.3-0.7l3.3,0.1l3.3-0.6l3.3,0.8l3.3,0.4l3.3-0.1l3.3-0.8l3.3,0.4l3.3,0.5l3.3-0.4h3.3
		l0.4,3.3l-0.4,3.3l-0.3,3.3l0.8,3.3l-0.7,3.3l-0.4,3.3L195.6,435.8z M195.7,357.2l-3.7-0.9l-3.3-0.6l-3.3,1.2l-3.3-1.1l-3.3,0.7
		l-3.3-0.4l-3.3,1.4l-3.3,0.2l-3.3-1.2l-3.3,1l-3.3,0.2l-3.3-1.8l-3.3,0.5l-3.3,1h-3.3l-3.1-0.7l-0.4-3.1v-3.3l1.1-3.3l-1.3-3.3
		l1.5-3.3l-0.9-3.3l0.5-3.3l-0.2-3.3l0.2-3.3l0.5-3.3l-0.6-3.3l-1.1-3.3V314l0.1-3.3l1-3.3l-0.2-3l3-0.6l3.3,0.6l3.3-0.1l3.3-1.1
		l3.3,1.1l3.3-0.3l3.3-1l3.3,1.8l3.3,0.2l3.3-0.5l3.3-0.1l3.3,0.3l3.3-1.4h3.3h3.3l3.6,0.4l-0.3,3.6l-0.9,3.3l1,3.3l-0.2,3.3
		l-0.5,3.3l0.5,3.3l-0.8,3.3l0.3,3.3l-0.2,3.3l1.2,3.3l0.4,3.3l-1,3.3l0.9,3.3v3.3l0.4,3.2L195.7,357.2z M250,407.7l-0.9,2.9
		l-2.9,0.9l-3.3-0.5l-3.3-1.1l-3.3,1.7l-3.3-1.5l-3.3,0.9h-3.3l-3.3-0.9l-3.3,1.6l-3.3-2l-3.3,1.3l-3.3-0.3l-3.3,0.1l-3.3,1.1
		l-3.3-2l-3.2,1l-0.6-3.2l1.2-3.3l-1.3-3.3l1.6-3.3l-1.7-3.3l1.7-3.3l-0.9-3.3l1.1-3.3l-1.2-3.3l-0.4-3.3l1.3-3.3l0.1-3.3l-0.9-3.3
		l1.2-3.3l-1.8-3.3l1-3l3-0.6l3.3,0.3l3.3-0.5l3.3,1l3.3-1.2l3.3,0.8l3.3-0.2l3.3,0.9l3.3-0.9l3.3,0.4l3.3,0.6l3.3-1.1l3.3,1.2
		l3.3-1l3.3,1l3.2-0.8v3.2l-0.5,3.3l-0.3,3.3l0.6,3.3l-0.4,3.3l-0.1,3.3l0.4,3.3l0.9,3.3l-1.4,3.3l1.2,3.3l-0.6,3.3l-0.2,3.3
		l1.2,3.3l-0.2,3.3L250,407.7z M250.3,296.1l0.1,3.4l-1,3.1l-3.2-1.4l-3.4,0.6l-3.3,0.4l-3,0.3l-3.4,0.1l-3.2-0.1l-3.2,1.5l-3.4-0.3
		l-3.1-1.9l-3.4,0.4l-3.3-0.3l-3.1-0.3l-3.3,0.7l-3.3,0.9h-3.4l-2.4-1.1v-2.6l0.1-3.4l-0.9-3.1l0.4-3.3l0.1-3.1l-0.2-3.4l-0.7-3.2
		l-1.2-3.2l1.7-3.4l-1.4-3.4l2.3-3.2l-1.7-3.3l0.8-3.3l-0.5-3.2l-0.3-3.4l0.3-3.4l3.7-1.3l3.2,2.9l3.1-2.5l3.4,0.9l3.2,0.7l3.3-0.6
		l3.4,0.2l3.2,0.6l3.4,0.2l3.3-2.6l3.5,1.9l2.9,0.7l3.2-2.3l3.2,1.8l3.5-0.4l3.5-0.3l-1.1,3.5l1.3,3.3l0.1,3.2l0.4,3.3l-1,3.1
		l1.1,3.3l-2.2,3.3l1,3.2l0.4,3.4l-1.5,3.3l2.5,3l0.5,3.4l-1.1,3.3L250.3,296.1z M304.1,445.6l-0.2,3.3l-0.4,3.3l-0.7,3.3l1.4,3.3
		l-1.4,3.2l0.7,3.2l-3.2-0.7l-3.3,1.7l-3.3-1.4l-3.3-0.4l-3.3,0.5l-3.3,0.9l-3.3-0.4l-3.3-0.6l-3.3,0.1l-3.3-0.6l-3.3,1.2L264,465
		l-3.3-0.7l-3.3,0.4l-3.3,0.4l-3.5,0.4l0.1-3.5l0.3-3.3l0.2-3.3l0.6-3.3l-0.1-3.3l-0.7-3.3l-0.1-3.3v-3.3l-0.5-3.3l0.1-3.3l-0.7-3.3
		l0.2-3.3l1.2-3.3l-1.3-3.3l0.8-3.3l-0.4-3.8l3.8-0.1l3.3,0.7l3.3-0.4l3.3,1l3.3-1l3.3,1.2l3.3-1.7l3.3,0.2l3.3,1l3.3,0.1l3.3-1
		l3.3,0.7l3.3,0.1l3.3-1l3.3,0.2l2.5,1.5l0.8,2.5l0.2,3.3l-1.1,3.3l0.9,3.3l-0.4,3.3l-0.4,3.3l0.9,3.3l0.6,3.3l-1.6,3.3L304.1,445.6
		z M357.4,378.3l-0.1,3.3l1,3.3v3.3l-0.3,3.3l-0.2,3.3l0.6,3.3l-0.4,3.3l-0.9,3.3l0.3,3.3l0.8,3.7l-3.7-1.1l-3.3,1.1h-3.3h-3.3h-3.3
		l-3.3,0.4l-3.3-1.6l-3.3,0.7l-3.3,1.1l-3.3-2l-3.3,0.4l-3.3,1l-3.3,0.6l-3.3-1.1l-3.3-1l-2.7,0.4l-0.9-2.6l0.8-3.3l-1.5-3.3
		l1.8-3.3l0.2-3.3l-1.8-3.3l0.7-3.3l0.4-3.3l-1.3-3.3l0.3-3.3l0.1-3.3l1-3.3l-1.1-3.3l1-3.3l0.8-3.3l-1.1-3.4l3.4,0.5l3.3-1.2
		l3.3,0.9h3.3l3.3-1l3.3,1.1l3.3-0.8l3.3,0.2l3.3,0.8l3.3,0.5l3.3-0.3l3.3-0.2l3.3-0.3l3.3,0.4l3.3-0.1l2.7,0.1l1.6,2.7l-0.8,3.3
		l0.3,3.3l0.2,3.3l0.3,3.3L357.4,378.3z M358.3,353.5l1.8-3.1l-0.1-3.5l0.7-3.2l0.6-3.4l-3.3-2.9l1.7-3.3l1.3-3.4l-0.4-3.2l-0.7-3.3
		l-0.5-3.2l-0.7-3.2l1.8-3.3v-3.2l-1.4-3.4l1.2-2.8l2.9-1.5l3.2,1.6l3.2-0.4l3.2,0.6l3.1-0.5l3.5-0.6l3,0.8l3.3-0.1h3.3l3.1-0.3
		l3.3-0.5l3.4,0.7l3-0.2l3.5-0.3l3.2,1l3.9-1.2l0.1,3.7l-0.7,3.3l-1.2,3.2l0.6,3.4l2.1,3.3l-3.4,3l0.4,3.6l2.1,3l0.1,3.4l-1.3,3.2
		l0.5,3.2l-0.3,3.2L411,347l1,3.3l-1.6,3.3l1.7,3.4l-3.4-0.5l-3.3,0.6l-3.2-0.2l-3.3-0.8l-3.2-0.6l-3.3,0.6l-3.3,0.3l-3.2-0.1
		l-3.3,0.8l-3.3-0.4l-3.2,0.2l-3.3,0.4l-3.2-0.3l-3,0.6l-3.4,0.4l-4.3-0.2L358.3,353.5z M411.9,429.3l-0.1,3.3l0.1,3.3l-0.4,3.3
		l0.9,3.3l-1.2,3.3l0.2,3.3l-0.6,3.3l0.7,3.3l0.2,3.3l-0.6,3.2l0.5,3l-2.9-0.2l-3.3,1l-3.3-0.2l-3.3-0.8l-3.3,0.7l-3.3-1l-3.3,0.5
		l-3.3-0.1l-3.3-0.3l-3.3,1.6l-3.3-0.5l-3.3-0.6l-3.3-0.2l-3.3,0.4l-3.3,0.6l-3.4-0.3l1-3.4l-0.2-3.3l-0.9-3.3l-0.2-3.3l0.5-3.3
		l0.1-3.3v-3.3l0.2-3.3l-1-3.3l1.6-3.3l-1.2-3.3l0.7-3.3l0.1-3.3l0.3-3.3l-0.3-3.3l-0.9-3.8l3.8-0.1l3.3,1.2l3.3,0.4l3.3-0.7
		l3.3,0.7l3.3-1.5l3.3,0.6l3.3,0.3l3.3-0.8h3.3l3.3-0.2l3.3-0.3l3.3,0.2l3.3,0.4l3.3,0.5l2.6,0.4l1.2,2.6l-0.3,3.3l0.4,3.3l-1.6,3.3
		L411.9,429.3z M414.2,391.4l0.1-3.3l-1.1-3.3l0.8-3.3l-0.3-3.3l-0.7-3.3l0.3-3.3l1.3-3.3l0.3-3.3l-0.6-3.3l0.3-2.6l2.6-0.3l3.3-1.2
		l3.3,0.9l3.3-0.9l3.3,1.9l3.3-0.1h3.3l3.3-1.2l3.3,1.1l3.3-0.1l3.3-0.1l3.3,0.2l3.3-0.9l3.3,1.2l3.3-1.9l3.5,0.7l-1.1,3.5l1,3.3
		l-0.1,3.3l-0.6,3.3l1.6,3.3l-1.4,3.3l-0.5,3.3l1.6,3.3l-0.8,3.3l0.6,3.3l-0.8,3.3l0.5,3.3l-0.3,3.3l0.7,3.3l-1,3.3l0.9,3.7
		l-3.8-0.6l-3.3-0.6l-3.3,1.2l-3.3-0.2l-3.3-1.2l-3.3,0.7l-3.3,1.1l-3.3-1.4l-3.3-0.4l-3.3,1.5l-3.3-1.3l-3.3,0.7l-3.3-0.5l-3.3,1
		l-3.3-0.3l-3.6,0.2l0.1-3.6l-0.5-3.3l0.2-3.3l0.2-3.3l1-3.3L414.2,391.4z"/>
	<polygon class="st2" points="195.9,209.3 195.5,206 194.2,202.8 195.9,199.5 195,196.5 192,196.8 188.7,197 185.5,196.8 
		182.2,195.6 178.9,196.6 175.7,197.2 172.4,195.7 169.2,196.4 165.9,196 162.6,196.6 159.4,195.5 156.1,195.8 152.9,195.9 
		149.6,196.9 146.3,195.5 143.6,196.8 142.8,199.5 143.5,202.8 143.9,206.1 142.2,209.3 142.7,212.6 143.9,215.8 144,219.1 
		142.7,222.4 142.3,225.6 142.3,228.9 143.5,232.1 143.2,235.4 142.1,238.7 144.1,241.9 144.1,245.2 143.4,248.1 146.3,249.4 
		149.6,249.3 152.9,249.5 156.1,248.5 159.4,248.8 162.6,247.7 165.9,249.4 169.2,247.8 172.4,248.4 175.7,248.3 178.9,249.5 
		182.2,247.9 185.5,249 188.7,247.9 192,247.5 195.7,248.8 194.2,245.2 196.1,241.9 194.7,238.6 195.4,235.4 194.9,232.1 
		195.6,228.9 195.6,225.6 195,222.3 195.2,219.1 195,215.8 195.5,212.6 	"/>
	<polygon class="st3" points="304.6,206 303.1,202.8 304.6,199.5 303.8,196.1 300.3,196.9 297.1,195.7 293.8,197.2 290.5,195.4 
		287.3,196.2 284,197 280.8,196.5 277.5,196.6 274.2,195.8 271,196.6 267.7,195.3 264.5,195.8 261.2,196.4 257.9,195.5 254.7,196.5 
		250.7,195.6 251,199.5 251.2,202.8 252.5,206.1 251.9,209.3 250.9,212.6 251.1,215.8 250.4,219.1 251.6,222.4 250.8,225.6 
		251.6,228.9 252.4,232.1 252,235.4 251.5,238.7 252,241.9 250.6,245.2 251,248.9 254.7,249.2 258,249 261.2,248 264.5,247.8 
		267.7,247.5 271,247.9 274.3,247.6 277.5,248.3 280.8,249.4 284,248.7 287.3,248.9 290.6,248 293.8,247.5 297.1,249.1 300.3,248.4 
		304.3,249.1 302.6,245.3 303.8,241.9 302.8,238.6 303,235.4 302.8,232.1 303.2,228.9 303.5,225.6 304.5,222.3 302.6,219.1 
		303,215.8 303.9,212.6 303.7,209.3 	"/>
	<polygon class="st0" points="412.5,209.3 411.7,206 411.3,202.8 412.8,199.5 412.5,195.7 408.7,196.2 405.4,195.3 402.2,195.5 
		398.9,195.8 395.6,196.1 392.4,196.1 389.1,197.1 385.9,196.4 382.6,196.2 379.3,196.9 376.1,195.5 372.8,197 369.5,197.1 
		366.3,195.6 363,197.3 359.7,196.2 360,199.5 360.4,202.8 359.5,206.1 358.8,209.3 359.4,212.6 360.1,215.8 359.7,219.1 
		359.5,222.4 359.3,225.6 360,228.9 360.3,232.1 360.2,235.4 359.2,238.7 360.6,241.9 360.6,245.2 359.9,248.3 363,248.2 
		366.3,249.3 369.6,248.3 372.8,249.1 376.1,248.6 379.3,249.4 382.6,248.1 385.9,249.4 389.1,248.2 392.4,247.9 395.6,247.6 
		398.9,248.4 402.2,247.8 405.4,247.9 408.7,248.3 411.3,247.8 412.7,245.2 411.7,241.9 412.3,238.6 412.8,235.4 412.5,232.1 
		411.7,228.9 412.3,225.6 412.7,222.3 412.2,219.1 412.2,215.8 411.2,212.6 	"/>
	<polygon class="st3" points="195.9,347 195,343.7 196,340.5 195.6,337.2 194.4,333.9 194.7,330.7 194.4,327.4 195.2,324.2 
		194.7,320.9 195.2,317.6 195.4,314.4 194.3,311.1 195.3,307.9 195.6,304.3 192,303.9 188.7,303.9 185.5,303.9 182.2,305.3 
		178.9,305 175.7,305.1 172.4,305.6 169.2,305.3 165.9,303.6 162.6,304.5 159.4,304.8 156.1,303.7 152.9,304.8 149.6,304.9 
		146.3,304.3 143.3,304.9 143.5,307.9 142.5,311.1 142.4,314.4 142.4,317.7 143.4,320.9 144.1,324.2 143.6,327.4 143.4,330.7 
		143.6,334 143.1,337.2 144,340.5 142.6,343.7 143.9,347 142.8,350.3 142.8,353.5 143.2,356.6 146.3,357.3 149.6,357.3 152.9,356.3 
		156.1,355.8 159.4,357.6 162.6,357.4 165.9,356.5 169.2,357.7 172.4,357.5 175.7,356.1 178.9,356.5 182.2,355.8 185.5,357 
		188.7,355.7 192,356.4 195.7,357.2 196.2,353.5 195.9,350.3 	"/>
	<polygon class="st0" points="304,330.7 304.6,327.4 303.1,324.2 303.1,320.9 302.9,317.6 303.4,314.4 303.1,311.1 304.4,307.9 
		303.7,304.5 300.3,304.9 297.1,304.5 293.8,305.3 290.5,305.5 287.3,304.9 284,303.7 280.8,304.1 277.5,305.4 274.2,304.4 
		271,305.2 267.7,304.3 264.5,304.5 261.2,305.5 257.9,304.2 254.7,305.1 251.1,304.3 251.5,307.9 250.7,311.1 250.8,314.4 
		251.4,317.7 250.5,320.9 250.9,324.2 251.5,327.4 252.3,330.7 251.2,334 252.1,337.2 250.7,340.5 251.5,343.7 251.2,347 
		250.5,350.3 252.2,353.5 251.8,356.4 254.7,356 258,357.2 261.2,357.5 264.5,356.1 267.7,356.4 271,356.5 274.3,357.3 277.5,357.4 
		280.8,356.6 284,357.4 287.3,357.5 290.6,355.9 293.8,357.3 297.1,357.5 300.3,357.2 304.1,357.3 304.1,353.5 304,350.3 303.5,347 
		302.8,343.7 303.6,340.5 302.7,337.2 303.6,333.9 	"/>
	<polygon class="st1" points="366.5,357.5 369.5,356.9 372.8,357.2 376.1,356.8 379.3,356.6 382.6,357 385.9,356.3 389,356.3 
		392.4,356 395.7,355.4 398.9,356 402.2,356.8 405.4,357 408.7,356.4 412.1,356.9 410.4,353.6 412.1,350.3 411.1,347 411.5,343.7 
		411.8,340.5 411.3,337.2 412.6,334 412.5,330.6 410.4,327.6 410,324 413.4,321 411.3,317.7 410.7,314.4 411.9,311.1 412.6,307.8 
		412.6,304.1 408.7,305.3 405.5,304.3 402,304.6 399,304.7 395.6,304.1 392.3,304.5 389.1,304.8 385.8,304.9 382.5,304.9 
		379.4,304.1 375.9,304.7 372.8,305.2 369.5,304.6 366.3,305 363.1,303.4 360.1,305 358.9,307.8 360.3,311.2 360.4,314.4 
		358.6,317.8 359.3,320.9 359.8,324.2 360.5,327.5 361,330.7 359.7,334.1 358,337.4 361.3,340.3 360.7,343.7 359.9,346.9 360,350.4 
		358.3,353.5 358.8,357.7 363.1,357.9 	"/>
	<polygon class="st3" points="86.4,448.8 86.6,445.6 86.1,442.3 87.3,439 87.4,435.8 85.9,432.5 87,429.3 86.9,426 85.9,422.7 
		87.1,419.5 87.8,416.2 87.1,412.8 83.6,412.1 80.4,412.7 77.1,413.8 73.8,413.1 70.6,413 67.3,413.3 64.1,412 60.8,413.2 60.8,413 
		57.8,412.9 54.5,413.8 51.3,412.3 48,412.4 44.8,414 41.5,413.3 38.2,413.2 34.5,412.8 34.8,416.5 34.6,419.7 34.5,423 35.4,426.3 
		34.7,429.5 35,432.8 36,436 35.8,439.3 35.6,442.6 35.6,445.8 35.8,449.1 34.4,452.3 35.6,455.6 34.3,458.9 34.3,462.1 35.3,465.1 
		38.2,465.8 41.5,465.4 44.8,465.4 48,465 51.3,465.8 54.6,464.9 57.8,465.1 60.8,466.1 60.8,464.8 60.8,464.8 64.1,465.6 
		67.3,464.9 70.6,464.9 73.9,464.1 77.1,465.9 80.4,465.8 83.6,465.2 87.1,465.4 87,461.9 87.8,458.6 86.3,455.3 87.9,452.1 	"/>
	<polygon class="st0" points="195.7,426 194.9,422.7 195.2,419.5 195.6,416.2 195.2,413 192,413 188.7,413.4 185.5,412.9 
		182.2,412.5 178.9,413.3 175.7,413.4 172.4,413 169.2,412.2 165.9,412.8 162.6,412.7 159.4,413.4 156.1,413.9 152.9,412.9 
		149.6,412.6 146.3,413.9 142.7,412.6 142.6,416.2 144,419.5 144.1,422.7 143.8,426 143.5,429.3 142.8,432.5 142.1,435.8 142.3,439 
		143.1,442.3 142.8,445.6 142.4,448.8 142.5,452.1 142.8,455.3 143.2,458.6 142.2,461.9 143.3,464.9 146.3,465 149.6,465.8 
		152.9,464.4 156.1,464.8 159.4,464.9 162.6,465.7 165.9,464.2 169.2,464.3 172.4,464.9 175.7,464.5 178.9,466 182.2,465.8 
		185.5,464.4 188.7,465.4 192,465.3 195.5,465.4 194.6,461.9 194.8,458.6 195.3,455.3 195.2,452.1 194.3,448.8 194.5,445.6 
		195.6,442.3 195.4,439 195.6,435.8 194.6,432.5 195,429.3 	"/>
	<polygon class="st1" points="303.7,435.8 302.8,432.5 303.2,429.3 303.7,426 302.8,422.7 303.9,419.5 303.7,416.2 302.9,413.7 
		300.3,412.2 297.1,412.1 293.8,413 290.5,412.9 287.3,412.3 284,413.3 280.8,413.2 277.5,412.3 274.2,412.1 271,413.8 267.7,412.6 
		264.5,413.6 261.2,412.6 257.9,413 254.7,412.3 250.9,412.4 251.3,416.2 250.4,419.5 251.8,422.7 250.6,426 250.4,429.3 
		251.2,432.5 251,435.8 251.5,439 251.5,442.3 251.6,445.6 252.4,448.8 252.5,452.1 251.9,455.3 251.6,458.6 251.4,461.9 
		251.2,465.3 254.7,464.9 258,464.5 261.2,464.2 264.5,464.9 267.7,465.4 271,464.2 274.3,464.8 277.5,464.7 280.8,465.3 284,465.7 
		287.3,464.7 290.6,464.2 293.8,464.6 297.1,466 300.3,464.3 303.5,465 302.8,461.8 304.2,458.6 302.9,455.3 303.5,452.1 
		303.9,448.8 304.1,445.6 302.6,442.3 304.3,439 	"/>
	<polygon class="st2" points="412.3,419.5 412.5,416.2 411.3,413.6 408.7,413.2 405.4,412.6 402.2,412.2 398.9,412 395.6,412.3 
		392.4,412.6 389.1,412.5 385.9,413.3 382.6,413 379.3,412.4 376.1,413.9 372.8,413.2 369.5,413.9 366.3,413.5 363,412.3 
		359.2,412.4 360.2,416.2 360.4,419.5 360.1,422.7 360,426 359.3,429.3 360.6,432.5 359,435.8 360,439 359.9,442.3 359.9,445.6 
		359.8,448.8 359.3,452.1 359.5,455.3 360.4,458.6 360.6,461.9 359.6,465.3 363,465.6 366.3,465 369.6,464.6 372.8,464.9 
		376.1,465.4 379.3,465.9 382.6,464.2 385.9,464.5 389.1,464.7 392.4,464.2 395.6,465.1 398.9,464.5 402.2,465.3 405.4,465.5 
		408.7,464.5 411.6,464.8 411.1,461.8 411.8,458.6 411.6,455.3 410.9,452.1 411.5,448.8 411.3,445.6 412.4,442.3 411.5,439 
		411.9,435.8 411.7,432.5 411.9,429.3 411.1,426 412.7,422.7 	"/>
	<polygon class="st1" points="89,180.3 92.4,181.5 94.9,183.7 97.1,186.1 99.1,188.7 100.9,191.5 104.3,192.7 105,196.6 
		108.1,198.1 111.1,199.7 113.1,202.4 115,203.7 117,202.3 118.8,199.6 122.1,198.3 123.3,194.9 126.5,193.5 128.3,190.7 
		131.1,188.8 133.5,186.6 135.5,184 138.1,182 141.1,180.4 142.2,177 144.2,174.3 148.2,173.7 150.2,171.1 152.8,168.2 149.5,165.9 
		147.4,163.5 144.5,161.7 143,158.6 140.1,156.9 138.6,153.7 136.3,151.5 133.9,149.3 131.8,146.7 128.7,145.3 127.3,142 
		123.4,141.3 121.3,138.8 119.4,136.1 118.2,132.7 115,132 113.7,134.6 109.8,135.3 107.2,137.4 106.2,141 102.8,142.2 102.1,146.1 
		99,147.6 96,149.2 94.5,152.3 91.4,153.8 90.1,157.1 88.2,159.8 84.3,160.5 83.3,164.1 80.9,166.4 78.7,168.2 80.1,170.8 
		81.8,173.7 84.7,175.4 88.3,176.4 	"/>
	<polygon class="st2" points="249.7,141.8 246.2,142.3 242.9,142.2 239.6,141.8 236.4,141.8 233.1,141.4 229.8,142.9 226.6,142.4 
		223.3,142.8 220.1,142.1 216.8,141.3 213.5,141.3 210.3,141.3 207,142.9 203.8,141.5 200.5,142.8 197.5,142.3 198.2,145.4 
		198.2,148.6 198,151.9 198,155.1 198.2,158.4 197.5,161.7 197.5,164.9 197.2,168.2 196.5,171.4 197,174.7 197,178 197.5,181.2 
		198.1,184.5 197.3,187.7 197.6,191 196.8,194.7 200.5,194.1 203.8,194.7 207,193.4 210.3,195 213.6,193.2 216.8,195.2 220.1,194.4 
		223.3,194.8 226.6,193.3 229.9,194.7 233.1,194.9 236.4,194.4 239.6,194.7 242.9,193.9 246.2,193.7 250,194.8 248.9,191 
		250.4,187.7 250.1,184.5 248.6,181.2 248.8,177.9 250.3,174.7 249.5,171.4 250.2,168.2 250,164.9 248.9,161.6 250,158.4 
		248.5,155.1 250.4,151.9 248.9,148.6 250.1,145.3 	"/>
	<polygon class="st3" points="358.8,161.6 358.1,158.4 357.7,155.1 358.7,151.9 358.2,148.6 357.4,145.3 357.3,142.5 354.5,142.4 
		351.2,141.2 348,141.5 344.7,142.3 341.5,142.5 338.2,141.8 334.9,141.1 331.7,141.1 328.4,142.5 325.2,141.4 321.9,142.7 
		318.6,141.7 315.4,143.1 312.1,141.9 308.9,143 305.8,142.2 305,145.4 305,148.6 305.3,151.9 306.6,155.1 306.4,158.4 305.8,161.7 
		305.8,164.9 305.4,168.2 304.8,171.4 304.6,174.7 306,178 305.9,181.2 305.4,184.5 305.6,187.7 305.8,191 305.6,194.3 308.9,194.1 
		312.1,194.2 315.4,195.2 318.6,193.8 321.9,193.8 325.2,195 328.4,193.5 331.7,194.2 334.9,194.2 338.2,194.8 341.5,194.4 
		344.7,195 348,195.1 351.2,194.4 354.5,194.7 358.2,194.7 357.7,191 358.8,187.7 357,184.5 356.8,181.2 357.7,177.9 357.4,174.7 
		358.2,171.4 357.5,168.2 358.5,164.9 	"/>
	<polygon class="st0" points="462.8,142 459.6,142.9 456.3,142.7 453.1,142.9 449.8,141.5 446.5,141.8 443.3,142.7 440,142.6 
		436.8,142.7 433.5,142.2 430.2,142.6 427,141.3 423.7,143 420.5,141.5 417.2,142 413.3,141.4 413,145.4 413,148.6 413.9,151.9 
		414.5,155.1 413.2,158.4 413.9,161.7 414.8,164.9 415,168.2 413.4,171.4 413.4,174.7 413.8,178 414.5,181.2 414.6,184.5 
		414.2,187.7 413.2,191 414.3,193.9 417.2,194.2 420.5,194.4 423.7,193.8 427,194.6 430.3,194.4 433.5,195.1 436.8,193.4 440,195.1 
		443.3,194.4 446.6,195.3 449.8,194.5 453.1,194.7 456.3,194.1 459.6,194 462.9,193.4 465.9,194 465.9,191 466.2,187.7 466.9,184.5 
		466.3,181.2 466.8,177.9 465.3,174.7 466.9,171.4 466.9,168.2 466,164.9 466.1,161.6 465.5,158.4 465.7,155.1 465.2,151.9 
		467,148.6 466.6,145.3 465.5,142.7 	"/>
	<polygon class="st0" points="140.9,276.5 141.1,273.3 141.2,270 140.4,266.7 141.8,263.5 141.6,260.2 141.4,257 140.9,253.7 
		140.9,250.6 137.8,250.6 134.5,250.4 131.3,250.7 128,250.8 124.8,250.2 121.5,249.6 118.2,251.4 115,250 111.7,251.2 108.5,250 
		105.2,250.1 101.9,251.1 98.7,250.2 95.4,251 92.2,251 89.6,251.1 88.1,253.7 88,257 88.4,260.2 89.4,263.5 89.8,266.7 88.6,270 
		88.1,273.3 88.4,276.5 89.5,279.8 88.7,283 89.1,286.3 88.7,289.6 88.5,292.8 88.6,296.1 88.1,299.3 89,302.5 92.2,302.7 
		95.4,301.7 98.7,303.4 102,303.3 105.2,303.1 108.5,303.2 111.7,301.9 115,302.4 118.3,302 121.5,301.6 124.8,303.4 128,302 
		131.3,303.1 134.6,302 137.8,303.1 141.3,302.8 141.7,299.3 140.6,296.1 141.4,292.8 141.6,289.6 140.4,286.3 142,283 140.7,279.8 
			"/>
	<polygon class="st1" points="250.7,286.2 248.1,283.2 249.7,279.9 249.3,276.5 248.3,273.2 250.5,270 249.4,266.7 250.4,263.6 
		250,260.2 249.9,257 248.6,253.7 249.7,250.2 246.2,250.4 242.7,250.8 239.5,249 236.3,251.2 233.4,250.6 229.9,248.6 226.7,251.3 
		223.3,251.1 220.1,250.5 216.7,250.3 213.5,250.9 210.3,250.2 206.9,249.3 203.7,251.8 200.6,248.8 196.9,250.2 196.6,253.6 
		196.9,257 197.4,260.2 196.6,263.5 198.3,266.7 196,269.9 197.4,273.3 195.7,276.6 196.9,279.8 197.6,283 197.8,286.4 197.7,289.5 
		197.2,292.9 198.1,296 197.9,299.3 197.9,302 200.3,303.1 203.8,303.1 207.1,302.2 210.4,301.5 213.5,301.8 216.8,302.1 
		220.2,301.7 223.3,303.6 226.7,303.9 229.9,302.4 233.1,302.5 236.5,302.4 239.5,302.1 242.8,301.7 246.2,301.1 249.4,302.5 
		250.4,299.5 250.3,296.1 250.1,292.8 251.2,289.6 	"/>
	<polygon class="st2" points="357.6,263.5 357.1,260.2 357.9,257 357.5,253.7 357.6,250.6 354.5,250.1 351.2,250.9 348,249.5 
		344.7,249.7 341.5,250.2 338.2,250.8 334.9,251.4 331.7,250.5 328.4,249.9 325.2,249.5 321.9,251.2 318.6,250.9 315.4,250.5 
		312.1,251.1 308.9,249.9 306,250.8 305.8,253.7 305.5,257 305.2,260.2 305.1,263.5 306.1,266.7 305.3,270 306.6,273.3 306.6,276.5 
		304.9,279.8 304.7,283 306.5,286.3 306.1,289.6 306.5,292.8 305.2,296.1 304.9,299.3 305.1,303.1 308.9,303.2 312.1,302.4 
		315.4,301.8 318.6,302.6 321.9,302.9 325.2,302.8 328.4,302.8 331.7,302.9 334.9,302.8 338.2,302.1 341.5,302.3 344.7,302.5 
		348,302.2 351.2,302.2 354.5,302.2 357.9,302.7 357.1,299.4 357.4,296.1 357.2,292.8 357.8,289.6 357.7,286.3 356.7,283 
		358.1,279.8 357.9,276.5 357,273.3 356.7,270 358.3,266.7 	"/>
	<polygon class="st3" points="459.6,251.3 456.3,249.9 453.1,250.2 449.8,249.5 446.5,249.7 443.3,250.8 440,250.8 436.8,251 
		433.5,249.7 430.2,250.9 427,250.5 423.7,249.6 420.5,250.9 417.2,249.5 413.2,249.7 413.4,253.7 414.5,257 414.5,260.2 414,263.5 
		414.3,266.7 413.3,270 414.4,273.3 413.1,276.5 413.1,279.8 414.7,283 413.5,286.3 413.8,289.6 414.9,292.8 414.4,296.1 
		413.8,299.3 414.1,302.4 417.2,303.5 420.5,302.4 423.7,302.9 427,301.8 430.3,301.8 433.5,302.8 436.8,302.1 440,302.9 443.3,303 
		446.6,302.6 449.8,303.4 453.1,302.1 456.3,301.6 459.6,302.2 462.9,302.1 465.9,302.4 467,299.4 466.2,296.1 466.1,292.8 
		466.9,289.6 466.6,286.3 465.2,283 466.9,279.8 465.4,276.5 465.1,273.3 466.3,270 467,266.7 466.5,263.5 466.4,260.2 465.8,257 
		466.1,253.7 466.5,250.1 462.8,249.9 	"/>
	<polygon class="st3" points="140.3,378.3 140.8,375.1 141.1,371.8 141.9,368.6 141.7,365.3 140.5,362 141.5,358.4 137.8,357.9 
		134.5,358.3 131.3,358.5 128,359.8 124.8,359.5 121.5,359.7 118.2,358.1 115,358 111.7,358.6 108.5,358.9 105.2,357.9 101.9,359.8 
		98.7,359.4 95.4,359.5 92.2,358.7 89.3,359.2 88,362 88.5,365.3 88,368.6 89.7,371.8 88.2,375.1 89.3,378.4 88.5,381.6 88.2,384.9 
		89.8,388.1 89.3,391.4 88.8,394.7 89.4,397.9 88.6,401.2 88.2,404.4 88.9,407.7 88.5,411.4 92.2,411.9 95.4,411.9 98.7,411 
		102,410.6 105.2,410.5 108.5,410.7 111.7,411.4 115,410.4 118.3,410.8 121.5,411 124.8,410.5 128,410.9 131.3,410.4 134.6,411.1 
		137.8,411.9 141.5,411.4 141.7,407.6 140.9,404.4 141.6,401.2 141.6,397.9 141.2,394.6 141.4,391.4 141.9,388.1 142,384.9 
		140.2,381.6 	"/>
	<polygon class="st0" points="248.9,397.9 249.1,394.6 249.7,391.4 248.5,388.1 249.9,384.9 249,381.6 248.6,378.3 248.7,375.1 
		249.1,371.8 248.5,368.6 248.9,365.3 249.3,362 249.3,358.9 246.2,359.7 242.9,358.7 239.6,359.7 236.4,358.5 233.1,359.7 
		229.8,359 226.6,358.7 223.3,359.6 220.1,358.7 216.8,358.9 213.5,358 210.3,359.2 207,358.2 203.8,358.7 200.5,358.4 197.5,359 
		196.5,362 198.3,365.3 197,368.6 198,371.8 197.8,375.1 196.6,378.4 197,381.6 198.2,384.9 197.1,388.1 198,391.4 196.4,394.7 
		198.1,397.9 196.6,401.2 197.9,404.4 196.7,407.7 197.3,410.9 200.5,409.9 203.8,412 207,410.9 210.3,410.8 213.6,411.2 
		216.8,409.9 220.1,411.9 223.3,410.3 226.6,411.2 229.9,411.1 233.1,410.2 236.4,411.7 239.6,410 242.9,411.1 246.2,411.5 
		249.1,410.6 250,407.7 249.9,404.4 250.1,401.2 	"/>
	<polygon class="st1" points="358.4,368.6 358,365.3 358.8,362 357.2,359.4 354.5,359.2 351.2,359.3 348,358.9 344.7,359.2 
		341.5,359.4 338.2,359.7 334.9,359.2 331.7,358.4 328.4,358.1 325.2,358.9 321.9,357.8 318.6,358.8 315.4,358.8 312.1,357.9 
		308.9,359.2 305.5,358.7 306.6,362 305.8,365.3 304.9,368.6 306,371.8 305,375.1 304.9,378.4 304.6,381.6 305.9,384.9 305.5,388.1 
		304.8,391.4 306.6,394.7 306.4,397.9 304.6,401.2 306.1,404.4 305.3,407.7 306.2,410.3 308.9,409.9 312.1,410.9 315.4,412 
		318.6,411.3 321.9,410.4 325.2,409.9 328.4,411.9 331.7,410.8 334.9,410.1 338.2,411.8 341.5,411.4 344.7,411.4 348,411.4 
		351.2,411.5 354.5,410.4 358.3,411.4 357.5,407.7 357.2,404.4 358.1,401.2 358.5,397.9 357.9,394.6 358.1,391.4 358.4,388.1 
		358.3,384.9 357.3,381.6 357.4,378.3 358.8,375.1 358.5,371.8 	"/>
	<polygon class="st2" points="413.3,401.2 413.2,404.4 413.7,407.7 413.6,411.3 417.2,411.1 420.5,411.4 423.7,410.4 427,410.9 
		430.3,410.2 433.5,411.5 436.8,410 440,410.4 443.3,411.8 446.6,410.7 449.8,410 453.1,411.2 456.3,411.4 459.6,410.3 462.9,410.8 
		466.6,411.4 465.7,407.7 466.7,404.4 466,401.2 466.3,397.9 465.8,394.6 466.6,391.4 466,388.1 466.9,384.9 465.2,381.6 
		465.7,378.3 467.1,375.1 465.5,371.8 466.2,368.6 466.3,365.3 465.2,362 466.4,358.5 462.8,357.8 459.6,359.7 456.3,358.5 
		453.1,359.4 449.8,359.2 446.5,359.4 443.3,359.5 440,358.4 436.8,359.7 433.5,359.7 430.2,359.7 427,357.9 423.7,358.8 
		420.5,357.9 417.2,359.1 414.6,359.4 414.3,362 414.9,365.3 414.6,368.6 413.3,371.8 413.1,375.1 413.7,378.4 414,381.6 
		413.2,384.9 414.3,388.1 414.2,391.4 414.5,394.7 413.5,397.9 	"/>
	<polygon class="st0" points="141.5,496.5 140.7,493.2 140,490 140.1,486.7 140.9,483.4 142.1,480.2 141.2,476.9 141.2,473.6 
		140.4,470.4 140.5,467.7 137.8,466.1 134.5,468 131.3,468 128,466.6 124.8,467 121.5,466.2 118.2,468.1 115,466.4 111.7,467.3 
		108.5,466.6 105.2,466.8 101.9,467.2 98.7,467.5 95.4,467.8 92.2,467.2 89.3,467.5 88.9,470.4 89,473.7 89.8,476.9 88.9,480.2 
		89,483.4 88,486.7 88.4,490 89.4,493.2 89.3,496.5 89.8,499.7 89.8,500 142,500 142,499.7 	"/>
	<polygon class="st1" points="249.2,496.5 250.1,493.2 249,490 249.7,486.7 249.1,483.4 249.2,480.2 250,476.9 248.4,473.6 
		250.4,470.4 250.2,466.4 246.2,468 242.9,467.5 239.6,468 236.4,467.9 233.1,466.3 229.8,467.5 226.6,467.1 223.3,467.6 220.1,467 
		216.8,466.5 213.5,467.6 210.3,466.9 207,466.9 203.8,466.2 200.5,466.9 197.9,467.7 198,470.4 198.2,473.7 198.1,476.9 
		197.1,480.2 196.9,483.4 197.6,486.7 196.2,490 197.9,493.2 197.4,496.5 198,499.7 197.9,500 248.7,500 248.6,499.7 	"/>
	<polygon class="st2" points="358.3,496.5 356.9,493.2 358.6,490 357.2,486.7 358.4,483.4 358.7,480.2 357.7,476.9 356.8,473.6 
		356.7,470.4 357.4,467.5 354.5,467 351.2,468.2 348,467.5 344.7,466.7 341.5,467.9 338.2,467.2 334.9,466.8 331.7,467.7 
		328.4,468.1 325.2,468.1 321.9,467.9 318.6,466.7 315.4,467.2 312.1,466.5 308.9,466.9 305,466.5 304.9,470.4 305.1,473.7 
		305.6,476.9 305.8,480.2 306.1,483.4 306.5,486.7 304.9,490 305,493.2 305.4,496.5 304.8,499.7 304.9,500 357.2,500 357.1,499.7 	
		"/>
	<polygon class="st3" points="465.6,496.5 465.1,493.2 467.1,490 465.9,486.7 467,483.4 466.7,480.2 465.4,476.9 465.7,473.6 
		466.1,470.4 466.4,466.9 462.8,466.4 459.6,467.6 456.3,466.7 453.1,466.5 449.8,467.9 446.5,467.1 443.3,467 440,466.9 
		436.8,466.8 433.5,467.8 430.2,466.3 427,466.3 423.7,467.9 420.5,467.2 417.2,467.2 413.5,466.7 413.8,470.4 413.6,473.7 
		413.5,476.9 414.4,480.2 413.6,483.4 414,486.7 415,490 414.7,493.2 414.6,496.5 414.6,499.7 414.6,500 465.5,500 465.5,499.7 	"/>
	<polygon class="st3" points="3.9,87.6 7.1,88.7 10.4,87.1 13.7,87.4 16.9,88.3 20.2,88.1 23.4,87.9 26.7,87.7 30,87.2 33.5,88.2 
		32.4,84.7 33.6,81.4 33.4,78.1 33.8,74.9 33,71.6 32.6,68.3 32.8,65.1 32.2,61.8 34.2,58.6 33,55.3 34.1,52 33.8,48.8 32.6,45.5 
		32.8,42.3 33.2,39 33.5,35.5 30,35 26.7,36.2 23.4,35.4 20.2,35.1 16.9,36.5 13.7,35.8 10.4,35.6 7.1,35.5 3.9,35.4 0.6,36.4 
		0,36.1 0,87.6 0.6,87.4 	"/>
	<polygon class="st3" points="36,4.7 35.8,7.9 35.6,11.2 35.6,14.4 35.8,17.7 34.4,21 35.6,24.2 34.3,27.5 34.3,30.7 35.3,33.7 
		38.2,34.4 41.5,34 44.8,34 48,33.6 51.3,34.4 54.6,33.5 57.8,33.7 60.8,34.7 60.8,33.4 60.8,33.4 64.1,34.2 67.3,33.5 70.6,33.5 
		73.9,32.7 77.1,34.6 80.4,34.4 83.6,33.9 87.1,34 87,30.5 87.8,27.2 86.3,24 87.9,20.7 86.4,17.4 86.6,14.2 86.1,10.9 87.3,7.7 
		87.4,4.4 85.9,1.1 86.3,0 34.9,0 35,1.4 	"/>
	<polygon class="st1" points="41.5,249.7 44.5,249.1 47.7,249.4 51,248.9 54.3,248.8 57.6,249.2 60.8,248.4 60.8,247.6 60.8,247.6 
		64.1,247.6 67.3,248.9 70.6,249.2 73.9,249.3 77.1,249.3 80.4,248.5 83.6,247.4 86.6,248.1 85.9,245.1 86.5,241.9 87.2,238.6 
		87.9,235.4 86.4,232.1 86.6,228.9 87.9,225.6 86.5,222.3 87.6,219.1 86.9,215.8 85.9,212.6 86.8,209.3 87.7,206 87.6,202.8 
		86.4,199.5 86.3,196.9 83.6,196.7 80.4,195.3 77.1,196.3 73.8,197 70.6,197 67.3,196.9 64.1,196.9 60.8,195.8 60.8,197 60.8,197 
		57.4,197.1 54.4,196.3 50.9,196.9 47.7,197.4 44.5,196.8 41.3,197.2 38,195.6 35.1,197.1 33.9,199.9 35.3,203.4 35.3,206.6 
		33.5,209.9 34.2,213.1 34.7,216.3 35.5,219.7 35.9,222.9 34.6,226.3 33,229.6 36.3,232.5 35.6,235.9 34.9,239 35,242.6 33.2,245.7 
		33.8,249.9 38,250.1 	"/>
	<polygon class="st0" points="3.9,193.4 7.1,195.1 10.4,194.4 13.7,195.3 16.9,194.5 20.2,194.7 23.4,194.1 26.7,194 30,193.4 
		33,194 33,191 33.3,187.7 34,184.5 33.4,181.2 33.9,177.9 32.4,174.7 34,171.4 34,168.2 33.1,164.9 33.2,161.6 32.7,158.4 
		32.8,155.1 32.4,151.9 34.1,148.6 33.7,145.3 32.6,142.7 30,142 26.7,142.9 23.4,142.7 20.2,142.9 16.9,141.5 13.7,141.8 
		10.4,142.7 7.1,142.6 3.9,142.7 0.6,142.2 0,142.3 0,195 0.6,195.1 	"/>
	<polygon class="st0" points="37.5,141.1 40.8,141.2 44,140.7 47.3,141.4 50.5,141.2 53.8,141.9 57.1,140.3 60.3,141.9 60.8,141.8 
		60.8,140.5 60.8,140.5 64.1,141 67.3,139.9 70.6,140.2 73.9,140.4 77.1,139.2 80.4,139.1 83.6,139.6 87.3,140.5 86.5,136.8 
		87,133.6 86.9,130.3 87.9,127 87.2,123.8 86.3,120.5 87,117.3 87.1,114 87.3,114 87.3,114 87.9,110.7 86.4,107.5 86.5,104.2 
		86.2,101 86.7,97.7 86.4,94.4 87.7,91.2 87,87.8 83.6,88.2 80.4,87.8 77.1,88.6 73.8,88.8 70.6,88.2 67.3,87 64.1,87.4 60.8,88.7 
		57.5,87.7 54.3,88.5 51,87.6 47.8,87.8 44.5,88.8 41.2,87.5 38,88.4 34.4,87.6 34.8,91.2 34,94.4 34.1,97.7 34.8,101 33.8,104.2 
		34.2,107.5 34.8,110.7 35.6,114 35.2,114 35.3,115 33.7,118.3 33.7,121.5 34,124.8 34.8,128 34.9,131.3 34.5,134.6 33.5,137.8 
		34.6,140.7 	"/>
	<polygon class="st3" points="3.9,302.1 7.1,302.9 10.4,303 13.7,302.6 16.9,303.4 20.2,302.1 23.4,301.6 26.7,302.2 30,302.1 
		33,302.4 34.1,299.4 33.3,296.1 33.2,292.8 34,289.6 33.7,286.3 32.3,283 34,279.8 32.5,276.5 32.2,273.3 33.4,270 34.1,266.7 
		33.6,263.5 33.5,260.2 33,257 33.3,253.7 33.6,250.1 30,249.9 26.7,251.3 23.4,249.9 20.2,250.2 16.9,249.5 13.7,249.7 10.4,250.8 
		7.1,250.8 3.9,251 0.6,249.7 0,249.9 0,302.6 0.6,302.8 	"/>
	<polygon class="st2" points="3.9,410 7.1,410.4 10.4,411.8 13.7,410.7 16.9,410 20.2,411.2 23.4,411.4 26.7,410.3 30,410.8 
		33.7,411.4 32.8,407.7 33.8,404.4 33.1,401.2 33.4,397.9 32.9,394.6 33.7,391.4 33.2,388.1 34,384.9 32.3,381.6 32.8,378.3 
		34.2,375.1 32.6,371.8 33.3,368.6 33.4,365.3 32.4,362 33.5,358.5 30,357.8 26.7,359.7 23.4,358.5 20.2,359.4 16.9,359.2 
		13.7,359.4 10.4,359.5 7.1,358.4 3.9,359.7 0.6,359.7 0,359.7 0,411.3 0.6,411.5 	"/>
	<polygon class="st2" points="40.8,358.3 44,357.3 47.3,357.7 50.5,357.1 53.8,358.4 57.1,356.9 60.3,357.2 60.8,357.4 60.8,356.4 
		60.8,356.4 64.1,356.8 67.3,356.8 70.6,357 73.9,356.9 77.1,357.6 80.4,356.3 83.6,355.9 86.3,356.1 87.8,353.6 87.9,350.3 86,347 
		86,343.7 86.6,340.5 86.7,337.2 86,333.9 86.7,330.7 86.5,327.4 86.2,324.2 87.3,320.9 86,317.6 86.4,314.4 86.3,311.1 86.9,307.9 
		87,304.5 83.6,305.6 80.4,304.6 77.1,305.4 73.8,305.4 70.6,304.1 67.3,304.5 64.1,304.2 60.8,304.6 60.8,305.4 60.3,305.3 
		57,306.5 53.8,306.5 50.5,306.6 47.3,304.7 44,305.6 40.7,304.7 37.5,305.9 34.9,306.3 34.5,308.9 35.2,312.1 34.9,315.4 
		33.6,318.7 33.3,321.9 34,325.2 34.3,328.4 33.5,331.7 34.6,335 34.5,338.2 34.8,341.5 33.8,344.7 33.6,348 33.4,351.3 33.9,354.5 
		33.9,358.1 37.5,358 	"/>
	<polygon class="st3" points="32.8,496.5 32.2,493.2 34.2,490 33,486.7 34.1,483.4 33.8,480.2 32.6,476.9 32.8,473.6 33.2,470.4 
		33.5,466.9 30,466.4 26.7,467.6 23.4,466.7 20.2,466.5 16.9,467.9 13.7,467.1 10.4,467 7.1,466.9 3.9,466.8 0.6,467.8 0,467.5 
		0,500 32.6,500 32.6,499.7 	"/>
</g>
</svg>
