<?xml version="1.0" encoding="utf-8"?>
<!-- Generator: Adobe Illustrator 21.1.0, SVG Export Plug-In . SVG Version: 6.00 Build 0)  -->
<svg version="1.1" id="レイヤー_1" xmlns="http://www.w3.org/2000/svg" xmlns:xlink="http://www.w3.org/1999/xlink" x="0px"
	 y="0px" viewBox="0 0 500 500" enable-background="new 0 0 500 500" xml:space="preserve">
<g>
	<polygon fill="none" points="201.5,110.2 201.6,110.2 201.6,69.6 201.6,30.7 201.5,30.7 	"/>
	<polygon fill="none" points="105.2,216.3 105.2,136.7 105.1,136.7 105.1,216.2 	"/>
	<polygon fill="none" points="297.9,110.2 297.9,110.2 297.9,69.6 297.9,30.7 297.9,30.7 	"/>
	<polygon fill="none" points="297.9,242.8 297.9,242.8 297.9,322.3 297.9,322.3 	"/>
	<polygon fill="none" points="201.6,242.8 201.5,242.8 201.5,322.3 201.6,322.3 	"/>
	<polygon fill="none" points="394.3,242.8 394.3,242.8 394.3,322.3 394.3,322.3 	"/>
	<polygon fill="none" points="394.3,110.2 394.3,110.2 394.3,69.6 394.3,30.7 394.3,30.7 	"/>
	<polygon fill="none" points="490.7,110.2 490.7,110.2 490.7,69.6 490.7,30.7 490.7,30.7 	"/>
	<polygon fill="none" points="105.2,242.8 105.1,242.8 105.1,322.3 105.2,322.3 	"/>
	<polygon fill="none" points="8.8,216.3 8.8,136.7 8.8,136.7 8.8,216.2 	"/>
	<polygon fill="none" points="394.3,348.9 394.3,348.8 394.3,428.3 394.3,428.4 	"/>
	<polygon fill="none" points="490.7,216.3 490.7,136.7 490.7,136.7 490.7,216.2 	"/>
	<polygon fill="none" points="105.1,110.2 105.2,110.2 105.2,69.6 105.2,30.7 105.1,30.7 	"/>
	<polygon fill="none" points="297.9,348.9 297.9,348.8 297.9,428.3 297.9,428.4 	"/>
	<polygon fill="none" points="394.3,216.3 394.3,136.7 394.3,136.7 394.3,216.2 	"/>
	<polygon fill="none" points="490.7,428.4 490.7,348.9 490.7,348.8 490.7,428.3 	"/>
	<polygon fill="none" points="490.7,322.3 490.7,242.8 490.7,242.8 490.7,322.3 	"/>
	<polygon fill="none" points="8.8,322.3 8.8,242.8 8.8,242.8 8.8,322.3 	"/>
	<polygon fill="none" points="8.8,110.2 8.8,69.6 8.8,30.7 8.8,30.7 8.8,110.2 	"/>
	<polygon fill="none" points="201.6,216.3 201.6,136.7 201.5,136.7 201.5,216.2 	"/>
	<polygon fill="none" points="8.8,348.9 8.8,348.8 8.8,428.3 8.8,428.4 	"/>
	<polygon fill="none" points="105.2,348.9 105.1,348.8 105.1,428.3 105.2,428.4 	"/>
	<polygon fill="none" points="297.9,216.3 297.9,136.7 297.9,136.7 297.9,216.2 	"/>
	<polygon fill="none" points="201.6,348.9 201.5,348.8 201.5,428.3 201.6,428.4 	"/>
	<polygon fill="#FFFFFF" points="490.7,69.6 490.7,110.2 500,117.2 500,37.7 490.7,30.7 	"/>
	<polygon fill="#FFFFFF" points="500,0 490.7,0 490.7,4.1 500,11.2 	"/>
	<polygon fill="#4D4D4D" points="490.7,30.7 490.7,30.7 500,37.7 500,11.2 490.7,4.1 490.7,4.1 	"/>
	<polygon fill="#FFFFFF" points="490.7,216.3 500,223.3 500,143.8 490.7,136.7 	"/>
	<polygon fill="#4D4D4D" points="490.7,110.2 490.7,136.7 490.7,136.7 500,143.8 500,117.2 490.7,110.2 	"/>
	<polygon fill="#FFFFFF" points="490.7,322.3 500,329.4 500,249.9 490.7,242.8 	"/>
	<polygon fill="#4D4D4D" points="490.7,216.2 490.7,242.8 490.7,242.8 500,249.9 500,223.3 490.7,216.3 	"/>
	<polygon fill="#FFFFFF" points="490.7,428.4 500,435.4 500,355.9 490.7,348.9 	"/>
	<polygon fill="#4D4D4D" points="490.7,322.3 490.7,348.8 490.7,348.9 500,355.9 500,329.4 490.7,322.3 	"/>
	<polygon fill="#FFFFFF" points="490.7,500 500,500 500,462 490.7,454.9 	"/>
	<polygon fill="#4D4D4D" points="490.7,428.3 490.7,454.9 490.7,454.9 500,462 500,435.4 490.7,428.4 	"/>
	<polygon fill="#FFFFFF" points="417.7,21.8 442.5,40.6 442.5,40.6 442.5,21.2 442.5,10.8 442.5,10.8 428.7,2.9 428.7,0 417.7,0 
		417.7,1.6 	"/>
	<polygon fill="#F2F2F2" points="442.5,10.8 442.5,21.2 442.5,40.6 490.7,4.1 490.7,0 456.2,0 456.2,2.9 	"/>
	<polygon fill="#4D4D4D" points="442.5,10.8 442.5,0 428.7,0 428.7,2.9 	"/>
	<polygon fill="#FFFFFF" points="403.9,0 394.3,0 394.3,4.1 403.9,11.4 	"/>
	<polygon fill="#FFFFFF" points="394.3,110.2 403.9,117.5 403.9,49.2 417.7,59.1 417.7,107.7 417.7,127.9 442.5,146.7 442.5,146.7 
		442.5,127.3 442.5,116.8 442.5,116.8 428.7,109 428.7,56.8 394.3,30.7 394.3,69.6 	"/>
	<polygon fill="#212121" points="442.5,10.8 442.5,10.8 456.2,2.9 456.2,0 442.5,0 	"/>
	<polygon fill="#4D4D4D" points="394.3,30.7 394.3,30.7 428.7,56.8 428.7,109 442.5,116.8 442.5,67.2 442.5,46.6 442.5,40.6 
		417.7,21.8 417.7,1.6 403.9,11.4 403.9,11.4 394.3,4.1 394.3,4.1 	"/>
	<polygon fill="#212121" points="442.5,40.6 442.5,40.6 442.5,46.6 442.5,67.2 442.5,116.8 442.5,116.8 456.2,109 456.2,56.8 
		490.7,30.7 490.7,4.1 	"/>
	<polygon fill="#212121" points="403.9,11.4 403.9,11.4 417.7,1.6 417.7,0 403.9,0 	"/>
	<polygon fill="#FFFFFF" points="428.7,215 428.7,162.8 394.3,136.7 394.3,216.3 403.9,223.5 403.9,155.3 417.7,165.1 417.7,213.7 
		417.7,233.9 442.5,252.7 442.5,252.7 442.5,233.3 442.5,222.9 442.5,222.9 	"/>
	<polygon fill="#F2F2F2" points="456.2,215 442.5,222.9 442.5,233.3 442.5,252.7 490.7,216.2 490.7,136.7 456.2,162.8 	"/>
	<polygon fill="#F2F2F2" points="442.5,146.7 490.7,110.2 490.7,30.7 456.2,56.8 456.2,109 442.5,116.8 442.5,127.3 	"/>
	<polygon fill="#4D4D4D" points="394.3,136.7 394.3,136.7 428.7,162.8 428.7,215 442.5,222.9 442.5,173.2 442.5,152.7 442.5,146.7 
		417.7,127.9 417.7,107.7 403.9,117.5 403.9,117.5 394.3,110.2 394.3,110.2 	"/>
	<polygon fill="#212121" points="442.5,146.7 442.5,146.7 442.5,152.7 442.5,173.2 442.5,222.9 442.5,222.9 456.2,215 456.2,162.8 
		490.7,136.7 490.7,110.2 	"/>
	<polygon fill="#212121" points="417.7,107.7 417.7,59.1 403.9,49.2 403.9,117.5 403.9,117.5 	"/>
	<polygon fill="#FFFFFF" points="428.7,321.1 428.7,268.9 394.3,242.8 394.3,322.3 403.9,329.6 403.9,261.3 417.7,271.2 
		417.7,319.8 417.7,340 442.5,358.8 442.5,358.8 442.5,339.4 442.5,328.9 442.5,329 	"/>
	<polygon fill="#F2F2F2" points="456.2,321.1 442.5,328.9 442.5,339.4 442.5,358.8 490.7,322.3 490.7,242.8 456.2,268.9 	"/>
	<polygon fill="#212121" points="442.5,252.7 442.5,252.7 442.5,258.7 442.5,279.3 442.5,329 442.5,328.9 456.2,321.1 456.2,268.9 
		490.7,242.8 490.7,216.2 	"/>
	<polygon fill="#212121" points="417.7,213.7 417.7,165.1 403.9,155.3 403.9,223.5 403.9,223.5 	"/>
	<polygon fill="#4D4D4D" points="417.7,213.7 403.9,223.5 403.9,223.5 394.3,216.3 394.3,216.2 394.3,242.8 394.3,242.8 
		428.7,268.9 428.7,321.1 442.5,329 442.5,279.3 442.5,258.7 442.5,252.7 417.7,233.9 	"/>
	<polygon fill="#212121" points="403.9,261.3 403.9,329.6 403.9,329.6 417.7,319.8 417.7,271.2 	"/>
	<polygon fill="#F2F2F2" points="456.2,374.9 456.2,427.1 442.5,435 442.5,445.4 442.5,464.9 490.7,428.3 490.7,348.8 	"/>
	<polygon fill="#212121" points="442.5,358.8 442.5,358.8 442.5,364.8 442.5,385.4 442.5,435 442.5,435 456.2,427.1 456.2,374.9 
		490.7,348.8 490.7,322.3 	"/>
	<polygon fill="#4D4D4D" points="442.5,385.4 442.5,364.8 442.5,358.8 417.7,340 417.7,319.8 403.9,329.6 403.9,329.6 394.3,322.3 
		394.3,322.3 394.3,348.8 394.3,348.9 428.7,374.9 428.7,427.1 442.5,435 	"/>
	<polygon fill="#212121" points="403.9,367.4 403.9,435.7 403.9,435.7 417.7,425.9 417.7,377.3 	"/>
	<polygon fill="#FFFFFF" points="394.3,454.9 394.3,500 403.9,500 403.9,473.4 417.7,483.3 417.7,500 428.7,500 428.7,481 	"/>
	<polygon fill="#FFFFFF" points="442.5,435 442.5,435 428.7,427.1 428.7,374.9 394.3,348.9 394.3,428.4 403.9,435.7 403.9,367.4 
		417.7,377.3 417.7,425.9 417.7,446.1 442.5,464.9 442.5,464.9 442.5,445.4 	"/>
	<polygon fill="#F2F2F2" points="490.7,454.9 456.2,481 456.2,500 490.7,500 	"/>
	<polygon fill="#212121" points="490.7,454.9 490.7,428.3 442.5,464.9 442.5,464.9 442.5,470.8 442.5,491.4 442.5,500 456.2,500 
		456.2,481 	"/>
	<polygon fill="#4D4D4D" points="442.5,470.8 442.5,464.9 417.7,446.1 417.7,425.9 403.9,435.7 403.9,435.7 394.3,428.4 
		394.3,428.3 394.3,454.9 394.3,454.9 428.7,481 428.7,500 442.5,500 442.5,491.4 	"/>
	<polygon fill="#212121" points="403.9,473.4 403.9,500 417.7,500 417.7,483.3 	"/>
	<polygon fill="#FFFFFF" points="321.3,21.8 312.8,15.4 346.1,40.6 346.1,40.6 346.1,21.2 346.1,10.8 346.1,10.8 332.4,2.9 332.4,0 
		321.3,0 321.3,1.6 	"/>
	<polygon fill="#F2F2F2" points="346.1,10.8 346.1,21.2 346.1,40.6 394.3,4.1 394.3,0 359.8,0 359.8,2.9 	"/>
	<polygon fill="#4D4D4D" points="346.1,10.8 346.1,0 332.4,0 332.4,2.9 	"/>
	<polygon fill="#FFFFFF" points="297.9,110.2 307.5,117.5 307.5,49.2 321.3,59.1 321.3,107.7 321.3,127.9 346.1,146.7 346.1,146.7 
		346.1,127.3 346.1,116.8 346.1,116.8 332.4,109 332.4,56.8 297.9,30.7 297.9,69.6 	"/>
	<polygon fill="#FFFFFF" points="307.5,0 297.9,0 297.9,4.1 307.5,11.4 	"/>
	<polygon fill="#212121" points="346.1,10.8 346.1,10.8 359.8,2.9 359.8,0 346.1,0 	"/>
	<polygon fill="#4D4D4D" points="297.9,30.7 297.9,30.7 332.4,56.8 332.4,109 346.1,116.8 346.1,67.2 346.1,46.6 346.1,40.6 
		312.8,15.4 321.3,21.8 321.3,1.6 307.5,11.4 307.5,11.4 297.9,4.1 297.9,4.1 	"/>
	<polygon fill="#212121" points="346.1,40.6 346.1,40.6 346.1,46.6 346.1,67.2 346.1,116.8 346.1,116.8 359.8,109 359.8,56.8 
		394.3,30.7 394.3,4.1 	"/>
	<polygon fill="#212121" points="307.5,11.4 307.5,11.4 321.3,1.6 321.3,0 307.5,0 	"/>
	<polygon fill="#F2F2F2" points="346.1,146.7 394.3,110.2 394.3,30.7 359.8,56.8 359.8,109 346.1,116.8 346.1,127.3 	"/>
	<polygon fill="#4D4D4D" points="297.9,136.7 297.9,136.7 332.4,162.8 332.4,215 346.1,222.9 346.1,173.2 346.1,152.7 346.1,146.7 
		321.3,127.9 321.3,107.7 307.5,117.5 307.5,117.5 297.9,110.2 297.9,110.2 	"/>
	<polygon fill="#212121" points="346.1,173.2 346.1,222.9 346.1,222.9 359.8,215 359.8,162.8 394.3,136.7 394.3,110.2 346.1,146.7 
		346.1,146.7 346.1,152.7 	"/>
	<polygon fill="#212121" points="321.3,107.7 321.3,59.1 307.5,49.2 307.5,117.5 307.5,117.5 	"/>
	<polygon fill="#FFFFFF" points="297.9,216.3 307.5,223.5 307.5,155.3 321.3,165.1 321.3,213.7 321.3,233.9 312.8,227.5 
		346.1,252.7 346.1,252.7 346.1,233.3 346.1,222.9 346.1,222.9 332.4,215 332.4,162.8 297.9,136.7 	"/>
	<polygon fill="#F2F2F2" points="359.8,268.9 359.8,321.1 346.1,328.9 346.1,339.4 346.1,358.8 394.3,322.3 394.3,242.8 	"/>
	<polygon fill="#F2F2F2" points="346.1,252.7 394.3,216.2 394.3,136.7 359.8,162.8 359.8,215 346.1,222.9 346.1,233.3 	"/>
	<polygon fill="#212121" points="346.1,252.7 346.1,252.7 346.1,258.7 346.1,279.3 346.1,329 346.1,328.9 359.8,321.1 359.8,268.9 
		394.3,242.8 394.3,216.2 	"/>
	<polygon fill="#4D4D4D" points="346.1,279.3 346.1,258.7 346.1,252.7 312.8,227.5 321.3,233.9 321.3,213.7 307.5,223.5 
		307.5,223.5 297.9,216.3 297.9,216.2 297.9,242.8 297.9,242.8 332.4,268.9 332.4,321.1 346.1,329 	"/>
	<polygon fill="#212121" points="321.3,213.7 321.3,165.1 307.5,155.3 307.5,223.5 307.5,223.5 	"/>
	<polygon fill="#212121" points="307.5,261.3 307.5,329.6 307.5,329.6 321.3,319.8 321.3,271.2 	"/>
	<polygon fill="#FFFFFF" points="346.1,328.9 346.1,329 332.4,321.1 332.4,268.9 297.9,242.8 297.9,322.3 307.5,329.6 307.5,261.3 
		321.3,271.2 321.3,319.8 321.3,340 312.8,333.6 346.1,358.8 346.1,358.8 346.1,339.4 	"/>
	<polygon fill="#F2F2F2" points="359.8,374.9 359.8,427.1 346.1,435 346.1,445.4 346.1,464.9 394.3,428.3 394.3,348.8 	"/>
	<polygon fill="#212121" points="394.3,322.3 346.1,358.8 346.1,358.8 346.1,364.8 346.1,385.4 346.1,435 346.1,435 359.8,427.1 
		359.8,374.9 394.3,348.8 	"/>
	<polygon fill="#4D4D4D" points="346.1,385.4 346.1,364.8 346.1,358.8 312.8,333.6 321.3,340 321.3,319.8 307.5,329.6 307.5,329.6 
		297.9,322.3 297.9,322.3 297.9,348.8 297.9,348.9 332.4,374.9 332.4,427.1 346.1,435 	"/>
	<polygon fill="#212121" points="307.5,367.4 307.5,435.7 307.5,435.7 321.3,425.9 321.3,377.3 	"/>
	<polygon fill="#FFFFFF" points="346.1,435 346.1,435 332.4,427.1 332.4,374.9 297.9,348.9 297.9,428.4 307.5,435.7 307.5,367.4 
		321.3,377.3 321.3,425.9 321.3,446.1 312.8,439.6 346.1,464.9 346.1,464.9 346.1,445.4 	"/>
	<polygon fill="#FFFFFF" points="297.9,454.9 297.9,500 307.5,500 307.5,473.4 321.3,483.3 321.3,500 332.4,500 332.4,481 	"/>
	<polygon fill="#F2F2F2" points="359.8,500 394.3,500 394.3,454.9 359.8,481 	"/>
	<polygon fill="#212121" points="394.3,428.3 346.1,464.9 346.1,464.9 346.1,470.8 346.1,491.4 346.1,500 359.8,500 359.8,481 
		394.3,454.9 	"/>
	<polygon fill="#4D4D4D" points="346.1,470.8 346.1,464.9 312.8,439.6 321.3,446.1 321.3,425.9 307.5,435.7 307.5,435.7 
		297.9,428.4 297.9,428.3 297.9,454.9 297.9,454.9 332.4,481 332.4,500 346.1,500 346.1,491.4 	"/>
	<polygon fill="#212121" points="307.5,473.4 307.5,500 321.3,500 321.3,483.3 	"/>
	<polygon fill="#F2F2F2" points="249.7,10.8 249.7,21.2 249.7,40.6 297.9,4.1 297.9,0 263.4,0 263.4,2.9 	"/>
	<polygon fill="#4D4D4D" points="249.7,10.8 249.7,0 236,0 236,2.9 	"/>
	<polygon fill="#FFFFFF" points="249.7,40.6 249.7,40.6 249.7,21.2 249.7,10.8 249.7,10.8 236,2.9 236,0 224.9,0 224.9,1.6 
		224.9,21.8 211.2,11.4 211.2,0 201.6,0 201.6,4.1 	"/>
	<polygon fill="#FFFFFF" points="201.6,110.2 211.2,117.5 211.2,49.2 224.9,59.1 224.9,107.7 224.9,127.9 249.7,146.7 249.7,146.7 
		249.7,127.3 249.7,116.8 249.7,116.8 236,109 236,56.8 201.6,30.7 201.6,69.6 	"/>
	<polygon fill="#212121" points="249.7,10.8 249.7,10.8 263.4,2.9 263.4,0 249.7,0 	"/>
	<polygon fill="#4D4D4D" points="201.5,30.7 201.6,30.7 236,56.8 236,109 249.7,116.8 249.7,67.2 249.7,46.6 249.7,40.6 201.6,4.1 
		201.5,4.1 	"/>
	<polygon fill="#212121" points="249.7,40.6 249.7,40.6 249.7,46.6 249.7,67.2 249.7,116.8 249.7,116.8 263.4,109 263.4,56.8 
		297.9,30.7 297.9,4.1 	"/>
	<polygon fill="#212121" points="211.2,11.4 224.9,1.6 224.9,0 211.2,0 	"/>
	<polygon fill="#4D4D4D" points="211.2,11.4 224.9,21.8 224.9,1.6 	"/>
	<polygon fill="#F2F2F2" points="249.7,146.7 297.9,110.2 297.9,30.7 263.4,56.8 263.4,109 249.7,116.8 249.7,127.3 	"/>
	<polygon fill="#4D4D4D" points="201.5,136.7 201.6,136.7 236,162.8 236,215 249.7,222.9 249.7,173.2 249.7,152.7 249.7,146.7 
		224.9,127.9 224.9,107.7 211.2,117.5 211.2,117.5 201.6,110.2 201.5,110.2 	"/>
	<polygon fill="#212121" points="249.7,173.2 249.7,222.9 249.7,222.9 263.4,215 263.4,162.8 297.9,136.7 297.9,110.2 249.7,146.7 
		249.7,146.7 249.7,152.7 	"/>
	<polygon fill="#212121" points="224.9,107.7 224.9,59.1 211.2,49.2 211.2,117.5 211.2,117.5 	"/>
	<path fill="#FFFFFF" d="M201.6,216.3l48.2,36.5l0,0v-19.4v-10.4l0,0L236,215v-52.2l-34.4-26.1V216.3z M224.9,165.1v48.6v20.2
		l-13.7-10.4v-68.3L224.9,165.1z"/>
	<polygon fill="#F2F2F2" points="263.4,268.9 263.4,321.1 249.7,328.9 249.7,339.4 249.7,358.8 297.9,322.3 297.9,242.8 	"/>
	<polygon fill="#F2F2F2" points="249.7,252.7 297.9,216.2 297.9,136.7 263.4,162.8 263.4,215 249.7,222.9 249.7,233.3 	"/>
	<polygon fill="#212121" points="297.9,216.2 249.7,252.7 249.7,252.7 249.7,258.7 249.7,279.3 249.7,329 249.7,328.9 263.4,321.1 
		263.4,268.9 297.9,242.8 	"/>
	<polygon fill="#4D4D4D" points="249.7,279.3 249.7,258.7 249.7,252.7 201.6,216.3 201.5,216.2 201.5,242.8 201.6,242.8 236,268.9 
		236,321.1 249.7,329 	"/>
	<polygon fill="#212121" points="211.2,223.5 224.9,213.7 224.9,165.1 211.2,155.3 	"/>
	<polygon fill="#4D4D4D" points="211.2,223.5 224.9,233.9 224.9,213.7 	"/>
	<polygon fill="#212121" points="224.9,319.8 224.9,271.2 211.2,261.3 211.2,329.6 	"/>
	<polygon fill="#4D4D4D" points="224.9,319.8 211.2,329.6 224.9,340 	"/>
	<path fill="#FFFFFF" d="M249.7,328.9L249.7,328.9l-13.7-7.9v-52.2l-34.4-26.1v79.5l48.2,36.5l0,0v-19.4V328.9z M224.9,340
		l-13.7-10.4v-68.3l13.7,9.9v48.6V340z"/>
	<polygon fill="#F2F2F2" points="263.4,374.9 263.4,427.1 249.7,435 249.7,445.4 249.7,464.9 297.9,428.3 297.9,348.8 	"/>
	<polygon fill="#212121" points="297.9,322.3 249.7,358.8 249.7,358.8 249.7,364.8 249.7,385.4 249.7,435 249.7,435 263.4,427.1 
		263.4,374.9 297.9,348.8 	"/>
	<polygon fill="#4D4D4D" points="249.7,385.4 249.7,364.8 249.7,358.8 201.6,322.3 201.5,322.3 201.5,348.8 201.6,348.9 236,374.9 
		236,427.1 249.7,435 	"/>
	<polygon fill="#212121" points="224.9,425.9 224.9,377.3 211.2,367.4 211.2,435.7 	"/>
	<polygon fill="#4D4D4D" points="224.9,425.9 211.2,435.7 224.9,446.1 	"/>
	<polygon fill="#FFFFFF" points="201.6,454.9 201.6,500 211.2,500 211.2,473.4 224.9,483.3 224.9,500 236,500 236,481 	"/>
	<path fill="#FFFFFF" d="M249.7,435L249.7,435l-13.7-7.9v-52.2l-34.4-26.1v79.5l48.2,36.5l0,0v-19.4V435z M224.9,446.1l-13.7-10.4
		v-68.3l13.7,9.9v48.6V446.1z"/>
	<polygon fill="#F2F2F2" points="263.4,500 297.9,500 297.9,454.9 263.4,481 	"/>
	<polygon fill="#212121" points="297.9,428.3 249.7,464.9 249.7,464.9 249.7,470.8 249.7,491.4 249.7,500 263.4,500 263.4,481 
		297.9,454.9 	"/>
	<polygon fill="#4D4D4D" points="249.7,470.8 249.7,464.9 201.6,428.4 201.5,428.3 201.5,454.9 201.6,454.9 236,481 236,500 
		249.7,500 249.7,491.4 	"/>
	<polygon fill="#212121" points="211.2,473.4 211.2,500 224.9,500 224.9,483.3 	"/>
	<polygon fill="#F2F2F2" points="153.3,10.8 153.3,21.2 153.3,40.6 201.5,4.1 201.5,0 167.1,0 167.1,2.9 	"/>
	<polygon fill="#4D4D4D" points="153.3,10.8 153.3,0 139.6,0 139.6,2.9 	"/>
	<polygon fill="#FFFFFF" points="153.3,40.6 153.3,40.6 153.3,21.2 153.3,10.8 153.3,10.8 139.6,2.9 139.6,0 128.5,0 128.5,1.6 
		128.5,21.8 114.8,11.4 114.8,0 105.2,0 105.2,4.1 	"/>
	<polygon fill="#FFFFFF" points="105.2,110.2 114.8,117.5 114.8,49.2 128.5,59.1 128.5,107.7 128.5,127.9 153.3,146.7 153.3,146.7 
		153.3,127.3 153.3,116.8 153.3,116.8 139.6,109 139.6,56.8 105.2,30.7 105.2,69.6 	"/>
	<polygon fill="#212121" points="153.3,10.8 153.3,10.8 167.1,2.9 167.1,0 153.3,0 	"/>
	<polygon fill="#4D4D4D" points="105.1,30.7 105.2,30.7 139.6,56.8 139.6,109 153.3,116.8 153.3,67.2 153.3,46.6 153.3,40.6 
		105.2,4.1 105.1,4.1 	"/>
	<polygon fill="#212121" points="153.3,40.6 153.3,40.6 153.3,46.6 153.3,67.2 153.3,116.8 153.3,116.8 167.1,109 167.1,56.8 
		201.5,30.7 201.5,4.1 	"/>
	<polygon fill="#212121" points="114.8,11.4 128.5,1.6 128.5,0 114.8,0 	"/>
	<polygon fill="#4D4D4D" points="114.8,11.4 128.5,21.8 128.5,1.6 	"/>
	<polygon fill="#F2F2F2" points="153.3,146.7 201.5,110.2 201.5,30.7 167.1,56.8 167.1,109 153.3,116.8 153.3,127.3 	"/>
	<polygon fill="#4D4D4D" points="105.1,136.7 105.2,136.7 139.6,162.8 139.6,215 153.3,222.9 153.3,173.2 153.3,152.7 153.3,146.7 
		128.5,127.9 128.5,107.7 114.8,117.5 114.8,117.5 105.2,110.2 105.1,110.2 	"/>
	<polygon fill="#212121" points="153.3,173.2 153.3,222.9 153.3,222.9 167.1,215 167.1,162.8 201.5,136.7 201.5,110.2 153.3,146.7 
		153.3,146.7 153.3,152.7 	"/>
	<polygon fill="#212121" points="128.5,107.7 128.5,59.1 114.8,49.2 114.8,117.5 114.8,117.5 	"/>
	<path fill="#FFFFFF" d="M105.2,216.3l48.2,36.5l0,0v-19.4v-10.4l0,0l-13.7-7.9v-52.2l-34.4-26.1V216.3z M128.5,165.1v48.6v20.2
		l-13.7-10.4v-68.3L128.5,165.1z"/>
	<polygon fill="#F2F2F2" points="167.1,268.9 167.1,321.1 153.3,328.9 153.3,339.4 153.3,358.8 201.5,322.3 201.5,242.8 	"/>
	<polygon fill="#F2F2F2" points="153.3,252.7 201.5,216.2 201.5,136.7 167.1,162.8 167.1,215 153.3,222.9 153.3,233.3 	"/>
	<polygon fill="#4D4D4D" points="105.2,242.8 139.6,268.9 139.6,321.1 153.3,329 153.3,279.3 153.3,258.7 153.3,252.7 105.2,216.3 
		105.1,216.2 105.1,242.8 	"/>
	<polygon fill="#212121" points="201.5,216.2 153.3,252.7 153.3,252.7 153.3,258.7 153.3,279.3 153.3,329 153.3,328.9 167.1,321.1 
		167.1,268.9 201.5,242.8 	"/>
	<polygon fill="#212121" points="114.8,223.5 128.5,213.7 128.5,165.1 114.8,155.3 	"/>
	<polygon fill="#4D4D4D" points="114.8,223.5 128.5,233.9 128.5,213.7 	"/>
	<polygon fill="#212121" points="128.5,319.8 128.5,271.2 114.8,261.3 114.8,329.6 	"/>
	<polygon fill="#4D4D4D" points="128.5,319.8 114.8,329.6 128.5,340 	"/>
	<path fill="#FFFFFF" d="M153.3,328.9L153.3,328.9l-13.7-7.9v-52.2l-34.4-26.1v79.5l48.2,36.5l0,0v-19.4V328.9z M128.5,340
		l-13.7-10.4v-68.3l13.7,9.9v48.6V340z"/>
	<polygon fill="#F2F2F2" points="167.1,374.9 167.1,427.1 153.3,435 153.3,445.4 153.3,464.9 201.5,428.3 201.5,348.8 	"/>
	<polygon fill="#212121" points="201.5,322.3 153.3,358.8 153.3,358.8 153.3,364.8 153.3,385.4 153.3,435 153.3,435 167.1,427.1 
		167.1,374.9 201.5,348.8 	"/>
	<polygon fill="#4D4D4D" points="153.3,385.4 153.3,364.8 153.3,358.8 105.2,322.3 105.1,322.3 105.1,348.8 105.2,348.9 
		139.6,374.9 139.6,427.1 153.3,435 	"/>
	<polygon fill="#212121" points="128.5,425.9 128.5,377.3 114.8,367.4 114.8,435.7 	"/>
	<polygon fill="#4D4D4D" points="128.5,425.9 114.8,435.7 128.5,446.1 	"/>
	<polygon fill="#FFFFFF" points="105.2,454.9 105.2,500 114.8,500 114.8,473.4 128.5,483.3 128.5,500 139.6,500 139.6,481 	"/>
	<path fill="#FFFFFF" d="M153.3,435L153.3,435l-13.7-7.9v-52.2l-34.4-26.1v79.5l48.2,36.5l0,0v-19.4V435z M128.5,446.1l-13.7-10.4
		v-68.3l13.7,9.9v48.6V446.1z"/>
	<polygon fill="#F2F2F2" points="167.1,500 201.5,500 201.5,454.9 167.1,481 	"/>
	<polygon fill="#212121" points="201.5,428.3 153.3,464.9 153.3,464.9 153.3,470.8 153.3,491.4 153.3,500 167.1,500 167.1,481 
		201.5,454.9 	"/>
	<polygon fill="#4D4D4D" points="153.3,470.8 153.3,464.9 105.2,428.4 105.1,428.3 105.1,454.9 105.2,454.9 139.6,481 139.6,500 
		153.3,500 153.3,491.4 	"/>
	<polygon fill="#212121" points="114.8,473.4 114.8,500 128.5,500 128.5,483.3 	"/>
	<polygon fill="#FFFFFF" points="32.1,21.8 57,40.6 57,40.6 57,21.2 57,10.8 57,10.8 43.2,2.9 43.2,0 32.1,0 32.1,1.6 	"/>
	<polygon fill="#F2F2F2" points="57,10.8 57,21.2 57,40.6 105.1,4.1 105.1,0 70.7,0 70.7,2.9 	"/>
	<polygon fill="#4D4D4D" points="57,10.8 57,0 43.2,0 43.2,2.9 	"/>
	<polygon fill="#FFFFFF" points="8.8,110.2 18.4,117.5 18.4,49.2 32.1,59.1 32.1,107.7 32.1,127.9 57,146.7 57,146.7 57,127.3 
		57,116.8 57,116.8 43.2,109 43.2,56.8 8.8,30.7 8.8,69.6 	"/>
	<polygon fill="#FFFFFF" points="18.4,0 8.8,0 8.8,4.1 18.4,11.4 	"/>
	<polygon fill="#212121" points="57,10.8 57,10.8 70.7,2.9 70.7,0 57,0 	"/>
	<polygon fill="#4D4D4D" points="8.8,30.7 8.8,30.7 43.2,56.8 43.2,109 57,116.8 57,67.2 57,46.6 57,40.6 32.1,21.8 32.1,1.6 
		18.4,11.4 18.4,11.4 8.8,4.1 8.8,4.1 	"/>
	<polygon fill="#212121" points="57,40.6 57,40.6 57,46.6 57,67.2 57,116.8 57,116.8 70.7,109 70.7,56.8 105.1,30.7 105.1,4.1 	"/>
	<polygon fill="#212121" points="18.4,11.4 18.4,11.4 32.1,1.6 32.1,0 18.4,0 	"/>
	<polygon fill="#212121" points="32.1,59.1 18.4,49.2 18.4,117.5 18.4,117.5 32.1,107.7 	"/>
	<polygon fill="#F2F2F2" points="70.7,162.8 70.7,215 57,222.9 57,233.3 57,252.7 105.1,216.2 105.1,136.7 	"/>
	<polygon fill="#F2F2F2" points="57,146.7 105.1,110.2 105.1,30.7 70.7,56.8 70.7,109 57,116.8 57,127.3 	"/>
	<polygon fill="#4D4D4D" points="8.8,136.7 43.2,162.8 43.2,215 57,222.9 57,173.2 57,152.7 57,146.7 32.1,127.9 32.1,107.7 
		18.4,117.5 18.4,117.5 8.8,110.2 8.8,110.2 8.8,136.7 	"/>
	<polygon fill="#212121" points="18.4,155.3 18.4,223.5 18.4,223.5 32.1,213.7 32.1,165.1 	"/>
	<polygon fill="#FFFFFF" points="57,233.3 57,222.9 57,222.9 43.2,215 43.2,162.8 8.8,136.7 8.8,216.3 18.4,223.5 18.4,155.3 
		32.1,165.1 32.1,213.7 32.1,233.9 57,252.7 57,252.7 	"/>
	<polygon fill="#F2F2F2" points="70.7,268.9 70.7,321.1 57,328.9 57,339.4 57,358.8 105.1,322.3 105.1,242.8 	"/>
	<polygon fill="#212121" points="70.7,215 70.7,162.8 105.1,136.7 105.1,110.2 57,146.7 57,146.7 57,152.7 57,173.2 57,222.9 
		57,222.9 	"/>
	<polygon fill="#4D4D4D" points="8.8,242.8 43.2,268.9 43.2,321.1 57,329 57,279.3 57,258.7 57,252.7 32.1,233.9 32.1,213.7 
		18.4,223.5 18.4,223.5 8.8,216.3 8.8,216.2 8.8,242.8 	"/>
	<polygon fill="#212121" points="18.4,261.3 18.4,329.6 18.4,329.6 32.1,319.8 32.1,271.2 	"/>
	<polygon fill="#FFFFFF" points="57,339.4 57,328.9 57,329 43.2,321.1 43.2,268.9 8.8,242.8 8.8,322.3 18.4,329.6 18.4,261.3 
		32.1,271.2 32.1,319.8 32.1,340 57,358.8 57,358.8 	"/>
	<polygon fill="#F2F2F2" points="70.7,374.9 70.7,427.1 57,435 57,445.4 57,464.9 105.1,428.3 105.1,348.8 	"/>
	<polygon fill="#212121" points="70.7,321.1 70.7,268.9 105.1,242.8 105.1,216.2 57,252.7 57,252.7 57,258.7 57,279.3 57,329 
		57,328.9 	"/>
	<polygon fill="#4D4D4D" points="8.8,348.9 43.2,374.9 43.2,427.1 57,435 57,385.4 57,364.8 57,358.8 32.1,340 32.1,319.8 
		18.4,329.6 18.4,329.6 8.8,322.3 8.8,322.3 8.8,348.8 	"/>
	<polygon fill="#212121" points="105.1,322.3 57,358.8 57,358.8 57,364.8 57,385.4 57,435 57,435 70.7,427.1 70.7,374.9 
		105.1,348.8 	"/>
	<polygon fill="#212121" points="18.4,367.4 18.4,435.7 18.4,435.7 32.1,425.9 32.1,377.3 	"/>
	<polygon fill="#FFFFFF" points="8.8,454.9 8.8,500 18.4,500 18.4,473.4 32.1,483.3 32.1,500 43.2,500 43.2,481 	"/>
	<polygon fill="#FFFFFF" points="57,435 57,435 43.2,427.1 43.2,374.9 8.8,348.9 8.8,428.4 18.4,435.7 18.4,367.4 32.1,377.3 
		32.1,425.9 32.1,446.1 57,464.9 57,464.9 57,445.4 	"/>
	<polygon fill="#F2F2F2" points="70.7,500 105.1,500 105.1,454.9 70.7,481 	"/>
	<polygon fill="#212121" points="105.1,428.3 57,464.9 57,464.9 57,470.8 57,491.4 57,500 70.7,500 70.7,481 105.1,454.9 	"/>
	<polygon fill="#4D4D4D" points="57,470.8 57,464.9 32.1,446.1 32.1,425.9 18.4,435.7 18.4,435.7 8.8,428.4 8.8,428.3 8.8,454.9 
		8.8,454.9 43.2,481 43.2,500 57,500 57,491.4 	"/>
	<polygon fill="#212121" points="18.4,473.4 18.4,500 32.1,500 32.1,483.3 	"/>
	<polygon fill="#F2F2F2" points="8.8,0 0,0 0,10.8 8.8,4.1 	"/>
	<polygon fill="#F2F2F2" points="8.8,30.7 0,37.3 0,116.8 8.8,110.2 	"/>
	<polygon fill="#212121" points="8.8,4.1 0,10.8 0,37.3 8.8,30.7 	"/>
	<polygon fill="#F2F2F2" points="8.8,136.7 0,143.4 0,222.9 8.8,216.2 	"/>
	<polygon fill="#212121" points="8.8,110.2 0,116.8 0,143.4 8.8,136.7 	"/>
	<polygon fill="#F2F2F2" points="8.8,242.8 0,249.4 0,328.9 8.8,322.3 	"/>
	<polygon fill="#212121" points="8.8,216.2 0,222.9 0,249.4 8.8,242.8 	"/>
	<polygon fill="#F2F2F2" points="8.8,348.8 0,355.5 0,435 8.8,428.3 	"/>
	<polygon fill="#212121" points="8.8,322.3 0,328.9 0,355.5 8.8,348.8 	"/>
	<polygon fill="#F2F2F2" points="0,500 8.8,500 8.8,454.9 0,461.5 	"/>
	<polygon fill="#212121" points="8.8,428.3 0,435 0,461.5 8.8,454.9 	"/>
</g>
</svg>
