<?xml version="1.0" encoding="utf-8"?>
<!-- Generator: Adobe Illustrator 21.1.0, SVG Export Plug-In . SVG Version: 6.00 Build 0)  -->
<svg version="1.1" id="レイヤー_1" xmlns="http://www.w3.org/2000/svg" xmlns:xlink="http://www.w3.org/1999/xlink" x="0px"
	 y="0px" viewBox="0 0 500 500" style="enable-background:new 0 0 500 500;" xml:space="preserve">
<style type="text/css">
	.st0{fill:#994795;}
	.st1{fill:#B781B6;}
	.st2{fill:#FFFFFF;}
	.st3{fill:#F1E4AD;}
</style>
<g>
	<polygon class="st0" points="410.7,3.9 388.4,22.5 388.4,22.5 388.4,22.5 366,3.9 366,0 357.3,0 357.3,11 388.4,36.9 388.4,36.8 
		388.4,36.8 419.4,11 419.4,0 410.7,0 	"/>
	<polygon class="st1" points="480.7,87.7 498.6,102.6 500,101.4 500,91.6 498.6,92.8 486.6,82.8 486.6,62.7 498.6,52.7 500,53.8 
		500,44 498.6,42.9 480.7,57.8 	"/>
	<polygon class="st2" points="486.6,62.7 486.6,82.8 498.6,92.8 500,91.6 500,87.5 498.6,88.7 489,80.7 489,64.8 498.6,56.8 
		500,57.9 500,53.8 498.6,52.7 	"/>
	<polygon class="st3" points="489,64.8 489,80.7 498.6,88.7 500,87.5 500,57.9 498.6,56.8 	"/>
	<path class="st0" d="M412.3,98.5l31,25.8l31-25.8V46.9l-31-25.8l-31,25.8V98.5z M465.7,91.4L443.3,110l-22.4-18.6V54.1l22.4-18.6
		l22.4,18.6V91.4z"/>
	<path class="st2" d="M443.3,35.5l-22.4,18.6v37.2l22.4,18.6l22.4-18.6V54.1L443.3,35.5z M459.9,86.5l-16.6,13.8l-16.6-13.8V58.9
		l16.6-13.8l16.6,13.8V86.5z"/>
	<polygon class="st1" points="443.3,45.1 426.7,58.9 426.7,86.5 443.3,100.3 459.9,86.5 459.9,58.9 	"/>
	<polygon class="st0" points="498.6,36.6 500,35.4 500,21.1 498.6,22.2 476.2,3.6 476.2,0 467.6,0 467.6,10.8 	"/>
	<polygon class="st2" points="498.6,22.2 500,21.1 500,11.4 498.6,12.6 483.5,0 476.2,0 476.2,3.6 	"/>
	<polygon class="st1" points="500,11.4 500,0 483.5,0 498.6,12.6 	"/>
	<polygon class="st1" points="443.3,14.8 461.1,0 449.3,0 443.3,5 437.2,0 425.4,0 	"/>
	<polygon class="st3" points="449.3,0 444.4,0 443.3,1 442.1,0 437.2,0 443.3,5 	"/>
	<polygon class="st1" points="444.4,0 442.1,0 443.3,1 	"/>
	<path class="st2" d="M388.4,124.8L366,143.4v37.2v0l22.4,18.6l22.4-18.6v-37.2L388.4,124.8z M371.8,148.2L371.8,148.2l16.6-13.8
		l16.6,13.8v27.6l-16.6,13.8l-16.6-13.8V148.2z"/>
	<polygon class="st0" points="467.5,187.8 467.5,187.8 498.6,213.7 500,212.5 500,198.1 498.6,199.3 476.2,180.7 476.2,180.6 
		476.2,143.4 498.6,124.8 500,126 500,111.6 498.6,110.4 467.5,136.2 	"/>
	<polygon class="st2" points="498.6,124.8 476.2,143.4 476.2,180.6 476.2,180.7 498.6,199.3 500,198.1 500,188.4 498.6,189.6 
		482,175.8 482,148.2 498.6,134.5 500,135.7 500,126 	"/>
	<polygon class="st0" points="498.6,134.5 482,148.2 482,175.8 498.6,189.6 500,188.4 500,135.7 	"/>
	<path class="st1" d="M425.3,177l17.9,14.9l17.9-14.9v-29.9l-17.9-14.9l-17.9,14.9V177L425.3,177z M431.2,172v-20l12.1-10l12,10v20
		v0l-12,10L431.2,172L431.2,172z"/>
	<path class="st2" d="M455.3,172.1L455.3,172.1V152l-12-10l-12.1,10v20v0l12.1,10L455.3,172.1z M433.7,170v-15.9l9.6-8l9.6,8V170
		l-9.6,8L433.7,170L433.7,170z"/>
	<polygon class="st3" points="452.9,170 452.9,154.1 443.3,146.1 433.7,154.1 433.7,170 433.7,170 443.3,178 	"/>
	<path class="st0" d="M419.4,363.3v-51.4l-31-25.8v0l0,0l-31,25.8v51.4v0.2l31,25.8l0,0v0l31-25.8V363.3z M366,356.1v-37l22.4-18.6
		l0,0v0l22.4,18.6v37v0.2L388.4,375v0l0,0L366,356.4V356.1z"/>
	<path class="st2" d="M400.4,260L400.4,260v-20.1l-12.1-10v0l-12.1,10v20v0l12.1,10v0L400.4,260z M398,241.9v16l-9.6,8v0l-9.6-8v-16
		v0l9.6-8v0L398,241.9L398,241.9z"/>
	<polygon class="st3" points="388.4,234 388.4,234 378.8,241.9 378.8,241.9 378.8,257.9 388.4,265.9 388.4,265.9 398,257.9 
		398,241.9 398,241.9 	"/>
	<path class="st1" d="M406.3,410.7l-17.9-14.9v-0.3l-17.9,14.9v29.8l17.9,14.9v0.4l17.9-14.9V410.7z M388.4,445.3l-12-10v-20.1
		l12-10v0.3l12.1,10v19.9v0.2l-12.1,10V445.3z"/>
	<path class="st3" d="M400.4,435.5v-19.9l-12.1-10v-0.3l-12,10v20.1l12,10v0.4l12.1-10V435.5z M388.4,441.2l-9.5-7.9v-16l9.5-7.9
		v0.3l9.6,8v15.8v0.2l-9.6,8V441.2z"/>
	<polygon class="st1" points="398,433.4 398,417.6 388.4,409.6 388.4,409.4 378.8,417.3 378.8,433.3 388.4,441.2 388.4,441.6 
		398,433.6 	"/>
	<polygon class="st1" points="480.6,234.8 480.6,234.9 480.6,264.7 498.6,279.6 500,278.4 500,268.6 498.6,269.8 486.5,259.8 
		486.5,239.8 486.5,239.7 498.6,229.7 500,230.9 500,221.1 498.8,220.1 498.7,220.1 498.6,219.9 498.4,220.1 498.4,220.1 	"/>
	<polygon class="st3" points="498.6,229.7 486.5,239.7 486.5,239.8 486.5,259.8 498.6,269.8 500,268.6 500,264.5 498.6,265.7 
		489,257.7 489,241.8 489,241.8 498.6,233.8 500,235 500,230.9 	"/>
	<polygon class="st1" points="498.6,233.8 489,241.8 489,241.8 489,257.7 498.6,265.7 500,264.5 500,235 	"/>
	<path class="st0" d="M412.2,223.9v51.6l31,25.8l31-25.8v-51.6l-4.7-3.9h0l-26.3-21.9l-26.3,21.9h0L412.2,223.9z M443.3,212.6l9,7.5
		h0l13.3,11.1v37.2L443.3,287l-22.4-18.6v-37.2v0l13.3-11.1h0L443.3,212.6z"/>
	<path class="st2" d="M420.9,231.1L420.9,231.1v37.2l22.4,18.6l22.4-18.6v-37.2l-13.3-11.1h0l-9-7.5l-9,7.5h0L420.9,231.1z
		 M459.8,236v27.6l-16.6,13.8l-16.6-13.8V236l16.6-13.8L459.8,236z"/>
	<polygon class="st0" points="426.7,236 426.7,263.5 443.3,277.3 459.8,263.5 459.8,236 443.3,222.2 	"/>
	<polygon class="st1" points="498.6,395.4 480.7,410.3 480.7,440.2 498.6,455.1 500,453.9 500,444.1 498.6,445.3 486.6,435.3 
		486.6,415.2 498.6,405.2 500,406.3 500,396.5 	"/>
	<polygon class="st2" points="498.6,405.2 486.6,415.2 486.6,435.3 498.6,445.3 500,444.1 500,440 498.6,441.2 489,433.2 489,417.3 
		498.6,409.3 500,410.4 500,406.3 	"/>
	<polygon class="st3" points="498.6,409.3 489,417.3 489,433.2 498.6,441.2 500,440 500,410.4 	"/>
	<path class="st0" d="M474.3,451v-51.6l-31-25.8l-31,25.8V451l31,25.8L474.3,451z M465.7,406.6v37.2l-22.4,18.6l-22.4-18.6v-37.2
		l22.4-18.6L465.7,406.6z"/>
	<path class="st2" d="M420.9,406.6v37.2l22.4,18.6l22.4-18.6v-37.2L443.3,388L420.9,406.6z M459.9,411.4V439l-16.6,13.8L426.7,439
		v-27.6l16.6-13.8L459.9,411.4z"/>
	<polygon class="st1" points="426.7,411.4 426.7,439 443.3,452.8 459.9,439 459.9,411.4 443.3,397.7 	"/>
	<polygon class="st0" points="500,387.9 500,373.6 498.6,374.7 476.2,356.1 476.2,318.9 498.6,300.3 500,301.4 500,287.1 
		498.6,285.9 467.6,311.7 467.6,363.3 498.6,389.1 	"/>
	<polygon class="st2" points="498.6,300.3 476.2,318.9 476.2,356.1 498.6,374.7 500,373.6 500,363.9 498.6,365.1 482,351.3 
		482,323.7 498.6,309.9 500,311.1 500,301.4 	"/>
	<polygon class="st1" points="498.6,309.9 482,323.7 482,351.3 498.6,365.1 500,363.9 500,311.1 	"/>
	<path class="st1" d="M461.2,352.4v-29.9l-17.9-14.9l-17.9,14.9v0v29.8l17.9,14.9L461.2,352.4z M455.3,327.5L455.3,327.5v20.1
		l-12.1,10l-12.1-10v-20v0l12.1-10L455.3,327.5z"/>
	<path class="st3" d="M431.2,327.5L431.2,327.5v20.1l12.1,10l12.1-10v-20v0l-12.1-10L431.2,327.5z M452.9,329.5v16l-9.6,8l-9.6-8
		v-15.9v0l9.6-8L452.9,329.5z"/>
	<polygon class="st1" points="433.7,329.5 433.7,329.5 433.7,345.5 443.3,353.5 452.9,345.5 452.9,329.5 443.3,321.5 	"/>
	<polygon class="st0" points="388.4,462.9 357.3,488.7 357.3,500 366,500 366,495.9 388.4,477.3 410.8,495.9 410.8,500 419.4,500 
		419.4,488.7 	"/>
	<polygon class="st2" points="388.4,477.3 366,495.9 366,500 372.6,500 388.4,486.9 404.1,500 410.8,500 410.8,495.9 	"/>
	<polygon class="st0" points="476.2,500 476.2,495.9 498.6,477.3 500,478.5 500,464.1 498.6,462.9 467.5,488.7 467.5,500 	"/>
	<polygon class="st2" points="498.6,477.3 476.2,495.9 476.2,500 482.9,500 498.6,487 500,488.2 500,478.5 	"/>
	<polygon class="st0" points="498.6,487 482.9,500 500,500 500,488.2 	"/>
	<polygon class="st1" points="443.3,484.7 425.3,499.6 425.3,500 436.7,500 443.3,494.5 449.9,500 461.2,500 461.2,499.6 	"/>
	<polygon class="st2" points="443.3,494.5 436.7,500 441.6,500 443.3,498.6 445,500 449.9,500 	"/>
	<polygon class="st3" points="443.3,498.6 441.6,500 445,500 	"/>
	<path class="st1" d="M149.3,87.7l17.9,14.9l17.9-14.9V57.8l-17.9-14.9l-17.9,14.9V87.7z M179.3,82.8l-12.1,10l-12.1-10v-20l12.1-10
		l12.1,10V82.8z"/>
	<path class="st3" d="M167.2,52.7l-12.1,10v20l12.1,10l12.1-10v-20L167.2,52.7z M176.8,80.7l-9.6,8l-9.6-8v-16l9.6-8l9.6,8V80.7z"/>
	<polygon class="st1" points="167.2,56.8 157.6,64.8 157.6,80.7 167.2,88.7 176.8,80.7 176.8,64.8 	"/>
	<path class="st0" d="M191.5,98.5l31,25.8l31-25.8V46.9l-31-25.8l-31,25.8V98.5z M244.9,91.4L222.5,110l-22.4-18.6V54.1l22.4-18.6
		l22.4,18.6V91.4z"/>
	<path class="st2" d="M222.5,35.5l-22.4,18.6v37.2l22.4,18.6l22.4-18.6V54.1L222.5,35.5z M239.1,86.5l-16.6,13.8l-16.6-13.8V58.9
		l16.6-13.8l16.6,13.8V86.5z"/>
	<polygon class="st1" points="222.5,45.1 205.9,58.9 205.9,86.5 222.5,100.3 239.1,86.5 239.1,58.9 	"/>
	<path class="st1" d="M74.6,57.8L56.6,42.9L38.7,57.8v29.9l17.9,14.9l17.9-14.9V57.8z M68.7,82.8l-12.1,10l-12.1-10v-20l12.1-10
		l12.1,10V82.8z"/>
	<path class="st2" d="M44.6,62.7v20l12.1,10l12.1-10v-20l-12.1-10L44.6,62.7z M66.2,80.7l-9.6,8l-9.6-8v-16l9.6-8l9.6,8V80.7z"/>
	<polygon class="st3" points="47,64.8 47,80.7 56.6,88.7 66.2,80.7 66.2,64.8 56.6,56.8 	"/>
	<path class="st0" d="M80.9,98.5l31,25.8l31-25.8V46.9l-31-25.8l-31,25.8V98.5z M134.3,91.4L111.9,110L89.5,91.4V54.1l22.4-18.6
		l22.4,18.6V91.4z"/>
	<path class="st2" d="M89.5,54.1v37.2l22.4,18.6l22.4-18.6V54.1l-22.4-18.6L89.5,54.1z M128.5,86.5l-16.6,13.8L95.3,86.5V58.9
		l16.6-13.8l16.6,13.8V86.5z"/>
	<polygon class="st0" points="95.3,58.9 95.3,86.5 111.9,100.3 128.5,86.5 128.5,58.9 111.9,45.1 	"/>
	<polygon class="st0" points="0,36.6 1.3,35.5 23.7,54.1 23.7,91.4 1.3,110 0,108.9 0,123.2 1.3,124.3 32.4,98.5 32.4,46.9 
		1.3,21.1 0,22.2 	"/>
	<polygon class="st2" points="23.7,91.4 23.7,54.1 1.3,35.5 0,36.6 0,46.3 1.3,45.1 17.9,58.9 17.9,86.5 1.3,100.3 0,99.2 0,108.9 
		1.3,110 	"/>
	<polygon class="st1" points="17.9,86.5 17.9,58.9 1.3,45.1 0,46.3 0,99.2 1.3,100.3 	"/>
	<polygon class="st1" points="228.6,0 222.5,5 216.4,0 204.6,0 222.5,14.8 240.3,0 	"/>
	<polygon class="st3" points="228.6,0 223.6,0 222.5,1 221.3,0 216.4,0 222.5,5 	"/>
	<polygon class="st1" points="223.6,0 221.3,0 222.5,1 	"/>
	<polygon class="st1" points="111.9,14.8 129.8,0 118,0 111.9,5 105.8,0 94.1,0 	"/>
	<polygon class="st2" points="118,0 113.1,0 111.9,1 110.8,0 105.8,0 111.9,5 	"/>
	<polygon class="st3" points="113.1,0 110.8,0 111.9,1 	"/>
	<polygon class="st0" points="167.2,36.6 198.2,10.8 198.2,0 189.6,0 189.6,3.6 167.2,22.2 144.8,3.6 144.8,0 136.2,0 136.2,10.8 	
		"/>
	<polygon class="st2" points="167.2,22.2 189.6,3.6 189.6,0 182.3,0 167.2,12.6 152.1,0 144.8,0 144.8,3.6 	"/>
	<polygon class="st0" points="182.3,0 152.1,0 167.2,12.6 	"/>
	<polygon class="st0" points="79,0 79,3.6 56.6,22.2 34.2,3.6 34.2,0 25.6,0 25.6,10.8 56.6,36.6 87.6,10.8 87.6,0 	"/>
	<polygon class="st2" points="56.6,22.2 79,3.6 79,0 71.8,0 56.6,12.6 41.5,0 34.2,0 34.2,3.6 	"/>
	<polygon class="st1" points="71.8,0 41.5,0 56.6,12.6 	"/>
	<polygon class="st1" points="19.1,0 7.3,0 1.3,5 0,4 0,13.8 1.3,14.8 	"/>
	<polygon class="st3" points="7.3,0 2.4,0 1.3,1 0.1,0 0,0 0,4 1.3,5 	"/>
	<polygon class="st1" points="2.4,0 0.1,0 1.3,1 	"/>
	<polygon class="st1" points="333.1,15.1 351,0.2 351,0 339.4,0 333.1,5.3 326.7,0 315.1,0 315.1,0.2 	"/>
	<polygon class="st2" points="333.1,5.3 339.4,0 334.5,0 333.1,1.2 331.6,0 326.7,0 	"/>
	<polygon class="st3" points="333.1,1.2 334.5,0 331.6,0 	"/>
	<polygon class="st2" points="388.4,22.5 388.4,22.5 388.4,22.5 410.7,3.9 410.7,0 403.8,0 388.4,12.8 388.4,12.8 388.4,12.8 
		372.9,0 366,0 366,3.9 	"/>
	<polygon class="st0" points="388.4,12.8 388.4,12.8 388.4,12.8 403.8,0 372.9,0 	"/>
	<polygon class="st0" points="246.8,11 277.8,36.9 308.8,11 308.8,0 300.2,0 300.2,3.9 277.8,22.5 255.4,3.9 255.4,0 246.8,0 	"/>
	<polygon class="st2" points="277.8,22.5 300.2,3.9 300.2,0 293.2,0 277.8,12.8 262.4,0 255.4,0 255.4,3.9 	"/>
	<polygon class="st1" points="293.2,0 262.4,0 277.8,12.8 	"/>
	<path class="st1" d="M370.5,57.9v29.8l17.9,14.9v0.4L406.3,88V59.5v-1.3l-17.9-14.9V43L370.5,57.9z M400.4,64.4v18.7l-12.1,10v-0.4
		l-12-10V62.7l12-10v0.3l12.1,10V64.4z"/>
	<path class="st3" d="M388.4,52.8l-12,10v20.1l12,10v0.4l12.1-10V64.4v-1.3l-12.1-10V52.8z M398,65.1v1.3v14.6l-9.6,8v-0.4l-9.5-7.9
		v-16l9.5-7.9v0.3L398,65.1z"/>
	<polygon class="st1" points="378.8,64.8 378.8,80.8 388.4,88.7 388.4,89.1 398,81.1 398,66.4 398,65.1 388.4,57.1 388.4,56.8 	"/>
	<path class="st1" d="M259.9,57.9v29.8l17.9,14.9l17.9-14.9V57.9l-17.9-14.9L259.9,57.9z M277.8,92.8l-12.1-10V62.7l12.1-10l12.1,10
		v20.1L277.8,92.8z"/>
	<path class="st2" d="M289.9,62.7l-12.1-10l-12.1,10v20.1l12.1,10l12.1-10V62.7z M277.8,56.8l9.6,8v16l-9.6,8l-9.6-8v-16L277.8,56.8
		z"/>
	<polygon class="st3" points="268.2,80.8 277.8,88.7 287.4,80.8 287.4,64.8 277.8,56.8 268.2,64.8 	"/>
	<path class="st0" d="M302.1,98.6l31,25.8l31-25.8V47l-31-25.8l-31,25.8V98.6z M333.1,110l-22.4-18.6V54.2l22.4-18.6l22.4,18.6v37.2
		L333.1,110z"/>
	<path class="st2" d="M355.5,54.2l-22.4-18.6l-22.4,18.6v37.2l22.4,18.6l22.4-18.6V54.2z M333.1,100.4l-16.6-13.8V59l16.6-13.8
		L349.7,59v27.6L333.1,100.4z"/>
	<polygon class="st0" points="349.7,59 333.1,45.2 316.6,59 316.6,86.6 333.1,100.4 349.7,86.6 	"/>
	<path class="st1" d="M315.1,147.1v29.8l17.9,14.9l17.9-14.9v-29.8l-17.9-14.9L315.1,147.1z M321,172v-20v0l12.1-10l12,10v0v20v0
		l-12,10L321,172L321,172z"/>
	<path class="st3" d="M333.1,182.1l12-10v0v-20v0l-12-10L321,152v0v20v0L333.1,182.1z M333.1,146l9.6,8v16l-9.6,8l-9.6-8v-16
		L333.1,146z"/>
	<polygon class="st1" points="333.1,178 342.7,170 342.7,154 333.1,146 323.5,154 323.5,170 	"/>
	<path class="st0" d="M357.3,187.8l31,25.8l31-25.8v-51.6l-31-25.8l-31,25.8V187.8z M410.8,180.6l-22.4,18.6L366,180.6v0v-37.2
		l22.4-18.6l22.4,18.6V180.6z"/>
	<polygon class="st1" points="388.4,189.6 404.9,175.8 404.9,148.2 388.4,134.4 371.8,148.2 371.8,148.2 371.8,175.8 	"/>
	<path class="st0" d="M246.8,136.2v51.6l31,25.8l31-25.8v-51.6l-31-25.8L246.8,136.2z M255.4,180.6L255.4,180.6v-37.2l22.4-18.6
		l22.4,18.6v37.2v0l-22.4,18.6L255.4,180.6z"/>
	<path class="st2" d="M300.2,180.6L300.2,180.6v-37.2l-22.4-18.6l-22.4,18.6v37.2v0l22.4,18.6L300.2,180.6z M277.8,134.4l16.6,13.8
		v0v27.6l-16.6,13.8l-16.6-13.8v-27.6v0L277.8,134.4z"/>
	<polygon class="st0" points="261.2,148.2 261.2,175.8 277.8,189.6 294.4,175.8 294.4,148.2 294.4,148.2 277.8,134.4 261.2,148.2 	
		"/>
	<path class="st0" d="M307,220.1l-4.9,4v51.6l31,25.8l31-25.8v-51.6l-4.9-4h-0.1l-26.2-21.8L307,220.1L307,220.1z M355.5,231.3v37.2
		l-22.4,18.6l-22.4-18.6v-37.2l13.5-11.2h0l8.9-7.4l8.9,7.4h0.1L355.5,231.3z"/>
	<path class="st2" d="M222.4,212.6l-9,7.5h0L200,231.1v0v37.2l22.4,18.6l22.4-18.6v-37.2v0l-13.3-11.1h0L222.4,212.6z M205.8,236
		l16.6-13.8L239,236v0v27.6l-16.6,13.8l-16.6-13.8V236z"/>
	<polygon class="st0" points="1.3,198.2 0,199.2 0,213.6 1.3,212.6 10.3,220.1 10.4,220.1 23.7,231.1 23.7,268.4 1.3,287 0,285.9 
		0,300.3 1.3,301.4 32.3,275.6 32.3,223.9 27.6,220.1 27.6,220.1 	"/>
	<path class="st1" d="M240.4,177L240.4,177v-29.9l-17.9-14.9l-17.9,14.9V177l17.9,14.9L240.4,177z M210.4,172v-20l12.1-10l12,10v20
		v0l-12,10L210.4,172L210.4,172z"/>
	<path class="st2" d="M234.5,172.1L234.5,172.1V152l-12-10l-12.1,10v20v0l12.1,10L234.5,172.1z M212.8,170v-15.9l9.6-8l9.6,8V170v0
		l-9.6,8L212.8,170L212.8,170z"/>
	<polygon class="st3" points="232,170 232,170 232,154.1 222.4,146.1 212.8,154.1 212.8,170 212.8,170 222.4,178 	"/>
	<path class="st1" d="M93.9,177l17.9,14.9l17.9-14.9v-29.9l-17.9-14.9l-17.9,14.9V177z M123.9,172.1l-12.1,10l-12-10V152l12-10
		l12.1,10V172.1z"/>
	<path class="st3" d="M111.9,142l-12,10v20.1l12,10l12.1-10V152L111.9,142z M121.5,170l-9.6,8l-9.6-8v-15.9l9.6-8l9.6,8V170z"/>
	<polygon class="st1" points="111.9,146.1 102.3,154.1 102.3,170 111.9,178 121.5,170 121.5,154.1 	"/>
	<path class="st0" d="M136.1,136.2v51.6l31,25.8l31-25.8v0v-51.6l-31-25.8L136.1,136.2z M144.8,180.7L144.8,180.7v-37.2l22.4-18.6
		l22.4,18.6v37.2l-22.4,18.6L144.8,180.7z"/>
	<path class="st2" d="M189.5,180.7v-37.2l-22.4-18.6l-22.4,18.6v37.2v0l22.4,18.6L189.5,180.7z M167.1,134.5l16.6,13.8v27.6v0
		l-16.6,13.8l-16.6-13.8v0v-27.6L167.1,134.5z"/>
	<polygon class="st1" points="150.6,175.8 167.1,189.6 183.7,175.8 183.7,175.8 183.7,148.2 167.1,134.5 150.6,148.2 150.6,175.8 	
		"/>
	<path class="st0" d="M25.5,187.8L25.5,187.8l31,25.8l31-25.8v-51.6l-31-25.8l-31,25.8V187.8z M34.2,180.6v-37.2l22.4-18.6L79,143.4
		v37.2v0l-22.4,18.6L34.2,180.6L34.2,180.6z"/>
	<path class="st2" d="M79,180.7L79,180.7v-37.2l-22.4-18.6l-22.4,18.6v37.2v0l22.4,18.6L79,180.7z M73.2,175.8l-16.6,13.8L40,175.8
		v-27.6l16.6-13.8l16.6,13.8V175.8z"/>
	<polygon class="st0" points="56.6,134.5 40,148.2 40,175.8 56.6,189.6 73.2,175.8 73.2,148.2 	"/>
	<polygon class="st1" points="1.3,132.2 0,133.3 0,143.1 1.3,142 13.3,152 13.3,172 13.3,172.1 1.3,182.1 0,181 0,190.8 1.3,191.9 
		19.2,177 19.2,147.1 	"/>
	<polygon class="st2" points="13.3,172.1 13.3,172 13.3,152 1.3,142 0,143.1 0,147.2 1.3,146.1 10.9,154.1 10.9,170 1.3,178 
		0,176.9 0,181 1.3,182.1 	"/>
	<polygon class="st3" points="10.9,170 10.9,154.1 1.3,146.1 0,147.2 0,176.9 1.3,178 	"/>
	<path class="st1" d="M149.2,234.8L149.2,234.8v29.9l17.9,14.9l17.9-14.9v-29.9l-17.7-14.8h0l-0.2-0.1l-0.2,0.1h0L149.2,234.8z
		 M155.1,239.7l12.1-10l12.1,10v20l-12.1,10l-12.1-10V239.7z"/>
	<path class="st2" d="M167.1,269.8l12.1-10v-20l-12.1-10l-12.1,10v20L167.1,269.8z M157.6,241.8l9.6-8l9.6,8v16l-9.6,8l-9.6-8V241.8
		z"/>
	<polygon class="st3" points="167.1,265.7 176.7,257.7 176.7,241.8 167.1,233.8 157.6,241.8 157.6,257.7 	"/>
	<path class="st0" d="M191.4,223.9L191.4,223.9v51.6l31,25.8l31-25.8V224v0l-4.7-3.9h0l-26.3-21.9l-26.3,21.9h0L191.4,223.9z
		 M244.8,231.1L244.8,231.1v37.2L222.4,287L200,268.4v-37.2v0l13.3-11.1h0l9-7.5l9,7.5h0L244.8,231.1z"/>
	<polygon class="st0" points="222.4,277.3 239,263.5 239,236 239,236 222.4,222.2 205.8,236 205.8,263.5 	"/>
	<path class="st1" d="M38.6,234.8L38.6,234.8v29.9l17.9,14.9l17.9-14.9v-29.9l-17.7-14.8h0l-0.2-0.1l-0.2,0.1h0L38.6,234.8z
		 M68.6,239.8v20l-12.1,10l-12.1-10v-20v0l12.1-10L68.6,239.8L68.6,239.8z"/>
	<path class="st3" d="M44.5,239.7L44.5,239.7v20l12.1,10l12.1-10v-20v0l-12.1-10L44.5,239.7z M66.2,241.8v15.9l-9.6,8l-9.6-8v-15.9
		v0l9.6-8L66.2,241.8L66.2,241.8z"/>
	<polygon class="st1" points="47,241.8 47,241.8 47,257.7 56.6,265.7 66.2,257.7 66.2,241.8 66.2,241.8 56.6,233.8 	"/>
	<path class="st0" d="M80.8,223.9v51.6l31,25.8l31-25.8v-51.6l-4.7-3.9h0l-26.3-21.9l-26.3,21.9h0L80.8,223.9z M111.9,212.6l9,7.5h0
		l13.3,11.1v37.2L111.9,287l-22.4-18.6v-37.2l13.3-11.1h0L111.9,212.6z"/>
	<path class="st2" d="M89.5,231.1v37.2l22.4,18.6l22.4-18.6v-37.2l-13.3-11.1h0l-9-7.5l-9,7.5h0L89.5,231.1z M128.4,236v27.6
		l-16.6,13.8l-16.6-13.8V236v0l16.6-13.8L128.4,236L128.4,236z"/>
	<polygon class="st1" points="95.3,236 95.3,236 95.3,263.5 111.9,277.3 128.4,263.5 128.4,236 128.4,236 111.9,222.2 	"/>
	<polygon class="st2" points="23.7,268.4 23.7,231.1 10.4,220.1 10.3,220.1 1.3,212.6 0,213.6 0,223.2 1.3,222.2 17.9,236 
		17.9,263.5 1.3,277.3 0,276.3 0,285.9 1.3,287 	"/>
	<polygon class="st0" points="17.9,263.5 17.9,236 1.3,222.2 0,223.2 0,276.3 1.3,277.3 	"/>
	<path class="st1" d="M185.1,440.2v-29.9l-17.9-14.9l-17.9,14.9v29.9l17.9,14.9L185.1,440.2z M155.1,435.3v-20l12.1-10l12.1,10v20
		l-12.1,10L155.1,435.3z"/>
	<path class="st3" d="M179.3,435.3v-20l-12.1-10l-12.1,10v20l12.1,10L179.3,435.3z M157.6,433.2v-16l9.6-8l9.6,8v16l-9.6,8
		L157.6,433.2z"/>
	<polygon class="st1" points="176.8,433.2 176.8,417.3 167.2,409.3 157.6,417.3 157.6,433.2 167.2,441.2 	"/>
	<path class="st0" d="M253.5,451v-51.6l-31-25.8l-31,25.8V451l31,25.8L253.5,451z M200.1,443.9v-37.2l22.4-18.6l22.4,18.6v37.2
		l-22.4,18.6L200.1,443.9z"/>
	<path class="st2" d="M244.9,443.9v-37.2L222.5,388l-22.4,18.6v37.2l22.4,18.6L244.9,443.9z M205.9,439v-27.6l16.6-13.8l16.6,13.8
		V439l-16.6,13.8L205.9,439z"/>
	<polygon class="st1" points="239.1,439 239.1,411.4 222.5,397.7 205.9,411.4 205.9,439 222.5,452.8 	"/>
	<path class="st1" d="M74.6,440.2v-29.9l-17.9-14.9l-17.9,14.9v29.9l17.9,14.9L74.6,440.2z M44.6,415.2l12.1-10l12.1,10v20l-12.1,10
		l-12.1-10V415.2z"/>
	<path class="st2" d="M56.6,445.3l12.1-10v-20l-12.1-10l-12.1,10v20L56.6,445.3z M47,417.3l9.6-8l9.6,8v16l-9.6,8l-9.6-8V417.3z"/>
	<polygon class="st3" points="56.6,441.2 66.2,433.2 66.2,417.3 56.6,409.3 47,417.3 47,433.2 	"/>
	<path class="st0" d="M111.9,476.9l31-25.8v-51.6l-31-25.8l-31,25.8V451L111.9,476.9z M89.5,406.6l22.4-18.6l22.4,18.6v37.2
		l-22.4,18.6l-22.4-18.6V406.6z"/>
	<path class="st2" d="M111.9,462.5l22.4-18.6v-37.2L111.9,388l-22.4,18.6v37.2L111.9,462.5z M95.3,411.4l16.6-13.8l16.6,13.8V439
		l-16.6,13.8L95.3,439V411.4z"/>
	<polygon class="st0" points="111.9,452.8 128.5,439 128.5,411.4 111.9,397.7 95.3,411.4 95.3,439 	"/>
	<polygon class="st0" points="32.4,399.4 1.3,373.6 0,374.7 0,389.1 1.3,388 23.7,406.6 23.7,443.9 1.3,462.5 0,461.4 0,475.7 
		1.3,476.9 32.4,451 	"/>
	<polygon class="st2" points="1.3,462.5 23.7,443.9 23.7,406.6 1.3,388 0,389.1 0,398.8 1.3,397.7 17.9,411.4 17.9,439 1.3,452.8 
		0,451.7 0,461.4 	"/>
	<polygon class="st1" points="1.3,452.8 17.9,439 17.9,411.4 1.3,397.7 0,398.8 0,451.7 	"/>
	<path class="st1" d="M204.5,322.6v29.9l17.9,14.9l17.9-14.9v-29.9l-17.9-14.9L204.5,322.6z M234.5,327.5v20.1l-12.1,10l-12.1-10
		v-20.1l12.1-10L234.5,327.5z"/>
	<path class="st3" d="M210.4,327.5v20.1l12.1,10l12.1-10v-20.1l-12.1-10L210.4,327.5z M232.1,345.5l-9.6,8l-9.6-8v-16l9.6-8l9.6,8
		V345.5z"/>
	<polygon class="st1" points="212.9,329.5 212.9,345.5 222.5,353.5 232.1,345.5 232.1,329.5 222.5,321.5 	"/>
	<path class="st1" d="M129.9,352.4v-29.9l-17.9-14.9L94,322.6v29.9l17.9,14.9L129.9,352.4z M99.9,327.5l12.1-10l12,10v20.1l-12,10
		l-12.1-10V327.5z"/>
	<path class="st2" d="M111.9,357.6l12-10v-20.1l-12-10l-12.1,10v20.1L111.9,357.6z M102.3,329.5l9.6-8l9.6,8v16l-9.6,8l-9.6-8V329.5
		z"/>
	<polygon class="st3" points="111.9,353.5 121.5,345.5 121.5,329.5 111.9,321.5 102.3,329.5 102.3,345.5 	"/>
	<path class="st0" d="M136.2,311.7v51.6l31,25.8l31-25.8v-51.6l-31-25.8L136.2,311.7z M189.6,356.1l-22.4,18.6l-22.4-18.6v-37.2
		l22.4-18.6l22.4,18.6V356.1z"/>
	<path class="st2" d="M144.8,318.9v37.2l22.4,18.6l22.4-18.6v-37.2l-22.4-18.6L144.8,318.9z M183.8,351.3l-16.6,13.8l-16.6-13.8
		v-27.6l16.6-13.8l16.6,13.8V351.3z"/>
	<polygon class="st0" points="150.6,323.7 150.6,351.3 167.2,365.1 183.8,351.3 183.8,323.7 167.2,309.9 	"/>
	<path class="st0" d="M87.6,311.7l-31-25.8l-31,25.8v51.6l31,25.8l31-25.8V311.7z M34.2,318.9l22.4-18.6L79,318.9v37.2l-22.4,18.6
		l-22.4-18.6V318.9z"/>
	<path class="st2" d="M56.6,374.7L79,356.1v-37.2l-22.4-18.6l-22.4,18.6v37.2L56.6,374.7z M40,323.7l16.6-13.8l16.6,13.8v27.6
		l-16.6,13.8L40,351.3V323.7z"/>
	<polygon class="st1" points="56.6,365.1 73.2,351.3 73.2,323.7 56.6,309.9 40,323.7 40,351.3 	"/>
	<polygon class="st1" points="0,308.7 0,318.5 1.3,317.4 13.3,327.5 13.3,327.5 13.3,347.5 1.3,357.6 0,356.5 0,366.3 1.3,367.4 
		19.2,352.4 19.2,322.6 1.3,307.6 	"/>
	<polygon class="st3" points="13.3,347.5 13.3,327.5 13.3,327.5 1.3,317.4 0,318.5 0,322.6 1.3,321.5 10.9,329.5 10.9,345.5 
		1.3,353.5 0,352.4 0,356.5 1.3,357.6 	"/>
	<polygon class="st1" points="10.9,345.5 10.9,329.5 1.3,321.5 0,322.6 0,352.4 1.3,353.5 	"/>
	<path class="st1" d="M351,352.7v-29.8l-17.9-14.9l-17.9,14.9v29.6v0.2l17.9,14.9L351,352.7z M321,347.5v-19.8l12.1-10l12,10v19.8
		v0.2l-12,10l-12.1-10V347.5z"/>
	<path class="st2" d="M333.1,357.8l12-10v-0.2v-19.8l-12-10l-12.1,10v19.8v0.2L333.1,357.8z M323.5,345.5v-15.7l9.6-8l9.6,8v15.7
		v0.2l-9.6,8l-9.6-8V345.5z"/>
	<polygon class="st3" points="333.1,353.7 342.7,345.7 342.7,345.5 342.7,329.8 333.1,321.8 323.5,329.8 323.5,345.5 323.5,345.7 	
		"/>
	<path class="st2" d="M388.4,375L388.4,375L388.4,375l22.4-18.6v-0.2v-37l-22.4-18.6v0l0,0L366,319.1v37v0.2L388.4,375z
		 M371.8,323.9l16.6-13.8l0,0v0l16.6,13.8v27.6l-16.6,13.8v0l0,0l-16.6-13.8V323.9z"/>
	<polygon class="st0" points="388.4,365.3 388.4,365.3 388.4,365.3 404.9,351.5 404.9,323.9 388.4,310.2 388.4,310.2 388.4,310.1 
		371.8,323.9 371.8,351.5 	"/>
	<path class="st0" d="M308.8,311.9l-31-25.8l-31,25.8v51.4v0.2l31,25.8l31-25.8V311.9z M277.8,300.5l22.4,18.6v37v0.2L277.8,375
		l-22.4-18.6v-37.2L277.8,300.5z"/>
	<path class="st2" d="M255.4,356.4l22.4,18.6l22.4-18.6v-0.2v-37l-22.4-18.6l-22.4,18.6V356.4z M261.2,351.5v-0.2v-27.4l16.6-13.8
		l16.6,13.8v27.4v0.2l-16.6,13.8L261.2,351.5z"/>
	<polygon class="st1" points="294.4,351.3 294.4,323.9 277.8,310.1 261.2,323.9 261.2,351.3 261.2,351.5 277.8,365.3 294.4,351.5 	
		"/>
	<path class="st1" d="M370.4,235v29.8l17.9,14.9v0l17.9-14.9V235l-17.9-14.9v0L370.4,235z M376.3,260L376.3,260v-20.1l12.1-10v0
		l12.1,10v20v0l-12.1,10v0L376.3,260z"/>
	<path class="st1" d="M259.8,235v29.8l17.9,14.9l17.9-14.9V235l-17.9-14.9L259.8,235z M277.8,270l-12-10v0v-20l12-10l12.1,10v20v0
		L277.8,270z"/>
	<path class="st3" d="M289.8,259.9v-20l-12.1-10l-12,10v20v0l12,10L289.8,259.9L289.8,259.9z M287.4,241.9v16l-9.6,8l-9.6-8v-16v0
		l9.6-8L287.4,241.9L287.4,241.9z"/>
	<polygon class="st1" points="277.8,234 268.2,241.9 268.2,241.9 268.2,257.9 277.8,265.9 287.4,257.9 287.4,241.9 287.4,241.9 	"/>
	<path class="st2" d="M341.9,220.1l-8.9-7.4l-8.9,7.4h0l-13.5,11.2v37.2l22.4,18.6l22.4-18.6v-37.2L341.9,220.1L341.9,220.1z
		 M316.6,263.7v-27.6l16.6-13.8l16.6,13.8v27.6l-16.6,13.8L316.6,263.7z"/>
	<polygon class="st1" points="333.1,277.5 349.7,263.7 349.7,236.1 333.1,222.3 316.6,236.1 316.6,263.7 	"/>
	<path class="st1" d="M295.8,410.4l-17.9-14.9l-17.9,14.9v29.8l17.9,14.9l17.9-14.9V410.4z M277.8,445.3l-12.1-10v-20.1l12.1-10
		l12.1,10v20.1L277.8,445.3z"/>
	<path class="st2" d="M289.9,415.3l-12.1-10l-12.1,10v20.1l12.1,10l12.1-10V415.3z M277.8,409.3l9.6,8v16l-9.6,8l-9.6-8v-16
		L277.8,409.3z"/>
	<polygon class="st3" points="268.2,433.3 277.8,441.2 287.4,433.3 287.4,417.3 277.8,409.3 268.2,417.3 	"/>
	<path class="st0" d="M364.2,399.6v-0.2l-31-25.8l-31,25.8v0.2v51.5l31,25.8l31-25.8V399.6z M333.1,462.5l-22.4-18.6v-37.1v-0.2
		l22.4-18.6l22.4,18.6v0.2v37.1L333.1,462.5z"/>
	<path class="st2" d="M355.5,406.7L333.1,388l-22.4,18.6v0.2v37.1l22.4,18.6l22.4-18.6v-37.1V406.7z M333.1,452.9l-16.6-13.8v-27.4
		v-0.2l16.6-13.8l16.6,13.8v27.6L333.1,452.9z"/>
	<polygon class="st0" points="349.7,411.5 333.1,397.7 316.6,411.5 316.6,411.6 316.6,439.1 333.1,452.9 349.7,439.1 	"/>
	<polygon class="st1" points="333.1,484.7 315.1,499.6 315.1,500 326.4,500 333.1,494.5 339.7,500 351,500 351,499.6 	"/>
	<polygon class="st3" points="333.1,494.5 326.4,500 331.3,500 333.1,498.6 334.8,500 339.7,500 	"/>
	<polygon class="st1" points="331.3,500 334.8,500 333.1,498.6 	"/>
	<polygon class="st1" points="372.6,500 404.1,500 388.4,486.9 	"/>
	<polygon class="st0" points="255.4,500 255.4,495.9 277.8,477.3 300.2,495.9 300.2,500 308.8,500 308.8,488.7 277.8,462.9 
		246.8,488.7 246.8,500 	"/>
	<polygon class="st2" points="277.8,477.3 255.4,495.9 255.4,500 262.1,500 277.8,486.9 293.5,500 300.2,500 300.2,495.9 	"/>
	<polygon class="st0" points="277.8,486.9 262.1,500 293.5,500 	"/>
	<polygon class="st1" points="215.8,500 222.4,494.5 229,500 240.4,500 240.4,499.6 222.4,484.7 204.5,499.6 204.5,500 	"/>
	<polygon class="st2" points="222.4,494.5 215.8,500 220.7,500 222.4,498.6 224.1,500 229,500 	"/>
	<polygon class="st3" points="222.4,498.6 220.7,500 224.1,500 	"/>
	<polygon class="st1" points="105.2,500 111.9,494.5 118.5,500 129.8,500 129.8,499.6 111.9,484.7 93.9,499.6 93.9,500 	"/>
	<polygon class="st3" points="105.2,500 110.2,500 111.9,498.6 113.5,500 118.5,500 111.9,494.5 	"/>
	<polygon class="st1" points="110.2,500 113.5,500 111.9,498.6 	"/>
	<polygon class="st0" points="144.8,500 144.8,495.9 167.1,477.3 189.5,495.9 189.5,500 198.2,500 198.2,488.7 167.1,462.9 
		136.1,488.7 136.1,500 	"/>
	<polygon class="st2" points="167.1,477.3 144.8,495.9 144.8,500 151.5,500 167.1,487 182.8,500 189.5,500 189.5,495.9 	"/>
	<polygon class="st1" points="167.1,487 151.5,500 182.8,500 	"/>
	<polygon class="st0" points="34.2,500 34.2,495.9 56.6,477.3 79,495.9 79,500 87.6,500 87.6,488.7 56.6,462.9 25.5,488.7 25.5,500 
			"/>
	<polygon class="st2" points="56.6,477.3 34.2,495.9 34.2,500 40.9,500 56.6,487 72.3,500 79,500 79,495.9 	"/>
	<polygon class="st0" points="40.9,500 72.3,500 56.6,487 	"/>
	<polygon class="st1" points="1.3,484.7 0,485.8 0,495.6 1.3,494.5 7.9,500 19.2,500 19.2,499.6 	"/>
	<polygon class="st2" points="0,495.6 0,499.7 1.3,498.6 3,500 7.9,500 1.3,494.5 	"/>
	<polygon class="st3" points="0,499.7 0,500 3,500 1.3,498.6 	"/>
</g>
</svg>
