<?xml version="1.0" encoding="utf-8"?>
<!-- Generator: Adobe Illustrator 21.1.0, SVG Export Plug-In . SVG Version: 6.00 Build 0)  -->
<svg version="1.1" id="レイヤー_1" xmlns="http://www.w3.org/2000/svg" xmlns:xlink="http://www.w3.org/1999/xlink" x="0px"
	 y="0px" viewBox="0 0 500 500" style="enable-background:new 0 0 500 500;" xml:space="preserve">
<style type="text/css">
	.st0{fill:#6AC5D9;}
	.st1{fill:#F4F7E1;}
</style>
<g>
	
		<ellipse transform="matrix(0.4226 -0.9063 0.9063 0.4226 48.9849 564.463)" class="st0" cx="467.5" cy="243.8" rx="30.5" ry="30.5"/>
	<path class="st1" d="M500,386c-8.3,4.6-18.5,5.3-27.8,1c-15.2-7.1-21.8-25.2-14.7-40.5s25.2-21.8,40.5-14.7c0.7,0.3,1.4,0.7,2,1V0
		h-39.9c3.5,7.8,3.7,16.9-0.2,25.3c-7.1,15.2-25.2,21.8-40.5,14.7c-15.1-7-21.7-24.9-14.9-40H239.1c6.6,8.7,8.3,20.7,3.4,31.3
		c-7.1,15.2-25.2,21.8-40.5,14.7c-15.2-7.1-21.8-25.2-14.7-40.5c0.9-2,2.1-3.9,3.4-5.6H15.4C26.9,8.4,31.2,24,25,37.4
		C20.2,47.6,10.5,54,0,54.9v58.8c8.3-4.7,18.6-5.4,27.8-1.1c15.2,7.1,21.8,25.2,14.7,40.5S17.3,175,2.1,167.9
		c-0.7-0.3-1.4-0.7-2.1-1.1V500h40.1c-3.6-7.8-3.8-17.1,0.1-25.5c7.1-15.2,25.2-21.8,40.5-14.7c15.2,7.1,21.8,25.1,14.8,40.3h165.8
		c-6.8-8.7-8.6-20.9-3.6-31.6c7.1-15.2,25.2-21.8,40.5-14.7c15.2,7.1,21.8,25.2,14.7,40.5c-1,2.1-2.2,4.1-3.6,5.9h175.8
		c-11.8-8.3-16.3-24.2-10-37.7c4.8-10.2,14.4-16.5,24.9-17.5V386z M215.7,341.4c-1.8,3.8-6.3,5.5-10.1,3.7
		c-3.8-1.8-5.5-6.3-3.7-10.1s6.3-5.5,10.1-3.7C215.9,333,217.5,337.6,215.7,341.4z M77.8,384.5c-7.1,15.2-25.2,21.8-40.5,14.7
		C22,392.1,15.4,374,22.5,358.8c7.1-15.2,25.2-21.8,40.5-14.7C78.3,351.1,84.9,369.3,77.8,384.5z M84.4,280.1
		c1.8-3.8,6.3-5.5,10.1-3.7c3.8,1.8,5.5,6.3,3.7,10.1s-6.3,5.5-10.1,3.7C84.3,288.5,82.7,283.9,84.4,280.1z M105.7,405.9
		c-3.8-1.8-5.5-6.3-3.7-10.1c1.8-3.8,6.3-5.5,10.1-3.7s5.5,6.3,3.7,10.1C114,406.1,109.5,407.7,105.7,405.9z M195.3,439.3
		c-7.1,15.2-25.2,21.8-40.5,14.7c-15.2-7.1-21.8-25.2-14.7-40.5c7.1-15.2,25.2-21.8,40.5-14.7C195.8,406,202.4,424.1,195.3,439.3z
		 M177.7,323.6c-7.1,15.2-25.2,21.8-40.5,14.7c-15.2-7.1-21.8-25.2-14.7-40.5c7.1-15.2,25.2-21.8,40.5-14.7
		C178.2,290.3,184.8,308.4,177.7,323.6z M70.5,174.5c-3.8-1.8-5.5-6.3-3.7-10.1c1.8-3.8,6.3-5.5,10.1-3.7c3.8,1.8,5.5,6.3,3.7,10.1
		C78.8,174.7,74.3,176.3,70.5,174.5z M245.3,106.6c15.2,7.1,21.8,25.2,14.7,40.5c-7.1,15.2-25.2,21.8-40.5,14.7
		c-15.2-7.1-21.8-25.2-14.7-40.5C211.9,106.1,230.1,99.5,245.3,106.6z M377.6,201.9c-7.1,15.2-25.2,21.8-40.5,14.7
		c-15.2-7.1-21.8-25.2-14.7-40.5c7.1-15.2,25.2-21.8,40.5-14.7C378.1,168.5,384.7,186.6,377.6,201.9z M415.6,219.6
		c-1.8,3.8-6.3,5.5-10.1,3.7c-3.8-1.8-5.5-6.3-3.7-10.1c1.8-3.8,6.3-5.5,10.1-3.7S417.4,215.8,415.6,219.6z M429.5,325.2
		c3.8,1.8,5.5,6.3,3.7,10.1c-1.8,3.8-6.3,5.5-10.1,3.7c-3.8-1.8-5.5-6.3-3.7-10.1C421.2,325.1,425.7,323.4,429.5,325.2z
		 M184.4,219.2c1.8-3.8,6.3-5.5,10.1-3.7c3.8,1.8,5.5,6.3,3.7,10.1c-1.8,3.8-6.3,5.5-10.1,3.7C184.2,227.6,182.6,223.1,184.4,219.2z
		 M294.4,154.7c3.8,1.8,5.5,6.3,3.7,10.1s-6.3,5.5-10.1,3.7c-3.8-1.8-5.5-6.3-3.7-10.1S290.6,152.9,294.4,154.7z M312,270.4
		c3.8,1.8,5.5,6.3,3.7,10.1c-1.8,3.8-6.3,5.5-10.1,3.7c-3.8-1.8-5.5-6.3-3.7-10.1S308.2,268.6,312,270.4z M395.2,317.5
		c-7.1,15.2-25.2,21.8-40.5,14.7S332.9,307,340,291.8c7.1-15.2,25.2-21.8,40.5-14.7C395.7,284.2,402.3,302.3,395.2,317.5z
		 M277.6,262.7c-7.1,15.2-25.2,21.8-40.5,14.7c-15.2-7.1-21.8-25.2-14.7-40.5c7.1-15.2,25.2-21.8,40.5-14.7
		C278.1,229.4,284.7,247.5,277.6,262.7z M176.9,99.9c3.8,1.8,5.5,6.3,3.7,10.1c-1.8,3.8-6.3,5.5-10.1,3.7c-3.8-1.8-5.5-6.3-3.7-10.1
		C168.5,99.7,173.1,98.1,176.9,99.9z M160.1,207.9c-7.1,15.2-25.2,21.8-40.5,14.7c-15.2-7.1-21.8-25.2-14.7-40.5
		c7.1-15.2,25.2-21.8,40.5-14.7C160.6,174.6,167.2,192.7,160.1,207.9z M495.1,256.7c-7.1,15.2-25.2,21.8-40.5,14.7
		c-15.2-7.1-21.8-25.2-14.7-40.5c7.1-15.2,25.2-21.8,40.5-14.7C495.6,223.3,502.2,241.4,495.1,256.7z M484.2,36.6
		c1.8-3.8,6.3-5.5,10.1-3.7c3.8,1.8,5.5,6.3,3.7,10.1s-6.3,5.5-10.1,3.7C484.1,44.9,482.4,40.4,484.2,36.6z M422.3,115.2
		c7.1-15.2,25.2-21.8,40.5-14.7c15.2,7.1,21.8,25.2,14.7,40.5c-7.1,15.2-25.2,21.8-40.5,14.7C421.8,148.6,415.2,130.5,422.3,115.2z
		 M398,103.9c-1.8,3.8-6.3,5.5-10.1,3.7c-3.8-1.8-5.5-6.3-3.7-10.1s6.3-5.5,10.1-3.7C398.2,95.6,399.8,100.1,398,103.9z M345.2,45.7
		c15.2,7.1,21.8,25.2,14.7,40.5c-7.1,15.2-25.2,21.8-40.5,14.7c-15.2-7.1-21.8-25.2-14.7-40.5C311.9,45.2,330,38.6,345.2,45.7z
		 M266.7,42.7c1.8-3.8,6.3-5.5,10.1-3.7c3.8,1.8,5.5,6.3,3.7,10.1c-1.8,3.8-6.3,5.5-10.1,3.7S264.9,46.5,266.7,42.7z M127.8,51.8
		c15.2,7.1,21.8,25.2,14.7,40.5c-7.1,15.2-25.2,21.8-40.5,14.7c-15.2-7.1-21.8-25.2-14.7-40.5C94.4,51.2,112.5,44.6,127.8,51.8z
		 M59.3,45.1c3.8,1.8,5.5,6.3,3.7,10.1c-1.8,3.8-6.3,5.5-10.1,3.7s-5.5-6.3-3.7-10.1C51,44.9,55.5,43.3,59.3,45.1z M19.7,283.6
		c-15.2-7.1-21.8-25.2-14.7-40.5c7.1-15.2,25.2-21.8,40.5-14.7c15.2,7.1,21.8,25.2,14.7,40.5C53,284.1,34.9,290.7,19.7,283.6z
		 M15.9,463.1c-1.8,3.8-6.3,5.5-10.1,3.7c-3.8-1.8-5.5-6.3-3.7-10.1s6.3-5.5,10.1-3.7C16,454.8,17.6,459.3,15.9,463.1z M233.3,457.1
		c-1.8,3.8-6.3,5.5-10.1,3.7c-3.8-1.8-5.5-6.3-3.7-10.1c1.8-3.8,6.3-5.5,10.1-3.7C233.5,448.7,235.1,453.3,233.3,457.1z
		 M254.8,393.2c-15.2-7.1-21.8-25.2-14.7-40.5c7.1-15.2,25.2-21.8,40.5-14.7c15.2,7.1,21.8,25.2,14.7,40.5
		C288.1,393.7,270,400.3,254.8,393.2z M319.5,389.8c1.8-3.8,6.3-5.5,10.1-3.7s5.5,6.3,3.7,10.1c-1.8,3.8-6.3,5.5-10.1,3.7
		S317.7,393.6,319.5,389.8z M450.8,451c-1.8,3.8-6.3,5.5-10.1,3.7s-5.5-6.3-3.7-10.1c1.8-3.8,6.3-5.5,10.1-3.7
		S452.6,447.2,450.8,451z M412.8,433.2c-7.1,15.2-25.2,21.8-40.5,14.7c-15.2-7.1-21.8-25.2-14.7-40.5c7.1-15.2,25.2-21.8,40.5-14.7
		C413.3,399.9,419.9,418,412.8,433.2z"/>
	
		<ellipse transform="matrix(0.4226 -0.9063 0.9063 0.4226 -149.5043 660.8763)" class="st0" cx="443.9" cy="447.8" rx="7.6" ry="7.6"/>
	
		<ellipse transform="matrix(0.4226 -0.9063 0.9063 0.4226 -158.5993 591.792)" class="st0" cx="385.2" cy="420.4" rx="30.5" ry="30.5"/>
	<path class="st0" d="M475.1,462.3c-6.3,13.5-1.8,29.3,10,37.7H500v-55.2C489.5,445.8,479.9,452.1,475.1,462.3z"/>
	<path class="st0" d="M457.5,346.6c-7.1,15.2-0.5,33.4,14.7,40.5c9.2,4.3,19.5,3.6,27.8-1v-53.1c-0.7-0.4-1.3-0.7-2-1
		C482.7,324.8,464.6,331.4,457.5,346.6z"/>
	
		<ellipse transform="matrix(0.4226 -0.9063 0.9063 0.4226 39.8893 495.3776)" class="st0" cx="408.7" cy="216.4" rx="7.6" ry="7.6"/>
	
		<ellipse transform="matrix(0.4226 -0.9063 0.9063 0.4226 143.6815 481.7134)" class="st0" cx="449.9" cy="128.1" rx="30.5" ry="30.5"/>
	
		<ellipse transform="matrix(0.4226 -0.9063 0.9063 0.4226 247.4748 468.0497)" class="st0" cx="491.1" cy="39.8" rx="7.6" ry="7.6"/>
	
		<ellipse transform="matrix(0.4226 -0.9063 0.9063 0.4226 -176.7897 453.6219)" class="st0" cx="267.6" cy="365.6" rx="30.5" ry="30.5"/>
	
		<ellipse transform="matrix(0.4226 -0.9063 0.9063 0.4226 -54.8075 578.127)" class="st0" cx="426.3" cy="332.1" rx="7.6" ry="7.6"/>
	
		<ellipse transform="matrix(0.4226 -0.9063 0.9063 0.4226 -63.9025 509.0424)" class="st0" cx="367.6" cy="304.7" rx="30.5" ry="30.5"/>
	
		<ellipse transform="matrix(0.4226 -0.9063 0.9063 0.4226 -280.5818 467.2861)" class="st0" cx="226.5" cy="453.9" rx="7.6" ry="7.6"/>
	<path class="st0" d="M298.1,453.7c-15.2-7.1-33.4-0.5-40.5,14.7c-5,10.7-3.2,22.9,3.6,31.6h48c1.4-1.8,2.6-3.7,3.6-5.9
		C319.9,478.9,313.3,460.8,298.1,453.7z"/>
	
		<ellipse transform="matrix(0.4226 -0.9063 0.9063 0.4226 -167.6942 522.7083)" class="st0" cx="326.4" cy="393" rx="7.6" ry="7.6"/>
	<ellipse transform="matrix(0.4226 -0.9063 0.9063 0.4226 30.7944 426.2931)" class="st0" cx="350" cy="189" rx="30.5" ry="30.5"/>
	
		<ellipse transform="matrix(0.4226 -0.9063 0.9063 0.4226 134.5861 412.6283)" class="st0" cx="391.1" cy="100.7" rx="7.6" ry="7.6"/>
	
		<ellipse transform="matrix(0.4226 -0.9063 0.9063 0.4226 125.4913 343.5437)" class="st0" cx="332.4" cy="73.3" rx="30.5" ry="30.5"/>
	<path class="st0" d="M419.4,40c15.2,7.1,33.4,0.5,40.5-14.7c3.9-8.3,3.7-17.5,0.2-25.3h-55.6C397.7,15.1,404.4,33,419.4,40z"/>
	
		<ellipse transform="matrix(0.4226 -0.9063 0.9063 0.4226 -185.885 384.5368)" class="st0" cx="208.9" cy="338.2" rx="7.6" ry="7.6"/>
	
		<ellipse transform="matrix(0.4226 -0.9063 0.9063 0.4226 -194.9802 315.4521)" class="st0" cx="150.1" cy="310.8" rx="30.5" ry="30.5"/>
	
		<ellipse transform="matrix(0.4226 -0.9063 0.9063 0.4226 -91.1879 301.7885)" class="st0" cx="191.3" cy="222.5" rx="7.6" ry="7.6"/>
	
		<ellipse transform="matrix(0.4226 -0.9063 0.9063 0.4226 -72.9978 439.9572)" class="st0" cx="308.8" cy="277.3" rx="7.6" ry="7.6"/>
	
		<ellipse transform="matrix(0.4226 -0.9063 0.9063 0.4226 -82.0929 370.8727)" class="st0" cx="250" cy="249.9" rx="30.5" ry="30.5"/>
	
		<ellipse transform="matrix(0.4226 -0.9063 0.9063 0.4226 21.6997 357.2089)" class="st0" cx="291.2" cy="161.6" rx="7.6" ry="7.6"/>
	<path class="st0" d="M80.6,459.7c-15.2-7.1-33.4-0.5-40.5,14.7c-3.9,8.4-3.7,17.7-0.1,25.5h55.4C102.4,484.8,95.8,466.8,80.6,459.7
		z"/>
	
		<ellipse transform="matrix(0.4226 -0.9063 0.9063 0.4226 -298.7724 329.1178)" class="st0" cx="108.9" cy="399" rx="7.6" ry="7.6"/>
	
		<ellipse transform="matrix(0.4226 -0.9063 0.9063 0.4226 -289.677 398.2015)" class="st0" cx="167.7" cy="426.5" rx="30.5" ry="30.5"/>
	
		<ellipse transform="matrix(0.4226 -0.9063 0.9063 0.4226 12.6039 288.1232)" class="st0" cx="232.4" cy="134.2" rx="30.5" ry="30.5"/>
	
		<ellipse transform="matrix(0.4226 -0.9063 0.9063 0.4226 116.3958 274.4586)" class="st0" cx="273.6" cy="45.9" rx="7.6" ry="7.6"/>
	<path class="st0" d="M202,46.1c15.2,7.1,33.4,0.5,40.5-14.7c5-10.6,3.2-22.6-3.4-31.3h-48.4c-1.3,1.7-2.4,3.6-3.4,5.6
		C180.1,20.8,186.7,39,202,46.1z"/>
	
		<ellipse transform="matrix(0.4226 -0.9063 0.9063 0.4226 -109.3785 163.6177)" class="st0" cx="73.7" cy="167.7" rx="7.6" ry="7.6"/>
	
		<ellipse transform="matrix(0.4226 -0.9063 0.9063 0.4226 -100.2833 232.7027)" class="st0" cx="132.5" cy="195.1" rx="30.5" ry="30.5"/>
	<ellipse transform="matrix(0.4226 -0.9063 0.9063 0.4226 3.5086 219.0381)" class="st0" cx="173.7" cy="106.8" rx="7.6" ry="7.6"/>
	<ellipse transform="matrix(0.4226 -0.9063 0.9063 0.4226 -411.6593 273.6959)" class="st0" cx="9" cy="459.9" rx="7.6" ry="7.6"/>
	
		<ellipse transform="matrix(0.4226 -0.9063 0.9063 0.4226 -307.8674 260.0316)" class="st0" cx="50.2" cy="371.6" rx="30.5" ry="30.5"/>
	
		<ellipse transform="matrix(0.4226 -0.9063 0.9063 0.4226 -204.0755 246.3681)" class="st0" cx="91.3" cy="283.4" rx="7.6" ry="7.6"/>
	
		<ellipse transform="matrix(0.4226 -0.9063 0.9063 0.4226 -213.1706 177.2823)" class="st0" cx="32.6" cy="255.9" rx="30.5" ry="30.5"/>
	
		<ellipse transform="matrix(0.4226 -0.9063 0.9063 0.4226 -5.5865 149.9534)" class="st0" cx="114.9" cy="79.4" rx="30.5" ry="30.5"/>
	<path class="st0" d="M42.6,153.1c7.1-15.2,0.5-33.4-14.7-40.5c-9.3-4.3-19.6-3.6-27.8,1.1v53.1c0.7,0.4,1.4,0.7,2.1,1.1
		C17.3,175,35.5,168.4,42.6,153.1z"/>
	<ellipse transform="matrix(0.4226 -0.9063 0.9063 0.4226 -14.6817 80.8684)" class="st0" cx="56.1" cy="52" rx="7.6" ry="7.6"/>
	<path class="st0" d="M25,37.4C31.2,24,26.9,8.4,15.4,0H0v54.9C10.5,54,20.2,47.6,25,37.4z"/>
</g>
</svg>
