<?xml version="1.0" encoding="utf-8"?>
<!-- Generator: Adobe Illustrator 21.1.0, SVG Export Plug-In . SVG Version: 6.00 Build 0)  -->
<svg version="1.1" id="レイヤー_1" xmlns="http://www.w3.org/2000/svg" xmlns:xlink="http://www.w3.org/1999/xlink" x="0px"
	 y="0px" viewBox="0 0 500 500" style="enable-background:new 0 0 500 500;" xml:space="preserve">
<style type="text/css">
	.st0{fill:#4BBAB4;}
</style>
<g>
	<path class="st0" d="M448,4.8c2.1,21.1,20,30.2,38.3,24.3c7.2-2.3,11.3-6.9,13.7-11.5V0h-53C447.4,1.4,447.8,3,448,4.8z"/>
	<path class="st0" d="M419.1,0h-0.4C418.9,0,419,0,419.1,0z"/>
	<path class="st0" d="M416.9,66.3c0,2,5.2,3.7,12,4c-4.6,17.8-3.6,51.9,41.1,46.5c13.3-1.6,23-5.7,30-11V75.9
		c-6.6,1.1-13.1-1.3-14.2-12.6c-2.1-21.1-20-30.2-38.3-24.3c-14.1,4.6-16.5,17.5-16.8,23.2C423,62.4,416.9,64.1,416.9,66.3z"/>
	<path class="st0" d="M357.1,37.8c-53.5,6.4-49.2,54.2-44,48.2c5.3-6,26-15.8,28.1,5.3c2.1,21.1,20,30.2,38.3,24.3
		c14.1-4.6,16.5-17.5,16.8-23.2c7.7-0.1,13.8-1.9,13.8-4c0-2-5.2-3.7-12-4C402.8,66.4,401.8,32.4,357.1,37.8z"/>
	<path class="st0" d="M419.8,172.4c5.3-6,26-15.8,28.1,5.3c2.1,21.1,20,30.2,38.3,24.3c7.2-2.3,11.3-6.9,13.7-11.5v-56
		c-6.1-7.7-17.2-12.5-36.2-10.2C410.3,130.6,414.5,178.3,419.8,172.4z"/>
	<path class="st0" d="M463.8,297c-53.5,6.4-49.2,54.2-44,48.2c5.3-6,26-15.8,28.1,5.3c2.1,21.1,20,30.2,38.3,24.3
		c7.2-2.3,11.3-6.9,13.7-11.5v-56C493.9,299.6,482.8,294.7,463.8,297z"/>
	<path class="st0" d="M470,289.6c13.3-1.6,23-5.7,30-11v-29.9c-6.6,1.1-13.1-1.3-14.2-12.6c-2.1-21.1-20-30.2-38.3-24.3
		c-14.1,4.6-16.5,17.5-16.8,23.2c-7.7,0.1-13.8,1.9-13.8,4c0,2,5.2,3.7,12,4C424.3,261,425.3,295,470,289.6z"/>
	<path class="st0" d="M407.3,327.8c-5.3,6-26,15.8-28.1-5.3c-2.1-21.1-20-30.2-38.3-24.3c-14.1,4.6-16.5,17.5-16.8,23.2
		c-7.7,0.1-13.8,1.9-13.8,4c0,2,5.2,3.7,12,4c-4.6,17.8-3.6,51.9,41.1,46.5C416.8,369.5,412.5,321.8,407.3,327.8z"/>
	<path class="st0" d="M410.2,261.1c0-2-5.2-3.7-12-4c4.6-17.8,3.6-51.9-41.1-46.5c-53.5,6.4-49.2,54.2-44,48.2
		c5.3-6,26-15.8,28.1,5.3c2.1,21.1,20,30.2,38.3,24.3c14.1-4.6,16.5-17.5,16.8-23.2C404.1,265.1,410.2,263.3,410.2,261.1z"/>
	<path class="st0" d="M500,480.1c-6.1-7.7-17.2-12.5-36.2-10.2c-27.8,3.3-40,17.8-44.5,30.1H500V480.1z"/>
	<path class="st0" d="M470,462.5c13.3-1.6,23-5.7,30-11v-29.9c-6.6,1.1-13.1-1.3-14.2-12.6c-2.1-21.1-20-30.2-38.3-24.3
		c-14.1,4.6-16.5,17.5-16.8,23.2c-7.7,0.1-13.8,1.9-13.8,4c0,2,5.2,3.7,12,4C424.3,433.9,425.3,467.9,470,462.5z"/>
	<path class="st0" d="M380,500c-0.4-1.3-0.7-2.9-0.9-4.6c-2.1-21.1-20-30.2-38.3-24.3c-14.1,4.6-16.5,17.5-16.8,23.2
		c-7.7,0.1-13.8,1.9-13.8,4c0,0.6,0.4,1.1,1.2,1.6H380z"/>
	<path class="st0" d="M357.1,383.5c-53.5,6.4-49.2,54.2-44,48.2c5.3-6,26-15.8,28.1,5.3s20,30.2,38.3,24.3
		c14.1-4.6,16.5-17.5,16.8-23.2c7.7-0.1,13.8-1.9,13.8-4c0-2-5.2-3.7-12-4C402.8,412.2,401.8,378.1,357.1,383.5z"/>
	<path class="st0" d="M363.3,30.3c27.9-3.4,40.1-17.9,44.6-30.3h-87.5C321.1,16.7,330.2,34.3,363.3,30.3z"/>
	<path class="st0" d="M202.6,0h-0.4C202.3,0,202.4,0,202.6,0z"/>
	<path class="st0" d="M231.4,4.8c2.1,21.1,20,30.2,38.3,24.3c14.1-4.6,16.5-17.5,16.8-23.2c7.7-0.1,13.8-1.9,13.8-4
		c0-0.6-0.5-1.3-1.5-1.8h-68.4C230.9,1.4,231.2,3,231.4,4.8z"/>
	<path class="st0" d="M200.3,66.3c0,2,5.2,3.7,12,4c-4.6,17.8-3.6,51.9,41.1,46.5c53.5-6.4,49.2-54.2,44-48.2
		c-5.3,6-26,15.8-28.1-5.3s-20-30.2-38.3-24.3c-14.1,4.6-16.5,17.5-16.8,23.2C206.4,62.4,200.3,64.1,200.3,66.3z"/>
	<path class="st0" d="M140.6,37.8C87.1,44.3,91.3,92,96.6,86c5.3-6,26-15.8,28.1,5.3c2.1,21.1,20,30.2,38.3,24.3
		c14.1-4.6,16.5-17.5,16.8-23.2c7.7-0.1,13.8-1.9,13.8-4c0-2-5.2-3.7-12-4C186.2,66.4,185.2,32.4,140.6,37.8z"/>
	<path class="st0" d="M363.3,203.1c53.5-6.4,49.2-54.2,44-48.2c-5.3,6-26,15.8-28.1-5.3c-2.1-21.1-20-30.2-38.3-24.3
		c-14.1,4.6-16.5,17.5-16.8,23.2c-7.7,0.1-13.8,1.9-13.8,4c0,2,5.2,3.7,12,4C317.6,174.5,318.6,208.5,363.3,203.1z"/>
	<path class="st0" d="M203.3,172.4c5.3-6,26-15.8,28.1,5.3c2.1,21.1,20,30.2,38.3,24.3c14.1-4.6,16.5-17.5,16.8-23.2
		c7.7-0.1,13.8-1.9,13.8-4c0-2-5.2-3.7-12-4c4.6-17.8,3.6-51.9-41.1-46.5C193.8,130.6,198,178.3,203.3,172.4z"/>
	<path class="st0" d="M247.2,297c-53.5,6.4-49.2,54.2-44,48.2c5.3-6,26-15.8,28.1,5.3c2.1,21.1,20,30.2,38.3,24.3
		c14.1-4.6,16.5-17.5,16.8-23.2c7.7-0.1,13.8-1.9,13.8-4c0-2-5.2-3.7-12-4C292.9,325.7,291.9,291.6,247.2,297z"/>
	<path class="st0" d="M253.4,289.6c53.5-6.4,49.2-54.2,44-48.2c-5.3,6-26,15.8-28.1-5.3c-2.1-21.1-20-30.2-38.3-24.3
		c-14.1,4.6-16.5,17.5-16.8,23.2c-7.7,0.1-13.8,1.9-13.8,4c0,2,5.2,3.7,12,4C207.8,261,208.7,295,253.4,289.6z"/>
	<path class="st0" d="M190.7,327.8c-5.3,6-26,15.8-28.1-5.3c-2.1-21.1-20-30.2-38.3-24.3c-14.1,4.6-16.5,17.5-16.8,23.2
		c-7.7,0.1-13.8,1.9-13.8,4c0,2,5.2,3.7,12,4c-4.6,17.8-3.6,51.9,41.1,46.5C200.2,369.5,196,321.8,190.7,327.8z"/>
	<path class="st0" d="M193.7,261.1c0-2-5.2-3.7-12-4c4.6-17.8,3.6-51.9-41.1-46.5c-53.5,6.4-49.2,54.2-44,48.2
		c5.3-6,26-15.8,28.1,5.3c2.1,21.1,20,30.2,38.3,24.3c14.1-4.6,16.5-17.5,16.8-23.2C187.6,265.1,193.7,263.3,193.7,261.1z"/>
	<path class="st0" d="M247.2,469.9c-27.8,3.3-40,17.8-44.5,30.1h87.4C289.4,483.4,280.2,465.9,247.2,469.9z"/>
	<path class="st0" d="M253.4,462.5c53.5-6.4,49.2-54.2,44-48.2c-5.3,6-26,15.8-28.1-5.3c-2.1-21.1-20-30.2-38.3-24.3
		c-14.1,4.6-16.5,17.5-16.8,23.2c-7.7,0.1-13.8,1.9-13.8,4c0,2,5.2,3.7,12,4C207.8,433.9,208.7,467.9,253.4,462.5z"/>
	<path class="st0" d="M163.5,500c-0.4-1.3-0.7-2.9-0.9-4.6c-2.1-21.1-20-30.2-38.3-24.3c-14.1,4.6-16.5,17.5-16.8,23.2
		c-7.7,0.1-13.8,1.9-13.8,4c0,0.6,0.4,1.1,1.2,1.6H163.5z"/>
	<path class="st0" d="M140.6,383.5c-53.5,6.4-49.2,54.2-44,48.2c5.3-6,26-15.8,28.1,5.3s20,30.2,38.3,24.3
		c14.1-4.6,16.5-17.5,16.8-23.2c7.7-0.1,13.8-1.9,13.8-4c0-2-5.2-3.7-12-4C186.2,412.2,185.2,378.1,140.6,383.5z"/>
	<path class="st0" d="M146.8,30.3c27.9-3.4,40.1-17.9,44.6-30.3h-87.5C104.5,16.7,113.7,34.3,146.8,30.3z"/>
	<path class="st0" d="M14.9,4.8C17,25.9,34.9,35,53.2,29.1C67.3,24.5,69.7,11.6,70,5.8c7.7-0.1,13.8-1.9,13.8-4
		c0-0.6-0.5-1.3-1.5-1.8H13.9C14.4,1.4,14.7,3,14.9,4.8z"/>
	<path class="st0" d="M36.9,116.8c53.5-6.4,49.2-54.2,44-48.2c-5.3,6-26,15.8-28.1-5.3S32.7,33.1,14.4,39C6.5,41.6,2.2,46.8,0,51.9
		v53.8C6,113.9,17.2,119.1,36.9,116.8z"/>
	<path class="st0" d="M146.8,203.1c53.5-6.4,49.2-54.2,44-48.2c-5.3,6-26,15.8-28.1-5.3c-2.1-21.1-20-30.2-38.3-24.3
		c-14.1,4.6-16.5,17.5-16.8,23.2c-7.7,0.1-13.8,1.9-13.8,4c0,2,5.2,3.7,12,4C101.1,174.5,102.1,208.5,146.8,203.1z"/>
	<path class="st0" d="M14.9,177.6c2.1,21.1,20,30.2,38.3,24.3c14.1-4.6,16.5-17.5,16.8-23.2c7.7-0.1,13.8-1.9,13.8-4
		c0-2-5.2-3.7-12-4c4.6-17.8,3.6-51.9-41.1-46.5c-13.7,1.7-23.6,6-30.7,11.5v29.5C6.8,163.8,13.7,166,14.9,177.6z"/>
	<path class="st0" d="M30.7,297c-13.7,1.7-23.6,6-30.7,11.5V338c6.8-1.4,13.7,0.8,14.9,12.5c2.1,21.1,20,30.2,38.3,24.3
		c14.1-4.6,16.5-17.5,16.8-23.2c7.7-0.1,13.8-1.9,13.8-4c0-2-5.2-3.7-12-4C76.4,325.7,75.4,291.6,30.7,297z"/>
	<path class="st0" d="M36.9,289.6c53.5-6.4,49.2-54.2,44-48.2c-5.3,6-26,15.8-28.1-5.3c-2.1-21.1-20-30.2-38.3-24.3
		c-7.9,2.6-12.1,7.8-14.4,12.9v53.8C6,286.7,17.2,292,36.9,289.6z"/>
	<path class="st0" d="M30.7,469.9c-13.7,1.7-23.6,6-30.7,11.5V500h73.5C72.8,483.4,63.7,465.9,30.7,469.9z"/>
	<path class="st0" d="M36.9,462.5c53.5-6.4,49.2-54.2,44-48.2c-5.3,6-26,15.8-28.1-5.3c-2.1-21.1-20-30.2-38.3-24.3
		c-7.9,2.6-12.1,7.8-14.4,12.9v53.8C6,459.6,17.2,464.9,36.9,462.5z"/>
</g>
</svg>
