<?xml version="1.0" encoding="utf-8"?>
<!-- Generator: Adobe Illustrator 21.1.0, SVG Export Plug-In . SVG Version: 6.00 Build 0)  -->
<svg version="1.1" id="レイヤー_1" xmlns="http://www.w3.org/2000/svg" xmlns:xlink="http://www.w3.org/1999/xlink" x="0px"
	 y="0px" viewBox="0 0 500 500" style="enable-background:new 0 0 500 500;" xml:space="preserve">
<style type="text/css">
	.st0{fill:#5C77B9;}
	.st1{fill:#63C3D4;}
	.st2{fill:#304C9E;}
</style>
<g>
	<path class="st0" d="M496.2,0H474c-1.5,2.5-1.5,6.7,2.4,8.4c4.1,1.9,1,3.3-1.3,2.7c-1.3-0.3-23.7-4.9-27-2.7c-2.4,1.6,0.4,4,0.4,4
		c6.3,4.2,19.8,7.8,19.8,7.8s0.7,0.2,0.8-0.1c0.2-0.4,4.1-2.5,4.1-2.5c8.4-3.1,21.8-2.9,21.8-2.9s1-0.1-0.6-1s-2.5-3.7-2.5-3.7
		C490.8,6.1,493.3,2.6,496.2,0z"/>
	<path class="st1" d="M500,14.1V4.3c-2.6,2.8-3,4.9-2.6,6.4C497.6,11.5,498.9,13,500,14.1z"/>
	<path class="st1" d="M471.1,21.5c0,0-0.1,0.2,0.6,0.5c0.7,0.3,5.2,1.1,5.2,1.1c8.7,1.2,18.3-1,23.1-2.3v-4.3
		c-2.3,0.6-6.5,0.7-6.5,0.7C474.8,16.5,471.1,21.5,471.1,21.5z"/>
	<path class="st2" d="M496.1,68.7c0.2-0.1,2.6-1.6,3.9-0.8v-8.4c-1.8,2.1-3.8,5.2-4.1,9.1C495.9,68.7,495.9,68.8,496.1,68.7z"/>
	<path class="st0" d="M496.2,76.6c0.7-0.9,2.8-2.4,3.8-2.5v-3.2c-0.1-0.4-0.5-0.6-1.3,0.8c0,0-0.7,1.8-1.8,2.7s-1.6,2.9-1.6,2.9
		S495.3,77.8,496.2,76.6z"/>
	<path class="st2" d="M439.6,87.4c-11,1.1-11,7.2-11,7.2s1.3,2.8-2.6,3.5c-1.5,0.3-4.3,0.9-7.4-0.5c-6.6-3-14.6-6-18.9-6.7
		c-7.4-1.3-6.2,3.1-6.2,3.1s0.2,0.7,1.6,1.3c3.8,1.7,25.5,13.1,25.7,13.3c0.2,0.1,0-0.2,0-0.2s-3-3.4,0.2-5.5s20.9,1.3,23.7,1.9
		c3.1,0.6-1.5-0.8-1.4-5.8c0.1-5,8.1-9.3,8.9-9.8C454.1,88.2,439.6,87.4,439.6,87.4z"/>
	<path class="st0" d="M449.6,94.4c-2.6,1.9-3.6,7.7,1.1,9.9c4.1,1.9,1,3.3-1.3,2.7c-1.3-0.3-23.7-4.9-27-2.7c-2.4,1.6,0.4,4,0.4,4
		c6.3,4.2,19.8,7.8,19.8,7.8s0.7,0.2,0.8-0.1c0.2-0.4,4.1-2.5,4.1-2.5c8.4-3.1,21.8-2.9,21.8-2.9s1-0.1-0.6-1s-2.5-3.7-2.5-3.7
		c-2.4-8.7,12-14.9,12-14.9s4.6-2.5,2.3-1.9c-3.2,1.1-22,0.1-22,0.1S452.2,92.4,449.6,94.4z"/>
	<path class="st1" d="M467.8,113c-18.7-0.6-22.4,4.4-22.4,4.4s-0.1,0.2,0.6,0.5c0.7,0.3,5.2,1.1,5.2,1.1c12.4,1.7,26.3-3.4,26.3-3.4
		s6.3-1.6,7.1-5c0.4-2-0.6-3.3,4.8-9.5c2.3-2.7,6.2-4.2,10.6-4.6v-6.9c-6.6-1.5-9.2-0.8-9.2-0.8s-7.5,3.7-13.1,8.1
		c-5.6,4.4-6.5,7.6-6,9.5c0.4,1.6,4,4.7,4,4.7C476.5,112.8,467.8,113,467.8,113z"/>
	<path class="st2" d="M487.7,111.5c-0.7,2.6-7.1,4.4-7.1,4.4l19.4,0.7V99.3C490.1,100.5,488.2,109.1,487.7,111.5z"/>
	<path class="st2" d="M479.4,153.7c0,0-0.8-1.8-1.7-1.4c0,0-6.9,4.5-7.5,12.2c0,0,0,0.2,0.3,0s3.5-2.1,4.3-0.2l0.3,0.9
		c0,0,0.1,0.2,0.4,0.1s2.3-2.8,9.8-0.2s6.5,1.9,7.8,2.9c0,0,0.7,0.8,1.6,0.3c0.7-0.4,2.6-1.1,5.3,0.8v-6.7c-0.5-0.1-1.1-0.2-1.9-0.4
		c0,0-2.7-0.3-3.6-0.1c-0.9,0.2-4.4-0.1-4.4-0.1c-2-0.4-4.4-0.4-6-0.2c-1.6,0.2,0.9-0.7,0.9-0.7s1.7-0.3,4.9-0.3
		c3.2,0.1,7.3-0.7,7.3-0.7s1.2-0.2,2.8-0.2v-5.6c-1.1,0.8-2.5,1.5-4.7,1.7C490.2,156.3,481.1,157.8,479.4,153.7z"/>
	<path class="st0" d="M470.5,172.5c0.9-1.2,4-3.2,4.4-2.4c0.4,0.8,0,1.2-0.2,1.9c-0.2,0.7,0,0.5,2.8,0.3c2.8-0.3,8.3,0,13.4,3.6
		s7.6,4.4,7.6,4.4s0.6,0.3,1.5,1v-10.7c-0.4-0.3-0.8-0.6-1.2-0.7c-2-0.6-3.3,0.5-3.3,0.5s0.4,1.9-0.3,1.2s-6.1-5.6-14.4-5.5
		c0,0-2.9-0.3-4.2,1.3c-1.3,1.6-2.1-0.1-2.1-0.1s-0.1-1.8-1.4,0.4c0,0-0.7,1.8-1.8,2.7c-1.1,0.9-1.6,2.9-1.6,2.9
		S469.6,173.6,470.5,172.5z"/>
	<path class="st2" d="M413.9,183.3c-11,1.1-11,7.2-11,7.2s1.3,2.8-2.6,3.5c-1.5,0.3-4.3,0.9-7.4-0.5c-6.6-3-14.6-6-18.9-6.7
		c-7.4-1.3-6.2,3.1-6.2,3.1s0.2,0.7,1.6,1.3c3.8,1.7,25.5,13.1,25.7,13.3c0.2,0.1,0-0.2,0-0.2s-3-3.4,0.2-5.5s20.9,1.3,23.7,1.9
		c3.1,0.6-1.5-0.8-1.4-5.8c0.1-5,8.1-9.3,8.9-9.8C428.4,184,413.9,183.3,413.9,183.3z"/>
	<path class="st0" d="M454.8,184.9c-3.2,1.1-22,0.1-22,0.1s-6.4,3.3-9,5.2c-2.6,1.9-3.6,7.7,1.1,9.9c4.1,1.9,1,3.3-1.3,2.7
		c-1.3-0.3-23.7-4.9-27-2.7c-2.4,1.6,0.4,4,0.4,4c6.3,4.2,19.8,7.8,19.8,7.8s0.7,0.2,0.8-0.1c0.2-0.4,4.1-2.5,4.1-2.5
		c8.4-3.1,21.8-2.9,21.8-2.9s1-0.1-0.6-1c-1.6-0.9-2.5-3.7-2.5-3.7c-2.4-8.7,12-14.9,12-14.9S457.1,184.3,454.8,184.9z"/>
	<path class="st1" d="M465.1,184.7c0,0-7.5,3.7-13.1,8.1c-5.6,4.4-6.5,7.6-6,9.5c0.4,1.6,4,4.7,4,4.7c0.9,1.7-7.8,1.8-7.8,1.8
		c-18.7-0.6-22.4,4.4-22.4,4.4s-0.1,0.2,0.6,0.5c0.7,0.3,5.2,1.1,5.2,1.1c12.4,1.7,26.3-3.4,26.3-3.4s6.3-1.6,7.1-5
		c0.4-2-0.6-3.3,4.8-9.5s19.3-5.9,28.2-1c3.4,1.9,6.1,2.6,8.2,2.8v-3.3C473.5,182.2,465.1,184.7,465.1,184.7z"/>
	<path class="st2" d="M489.7,200.9c-6.6-5.5-11.4-5.9-11.4-5.9c-13.5-0.9-15.7,9.7-16.4,12.3s-7.1,4.4-7.1,4.4l26.5,0.9
		c6.5-10.5,17.2-4.1,17.8-3.8c0.3,0.2,0.6,0.3,0.9,0.4v-6C496.5,203.6,492.6,203.3,489.7,200.9z"/>
	<path class="st0" d="M483.4,213.4c4.3-0.2,10.7,2.4,16.6,5.6v-5.4c-0.9-0.5-1.7-1.1-2.4-1.8C489.1,203.4,483.4,213.4,483.4,213.4z"
		/>
	<path class="st2" d="M453.8,249.6c0,0-0.8-1.8-1.7-1.4c0,0-6.9,4.5-7.5,12.2c0,0,0,0.2,0.3,0c0.3-0.2,3.5-2.1,4.3-0.2l0.3,0.9
		c0,0,0.1,0.2,0.4,0.1c0.3-0.1,2.3-2.8,9.8-0.2s6.5,1.9,7.8,2.9c0,0,0.7,0.8,1.6,0.3c0.9-0.6,3.6-1.5,7.8,3c0,0,1.2,1.6,1-0.1
		c-0.2-1.7,2.2-1.8,2.2-1.8s4.8,0.5,6.9,0c1.5-0.4,9.2-2.8,13.2-4v-1.8c-4-0.6-11.5-1.7-15.9-1.9c0,0-6.1,1-7.2,1
		c-1.3,0-2.2-0.2-4.5-0.6c0,0-2.7-0.3-3.6-0.1c-0.9,0.2-4.4-0.1-4.4-0.1c-2-0.4-4.4-0.4-6-0.2c-1.6,0.2,0.9-0.7,0.9-0.7
		s1.7-0.3,4.9-0.3c3.2,0.1,7.3-0.7,7.3-0.7s2.2-0.4,4.6-0.1c2.5,0.3,5-1.5,5-1.5s1.7-1.5,0.7,0.2c-1,1.7-4.2,2.4-0.9,1.9
		c3.3-0.5,10.2,0.6,10.2,0.6s4.4,0.2,8.9,0.1v-5.4c-2.2,0.1-3.9-0.1-4.2-0.5c-0.6-0.8,1.5-1.4,1.5-1.4s2.2-0.5-0.1-0.9
		c-2.3-0.4-6.7,1-6.7,1s-0.7,0.4-1.5,1.3c-0.8,0.8-2.5,2.8-3.6,3c-1.1,0.2-0.6-0.1,0.2-0.7s3.4-5,3.6-5.7c0.2-0.7,0.2-1.3-1.7,0.1
		c-1.8,1.4-4.6,3.5-6.2,3.9c-1.5,0.5,0.3-1,0.3-1s2.6-2.5,3-3.9c0.4-1.5-0.7-0.4-0.7-0.4s-2.1,2.8-5.7,4.5c0,0-0.4,0.1-0.9,0.8
		c-0.5,0.7-2.1,1.4-2.1,1.4s-1.4,0.3-0.3-0.4s3.1-3.6,3.2-5.3c0.1-1.7,0.2-2.2-0.9-0.8c-1.1,1.4-2.3,4.7-7.4,5.1
		C464.6,252.1,455.4,253.6,453.8,249.6z"/>
	<path class="st0" d="M444.8,268.3c0.9-1.2,4-3.2,4.4-2.4c0.4,0.8,0,1.2-0.2,1.9c-0.2,0.7,0,0.5,2.8,0.3c2.8-0.3,8.3,0,13.4,3.6
		s7.6,4.4,7.6,4.4s1.8,0.8,3.5,3.3s5.5,4.4,5.5,4.4s0.8,0.4,0-0.9c-0.8-1.2-2.2-3.8-1.3-4.7c1-0.9,2.3,0.7,2.3,0.7s5.1,4.9,6,7.1
		c0.9,2.2,2.2,2.6,2,1.7s-2.9-8-5-10.3c-2.2-2.3,3.3-4.4,3.3-4.4s1.7-0.7,2.2-0.5c0.7,0.2-1.7,1.4-1.7,1.4s-1.9,1-1.1,2.1
		c0.8,1.1,4.5,5.7,4.5,5.7s1.9,2.7,2.2,4.5s1.4,2.2,1.3,0.6c-0.1-1.4,1.4-4,3.2-5.5v-5.5c-4.4,3.3-6.6,4.3-4.4,1.8
		c0.8-0.9,2.4-2.4,4.4-4.2v-8.8c-3.1,1-6.1,1.8-8.7,2.5c-8.9,2.1-11.2,0.6-11.2,0.6s-0.8-0.3-0.7,0.6c0.1,0.9,1.1,3.4,1.1,3.4
		s1.3,2.5-0.6,0.7c-1.9-1.8-4.8-6.2-6.8-6.8c-2-0.6-3.3,0.5-3.3,0.5s0.4,1.9-0.3,1.2c-0.7-0.7-6.1-5.6-14.4-5.5c0,0-2.9-0.3-4.2,1.3
		c-1.3,1.6-2.1-0.1-2.1-0.1s-0.1-1.8-1.4,0.4c0,0-0.7,1.8-1.8,2.7c-1.1,0.9-1.6,2.9-1.6,2.9S443.9,269.5,444.8,268.3z"/>
	<path class="st2" d="M388.3,279.1c-11,1.1-11,7.2-11,7.2s1.3,2.8-2.6,3.5c-1.5,0.3-4.3,0.9-7.4-0.5c-6.6-3-14.6-6-18.9-6.7
		c-7.4-1.3-6.2,3.1-6.2,3.1s0.2,0.7,1.6,1.3c3.8,1.7,25.5,13.1,25.7,13.3c0.2,0.1,0-0.2,0-0.2s-3-3.4,0.2-5.5s20.9,1.3,23.7,1.9
		c3.1,0.6-1.5-0.8-1.4-5.8c0.1-5,8.1-9.3,8.9-9.8C402.8,279.9,388.3,279.1,388.3,279.1z"/>
	<path class="st0" d="M429.2,280.8c-3.2,1.1-22,0.1-22,0.1s-6.4,3.3-9,5.2s-3.6,7.7,1.1,9.9c4.1,1.9,1,3.3-1.3,2.7
		c-1.3-0.3-23.7-4.9-27-2.7c-2.4,1.6,0.4,4,0.4,4c6.3,4.2,19.8,7.8,19.8,7.8s0.7,0.2,0.8-0.1c0.2-0.4,4.1-2.5,4.1-2.5
		c8.4-3.1,21.8-2.9,21.8-2.9s1-0.1-0.6-1c-1.6-0.9-2.5-3.7-2.5-3.7c-2.4-8.7,12-14.9,12-14.9S431.4,280.2,429.2,280.8z"/>
	<path class="st1" d="M439.5,280.5c0,0-7.5,3.7-13.1,8.1c-5.6,4.4-6.5,7.6-6,9.5c0.4,1.6,4,4.7,4,4.7c0.9,1.7-7.8,1.8-7.8,1.8
		c-18.7-0.6-22.4,4.4-22.4,4.4s-0.1,0.2,0.6,0.5c0.7,0.3,5.2,1.1,5.2,1.1c12.4,1.7,26.3-3.4,26.3-3.4s6.3-1.6,7.1-5
		c0.4-2-0.6-3.3,4.8-9.5c5.4-6.3,19.3-5.9,28.2-1c8.9,4.9,13,1.9,13,1.9C448.9,277.7,439.5,280.5,439.5,280.5z"/>
	<path class="st2" d="M464,296.7c-6.6-5.5-11.4-5.9-11.4-5.9c-13.5-0.9-15.7,9.7-16.4,12.3s-7.1,4.4-7.1,4.4l26.5,0.9
		c6.5-10.5,17.2-4.1,17.8-3.8c9.5,5.1,22.2,3.1,26.5,2.3v-0.7c-8.3-2.2-17.3-9.4-17.3-9.4S470.6,302.2,464,296.7z"/>
	<path class="st0" d="M472,307.6c-8.5-8.4-14.3,1.7-14.3,1.7c10.4-0.5,32.6,15.6,32.6,15.6s-5.3-7.2,0.3-8.7
		c4.8-1.3,7.8,1.8,8.6,2.8c0.1,0.2,0.4,0.5,0.8,1v-9.2C494.9,311.8,479.1,314.6,472,307.6z"/>
	<path class="st1" d="M494.3,326.7c0.7,0.4,2.9,1.9,5.7,3.8v-7.9c-3.8-6.7-8.6-6.1-9.8-4.2C489,320.4,492,325.2,494.3,326.7z"/>
	<path class="st2" d="M428.1,345.4c0,0-0.8-1.8-1.7-1.4c0,0-6.9,4.5-7.5,12.2c0,0,0,0.2,0.3,0c0.3-0.2,3.5-2.1,4.3-0.2l0.3,0.9
		c0,0,0.1,0.2,0.4,0.1c0.3-0.1,2.3-2.8,9.8-0.2s6.5,1.9,7.8,2.9c0,0,0.7,0.8,1.6,0.3c0.9-0.6,3.6-1.5,7.8,3c0,0,1.2,1.6,1-0.1
		s2.2-1.8,2.2-1.8s4.8,0.5,6.9,0c2.1-0.5,15.7-4.8,15.7-4.8s1.4-0.5,0.1-0.7s-12.5-2-18.4-2.2c0,0-6.1,1-7.2,1
		c-1.3,0-2.2-0.2-4.5-0.6c0,0-2.7-0.3-3.6-0.1c-0.9,0.2-4.4-0.1-4.4-0.1c-2-0.4-4.4-0.4-6-0.2s0.9-0.7,0.9-0.7s1.7-0.3,4.9-0.3
		c3.2,0.1,7.3-0.7,7.3-0.7s2.2-0.4,4.6-0.1c2.5,0.3,5-1.5,5-1.5s1.7-1.5,0.7,0.2c-1,1.7-4.2,2.4-0.9,1.9c3.3-0.5,10.2,0.6,10.2,0.6
		s11.1,0.5,16.2-0.4c5.5-1,10-2.3,12-2.8c1.4-0.4,4.7-1.1,6.4-3.9v-2.3c-0.7,0.6-1.7,1.5-2.8,1.9c-2.8,1-7.6,2.1-9.6,2
		s-1.2-0.1-0.3-1.4c1-1.3,1.4-2.4,1.6-3.5c0.2-1.1,0-1.1-0.6-0.4c-0.6,0.7-2.8,3.6-6.7,4.6c-3.9,1-10.9,1.2-11.4,0.4
		c-0.6-0.8,1.5-1.4,1.5-1.4s2.2-0.5-0.1-0.9c-2.3-0.4-6.7,1-6.7,1s-0.7,0.4-1.5,1.3s-2.5,2.8-3.6,3s-0.6-0.1,0.2-0.7s3.4-5,3.6-5.7
		s0.2-1.3-1.7,0.1c-1.8,1.4-4.6,3.5-6.2,3.9c-1.5,0.5,0.3-1,0.3-1s2.6-2.5,3-3.9c0.4-1.5-0.7-0.4-0.7-0.4s-2.1,2.8-5.7,4.5
		c0,0-0.4,0.1-0.9,0.8c-0.5,0.7-2.1,1.4-2.1,1.4s-1.4,0.3-0.3-0.4c1.1-0.7,3.1-3.6,3.2-5.3c0.1-1.7,0.2-2.2-0.9-0.8
		c-1.1,1.4-2.3,4.7-7.4,5.1C438.9,347.9,429.7,349.4,428.1,345.4z"/>
	<path class="st0" d="M443.8,363.1c-0.7-0.7-6.1-5.6-14.4-5.5c0,0-2.9-0.3-4.2,1.3c-1.3,1.6-2.1-0.1-2.1-0.1s-0.1-1.8-1.4,0.4
		c0,0-0.7,1.8-1.8,2.7c-1.1,0.9-1.6,2.9-1.6,2.9s0,0.5,0.9-0.7s4-3.2,4.4-2.4c0.4,0.8,0,1.2-0.2,1.9c-0.2,0.7,0,0.5,2.8,0.3
		s8.3,0,13.4,3.6s7.6,4.4,7.6,4.4s1.8,0.8,3.5,3.3s5.5,4.4,5.5,4.4s0.8,0.4,0-0.9s-2.2-3.8-1.3-4.7c1-0.9,2.3,0.7,2.3,0.7
		s5.1,4.9,6,7.1s2.2,2.6,2,1.7c-0.2-0.8-2.9-8-5-10.3s3.3-4.4,3.3-4.4s1.7-0.7,2.2-0.5c0.7,0.2-1.7,1.4-1.7,1.4s-1.9,1-1.1,2.1
		s4.5,5.7,4.5,5.7s1.9,2.7,2.2,4.5s1.4,2.2,1.3,0.6c-0.1-1.5,1.8-4.6,3.9-6c2.1-1.4,7.7-5.9,7.7-5.9s2.7-1.7,0.9,1.5
		c-1.8,3.2-6.3,7.6-6.3,7.7c-0.1,0.1-1.4,0.7,1.4,1.3c2.8,0.6,3.1,0.7,3.1,0.7s0.8-0.1,1.2-1.4c0.4-1.3,4.5-5.2,4.5-5.2
		s4.9-6.5,12.6-11.9v-3c-3.2,1.6-7,3.8-10.3,6.5c0,0-3.8,2.5-4.4,1.8c-0.6-0.7,0.5-2.1,2-3.6c1.4-1.4,7.4-6.5,12.7-8.9v-1.3
		c-0.1,0-0.2,0-0.2,0s-8.3,1.5-17.3,9.6c-9,8.1-16,12.4-12.6,8.6c3.4-3.8,19.5-16.7,19.5-16.7s1.8-1.5,0.6-1.3
		c-1.2,0.2-15.5,5.4-24.4,7.6c-8.9,2.1-11.2,0.6-11.2,0.6s-0.8-0.3-0.7,0.6c0.1,0.9,1.1,3.4,1.1,3.4s1.3,2.5-0.6,0.7
		c-1.9-1.8-4.8-6.2-6.8-6.8c-2-0.6-3.3,0.5-3.3,0.5S444.5,363.9,443.8,363.1z"/>
	<path class="st2" d="M482.9,382.6c2.8-1,13.7,3.9,17.1,5.4v-15.2c-2.4-1-4.7-1.7-5.9-1.2C490.4,372.9,482.9,382.6,482.9,382.6z"/>
	<path class="st1" d="M494.7,370.5c1.2-0.4,3.2,0,5.3,0.8v-5.6C496.5,367.9,494.7,370.5,494.7,370.5z"/>
	<path class="st2" d="M362.6,374.9c-11,1.1-11,7.2-11,7.2s1.3,2.8-2.6,3.5c-1.5,0.3-4.3,0.9-7.4-0.5c-6.6-3-14.6-6-18.9-6.7
		c-7.4-1.3-6.2,3.1-6.2,3.1s0.2,0.7,1.6,1.3c3.8,1.7,25.5,13.1,25.7,13.3c0.2,0.1,0-0.2,0-0.2s-3-3.4,0.2-5.5s20.9,1.3,23.7,1.9
		c3.1,0.6-1.5-0.8-1.4-5.8c0.1-5,8.1-9.3,8.9-9.8C377.1,375.7,362.6,374.9,362.6,374.9z"/>
	<path class="st0" d="M403.5,376.6c-3.2,1.1-22,0.1-22,0.1s-6.4,3.3-9,5.2c-2.6,1.9-3.6,7.7,1.1,9.9c4.1,1.9,1,3.3-1.3,2.7
		c-1.3-0.3-23.7-4.9-27-2.7c-2.4,1.6,0.4,4,0.4,4c6.3,4.2,19.8,7.8,19.8,7.8s0.7,0.2,0.8-0.1c0.2-0.4,4.1-2.5,4.1-2.5
		c8.4-3.1,21.8-2.9,21.8-2.9s1-0.1-0.6-1c-1.6-0.9-2.5-3.7-2.5-3.7c-2.4-8.7,12-14.9,12-14.9S405.8,376,403.5,376.6z"/>
	<path class="st1" d="M413.8,376.3c0,0-7.5,3.7-13.1,8.1c-5.6,4.4-6.5,7.6-6.1,9.5c0.4,1.6,4,4.7,4,4.7c0.9,1.7-7.8,1.8-7.8,1.8
		c-18.7-0.6-22.4,4.4-22.4,4.4s-0.1,0.2,0.6,0.5c0.7,0.3,5.2,1.1,5.2,1.1c12.4,1.7,26.3-3.4,26.3-3.4s6.3-1.6,7.1-5
		c0.4-2-0.6-3.3,4.8-9.5c5.4-6.3,19.3-5.9,28.2-1c8.9,4.9,13,1.9,13,1.9C423.2,373.6,413.8,376.3,413.8,376.3z"/>
	<path class="st2" d="M438.4,392.5c-6.6-5.5-11.4-5.9-11.4-5.9c-13.5-0.9-15.7,9.7-16.4,12.3s-7.1,4.4-7.1,4.4l26.5,0.9
		c6.5-10.5,17.2-4.1,17.8-3.8c11.7,6.2,28.1,1.9,28.1,1.9c-8.7-1.7-18.8-9.7-18.8-9.7S445,398.1,438.4,392.5z"/>
	<path class="st0" d="M475.9,406.2c0,0-21.1,5.6-29.6-2.7c-8.5-8.4-14.3,1.7-14.3,1.7c10.4-0.5,32.6,15.6,32.6,15.6
		s-5.3-7.2,0.3-8.7c4.8-1.3,7.8,1.8,8.6,2.8s7.4,9.7,15,12.1c7.7,2.4,11.4-5.1,11.4-5.1C483.8,421.4,475.9,406.2,475.9,406.2z"/>
	<path class="st1" d="M487.6,429.7c-2.4-0.8-9-3.4-13.1-10.9c-3.8-7.1-8.7-6.4-10-4.5s1.7,6.7,4.1,8.3c2.4,1.5,22.1,15.1,22.1,15.1
		s1.6-5.4,9.3-4.6v-4C496.1,430.8,491.4,431,487.6,429.7z"/>
	<path class="st2" d="M494.4,440.3c0.7,1,3,2.7,5.6,4.4v-8.8C494.1,435.6,494.4,440.3,494.4,440.3z"/>
	<path class="st2" d="M402.4,441.2c0,0-0.8-1.8-1.7-1.4c0,0-6.9,4.5-7.5,12.2c0,0,0,0.2,0.3,0s3.5-2.1,4.3-0.2l0.3,0.9
		c0,0,0.1,0.2,0.4,0.1c0.3-0.1,2.3-2.8,9.8-0.2c7.5,2.5,6.5,1.9,7.8,2.9c0,0,0.7,0.8,1.6,0.3c0.9-0.6,3.6-1.5,7.8,3
		c0,0,1.2,1.6,1-0.1c-0.2-1.7,2.2-1.8,2.2-1.8s4.8,0.5,6.9,0c2.1-0.5,15.7-4.8,15.7-4.8s1.4-0.5,0.1-0.7c-1.3-0.2-12.5-2-18.4-2.2
		c0,0-6.1,1-7.2,1c-1.3,0-2.2-0.2-4.5-0.6c0,0-2.7-0.3-3.6-0.1c-0.9,0.2-4.4-0.1-4.4-0.1c-2-0.4-4.4-0.4-6-0.2
		c-1.6,0.2,0.9-0.7,0.9-0.7s1.7-0.3,4.9-0.3c3.2,0.1,7.3-0.7,7.3-0.7s2.2-0.4,4.6-0.1c2.5,0.3,5-1.5,5-1.5s1.7-1.5,0.7,0.2
		c-1,1.7-4.2,2.4-0.9,1.9c3.3-0.5,10.2,0.6,10.2,0.6s11.1,0.5,16.2-0.4c5.5-1,10-2.3,12-2.8c1.6-0.4,5.6-1.3,7-5
		c1.6-4.4-0.5-0.3-3.3,0.7c-2.8,1-7.6,2.1-9.6,2s-1.2-0.1-0.3-1.4c1-1.3,1.4-2.4,1.6-3.5c0.2-1.1,0-1.1-0.6-0.4
		c-0.6,0.7-2.8,3.6-6.7,4.6s-10.9,1.2-11.4,0.4s1.5-1.4,1.5-1.4s2.2-0.5-0.1-0.9s-6.7,1-6.7,1s-0.7,0.4-1.5,1.3
		c-0.8,0.8-2.5,2.8-3.6,3c-1.1,0.2-0.6-0.1,0.2-0.7c0.8-0.6,3.4-5,3.6-5.7s0.2-1.3-1.7,0.1c-1.8,1.4-4.6,3.5-6.2,3.9
		c-1.5,0.5,0.3-1,0.3-1s2.6-2.5,3-3.9c0.4-1.5-0.7-0.4-0.7-0.4s-2.1,2.8-5.7,4.5c0,0-0.4,0.1-0.9,0.8c-0.5,0.7-2.1,1.4-2.1,1.4
		s-1.4,0.3-0.3-0.4c1.1-0.7,3.1-3.6,3.2-5.3c0.1-1.7,0.2-2.2-0.9-0.8c-1.1,1.4-2.3,4.7-7.4,5.1C413.2,443.7,404.1,445.3,402.4,441.2
		z"/>
	<path class="st0" d="M393.5,460c0.9-1.2,4-3.2,4.4-2.4c0.4,0.8,0,1.2-0.2,1.9c-0.2,0.7,0,0.5,2.8,0.3s8.3,0,13.4,3.6
		s7.6,4.4,7.6,4.4s1.8,0.8,3.5,3.3c1.7,2.5,5.5,4.4,5.5,4.4s0.8,0.4,0-0.9c-0.8-1.2-2.2-3.8-1.3-4.7s2.3,0.7,2.3,0.7s5.1,4.9,6,7.1
		c0.9,2.2,2.2,2.6,2,1.7s-2.9-8-5-10.3s3.3-4.4,3.3-4.4s1.7-0.7,2.2-0.5c0.7,0.2-1.7,1.4-1.7,1.4s-1.9,1-1.1,2.1s4.5,5.7,4.5,5.7
		s1.9,2.7,2.2,4.5c0.4,1.9,1.4,2.2,1.3,0.6s1.8-4.6,3.9-6s7.7-5.9,7.7-5.9s2.7-1.7,0.9,1.5c-1.8,3.2-6.3,7.6-6.3,7.7
		c-0.1,0.1-1.4,0.7,1.4,1.3c2.8,0.6,3.1,0.7,3.1,0.7s0.8-0.1,1.2-1.4c0.4-1.3,4.5-5.2,4.5-5.2s11.9-15.9,27.8-18.5
		c0,0,2.5,0,0.2-0.7s-7.7,1.1-7.7,1.1s-10.3,3.2-18,9.7c0,0-3.8,2.5-4.4,1.8c-0.6-0.7,0.5-2.1,2-3.6c1.5-1.5,8.5-7.5,14.1-9.4
		s-1.6-0.7-1.6-0.7s-8.3,1.5-17.3,9.6c-9,8.1-16,12.4-12.6,8.6c3.4-3.8,19.5-16.7,19.5-16.7s1.8-1.5,0.6-1.3s-15.5,5.4-24.4,7.6
		c-8.9,2.1-11.2,0.6-11.2,0.6s-0.8-0.3-0.7,0.6c0.1,0.9,1.1,3.4,1.1,3.4s1.3,2.5-0.6,0.7c-1.9-1.8-4.8-6.2-6.8-6.8
		c-2-0.6-3.3,0.5-3.3,0.5s0.4,1.9-0.3,1.2s-6.1-5.6-14.4-5.5c0,0-2.9-0.3-4.2,1.3c-1.3,1.6-2.1-0.1-2.1-0.1s-0.1-1.8-1.4,0.4
		c0,0-0.7,1.8-1.8,2.7c-1.1,0.9-1.6,2.9-1.6,2.9S392.6,461.1,393.5,460z"/>
	<path class="st2" d="M457.2,478.4c3.4-1.2,18.1,5.9,18.1,5.9s-1.5-4.8,2.5-6.8c4.1-2.1,17.8,5,17.8,5s1.5,0.8,2.9-2.7
		c0.2-0.6,0.8-1,1.6-1.5v-10.1c-1.6-0.6-2.7-1-2.7-1s-10.5,2.4-9.5,5.7c1,3.3-2.5,1.9-3.1,1.5c-0.6-0.4-12.7-8.2-16.3-6.9
		S457.2,478.4,457.2,478.4z"/>
	<path class="st0" d="M497.3,485.3c0,0-14-6.2-17-5.2c-3,1-2.4,4.7-2.4,4.7c4.1,1,13.3,7.7,13.3,7.7l0-3.1c0.2-3.9,5-1.9,8.8-0.1
		v-7.4C498.3,483.6,497.3,485.3,497.3,485.3z"/>
	<path class="st1" d="M469,466.4c3.7-1.3,14.8,5.3,15.2,5.6c0.7-1.9,0.3-2.4,0.4-3.6c0.6-5.9,12.8-6.7,12.8-6.7
		c-9.8-0.6-12.6-3.3-12.6-3.3C474.5,458.4,469,466.4,469,466.4z"/>
	<path class="st1" d="M500,499.2v-8.9c-1-0.5-2.1-1-3.1-1.4c-2.9-1.3-3.9-0.5-4.1,0.7c-0.3,1.9,0,4.3,0,4.3
		C493.4,494.2,496.3,496.3,500,499.2z"/>
	<path class="st2" d="M336.9,470.8c-11,1.1-11,7.2-11,7.2s1.3,2.8-2.6,3.5c-1.5,0.3-4.3,0.9-7.4-0.5c-6.6-3-14.6-6-18.9-6.7
		c-7.4-1.3-6.2,3.1-6.2,3.1s0.2,0.7,1.6,1.3c3.8,1.7,25.5,13.1,25.7,13.3s0-0.2,0-0.2s-3-3.4,0.2-5.5c3.2-2.1,20.9,1.3,23.7,1.9
		c3.1,0.6-1.5-0.8-1.4-5.8c0.1-5,8.1-9.3,8.9-9.8C351.4,471.5,336.9,470.8,336.9,470.8z"/>
	<path class="st0" d="M375.5,474.3c0,0,4.6-2.5,2.3-1.9c-3.2,1.1-22,0.1-22,0.1s-6.4,3.3-9,5.2c-2.6,1.9-3.6,7.7,1.1,9.9
		c4.1,1.9,1,3.3-1.3,2.7c-1.3-0.3-23.7-4.9-27-2.7c-2.4,1.6,0.4,4,0.4,4c6.3,4.2,19.8,7.8,19.8,7.8s0.7,0.2,0.8-0.1
		c0.2-0.4,4.1-2.5,4.1-2.5c8.4-3.1,21.8-2.9,21.8-2.9s1-0.1-0.6-1c-1.6-0.9-2.5-3.7-2.5-3.7C361.1,480.5,375.5,474.3,375.5,474.3z"
		/>
	<path class="st1" d="M381.9,493.9c0.4-2-0.6-3.3,4.8-9.5s19.3-5.9,28.2-1c8.9,4.9,13,1.9,13,1.9c-30.3-15.9-39.7-13.2-39.7-13.2
		s-7.5,3.7-13.1,8.1c-5.6,4.4-6.5,7.6-6,9.5c0.4,1.6,4,4.7,4,4.7c0.9,1.7-7.8,1.8-7.8,1.8c-14.5-0.5-20,2.4-21.7,3.7h27.8
		c2.2-0.6,3.6-1.1,3.6-1.1S381.1,497.3,381.9,493.9z"/>
	<path class="st2" d="M422.1,496.4c11.7,6.2,28.1,1.9,28.1,1.9c-8.7-1.7-18.8-9.7-18.8-9.7s-12.1,5.3-18.7-0.2s-11.4-5.9-11.4-5.9
		c-13.5-0.9-15.7,9.7-16.4,12.3s-7.1,4.4-7.1,4.4l22.8,0.8h3.8C411,489.7,421.6,496.1,422.1,496.4z"/>
	<path class="st0" d="M407,500h14.5c-0.3-0.2-0.6-0.5-0.8-0.8C413.7,492.5,408.6,497.7,407,500z"/>
	<path class="st2" d="M446.6,12.7c0.2,0.1,0-0.2,0-0.2s-3-3.4,0.2-5.5s20.9,1.3,23.7,1.9c3.1,0.6-1.5-0.8-1.4-5.8c0-1.1,0.4-2.1,1-3
		h-15.5c-0.1,0.8-0.6,1.9-2.8,2.3c-1.5,0.3-4.3,0.9-7.4-0.5c-1.3-0.6-2.7-1.2-4.1-1.8h-18.1C428.1,2.9,446.4,12.6,446.6,12.7z"/>
	<path class="st0" d="M353.8,0l1.2,0.5c0.2-0.2,0.4-0.3,0.6-0.5H353.8z"/>
	<path class="st1" d="M368,0.7c-2.5-0.1-0.1,2.5-0.5,3.3s-1.8-0.9-4.2-2.8c-2.3-1.8-6.6-0.2-6.6-0.2S366,6.6,370,6.8l1.9-1.8
		c2.8-3,7.4-0.4,7.4-0.4s1.1-2.3,4.6-2.3c3.5,0,5.8-2,5.8-2c-0.7,0.3-1.9,0.1-3.3-0.2h-11.8C371.9,0.7,369.5,0.8,368,0.7z"/>
	<path class="st2" d="M377.9,6.1c-1.8-0.9-5.8,1.1-5.8,1.1l14.2,3.3c1.1-3.9,10.2-7.8,10.2-7.8c-1.6,0.4-6-0.9-6-0.9
		s-1.7,0.8-5.3,1.4c-3.6,0.7-3,1.9-2.8,3.4C382.5,8.2,379.7,7,377.9,6.1z"/>
	<path class="st0" d="M401.3,6.1c4.2-1.1,5.6-4.7,5.6-4.7s-2.3,1.4-9.6,3.3c-7.3,1.9-8.7,6.5-8.7,6.5c4.1-2,8.2,1.6,8.2,1.6l6.5,4.7
		c0,0-7.4-8.8,2.5-7.4c9.9,1.3,13-3.3,13-3.3s-9.4,1.9-11.5,1c-2.2-0.9-7.7,0.4-7.7,0.4s-5.6,1.2-5.8,0.3S401.3,6.1,401.3,6.1z"/>
	<path class="st1" d="M421.7,15.8c-1.3,0.9-4.4,0.3-4.4,0.3s-5.9-1.5-0.9-2.1c5-0.7,4.7-2.4,4.7-2.4s-5.7,1.6-13.4,0.5
		c-7.7-1.1-3.2,4.8-3.2,4.8l3.6,1.9l-2-3.7c-1.8-2.9,4.5,0.9,7.2,1.9c2.7,1.1,2.9,6.6,2.9,6.6s3-1,6.3-0.7
		c3.3,0.3,10.8,10.2,10.8,10.2C432.2,23.9,421.7,15.8,421.7,15.8z"/>
	<path class="st2" d="M250.6,0.1c0.1,0,0.1-0.1,0.2-0.1h-1.7C249.4,0.2,250,0.5,250.6,0.1z"/>
	<path class="st2" d="M261.5,1.2c0,0,4.8,0.5,6.9,0c0.6-0.1,2.1-0.6,4-1.2h-18.2c1.2,0.4,2.5,1.4,4.1,3.1c0,0,1.2,1.6,1-0.1
		S261.5,1.2,261.5,1.2z"/>
	<path class="st0" d="M227.2,2.2c-1.1,0.9-1.6,2.9-1.6,2.9s0,0.5,0.9-0.7c0.9-1.2,4-3.2,4.4-2.4c0.4,0.8,0,1.2-0.2,1.9
		c-0.2,0.7,0,0.5,2.8,0.3c2.8-0.3,8.3,0,13.4,3.6s7.6,4.4,7.6,4.4s1.8,0.8,3.5,3.3s5.5,4.4,5.5,4.4s0.8,0.4,0-0.9s-2.2-3.8-1.3-4.7
		c1-0.9,2.3,0.7,2.3,0.7s5.1,4.9,6,7.1c0.9,2.2,2.2,2.6,2,1.7s-2.9-8-5-10.3c-2.2-2.3,3.3-4.4,3.3-4.4s1.7-0.7,2.2-0.5
		c0.7,0.2-1.7,1.4-1.7,1.4s-1.9,1-1.1,2.1c0.8,1.1,4.5,5.7,4.5,5.7s1.9,2.7,2.2,4.5s1.4,2.2,1.3,0.6c-0.1-1.5,1.8-4.6,3.9-6
		c2.1-1.4,7.7-5.9,7.7-5.9s2.7-1.7,0.9,1.5c-1.8,3.2-6.3,7.6-6.3,7.7c-0.1,0.1-1.4,0.7,1.4,1.3c2.8,0.6,3.1,0.7,3.1,0.7
		s0.8-0.1,1.2-1.4c0.4-1.3,4.5-5.2,4.5-5.2S302.3,5.4,313.6,0h-4.8c-3.5,1.6-8,4-11.8,7.3c0,0-3.8,2.5-4.4,1.8
		c-0.6-0.7,0.5-2.1,2-3.6c0.9-0.9,3.6-3.3,6.9-5.5h-5c-2.1,1.3-4.3,2.9-6.6,5c-9,8.1-16,12.4-12.6,8.6c2.3-2.6,10.7-9.6,15.7-13.7
		h-9.1c-3.8,1.2-7.8,2.4-11,3.2c-8.9,2.1-11.2,0.6-11.2,0.6s-0.8-0.3-0.7,0.6c0.1,0.9,1.1,3.4,1.1,3.4s1.3,2.5-0.6,0.7
		c-1.9-1.8-4.8-6.2-6.8-6.8c-2-0.6-3.3,0.5-3.3,0.5s0.4,1.9-0.3,1.2c-0.4-0.4-2.1-2-5-3.4h-17.4C228.4,0.6,227.9,1.6,227.2,2.2z"/>
	<path class="st1" d="M416.5,80.2c-6.5-0.3-12.4,2.4-12.3,3.9c0,1.6,0.2,2.4-3,1.3c-4.8-1.7-13.1-10.2-19.4-13.3
		c-8.4-4.1-8.3,4.5-7.2,5.3c1.1,0.9,14.9,13,16.2,14.1c1.2,1.1,1,0.5,1,0.5s-0.4-2.1,3.2-3.8c4.7-2.3,22.1,5.6,24,6.5
		c1.4,0.7,1.5-0.7,2.2-2c3.1-5.7,10.4-6.7,11.9-7.1s-1.2-0.9-1.2-0.9c-3.6-0.6-11.8-4.4-11.8-4.4L416.5,80.2z"/>
	<path class="st2" d="M290.2,22.8c3.4-1.2,18.1,5.9,18.1,5.9s-1.5-4.8,2.5-6.8c4.1-2.1,17.8,5,17.8,5s1.5,0.8,2.9-2.7
		c1.6-4,20.7-4.5,20.7-4.5s0.4-0.8-1.8-0.9c-2.3-0.1-20-7.2-20-7.2s-10.5,2.4-9.5,5.7c1,3.3-2.5,1.9-3.1,1.5
		c-0.6-0.4-12.7-8.2-16.3-6.9C297.7,13.1,290.2,22.8,290.2,22.8z"/>
	<path class="st0" d="M341.2,22.9c-6.1-1.3-11,6.8-11,6.8s-14-6.2-17-5.2c-3,1-2.4,4.7-2.4,4.7c4.1,1,13.3,7.7,13.3,7.7l0-3.1
		c0.2-4.2,5.9-1.6,9.7,0.3l0.1,0c0.8,0.3,7.5,4.1,7.5,4.1s-3.7-3.2,1.6-6.1c6.2-2.7,16.9-0.6,20.1-1.2c3.9-0.7,0.3-0.7,0.3-0.7
		C361.3,30.4,347.3,24.2,341.2,22.9z"/>
	<path class="st1" d="M302,10.7c3.7-1.3,14.8,5.3,15.2,5.6c0.7-1.9,0.3-2.4,0.4-3.6c0.6-5.9,12.8-6.7,12.8-6.7
		c-9.8-0.6-12.6-3.3-12.6-3.3C307.5,2.8,302,10.7,302,10.7z"/>
	<path class="st0" d="M379.8,69.1c9.8,3.5,12.3,9.9,19,11.2c0,0,1.7-6.1,16.4-3.1c0,0-11.6-7.2-12.9-10.1c-1.2-3-16-1.7-13.1,1.6
		c1.1,1.3-1.7-0.1-2.4-0.6c-0.6-0.5-6.2-5.5-15.9-2.4c-0.4,0.1-1.3,0.1-2.3-0.9c-1.3-1.3-6.7-3.6-5.8,3c0,0,7.9,4.8,8.8,7.5
		C371.7,75.2,372.2,66.4,379.8,69.1z"/>
	<path class="st1" d="M364.4,35.5c-3.2-2.1-9.5-2.5-9.5-2.5c-16.4-1.3-11.9,7.1-11.9,7.1s-6.5-3.9-13.1-6.8
		c-2.9-1.3-3.9-0.5-4.1,0.7c-0.3,1.9,0,4.3,0,4.3c1,0.5,7.2,5.2,13.6,10.5c2.6,2.5,20,16.9,20,16.9c-4.4-4.8-7.8-13.7-6.6-17.2
		c0.5-1.6,1.5-3.2,3.2-3.8c1.5-0.4,3.3,0.6,5.9,2.1c7,4.1,17.9,1.6,19.4,1.1c1.6-0.5,6.2-3.4,6.2-3.4c-1.7,0.6-4.8,0.4-4.8,0.4
		c-2.8-0.2-8.5-3.3-13-6C369.6,38.9,367,37.2,364.4,35.5z"/>
	<path class="st2" d="M359.8,51.3c3.6,1.3,12.1,2.1,16.9,1.6c4.7-0.5,6.2-4.1,6.2-4.1c-3.6,1.9-15.5,3.2-22.4-1.3
		c-1.8-1.1-3-1.3-3.9-0.9c0,0,0,0,0,0c-4.8,1.6-0.8,11.9,4.7,19.5c0,0,0-2,1.4-3.9c1.5-1.9,5.9-0.1,7.8,1.6
		c1.5-1.6,9.9-1.8,15.1,0.5c2.4-1.9,16.2-2.3,16.2-2.3c-8.1-1.2-12.3-6.4-12.3-6.4c-3.8,3.5-12.9,3.2-12.9,3.2s-12.2,0.6-16.4-2.3
		C355,53.3,357.9,50.6,359.8,51.3z"/>
	<path class="st1" d="M131.4,13.1c-4.7-1.7-12.8-9.9-19.1-13.1h-7.1c-1.4,1.7-1,4.7-0.4,5.1c1.1,0.9,14.9,13,16.2,14.1
		c1.2,1.1,1,0.5,1,0.5s-0.4-2.1,3.2-3.8c4.7-2.3,22.1,5.6,24,6.5c1.4,0.7,1.5-0.7,2.2-2c3.1-5.7,10.4-6.7,11.9-7.1s-1.2-0.9-1.2-0.9
		c-3.6-0.6-11.8-4.4-11.8-4.4l-3.5-0.1c-6.5-0.3-12.4,2.4-12.3,3.9C134.4,13.4,134.6,14.3,131.4,13.1z"/>
	<path class="st2" d="M169.9,15.2c-11,1.1-11,7.2-11,7.2s1.3,2.8-2.6,3.5c-1.5,0.3-4.3,0.9-7.4-0.5c-6.6-3-14.6-6-18.9-6.7
		c-7.4-1.3-6.2,3.1-6.2,3.1s0.2,0.7,1.6,1.3c3.8,1.7,25.5,13.1,25.7,13.3s0-0.2,0-0.2s-3-3.4,0.2-5.5s20.9,1.3,23.7,1.9
		c3.1,0.6-1.5-0.8-1.4-5.8c0.1-5,8.1-9.3,8.9-9.8C184.4,15.9,169.9,15.2,169.9,15.2z"/>
	<path class="st0" d="M210.8,16.8c-3.2,1.1-22,0.1-22,0.1s-6.4,3.3-9,5.2s-3.6,7.7,1.1,9.9c4.1,1.9,1,3.3-1.3,2.7
		c-1.3-0.3-23.7-4.9-27-2.7c-2.4,1.6,0.4,4,0.4,4c6.3,4.2,19.8,7.8,19.8,7.8s0.7,0.2,0.8-0.1c0.2-0.4,4.1-2.5,4.1-2.5
		c8.4-3.1,21.8-2.9,21.8-2.9s1-0.1-0.6-1c-1.6-0.9-2.5-3.7-2.5-3.7c-2.4-8.7,12-14.9,12-14.9S213.1,16.2,210.8,16.8z"/>
	<path class="st1" d="M221.1,16.6c0,0-7.5,3.7-13.1,8.1c-5.6,4.4-6.5,7.6-6.1,9.5c0.4,1.6,4,4.7,4,4.7c0.9,1.7-7.8,1.8-7.8,1.8
		C179.4,40,175.7,45,175.7,45s-0.1,0.2,0.6,0.5c0.7,0.3,5.2,1.1,5.2,1.1c12.4,1.7,26.3-3.4,26.3-3.4s6.3-1.6,7.1-5
		c0.4-2-0.6-3.3,4.8-9.5c5.4-6.3,19.3-5.9,28.2-1c8.9,4.9,13,1.9,13,1.9C230.5,13.8,221.1,16.6,221.1,16.6z"/>
	<path class="st0" d="M129.1,8.1c0,0,1.7-6.1,16.4-3.1c0,0-3.9-2.4-7.4-5h-21.7C121.5,3.3,124.1,7.1,129.1,8.1z"/>
	<path class="st0" d="M99.5,0c1.2,1,2.2,2.1,2.5,3c0,0,0.1-1.4,0.7-3H99.5z"/>
	<path class="st2" d="M245.7,32.8c-6.6-5.5-11.4-5.9-11.4-5.9c-13.5-0.9-15.7,9.7-16.4,12.3s-7.1,4.4-7.1,4.4l26.5,0.9
		c6.5-10.5,17.2-4.1,17.8-3.8c11.7,6.2,28.1,1.9,28.1,1.9c-8.7-1.7-18.8-9.7-18.8-9.7S252.3,38.3,245.7,32.8z"/>
	<path class="st0" d="M283.2,46.4c0,0-21.1,5.6-29.6-2.7c-8.5-8.4-14.3,1.7-14.3,1.7c10.4-0.5,32.6,15.6,32.6,15.6s-5.3-7.2,0.3-8.7
		c4.8-1.3,7.8,1.8,8.6,2.8c0.8,1,7.4,9.7,15,12.1c7.7,2.4,11.4-5.1,11.4-5.1C291.1,61.6,283.2,46.4,283.2,46.4z"/>
	<path class="st1" d="M294.9,69.9c-2.4-0.8-9-3.4-13.1-10.9c-3.8-7.1-8.7-6.4-10-4.5s1.7,6.7,4.1,8.3c2.4,1.5,22.1,15.1,22.1,15.1
		s2-6.8,12.3-4c10.3,2.8,13.5,1.1,13.5,1.1c-5.3-2.5-12-9-12-9C307.6,70.7,300.3,71.8,294.9,69.9z"/>
	<path class="st2" d="M322,82.1c8.3,3.4,15.8-1.8,10.4-1.6s-7.4-2.8-8.3-2.7c-0.9,0.1-7.6-0.2-15.1-1.5c-7.5-1.2-7.2,4.2-7.2,4.2
		c1.9,2.6,15,10.5,15,10.5c-0.3-2.4,3.1-4.1,11.2-1.8c11.3,3.1,19.4-3.5,16.1-2.8c-3.2,0.8-8.1-2-8.1-2s-2.3,3.9-10.8,1.1
		c-8.5-2.8-9.4-2.7-10.6-2.3c-1.6,0.5-1,4.4-1,4.4s-2.2-3.6-1.6-5.5C312.5,80.3,317.5,80.3,322,82.1z"/>
	<path class="st0" d="M352.5,91.8c-4.4-0.1-7.9-2.9-7.9-2.9s-3.2,2.4-5.9,3.1c-1.9,0.5-6.8,0.6-13.9-1.8c-5.8-1.9-6.8,1.5-6.8,1.5
		l11.3,4.6c3.5-3.6,9.9-0.8,9.9-0.8c1.7-1.5,8.8-1.4,8.8-1.4S356.9,91.8,352.5,91.8z"/>
	<path class="st1" d="M342.3,96.6c-2.5-0.1-0.1,2.5-0.5,3.3s-1.8-0.9-4.2-2.8c-2.3-1.8-6.6-0.2-6.6-0.2s9.3,5.5,13.3,5.7l1.9-1.8
		c2.8-3,7.4-0.4,7.4-0.4s1.1-2.3,4.6-2.3c3.5,0,5.8-2,5.8-2c-2,0.9-9.7-2.3-9.7-2.3C349.9,96.3,344.8,96.7,342.3,96.6z"/>
	<path class="st2" d="M364.8,97.7c0,0-1.7,0.8-5.3,1.4c-3.6,0.7-3,1.9-2.8,3.4c0.2,1.5-2.7,0.3-4.4-0.6s-5.8,1.1-5.8,1.1l14.2,3.3
		c1.1-3.9,10.2-7.8,10.2-7.8C369.2,99,364.8,97.7,364.8,97.7z"/>
	<path class="st0" d="M375.6,102c4.2-1.1,5.6-4.7,5.6-4.7s-2.3,1.4-9.6,3.3c-7.3,1.9-8.7,6.5-8.7,6.5c4.1-2,8.2,1.6,8.2,1.6l6.5,4.7
		c0,0-7.4-8.8,2.5-7.4c9.9,1.3,13-3.3,13-3.3s-9.4,1.9-11.5,1s-7.7,0.4-7.7,0.4s-5.6,1.2-5.8,0.3C367.7,103.2,375.6,102,375.6,102z"
		/>
	<path class="st1" d="M390.7,109.8c5-0.7,4.7-2.4,4.7-2.4s-5.7,1.6-13.4,0.5c-7.7-1.1-3.2,4.8-3.2,4.8l3.6,1.9l-2-3.7
		c-1.8-2.9,4.5,0.9,7.2,1.9c2.7,1.1,2.9,6.6,2.9,6.6s3-1,6.3-0.7c3.3,0.3,10.8,10.2,10.8,10.2c-1.2-9.2-11.7-17.3-11.7-17.3
		c-1.3,0.9-4.4,0.3-4.4,0.3S385.7,110.4,390.7,109.8z"/>
	<path class="st1" d="M28.3,5.6c0,0,2-6.8,12.3-4c10.3,2.8,13.5,1.1,13.5,1.1c-1.4-0.7-3-1.6-4.4-2.7H20.2C24.6,3,28.3,5.6,28.3,5.6
		z"/>
	<path class="st2" d="M52.2,9.8c8.3,3.4,15.8-1.8,10.4-1.6s-7.4-2.8-8.3-2.7C53.4,5.5,46.7,5.2,39.1,4C31.6,2.7,32,8.2,32,8.2
		c1.9,2.6,15,10.5,15,10.5c-0.3-2.4,3.1-4.1,11.2-1.8c11.3,3.1,19.4-3.5,16.1-2.8c-3.2,0.8-8.1-2-8.1-2s-2.3,3.9-10.8,1.1
		s-9.4-2.7-10.6-2.3c-1.6,0.5-1,4.4-1,4.4s-2.2-3.6-1.6-5.5C42.8,8,47.8,8,52.2,9.8z"/>
	<path class="st0" d="M82.8,19.5c-4.4-0.1-7.9-2.9-7.9-2.9S71.7,19,69,19.7c-1.9,0.5-6.8,0.6-13.9-1.8c-5.8-1.9-6.8,1.5-6.8,1.5
		L59.6,24c3.5-3.6,9.9-0.8,9.9-0.8c1.7-1.5,8.8-1.4,8.8-1.4S87.2,19.6,82.8,19.5z"/>
	<path class="st1" d="M67.8,24.8c-2.3-1.8-6.6-0.2-6.6-0.2s9.3,5.5,13.3,5.7l1.9-1.8c2.8-3,7.4-0.4,7.4-0.4s1.1-2.3,4.6-2.3
		c3.5,0,5.8-2,5.8-2c-2,0.9-9.7-2.3-9.7-2.3c-4.5,2.5-9.6,3-12.1,2.9c-2.5-0.1-0.1,2.5-0.5,3.3S70.2,26.7,67.8,24.8z"/>
	<path class="st2" d="M95.1,25.4c0,0-1.7,0.8-5.3,1.4c-3.6,0.7-3,1.9-2.8,3.4c0.2,1.5-2.7,0.3-4.4-0.6c-1.8-0.9-5.8,1.1-5.8,1.1
		l14.2,3.3c1.1-3.9,10.2-7.8,10.2-7.8C99.4,26.8,95.1,25.4,95.1,25.4z"/>
	<path class="st0" d="M105.9,29.7c4.2-1.1,5.6-4.7,5.6-4.7s-2.3,1.4-9.6,3.3c-7.3,1.9-8.7,6.5-8.7,6.5c4.1-2,8.2,1.6,8.2,1.6
		l6.5,4.7c0,0-7.4-8.8,2.5-7.4c9.9,1.3,13-3.3,13-3.3s-9.4,1.9-11.5,1c-2.2-0.9-7.7,0.4-7.7,0.4s-5.6,1.2-5.8,0.3
		C97.9,30.9,105.9,29.7,105.9,29.7z"/>
	<path class="st1" d="M121,37.5c5-0.7,4.7-2.4,4.7-2.4s-5.7,1.6-13.4,0.5c-7.7-1.1-3.2,4.8-3.2,4.8l3.6,1.9l-2-3.7
		c-1.8-2.9,4.5,0.9,7.2,1.9c2.7,1.1,2.9,6.6,2.9,6.6s3-1,6.3-0.7c3.3,0.3,10.8,10.2,10.8,10.2l0,0c-1.2-9.2-11.7-17.3-11.7-17.3
		c-1.3,0.9-4.4,0.3-4.4,0.3S116,38.2,121,37.5z"/>
	<path class="st2" d="M233,78.5c-1.1,1.4-2.3,4.7-7.4,5.1c-5.1,0.4-14.2,1.9-15.9-2.1c0,0-0.8-1.8-1.7-1.4c0,0-6.9,4.5-7.5,12.2
		c0,0,0,0.2,0.3,0c0.3-0.2,3.5-2.1,4.3-0.2l0.3,0.9c0,0,0.1,0.2,0.4,0.1c0.3-0.1,2.3-2.8,9.8-0.2c7.5,2.5,6.5,1.9,7.8,2.9
		c0,0,0.7,0.8,1.6,0.3c0.9-0.6,3.6-1.5,7.8,3c0,0,1.2,1.6,1-0.1s2.2-1.8,2.2-1.8s4.8,0.5,6.9,0c2.1-0.5,15.7-4.8,15.7-4.8
		s1.4-0.5,0.1-0.7s-12.5-2-18.4-2.2c0,0-6.1,1-7.2,1c-1.3,0-2.2-0.2-4.5-0.6c0,0-2.7-0.3-3.6-0.1c-0.9,0.2-4.4-0.1-4.4-0.1
		c-2-0.4-4.4-0.4-6-0.2s0.9-0.7,0.9-0.7s1.7-0.3,4.9-0.3c3.2,0.1,7.3-0.7,7.3-0.7s2.2-0.4,4.6-0.1c2.5,0.3,5-1.5,5-1.5
		s1.7-1.5,0.7,0.2c-1,1.7-4.2,2.4-0.9,1.9c3.3-0.5,10.2,0.6,10.2,0.6s11.1,0.5,16.2-0.4c5.5-1,10-2.3,12-2.8c1.6-0.4,5.6-1.3,7-5
		c1.6-4.4-0.5-0.3-3.3,0.7c-2.8,1-7.6,2.1-9.6,2s-1.2-0.1-0.3-1.4c1-1.3,1.4-2.4,1.6-3.5c0.2-1.1,0-1.1-0.6-0.4
		c-0.6,0.7-2.8,3.6-6.7,4.6s-10.9,1.2-11.4,0.4c-0.6-0.8,1.5-1.4,1.5-1.4s2.2-0.5-0.1-0.9s-6.7,1-6.7,1s-0.7,0.4-1.5,1.3
		c-0.8,0.8-2.5,2.8-3.6,3c-1.1,0.2-0.6-0.1,0.2-0.7c0.8-0.6,3.4-5,3.6-5.7s0.2-1.3-1.7,0.1c-1.8,1.4-4.6,3.5-6.2,3.9
		c-1.5,0.5,0.3-1,0.3-1s2.6-2.5,3-3.9c0.4-1.5-0.7-0.4-0.7-0.4s-2.1,2.8-5.7,4.5c0,0-0.4,0.1-0.9,0.8c-0.5,0.7-2.1,1.4-2.1,1.4
		s-1.4,0.3-0.3-0.4c1.1-0.7,3.1-3.6,3.2-5.3C234.1,77.6,234.1,77.1,233,78.5z"/>
	<path class="st0" d="M297,92.3c-2.3-0.7-7.7,1.1-7.7,1.1s-10.3,3.2-18,9.7c0,0-3.8,2.5-4.4,1.8c-0.6-0.7,0.5-2.1,2-3.6
		c1.5-1.5,8.5-7.5,14.1-9.4s-1.6-0.7-1.6-0.7s-8.3,1.5-17.3,9.6c-9,8.1-16,12.4-12.6,8.6c3.4-3.8,19.5-16.7,19.5-16.7
		s1.8-1.5,0.6-1.3s-15.5,5.4-24.4,7.6S236,99.7,236,99.7s-0.8-0.3-0.7,0.6c0.1,0.9,1.1,3.4,1.1,3.4s1.3,2.5-0.6,0.7
		c-1.9-1.8-4.8-6.2-6.8-6.8c-2-0.6-3.3,0.5-3.3,0.5s0.4,1.9-0.3,1.2c-0.7-0.7-6.1-5.6-14.4-5.5c0,0-2.9-0.3-4.2,1.3
		c-1.3,1.6-2.1-0.1-2.1-0.1s-0.1-1.8-1.4,0.4c0,0-0.7,1.8-1.8,2.7c-1.1,0.9-1.6,2.9-1.6,2.9s0,0.5,0.9-0.7s4-3.2,4.4-2.4
		c0.4,0.8,0,1.2-0.2,1.9c-0.2,0.7,0,0.5,2.8,0.3s8.3,0,13.4,3.6c5.2,3.6,7.6,4.4,7.6,4.4s1.8,0.8,3.5,3.3s5.5,4.4,5.5,4.4
		s0.8,0.4,0-0.9c-0.8-1.2-2.2-3.8-1.3-4.7s2.3,0.7,2.3,0.7s5.1,4.9,6,7.1c0.9,2.2,2.2,2.6,2,1.7c-0.2-0.8-2.9-8-5-10.3
		s3.3-4.4,3.3-4.4s1.7-0.7,2.2-0.5c0.7,0.2-1.7,1.4-1.7,1.4s-1.9,1-1.1,2.1s4.5,5.7,4.5,5.7s1.9,2.7,2.2,4.5
		c0.4,1.9,1.4,2.2,1.3,0.6s1.8-4.6,3.9-6s7.7-5.9,7.7-5.9s2.7-1.7,0.9,1.5c-1.8,3.2-6.3,7.6-6.3,7.7s-1.4,0.7,1.4,1.3
		c2.8,0.6,3.1,0.7,3.1,0.7s0.8-0.1,1.2-1.4c0.4-1.3,4.5-5.2,4.5-5.2s11.9-15.9,27.8-18.5C296.8,93,299.3,92.9,297,92.3z"/>
	<path class="st2" d="M0.2,5.8C0.2,5.9,0.1,6,0,6.1v2.3c0.4-0.8,0.6-1.5,0.8-2.2C1,5.1,0.8,5.1,0.2,5.8z"/>
	<path class="st2" d="M12.4,8.3c1.6-4.4-0.5-0.3-3.3,0.7c-2.6,0.9-6.8,2-9.1,2v3.7c2.4-0.6,4.3-1.1,5.5-1.4
		C7.1,12.9,11.1,12,12.4,8.3z"/>
	<path class="st0" d="M11.7,18.9c0,0-5.1,1-11.7,5.3v4c2.4-2.2,8.4-7,13.3-8.7C18.9,17.7,11.7,18.9,11.7,18.9z"/>
	<path class="st0" d="M27.3,20c-2.3-0.7-7.7,1.1-7.7,1.1s-10.3,3.2-18,9.7c0,0-0.7,0.5-1.6,1v6.5c2.7-3.4,13.4-15.4,27.1-17.6
		C27.1,20.7,29.6,20.7,27.3,20z"/>
	<path class="st1" d="M390.8,176c-6.5-0.3-12.4,2.4-12.3,3.9s0.2,2.4-3,1.3c-4.8-1.7-13.1-10.2-19.4-13.3c-8.4-4.1-8.3,4.5-7.2,5.3
		c1.1,0.9,14.9,13,16.2,14.1s1,0.5,1,0.5s-0.4-2.1,3.2-3.8c4.7-2.3,22.1,5.6,24,6.5c1.4,0.7,1.5-0.7,2.2-2
		c3.1-5.7,10.4-6.7,11.9-7.1s-1.2-0.9-1.2-0.9c-3.6-0.6-11.8-4.4-11.8-4.4L390.8,176z"/>
	<path class="st2" d="M264.5,118.7c3.4-1.2,18.1,5.9,18.1,5.9s-1.5-4.8,2.5-6.8c4.1-2.1,17.8,5,17.8,5s1.5,0.8,2.9-2.7
		c1.6-4,20.7-4.5,20.7-4.5s0.4-0.8-1.8-0.9c-2.3-0.1-20-7.2-20-7.2s-10.5,2.4-9.5,5.7c1,3.3-2.5,1.9-3.1,1.5
		c-0.6-0.4-12.7-8.2-16.3-6.9S264.5,118.7,264.5,118.7z"/>
	<path class="st0" d="M315.6,118.7c-6.1-1.3-11,6.8-11,6.8s-14-6.2-17-5.2c-3,1-2.4,4.7-2.4,4.7c4.1,1,13.3,7.7,13.3,7.7l0-3.1
		c0.2-4.2,5.9-1.6,9.7,0.3l0.1,0c0.8,0.3,7.5,4.1,7.5,4.1s-3.7-3.2,1.6-6.1c6.2-2.7,16.9-0.6,20.1-1.2c3.9-0.7,0.3-0.7,0.3-0.7
		C335.6,126.3,321.7,120,315.6,118.7z"/>
	<path class="st1" d="M304.7,101.9c-9.8-0.6-12.6-3.3-12.6-3.3c-10.4,0.1-15.8,8-15.8,8c3.7-1.3,14.8,5.3,15.2,5.6
		c0.7-1.9,0.3-2.4,0.4-3.6C292.5,102.7,304.7,101.9,304.7,101.9z"/>
	<path class="st0" d="M354.1,165c9.8,3.5,12.3,9.9,19,11.2c0,0,1.7-6.1,16.4-3.1c0,0-11.6-7.2-12.9-10.1c-1.2-3-16-1.7-13.1,1.6
		c1.1,1.3-1.7-0.1-2.4-0.6c-0.6-0.5-6.2-5.5-15.9-2.4c-0.4,0.1-1.3,0.1-2.3-0.9c-1.3-1.3-6.7-3.6-5.8,3c0,0,7.9,4.8,8.8,7.5
		C346,171.1,346.5,162.2,354.1,165z"/>
	<path class="st1" d="M356.9,140.7c-2.8-0.2-8.5-3.3-13-6c0,0-2.6-1.7-5.2-3.4c-3.2-2.1-9.5-2.5-9.5-2.5
		c-16.4-1.3-11.9,7.1-11.9,7.1s-6.5-3.9-13.1-6.8c-2.9-1.3-3.9-0.5-4.1,0.7c-0.3,1.9,0,4.3,0,4.3c1,0.5,7.2,5.2,13.6,10.5
		c2.6,2.5,20,16.9,20,16.9c-4.4-4.8-7.8-13.7-6.6-17.2c0.5-1.6,1.5-3.2,3.2-3.8c1.5-0.4,3.3,0.6,5.9,2.1c7,4.1,17.9,1.6,19.4,1.1
		c1.6-0.5,6.2-3.4,6.2-3.4C360,141,356.9,140.7,356.9,140.7z"/>
	<path class="st2" d="M363.9,151.7c-3.8,3.5-12.9,3.2-12.9,3.2s-12.2,0.6-16.4-2.3c-5.2-3.5-2.3-6.2-0.3-5.5
		c3.6,1.3,12.1,2.1,16.9,1.6c4.7-0.5,6.2-4.1,6.2-4.1c-3.6,1.9-15.5,3.2-22.4-1.3c-1.8-1.1-3-1.3-3.9-0.9c0,0,0,0,0,0
		c-4.8,1.6-0.8,11.9,4.7,19.5c0,0,0-2,1.4-3.9c1.5-1.9,5.9-0.1,7.8,1.6c1.5-1.6,9.9-1.8,15.1,0.5c2.4-1.9,16.2-2.3,16.2-2.3
		C368.1,156.8,363.9,151.7,363.9,151.7z"/>
	<path class="st0" d="M1.9,19.2c-0.2,0-0.9,0.2-1.9,0.6v1.8c0.8-0.7,1.3-1,1.3-1S3.1,19,1.9,19.2z"/>
	<path class="st1" d="M136.4,108.3c-3.6-0.6-11.8-4.4-11.8-4.4l-3.5-0.1c-6.5-0.3-12.4,2.4-12.3,3.9c0,1.6,0.2,2.4-3,1.3
		c-4.8-1.7-13.1-10.2-19.4-13.3c-8.4-4.1-8.3,4.5-7.2,5.3c1.1,0.9,14.9,13,16.2,14.1c1.2,1.1,1,0.5,1,0.5s-0.4-2.1,3.2-3.8
		c4.7-2.3,22.1,5.6,24,6.5c1.4,0.7,1.5-0.7,2.2-2c3.1-5.7,10.4-6.7,11.9-7.1S136.4,108.3,136.4,108.3z"/>
	<path class="st2" d="M144.2,111c-11,1.1-11,7.2-11,7.2s1.3,2.8-2.6,3.5c-1.5,0.3-4.3,0.9-7.4-0.5c-6.6-3-14.6-6-18.9-6.7
		c-7.4-1.3-6.2,3.1-6.2,3.1s0.2,0.7,1.6,1.3c3.8,1.7,25.5,13.1,25.7,13.3c0.2,0.1,0-0.2,0-0.2s-3-3.4,0.2-5.5
		c3.2-2.1,20.9,1.3,23.7,1.9c3.1,0.6-1.5-0.8-1.4-5.8c0.1-5,8.1-9.3,8.9-9.8C158.7,111.8,144.2,111,144.2,111z"/>
	<path class="st0" d="M182.8,114.5c0,0,4.6-2.5,2.3-1.9c-3.2,1.1-22,0.1-22,0.1s-6.4,3.3-9,5.2c-2.6,1.9-3.6,7.7,1.1,9.9
		c4.1,1.9,1,3.3-1.3,2.7c-1.3-0.3-23.7-4.9-27-2.7c-2.4,1.6,0.4,4,0.4,4c6.3,4.2,19.8,7.8,19.8,7.8s0.7,0.2,0.8-0.1
		c0.2-0.4,4.1-2.5,4.1-2.5c8.4-3.1,21.8-2.9,21.8-2.9s1-0.1-0.6-1c-1.6-0.9-2.5-3.7-2.5-3.7C168.4,120.7,182.8,114.5,182.8,114.5z"
		/>
	<path class="st1" d="M195.4,112.4c0,0-7.5,3.7-13.1,8.1c-5.6,4.4-6.5,7.6-6,9.5c0.4,1.6,4,4.7,4,4.7c0.9,1.7-7.8,1.8-7.8,1.8
		c-18.7-0.6-22.4,4.4-22.4,4.4s-0.1,0.2,0.6,0.5c0.7,0.3,5.2,1.1,5.2,1.1c12.4,1.7,26.3-3.4,26.3-3.4s6.3-1.6,7.1-5
		c0.4-2-0.6-3.3,4.8-9.5s19.3-5.9,28.2-1c8.9,4.9,13,1.9,13,1.9C204.8,109.6,195.4,112.4,195.4,112.4z"/>
	<path class="st2" d="M0,40.3v6.8c5.5,1.7,12.9,5.2,12.9,5.2s-1.5-4.8,2.5-6.8c4.1-2.1,17.8,5,17.8,5s1.5,0.8,2.9-2.7
		c1.6-4,20.7-4.5,20.7-4.5s0.4-0.8-1.8-0.9c-2.3-0.1-20-7.2-20-7.2s-10.5,2.4-9.5,5.7s-2.5,1.9-3.1,1.5C21.7,41.9,9.6,34.1,6,35.4
		C4.4,35.9,2.1,38.1,0,40.3z"/>
	<path class="st0" d="M45.8,46.4c-6.1-1.3-11,6.8-11,6.8s-14-6.2-17-5.2c-3,1-2.4,4.7-2.4,4.7c4.1,1,13.3,7.7,13.3,7.7l0-3.1
		c0.2-4.2,5.9-1.6,9.7,0.3l0.1,0c0.8,0.3,7.5,4.1,7.5,4.1s-3.7-3.2,1.6-6.1c6.2-2.7,16.9-0.6,20.1-1.2c3.9-0.7,0.3-0.7,0.3-0.7
		C65.9,54,51.9,47.8,45.8,46.4z"/>
	<path class="st1" d="M35,29.6c-9.8-0.6-12.6-3.3-12.6-3.3c-10.4,0.1-15.8,8-15.8,8c3.7-1.3,14.8,5.3,15.2,5.6
		c0.7-1.9,0.3-2.4,0.4-3.6C22.7,30.4,35,29.6,35,29.6z"/>
	<path class="st0" d="M84.4,92.7c9.8,3.5,12.3,9.9,19,11.2c0,0,1.7-6.1,16.4-3.1c0,0-11.6-7.2-12.9-10.1c-1.2-3-16-1.7-13.1,1.6
		c1.1,1.3-1.7-0.1-2.4-0.6c-0.6-0.5-6.2-5.5-15.9-2.4c-0.4,0.1-1.3,0.1-2.3-0.9c-1.3-1.3-6.7-3.6-5.8,3c0,0,7.9,4.8,8.8,7.5
		C76.3,98.8,76.8,89.9,84.4,92.7z"/>
	<path class="st2" d="M220,128.6c-6.6-5.5-11.4-5.9-11.4-5.9c-13.5-0.9-15.7,9.7-16.4,12.3s-7.1,4.4-7.1,4.4l26.5,0.9
		c6.5-10.5,17.2-4.1,17.8-3.8c11.7,6.2,28.1,1.9,28.1,1.9c-8.7-1.7-18.8-9.7-18.8-9.7S226.6,134.1,220,128.6z"/>
	<path class="st0" d="M257.5,142.2c0,0-21.1,5.6-29.6-2.7c-8.5-8.4-14.3,1.7-14.3,1.7c10.4-0.5,32.6,15.6,32.6,15.6
		s-5.3-7.2,0.3-8.7c4.8-1.3,7.8,1.8,8.6,2.8s7.4,9.7,15,12.1c7.7,2.4,11.4-5.1,11.4-5.1C265.5,157.5,257.5,142.2,257.5,142.2z"/>
	<path class="st1" d="M269.2,165.7c-2.4-0.8-9-3.4-13.1-10.9c-3.8-7.1-8.7-6.4-10-4.5s1.7,6.7,4.1,8.3c2.4,1.5,22.1,15.1,22.1,15.1
		s2-6.8,12.3-4c10.3,2.8,13.5,1.1,13.5,1.1c-5.3-2.5-12-9-12-9C281.9,166.5,274.6,167.6,269.2,165.7z"/>
	<path class="st2" d="M296.3,177.9c8.3,3.4,15.8-1.8,10.4-1.6s-7.4-2.8-8.3-2.7c-0.9,0.1-7.6-0.2-15.1-1.5s-7.2,4.2-7.2,4.2
		c1.9,2.6,15,10.5,15,10.5c-0.3-2.4,3.1-4.1,11.2-1.8c11.3,3.1,19.4-3.5,16.1-2.8c-3.2,0.8-8.1-2-8.1-2s-2.3,3.9-10.8,1.1
		s-9.4-2.7-10.6-2.3c-1.6,0.5-1,4.4-1,4.4s-2.2-3.6-1.6-5.5C286.9,176.1,291.8,176.1,296.3,177.9z"/>
	<path class="st0" d="M326.8,187.6c-4.4-0.1-7.9-2.9-7.9-2.9s-3.2,2.4-5.9,3.1c-1.9,0.5-6.8,0.6-13.9-1.8c-5.8-1.9-6.8,1.5-6.8,1.5
		l11.3,4.6c3.5-3.6,9.9-0.8,9.9-0.8c1.7-1.5,8.8-1.4,8.8-1.4S331.2,187.7,326.8,187.6z"/>
	<path class="st1" d="M328.7,189.5c-4.5,2.5-9.6,3-12.1,2.9c-2.5-0.1-0.1,2.5-0.5,3.3c-0.4,0.8-1.8-0.9-4.2-2.8
		c-2.3-1.8-6.6-0.2-6.6-0.2s9.3,5.5,13.3,5.7l1.9-1.8c2.8-3,7.4-0.4,7.4-0.4s1.1-2.3,4.6-2.3c3.5,0,5.8-2,5.8-2
		C336.3,192.7,328.7,189.5,328.7,189.5z"/>
	<path class="st2" d="M339.1,193.5c0,0-1.7,0.8-5.3,1.4c-3.6,0.7-3,1.9-2.8,3.4c0.2,1.5-2.7,0.3-4.4-0.6s-5.8,1.1-5.8,1.1l14.2,3.3
		c1.1-3.9,10.2-7.8,10.2-7.8C343.5,194.9,339.1,193.5,339.1,193.5z"/>
	<path class="st0" d="M349.9,197.8c4.2-1.1,5.6-4.7,5.6-4.7s-2.3,1.4-9.6,3.3c-7.3,1.9-8.7,6.5-8.7,6.5c4.1-2,8.2,1.6,8.2,1.6
		l6.5,4.7c0,0-7.4-8.8,2.5-7.4c9.9,1.3,13-3.3,13-3.3s-9.4,1.9-11.5,1c-2.2-0.9-7.7,0.4-7.7,0.4s-5.6,1.2-5.8,0.3
		S349.9,197.8,349.9,197.8z"/>
	<path class="st1" d="M365,205.6c5-0.7,4.7-2.4,4.7-2.4s-5.7,1.6-13.4,0.5c-7.7-1.1-3.2,4.8-3.2,4.8l3.6,1.9l-2-3.7
		c-1.8-2.9,4.5,0.9,7.2,1.9c2.7,1.1,2.9,6.6,2.9,6.6s3-1,6.3-0.7c3.3,0.3,10.8,10.2,10.8,10.2c-1.2-9.2-11.7-17.3-11.7-17.3
		c-1.3,0.9-4.4,0.3-4.4,0.3S360.1,206.3,365,205.6z"/>
	<path class="st1" d="M87.1,68.5c-2.8-0.2-8.5-3.3-13-6c0,0-2.6-1.7-5.2-3.4c-3.2-2.1-9.5-2.5-9.5-2.5c-16.4-1.3-11.9,7.1-11.9,7.1
		s-6.5-3.9-13.1-6.8c-2.9-1.3-3.9-0.5-4.1,0.7c-0.3,1.9,0,4.3,0,4.3c1,0.5,7.2,5.2,13.6,10.5c2.6,2.5,20,16.9,20,16.9
		c-4.4-4.8-7.8-13.7-6.6-17.2c0.5-1.6,1.5-3.2,3.2-3.8c1.5-0.4,3.3,0.6,5.9,2.1c7,4.1,17.9,1.6,19.4,1.1c1.6-0.5,6.2-3.4,6.2-3.4
		C90.2,68.7,87.1,68.5,87.1,68.5z"/>
	<path class="st2" d="M94.1,79.4c-3.8,3.5-12.9,3.2-12.9,3.2S69,83.2,64.8,80.4c-5.2-3.5-2.3-6.2-0.3-5.5c3.6,1.3,12.1,2.1,16.9,1.6
		c4.7-0.5,6.2-4.1,6.2-4.1c-3.6,1.9-15.5,3.2-22.4-1.3c-1.8-1.1-3-1.3-3.9-0.9c0,0,0,0,0,0c-4.8,1.6-0.8,11.9,4.7,19.5
		c0,0,0-2,1.4-3.9c1.5-1.9,5.9-0.1,7.8,1.6c1.5-1.6,9.9-1.8,15.1,0.5c2.4-1.9,16.2-2.3,16.2-2.3C98.3,84.5,94.1,79.4,94.1,79.4z"/>
	<path class="st0" d="M0,90.4c0.1,0,0.3,0.1,0.4,0.2c7.7,2.4,11.4-5.1,11.4-5.1C7.2,85.4,3.3,84.1,0,82.2V90.4z"/>
	<path class="st1" d="M0,93.6v6c1.6,1.1,2.6,1.8,2.6,1.8s2-6.8,12.3-4c10.3,2.8,13.5,1.1,13.5,1.1c-5.3-2.5-12-9-12-9
		C12.3,94.1,5.3,95.3,0,93.6z"/>
	<path class="st2" d="M26.6,105.6c8.3,3.4,15.8-1.8,10.4-1.6c-5.5,0.1-7.4-2.8-8.3-2.7c-0.9,0.1-7.6-0.2-15.1-1.5
		C6,98.6,6.3,104,6.3,104c1.9,2.6,15,10.5,15,10.5c-0.3-2.4,3.1-4.1,11.2-1.8c11.3,3.1,19.4-3.5,16.1-2.8c-3.2,0.8-8.1-2-8.1-2
		s-2.3,3.9-10.8,1.1c-8.5-2.8-9.4-2.7-10.6-2.3c-1.6,0.5-1,4.4-1,4.4s-2.2-3.6-1.6-5.5C17.1,103.8,22.1,103.8,26.6,105.6z"/>
	<path class="st0" d="M57.1,115.3c-4.4-0.1-7.9-2.9-7.9-2.9s-3.2,2.4-5.9,3.1c-1.9,0.5-6.8,0.6-13.9-1.8c-5.8-1.9-6.8,1.5-6.8,1.5
		l11.3,4.6c3.5-3.6,9.9-0.8,9.9-0.8c1.7-1.5,8.8-1.4,8.8-1.4S61.5,115.4,57.1,115.3z"/>
	<path class="st1" d="M58.9,117.3c-4.5,2.5-9.6,3-12.1,2.9c-2.5-0.1-0.1,2.5-0.5,3.3c-0.4,0.8-1.8-0.9-4.2-2.8
		c-2.3-1.8-6.6-0.2-6.6-0.2s9.3,5.5,13.3,5.7l1.9-1.8c2.8-3,7.4-0.4,7.4-0.4s1.1-2.3,4.6-2.3c3.5,0,5.8-2,5.8-2
		C66.6,120.5,58.9,117.3,58.9,117.3z"/>
	<path class="st2" d="M69.4,121.3c0,0-1.7,0.8-5.3,1.4c-3.6,0.7-3,1.9-2.8,3.4c0.2,1.5-2.7,0.3-4.4-0.6s-5.8,1.1-5.8,1.1l14.2,3.3
		c1.1-3.9,10.2-7.8,10.2-7.8C73.8,122.6,69.4,121.3,69.4,121.3z"/>
	<path class="st0" d="M80.2,125.5c4.2-1.1,5.6-4.7,5.6-4.7s-2.3,1.4-9.6,3.3s-8.7,6.5-8.7,6.5c4.1-2,8.2,1.6,8.2,1.6l6.5,4.7
		c0,0-7.4-8.8,2.5-7.4c9.9,1.3,13-3.3,13-3.3s-9.4,1.9-11.5,1c-2.2-0.9-7.7,0.4-7.7,0.4s-5.6,1.2-5.8,0.3
		C72.2,126.8,80.2,125.5,80.2,125.5z"/>
	<path class="st1" d="M95.3,133.3c5-0.7,4.7-2.4,4.7-2.4s-5.7,1.6-13.4,0.5c-7.7-1.1-3.2,4.8-3.2,4.8l3.6,1.9l-2-3.7
		c-1.8-2.9,4.5,0.9,7.2,1.9c2.7,1.1,2.9,6.6,2.9,6.6s3-1,6.3-0.7c3.3,0.3,10.8,10.2,10.8,10.2c-1.2-9.2-11.7-17.3-11.7-17.3
		c-1.3,0.9-4.4,0.3-4.4,0.3S90.3,134,95.3,133.3z"/>
	<path class="st2" d="M205,180.5c1.1-0.7,3.1-3.6,3.2-5.3c0.1-1.7,0.2-2.2-0.9-0.8c-1.1,1.4-2.3,4.7-7.4,5.1
		c-5.1,0.4-14.2,1.9-15.9-2.1c0,0-0.8-1.8-1.7-1.4c0,0-6.9,4.5-7.5,12.2c0,0,0,0.2,0.3,0c0.3-0.2,3.5-2.1,4.3-0.2l0.3,0.9
		c0,0,0.1,0.2,0.4,0.1c0.3-0.1,2.3-2.8,9.8-0.2c7.5,2.5,6.5,1.9,7.8,2.9c0,0,0.7,0.8,1.6,0.3s3.6-1.5,7.8,3c0,0,1.2,1.6,1-0.1
		c-0.2-1.7,2.2-1.8,2.2-1.8s4.8,0.5,6.9,0c2.1-0.5,15.7-4.8,15.7-4.8s1.4-0.5,0.1-0.7s-12.5-2-18.4-2.2c0,0-6.1,1-7.2,1
		c-1.3,0-2.2-0.2-4.5-0.6c0,0-2.7-0.3-3.6-0.1c-0.9,0.2-4.4-0.1-4.4-0.1c-2-0.4-4.4-0.4-6-0.2c-1.6,0.2,0.9-0.7,0.9-0.7
		s1.7-0.3,4.9-0.3c3.2,0.1,7.3-0.7,7.3-0.7s2.2-0.4,4.6-0.1c2.5,0.3,5-1.5,5-1.5s1.7-1.5,0.7,0.2c-1,1.7-4.2,2.4-0.9,1.9
		c3.3-0.5,10.2,0.6,10.2,0.6s11.1,0.5,16.2-0.4c5.5-1,10-2.3,12-2.8c1.6-0.4,5.6-1.3,7-5c1.6-4.4-0.5-0.3-3.3,0.7
		c-2.8,1-7.6,2.1-9.6,2c-2-0.1-1.2-0.1-0.3-1.4c1-1.3,1.4-2.4,1.6-3.5c0.2-1.1,0-1.1-0.6-0.4c-0.6,0.7-2.8,3.6-6.7,4.6
		s-10.9,1.2-11.4,0.4s1.5-1.4,1.5-1.4s2.2-0.5-0.1-0.9s-6.7,1-6.7,1s-0.7,0.4-1.5,1.3c-0.8,0.8-2.5,2.8-3.6,3
		c-1.1,0.2-0.6-0.1,0.2-0.7c0.8-0.6,3.4-5,3.6-5.7c0.2-0.7,0.2-1.3-1.7,0.1c-1.8,1.4-4.6,3.5-6.2,3.9c-1.5,0.5,0.3-1,0.3-1
		s2.6-2.5,3-3.9c0.4-1.5-0.7-0.4-0.7-0.4s-2.1,2.8-5.7,4.5c0,0-0.4,0.1-0.9,0.8c-0.5,0.7-2.1,1.4-2.1,1.4S203.9,181.2,205,180.5z"/>
	<path class="st0" d="M175.1,196c0.9-1.2,4-3.2,4.4-2.4c0.4,0.8,0,1.2-0.2,1.9c-0.2,0.7,0,0.5,2.8,0.3c2.8-0.3,8.3,0,13.4,3.6
		s7.6,4.4,7.6,4.4s1.8,0.8,3.5,3.3s5.5,4.4,5.5,4.4s0.8,0.4,0-0.9c-0.8-1.2-2.2-3.8-1.3-4.7c1-0.9,2.3,0.7,2.3,0.7s5.1,4.9,6,7.1
		c0.9,2.2,2.2,2.6,2,1.7s-2.9-8-5-10.3s3.3-4.4,3.3-4.4s1.7-0.7,2.2-0.5c0.7,0.2-1.7,1.4-1.7,1.4s-1.9,1-1.1,2.1s4.5,5.7,4.5,5.7
		s1.9,2.7,2.2,4.5s1.4,2.2,1.3,0.6s1.8-4.6,3.9-6c2.1-1.4,7.7-5.9,7.7-5.9s2.7-1.7,0.9,1.5c-1.8,3.2-6.3,7.6-6.3,7.7
		c-0.1,0.1-1.4,0.7,1.4,1.3s3.1,0.7,3.1,0.7s0.8-0.1,1.2-1.4c0.4-1.3,4.5-5.2,4.5-5.2s11.9-15.9,27.8-18.5c0,0,2.5,0,0.2-0.7
		s-7.7,1.1-7.7,1.1s-10.3,3.2-18,9.7c0,0-3.8,2.5-4.4,1.8c-0.6-0.7,0.5-2.1,2-3.6c1.5-1.5,8.5-7.5,14.1-9.4s-1.6-0.7-1.6-0.7
		s-8.3,1.5-17.3,9.6c-9,8.1-16,12.4-12.6,8.6c3.4-3.8,19.5-16.7,19.5-16.7s1.8-1.5,0.6-1.3c-1.2,0.2-15.5,5.4-24.4,7.6
		c-8.9,2.1-11.2,0.6-11.2,0.6s-0.8-0.3-0.7,0.6c0.1,0.9,1.1,3.4,1.1,3.4s1.3,2.5-0.6,0.7c-1.9-1.8-4.8-6.2-6.8-6.8
		c-2-0.6-3.3,0.5-3.3,0.5s0.4,1.9-0.3,1.2s-6.1-5.6-14.4-5.5c0,0-2.9-0.3-4.2,1.3c-1.3,1.6-2.1-0.1-2.1-0.1s-0.1-1.8-1.4,0.4
		c0,0-0.7,1.8-1.8,2.7c-1.1,0.9-1.6,2.9-1.6,2.9S174.2,197.2,175.1,196z"/>
	<path class="st1" d="M365.1,271.9c-6.5-0.3-12.4,2.4-12.3,3.9c0,1.6,0.2,2.4-3,1.3c-4.8-1.7-13.1-10.2-19.4-13.3
		c-8.4-4.1-8.3,4.5-7.2,5.3c1.1,0.9,14.9,13,16.2,14.1c1.2,1.1,1,0.5,1,0.5s-0.4-2.1,3.2-3.8c4.7-2.3,22.1,5.6,24,6.5
		c1.4,0.7,1.5-0.7,2.2-2c3.1-5.7,10.4-6.7,11.9-7.1s-1.2-0.9-1.2-0.9c-3.6-0.6-11.8-4.4-11.8-4.4L365.1,271.9z"/>
	<path class="st2" d="M238.8,214.5c3.4-1.2,18.1,5.9,18.1,5.9s-1.5-4.8,2.5-6.8c4.1-2.1,17.8,5,17.8,5s1.5,0.8,2.9-2.7
		c1.6-4,20.7-4.5,20.7-4.5s0.4-0.8-1.8-0.9c-2.3-0.1-20-7.2-20-7.2s-10.5,2.4-9.5,5.7c1,3.3-2.5,1.9-3.1,1.5s-12.7-8.2-16.3-6.9
		S238.8,214.5,238.8,214.5z"/>
	<path class="st0" d="M289.9,214.5c-6.1-1.3-11,6.8-11,6.8s-14-6.2-17-5.2s-2.4,4.7-2.4,4.7c4.1,1,13.3,7.7,13.3,7.7l0-3.1
		c0.2-4.2,5.9-1.6,9.7,0.3l0.1,0c0.8,0.3,7.5,4.1,7.5,4.1s-3.7-3.2,1.6-6.1c6.2-2.7,16.9-0.6,20.1-1.2c3.9-0.7,0.3-0.7,0.3-0.7
		C310,222.1,296,215.9,289.9,214.5z"/>
	<path class="st1" d="M279.1,197.7c-9.8-0.6-12.6-3.3-12.6-3.3c-10.4,0.1-15.8,8-15.8,8c3.7-1.3,14.8,5.3,15.2,5.6
		c0.7-1.9,0.3-2.4,0.4-3.6C266.8,198.5,279.1,197.7,279.1,197.7z"/>
	<path class="st0" d="M328.5,260.8c9.8,3.5,12.3,9.9,19,11.2c0,0,1.7-6.1,16.4-3.1c0,0-11.6-7.2-12.9-10.1s-16-1.7-13.1,1.6
		c1.1,1.3-1.7-0.1-2.4-0.6c-0.6-0.5-6.2-5.5-15.9-2.4c-0.4,0.1-1.3,0.1-2.3-0.9c-1.3-1.3-6.7-3.6-5.8,3c0,0,7.9,4.8,8.8,7.5
		C320.3,266.9,320.8,258,328.5,260.8z"/>
	<path class="st1" d="M304.5,236.4c1.5-0.4,3.3,0.6,5.9,2.1c7,4.1,17.9,1.6,19.4,1.1c1.6-0.5,6.2-3.4,6.2-3.4
		c-1.7,0.6-4.8,0.4-4.8,0.4c-2.8-0.2-8.5-3.3-13-6c0,0-2.6-1.7-5.2-3.4c-3.2-2.1-9.5-2.5-9.5-2.5c-16.4-1.3-11.9,7.1-11.9,7.1
		s-6.5-3.9-13.1-6.8c-2.9-1.3-3.9-0.5-4.1,0.7c-0.3,1.9,0,4.3,0,4.3c1,0.5,7.2,5.2,13.6,10.5c2.6,2.5,20,16.9,20,16.9
		c-4.4-4.8-7.8-13.7-6.6-17.2C301.9,238.5,302.9,236.9,304.5,236.4z"/>
	<path class="st2" d="M338.2,247.5c-3.8,3.5-12.9,3.2-12.9,3.2s-12.2,0.6-16.4-2.3c-5.2-3.5-2.3-6.2-0.3-5.5
		c3.6,1.3,12.1,2.1,16.9,1.6s6.2-4.1,6.2-4.1c-3.6,1.9-15.5,3.2-22.4-1.3c-1.8-1.1-3-1.3-3.9-0.9c0,0,0,0,0,0
		c-4.8,1.6-0.8,11.9,4.7,19.5c0,0,0-2,1.4-3.9c1.5-1.9,5.9-0.1,7.8,1.6c1.5-1.6,9.9-1.8,15.1,0.5c2.4-1.9,16.2-2.3,16.2-2.3
		C342.4,252.6,338.2,247.5,338.2,247.5z"/>
	<path class="st0" d="M1.6,115.8c-0.4-0.1-1-0.2-1.6-0.1v1.1c0.5-0.1,0.9-0.2,1.4-0.3C1.4,116.5,3.9,116.5,1.6,115.8z"/>
	<path class="st1" d="M110.7,204.1c-3.6-0.6-11.8-4.4-11.8-4.4l-3.5-0.1c-6.5-0.3-12.4,2.4-12.3,3.9c0,1.6,0.2,2.4-3,1.3
		c-4.8-1.7-13.1-10.2-19.4-13.3c-8.4-4.1-8.3,4.5-7.2,5.3c1.1,0.9,14.9,13,16.2,14.1c1.2,1.1,1,0.5,1,0.5s-0.4-2.1,3.2-3.8
		c4.7-2.3,22.1,5.6,24,6.5c1.4,0.7,1.5-0.7,2.2-2c3.1-5.7,10.4-6.7,11.9-7.1S110.7,204.1,110.7,204.1z"/>
	<path class="st2" d="M131.1,208.5c1.9-0.9-12.6-1.7-12.6-1.7c-11,1.1-11,7.2-11,7.2s1.3,2.8-2.6,3.5c-1.5,0.3-4.3,0.9-7.4-0.5
		c-6.6-3-14.6-6-18.9-6.7c-7.4-1.3-6.2,3.1-6.2,3.1s0.2,0.7,1.6,1.3c3.8,1.7,25.5,13.1,25.7,13.3s0-0.2,0-0.2s-3-3.4,0.2-5.5
		c3.2-2.1,20.9,1.3,23.7,1.9c3.1,0.6-1.5-0.8-1.4-5.8C122.3,213.2,130.3,208.9,131.1,208.5z"/>
	<path class="st0" d="M159.4,208.5c-3.2,1.1-22,0.1-22,0.1s-6.4,3.3-9,5.2c-2.6,1.9-3.6,7.7,1.1,9.9c4.1,1.9,1,3.3-1.3,2.7
		c-1.3-0.3-23.7-4.9-27-2.7c-2.4,1.6,0.4,4,0.4,4c6.3,4.2,19.8,7.8,19.8,7.8s0.7,0.2,0.8-0.1c0.2-0.4,4.1-2.5,4.1-2.5
		c8.4-3.1,21.8-2.9,21.8-2.9s1-0.1-0.6-1c-1.6-0.9-2.5-3.7-2.5-3.7c-2.4-8.7,12-14.9,12-14.9S161.7,207.9,159.4,208.5z"/>
	<path class="st1" d="M169.7,208.2c0,0-7.5,3.7-13.1,8.1c-5.6,4.4-6.5,7.6-6,9.5c0.4,1.6,4,4.7,4,4.7c0.9,1.7-7.8,1.8-7.8,1.8
		c-18.7-0.6-22.4,4.4-22.4,4.4s-0.1,0.2,0.6,0.5c0.7,0.3,5.2,1.1,5.2,1.1c12.4,1.7,26.3-3.4,26.3-3.4s6.3-1.6,7.1-5
		c0.4-2-0.6-3.3,4.8-9.5s19.3-5.9,28.2-1c8.9,4.9,13,1.9,13,1.9C179.1,205.5,169.7,208.2,169.7,208.2z"/>
	<path class="st2" d="M29.2,138.1c-2.3-0.1-20-7.2-20-7.2s-7.4,1.7-9.2,4.2v7.9c4,1.5,7.4,3.3,7.4,3.3s1.5,0.8,2.9-2.7
		c1.6-4,20.7-4.5,20.7-4.5S31.5,138.2,29.2,138.1z"/>
	<path class="st0" d="M20.1,142.3c-6.1-1.3-11,6.8-11,6.8s-4.6-2-9.1-3.6v8.7c1.8,1.2,3,2.1,3,2.1l0-3.1c0.2-4.2,5.9-1.6,9.7,0.3
		l0.1,0c0.8,0.3,7.5,4.1,7.5,4.1s-3.7-3.2,1.6-6.1c6.2-2.7,16.9-0.6,20.1-1.2c3.9-0.7,0.3-0.7,0.3-0.7
		C40.2,149.8,26.2,143.6,20.1,142.3z"/>
	<path class="st1" d="M0,127.8c3.8-2,9.3-2.4,9.3-2.4c-4.4-0.3-7.4-1-9.3-1.7V127.8z"/>
	<path class="st0" d="M58.7,188.5c9.8,3.5,12.3,9.9,19,11.2c0,0,1.7-6.1,16.4-3.1c0,0-11.6-7.2-12.9-10.1c-1.2-3-16-1.7-13.1,1.6
		c1.1,1.3-1.7-0.1-2.4-0.6s-6.2-5.5-15.9-2.4c-0.4,0.1-1.3,0.1-2.3-0.9c-1.3-1.3-6.7-3.6-5.8,3c0,0,7.9,4.8,8.8,7.5
		C50.6,194.6,51.1,185.8,58.7,188.5z"/>
	<path class="st2" d="M194.3,224.4c-6.6-5.5-11.4-5.9-11.4-5.9c-13.5-0.9-15.7,9.7-16.4,12.3s-7.1,4.4-7.1,4.4l26.5,0.9
		c6.5-10.5,17.2-4.1,17.8-3.8c11.7,6.2,28.1,1.9,28.1,1.9c-8.7-1.7-18.8-9.7-18.8-9.7S200.9,230,194.3,224.4z"/>
	<path class="st0" d="M231.9,238c0,0-21.1,5.6-29.6-2.7S188,237,188,237c10.4-0.5,32.6,15.6,32.6,15.6s-5.3-7.2,0.3-8.7
		c4.8-1.3,7.8,1.8,8.6,2.8c0.8,1,7.4,9.7,15,12.1c7.7,2.4,11.4-5.1,11.4-5.1C239.8,253.3,231.9,238,231.9,238z"/>
	<path class="st1" d="M243.6,261.6c-2.4-0.8-9-3.4-13.1-10.9c-3.8-7.1-8.7-6.4-10-4.5s1.7,6.7,4.1,8.3c2.4,1.5,22.1,15.1,22.1,15.1
		s2-6.8,12.3-4s13.5,1.1,13.5,1.1c-5.3-2.5-12-9-12-9C256.2,262.3,249,263.4,243.6,261.6z"/>
	<path class="st2" d="M270.6,273.7c8.3,3.4,15.8-1.8,10.4-1.6s-7.4-2.8-8.3-2.7c-0.9,0.1-7.6-0.2-15.1-1.5s-7.2,4.2-7.2,4.2
		c1.9,2.6,15,10.5,15,10.5c-0.3-2.4,3.1-4.1,11.2-1.8c11.3,3.1,19.4-3.5,16.1-2.8c-3.2,0.8-8.1-2-8.1-2s-2.3,3.9-10.8,1.1
		s-9.4-2.7-10.6-2.3c-1.6,0.5-1,4.4-1,4.4s-2.2-3.6-1.6-5.5C261.2,271.9,266.2,271.9,270.6,273.7z"/>
	<path class="st0" d="M273.5,281.8c-5.8-1.9-6.8,1.5-6.8,1.5L278,288c3.5-3.6,9.9-0.8,9.9-0.8c1.7-1.5,8.8-1.4,8.8-1.4
		s8.9-2.3,4.5-2.3c-4.4-0.1-7.9-2.9-7.9-2.9s-3.2,2.4-5.9,3.1C285.5,284.1,280.5,284.2,273.5,281.8z"/>
	<path class="st1" d="M303,285.4c-4.5,2.5-9.6,3-12.1,2.9c-2.5-0.1-0.1,2.5-0.5,3.3s-1.8-0.9-4.2-2.8c-2.3-1.8-6.6-0.2-6.6-0.2
		s9.3,5.5,13.3,5.7l1.9-1.8c2.8-3,7.4-0.4,7.4-0.4s1.1-2.3,4.6-2.3c3.5,0,5.8-2,5.8-2C310.7,288.6,303,285.4,303,285.4z"/>
	<path class="st2" d="M313.4,289.4c0,0-1.7,0.8-5.3,1.4c-3.6,0.7-3,1.9-2.8,3.4c0.2,1.5-2.7,0.3-4.4-0.6c-1.8-0.9-5.8,1.1-5.8,1.1
		l14.2,3.3c1.1-3.9,10.2-7.8,10.2-7.8C317.8,290.7,313.4,289.4,313.4,289.4z"/>
	<path class="st0" d="M324.2,293.6c4.2-1.1,5.6-4.7,5.6-4.7s-2.3,1.4-9.6,3.3c-7.3,1.9-8.7,6.5-8.7,6.5c4.1-2,8.2,1.6,8.2,1.6
		l6.5,4.7c0,0-7.4-8.8,2.5-7.4c9.9,1.3,13-3.3,13-3.3s-9.4,1.9-11.5,1c-2.2-0.9-7.7,0.4-7.7,0.4s-5.6,1.2-5.8,0.3
		C316.3,294.9,324.2,293.6,324.2,293.6z"/>
	<path class="st1" d="M339.4,301.4c5-0.7,4.7-2.4,4.7-2.4s-5.7,1.6-13.4,0.5c-7.7-1.1-3.2,4.8-3.2,4.8l3.6,1.9l-2-3.7
		c-1.8-2.9,4.5,0.9,7.2,1.9c2.7,1.1,2.9,6.6,2.9,6.6s3-1,6.3-0.7c3.3,0.3,10.8,10.2,10.8,10.2c-1.2-9.2-11.7-17.3-11.7-17.3
		c-1.3,0.9-4.4,0.3-4.4,0.3S334.4,302.1,339.4,301.4z"/>
	<path class="st1" d="M34.8,164.1c1.5-0.4,3.3,0.6,5.9,2.1c7,4.1,17.9,1.6,19.4,1.1c1.6-0.5,6.2-3.4,6.2-3.4
		c-1.7,0.6-4.8,0.4-4.8,0.4c-2.8-0.2-8.5-3.3-13-6c0,0-2.6-1.7-5.2-3.4c-3.2-2.1-9.5-2.5-9.5-2.5c-16.4-1.3-11.9,7.1-11.9,7.1
		s-6.5-3.9-13.1-6.8c-2.9-1.3-3.9-0.5-4.1,0.7c-0.3,1.9,0,4.3,0,4.3c1,0.5,7.2,5.2,13.6,10.5c2.6,2.5,20,16.9,20,16.9
		c-4.4-4.8-7.8-13.7-6.6-17.2C32.2,166.3,33.1,164.7,34.8,164.1z"/>
	<path class="st2" d="M68.4,175.2c-3.8,3.5-12.9,3.2-12.9,3.2s-12.2,0.6-16.4-2.3c-5.2-3.5-2.3-6.2-0.3-5.5
		c3.6,1.3,12.1,2.1,16.9,1.6c4.7-0.5,6.2-4.1,6.2-4.1c-3.6,1.9-15.5,3.2-22.4-1.3c-1.8-1.1-3-1.3-3.9-0.9c0,0,0,0,0,0
		c-4.8,1.6-0.8,11.9,4.7,19.5c0,0,0-2,1.4-3.9c1.5-1.9,5.9-0.1,7.8,1.6c1.5-1.6,9.9-1.8,15.1,0.5c2.4-1.9,16.2-2.3,16.2-2.3
		C72.6,180.4,68.4,175.2,68.4,175.2z"/>
	<path class="st1" d="M0,194.8c2-0.1,2.7-0.5,2.7-0.5c-0.9-0.4-1.8-0.9-2.7-1.5V194.8z"/>
	<path class="st2" d="M11.2,199.8c-5.5,0.1-7.4-2.8-8.3-2.7c-0.3,0-1.4,0-2.9-0.1v4.1c0.3,0.1,0.6,0.2,0.9,0.3
		C9.2,204.8,16.7,199.7,11.2,199.8z"/>
	<path class="st2" d="M6.8,208.5c11.3,3.1,19.4-3.5,16.1-2.8c-3.2,0.8-8.1-2-8.1-2s-2.3,3.9-10.8,1.1c-1.6-0.5-2.9-1-4.1-1.3v3.9
		C1.7,207.5,4,207.8,6.8,208.5z"/>
	<path class="st0" d="M18.1,214.9c1.7-1.5,8.8-1.4,8.8-1.4s8.9-2.3,4.5-2.3c-4.4-0.1-7.9-2.9-7.9-2.9s-3.2,2.4-5.9,3.1
		c-1.9,0.5-6.8,0.6-13.9-1.8C2.1,209,0.9,208.9,0,209v3.4l8.2,3.4C11.8,212.1,18.1,214.9,18.1,214.9z"/>
	<path class="st1" d="M25.2,220.2c2.8-3,7.4-0.4,7.4-0.4s1.1-2.3,4.6-2.3c3.5,0,5.8-2,5.8-2c-2,0.9-9.7-2.3-9.7-2.3
		c-4.5,2.5-9.6,3-12.1,2.9c-2.5-0.1-0.1,2.5-0.5,3.3s-1.8-0.9-4.2-2.8c-2.3-1.8-6.6-0.2-6.6-0.2s9.3,5.5,13.3,5.7L25.2,220.2z"/>
	<path class="st2" d="M49.7,218c-1.6,0.4-6-0.9-6-0.9s-1.7,0.8-5.3,1.4c-3.6,0.7-3,1.9-2.8,3.4c0.2,1.5-2.7,0.3-4.4-0.6
		c-1.8-0.9-5.8,1.1-5.8,1.1l14.2,3.3C40.6,221.9,49.7,218,49.7,218z"/>
	<path class="st0" d="M54.5,221.4c4.2-1.1,5.6-4.7,5.6-4.7s-2.3,1.4-9.6,3.3c-7.3,1.9-8.7,6.5-8.7,6.5c4.1-2,8.2,1.6,8.2,1.6
		l6.5,4.7c0,0-7.4-8.8,2.5-7.4c9.9,1.3,13-3.3,13-3.3s-9.4,1.9-11.5,1c-2.2-0.9-7.7,0.4-7.7,0.4s-5.6,1.2-5.8,0.3
		C46.6,222.6,54.5,221.4,54.5,221.4z"/>
	<path class="st1" d="M69.6,229.2c5-0.7,4.7-2.4,4.7-2.4s-5.7,1.6-13.4,0.5c-7.7-1.1-3.2,4.8-3.2,4.8l3.6,1.9l-2-3.7
		c-1.8-2.9,4.5,0.9,7.2,1.9c2.7,1.1,2.9,6.6,2.9,6.6s3-1,6.3-0.7c3.3,0.3,10.8,10.2,10.8,10.2c-1.2-9.2-11.7-17.3-11.7-17.3
		c-1.3,0.9-4.4,0.3-4.4,0.3S64.6,229.8,69.6,229.2z"/>
	<path class="st0" d="M245.7,283.9c-2.3-0.7-7.7,1.1-7.7,1.1s-10.3,3.2-18,9.7c0,0-3.8,2.5-4.4,1.8c-0.6-0.7,0.5-2.1,2-3.6
		c1.5-1.5,8.5-7.5,14.1-9.4s-1.6-0.7-1.6-0.7s-8.3,1.5-17.3,9.6c-9,8.1-16,12.4-12.6,8.6c3.4-3.8,19.5-16.7,19.5-16.7
		s1.8-1.5,0.6-1.3c-1.2,0.2-15.5,5.4-24.4,7.6c-8.9,2.1-11.2,0.6-11.2,0.6s-0.8-0.3-0.7,0.6c0.1,0.9,1.1,3.4,1.1,3.4
		s1.3,2.5-0.6,0.7c-1.9-1.8-4.8-6.2-6.8-6.8c-2-0.6-3.3,0.5-3.3,0.5s0.4,1.9-0.3,1.2s-6.1-5.6-14.4-5.5c0,0-2.9-0.3-4.2,1.3
		c-1.3,1.6-2.1-0.1-2.1-0.1s-0.1-1.8-1.4,0.4c0,0-0.7,1.8-1.8,2.7c-1.1,0.9-1.6,2.9-1.6,2.9s0,0.5,0.9-0.7c0.9-1.2,4-3.2,4.4-2.4
		c0.4,0.8,0,1.2-0.2,1.9s0,0.5,2.8,0.3c2.8-0.3,8.3,0,13.4,3.6s7.6,4.4,7.6,4.4s1.8,0.8,3.5,3.3s5.5,4.4,5.5,4.4s0.8,0.4,0-0.9
		c-0.8-1.2-2.2-3.8-1.3-4.7c1-0.9,2.3,0.7,2.3,0.7s5.1,4.9,6,7.1c0.9,2.2,2.2,2.6,2,1.7s-2.9-8-5-10.3c-2.2-2.3,3.3-4.4,3.3-4.4
		s1.7-0.7,2.2-0.5c0.7,0.2-1.7,1.4-1.7,1.4s-1.9,1-1.1,2.1c0.8,1.1,4.5,5.7,4.5,5.7s1.9,2.7,2.2,4.5s1.4,2.2,1.3,0.6s1.8-4.6,3.9-6
		c2.1-1.4,7.7-5.9,7.7-5.9s2.7-1.7,0.9,1.5c-1.8,3.2-6.3,7.6-6.3,7.7s-1.4,0.7,1.4,1.3s3.1,0.7,3.1,0.7s0.8-0.1,1.2-1.4
		c0.4-1.3,4.5-5.2,4.5-5.2s11.9-15.9,27.8-18.5C245.5,284.6,247.9,284.6,245.7,283.9z"/>
	<path class="st2" d="M158.3,273.1c0,0-0.8-1.8-1.7-1.4c0,0-6.9,4.5-7.5,12.2c0,0,0,0.2,0.3,0c0.3-0.2,3.5-2.1,4.3-0.2l0.3,0.9
		c0,0,0.1,0.2,0.4,0.1c0.3-0.1,2.3-2.8,9.8-0.2s6.5,1.9,7.8,2.9c0,0,0.7,0.8,1.6,0.3c0.9-0.6,3.6-1.5,7.8,3c0,0,1.2,1.6,1-0.1
		s2.2-1.8,2.2-1.8s4.8,0.5,6.9,0c2.1-0.5,15.7-4.8,15.7-4.8s1.4-0.5,0.1-0.7c-1.3-0.2-12.5-2-18.4-2.2c0,0-6.1,1-7.2,1
		c-1.3,0-2.2-0.2-4.5-0.6c0,0-2.7-0.3-3.6-0.1c-0.9,0.2-4.4-0.1-4.4-0.1c-2-0.4-4.4-0.4-6-0.2c-1.6,0.2,0.9-0.7,0.9-0.7
		s1.7-0.3,4.9-0.3c3.2,0.1,7.3-0.7,7.3-0.7s2.2-0.4,4.6-0.1c2.5,0.3,5-1.5,5-1.5s1.7-1.5,0.7,0.2s-4.2,2.4-0.9,1.9
		c3.3-0.5,10.2,0.6,10.2,0.6s11.1,0.5,16.2-0.4c5.5-1,10-2.3,12-2.8c1.6-0.4,5.6-1.3,7-5c1.6-4.4-0.5-0.3-3.3,0.7
		c-2.8,1-7.6,2.1-9.6,2s-1.2-0.1-0.3-1.4c1-1.3,1.4-2.4,1.6-3.5c0.2-1.1,0-1.1-0.6-0.4c-0.6,0.7-2.8,3.6-6.7,4.6
		c-3.9,1-10.9,1.2-11.4,0.4c-0.6-0.8,1.5-1.4,1.5-1.4s2.2-0.5-0.1-0.9s-6.7,1-6.7,1s-0.7,0.4-1.5,1.3c-0.8,0.8-2.5,2.8-3.6,3
		c-1.1,0.2-0.6-0.1,0.2-0.7c0.8-0.6,3.4-5,3.6-5.7s0.2-1.3-1.7,0.1c-1.8,1.4-4.6,3.5-6.2,3.9s0.3-1,0.3-1s2.6-2.5,3-3.9
		c0.4-1.5-0.7-0.4-0.7-0.4s-2.1,2.8-5.7,4.5c0,0-0.4,0.1-0.9,0.8c-0.5,0.7-2.1,1.4-2.1,1.4s-1.4,0.3-0.3-0.4
		c1.1-0.7,3.1-3.6,3.2-5.3c0.1-1.7,0.2-2.2-0.9-0.8c-1.1,1.4-2.3,4.7-7.4,5.1C169.2,275.6,160,277.2,158.3,273.1z"/>
	<path class="st1" d="M339.4,367.7c-6.5-0.3-12.4,2.4-12.3,3.9c0,1.6,0.2,2.4-3,1.3c-4.8-1.7-13.1-10.2-19.4-13.3
		c-8.4-4.1-8.3,4.5-7.2,5.3s14.9,13,16.2,14.1c1.2,1.1,1,0.5,1,0.5s-0.4-2.1,3.2-3.8c4.7-2.3,22.1,5.6,24,6.5c1.4,0.7,1.5-0.7,2.2-2
		c3.1-5.7,10.4-6.7,11.9-7.1s-1.2-0.9-1.2-0.9c-3.6-0.6-11.8-4.4-11.8-4.4L339.4,367.7z"/>
	<path class="st2" d="M213.1,310.3c3.4-1.2,18.1,5.9,18.1,5.9s-1.5-4.8,2.5-6.8c4.1-2.1,17.8,5,17.8,5s1.5,0.8,2.9-2.7
		c1.6-4,20.7-4.5,20.7-4.5s0.4-0.8-1.8-0.9c-2.3-0.1-20-7.2-20-7.2s-10.5,2.4-9.5,5.7c1,3.3-2.5,1.9-3.1,1.5
		c-0.6-0.4-12.7-8.2-16.3-6.9C220.7,300.6,213.1,310.3,213.1,310.3z"/>
	<path class="st0" d="M264.2,310.4c-6.1-1.3-11,6.8-11,6.8s-14-6.2-17-5.2c-3,1-2.4,4.7-2.4,4.7c4.1,1,13.3,7.7,13.3,7.7l0-3.1
		c0.2-4.2,5.9-1.6,9.7,0.3l0.1,0c0.8,0.3,7.5,4.1,7.5,4.1s-3.7-3.2,1.6-6.1c6.2-2.7,16.9-0.6,20.1-1.2c3.9-0.7,0.3-0.7,0.3-0.7
		C284.3,317.9,270.3,311.7,264.2,310.4z"/>
	<path class="st1" d="M253.4,293.5c-9.8-0.6-12.6-3.3-12.6-3.3c-10.4,0.1-15.8,8-15.8,8c3.7-1.3,14.8,5.3,15.2,5.6
		c0.7-1.9,0.3-2.4,0.4-3.6C241.1,294.3,253.4,293.5,253.4,293.5z"/>
	<path class="st0" d="M302.8,356.6c9.8,3.5,12.3,9.9,19,11.2c0,0,1.7-6.1,16.4-3.1c0,0-11.6-7.2-12.9-10.1s-16-1.7-13.1,1.6
		c1.1,1.3-1.7-0.1-2.4-0.6c-0.6-0.5-6.2-5.5-15.9-2.4c-0.4,0.1-1.3,0.1-2.3-0.9c-1.3-1.3-6.7-3.6-5.8,3c0,0,7.9,4.8,8.8,7.5
		C294.7,362.7,295.1,353.9,302.8,356.6z"/>
	<path class="st1" d="M305.5,332.4c-2.8-0.2-8.5-3.3-13-6c0,0-2.6-1.7-5.2-3.4c-3.2-2.1-9.5-2.5-9.5-2.5
		c-16.4-1.3-11.9,7.1-11.9,7.1s-6.5-3.9-13.1-6.8c-2.9-1.3-3.9-0.5-4.1,0.7c-0.3,1.9,0,4.3,0,4.3c1,0.5,7.2,5.2,13.6,10.5
		c2.6,2.5,20,16.9,20,16.9c-4.4-4.8-7.8-13.7-6.6-17.2c0.5-1.6,1.5-3.2,3.2-3.8c1.5-0.4,3.3,0.6,5.9,2.1c7,4.1,17.9,1.6,19.4,1.1
		s6.2-3.4,6.2-3.4C308.6,332.6,305.5,332.4,305.5,332.4z"/>
	<path class="st2" d="M312.5,343.4c-3.8,3.5-12.9,3.2-12.9,3.2s-12.2,0.6-16.4-2.3c-5.2-3.5-2.3-6.2-0.3-5.5
		c3.6,1.3,12.1,2.1,16.9,1.6c4.7-0.5,6.2-4.1,6.2-4.1c-3.6,1.9-15.5,3.2-22.4-1.3c-1.8-1.1-3-1.3-3.9-0.9c0,0,0,0,0,0
		c-4.8,1.6-0.8,11.9,4.7,19.5c0,0,0-2,1.4-3.9c1.5-1.9,5.9-0.1,7.8,1.6c1.5-1.6,9.9-1.8,15.1,0.5c2.4-1.9,16.2-2.3,16.2-2.3
		C316.7,348.5,312.5,343.4,312.5,343.4z"/>
	<path class="st1" d="M85,300c-3.6-0.6-11.8-4.4-11.8-4.4l-3.5-0.1c-6.5-0.3-12.4,2.4-12.3,3.9c0,1.6,0.2,2.4-3,1.3
		c-4.8-1.7-13.1-10.2-19.4-13.3c-8.4-4.1-8.3,4.5-7.2,5.3c1.1,0.9,14.9,13,16.2,14.1c1.2,1.1,1,0.5,1,0.5s-0.4-2.1,3.2-3.8
		c4.7-2.3,22.1,5.6,24,6.5c1.4,0.7,1.5-0.7,2.2-2c3.1-5.7,10.4-6.7,11.9-7.1S85,300,85,300z"/>
	<path class="st2" d="M92.8,302.7c-11,1.1-11,7.2-11,7.2s1.3,2.8-2.6,3.5c-1.5,0.3-4.3,0.9-7.4-0.5c-6.6-3-14.6-6-18.9-6.7
		c-7.4-1.3-6.2,3.1-6.2,3.1s0.2,0.7,1.6,1.3c3.8,1.7,25.5,13.1,25.7,13.3s0-0.2,0-0.2s-3-3.4,0.2-5.5s20.9,1.3,23.7,1.9
		c3.1,0.6-1.5-0.8-1.4-5.8c0.1-5,8.1-9.3,8.9-9.8C107.3,303.4,92.8,302.7,92.8,302.7z"/>
	<path class="st0" d="M133.8,304.3c-3.2,1.1-22,0.1-22,0.1s-6.4,3.3-9,5.2s-3.6,7.7,1.1,9.9c4.1,1.9,1,3.3-1.3,2.7
		c-1.3-0.3-23.7-4.9-27-2.7c-2.4,1.6,0.4,4,0.4,4c6.3,4.2,19.8,7.8,19.8,7.8s0.7,0.2,0.8-0.1c0.2-0.4,4.1-2.5,4.1-2.5
		c8.4-3.1,21.8-2.9,21.8-2.9s1-0.1-0.6-1s-2.5-3.7-2.5-3.7c-2.4-8.7,12-14.9,12-14.9S136,303.7,133.8,304.3z"/>
	<path class="st1" d="M144,304.1c0,0-7.5,3.7-13.1,8.1c-5.6,4.4-6.5,7.6-6,9.5c0.4,1.6,4,4.7,4,4.7c0.9,1.7-7.8,1.8-7.8,1.8
		c-18.7-0.6-22.4,4.4-22.4,4.4s-0.1,0.2,0.6,0.5c0.7,0.3,5.2,1.1,5.2,1.1c12.4,1.7,26.3-3.4,26.3-3.4s6.3-1.6,7.1-5
		c0.4-2-0.6-3.3,4.8-9.5c5.4-6.3,19.3-5.9,28.2-1c8.9,4.9,13,1.9,13,1.9C153.4,301.3,144,304.1,144,304.1z"/>
	<path class="st2" d="M3.5,233.9c-0.5,0-1.8-0.4-3.5-1v2.2c3.1-0.2,5.4-0.3,5.4-0.3S5.8,234,3.5,233.9z"/>
	<path class="st0" d="M0,239.8v6.6c6.1-1,13.8,0.3,16.4-0.2c3.9-0.7,0.3-0.7,0.3-0.7C15.1,245.6,6.6,242.1,0,239.8z"/>
	<path class="st0" d="M55.6,282.4c-1.2-3-16-1.7-13.1,1.6c1.1,1.3-1.7-0.1-2.4-0.6c-0.6-0.5-6.2-5.5-15.9-2.4
		c-0.4,0.1-1.3,0.1-2.3-0.9c-1.3-1.3-6.7-3.6-5.8,3c0,0,7.9,4.8,8.8,7.5c0,0,0.5-8.9,8.1-6.1c9.8,3.5,12.3,9.9,19,11.2
		c0,0,1.7-6.1,16.4-3.1C68.4,292.5,56.8,285.3,55.6,282.4z"/>
	<path class="st2" d="M168.6,320.3c-6.6-5.5-11.4-5.9-11.4-5.9c-13.5-0.9-15.7,9.7-16.4,12.3s-7.1,4.4-7.1,4.4l26.5,0.9
		c6.5-10.5,17.2-4.1,17.8-3.8c11.7,6.2,28.1,1.9,28.1,1.9c-8.7-1.7-18.8-9.7-18.8-9.7S175.2,325.8,168.6,320.3z"/>
	<path class="st0" d="M206.2,333.9c0,0-21.1,5.6-29.6-2.7c-8.5-8.4-14.3,1.7-14.3,1.7c10.4-0.5,32.6,15.6,32.6,15.6
		s-5.3-7.2,0.3-8.7c4.8-1.3,7.8,1.8,8.6,2.8c0.8,1,7.4,9.7,15,12.1c7.7,2.4,11.4-5.1,11.4-5.1C214.1,349.1,206.2,333.9,206.2,333.9z
		"/>
	<path class="st1" d="M217.9,357.4c-2.4-0.8-9-3.4-13.1-10.9c-3.8-7.1-8.7-6.4-10-4.5s1.7,6.7,4.1,8.3c2.4,1.5,22.1,15.1,22.1,15.1
		s2-6.8,12.3-4c10.3,2.8,13.5,1.1,13.5,1.1c-5.3-2.5-12-9-12-9C230.6,358.2,223.3,359.3,217.9,357.4z"/>
	<path class="st2" d="M244.9,369.6c8.3,3.4,15.8-1.8,10.4-1.6s-7.4-2.8-8.3-2.7c-0.9,0.1-7.6-0.2-15.1-1.5c-7.5-1.2-7.2,4.2-7.2,4.2
		c1.9,2.6,15,10.5,15,10.5c-0.3-2.4,3.1-4.1,11.2-1.8c11.3,3.1,19.4-3.5,16.1-2.8c-3.2,0.8-8.1-2-8.1-2s-2.3,3.9-10.8,1.1
		s-9.4-2.7-10.6-2.3c-1.6,0.5-1,4.4-1,4.4s-2.2-3.6-1.6-5.5C235.5,367.7,240.5,367.7,244.9,369.6z"/>
	<path class="st0" d="M275.5,379.3c-4.4-0.1-7.9-2.9-7.9-2.9s-3.2,2.4-5.9,3.1c-1.9,0.5-6.8,0.6-13.9-1.8c-5.8-1.9-6.8,1.5-6.8,1.5
		l11.3,4.6c3.5-3.6,9.9-0.8,9.9-0.8c1.7-1.5,8.8-1.4,8.8-1.4S279.9,379.3,275.5,379.3z"/>
	<path class="st1" d="M277.3,381.2c-4.5,2.5-9.6,3-12.1,2.9c-2.5-0.1-0.1,2.5-0.5,3.3s-1.8-0.9-4.2-2.8c-2.3-1.8-6.6-0.2-6.6-0.2
		s9.3,5.5,13.3,5.7l1.9-1.8c2.8-3,7.4-0.4,7.4-0.4s1.1-2.3,4.6-2.3c3.5,0,5.8-2,5.8-2C285,384.4,277.3,381.2,277.3,381.2z"/>
	<path class="st2" d="M287.8,385.2c0,0-1.7,0.8-5.3,1.4c-3.6,0.7-3,1.9-2.8,3.4c0.2,1.5-2.7,0.3-4.4-0.6c-1.8-0.9-5.8,1.1-5.8,1.1
		l14.2,3.3c1.1-3.9,10.2-7.8,10.2-7.8C292.1,386.5,287.8,385.2,287.8,385.2z"/>
	<path class="st0" d="M298.6,389.5c4.2-1.1,5.6-4.7,5.6-4.7s-2.3,1.4-9.6,3.3c-7.3,1.9-8.7,6.5-8.7,6.5c4.1-2,8.2,1.6,8.2,1.6
		l6.5,4.7c0,0-7.4-8.8,2.5-7.4c9.9,1.3,13-3.3,13-3.3s-9.4,1.9-11.5,1c-2.2-0.9-7.7,0.4-7.7,0.4s-5.6,1.2-5.8,0.3
		C290.6,390.7,298.6,389.5,298.6,389.5z"/>
	<path class="st1" d="M313.7,397.3c5-0.7,4.7-2.4,4.7-2.4s-5.7,1.6-13.4,0.5c-7.7-1.1-3.2,4.8-3.2,4.8l3.6,1.9l-2-3.7
		c-1.8-2.9,4.5,0.9,7.2,1.9s2.9,6.6,2.9,6.6s3-1,6.3-0.7s10.8,10.2,10.8,10.2l0,0c-1.2-9.2-11.7-17.3-11.7-17.3
		c-1.3,0.9-4.4,0.3-4.4,0.3S308.7,397.9,313.7,397.3z"/>
	<path class="st1" d="M35.8,260.1c-2.8-0.2-8.5-3.3-13-6c0,0-2.6-1.7-5.2-3.4c-3.2-2.1-9.5-2.5-9.5-2.5c-3.6-0.3-6.3-0.1-8.1,0.4
		v21.8c5.7,4.8,12.6,10.5,12.6,10.5c-4.4-4.8-7.8-13.7-6.6-17.2c0.5-1.6,1.5-3.2,3.2-3.8c1.5-0.4,3.3,0.6,5.9,2.1
		c7,4.1,17.9,1.6,19.4,1.1c1.6-0.5,6.2-3.4,6.2-3.4C38.9,260.3,35.8,260.1,35.8,260.1z"/>
	<path class="st2" d="M42.8,271.1c-3.8,3.5-12.9,3.2-12.9,3.2s-12.2,0.6-16.4-2.3c-5.2-3.5-2.3-6.2-0.3-5.5
		c3.6,1.3,12.1,2.1,16.9,1.6s6.2-4.1,6.2-4.1c-3.6,1.9-15.5,3.2-22.4-1.3c-1.8-1.1-3-1.3-3.9-0.9c0,0,0,0,0,0
		c-4.8,1.6-0.8,11.9,4.7,19.5c0,0,0-2,1.4-3.9c1.5-1.9,5.9-0.1,7.8,1.6c1.5-1.6,9.9-1.8,15.1,0.5c2.4-1.9,16.2-2.3,16.2-2.3
		C47,276.2,42.8,271.1,42.8,271.1z"/>
	<path class="st0" d="M5.7,307c-2.3,0-4.3-0.8-5.7-1.5v3.9c0.7,0,1.2,0,1.2,0S10.1,307.1,5.7,307z"/>
	<path class="st1" d="M7.6,308.9c-2.5,1.4-5.3,2.2-7.6,2.6v4c2.8-2.3,6.9,0,6.9,0s1.1-2.3,4.6-2.3c3.5,0,5.8-2,5.8-2
		C15.3,312.1,7.6,308.9,7.6,308.9z"/>
	<path class="st2" d="M18,312.9c0,0-1.7,0.8-5.3,1.4c-3.6,0.7-3,1.9-2.8,3.4s-2.7,0.3-4.4-0.6c-1.5-0.8-4.5,0.5-5.5,1v0.2l13.9,3.2
		c1.1-3.9,10.2-7.8,10.2-7.8C22.4,314.3,18,312.9,18,312.9z"/>
	<path class="st0" d="M28.8,317.2c4.2-1.1,5.6-4.7,5.6-4.7s-2.3,1.4-9.6,3.3c-7.3,1.9-8.7,6.5-8.7,6.5c4.1-2,8.2,1.6,8.2,1.6
		l6.5,4.7c0,0-7.4-8.8,2.5-7.4c9.9,1.3,13-3.3,13-3.3s-9.4,1.9-11.5,1c-2.2-0.9-7.7,0.4-7.7,0.4s-5.6,1.2-5.8,0.3
		S28.8,317.2,28.8,317.2z"/>
	<path class="st1" d="M50.1,334c3.3,0.3,10.8,10.2,10.8,10.2c-1.2-9.2-11.7-17.3-11.7-17.3c-1.3,0.9-4.4,0.3-4.4,0.3
		S39,325.7,44,325c5-0.7,4.7-2.4,4.7-2.4s-5.7,1.6-13.4,0.5c-7.7-1.1-3.2,4.8-3.2,4.8l3.6,1.9l-2-3.7c-1.8-2.9,4.5,0.9,7.2,1.9
		c2.7,1.1,2.9,6.6,2.9,6.6S46.8,333.6,50.1,334z"/>
	<path class="st2" d="M153.7,372.1c1.1-0.7,3.1-3.6,3.2-5.3s0.2-2.2-0.9-0.8c-1.1,1.4-2.3,4.7-7.4,5.1c-5.1,0.4-14.2,1.9-15.9-2.1
		c0,0-0.8-1.8-1.7-1.4c0,0-6.9,4.5-7.5,12.2c0,0,0,0.2,0.3,0c0.3-0.2,3.5-2.1,4.3-0.2l0.3,0.9c0,0,0.1,0.2,0.4,0.1
		c0.3-0.1,2.3-2.8,9.8-0.2s6.5,1.9,7.8,2.9c0,0,0.7,0.8,1.6,0.3c0.9-0.6,3.6-1.5,7.8,3c0,0,1.2,1.6,1-0.1s2.2-1.8,2.2-1.8
		s4.8,0.5,6.9,0c2.1-0.5,15.7-4.8,15.7-4.8s1.4-0.5,0.1-0.7s-12.5-2-18.4-2.2c0,0-6.1,1-7.2,1c-1.3,0-2.2-0.2-4.5-0.6
		c0,0-2.7-0.3-3.6-0.1c-0.9,0.2-4.4-0.1-4.4-0.1c-2-0.4-4.4-0.4-6-0.2c-1.6,0.2,0.9-0.7,0.9-0.7s1.7-0.3,4.9-0.3
		c3.2,0.1,7.3-0.7,7.3-0.7s2.2-0.4,4.6-0.1c2.5,0.3,5-1.5,5-1.5s1.7-1.5,0.7,0.2c-1,1.7-4.2,2.4-0.9,1.9c3.3-0.5,10.2,0.6,10.2,0.6
		s11.1,0.5,16.2-0.4c5.5-1,10-2.3,12-2.8c1.6-0.4,5.6-1.3,7-5c1.6-4.4-0.5-0.3-3.3,0.7c-2.8,1-7.6,2.1-9.6,2s-1.2-0.1-0.3-1.4
		c1-1.3,1.4-2.4,1.6-3.5c0.2-1.1,0-1.1-0.6-0.4c-0.6,0.7-2.8,3.6-6.7,4.6c-3.9,1-10.9,1.2-11.4,0.4c-0.6-0.8,1.5-1.4,1.5-1.4
		s2.2-0.5-0.1-0.9c-2.3-0.4-6.7,1-6.7,1s-0.7,0.4-1.5,1.3c-0.8,0.8-2.5,2.8-3.6,3c-1.1,0.2-0.6-0.1,0.2-0.7c0.8-0.6,3.4-5,3.6-5.7
		c0.2-0.7,0.2-1.3-1.7,0.1c-1.8,1.4-4.6,3.5-6.2,3.9c-1.5,0.5,0.3-1,0.3-1s2.6-2.5,3-3.9c0.4-1.5-0.7-0.4-0.7-0.4s-2.1,2.8-5.7,4.5
		c0,0-0.4,0.1-0.9,0.8c-0.5,0.7-2.1,1.4-2.1,1.4S152.6,372.9,153.7,372.1z"/>
	<path class="st0" d="M181.8,403.5c-0.1,0.1-1.4,0.7,1.4,1.3c2.8,0.6,3.1,0.7,3.1,0.7s0.8-0.1,1.2-1.4c0.4-1.3,4.5-5.2,4.5-5.2
		s11.9-15.9,27.8-18.5c0,0,2.5,0,0.2-0.7c-2.3-0.7-7.7,1.1-7.7,1.1s-10.3,3.2-18,9.7c0,0-3.8,2.5-4.4,1.8c-0.6-0.7,0.5-2.1,2-3.6
		c1.5-1.5,8.5-7.5,14.1-9.4c5.6-1.9-1.6-0.7-1.6-0.7s-8.3,1.5-17.3,9.6c-9,8.1-16,12.4-12.6,8.6c3.4-3.8,19.5-16.7,19.5-16.7
		s1.8-1.5,0.6-1.3s-15.5,5.4-24.4,7.6s-11.2,0.6-11.2,0.6s-0.8-0.3-0.7,0.6c0.1,0.9,1.1,3.4,1.1,3.4s1.3,2.5-0.6,0.7
		c-1.9-1.8-4.8-6.2-6.8-6.8c-2-0.6-3.3,0.5-3.3,0.5s0.4,1.9-0.3,1.2c-0.7-0.7-6.1-5.6-14.4-5.5c0,0-2.9-0.3-4.2,1.3
		c-1.3,1.6-2.1-0.1-2.1-0.1s-0.1-1.8-1.4,0.4c0,0-0.7,1.8-1.8,2.7s-1.6,2.9-1.6,2.9s0,0.5,0.9-0.7s4-3.2,4.4-2.4
		c0.4,0.8,0,1.2-0.2,1.9s0,0.5,2.8,0.3s8.3,0,13.4,3.6c5.2,3.6,7.6,4.4,7.6,4.4s1.8,0.8,3.5,3.3s5.5,4.4,5.5,4.4s0.8,0.4,0-0.9
		c-0.8-1.2-2.2-3.8-1.3-4.7c1-0.9,2.3,0.7,2.3,0.7s5.1,4.9,6,7.1c0.9,2.2,2.2,2.6,2,1.7c-0.2-0.8-2.9-8-5-10.3
		c-2.2-2.3,3.3-4.4,3.3-4.4s1.7-0.7,2.2-0.5c0.7,0.2-1.7,1.4-1.7,1.4s-1.9,1-1.1,2.1s4.5,5.7,4.5,5.7s1.9,2.7,2.2,4.5
		s1.4,2.2,1.3,0.6s1.8-4.6,3.9-6s7.7-5.9,7.7-5.9s2.7-1.7,0.9,1.5C186.3,398.9,181.9,403.4,181.8,403.5z"/>
	<path class="st1" d="M316.1,478c1.4,0.7,1.5-0.7,2.2-2c3.1-5.7,10.4-6.7,11.9-7.1s-1.2-0.9-1.2-0.9c-3.6-0.6-11.8-4.4-11.8-4.4
		l-3.5-0.1c-6.5-0.3-12.4,2.4-12.3,3.9s0.2,2.4-3,1.3c-4.8-1.7-13.1-10.2-19.4-13.3c-8.4-4.1-8.3,4.5-7.2,5.3
		c1.1,0.9,14.9,13,16.2,14.1c1.2,1.1,1,0.5,1,0.5s-0.4-2.1,3.2-3.8C296.8,469.3,314.2,477.1,316.1,478z"/>
	<path class="st2" d="M208,405.3c4.1-2.1,17.8,5,17.8,5s1.5,0.8,2.9-2.7c1.6-4,20.7-4.5,20.7-4.5s0.4-0.8-1.8-0.9
		c-2.3-0.1-20-7.2-20-7.2s-10.5,2.4-9.5,5.7s-2.5,1.9-3.1,1.5c-0.6-0.4-12.7-8.2-16.3-6.9s-11.2,11-11.2,11
		c3.4-1.2,18.1,5.9,18.1,5.9S204.1,407.3,208,405.3z"/>
	<path class="st0" d="M221.4,420.2l0-3.1c0.2-4.2,5.9-1.6,9.7,0.3l0.1,0c0.8,0.3,7.5,4.1,7.5,4.1s-3.7-3.2,1.6-6.1
		c6.2-2.7,16.9-0.6,20.1-1.2c3.9-0.7,0.3-0.7,0.3-0.7c-2.2,0.1-16.2-6.1-22.3-7.4c-6.1-1.3-11,6.8-11,6.8s-14-6.2-17-5.2
		c-3,1-2.4,4.7-2.4,4.7C212.2,413.5,221.4,420.2,221.4,420.2z"/>
	<path class="st1" d="M227.7,389.4c-9.8-0.6-12.6-3.3-12.6-3.3c-10.4,0.1-15.8,8-15.8,8c3.7-1.3,14.8,5.3,15.2,5.6
		c0.7-1.9,0.3-2.4,0.4-3.6C215.4,390.2,227.7,389.4,227.7,389.4z"/>
	<path class="st0" d="M284.2,451.5c-0.6-0.5-6.2-5.5-15.9-2.4c-0.4,0.1-1.3,0.1-2.3-0.9c-1.3-1.3-6.7-3.6-5.8,3c0,0,7.9,4.8,8.8,7.5
		c0,0,0.5-8.9,8.1-6.1c9.8,3.5,12.3,9.9,19,11.2c0,0,1.7-6.1,16.4-3.1c0,0-11.6-7.2-12.9-10.1c-1.2-3-16-1.7-13.1,1.6
		C287.6,453.3,284.8,452,284.2,451.5z"/>
	<path class="st1" d="M223,417.3c-0.3,1.9,0,4.3,0,4.3c1,0.5,7.2,5.2,13.6,10.5c2.6,2.5,20,16.9,20,16.9c-4.4-4.8-7.8-13.7-6.6-17.2
		c0.5-1.6,1.5-3.2,3.2-3.8c1.5-0.4,3.3,0.6,5.9,2.1c7,4.1,17.9,1.6,19.4,1.1c1.6-0.5,6.2-3.4,6.2-3.4c-1.7,0.6-4.8,0.4-4.8,0.4
		c-2.8-0.2-8.5-3.3-13-6c0,0-2.6-1.7-5.2-3.4c-3.2-2.1-9.5-2.5-9.5-2.5c-16.4-1.3-11.9,7.1-11.9,7.1s-6.5-3.9-13.1-6.8
		C224.3,415.4,223.3,416.1,223,417.3z"/>
	<path class="st2" d="M286.8,439.2c-3.8,3.5-12.9,3.2-12.9,3.2s-12.2,0.6-16.4-2.3c-5.2-3.5-2.3-6.2-0.3-5.5
		c3.6,1.3,12.1,2.1,16.9,1.6c4.7-0.5,6.2-4.1,6.2-4.1c-3.6,1.9-15.5,3.2-22.4-1.3c-1.8-1.1-3-1.3-3.9-0.9c0,0,0,0,0,0
		c-4.8,1.6-0.8,11.9,4.7,19.5c0,0,0-2,1.4-3.9c1.5-1.9,5.9-0.1,7.8,1.6c1.5-1.6,9.9-1.8,15.1,0.5c2.4-1.9,16.2-2.3,16.2-2.3
		C291,444.3,286.8,439.2,286.8,439.2z"/>
	<path class="st1" d="M46.3,405.7c1.4,0.7,1.5-0.7,2.2-2c3.1-5.7,10.4-6.7,11.9-7.1s-1.2-0.9-1.2-0.9c-3.6-0.6-11.8-4.4-11.8-4.4
		l-3.5-0.1c-6.5-0.3-12.4,2.4-12.3,3.9c0,1.6,0.2,2.4-3,1.3c-4.8-1.7-13.1-10.2-19.4-13.3c-8.4-4.1-8.3,4.5-7.2,5.3
		c1.1,0.9,14.9,13,16.2,14.1s1,0.5,1,0.5s-0.4-2.1,3.2-3.8C27.1,397,44.5,404.8,46.3,405.7z"/>
	<path class="st2" d="M48.6,413.9c3.2-2.1,20.9,1.3,23.7,1.9c3.1,0.6-1.5-0.8-1.4-5.8c0.1-5,8.1-9.3,8.9-9.8
		c1.9-0.9-12.6-1.7-12.6-1.7c-11,1.1-11,7.2-11,7.2s1.3,2.8-2.6,3.5c-1.5,0.3-4.3,0.9-7.4-0.5c-6.6-3-14.6-6-18.9-6.7
		c-7.4-1.3-6.2,3.1-6.2,3.1s0.2,0.7,1.6,1.3c3.8,1.7,25.5,13.1,25.7,13.3c0.2,0.1,0-0.2,0-0.2S45.4,416,48.6,413.9z"/>
	<path class="st0" d="M50.3,419.3c6.3,4.2,19.8,7.8,19.8,7.8s0.7,0.2,0.8-0.1c0.2-0.4,4.1-2.5,4.1-2.5c8.4-3.1,21.8-2.9,21.8-2.9
		s1-0.1-0.6-1s-2.5-3.7-2.5-3.7c-2.4-8.7,12-14.9,12-14.9s4.6-2.5,2.3-1.9c-3.2,1.1-22,0.1-22,0.1s-6.4,3.3-9,5.2
		c-2.6,1.9-3.6,7.7,1.1,9.9c4.1,1.9,1,3.3-1.3,2.7c-1.3-0.3-23.7-4.9-27-2.7C47.6,416.9,50.3,419.3,50.3,419.3z"/>
	<path class="st1" d="M73.5,428.8c0.7,0.3,5.2,1.1,5.2,1.1c12.4,1.7,26.3-3.4,26.3-3.4s6.3-1.6,7.1-5c0.4-2-0.6-3.3,4.8-9.5
		s19.3-5.9,28.2-1c8.9,4.9,13,1.9,13,1.9c-30.3-15.9-39.7-13.2-39.7-13.2s-7.5,3.7-13.1,8.1c-5.6,4.4-6.5,7.6-6,9.5
		c0.4,1.6,4,4.7,4,4.7c0.9,1.7-7.8,1.8-7.8,1.8c-18.7-0.6-22.4,4.4-22.4,4.4S72.9,428.6,73.5,428.8z"/>
	<path class="st0" d="M7.4,380.2c9.8,3.5,12.3,9.9,19,11.2c0,0,1.7-6.1,16.4-3.1c0,0-11.6-7.2-12.9-10.1c-1.2-3-16-1.7-13.1,1.6
		c1.1,1.3-1.7-0.1-2.4-0.6c-0.6-0.5-5.6-4.9-14.4-2.8v6.8C0.9,380.9,2.9,378.6,7.4,380.2z"/>
	<path class="st2" d="M152.4,424.1c11.7,6.2,28.1,1.9,28.1,1.9c-8.7-1.7-18.8-9.7-18.8-9.7s-12.1,5.3-18.7-0.2
		c-6.6-5.5-11.4-5.9-11.4-5.9c-13.5-0.9-15.7,9.7-16.4,12.3s-7.1,4.4-7.1,4.4l26.5,0.9C141.2,417.3,151.8,423.8,152.4,424.1z"/>
	<path class="st0" d="M169.2,444.2c0,0-5.3-7.2,0.3-8.7c4.8-1.3,7.8,1.8,8.6,2.8s7.4,9.7,15,12.1c7.7,2.4,11.4-5.1,11.4-5.1
		c-16.1-0.3-24-15.5-24-15.5s-21.1,5.6-29.6-2.7c-8.5-8.4-14.3,1.7-14.3,1.7C147.1,428.1,169.2,444.2,169.2,444.2z"/>
	<path class="st1" d="M173.2,446.1c2.4,1.5,22.1,15.1,22.1,15.1s2-6.8,12.3-4c10.3,2.8,13.5,1.1,13.5,1.1c-5.3-2.5-12-9-12-9
		c-4.3,4.7-11.6,5.8-17,3.9c-2.4-0.8-9-3.4-13.1-10.9c-3.8-7.1-8.7-6.4-10-4.5S170.9,444.5,173.2,446.1z"/>
	<path class="st2" d="M225.2,472.5c11.3,3.1,19.4-3.5,16.1-2.8c-3.2,0.8-8.1-2-8.1-2s-2.3,3.9-10.8,1.1s-9.4-2.7-10.6-2.3
		c-1.6,0.5-1,4.4-1,4.4s-2.2-3.6-1.6-5.5c0.6-1.9,5.6-1.9,10-0.1c8.3,3.4,15.8-1.8,10.4-1.6c-5.5,0.1-7.4-2.8-8.3-2.7
		c-0.9,0.1-7.6-0.2-15.1-1.5c-7.5-1.2-7.2,4.2-7.2,4.2c1.9,2.6,15,10.5,15,10.5C213.7,472,217.1,470.3,225.2,472.5z"/>
	<path class="st0" d="M236.4,478.8c1.7-1.5,8.8-1.4,8.8-1.4s8.9-2.3,4.5-2.3c-4.4-0.1-7.9-2.9-7.9-2.9s-3.2,2.4-5.9,3.1
		c-1.9,0.5-6.8,0.6-13.9-1.8c-5.8-1.9-6.8,1.5-6.8,1.5l11.3,4.6C230.1,476.1,236.4,478.8,236.4,478.8z"/>
	<path class="st1" d="M243.6,484.1c2.8-3,7.4-0.4,7.4-0.4s1.1-2.3,4.6-2.3c3.5,0,5.8-2,5.8-2c-2,0.9-9.7-2.3-9.7-2.3
		c-4.5,2.5-9.6,3-12.1,2.9c-2.5-0.1-0.1,2.5-0.5,3.3c-0.4,0.8-1.8-0.9-4.2-2.8c-2.3-1.8-6.6-0.2-6.6-0.2s9.3,5.5,13.3,5.7
		L243.6,484.1z"/>
	<path class="st2" d="M268.1,481.9c-1.6,0.4-6-0.9-6-0.9s-1.7,0.8-5.3,1.4s-3,1.9-2.8,3.4c0.2,1.5-2.7,0.3-4.4-0.6s-5.8,1.1-5.8,1.1
		l14.2,3.3C259,485.8,268.1,481.9,268.1,481.9z"/>
	<path class="st0" d="M277.2,489.2c9.9,1.3,13-3.3,13-3.3s-9.4,1.9-11.5,1c-2.2-0.9-7.7,0.4-7.7,0.4s-5.6,1.2-5.8,0.3
		c-0.2-1,7.7-2.2,7.7-2.2c4.2-1.1,5.6-4.7,5.6-4.7s-2.3,1.4-9.6,3.3s-8.7,6.5-8.7,6.5c4.1-2,8.2,1.6,8.2,1.6l6.5,4.7
		C274.8,496.6,267.3,487.8,277.2,489.2z"/>
	<path class="st1" d="M293.3,494.9c-1.3,0.9-4.4,0.3-4.4,0.3s-5.9-1.5-0.9-2.1c5-0.7,4.7-2.4,4.7-2.4s-5.7,1.6-13.4,0.5
		c-7.7-1.1-3.2,4.8-3.2,4.8l3.6,1.9l-2-3.7c-1.8-2.9,4.5,0.9,7.2,1.9c1.4,0.6,2.1,2.3,2.5,3.9h11.1
		C295.9,496.9,293.3,494.9,293.3,494.9z"/>
	<path class="st1" d="M10.1,356c-2.2-0.1-6.3-2.2-10.1-4.3v8.6c4.3-0.1,7.9-0.9,8.8-1.2c1.6-0.5,6.2-3.4,6.2-3.4
		C13.2,356.2,10.1,356,10.1,356z"/>
	<path class="st2" d="M4.2,364c4.7-0.5,6.2-4.1,6.2-4.1c-1.9,1-6,1.8-10.5,1.7v2.5C1.6,364.2,3,364.1,4.2,364z"/>
	<path class="st2" d="M13.2,375.6c2.4-1.9,16.2-2.3,16.2-2.3c-8.1-1.2-12.3-6.4-12.3-6.4c-3.8,3.5-12.9,3.2-12.9,3.2s-1.7,0.1-4.1,0
		v4.1C3.1,373.5,9.2,373.7,13.2,375.6z"/>
	<path class="st0" d="M7.5,416.9c9.9,1.3,13-3.3,13-3.3s-9.4,1.9-11.5,1c-2.2-0.9-7.7,0.4-7.7,0.4s-0.5,0.1-1.3,0.3v5.5l5,3.6
		C5,424.4-2.4,415.6,7.5,416.9z"/>
	<path class="st0" d="M8.7,408.3c0,0-2.1,1.2-8.7,3v2.2c1.7-0.3,3.2-0.6,3.2-0.6C7.3,411.9,8.7,408.3,8.7,408.3z"/>
	<path class="st1" d="M23.6,422.7c-1.3,0.9-4.4,0.3-4.4,0.3s-5.9-1.5-0.9-2.1c5-0.7,4.7-2.4,4.7-2.4s-5.7,1.6-13.4,0.5
		c-7.7-1.1-3.2,4.8-3.2,4.8l3.6,1.9l-2-3.7c-1.8-2.9,4.5,0.9,7.2,1.9c2.7,1.1,2.9,6.6,2.9,6.6s3-1,6.3-0.7
		c3.3,0.3,10.8,10.2,10.8,10.2l0,0C34.1,430.7,23.6,422.7,23.6,422.7z"/>
	<path class="st2" d="M107,464.8c0,0-0.8-1.8-1.7-1.4c0,0-6.9,4.5-7.5,12.2c0,0,0,0.2,0.3,0s3.5-2.1,4.3-0.2l0.3,0.9
		c0,0,0.1,0.2,0.4,0.1c0.3-0.1,2.3-2.8,9.8-0.2c7.5,2.5,6.5,1.9,7.8,2.9c0,0,0.7,0.8,1.6,0.3c0.9-0.6,3.6-1.5,7.8,3
		c0,0,1.2,1.6,1-0.1c-0.2-1.7,2.2-1.8,2.2-1.8s4.8,0.5,6.9,0c2.1-0.5,15.7-4.8,15.7-4.8s1.4-0.5,0.1-0.7s-12.5-2-18.4-2.2
		c0,0-6.1,1-7.2,1c-1.3,0-2.2-0.2-4.5-0.6c0,0-2.7-0.3-3.6-0.1c-0.9,0.2-4.4-0.1-4.4-0.1c-2-0.4-4.4-0.4-6-0.2
		c-1.6,0.2,0.9-0.7,0.9-0.7s1.7-0.3,4.9-0.3c3.2,0.1,7.3-0.7,7.3-0.7s2.2-0.4,4.6-0.1c2.5,0.3,5-1.5,5-1.5s1.7-1.5,0.7,0.2
		c-1,1.7-4.2,2.4-0.9,1.9c3.3-0.5,10.2,0.6,10.2,0.6s11.1,0.5,16.2-0.4c5.5-1,10-2.3,12-2.8c1.6-0.4,5.6-1.3,7-5
		c1.6-4.4-0.5-0.3-3.3,0.7c-2.8,1-7.6,2.1-9.6,2c-2-0.1-1.2-0.1-0.3-1.4c1-1.3,1.4-2.4,1.6-3.5s0-1.1-0.6-0.4
		c-0.6,0.7-2.8,3.6-6.7,4.6s-10.9,1.2-11.4,0.4c-0.6-0.8,1.5-1.4,1.5-1.4s2.2-0.5-0.1-0.9c-2.3-0.4-6.7,1-6.7,1s-0.7,0.4-1.5,1.3
		c-0.8,0.8-2.5,2.8-3.6,3c-1.1,0.2-0.6-0.1,0.2-0.7s3.4-5,3.6-5.7c0.2-0.7,0.2-1.3-1.7,0.1c-1.8,1.4-4.6,3.5-6.2,3.9
		c-1.5,0.5,0.3-1,0.3-1s2.6-2.5,3-3.9c0.4-1.5-0.7-0.4-0.7-0.4s-2.1,2.8-5.7,4.5c0,0-0.4,0.1-0.9,0.8c-0.5,0.7-2.1,1.4-2.1,1.4
		s-1.4,0.3-0.3-0.4s3.1-3.6,3.2-5.3s0.2-2.2-0.9-0.8c-1.1,1.4-2.3,4.7-7.4,5.1C117.8,467.3,108.7,468.8,107,464.8z"/>
	<path class="st0" d="M139.2,492.6c-2.2-2.3,3.3-4.4,3.3-4.4s1.7-0.7,2.2-0.5c0.7,0.2-1.7,1.4-1.7,1.4s-1.9,1-1.1,2.1
		s4.5,5.7,4.5,5.7s1.1,1.5,1.8,3.1h2.3c0.7-1.4,2-3.1,3.3-4c2.1-1.4,7.7-5.9,7.7-5.9s2.7-1.7,0.9,1.5c-1.8,3.2-6.3,7.6-6.3,7.7
		c0,0.1-0.6,0.3-0.3,0.7h5.9c0,0,0,0,0,0c0.4-1.3,4.5-5.2,4.5-5.2s11.9-15.9,27.8-18.5c0,0,2.5,0,0.2-0.7c-2.3-0.7-7.7,1.1-7.7,1.1
		s-10.3,3.2-18,9.7c0,0-3.8,2.5-4.4,1.8c-0.6-0.7,0.5-2.1,2-3.6c1.5-1.5,8.5-7.5,14.1-9.4c5.6-1.9-1.6-0.7-1.6-0.7
		s-8.3,1.5-17.3,9.6c-9,8.1-16,12.4-12.6,8.6c3.4-3.8,19.5-16.7,19.5-16.7s1.8-1.5,0.6-1.3c-1.2,0.2-15.5,5.4-24.4,7.6
		c-8.9,2.1-11.2,0.6-11.2,0.6s-0.8-0.3-0.7,0.6c0.1,0.9,1.1,3.4,1.1,3.4s1.3,2.5-0.6,0.7c-1.9-1.8-4.8-6.2-6.8-6.8s-3.3,0.5-3.3,0.5
		s0.4,1.9-0.3,1.2c-0.7-0.7-6.1-5.6-14.4-5.5c0,0-2.9-0.3-4.2,1.3c-1.3,1.6-2.1-0.1-2.1-0.1s-0.1-1.8-1.4,0.4c0,0-0.7,1.8-1.8,2.7
		c-1.1,0.9-1.6,2.9-1.6,2.9s0,0.5,0.9-0.7s4-3.2,4.4-2.4c0.4,0.8,0,1.2-0.2,1.9c-0.2,0.7,0,0.5,2.8,0.3c2.8-0.3,8.3,0,13.4,3.6
		s7.6,4.4,7.6,4.4s1.8,0.8,3.5,3.3s5.5,4.4,5.5,4.4s0.8,0.4,0-0.9c-0.8-1.2-2.2-3.8-1.3-4.7c1-0.9,2.3,0.7,2.3,0.7s3.6,3.5,5.3,5.9
		h1.6C142.1,497.5,140.5,494.1,139.2,492.6z"/>
	<path class="st2" d="M163.4,500h47.5c5.9-1,12.8-1.2,12.8-1.2s0.4-0.8-1.8-0.9c-2.3-0.1-20-7.2-20-7.2s-10.5,2.4-9.5,5.7
		c1,3.3-2.5,1.9-3.1,1.5c-0.6-0.4-12.7-8.2-16.3-6.9C170.4,491.9,165.8,497.1,163.4,500z"/>
	<path class="st1" d="M173.6,489.9c3.7-1.3,14.8,5.3,15.2,5.6c0.7-1.9,0.3-2.4,0.4-3.6c0.6-5.9,12.8-6.7,12.8-6.7
		c-9.8-0.6-12.6-3.3-12.6-3.3C179.1,482,173.6,489.9,173.6,489.9z"/>
	<path class="st1" d="M34.8,492.5c1.5-0.4-1.2-0.9-1.2-0.9c-3.6-0.6-11.8-4.4-11.8-4.4l-3.5-0.1C11.8,486.8,6,489.5,6,491
		s0.2,2.4-3,1.3c-0.9-0.3-1.9-0.9-3-1.6v4c4.9,0.4,12.6,3.4,17.2,5.3h5.5c0.1-0.1,0.1-0.3,0.2-0.4C26,493.9,33.3,492.9,34.8,492.5z"
		/>
	<path class="st2" d="M1.7,497.8c-0.6-0.1-1.2-0.2-1.7-0.2v2.4h9.4C6.3,498.9,3.6,498.1,1.7,497.8z"/>
	<path class="st2" d="M41.5,494.3c-7.5,0.8-9.9,3.8-10.6,5.7h17.5c2.4-2.2,5.2-3.8,5.7-4C56,495.1,41.5,494.3,41.5,494.3z"/>
	<path class="st0" d="M82.4,496c-3.2,1.1-22,0.1-22,0.1s-4.1,2.1-7.1,3.9h22.8c2.2-1.4,4-2.1,4-2.1S84.7,495.4,82.4,496z"/>
	<path class="st1" d="M92.7,495.7c0,0-3.5,1.7-7.6,4.3h28C97.9,494.2,92.7,495.7,92.7,495.7z"/>
	<path class="st0" d="M17.1,484.2c0,0-11.6-7.2-12.9-10.1c-0.4-0.9-2.1-1.4-4.2-1.6V487c0.2,0.1,0.4,0.1,0.7,0.2
		C0.7,487.2,2.4,481.1,17.1,484.2z"/>
	<path class="st2" d="M0,468.2v1.1c2.2-0.1,3.7-0.2,3.7-0.2C2.4,468.9,1.1,468.6,0,468.2z"/>
</g>
</svg>
